M48
;Layer_Color=9474304
;FILE_FORMAT=4:3
METRIC,LZ
;TYPE=PLATED
T1F00S00C0.300
T2F00S00C0.330
%
T01
X00063Y0005227
X0007125Y000467
X00079Y0004317
X00089Y000446
X00085Y00053
X0007Y0006252
X00094Y00078
X00123Y0002975
X00127Y0001275
X00136Y000181
X00169Y00017
X0018Y00027
X00188Y00024
X00226Y00027
X00247Y0002303
X00248Y000327
X002326Y00051
X00239Y00065
X002326Y0008133
X00227Y00089
X0022Y00095
X00221Y00107
X00228Y00101
X0022932Y001122
X0021082Y0008262
X0020943Y0005473
X0020954Y0004502
X00292Y00013
X00309
X00326
X00365Y0001891
X003804Y00019
X0039602
X0038626Y00053
Y00062
Y00071
X00388Y00081
X00386Y0011557
X0033884Y00112
Y0010065
X00344Y0009304
X0031385Y0008508
X0031002Y00107
X00274Y00107
X0026934Y0009991
X00276Y00119
X00357Y0004549
X00373Y00052
X00386Y00125
Y00134
X0038678Y001417
X00386Y00152
Y00161
X00379Y00167
X00369Y00165
X003603Y0017424
X00365Y0020348
X003804Y0020357
X0039602
X00336Y001414
X00339Y0012396
X0032368Y00129
X00305Y0012792
X00295Y00126
X00283Y00131
X00258Y0017026
X0023979Y0017157
X0024Y00162
X0024494Y00195
X002269Y00198
X0021279Y00198
X0019325Y00199
X0018Y0019255
X00194Y00169
X00217Y00179
X0014283Y001708
X00145Y00155
X0014525Y001471
X00138Y0013761
X0013Y00139
X0012879Y00165
X00116Y00169
X0009887Y001719
X0009274Y001904
X0007125Y0016844
X000845Y0015106
X00047Y00152
X000462Y0014395
X00033Y00183
X000302Y00191
X00036Y0019782
X0002957Y0020395
X00012Y00204
X00021Y00177
X0013979Y00207
T02
X0013875Y00079
Y00091
Y00103
Y00115
X0015075
Y00103
X0016275
Y00115
X0017475
Y00103
Y00091
X0016275
Y00079
X0017475
X0015075
Y00091
M30
