G04 Layer_Physical_Order=4*
G04 Layer_Color=16711680*
%FSLAX43Y43*%
%MOMM*%
G71*
G01*
G75*
%ADD13R,0.600X0.500*%
%ADD14R,0.900X0.700*%
%ADD18R,0.700X0.900*%
%ADD19R,0.500X0.600*%
%ADD35C,0.250*%
%ADD36C,0.200*%
%ADD37C,0.300*%
%ADD38C,0.220*%
%ADD39C,0.500*%
%ADD40C,0.400*%
%ADD45C,0.620*%
%ADD46C,0.660*%
%ADD48C,0.600*%
%ADD51R,1.400X0.800*%
%ADD52R,1.300X0.500*%
%ADD53R,1.000X1.400*%
%ADD54R,1.200X0.300*%
%ADD55R,1.400X1.000*%
%ADD56R,0.300X1.200*%
%ADD57R,0.300X1.000*%
%ADD58R,2.600X1.500*%
%ADD59R,0.500X0.650*%
%ADD60O,0.650X0.200*%
%ADD61O,0.200X0.650*%
%ADD62R,4.700X4.700*%
%ADD63R,1.000X1.800*%
%ADD64R,0.650X0.500*%
%ADD65R,0.800X0.750*%
%ADD66R,1.100X0.650*%
%ADD67R,1.200X0.500*%
%ADD68R,1.100X0.200*%
%ADD69O,1.100X0.200*%
%ADD70R,2.300X2.300*%
%ADD71R,0.850X0.950*%
%ADD72C,0.230*%
%ADD73R,0.500X1.550*%
%ADD74R,3.725X0.500*%
G36*
X23485Y17433D02*
X23448Y17377D01*
X23429Y17284D01*
X23979D01*
Y17030D01*
X23429D01*
X23448Y16937D01*
X23572Y16750D01*
X23596Y16735D01*
Y16608D01*
X23593Y16607D01*
X23469Y16420D01*
X23450Y16327D01*
X24000D01*
Y16200D01*
X24127D01*
Y15650D01*
X24220Y15669D01*
X24407Y15793D01*
X24516Y15957D01*
X24625Y15943D01*
X24643Y15936D01*
Y15584D01*
X24550D01*
Y14784D01*
X25450D01*
Y14784D01*
X25550D01*
Y14784D01*
X25962D01*
X26010Y14667D01*
X24556Y13212D01*
X24554Y13211D01*
X23373Y12030D01*
X23246Y12082D01*
Y13658D01*
X22957D01*
Y14187D01*
X22930Y14324D01*
X22852Y14440D01*
X22580Y14712D01*
Y15053D01*
X22684D01*
Y15480D01*
X22180D01*
Y15607D01*
X22053D01*
Y16161D01*
X21527D01*
Y15607D01*
X21273D01*
Y16161D01*
X20896D01*
Y16154D01*
X20727D01*
Y15600D01*
X20473D01*
Y16154D01*
X20331D01*
Y17543D01*
X21406D01*
X21521Y17467D01*
X21700Y17431D01*
X21879Y17467D01*
X21997Y17545D01*
X23425D01*
X23485Y17433D01*
D02*
G37*
G36*
X11786Y7275D02*
X11820Y7225D01*
X12180Y6864D01*
X12263Y6809D01*
X12345Y6793D01*
Y6283D01*
X12227D01*
Y5529D01*
X11973D01*
Y6283D01*
X11696D01*
Y6179D01*
X10004D01*
Y6283D01*
X9727D01*
Y5529D01*
X9473D01*
Y6283D01*
X9246D01*
X9192Y6409D01*
X9418Y6635D01*
X10861D01*
X10958Y6654D01*
X11041Y6710D01*
X11636Y7304D01*
X11672Y7305D01*
X11786Y7275D01*
D02*
G37*
G36*
X25172Y10646D02*
Y9815D01*
X25007Y9650D01*
X24590D01*
Y8850D01*
X25490D01*
Y8850D01*
X25590D01*
X25635Y8740D01*
X23855Y6960D01*
X23720Y6933D01*
X23707Y6924D01*
X23595Y6984D01*
Y7806D01*
X23693Y7954D01*
X23729Y8133D01*
X23693Y8312D01*
X23592Y8465D01*
X23439Y8566D01*
X23260Y8602D01*
X23199Y8590D01*
X23122Y8704D01*
X23133Y8721D01*
X23146Y8786D01*
X25055Y10694D01*
X25172Y10646D01*
D02*
G37*
G36*
X21015Y8718D02*
X20902Y8696D01*
X20750Y8594D01*
X20648Y8442D01*
X20613Y8262D01*
X20648Y8083D01*
X20750Y7931D01*
X20902Y7829D01*
X21082Y7793D01*
X21261Y7829D01*
X21413Y7931D01*
X21431Y7956D01*
X21694D01*
Y6053D01*
X21577Y6004D01*
X19551Y8030D01*
X19468Y8085D01*
X19371Y8105D01*
X19248D01*
X19218Y8139D01*
X19166Y8232D01*
X19180Y8300D01*
X19160Y8398D01*
X19105Y8480D01*
Y8520D01*
X19160Y8602D01*
X19180Y8700D01*
X19176Y8718D01*
X19270Y8845D01*
X21003D01*
X21015Y8718D01*
D02*
G37*
G36*
X13483Y20974D02*
X13448Y20920D01*
X13429Y20827D01*
X13979D01*
Y20573D01*
X13429D01*
X13437Y20531D01*
X13357Y20404D01*
X12727D01*
Y19000D01*
X12473D01*
Y20404D01*
X11196D01*
Y20236D01*
X11123Y20201D01*
X11069Y20188D01*
X10998Y20235D01*
X10900Y20255D01*
X10000D01*
X9902Y20235D01*
X9820Y20180D01*
X9765Y20098D01*
X9745Y20000D01*
X9765Y19902D01*
X9781Y19878D01*
X9775Y19870D01*
X9608Y19857D01*
X9385Y20080D01*
X9303Y20135D01*
X9205Y20155D01*
X8150D01*
Y20300D01*
X7254D01*
Y20404D01*
X6827D01*
Y19900D01*
X6573D01*
Y20404D01*
X6250D01*
X6230Y20434D01*
X6084Y20580D01*
X6001Y20635D01*
X5904Y20655D01*
X4606D01*
X4292Y20968D01*
X4341Y21086D01*
X13424D01*
X13483Y20974D01*
D02*
G37*
G36*
X25000Y19799D02*
X24873Y19761D01*
X24826Y19832D01*
X24673Y19933D01*
X24494Y19969D01*
X24314Y19933D01*
X24162Y19832D01*
X24061Y19679D01*
X24025Y19500D01*
X24061Y19321D01*
X24162Y19168D01*
X24314Y19067D01*
X24494Y19031D01*
X24673Y19067D01*
X24826Y19168D01*
X24873Y19239D01*
X25000Y19201D01*
Y17955D01*
X32600D01*
Y14407D01*
X32423Y14230D01*
X32306Y14279D01*
Y16300D01*
X32300Y16330D01*
Y17057D01*
X31904D01*
Y17161D01*
X31627D01*
Y16307D01*
X31373D01*
Y17161D01*
X31096D01*
Y17057D01*
X28755D01*
Y17084D01*
X28735Y17182D01*
X28680Y17264D01*
X28464Y17480D01*
X28382Y17535D01*
X28284Y17555D01*
X26344D01*
X26246Y17535D01*
X26163Y17480D01*
X26077Y17394D01*
X25979Y17460D01*
X25800Y17495D01*
X25621Y17460D01*
X25468Y17358D01*
X25435Y17309D01*
X25283Y17309D01*
X25252Y17355D01*
X24453Y18154D01*
X24337Y18232D01*
X24200Y18259D01*
X21991D01*
X21879Y18333D01*
X21700Y18369D01*
X21521Y18333D01*
X21406Y18257D01*
X20557D01*
Y19973D01*
X20530Y20110D01*
X20452Y20226D01*
X19826Y20852D01*
X19710Y20930D01*
X19573Y20957D01*
X17590D01*
X17589Y20959D01*
X17675Y21086D01*
X25000D01*
Y19799D01*
D02*
G37*
G36*
X6676Y4772D02*
X6656Y4670D01*
X6692Y4491D01*
X6793Y4338D01*
X6945Y4237D01*
X7125Y4201D01*
X7304Y4237D01*
X7316Y4245D01*
X7457Y4186D01*
X7467Y4138D01*
X7568Y3985D01*
X7721Y3884D01*
X7900Y3848D01*
X7991Y3866D01*
X9837Y2020D01*
X9919Y1965D01*
X10017Y1945D01*
X12527D01*
X12539Y1818D01*
X12480Y1806D01*
X12293Y1682D01*
X12169Y1495D01*
X12150Y1402D01*
X13375D01*
X13379Y1405D01*
X13421Y1377D01*
X13600Y1341D01*
X13779Y1377D01*
X13932Y1478D01*
X14033Y1631D01*
X14069Y1810D01*
X14033Y1989D01*
X13991Y2052D01*
X14059Y2179D01*
X15400D01*
Y3479D01*
X14173D01*
X14124Y3597D01*
X14455Y3928D01*
X14510Y4010D01*
X14530Y4108D01*
Y4610D01*
X14657Y4662D01*
X16644Y2676D01*
Y2423D01*
X16663Y2326D01*
X16707Y2260D01*
X16711Y2227D01*
X16709Y2213D01*
X16677Y2104D01*
X16568Y2032D01*
X16467Y1879D01*
X16431Y1700D01*
X16467Y1521D01*
X16568Y1368D01*
X16720Y1267D01*
X16900Y1231D01*
X17079Y1267D01*
X17232Y1368D01*
X17322Y1504D01*
X17380Y1527D01*
X17467Y1540D01*
X17620Y1386D01*
X17625Y1364D01*
X17680Y1282D01*
X18030Y932D01*
X17981Y814D01*
X13223D01*
X13155Y941D01*
X13231Y1055D01*
X13250Y1148D01*
X12150D01*
X12169Y1055D01*
X12245Y941D01*
X12177Y814D01*
X6002D01*
Y4738D01*
X6101Y4791D01*
X6129Y4792D01*
X6300Y4758D01*
X6479Y4794D01*
X6562Y4849D01*
X6676Y4772D01*
D02*
G37*
G36*
X10345Y4350D02*
Y3816D01*
X10365Y3718D01*
X10420Y3636D01*
X10577Y3479D01*
X10659Y3424D01*
X10757Y3404D01*
X11903D01*
X11949Y3277D01*
X11867Y3154D01*
X11831Y2975D01*
X11867Y2795D01*
X11968Y2643D01*
X12060Y2582D01*
X12022Y2455D01*
X10123D01*
X8700Y3878D01*
X8704Y3902D01*
X8850Y4001D01*
X8900Y3991D01*
X9079Y4027D01*
X9232Y4128D01*
X9249Y4154D01*
X9842D01*
X9842Y4154D01*
X9959Y4177D01*
X10059Y4244D01*
X10218Y4403D01*
X10345Y4350D01*
D02*
G37*
G36*
X11150Y17420D02*
X11150Y17420D01*
X11218Y17351D01*
X11266Y17238D01*
X11227Y17169D01*
X11167Y17079D01*
X11131Y16900D01*
X11167Y16721D01*
X11268Y16568D01*
X11421Y16467D01*
X11600Y16431D01*
X11645Y16394D01*
Y14800D01*
X11665Y14702D01*
X11720Y14620D01*
X11820Y14520D01*
X11902Y14465D01*
X11994Y14446D01*
Y12318D01*
X11867Y12218D01*
X11835Y12224D01*
X11780Y12307D01*
X11752Y12335D01*
Y12584D01*
X11755Y12596D01*
Y14215D01*
X11736Y14313D01*
X11680Y14396D01*
X11580Y14496D01*
X11498Y14551D01*
X11400Y14570D01*
X11332Y14686D01*
Y14915D01*
X11248D01*
X11139Y14957D01*
Y15757D01*
X10243D01*
Y15861D01*
X9806D01*
X9753Y15988D01*
X10116Y16350D01*
X10204Y16483D01*
X10235Y16639D01*
X10235Y16639D01*
Y16883D01*
X10321Y17011D01*
X10357Y17190D01*
X10321Y17369D01*
X10219Y17522D01*
X10075Y17618D01*
X10073Y17627D01*
X10141Y17745D01*
X10824D01*
X11150Y17420D01*
D02*
G37*
G36*
X26785Y11847D02*
Y11668D01*
X26804Y11570D01*
X26860Y11488D01*
X27125Y11222D01*
X27115Y11065D01*
X27112Y11061D01*
X27068Y11032D01*
X26967Y10879D01*
X26931Y10700D01*
X26954Y10584D01*
X26941Y10502D01*
X26864Y10446D01*
X26755Y10424D01*
X26602Y10323D01*
X26501Y10171D01*
X26465Y9991D01*
X26483Y9901D01*
X26233Y9650D01*
X25815D01*
X25784Y9689D01*
Y11011D01*
X26668Y11895D01*
X26785Y11847D01*
D02*
G37*
G36*
X40786Y814D02*
X33100D01*
X33039Y941D01*
X33131Y1080D01*
X33150Y1173D01*
X32050D01*
X32069Y1080D01*
X32161Y941D01*
X32100Y814D01*
X31400D01*
X31339Y941D01*
X31431Y1080D01*
X31450Y1173D01*
X30350D01*
X30369Y1080D01*
X30461Y941D01*
X30400Y814D01*
X29700D01*
X29639Y941D01*
X29731Y1080D01*
X29750Y1173D01*
X28650D01*
X28669Y1080D01*
X28761Y941D01*
X28700Y814D01*
X25357D01*
X25308Y932D01*
X25530Y1154D01*
X25585Y1236D01*
X25599Y1306D01*
X25943D01*
Y1810D01*
X26197D01*
Y1306D01*
X26624D01*
Y1410D01*
X27520D01*
Y2210D01*
X27375D01*
Y2700D01*
X27400Y2816D01*
X28800D01*
Y3030D01*
X28882Y3092D01*
X29000Y3039D01*
Y2983D01*
X30200D01*
Y3983D01*
X29000D01*
Y3789D01*
X28800D01*
X28800Y3789D01*
X28687Y3766D01*
X27602D01*
X27534Y3894D01*
X27535Y3895D01*
X27555Y3993D01*
Y4716D01*
X28800D01*
Y5667D01*
X27555D01*
Y6236D01*
X28103Y6784D01*
X28220Y6735D01*
Y6308D01*
X29020D01*
Y6308D01*
X29100Y6350D01*
X30600D01*
Y6350D01*
X30710Y6396D01*
X30786Y6320D01*
X30868Y6265D01*
X30966Y6245D01*
X32850D01*
Y5904D01*
X32746D01*
Y5438D01*
X32619Y5333D01*
X32586Y5340D01*
X30200D01*
Y5483D01*
X29000D01*
Y4483D01*
X30200D01*
Y4626D01*
X32293D01*
Y4062D01*
X32320Y3926D01*
X32398Y3810D01*
X32912Y3296D01*
X33028Y3218D01*
X33164Y3191D01*
X35184D01*
X35321Y3218D01*
X35437Y3296D01*
X35952Y3811D01*
X36030Y3927D01*
X36057Y4064D01*
Y4255D01*
X36133Y4370D01*
X36169Y4549D01*
X36133Y4729D01*
X36057Y4843D01*
Y5343D01*
X36645D01*
X36733Y5361D01*
X36833Y5282D01*
X36843Y5263D01*
X36831Y5200D01*
X36867Y5020D01*
X36968Y4868D01*
X37120Y4767D01*
X37300Y4731D01*
X37479Y4767D01*
X37632Y4868D01*
X37733Y5020D01*
X37769Y5200D01*
X37733Y5379D01*
X37632Y5532D01*
X37555Y5583D01*
Y5841D01*
X37672Y5890D01*
X37874Y5688D01*
X37886Y5670D01*
X38173Y5383D01*
X38157Y5300D01*
X38193Y5121D01*
X38294Y4968D01*
X38447Y4867D01*
X38626Y4831D01*
X38805Y4867D01*
X38958Y4968D01*
X39059Y5121D01*
X39095Y5300D01*
X39059Y5479D01*
X38958Y5632D01*
X38895Y5674D01*
Y5826D01*
X38958Y5868D01*
X39059Y6021D01*
X39095Y6200D01*
X39059Y6379D01*
X38958Y6532D01*
X38895Y6574D01*
Y6726D01*
X38958Y6768D01*
X39059Y6921D01*
X39095Y7100D01*
X39059Y7279D01*
X38958Y7432D01*
X38841Y7510D01*
X38858Y7642D01*
X38979Y7667D01*
X39132Y7768D01*
X39233Y7920D01*
X39269Y8100D01*
X39233Y8279D01*
X39132Y8432D01*
X39055Y8483D01*
Y9650D01*
X39035Y9748D01*
X38980Y9830D01*
X38430Y10380D01*
X38348Y10435D01*
X38250Y10455D01*
X36650D01*
Y10900D01*
Y11945D01*
X36985D01*
X37502Y11428D01*
X37585Y11373D01*
X37682Y11353D01*
X38183D01*
X38268Y11225D01*
X38421Y11124D01*
X38600Y11088D01*
X38779Y11124D01*
X38932Y11225D01*
X39033Y11378D01*
X39069Y11557D01*
X39033Y11736D01*
X38932Y11889D01*
X38829Y11957D01*
Y12100D01*
X38932Y12168D01*
X39033Y12321D01*
X39069Y12500D01*
X39033Y12679D01*
X38932Y12832D01*
X38869Y12874D01*
Y13026D01*
X38932Y13068D01*
X39033Y13221D01*
X39069Y13400D01*
X39033Y13579D01*
X38977Y13664D01*
X38996Y13830D01*
X39009Y13838D01*
X39111Y13991D01*
X39147Y14170D01*
X39111Y14349D01*
X39009Y14502D01*
X38857Y14603D01*
X38733Y14628D01*
Y14757D01*
X38779Y14767D01*
X38932Y14868D01*
X39033Y15021D01*
X39069Y15200D01*
X39033Y15379D01*
X38932Y15532D01*
X38869Y15574D01*
Y15726D01*
X38932Y15768D01*
X39033Y15921D01*
X39069Y16100D01*
X39033Y16279D01*
X38932Y16432D01*
X38779Y16533D01*
X38600Y16569D01*
X38467Y16543D01*
X38369Y16620D01*
X38357Y16640D01*
X38369Y16700D01*
X38333Y16879D01*
X38232Y17032D01*
X38170Y17073D01*
X38208Y17200D01*
X39200D01*
Y18900D01*
X37900D01*
Y17289D01*
X37900Y17200D01*
X37795Y17148D01*
X37721Y17133D01*
X37568Y17032D01*
X37467Y16879D01*
X37440Y16745D01*
X37308Y16718D01*
X37232Y16832D01*
X37079Y16933D01*
X36900Y16969D01*
X36721Y16933D01*
X36568Y16832D01*
X36467Y16679D01*
X36431Y16500D01*
X36467Y16321D01*
X36544Y16205D01*
X36340Y16000D01*
X35150D01*
Y14900D01*
Y13900D01*
Y12900D01*
Y11955D01*
X34702D01*
X34351Y12305D01*
X34369Y12396D01*
X34333Y12575D01*
X34232Y12728D01*
X34079Y12829D01*
X33900Y12865D01*
X33721Y12829D01*
X33568Y12728D01*
X33467Y12575D01*
X33431Y12396D01*
X33467Y12217D01*
X33568Y12064D01*
X33721Y11963D01*
X33900Y11927D01*
X33991Y11945D01*
X34261Y11674D01*
X34261Y11643D01*
X34214Y11542D01*
X34200Y11542D01*
X34063Y11633D01*
X33884Y11669D01*
X33705Y11633D01*
X33668Y11609D01*
X33550Y11683D01*
X33530Y11787D01*
X33452Y11902D01*
X33337Y11980D01*
X33200Y12007D01*
X32900D01*
Y12125D01*
X31500D01*
Y11187D01*
X31478Y11167D01*
X31373Y11130D01*
X31222Y11231D01*
X31129Y11250D01*
Y10700D01*
Y10150D01*
X31222Y10169D01*
X31373Y10270D01*
X31478Y10233D01*
X31500Y10213D01*
Y9275D01*
X32010D01*
Y8816D01*
X31883Y8778D01*
X31791Y8915D01*
X31605Y9039D01*
X31512Y9058D01*
Y8508D01*
Y7958D01*
X31605Y7977D01*
X31791Y8101D01*
X31916Y8288D01*
X31957Y8493D01*
X32002Y8516D01*
X32084Y8531D01*
X32085Y8530D01*
X32482Y8133D01*
X32565Y8078D01*
X32632Y8064D01*
Y7902D01*
X32546D01*
X32500Y7800D01*
X31000D01*
Y7333D01*
X30904Y7294D01*
X30873Y7291D01*
X30734Y7430D01*
X30651Y7485D01*
X30554Y7505D01*
X30433D01*
X30421Y7523D01*
X30489Y7650D01*
X30600D01*
Y8450D01*
X29100D01*
Y8302D01*
X29020Y8208D01*
X28220D01*
Y7622D01*
X27120Y6522D01*
X27065Y6439D01*
X27045Y6342D01*
Y4098D01*
X26631Y3684D01*
X26504Y3737D01*
Y4115D01*
X25700D01*
Y4369D01*
X26504D01*
Y4820D01*
X26410D01*
Y6598D01*
X28902Y9100D01*
X28996Y9171D01*
Y9171D01*
X28996Y9171D01*
X29673D01*
Y9750D01*
X29800D01*
Y9877D01*
X30604D01*
Y10153D01*
X30716Y10213D01*
X30782Y10169D01*
X30875Y10150D01*
Y10700D01*
Y11250D01*
X30782Y11231D01*
X30716Y11187D01*
X30604Y11247D01*
Y11279D01*
X30500D01*
Y12125D01*
X30500Y12125D01*
X30500D01*
X30539Y12239D01*
X30654Y12354D01*
X30679Y12359D01*
X30832Y12460D01*
X30933Y12613D01*
X30938Y12638D01*
X31578Y13278D01*
X31676Y13344D01*
X32216Y13884D01*
X32216Y13884D01*
X32282Y13982D01*
X32380Y14080D01*
X32393D01*
X32423Y14068D01*
X32453Y14080D01*
X32485D01*
X32508Y14103D01*
X32538Y14115D01*
X32715Y14292D01*
X32762Y14407D01*
Y17955D01*
X32715Y18070D01*
X32600Y18117D01*
X25229D01*
X25204Y18199D01*
X25288Y18305D01*
X25290Y18307D01*
X26950D01*
Y19607D01*
X25250D01*
Y19462D01*
X25123Y19400D01*
X25100Y19418D01*
Y19678D01*
X25115Y19684D01*
X25124Y19707D01*
X25143Y19723D01*
X25147Y19762D01*
X25162Y19799D01*
Y21086D01*
X40786D01*
Y814D01*
D02*
G37*
G36*
X22243Y14039D02*
Y13658D01*
X21946D01*
Y12363D01*
X21189Y11606D01*
X20746D01*
Y12981D01*
X21652Y13888D01*
X21730Y14003D01*
X21757Y14140D01*
Y14157D01*
X22126D01*
X22243Y14039D01*
D02*
G37*
G36*
X28200Y17024D02*
Y15647D01*
X28186Y15637D01*
X27864Y15315D01*
X26764D01*
X26667Y15295D01*
X26584Y15240D01*
X26567Y15224D01*
X26450Y15272D01*
Y15584D01*
X26255D01*
Y16851D01*
X26449Y17045D01*
X28179D01*
X28200Y17024D01*
D02*
G37*
G36*
X868Y20068D02*
X1021Y19967D01*
X1200Y19931D01*
X1268Y19945D01*
X1395Y19840D01*
Y18346D01*
X1415Y18249D01*
X1470Y18166D01*
X1703Y17933D01*
X1667Y17879D01*
X1631Y17700D01*
X1667Y17520D01*
X1768Y17368D01*
X1920Y17267D01*
X2100Y17231D01*
X2279Y17267D01*
X2432Y17368D01*
X2533Y17520D01*
X2569Y17700D01*
X2533Y17879D01*
X2440Y18019D01*
X2454Y18077D01*
X2489Y18146D01*
X2704D01*
Y18504D01*
X2814Y18580D01*
X2867Y18479D01*
X2831Y18300D01*
X2867Y18121D01*
X2968Y17968D01*
X3121Y17867D01*
X3135Y17864D01*
Y17072D01*
X3155Y16974D01*
X3210Y16892D01*
X3682Y16420D01*
X3764Y16365D01*
X3862Y16345D01*
X5000D01*
X5098Y16365D01*
X5180Y16420D01*
X5552Y16792D01*
X5950D01*
Y16937D01*
X6473D01*
X6550Y16844D01*
X6594Y16623D01*
X6718Y16437D01*
X6879Y16330D01*
X6918Y16190D01*
X6209Y15480D01*
X5066D01*
X5032Y15532D01*
X4879Y15633D01*
X4700Y15669D01*
X4520Y15633D01*
X4368Y15532D01*
X4267Y15379D01*
X4231Y15200D01*
X4205Y15168D01*
X3637D01*
Y14664D01*
X3510D01*
Y14537D01*
X2606D01*
Y14160D01*
X2710D01*
Y13464D01*
X3333D01*
X3692Y13106D01*
X3824Y13017D01*
X3980Y12986D01*
X3980Y12986D01*
X4590D01*
Y12800D01*
X5590D01*
Y13978D01*
X6090D01*
Y12800D01*
X7090D01*
Y13320D01*
X7879Y14109D01*
X7996Y14060D01*
Y13546D01*
X8100D01*
Y12650D01*
X8900D01*
Y12845D01*
X9032D01*
Y12215D01*
X9246D01*
Y12039D01*
X9217Y12004D01*
X9135D01*
Y11627D01*
X9689D01*
Y11373D01*
X9135D01*
Y10996D01*
X9146D01*
Y10627D01*
X9700D01*
Y10500D01*
X9827D01*
Y9996D01*
X10254D01*
Y10100D01*
X10772D01*
X10825Y10065D01*
X10923Y10045D01*
X11963D01*
X11978Y10027D01*
X12650D01*
Y9773D01*
X11978D01*
X11963Y9755D01*
X10917D01*
X10819Y9735D01*
X10737Y9680D01*
X10734Y9678D01*
X10400D01*
Y9483D01*
X10060D01*
Y9697D01*
X9110D01*
Y9697D01*
X8160D01*
Y9697D01*
X8033Y9653D01*
X8000Y9666D01*
Y9883D01*
X7100D01*
Y9883D01*
X7000D01*
Y9883D01*
X6100D01*
X6002Y9953D01*
Y12152D01*
X5955Y12267D01*
X5840Y12314D01*
X4240D01*
X4125Y12267D01*
X4098Y12200D01*
X2110D01*
Y13214D01*
X714D01*
Y15314D01*
X2110D01*
Y16414D01*
X714D01*
Y20070D01*
X841Y20109D01*
X868Y20068D01*
D02*
G37*
G36*
X7427Y8950D02*
X7200D01*
Y8104D01*
X7096D01*
Y7652D01*
X7600D01*
X8104D01*
Y8104D01*
X8000D01*
Y8856D01*
X8112Y8958D01*
X8160Y8945D01*
Y8897D01*
X9110D01*
Y8897D01*
X10060D01*
Y8973D01*
X10400D01*
Y8782D01*
X10296D01*
Y8355D01*
X10800D01*
Y8101D01*
X10296D01*
Y7674D01*
X10545D01*
X10607Y7547D01*
X10567Y7495D01*
X9884D01*
X9824Y7607D01*
X9833Y7621D01*
X9869Y7800D01*
X9833Y7979D01*
X9732Y8132D01*
X9579Y8233D01*
X9400Y8269D01*
X9220Y8233D01*
X9068Y8132D01*
X8967Y7979D01*
X8931Y7800D01*
X8967Y7621D01*
X9059Y7483D01*
X9056Y7475D01*
X8973Y7420D01*
X7680Y6127D01*
X7563Y6190D01*
X7575Y6252D01*
X7531Y6472D01*
X7407Y6658D01*
X7220Y6783D01*
X7127Y6802D01*
Y6252D01*
X7000D01*
Y6125D01*
X6450D01*
X6469Y6032D01*
X6589Y5852D01*
X6574Y5782D01*
X6557Y5725D01*
X6543D01*
X6445Y5706D01*
X6401Y5676D01*
X6300Y5696D01*
X6129Y5662D01*
X6101Y5663D01*
X6002Y5716D01*
Y6979D01*
X6295D01*
Y7558D01*
X6422D01*
Y7685D01*
X6926D01*
Y8137D01*
X6822D01*
Y8390D01*
X6835Y8410D01*
X6855Y8508D01*
Y9083D01*
X7000D01*
Y9083D01*
X7100D01*
Y9083D01*
X7427D01*
Y8950D01*
D02*
G37*
G36*
X35150Y9400D02*
Y8400D01*
Y7559D01*
X35070Y7516D01*
X34955Y7593D01*
Y8133D01*
X34935Y8231D01*
X34880Y8313D01*
X34725Y8468D01*
X34643Y8523D01*
X34545Y8543D01*
X34532D01*
Y8688D01*
X33632D01*
X33632Y8688D01*
X33532D01*
Y8688D01*
X33505Y8688D01*
X32648D01*
X32520Y8816D01*
Y9275D01*
X32848D01*
X32870Y9160D01*
X32948Y9045D01*
X33063Y8967D01*
X33200Y8940D01*
X34116D01*
X34221Y8870D01*
X34400Y8835D01*
X34579Y8870D01*
X34732Y8972D01*
X34833Y9124D01*
X34869Y9304D01*
X34833Y9483D01*
X34732Y9635D01*
X34579Y9737D01*
X34400Y9773D01*
X34394Y9771D01*
X34317Y9886D01*
X34353Y10065D01*
X34335Y10156D01*
X34625Y10445D01*
X35150D01*
Y9400D01*
D02*
G37*
%LPC*%
G36*
X22684Y16161D02*
X22307D01*
Y15734D01*
X22684D01*
Y16161D01*
D02*
G37*
G36*
X23873Y16073D02*
X23450D01*
X23469Y15980D01*
X23593Y15793D01*
X23780Y15669D01*
X23873Y15650D01*
Y16073D01*
D02*
G37*
G36*
X22563Y20350D02*
X22470Y20331D01*
X22284Y20207D01*
X22159Y20020D01*
X22141Y19927D01*
X22563D01*
Y20350D01*
D02*
G37*
G36*
X21829Y19673D02*
X21406D01*
Y19250D01*
X21499Y19269D01*
X21686Y19393D01*
X21810Y19580D01*
X21829Y19673D01*
D02*
G37*
G36*
X21152D02*
X20729D01*
X20748Y19580D01*
X20872Y19393D01*
X21059Y19269D01*
X21152Y19250D01*
Y19673D01*
D02*
G37*
G36*
Y20350D02*
X21059Y20331D01*
X20872Y20207D01*
X20748Y20020D01*
X20729Y19927D01*
X21152D01*
Y20350D01*
D02*
G37*
G36*
X22817Y20350D02*
Y19927D01*
X23240D01*
X23222Y20020D01*
X23097Y20207D01*
X22911Y20331D01*
X22817Y20350D01*
D02*
G37*
G36*
X21406Y20350D02*
Y19927D01*
X21829D01*
X21810Y20020D01*
X21686Y20207D01*
X21499Y20331D01*
X21406Y20350D01*
D02*
G37*
G36*
X23240Y19673D02*
X22817D01*
Y19250D01*
X22911Y19269D01*
X23097Y19393D01*
X23222Y19580D01*
X23240Y19673D01*
D02*
G37*
G36*
X22563D02*
X22141D01*
X22159Y19580D01*
X22284Y19393D01*
X22470Y19269D01*
X22563Y19250D01*
Y19673D01*
D02*
G37*
G36*
X8050Y3429D02*
X6350D01*
Y2129D01*
X8050D01*
Y3429D01*
D02*
G37*
G36*
X31258Y8381D02*
X30835D01*
X30853Y8288D01*
X30978Y8101D01*
X31165Y7977D01*
X31258Y7958D01*
Y8381D01*
D02*
G37*
G36*
Y9058D02*
X31165Y9039D01*
X30978Y8915D01*
X30853Y8728D01*
X30835Y8635D01*
X31258D01*
Y9058D01*
D02*
G37*
G36*
X40151Y1773D02*
X39729D01*
Y1350D01*
X39822Y1369D01*
X40008Y1494D01*
X40133Y1680D01*
X40151Y1773D01*
D02*
G37*
G36*
X29327Y1850D02*
Y1427D01*
X29750D01*
X29731Y1520D01*
X29607Y1707D01*
X29420Y1831D01*
X29327Y1850D01*
D02*
G37*
G36*
X29073D02*
X28980Y1831D01*
X28793Y1707D01*
X28669Y1520D01*
X28650Y1427D01*
X29073D01*
Y1850D01*
D02*
G37*
G36*
X37913Y1773D02*
X37490D01*
X37509Y1680D01*
X37633Y1494D01*
X37820Y1369D01*
X37913Y1350D01*
Y1773D01*
D02*
G37*
G36*
X37050Y1764D02*
X36627D01*
Y1341D01*
X36720Y1359D01*
X36907Y1484D01*
X37031Y1671D01*
X37050Y1764D01*
D02*
G37*
G36*
X36373D02*
X35950D01*
X35969Y1671D01*
X36093Y1484D01*
X36280Y1359D01*
X36373Y1341D01*
Y1764D01*
D02*
G37*
G36*
X39475Y1773D02*
X39052D01*
X39070Y1680D01*
X39195Y1494D01*
X39382Y1369D01*
X39475Y1350D01*
Y1773D01*
D02*
G37*
G36*
X30604Y9623D02*
X29927D01*
Y9171D01*
X30604D01*
Y9623D01*
D02*
G37*
G36*
X38590Y1773D02*
X38167D01*
Y1350D01*
X38260Y1369D01*
X38447Y1494D01*
X38571Y1680D01*
X38590Y1773D01*
D02*
G37*
G36*
X39200Y4600D02*
X37900D01*
Y2900D01*
X39200D01*
Y4600D01*
D02*
G37*
G36*
X37913Y2450D02*
X37820Y2431D01*
X37633Y2307D01*
X37509Y2120D01*
X37490Y2027D01*
X37913D01*
Y2450D01*
D02*
G37*
G36*
X36627Y2440D02*
Y2018D01*
X37050D01*
X37031Y2111D01*
X36907Y2297D01*
X36720Y2422D01*
X36627Y2440D01*
D02*
G37*
G36*
X38167Y2450D02*
Y2027D01*
X38590D01*
X38571Y2120D01*
X38447Y2307D01*
X38260Y2431D01*
X38167Y2450D01*
D02*
G37*
G36*
X39475D02*
X39382Y2431D01*
X39195Y2307D01*
X39070Y2120D01*
X39052Y2027D01*
X39475D01*
Y2450D01*
D02*
G37*
G36*
X39729D02*
Y2027D01*
X40151D01*
X40133Y2120D01*
X40008Y2307D01*
X39822Y2431D01*
X39729Y2450D01*
D02*
G37*
G36*
X30773Y1850D02*
X30680Y1831D01*
X30493Y1707D01*
X30369Y1520D01*
X30350Y1427D01*
X30773D01*
Y1850D01*
D02*
G37*
G36*
X31027D02*
Y1427D01*
X31450D01*
X31431Y1520D01*
X31307Y1707D01*
X31120Y1831D01*
X31027Y1850D01*
D02*
G37*
G36*
X36373Y2440D02*
X36280Y2422D01*
X36093Y2297D01*
X35969Y2111D01*
X35950Y2018D01*
X36373D01*
Y2440D01*
D02*
G37*
G36*
X32727Y1850D02*
Y1427D01*
X33150D01*
X33131Y1520D01*
X33007Y1707D01*
X32820Y1831D01*
X32727Y1850D01*
D02*
G37*
G36*
X32473D02*
X32380Y1831D01*
X32193Y1707D01*
X32069Y1520D01*
X32050Y1427D01*
X32473D01*
Y1850D01*
D02*
G37*
G36*
X39475Y20230D02*
X39052D01*
X39070Y20137D01*
X39195Y19951D01*
X39382Y19826D01*
X39475Y19808D01*
Y20230D01*
D02*
G37*
G36*
X38590D02*
X38167D01*
Y19808D01*
X38260Y19826D01*
X38447Y19951D01*
X38571Y20137D01*
X38590Y20230D01*
D02*
G37*
G36*
X40151D02*
X39729D01*
Y19808D01*
X39822Y19826D01*
X40008Y19951D01*
X40133Y20137D01*
X40151Y20230D01*
D02*
G37*
G36*
X37913D02*
X37490D01*
X37509Y20137D01*
X37633Y19951D01*
X37820Y19826D01*
X37913Y19808D01*
Y20230D01*
D02*
G37*
G36*
X37050Y20221D02*
X36627D01*
Y19798D01*
X36720Y19817D01*
X36907Y19941D01*
X37031Y20128D01*
X37050Y20221D01*
D02*
G37*
G36*
X36373D02*
X35950D01*
X35969Y20128D01*
X36093Y19941D01*
X36280Y19817D01*
X36373Y19798D01*
Y20221D01*
D02*
G37*
G36*
X38167Y20907D02*
Y20484D01*
X38590D01*
X38571Y20577D01*
X38447Y20764D01*
X38260Y20889D01*
X38167Y20907D01*
D02*
G37*
G36*
X37913D02*
X37820Y20889D01*
X37633Y20764D01*
X37509Y20577D01*
X37490Y20484D01*
X37913D01*
Y20907D01*
D02*
G37*
G36*
X39729D02*
Y20484D01*
X40151D01*
X40133Y20577D01*
X40008Y20764D01*
X39822Y20889D01*
X39729Y20907D01*
D02*
G37*
G36*
X39475D02*
X39382Y20889D01*
X39195Y20764D01*
X39070Y20577D01*
X39052Y20484D01*
X39475D01*
Y20907D01*
D02*
G37*
G36*
X36627Y20898D02*
Y20475D01*
X37050D01*
X37031Y20568D01*
X36907Y20754D01*
X36720Y20879D01*
X36627Y20898D01*
D02*
G37*
G36*
X36373D02*
X36280Y20879D01*
X36093Y20754D01*
X35969Y20568D01*
X35950Y20475D01*
X36373D01*
Y20898D01*
D02*
G37*
G36*
X33473Y14690D02*
X33380Y14671D01*
X33193Y14547D01*
X33069Y14360D01*
X33050Y14267D01*
X33473D01*
Y14690D01*
D02*
G37*
G36*
X34150Y14013D02*
X33727D01*
Y13590D01*
X33820Y13609D01*
X34007Y13733D01*
X34131Y13920D01*
X34150Y14013D01*
D02*
G37*
G36*
X33727Y14690D02*
Y14267D01*
X34150D01*
X34131Y14360D01*
X34007Y14547D01*
X33820Y14671D01*
X33727Y14690D01*
D02*
G37*
G36*
X33473Y14013D02*
X33050D01*
X33069Y13920D01*
X33193Y13733D01*
X33380Y13609D01*
X33473Y13590D01*
Y14013D01*
D02*
G37*
G36*
X32918Y12773D02*
X32495D01*
Y12350D01*
X32588Y12369D01*
X32774Y12493D01*
X32899Y12680D01*
X32918Y12773D01*
D02*
G37*
G36*
X32241D02*
X31818D01*
X31837Y12680D01*
X31961Y12493D01*
X32148Y12369D01*
X32241Y12350D01*
Y12773D01*
D02*
G37*
G36*
X32495Y13450D02*
Y13027D01*
X32918D01*
X32899Y13120D01*
X32774Y13307D01*
X32588Y13431D01*
X32495Y13450D01*
D02*
G37*
G36*
X32241D02*
X32148Y13431D01*
X31961Y13307D01*
X31837Y13120D01*
X31818Y13027D01*
X32241D01*
Y13450D01*
D02*
G37*
G36*
X35300Y19607D02*
X33600D01*
Y18307D01*
X35300D01*
Y19607D01*
D02*
G37*
G36*
X36157Y17973D02*
Y17551D01*
X36579D01*
X36561Y17644D01*
X36436Y17830D01*
X36250Y17955D01*
X36157Y17973D01*
D02*
G37*
G36*
X35903D02*
X35810Y17955D01*
X35623Y17830D01*
X35498Y17644D01*
X35480Y17551D01*
X35903D01*
Y17973D01*
D02*
G37*
G36*
X36579Y17297D02*
X36157D01*
Y16874D01*
X36250Y16892D01*
X36436Y17017D01*
X36561Y17204D01*
X36579Y17297D01*
D02*
G37*
G36*
X35903D02*
X35480D01*
X35498Y17204D01*
X35623Y17017D01*
X35810Y16892D01*
X35903Y16874D01*
Y17297D01*
D02*
G37*
G36*
X9573Y10373D02*
X9146D01*
Y9996D01*
X9573D01*
Y10373D01*
D02*
G37*
G36*
X3383Y15168D02*
X2606D01*
Y14791D01*
X3383D01*
Y15168D01*
D02*
G37*
G36*
X6926Y7431D02*
X6549D01*
Y6979D01*
X6926D01*
Y7431D01*
D02*
G37*
G36*
X8104Y7398D02*
X7727D01*
Y6946D01*
X8104D01*
Y7398D01*
D02*
G37*
G36*
X6873Y6802D02*
X6780Y6783D01*
X6593Y6658D01*
X6469Y6472D01*
X6450Y6379D01*
X6873D01*
Y6802D01*
D02*
G37*
G36*
X7473Y7398D02*
X7096D01*
Y6946D01*
X7473D01*
Y7398D01*
D02*
G37*
%LPD*%
D13*
X6550Y9483D02*
D03*
X7550D02*
D03*
X6700Y19000D02*
D03*
X7700D02*
D03*
X4500Y17192D02*
D03*
X5500D02*
D03*
X4506Y19000D02*
D03*
X5506D02*
D03*
X4500Y18100D02*
D03*
X5500D02*
D03*
X5500Y19900D02*
D03*
X4500D02*
D03*
X23800Y1700D02*
D03*
X24800D02*
D03*
X33300Y4518D02*
D03*
X34300D02*
D03*
X33300Y6265D02*
D03*
X34300D02*
D03*
X33082Y8288D02*
D03*
X34082D02*
D03*
X17000Y20600D02*
D03*
X16000D02*
D03*
X16000Y17893D02*
D03*
X17000D02*
D03*
X7700Y19900D02*
D03*
X6700D02*
D03*
X18900Y5272D02*
D03*
X19900D02*
D03*
X9700Y10500D02*
D03*
X10700D02*
D03*
X10689Y11500D02*
D03*
X9689D02*
D03*
X10689Y15357D02*
D03*
X9689D02*
D03*
X26070Y1810D02*
D03*
X27070D02*
D03*
X33300Y5400D02*
D03*
X34300D02*
D03*
X33100Y7398D02*
D03*
X34100D02*
D03*
X17000Y18755D02*
D03*
X16000D02*
D03*
X6700Y18069D02*
D03*
X7700D02*
D03*
X25040Y9250D02*
D03*
X26040D02*
D03*
X25000Y15184D02*
D03*
X26000D02*
D03*
D14*
X29600Y4983D02*
D03*
Y3483D02*
D03*
X18050Y14357D02*
D03*
Y15857D02*
D03*
D18*
X6590Y13400D02*
D03*
X5090D02*
D03*
D19*
X2200Y19700D02*
D03*
Y18700D02*
D03*
X28620Y7758D02*
D03*
Y6758D02*
D03*
X19581Y17800D02*
D03*
Y18800D02*
D03*
X10800Y8228D02*
D03*
Y9228D02*
D03*
X12400Y14700D02*
D03*
Y15700D02*
D03*
X22180Y14607D02*
D03*
Y15607D02*
D03*
X8500Y13100D02*
D03*
Y14100D02*
D03*
X20600Y14600D02*
D03*
Y15600D02*
D03*
X21400Y14607D02*
D03*
Y15607D02*
D03*
X8664Y18242D02*
D03*
Y17242D02*
D03*
D35*
X6325Y15200D02*
X7625Y16500D01*
X4800Y15200D02*
X6325D01*
D36*
X17475Y5714D02*
Y6675D01*
X23340Y6467D02*
Y8053D01*
X12001Y6340D02*
X12100Y6240D01*
X10067Y6500D02*
X11839D01*
X12000Y6339D01*
X9600Y5910D02*
Y6033D01*
X10067Y6500D01*
X12100Y5529D02*
Y6240D01*
X11650Y7679D02*
Y7845D01*
X10861Y6890D02*
X11650Y7679D01*
X9313Y6890D02*
X10861D01*
X8702Y6279D02*
X9313Y6890D01*
X8688Y6279D02*
X8702D01*
X11300Y7990D02*
X12010Y8700D01*
X7590Y5677D02*
X9153Y7240D01*
X11300Y7824D02*
Y7990D01*
X10716Y7240D02*
X11300Y7824D01*
X9153Y7240D02*
X10716D01*
X7900Y4317D02*
X10017Y2200D01*
X12600D01*
X13600Y3200D02*
Y3433D01*
X14275Y4108D01*
Y6675D01*
X12365Y2975D02*
X13875Y4485D01*
X12451Y3659D02*
X13475Y4683D01*
X10757Y3659D02*
X12451D01*
X12397Y4100D02*
X13000Y4703D01*
X11100Y4100D02*
X12397D01*
X11604Y4504D02*
Y5526D01*
Y4504D02*
X12305D01*
X12600Y4798D01*
X13875Y6675D02*
Y6712D01*
Y4485D02*
Y6675D01*
X12300Y2975D02*
X12365D01*
X12300Y2889D02*
Y2975D01*
X25350Y2404D02*
X25530Y2584D01*
X25350Y1346D02*
Y2404D01*
X20954Y4502D02*
Y4513D01*
X21457Y3842D02*
X21514Y3899D01*
X21602Y3492D02*
X21864Y3754D01*
X21745Y3140D02*
X22214Y3609D01*
X21890Y2790D02*
X22564Y3464D01*
X22639Y2700D02*
X22914Y2975D01*
X22782Y2090D02*
X23264Y2572D01*
X22827Y1640D02*
X23614Y2427D01*
X23800Y1740D02*
X23964Y1904D01*
X21514Y3899D02*
Y4406D01*
X21864Y3754D02*
Y4261D01*
X22214Y3609D02*
Y4116D01*
X22564Y3464D02*
Y3971D01*
X22914Y2975D02*
Y3826D01*
X23264Y2572D02*
Y3681D01*
X23614Y2427D02*
Y3536D01*
X23964Y1904D02*
Y3391D01*
X22260Y4265D02*
X22700Y4705D01*
X22610Y4120D02*
X23100Y4610D01*
X22960Y3872D02*
Y3975D01*
X21560Y4452D02*
Y4555D01*
X21514Y4406D02*
X21560Y4452D01*
X21910Y4307D02*
Y4410D01*
X21864Y4261D02*
X21910Y4307D01*
X22260Y4162D02*
Y4265D01*
X22214Y4116D02*
X22260Y4162D01*
X22610Y4017D02*
Y4120D01*
X22564Y3971D02*
X22610Y4017D01*
X22914Y3826D02*
X22960Y3872D01*
X23310Y3727D02*
Y3823D01*
X23264Y3681D02*
X23310Y3727D01*
X23660Y3582D02*
Y3678D01*
X23614Y3536D02*
X23660Y3582D01*
X24010Y3437D02*
Y3533D01*
X23964Y3391D02*
X24010Y3437D01*
Y3533D02*
X24372Y3895D01*
X23660Y3678D02*
X24227Y4245D01*
X23310Y3823D02*
X24082Y4595D01*
X22960Y3975D02*
X23232Y4247D01*
X21910Y4410D02*
X22350Y4850D01*
X21560Y4555D02*
X22000Y4995D01*
X20954Y4513D02*
X21445Y5004D01*
X21514D01*
X17508Y7933D02*
X18470Y6972D01*
X18477Y6740D02*
Y6989D01*
Y6740D02*
X19900Y5317D01*
X20816Y5473D02*
X20943D01*
X19371Y7850D02*
X21560Y5661D01*
X20771Y5429D02*
X20816Y5473D01*
X21560Y5050D02*
Y5661D01*
X18750Y7850D02*
X19371D01*
X22000Y5730D02*
X22000Y5730D01*
X22000Y4995D02*
Y5730D01*
X22350Y5477D02*
X23340Y6467D01*
X22350Y4850D02*
Y5477D01*
X22700Y5332D02*
X23968Y6600D01*
X22700Y4868D02*
Y5332D01*
Y4868D02*
X22700Y4868D01*
Y4705D02*
Y4868D01*
X24236Y4245D02*
X24550Y4559D01*
X24227Y4245D02*
X24236D01*
X18700Y7500D02*
X20771Y5429D01*
X21514Y5004D02*
X21560Y5050D01*
X23850Y5615D02*
X24650Y6415D01*
X24200Y4704D02*
Y5470D01*
X25000Y6270D01*
X24550Y4559D02*
Y5270D01*
X25350Y6070D01*
X25000Y6270D02*
Y6743D01*
X24650Y6415D02*
Y6888D01*
X23107Y4610D02*
X23298Y4801D01*
X23100Y4610D02*
X23107D01*
X22408Y2440D02*
X22600Y2632D01*
X24091Y4595D02*
X24200Y4704D01*
X24082Y4595D02*
X24091D01*
X25530Y2584D02*
X26484D01*
X18700Y7900D02*
X18750Y7850D01*
X24381Y3895D02*
X24900Y4414D01*
X24372Y3895D02*
X24381D01*
X23968Y6712D02*
X26040Y8784D01*
X23968Y6600D02*
Y6712D01*
X23850Y4858D02*
Y5615D01*
X23252Y4260D02*
X23850Y4858D01*
X24900Y5023D02*
X25068Y5192D01*
X24900Y4670D02*
Y5023D01*
X24900Y4670D02*
X24900Y4670D01*
X24900Y4414D02*
Y4670D01*
X36524Y15200D02*
X38000Y16676D01*
X36524Y15200D02*
X36767D01*
X35900D02*
X36524D01*
X36400Y15700D02*
X37050Y16350D01*
X36400Y15693D02*
Y15700D01*
X8500Y5300D02*
X8693D01*
X8923Y5529D01*
X7940Y5532D02*
X8688Y6279D01*
X7590Y5533D02*
Y5677D01*
X7527Y5470D02*
X7590Y5533D01*
X7940Y5388D02*
Y5532D01*
X7672Y5120D02*
X7940Y5388D01*
X8923Y5529D02*
X9600D01*
X7125Y4670D02*
X7575Y5120D01*
X7672D01*
X6543Y5470D02*
X7527D01*
X6300Y5227D02*
X6543Y5470D01*
X10600Y3816D02*
Y5529D01*
X13475Y4683D02*
Y6675D01*
X12010Y8700D02*
X12650D01*
X12600Y4798D02*
Y7044D01*
X11650Y7845D02*
X12105Y8300D01*
X12650D01*
X12000Y7405D02*
X12361Y7044D01*
X12600D01*
X13000Y4705D02*
Y7150D01*
X12650Y7500D02*
X13000Y7150D01*
X12000Y7599D02*
X12200Y7799D01*
X12000Y7405D02*
Y7599D01*
X9560Y9228D02*
X10800D01*
X10714Y9297D02*
X10917Y9500D01*
X9537Y9250D02*
X9560Y9228D01*
X9200Y8400D02*
X9800D01*
X8325Y7525D02*
X9200Y8400D01*
X9800Y8400D02*
X10757Y8400D01*
X7625Y7525D02*
Y7651D01*
X7685Y7525D02*
X8325D01*
X12200Y7799D02*
Y7900D01*
X12650D01*
X37682Y11608D02*
X38600D01*
Y5272D02*
Y5317D01*
X38075Y14175D02*
X38678D01*
X37432Y12464D02*
X38626D01*
X9650Y19455D02*
X9855Y19250D01*
X9860D01*
Y19222D02*
Y19250D01*
Y19222D02*
X9882Y19200D01*
X10281D01*
X33031Y8313D02*
X33082Y8262D01*
X32265Y8711D02*
Y9685D01*
X7625Y16500D02*
X8874D01*
X9537Y5750D02*
X9607Y5680D01*
X5904Y20400D02*
X6050Y20254D01*
X4500Y20400D02*
X5904D01*
X1846Y20250D02*
X2055D01*
X1650Y20054D02*
X1846Y20250D01*
X1650Y18346D02*
Y20054D01*
Y18346D02*
X2100Y17896D01*
X17720Y19605D02*
X18000Y19325D01*
Y19255D02*
Y19325D01*
X18585Y18080D02*
Y19720D01*
X21494Y10300D02*
X21894Y10700D01*
X19461Y10300D02*
X21494D01*
X21294Y10698D02*
X21536Y10940D01*
X18702Y10698D02*
X21294D01*
X6600Y9410D02*
X6700Y9510D01*
X2600Y8716D02*
X6600D01*
X7682Y9304D02*
X8600Y9300D01*
X7700Y9561D02*
X7761Y9500D01*
X17275Y15800D02*
X18050D01*
X17000Y15525D02*
X17275Y15800D01*
X33300Y6500D02*
X33601D01*
X30966D02*
X33300D01*
X37100Y7678D02*
Y8221D01*
X35921D02*
X37100D01*
X37450Y7533D02*
Y8700D01*
X35900D02*
X37450D01*
X37800Y7388D02*
Y9100D01*
X37700Y9200D02*
X37800Y9100D01*
X35900Y9200D02*
X37700D01*
X38193Y7612D02*
Y9507D01*
X38000Y9700D02*
X38193Y9507D01*
X35900Y9700D02*
X38000D01*
X38800Y8100D02*
Y9650D01*
X38250Y10200D02*
X38800Y9650D01*
X35900Y10200D02*
X38250D01*
X10082Y13618D02*
X10135Y13565D01*
X9607Y14290D02*
X10082D01*
X10135Y13565D02*
X10661D01*
X10757Y13050D02*
Y13470D01*
X10661Y13565D02*
X10757Y13470D01*
X15676Y16676D02*
X17221D01*
X15075Y16075D02*
X15676Y16676D01*
X8500Y13900D02*
Y14100D01*
X8000Y13504D02*
X8396Y13900D01*
X4700Y15200D02*
Y15300D01*
X9607Y14354D02*
Y15193D01*
X12000Y14700D02*
X12200D01*
X11900Y14800D02*
X12000Y14700D01*
X11900Y14800D02*
Y16600D01*
X12400Y16406D02*
X12493Y16499D01*
X12400Y15700D02*
Y16406D01*
X5050Y19448D02*
Y19900D01*
X5002Y19400D02*
X5050Y19448D01*
Y19900D02*
X5500D01*
X5050Y17645D02*
Y18069D01*
X5005Y17600D02*
X5050Y17645D01*
X4500Y17600D02*
X5005D01*
X5050Y18069D02*
X5081Y18100D01*
X5480D01*
X4500Y17192D02*
Y17600D01*
X5500Y19900D02*
X5506D01*
X4102Y17192D02*
X4500D01*
X3950Y17344D02*
X4102Y17192D01*
X15596Y19255D02*
X16512D01*
X15541Y19200D02*
X15596Y19255D01*
X16512D02*
X17005Y18762D01*
X17221Y16676D02*
X17351Y16807D01*
X17206Y17157D02*
X17663D01*
X17076Y17026D02*
X17206Y17157D01*
X17663D02*
X17679Y17173D01*
X19900Y13807D02*
Y14475D01*
X19541Y13807D02*
X19900D01*
Y14475D02*
X20025Y14600D01*
X18700Y11900D02*
Y12966D01*
X19541Y13807D01*
X18700Y11500D02*
X18988D01*
X19366Y11100D02*
X19566Y11300D01*
X19034Y11100D02*
X19366D01*
X21536Y10940D02*
X21540D01*
X19034Y11100D02*
X19034Y11100D01*
X18700Y11100D02*
X19034D01*
X18700Y11100D02*
X18700Y11100D01*
X22600Y12244D02*
Y12600D01*
X20025Y14600D02*
X20600D01*
X23437Y11733D02*
X24734Y13031D01*
X23437Y11694D02*
Y11733D01*
X24734Y13031D02*
X24735D01*
X26000Y16956D02*
X26344Y17300D01*
X28590Y7632D02*
Y7745D01*
X27300Y6342D02*
X28590Y7632D01*
X27300Y3993D02*
Y6342D01*
X26484Y2584D02*
X26637Y2737D01*
Y3330D02*
X27300Y3993D01*
X26637Y2737D02*
Y3330D01*
X28100Y3292D02*
X28608D01*
X27914D02*
X28100D01*
X27900Y3305D02*
X27914Y3292D01*
X34500Y6297D02*
X34538D01*
X35050Y6809D02*
Y7150D01*
X34538Y6297D02*
X35050Y6809D01*
X35100Y7200D02*
X35508D01*
X35050Y7150D02*
X35100Y7200D01*
X38678Y6208D02*
Y6222D01*
X38626Y6200D02*
X38792D01*
X38000Y6834D02*
X38626Y6208D01*
X38000Y6834D02*
Y7026D01*
X38066Y5851D02*
Y5856D01*
X37650Y6272D02*
X38066Y5856D01*
X37650Y6272D02*
Y6881D01*
X38193Y7612D02*
X38605Y7200D01*
X37450Y7533D02*
X37450Y7533D01*
X37100Y7678D02*
X37100Y7678D01*
X37597Y13697D02*
X38075Y14175D01*
X36951Y13697D02*
X37597D01*
X38600Y13400D02*
X38600D01*
X38550D02*
X38600D01*
X38600Y13400D01*
X38400Y13200D02*
X38600Y13400D01*
X35900Y13200D02*
X38400D01*
X9328Y17422D02*
X9906Y18000D01*
X10450D01*
X9900D02*
X9906D01*
X9328Y16953D02*
Y17422D01*
X8874Y16500D02*
X9328Y16953D01*
X17496Y16457D02*
X19210D01*
X16771Y16307D02*
X17346D01*
X16564Y16100D02*
X16771Y16307D01*
X16552Y16100D02*
X16564D01*
X17346Y16307D02*
X17496Y16457D01*
X16095Y15643D02*
X16552Y16100D01*
X16095Y15643D02*
X16164D01*
X16000D02*
X16095D01*
X19215Y15782D02*
Y16748D01*
X17075Y12725D02*
Y14500D01*
X17808Y16807D02*
X18935Y17934D01*
X17351Y16807D02*
X17808D01*
X14700Y19200D02*
X15541D01*
X14705Y19605D02*
X17720D01*
X14700Y19600D02*
X14705Y19605D01*
X17000Y18851D02*
X17005Y18856D01*
X15268Y20000D02*
X18305D01*
X26000Y15184D02*
Y16956D01*
X26873Y13189D02*
X26888D01*
X26728Y13539D02*
X26743D01*
X26583Y13889D02*
X26598D01*
X27069Y14360D01*
X26743Y13539D02*
X27214Y14010D01*
X26888Y13189D02*
X27359Y13660D01*
X24880Y12681D02*
X26533Y14334D01*
X26900Y14701D02*
X26909Y14710D01*
X26900Y14685D02*
Y14701D01*
X26549Y14334D02*
X26900Y14685D01*
X26533Y14334D02*
X26549D01*
X26550Y14846D02*
X26764Y15060D01*
X26550Y14830D02*
Y14846D01*
X26404Y14684D02*
X26550Y14830D01*
X26388Y14684D02*
X26404D01*
X24735Y13031D02*
X26388Y14684D01*
X28366Y15457D02*
X28985D01*
X27969Y15060D02*
X28366Y15457D01*
X26764Y15060D02*
X27969D01*
X24879Y12681D02*
X24880D01*
X25078Y11394D02*
X26873Y13189D01*
X25078Y11078D02*
Y11394D01*
X24728Y11223D02*
Y11539D01*
X26728Y13539D01*
X25025Y12331D02*
X26583Y13889D01*
X25024Y12331D02*
X25025D01*
X24378Y11685D02*
X25024Y12331D01*
X24378Y11381D02*
Y11685D01*
X24028Y11829D02*
X24879Y12681D01*
X22963Y11220D02*
X23437Y11694D01*
X22944Y11220D02*
X22963D01*
X26100Y9200D02*
X26143D01*
X26934Y9991D01*
X3855Y16250D02*
X6654D01*
X5000Y16600D02*
X5500Y17100D01*
X3862Y16600D02*
X5000D01*
X3390Y17072D02*
X3862Y16600D01*
X18700Y11500D02*
X19020D01*
X18700Y11500D02*
X18700Y11500D01*
X18700Y10700D02*
X18702Y10698D01*
X17475Y12740D02*
Y13782D01*
Y12740D02*
X17475Y12740D01*
X17475Y13782D02*
X18050Y14357D01*
X16000Y14375D02*
X16164Y14539D01*
X23245Y4260D02*
X23252D01*
X27400Y10706D02*
X27547Y10853D01*
X27040Y11668D02*
Y12132D01*
X30000Y14864D02*
Y15050D01*
X28767Y9520D02*
Y9799D01*
X37300Y5408D02*
Y6736D01*
X37209Y5317D02*
X37300Y5408D01*
X37100Y6936D02*
X37300Y6736D01*
X37450Y7081D02*
X37650Y6881D01*
X37800Y7226D02*
X38000Y7026D01*
X37800Y7226D02*
Y7388D01*
X37450Y7081D02*
Y7533D01*
X37100Y6936D02*
Y7678D01*
X17679Y17175D02*
X18585Y18080D01*
X17679Y17173D02*
Y17175D01*
X18305Y20000D02*
X18585Y19720D01*
X15875Y13225D02*
Y13258D01*
X12184Y11500D02*
X12650D01*
X11600Y12084D02*
X12184Y11500D01*
X11600Y12084D02*
Y12127D01*
X11498Y12229D02*
X11600Y12127D01*
X11498Y12229D02*
Y12594D01*
X30750Y14050D02*
X31000Y14300D01*
X3950Y18454D02*
X3950Y18454D01*
X7700Y19900D02*
X9205D01*
X18700Y9900D02*
X18710Y9910D01*
X4500Y19900D02*
X4500Y19900D01*
X4342Y19000D02*
X4506D01*
X25443Y5044D02*
Y5143D01*
X16071Y18732D02*
X16125Y18786D01*
X33900Y12396D02*
X34596Y11700D01*
X4506Y18106D02*
Y19000D01*
X38600Y13400D02*
X38700D01*
X3510Y14718D02*
Y16211D01*
X3020Y16249D02*
X3548D01*
X6050Y19544D02*
Y20254D01*
X5506Y19000D02*
X6050Y19544D01*
X3548Y16249D02*
X3550Y16251D01*
X3510Y16211D02*
X3548Y16249D01*
X3854D01*
X3855Y16250D01*
X7700Y17314D02*
X7737Y17276D01*
X7728Y17268D02*
X7737Y17276D01*
X7700Y17314D02*
Y18069D01*
X7728Y17268D02*
X8638D01*
X8664Y17242D01*
X15875Y12725D02*
Y13220D01*
X18935Y18700D02*
X18935Y18700D01*
X19581D01*
X18935Y17934D02*
Y18700D01*
X18935Y18700D02*
X18935Y18700D01*
X10889Y11500D02*
X10942D01*
X11742Y10700D02*
X12650D01*
X10942Y11500D02*
X11742Y10700D01*
X10727Y10496D02*
X10923Y10300D01*
X12650D01*
X27547Y10065D02*
X27555Y10056D01*
X28767Y9800D02*
X28767Y9799D01*
X29000Y15457D02*
Y16150D01*
X38465Y16100D02*
X38600D01*
X37065Y14700D02*
X38465Y16100D01*
X35900Y14700D02*
X37065D01*
X38600Y15200D02*
X38605D01*
X38198D02*
X38600D01*
X37198Y14200D02*
X38198Y15200D01*
X35900Y14200D02*
X37198D01*
X36948Y13700D02*
X36951Y13697D01*
X37196Y12700D02*
X37432Y12464D01*
X37143Y12700D02*
X37196D01*
X37143Y12700D02*
X37143Y12700D01*
X37090Y12200D02*
X37682Y11608D01*
X35900Y12200D02*
X37090D01*
X38066Y5851D02*
X38600Y5317D01*
X35900Y8200D02*
X35921Y8221D01*
X37800Y7388D02*
X37800Y7388D01*
X15875Y5334D02*
Y6675D01*
X16275Y5429D02*
Y6675D01*
X16675Y5524D02*
Y6675D01*
X17075Y5619D02*
Y6675D01*
X30700Y6766D02*
X30966Y6500D01*
X30700Y6766D02*
Y7104D01*
X30554Y7250D02*
X30700Y7104D01*
X30216Y7250D02*
X30554D01*
X30011Y7455D02*
X30216Y7250D01*
X30011Y7455D02*
Y8033D01*
X34300Y4518D02*
Y5400D01*
Y4504D02*
Y4518D01*
X34296Y4500D02*
X34300Y4504D01*
Y5400D02*
Y6265D01*
X29850Y6750D02*
Y6774D01*
X29823Y6758D02*
X29832Y6750D01*
X28620Y6758D02*
X29823D01*
X33650Y7369D02*
Y7752D01*
Y7044D02*
Y7369D01*
X33679Y7398D01*
X34100D01*
X31750Y7055D02*
Y7369D01*
Y7055D02*
X31907Y6898D01*
X33504D01*
X33650Y7044D01*
X33114Y8288D02*
X33650Y7752D01*
X33082Y8288D02*
X33114D01*
X33601Y6500D02*
X33951Y6850D01*
X34596D01*
X34082Y8288D02*
X34545D01*
X29900Y8033D02*
X30011D01*
X34700Y6954D02*
Y8133D01*
X34545Y8288D02*
X34700Y8133D01*
X33300Y6339D02*
Y6500D01*
X34596Y6850D02*
X34700Y6954D01*
X33884Y10065D02*
X34519Y10700D01*
X15075Y12725D02*
Y13045D01*
X24800Y1700D02*
Y2179D01*
X11498Y12594D02*
X11500Y12596D01*
X2600Y7100D02*
Y8716D01*
X8000Y12696D02*
Y13504D01*
X26344Y17300D02*
X28284D01*
X28500Y17084D01*
Y16307D02*
Y17084D01*
X16100Y20025D02*
X16125Y20000D01*
X9607Y15193D02*
X9714Y15300D01*
X10757Y14303D02*
Y15243D01*
Y14290D02*
Y14303D01*
X10700Y15300D02*
X10757Y15243D01*
X11250Y11687D02*
Y11982D01*
X11193Y12039D02*
X11250Y11982D01*
X9501Y12039D02*
X11193D01*
X10714Y14236D02*
X10900Y14050D01*
X6600Y8716D02*
Y9410D01*
Y8508D02*
Y8716D01*
X10300Y9925D02*
X10325Y9900D01*
X12650D01*
X7682Y8716D02*
Y9304D01*
X7681D02*
X7682D01*
X7674Y9297D02*
X7681Y9304D01*
X10917Y9500D02*
X12650D01*
X11250Y11687D02*
X11837Y11100D01*
X12650D01*
X18700Y10300D02*
X19581D01*
X9700Y10500D02*
Y11315D01*
Y10400D02*
Y10500D01*
X9746D02*
X10290Y9956D01*
X8000Y12696D02*
X8146Y12550D01*
X8465D01*
X16071Y18732D02*
X16125D01*
X16675Y11625D02*
X16800Y11500D01*
X14700Y20000D02*
X15268D01*
X9253Y13100D02*
X9500Y12853D01*
X9475Y12800D02*
X9501Y12774D01*
Y12039D02*
Y12774D01*
X10600Y14314D02*
X10614Y14300D01*
X8500Y13100D02*
X9253D01*
X9237Y14100D02*
X9440Y14303D01*
X8500Y14100D02*
X9237D01*
X9707Y12588D02*
X9714Y12581D01*
X6666Y7766D02*
X7685D01*
X7625Y7651D02*
X7674Y7700D01*
X2508Y8716D02*
X2600D01*
X2500Y8724D02*
X2508Y8716D01*
X12400Y7500D02*
X12650D01*
X10930Y18000D02*
X11330Y17600D01*
X10450Y18000D02*
X10930D01*
X13400Y19200D02*
X13400Y19200D01*
X14700D01*
X5500Y17192D02*
X6674D01*
X6700Y17217D01*
Y18069D01*
X5506Y19000D02*
X5506Y19000D01*
X6700D01*
X7700Y18069D02*
Y18069D01*
X7700D02*
X7700Y18069D01*
Y18069D02*
Y19000D01*
X4500Y18100D02*
X4506Y18106D01*
X7685Y7766D02*
X7700Y7751D01*
X38792Y6200D02*
X38800Y6208D01*
X33884Y11200D02*
X35792D01*
X35800Y11208D01*
X34519Y10700D02*
X35792D01*
X34596Y11700D02*
X35792D01*
X35900Y12700D02*
X37143D01*
X35900Y13700D02*
X36948D01*
X25443Y5143D02*
X25500Y5200D01*
X30000Y15100D02*
Y16200D01*
X30500Y14904D02*
Y16200D01*
X31000Y14300D02*
Y16150D01*
X30500Y14558D02*
Y14904D01*
X30500Y14904D02*
X30500Y14904D01*
X32662Y8313D02*
X33031D01*
X32200Y9750D02*
X32265Y9685D01*
Y8711D02*
X32662Y8313D01*
X8500Y15100D02*
X8593Y15193D01*
X8644D01*
X13600Y9900D02*
X13600Y9900D01*
X25700Y5232D02*
Y6453D01*
X28767Y9520D01*
X27400Y10700D02*
Y10706D01*
X27600Y11900D02*
Y11903D01*
Y11900D02*
X28161D01*
X27040Y12132D02*
X27368Y12460D01*
X27727Y11340D02*
X28067Y11000D01*
X27368Y11340D02*
X27727D01*
X27040Y11668D02*
X27368Y11340D01*
X23800Y1500D02*
Y1700D01*
X2108Y18500D02*
X2195D01*
X11500Y12596D02*
Y14215D01*
X11400Y14315D02*
X11500Y14215D01*
X11600Y16900D02*
X11900Y16600D01*
X9650Y19455D02*
Y19455D01*
X9205Y19900D02*
X9650Y19455D01*
X13475Y6675D02*
Y6700D01*
X10600Y3816D02*
X10757Y3659D01*
X11100Y4100D02*
Y5529D01*
X11600D02*
X11604Y5526D01*
X25350Y6598D02*
X28417Y9665D01*
X25000Y6743D02*
X28067Y9810D01*
Y11000D01*
X27555Y9793D02*
Y10056D01*
X24650Y6888D02*
X27555Y9793D01*
X24956Y940D02*
X25350Y1334D01*
X23590Y1290D02*
X23800Y1500D01*
X23298Y4801D02*
Y5062D01*
X26040Y8784D02*
Y9250D01*
X18710Y9910D02*
X21618D01*
X21540Y10940D02*
X21867Y11267D01*
X22885D01*
X21894Y10700D02*
X22100D01*
X21618Y9910D02*
X21768Y10060D01*
X25068Y5192D02*
X25443D01*
X25350Y6070D02*
Y6598D01*
X28417Y9665D02*
Y11644D01*
X28161Y11900D02*
X28417Y11644D01*
X28767Y9800D02*
Y12209D01*
X29258Y12700D01*
X28417Y12457D02*
X28520D01*
X30200Y12792D02*
X30500D01*
X27368Y12460D02*
X28468D01*
X29500Y15184D02*
Y16307D01*
X30349Y14407D02*
X30500Y14558D01*
X30342Y14057D02*
X30349Y14050D01*
X30750D01*
X28114Y14710D02*
X28511Y15107D01*
X28259Y14360D02*
X28656Y14757D01*
X28404Y14010D02*
X28801Y14407D01*
X28549Y13660D02*
X28946Y14057D01*
X29258Y12700D02*
X29358Y12600D01*
X29500D01*
X26909Y14710D02*
X28114D01*
X27069Y14360D02*
X28259D01*
X27214Y14010D02*
X28404D01*
X27359Y13660D02*
X28549D01*
X28946Y14057D02*
X30342D01*
X28801Y14407D02*
X30349D01*
X28656Y14757D02*
X29893D01*
X30000Y14864D01*
X28511Y15107D02*
X29423D01*
X29500Y15184D01*
X29223Y13160D02*
X29832D01*
X30200Y12792D01*
X28520Y12457D02*
X29223Y13160D01*
X13940Y16140D02*
X13970Y16170D01*
X15475Y12725D02*
Y13163D01*
X15516Y17026D02*
X17076D01*
X15371Y17376D02*
X15580D01*
X15075Y18400D02*
X15645D01*
X16000Y18755D01*
X16519Y17393D02*
X17005Y17879D01*
X15580Y17376D02*
X15596Y17393D01*
X16519D01*
X11330Y17600D02*
X11470Y17460D01*
X12797D01*
X13737Y16520D01*
X2300Y18308D02*
Y18672D01*
X2360Y18732D01*
X19215Y16748D02*
X19311Y16844D01*
X2055Y20250D02*
X2200Y20395D01*
Y20640D01*
X3455Y19845D02*
X3500Y19800D01*
X3542D01*
X2200Y19700D02*
X2233D01*
X2881Y20348D01*
X2100Y17700D02*
Y17896D01*
X2300Y18308D02*
X2868Y17740D01*
X2881D01*
X3000Y17621D01*
Y16249D02*
Y17621D01*
X3950Y17344D02*
Y18454D01*
X4506Y19000D02*
Y19400D01*
X4506Y19400D01*
X5002D01*
X4355Y20050D02*
X4356D01*
X3950Y18454D02*
Y18650D01*
X3560Y19040D02*
X3950Y18650D01*
X3390Y17072D02*
Y18060D01*
X3600Y19742D02*
X4342Y19000D01*
X18935Y18700D02*
Y19544D01*
X18944D01*
X19300Y19900D01*
X20900Y3842D02*
X21457D01*
X3250Y18200D02*
X3390Y18060D01*
X3020Y19089D02*
Y19100D01*
X2970Y19040D02*
X3020Y19089D01*
X2970Y19040D02*
X3560D01*
X4000Y20405D02*
X4355Y20050D01*
X3600Y19742D02*
Y19782D01*
X3542Y19800D02*
X3600Y19742D01*
X2957Y20395D02*
Y20405D01*
X2515Y20955D02*
X3945D01*
X2200Y20640D02*
X2515Y20955D01*
X3945D02*
X4500Y20400D01*
X2957Y20405D02*
X4000D01*
X4356Y20050D02*
X4506Y19900D01*
X14515Y16520D02*
X15371Y17376D01*
X13970Y16170D02*
X14660D01*
X15516Y17026D01*
X13737Y16520D02*
X14515D01*
X4700Y15300D02*
X4800Y15200D01*
X15075Y14058D02*
X15875Y13258D01*
X15114Y14498D02*
Y14962D01*
X15075Y15001D02*
X15114Y14962D01*
X15075Y15001D02*
Y16075D01*
X13800Y13761D02*
X13800D01*
X13833Y13794D01*
X14331D01*
X15075Y13050D01*
Y14058D02*
Y14459D01*
X15114Y14498D01*
X13940Y14413D02*
Y16140D01*
X14488Y14150D02*
X15475Y13163D01*
X13940Y14413D02*
X14203Y14150D01*
X14488D01*
X22000Y9500D02*
X22000Y9500D01*
X21608Y9100D02*
X21828Y8880D01*
X18700Y9500D02*
X22000D01*
X18700Y9100D02*
X21608D01*
X22182Y10706D02*
X22228Y10660D01*
X24028Y11526D02*
Y11829D01*
X22911Y8911D02*
X25078Y11078D01*
X22994Y9500D02*
X24192Y10698D01*
Y10700D01*
X24318Y10826D01*
X24331D01*
X24728Y11223D01*
X23059Y10060D02*
X23842Y10843D01*
Y10845D01*
X24378Y11381D01*
X23164Y10660D02*
X23492Y10988D01*
Y10990D01*
X24028Y11526D01*
X22932Y11220D02*
Y11232D01*
X22885Y11267D02*
X22932Y11220D01*
X22228Y10660D02*
X23032D01*
X23032Y10660D01*
X23164D01*
X22216Y9500D02*
X22994D01*
X23260Y8133D02*
X23340Y8053D01*
X22600Y12648D02*
X22639Y12608D01*
X10757Y14303D02*
X11397D01*
X9707Y12588D02*
Y13107D01*
X27547Y10065D02*
Y10853D01*
X21768Y10060D02*
X23059D01*
X16164Y14539D02*
X17005D01*
X17000Y14575D02*
X17075Y14500D01*
X21828Y8880D02*
X22712D01*
X22700Y8911D02*
X22911D01*
X16100Y20025D02*
Y20700D01*
X22932Y11232D02*
X22944Y11220D01*
X25443Y5143D02*
Y5192D01*
X8396Y13900D02*
X8500D01*
X8465Y12550D02*
X9700Y11315D01*
X10082Y13618D02*
Y14290D01*
X6654Y16250D02*
X7681Y17276D01*
X12493Y16499D02*
X12880D01*
X19210Y15782D02*
Y16457D01*
X19597Y2440D02*
X22408D01*
X19452Y2090D02*
X22782D01*
X15475Y5238D02*
Y6675D01*
X18768Y1640D02*
X22827D01*
X15475Y5238D02*
X17999Y2715D01*
X14675Y5100D02*
X14676Y5100D01*
X14725D01*
X14675Y5100D02*
Y6675D01*
X12600Y2200D02*
X13600Y3200D01*
X19887Y3140D02*
X21745D01*
X19742Y2790D02*
X21890D01*
X18618Y1290D02*
X23590D01*
X14725Y4955D02*
Y5100D01*
X15075D02*
Y6675D01*
X18382Y940D02*
X24956D01*
X17475Y5714D02*
X18417Y4772D01*
X18750D01*
X17075Y5619D02*
X18272Y4422D01*
X18605D01*
X16675Y5524D02*
X18127Y4072D01*
X18460D01*
X16275Y5429D02*
X17982Y3722D01*
X18315D01*
X17860Y1462D02*
X18382Y940D01*
X18750Y4772D02*
X20030Y3492D01*
X21602D01*
X18605Y4422D02*
X19887Y3140D01*
X18460Y4072D02*
X19742Y2790D01*
X18315Y3722D02*
X19597Y2440D01*
X15875Y5334D02*
X17866Y3343D01*
X18199D01*
X19452Y2090D01*
X17860Y1462D02*
Y1507D01*
X14725Y4955D02*
X16898Y2781D01*
Y2423D02*
Y2781D01*
Y2423D02*
X16952Y2370D01*
X17440Y2468D02*
Y2735D01*
Y2468D02*
X18618Y1290D01*
X18000Y2408D02*
X18768Y1640D01*
X16952Y2370D02*
X17022D01*
X17560Y1832D01*
Y1807D02*
Y1832D01*
Y1807D02*
X17860Y1507D01*
X18000Y2408D02*
Y2700D01*
X15075Y5100D02*
X17440Y2735D01*
D37*
X17875Y6212D02*
X18944Y5143D01*
X17875Y6212D02*
Y6675D01*
X22000Y5730D02*
Y8262D01*
X8900Y4460D02*
X9842D01*
X10100Y4718D01*
Y5529D01*
X32000Y14100D02*
Y16300D01*
X14283Y17453D02*
X14800Y17970D01*
X9253Y18464D02*
Y19049D01*
X19945Y12457D02*
X20096Y12608D01*
X19945Y12354D02*
Y12457D01*
X19091Y11500D02*
X19945Y12354D01*
X18988Y11500D02*
X19091D01*
X27173Y3300D02*
X27840D01*
X27069Y3196D02*
X27173Y3300D01*
X28608Y3292D02*
X28800Y3483D01*
X29600D01*
X15902Y18000D02*
X16000Y17902D01*
X26637Y12298D02*
X26640D01*
X25478Y11138D02*
X26637Y12298D01*
X26640D02*
X27436Y13094D01*
X17875Y12725D02*
Y12950D01*
X27436Y13094D02*
X28261D01*
X12300Y14539D02*
X12425Y14664D01*
X19565Y17700D02*
X19581D01*
X12400Y14700D02*
X12425Y14675D01*
Y14664D02*
Y14675D01*
Y11900D02*
X12650D01*
X12300Y12025D02*
X12425Y11900D01*
X19587Y17700D02*
X19605Y17719D01*
X16675Y11625D02*
Y12725D01*
X9317Y18400D02*
X10450D01*
X8664Y18242D02*
X9095D01*
X9253Y18400D01*
Y18464D02*
X9317Y18400D01*
X12650Y9900D02*
X13600D01*
X12300Y12025D02*
Y14539D01*
X28300Y13100D02*
X28555D01*
X29015Y13560D01*
X31460D01*
X32000Y14100D01*
X14283Y17080D02*
Y17453D01*
X14700Y18000D02*
X15902D01*
X19215Y14432D02*
X20025Y15242D01*
X19565Y17700D02*
X19607Y17742D01*
X20025Y15242D02*
Y17704D01*
X20200Y17934D02*
X20234Y17900D01*
X19581Y17800D02*
X20021D01*
X20100Y17879D01*
X20025Y17704D02*
X20200Y17879D01*
X19566Y11300D02*
X21316D01*
X22216Y12200D01*
X22000Y8262D02*
X22000Y8262D01*
X25040Y9250D02*
X25478Y9689D01*
Y11138D01*
X21133Y8262D02*
X22000D01*
X27069Y1810D02*
Y3196D01*
X17000Y20560D02*
X17060D01*
X21082Y8313D02*
X21133Y8262D01*
X17875Y12950D02*
X19300Y14375D01*
X18900Y5260D02*
Y5272D01*
Y5260D02*
X18944D01*
X19300Y4904D01*
Y4898D02*
Y4904D01*
Y4898D02*
X20306Y3892D01*
X20897D01*
D38*
X32636Y6015D02*
X32740Y5910D01*
Y5907D02*
Y5910D01*
Y5907D02*
X33247Y5400D01*
X33300D01*
X29800Y9750D02*
X30618D01*
X35187Y6200D02*
X35792D01*
X35042Y6055D02*
X35187Y6200D01*
X35042Y4222D02*
Y6055D01*
X33298Y4537D02*
X33300Y4539D01*
Y5400D01*
X29800Y9750D02*
Y10700D01*
X29800Y10700D01*
X35792Y6200D02*
X35792Y6200D01*
X29832Y8765D02*
Y9748D01*
X32610Y7736D02*
Y7758D01*
Y7736D02*
X32948Y7398D01*
X33100D01*
X30768Y10700D02*
X30800Y10668D01*
X29800Y10700D02*
X29800D01*
X30768D01*
X33300Y4518D02*
X33810Y4008D01*
X34828D01*
X35042Y4222D01*
X30618Y9750D02*
X32610Y7758D01*
D39*
X9089Y16007D02*
X9223D01*
X9081Y16000D02*
X9089Y16007D01*
X8036Y16000D02*
X9081D01*
X6422Y14386D02*
X8036Y16000D01*
X4705Y14386D02*
X6422D01*
X9828Y16639D02*
Y17083D01*
X9261Y16073D02*
X9828Y16639D01*
X9261Y16007D02*
Y16073D01*
X3510Y13864D02*
X3980Y13394D01*
X4752D01*
X6593Y13400D02*
X8293Y15100D01*
X8500D01*
D40*
X33200Y9297D02*
X34400D01*
X32200Y11679D02*
X32229Y11650D01*
X19573Y20600D02*
X20200Y19973D01*
X17100Y20600D02*
X19573D01*
X17060Y20560D02*
X17100Y20600D01*
X20096Y12608D02*
Y12836D01*
X21400Y14140D02*
Y14558D01*
X20096Y12836D02*
X21400Y14140D01*
X22180Y14607D02*
X22600Y14187D01*
Y12648D02*
Y14187D01*
X32586Y4983D02*
X32653Y4916D01*
X29600Y4983D02*
X32586D01*
X20234Y17900D02*
X21700D01*
X24200Y17902D02*
X25000Y17102D01*
Y15184D02*
Y17102D01*
X20200Y17934D02*
Y19973D01*
X35900Y5700D02*
X36645D01*
X36850Y5905D01*
Y6550D01*
X36700Y6700D02*
X36850Y6550D01*
X35700Y5500D02*
X35900Y5700D01*
X35184Y3548D02*
X35700Y4064D01*
X33164Y3548D02*
X35184D01*
X32650Y4062D02*
X33164Y3548D01*
X32650Y4062D02*
Y4913D01*
X32653Y4916D02*
Y4916D01*
X32650Y4913D02*
X32653Y4916D01*
X33200Y9297D02*
Y11650D01*
X32229D02*
X33200D01*
X35700Y4549D02*
Y5500D01*
X36000Y6700D02*
X36700D01*
X35700Y4064D02*
Y4537D01*
X21691Y17902D02*
X24200D01*
D45*
X12300Y2975D02*
D03*
X24494Y19500D02*
D03*
X24800Y3270D02*
D03*
X24700Y2303D02*
D03*
X20954Y4502D02*
D03*
X20943Y5473D02*
D03*
X23260Y5100D02*
D03*
X23900Y6500D02*
D03*
X18800Y2400D02*
D03*
X22600Y2700D02*
D03*
X37900Y16700D02*
D03*
X36900Y16500D02*
D03*
X8500Y5300D02*
D03*
X8900Y4460D02*
D03*
X7900Y4317D02*
D03*
X7125Y4670D02*
D03*
X6300Y5227D02*
D03*
X9400Y7800D02*
D03*
X7000Y6252D02*
D03*
X9274Y19040D02*
D03*
X32600Y1300D02*
D03*
X29200D02*
D03*
X13979Y20700D02*
D03*
X23979Y17157D02*
D03*
X21279Y19800D02*
D03*
X36030Y17424D02*
D03*
X32368Y12900D02*
D03*
X33600Y14140D02*
D03*
X31385Y8508D02*
D03*
X36500Y20348D02*
D03*
X39602Y20357D02*
D03*
X38040D02*
D03*
Y1900D02*
D03*
X39602D02*
D03*
X36500Y1891D02*
D03*
X7125Y16844D02*
D03*
X30900Y1300D02*
D03*
X1200Y20400D02*
D03*
X18000Y19255D02*
D03*
X4700Y15200D02*
D03*
X22690Y19800D02*
D03*
X9887Y17190D02*
D03*
X4620Y14395D02*
D03*
X34400Y9304D02*
D03*
X37300Y5200D02*
D03*
X8450Y15106D02*
D03*
X21700Y17900D02*
D03*
X31002Y10700D02*
D03*
X25800Y17026D02*
D03*
X28300Y13100D02*
D03*
X24000Y16200D02*
D03*
X33900Y12396D02*
D03*
X38626Y7100D02*
D03*
X38600Y13400D02*
D03*
X33884Y10065D02*
D03*
X38600Y16100D02*
D03*
Y12500D02*
D03*
X38626Y6200D02*
D03*
Y5300D02*
D03*
X38600Y15200D02*
D03*
X38600Y11557D02*
D03*
X38800Y8100D02*
D03*
X38678Y14170D02*
D03*
X33884Y11200D02*
D03*
X35700Y4549D02*
D03*
X30500Y12792D02*
D03*
X26934Y9991D02*
D03*
X27400Y10700D02*
D03*
X27600Y11900D02*
D03*
X13000Y13900D02*
D03*
X11600Y16900D02*
D03*
X22100Y10700D02*
D03*
X22000Y9500D02*
D03*
X29500Y12600D02*
D03*
X14283Y17080D02*
D03*
X2100Y17700D02*
D03*
X19400Y16900D02*
D03*
X19325Y19900D02*
D03*
X3300Y18300D02*
D03*
X3020Y19100D02*
D03*
X3600Y19782D02*
D03*
X2957Y20395D02*
D03*
X12879Y16500D02*
D03*
X14500Y15500D02*
D03*
X13800Y13761D02*
D03*
X14525Y14710D02*
D03*
X21082Y8262D02*
D03*
X22932Y11220D02*
D03*
X22800Y10100D02*
D03*
X22700Y8900D02*
D03*
X23260Y8133D02*
D03*
X13600Y1810D02*
D03*
X18000Y2700D02*
D03*
X16900Y1700D02*
D03*
X12700Y1275D02*
D03*
D46*
X15075Y11500D02*
D03*
X16275D02*
D03*
X17475D02*
D03*
Y9100D02*
D03*
Y7900D02*
D03*
Y10300D02*
D03*
X13875Y11500D02*
D03*
X16275Y9100D02*
D03*
Y10300D02*
D03*
X15075D02*
D03*
Y7900D02*
D03*
X16275D02*
D03*
X13875Y9100D02*
D03*
X15075D02*
D03*
X13875Y10300D02*
D03*
Y7900D02*
D03*
D48*
X24800Y3300D02*
X24809Y3292D01*
X25700D01*
D51*
X1260Y15864D02*
D03*
Y12664D02*
D03*
D52*
X3510Y13864D02*
D03*
Y14664D02*
D03*
D53*
X38550Y18050D02*
D03*
Y3750D02*
D03*
D54*
X35900Y6200D02*
D03*
Y6700D02*
D03*
Y7200D02*
D03*
Y7700D02*
D03*
Y8200D02*
D03*
Y8700D02*
D03*
Y9200D02*
D03*
Y9700D02*
D03*
Y10200D02*
D03*
Y10700D02*
D03*
Y11200D02*
D03*
Y11700D02*
D03*
Y12200D02*
D03*
Y12700D02*
D03*
Y13200D02*
D03*
Y13700D02*
D03*
Y14200D02*
D03*
Y14700D02*
D03*
Y15200D02*
D03*
Y15700D02*
D03*
D55*
X26100Y18957D02*
D03*
X34450D02*
D03*
X7200Y2779D02*
D03*
X14550Y2829D02*
D03*
D56*
X28500Y16307D02*
D03*
X29000D02*
D03*
X29500D02*
D03*
X30000D02*
D03*
X30500D02*
D03*
X31000D02*
D03*
X31500D02*
D03*
X32000D02*
D03*
D57*
X9600Y5529D02*
D03*
X12100D02*
D03*
X11600D02*
D03*
X10100D02*
D03*
X11100D02*
D03*
X10600D02*
D03*
D58*
X2340Y6700D02*
D03*
Y1600D02*
D03*
D59*
X6422Y7558D02*
D03*
X6422Y8508D02*
D03*
X7600Y7525D02*
D03*
X7600Y8475D02*
D03*
X17005Y15530D02*
D03*
X17005Y14580D02*
D03*
D60*
X18700Y11900D02*
D03*
Y11500D02*
D03*
Y11100D02*
D03*
Y10700D02*
D03*
Y10300D02*
D03*
Y9900D02*
D03*
Y9500D02*
D03*
Y9100D02*
D03*
Y8700D02*
D03*
Y8300D02*
D03*
Y7900D02*
D03*
Y7500D02*
D03*
X12650D02*
D03*
Y7900D02*
D03*
Y8300D02*
D03*
Y8700D02*
D03*
Y9100D02*
D03*
Y9500D02*
D03*
Y9900D02*
D03*
Y10300D02*
D03*
Y10700D02*
D03*
Y11100D02*
D03*
Y11500D02*
D03*
Y11900D02*
D03*
D61*
X17875Y6675D02*
D03*
X17475D02*
D03*
X17075D02*
D03*
X16675D02*
D03*
X16275D02*
D03*
X15875D02*
D03*
X15475D02*
D03*
X15075D02*
D03*
X14675D02*
D03*
X14275D02*
D03*
X13875D02*
D03*
X13475D02*
D03*
Y12725D02*
D03*
X13875D02*
D03*
X14275D02*
D03*
X14675D02*
D03*
X15075D02*
D03*
X15475D02*
D03*
X15875D02*
D03*
X16275D02*
D03*
X16675D02*
D03*
X17075D02*
D03*
X17475D02*
D03*
X17875D02*
D03*
D62*
X15675Y9700D02*
D03*
D63*
X22596Y12608D02*
D03*
X20096D02*
D03*
D64*
X8635Y9297D02*
D03*
X9585Y9297D02*
D03*
D65*
X19215Y14432D02*
D03*
Y15782D02*
D03*
X16000Y15643D02*
D03*
Y14293D02*
D03*
D66*
X32200Y9750D02*
D03*
Y10700D02*
D03*
Y11650D02*
D03*
X29800D02*
D03*
Y10700D02*
D03*
Y9750D02*
D03*
X25700Y3292D02*
D03*
Y4241D02*
D03*
Y5192D02*
D03*
X28100D02*
D03*
Y3292D02*
D03*
D67*
X29850Y6750D02*
D03*
Y8050D02*
D03*
X31750Y7400D02*
D03*
D68*
X14700Y20000D02*
D03*
D69*
Y19600D02*
D03*
Y19200D02*
D03*
Y18800D02*
D03*
Y18400D02*
D03*
Y18000D02*
D03*
X10450Y20000D02*
D03*
Y19600D02*
D03*
Y19200D02*
D03*
Y18800D02*
D03*
Y18400D02*
D03*
Y18000D02*
D03*
D70*
X12600Y19000D02*
D03*
D71*
X10757Y12840D02*
D03*
X9607D02*
D03*
Y14290D02*
D03*
X10757D02*
D03*
D72*
X27955Y8012D02*
Y8018D01*
X26817Y6874D02*
X27955Y8012D01*
X26817Y4698D02*
Y6874D01*
X25700Y4241D02*
X25758Y4300D01*
X26419D01*
X26817Y4698D01*
X28665Y8728D02*
X29800D01*
X27955Y8018D02*
X28665Y8728D01*
D73*
X2340Y8177D02*
D03*
D74*
X3977Y8702D02*
D03*
M02*
