G04 Layer_Color=32896*
%FSLAX43Y43*%
%MOMM*%
G71*
G01*
G75*
%ADD35C,0.250*%
%ADD36C,0.200*%
%ADD75C,0.100*%
%ADD76C,0.254*%
%ADD125C,0.152*%
D35*
X19700Y11900D02*
G03*
X19700Y11900I-125J0D01*
G01*
X29925Y8875D02*
G03*
X29925Y8875I-125J0D01*
G01*
X29975Y5950D02*
G03*
X29975Y5950I-125J0D01*
G01*
X25825Y2417D02*
G03*
X25825Y2417I-125J0D01*
G01*
D36*
X660Y12314D02*
Y16264D01*
X3510D01*
Y15114D02*
Y16264D01*
X660Y12264D02*
X3510D01*
Y13414D01*
X35600Y16050D02*
Y18200D01*
X38150Y18200D01*
X40950Y3600D02*
Y18200D01*
X38950Y18200D02*
X40950Y18200D01*
X38150Y18200D02*
Y18700D01*
X38950Y18200D02*
Y18700D01*
X38150D02*
X38950D01*
X38150Y3100D02*
X38950D01*
X35600Y3600D02*
Y5850D01*
Y3600D02*
X38150D01*
Y3100D02*
Y3600D01*
X38950D02*
X40950D01*
X38950Y3100D02*
Y3600D01*
X35100Y5850D02*
X35600D01*
X35100D02*
Y16050D01*
X35600D01*
X28150Y15507D02*
Y16007D01*
X32350Y15507D02*
Y16007D01*
X34600Y19357D02*
X35100D01*
X34600D02*
Y21357D01*
Y18557D02*
X35100D01*
X34600Y16007D02*
Y18557D01*
X32350Y16007D02*
X34600D01*
X35100Y18557D02*
Y19357D01*
X25500Y18557D02*
Y19357D01*
X26000D01*
X25500Y18557D02*
X26000D01*
X26000Y21357D02*
X26000Y19357D01*
X26000Y16007D02*
X26000Y18557D01*
X26000Y16007D02*
X28150D01*
X26000Y21357D02*
X34600D01*
X28150Y15507D02*
X32350D01*
X5640Y13750D02*
X6040D01*
X5640Y13050D02*
X6040D01*
X29250Y4033D02*
Y4433D01*
X29950Y4033D02*
Y4433D01*
X740Y550D02*
Y7750D01*
X3940Y550D02*
Y7750D01*
X740Y550D02*
X3940D01*
X740Y7750D02*
X3940D01*
X18175Y12700D02*
X18675Y12200D01*
X12675Y12700D02*
X13175D01*
X12675Y12200D02*
Y12700D01*
Y6700D02*
Y7200D01*
Y6700D02*
X13175D01*
X18175D02*
X18675D01*
Y7200D01*
X20746Y13358D02*
X21946D01*
X20746Y11858D02*
X21946D01*
X18915Y15007D02*
Y15207D01*
X19515Y15007D02*
Y15207D01*
X16300Y14868D02*
Y15068D01*
X15700Y14868D02*
Y15068D01*
X18400Y14907D02*
Y15307D01*
X17700Y14907D02*
Y15307D01*
X31250Y9150D02*
Y12250D01*
X30750Y9150D02*
Y12250D01*
X31250D01*
X30750Y9150D02*
X31250D01*
X30900Y6300D02*
X31500D01*
Y6750D01*
X30900Y8500D02*
X31500D01*
Y8050D02*
Y8500D01*
X26650Y2691D02*
X27150D01*
X26650Y5792D02*
X27150D01*
X26650Y2691D02*
Y5792D01*
X27150Y2691D02*
Y5792D01*
D75*
X4440Y1550D02*
G03*
X4440Y1550I-50J0D01*
G01*
D76*
X14700Y4379D02*
Y5729D01*
X7000Y4479D02*
Y5679D01*
X9200D01*
Y6229D01*
X12500D01*
Y5729D02*
Y6229D01*
Y5729D02*
X13050D01*
X14650D01*
X7050Y279D02*
X14700D01*
X7000Y329D02*
Y479D01*
Y329D02*
X7050Y279D01*
X7000Y479D02*
Y2079D01*
X6250Y2829D02*
Y3479D01*
X6950D01*
X6250Y2079D02*
X7000D01*
X6250D02*
Y2829D01*
X7000Y3479D02*
Y4479D01*
X14700Y3529D02*
X15500D01*
Y2129D02*
Y3529D01*
X14700Y2129D02*
X15500D01*
X14700Y279D02*
Y2129D01*
Y3529D02*
Y4379D01*
D125*
X6772Y7133D02*
Y7783D01*
Y8283D02*
Y8933D01*
X6072Y7133D02*
Y7783D01*
Y8933D02*
X6072Y8283D01*
X6072Y8933D02*
X6772D01*
X6072Y7133D02*
X6772D01*
X7950Y7100D02*
Y7750D01*
Y8250D02*
Y8900D01*
X7250Y7100D02*
Y7750D01*
Y8900D02*
X7250Y8250D01*
X7250Y8900D02*
X7950D01*
X7250Y7100D02*
X7950D01*
X8210Y8947D02*
X8860D01*
X9360D02*
X10010D01*
X8210Y9647D02*
X8860D01*
X9360Y9647D02*
X10010Y9647D01*
Y8947D02*
Y9647D01*
X8210Y8947D02*
Y9647D01*
X16655Y15305D02*
Y15955D01*
Y14155D02*
Y14805D01*
X17355Y15305D02*
Y15955D01*
X17355Y14805D02*
X17355Y14155D01*
X16655D02*
X17355D01*
X16655Y15955D02*
X17355D01*
X20300Y4922D02*
Y5622D01*
X18500Y4922D02*
Y5622D01*
Y4922D02*
X19150D01*
X19650D02*
X20300D01*
X18500Y5622D02*
X19150D01*
X19650D02*
X20300D01*
X10450Y9628D02*
X11150D01*
X10450Y7828D02*
X11150D01*
Y8478D01*
Y8978D02*
Y9628D01*
X10450Y7828D02*
Y8478D01*
Y8978D02*
Y9628D01*
X11100Y10150D02*
Y10850D01*
X9300Y10150D02*
Y10850D01*
Y10150D02*
X9950D01*
X10450D02*
X11100D01*
X9300Y10850D02*
X9950D01*
X10450D02*
X11100D01*
X9289Y11150D02*
Y11850D01*
X11089Y11150D02*
Y11850D01*
X10439D02*
X11089D01*
X9289D02*
X9939D01*
X10439Y11150D02*
X11089D01*
X9289D02*
X9939D01*
X12050Y16100D02*
X12750D01*
X12050Y14300D02*
X12750D01*
Y14950D01*
Y15450D02*
Y16100D01*
X12050Y14300D02*
Y14950D01*
Y15450D02*
Y16100D01*
X21830Y16007D02*
X22530D01*
X21830Y14207D02*
X22530D01*
Y14857D01*
Y15357D02*
Y16007D01*
X21830Y14207D02*
Y14857D01*
Y15357D02*
Y16007D01*
X8150Y14500D02*
X8850D01*
X8150Y12700D02*
X8850D01*
Y13350D01*
Y13850D02*
Y14500D01*
X8150Y12700D02*
Y13350D01*
Y13850D02*
Y14500D01*
X18715Y15357D02*
Y16282D01*
Y13932D02*
Y14857D01*
X19715Y15357D02*
Y16282D01*
Y13932D02*
Y14857D01*
X18715Y13932D02*
X19715D01*
X18715Y16282D02*
X19715D01*
X20250Y16000D02*
X20950D01*
X20250Y14200D02*
X20950D01*
Y14850D01*
Y15350D02*
Y16000D01*
X20250Y14200D02*
Y14850D01*
Y15350D02*
Y16000D01*
X21050Y16007D02*
X21750D01*
X21050Y14207D02*
X21750D01*
Y14857D01*
Y15357D02*
Y16007D01*
X21050Y14207D02*
Y14857D01*
Y15357D02*
Y16007D01*
X9289Y15007D02*
Y15707D01*
X11089Y15007D02*
Y15707D01*
X10439D02*
X11089D01*
X9289D02*
X9939D01*
X10439Y15007D02*
X11089D01*
X9289D02*
X9939D01*
X16500Y13793D02*
Y14718D01*
Y15218D02*
Y16143D01*
X15500Y13793D02*
Y14718D01*
Y15218D02*
Y16143D01*
X16500D01*
X15500Y13793D02*
X16500D01*
X10122Y12485D02*
X10242D01*
X11062Y13405D02*
Y13725D01*
X10122Y14645D02*
X10242D01*
X9302Y13405D02*
Y13725D01*
M02*
