G04 Layer_Color=8421504*
%FSLAX43Y43*%
%MOMM*%
G71*
G01*
G75*
%ADD10R,1.000X0.800*%
%ADD11R,0.500X1.300*%
%ADD12R,0.800X1.400*%
%ADD13R,0.600X0.500*%
%ADD14R,0.900X0.700*%
%ADD15R,0.850X0.600*%
%ADD16R,1.150X3.300*%
%ADD17R,1.400X1.200*%
%ADD18R,0.700X0.900*%
%ADD19R,0.500X0.600*%
%ADD20R,0.500X0.200*%
%ADD21R,1.400X0.750*%
%ADD22R,3.300X1.150*%
%ADD23R,0.900X0.800*%
%ADD24R,0.300X0.500*%
%ADD25R,0.280X1.300*%
%ADD26R,1.300X0.280*%
%ADD27R,2.050X2.050*%
%ADD28R,6.300X6.300*%
%ADD29O,0.200X0.950*%
%ADD30O,0.200X1.050*%
%ADD31O,0.950X0.200*%
%ADD32O,1.050X0.200*%
%ADD33O,0.300X2.100*%
%ADD34O,2.100X0.300*%
D10*
X21400Y1380D02*
D03*
Y2589D02*
D03*
D11*
X13200Y18550D02*
D03*
X14000D02*
D03*
D12*
X15200Y20800D02*
D03*
X12000D02*
D03*
D13*
X23300Y20500D02*
D03*
X24300D02*
D03*
X23061Y6379D02*
D03*
X22061D02*
D03*
X22400Y7557D02*
D03*
X21400D02*
D03*
X8432Y6557D02*
D03*
X9432D02*
D03*
X8432Y9557D02*
D03*
X9432D02*
D03*
X39400Y17900D02*
D03*
X40400D02*
D03*
X39400Y17000D02*
D03*
X40400D02*
D03*
X39400Y16100D02*
D03*
X40400D02*
D03*
X39400Y15187D02*
D03*
X40400D02*
D03*
X39400Y14304D02*
D03*
X40400D02*
D03*
X39400Y13400D02*
D03*
X40400D02*
D03*
X39400Y12512D02*
D03*
X40400D02*
D03*
X39400Y11600D02*
D03*
X40400D02*
D03*
X39400Y10700D02*
D03*
X40400D02*
D03*
X39400Y9800D02*
D03*
X40400D02*
D03*
X39400Y8897D02*
D03*
X40400D02*
D03*
X39400Y8000D02*
D03*
X40400D02*
D03*
X39400Y7100D02*
D03*
X40400D02*
D03*
X39400Y6200D02*
D03*
X40400D02*
D03*
X39400Y5300D02*
D03*
X40400D02*
D03*
X39400Y4400D02*
D03*
X40400D02*
D03*
D14*
X16900Y16950D02*
D03*
Y18450D02*
D03*
X19000Y14507D02*
D03*
Y16007D02*
D03*
X10800Y2750D02*
D03*
Y1250D02*
D03*
X6850Y2768D02*
D03*
Y1268D02*
D03*
X17700Y16007D02*
D03*
Y14507D02*
D03*
X1612Y20450D02*
D03*
Y18950D02*
D03*
X10353Y19200D02*
D03*
Y20700D02*
D03*
X28900Y18850D02*
D03*
Y20350D02*
D03*
D15*
X9446Y1275D02*
D03*
Y2725D02*
D03*
X8200Y1275D02*
D03*
Y2725D02*
D03*
D16*
X9110Y12057D02*
D03*
X6960D02*
D03*
D17*
X3100Y12900D02*
D03*
Y14700D02*
D03*
D18*
X10350Y18100D02*
D03*
X11850D02*
D03*
X1410Y16060D02*
D03*
X2910D02*
D03*
D19*
X9500Y14700D02*
D03*
Y15700D02*
D03*
X5400Y12900D02*
D03*
Y13900D02*
D03*
X31800Y2326D02*
D03*
Y3326D02*
D03*
X16167Y1383D02*
D03*
Y2383D02*
D03*
X19945Y1590D02*
D03*
Y2590D02*
D03*
X13381Y15800D02*
D03*
Y14800D02*
D03*
X15250Y1383D02*
D03*
Y2383D02*
D03*
X17976Y18200D02*
D03*
Y17200D02*
D03*
X12500Y15800D02*
D03*
Y14800D02*
D03*
X15700Y15800D02*
D03*
Y14800D02*
D03*
X16600Y15800D02*
D03*
Y14800D02*
D03*
X32884Y2326D02*
D03*
Y3326D02*
D03*
X28884Y2326D02*
D03*
Y3326D02*
D03*
X30884Y2326D02*
D03*
Y3326D02*
D03*
X29884Y2326D02*
D03*
Y3326D02*
D03*
X30884Y20100D02*
D03*
Y19100D02*
D03*
X31884Y20100D02*
D03*
Y19100D02*
D03*
X30000Y20100D02*
D03*
Y19100D02*
D03*
X33900Y20100D02*
D03*
Y19100D02*
D03*
X32900Y20100D02*
D03*
Y19100D02*
D03*
X26884Y2326D02*
D03*
Y3326D02*
D03*
X27884Y2326D02*
D03*
Y3326D02*
D03*
X27790Y20100D02*
D03*
Y19100D02*
D03*
X8800Y20660D02*
D03*
Y19660D02*
D03*
D20*
X11450Y15200D02*
D03*
X10550Y15400D02*
D03*
D21*
X11000Y14575D02*
D03*
Y16025D02*
D03*
D22*
X21600Y16237D02*
D03*
Y14087D02*
D03*
D23*
X34384Y3500D02*
D03*
Y2100D02*
D03*
D24*
X4620Y13750D02*
D03*
Y13050D02*
D03*
D25*
X5500Y15450D02*
D03*
X6500D02*
D03*
X6000D02*
D03*
X7000D02*
D03*
X7500D02*
D03*
Y19350D02*
D03*
X6500D02*
D03*
X7000D02*
D03*
X6000D02*
D03*
X5500D02*
D03*
D26*
X4550Y18400D02*
D03*
Y17400D02*
D03*
Y17900D02*
D03*
Y16900D02*
D03*
Y16400D02*
D03*
X8450Y18400D02*
D03*
Y17900D02*
D03*
Y16900D02*
D03*
Y17400D02*
D03*
Y16400D02*
D03*
D27*
X6500Y17400D02*
D03*
D28*
X15533Y8307D02*
D03*
D29*
X11783Y12782D02*
D03*
X19283D02*
D03*
Y3832D02*
D03*
X11783D02*
D03*
D30*
X12283Y12732D02*
D03*
X12783D02*
D03*
X13283D02*
D03*
X13783D02*
D03*
X14283D02*
D03*
X14783D02*
D03*
X15283D02*
D03*
X15783D02*
D03*
X16283D02*
D03*
X16783D02*
D03*
X17283D02*
D03*
X17783D02*
D03*
X18283D02*
D03*
X18783D02*
D03*
Y3882D02*
D03*
X18283D02*
D03*
X17783D02*
D03*
X17283D02*
D03*
X16783D02*
D03*
X16283D02*
D03*
X15783D02*
D03*
X15283D02*
D03*
X14783D02*
D03*
X14283D02*
D03*
X13783D02*
D03*
X13283D02*
D03*
X12783D02*
D03*
X12283D02*
D03*
D31*
X20008Y12057D02*
D03*
Y4557D02*
D03*
X11058D02*
D03*
Y12057D02*
D03*
D32*
X19958Y11557D02*
D03*
Y11057D02*
D03*
Y10557D02*
D03*
Y10057D02*
D03*
Y9557D02*
D03*
Y9057D02*
D03*
Y8557D02*
D03*
Y8057D02*
D03*
Y7557D02*
D03*
Y7057D02*
D03*
Y6557D02*
D03*
Y6057D02*
D03*
Y5557D02*
D03*
Y5057D02*
D03*
X11108D02*
D03*
Y5557D02*
D03*
Y6057D02*
D03*
Y6557D02*
D03*
Y7057D02*
D03*
Y7557D02*
D03*
Y8057D02*
D03*
Y8557D02*
D03*
Y9057D02*
D03*
Y9557D02*
D03*
Y10057D02*
D03*
Y10557D02*
D03*
Y11057D02*
D03*
Y11557D02*
D03*
D33*
X34384Y5624D02*
D03*
X33884D02*
D03*
X33384D02*
D03*
X32884D02*
D03*
X32384D02*
D03*
X31884D02*
D03*
X31384D02*
D03*
X30884D02*
D03*
X30384D02*
D03*
X29884D02*
D03*
X29384D02*
D03*
X28884D02*
D03*
X28384D02*
D03*
X27884D02*
D03*
X27384D02*
D03*
X26884D02*
D03*
Y16824D02*
D03*
X27384D02*
D03*
X27884D02*
D03*
X28384D02*
D03*
X28884D02*
D03*
X29384D02*
D03*
X29884D02*
D03*
X30384D02*
D03*
X30884D02*
D03*
X31384D02*
D03*
X31884D02*
D03*
X32384D02*
D03*
X32884D02*
D03*
X33384D02*
D03*
X33884D02*
D03*
X34384D02*
D03*
D34*
X25034Y7474D02*
D03*
Y7974D02*
D03*
Y8474D02*
D03*
Y8974D02*
D03*
Y9474D02*
D03*
Y9974D02*
D03*
Y10474D02*
D03*
Y10974D02*
D03*
Y11474D02*
D03*
Y11974D02*
D03*
Y12474D02*
D03*
Y12974D02*
D03*
Y13474D02*
D03*
Y13974D02*
D03*
Y14474D02*
D03*
Y14974D02*
D03*
X36234D02*
D03*
Y14474D02*
D03*
Y13974D02*
D03*
Y13474D02*
D03*
Y12974D02*
D03*
Y12474D02*
D03*
Y11974D02*
D03*
Y11474D02*
D03*
Y10974D02*
D03*
Y10474D02*
D03*
Y9974D02*
D03*
Y9474D02*
D03*
Y8974D02*
D03*
Y8474D02*
D03*
Y7974D02*
D03*
Y7474D02*
D03*
M02*
