G04 Layer_Color=8388736*
%FSLAX43Y43*%
%MOMM*%
G71*
G01*
G75*
%ADD77R,1.203X1.003*%
%ADD78R,0.703X1.503*%
%ADD79R,1.003X1.603*%
%ADD80R,0.803X0.703*%
%ADD81R,1.103X0.903*%
%ADD82R,1.053X0.803*%
%ADD83R,1.353X3.503*%
%ADD84R,1.603X1.403*%
%ADD85R,0.903X1.103*%
%ADD86R,0.703X0.803*%
%ADD87R,0.703X0.403*%
%ADD88R,1.603X0.953*%
%ADD89R,3.503X1.353*%
%ADD90R,1.103X1.003*%
%ADD91R,0.503X0.703*%
%ADD92R,0.483X1.503*%
%ADD93R,1.503X0.483*%
%ADD94R,2.253X2.253*%
%ADD95R,6.503X6.503*%
%ADD96O,0.403X1.153*%
%ADD97O,0.403X1.253*%
%ADD98O,1.153X0.403*%
%ADD99O,1.253X0.403*%
%ADD100O,0.503X2.303*%
%ADD101O,2.303X0.503*%
%ADD102C,0.823*%
%ADD103C,0.863*%
D77*
X21400Y1380D02*
D03*
Y2589D02*
D03*
D78*
X13200Y18550D02*
D03*
X14000D02*
D03*
D79*
X15200Y20800D02*
D03*
X12000D02*
D03*
D80*
X23300Y20500D02*
D03*
X24300D02*
D03*
X23061Y6379D02*
D03*
X22061D02*
D03*
X22400Y7557D02*
D03*
X21400D02*
D03*
X8432Y6557D02*
D03*
X9432D02*
D03*
X8432Y9557D02*
D03*
X9432D02*
D03*
X39400Y17900D02*
D03*
X40400D02*
D03*
X39400Y17000D02*
D03*
X40400D02*
D03*
X39400Y16100D02*
D03*
X40400D02*
D03*
X39400Y15187D02*
D03*
X40400D02*
D03*
X39400Y14304D02*
D03*
X40400D02*
D03*
X39400Y13400D02*
D03*
X40400D02*
D03*
X39400Y12512D02*
D03*
X40400D02*
D03*
X39400Y11600D02*
D03*
X40400D02*
D03*
X39400Y10700D02*
D03*
X40400D02*
D03*
X39400Y9800D02*
D03*
X40400D02*
D03*
X39400Y8897D02*
D03*
X40400D02*
D03*
X39400Y8000D02*
D03*
X40400D02*
D03*
X39400Y7100D02*
D03*
X40400D02*
D03*
X39400Y6200D02*
D03*
X40400D02*
D03*
X39400Y5300D02*
D03*
X40400D02*
D03*
X39400Y4400D02*
D03*
X40400D02*
D03*
D81*
X16900Y16950D02*
D03*
Y18450D02*
D03*
X19000Y14507D02*
D03*
Y16007D02*
D03*
X10800Y2750D02*
D03*
Y1250D02*
D03*
X6850Y2768D02*
D03*
Y1268D02*
D03*
X17700Y16007D02*
D03*
Y14507D02*
D03*
X1612Y20450D02*
D03*
Y18950D02*
D03*
X10353Y19200D02*
D03*
Y20700D02*
D03*
X28900Y18850D02*
D03*
Y20350D02*
D03*
D82*
X9446Y1275D02*
D03*
Y2725D02*
D03*
X8200Y1275D02*
D03*
Y2725D02*
D03*
D83*
X9110Y12057D02*
D03*
X6960D02*
D03*
D84*
X3100Y12900D02*
D03*
Y14700D02*
D03*
D85*
X10350Y18100D02*
D03*
X11850D02*
D03*
X1410Y16060D02*
D03*
X2910D02*
D03*
D86*
X9500Y14700D02*
D03*
Y15700D02*
D03*
X5400Y12900D02*
D03*
Y13900D02*
D03*
X31800Y2326D02*
D03*
Y3326D02*
D03*
X16167Y1383D02*
D03*
Y2383D02*
D03*
X19945Y1590D02*
D03*
Y2590D02*
D03*
X13381Y15800D02*
D03*
Y14800D02*
D03*
X15250Y1383D02*
D03*
Y2383D02*
D03*
X17976Y18200D02*
D03*
Y17200D02*
D03*
X12500Y15800D02*
D03*
Y14800D02*
D03*
X15700Y15800D02*
D03*
Y14800D02*
D03*
X16600Y15800D02*
D03*
Y14800D02*
D03*
X32884Y2326D02*
D03*
Y3326D02*
D03*
X28884Y2326D02*
D03*
Y3326D02*
D03*
X30884Y2326D02*
D03*
Y3326D02*
D03*
X29884Y2326D02*
D03*
Y3326D02*
D03*
X30884Y20100D02*
D03*
Y19100D02*
D03*
X31884Y20100D02*
D03*
Y19100D02*
D03*
X30000Y20100D02*
D03*
Y19100D02*
D03*
X33900Y20100D02*
D03*
Y19100D02*
D03*
X32900Y20100D02*
D03*
Y19100D02*
D03*
X26884Y2326D02*
D03*
Y3326D02*
D03*
X27884Y2326D02*
D03*
Y3326D02*
D03*
X27790Y20100D02*
D03*
Y19100D02*
D03*
X8800Y20660D02*
D03*
Y19660D02*
D03*
D87*
X11450Y15200D02*
D03*
X10550Y15400D02*
D03*
D88*
X11000Y14575D02*
D03*
Y16025D02*
D03*
D89*
X21600Y16237D02*
D03*
Y14087D02*
D03*
D90*
X34384Y3500D02*
D03*
Y2100D02*
D03*
D91*
X4620Y13750D02*
D03*
Y13050D02*
D03*
D92*
X5500Y15450D02*
D03*
X6500D02*
D03*
X6000D02*
D03*
X7000D02*
D03*
X7500D02*
D03*
Y19350D02*
D03*
X6500D02*
D03*
X7000D02*
D03*
X6000D02*
D03*
X5500D02*
D03*
D93*
X4550Y18400D02*
D03*
Y17400D02*
D03*
Y17900D02*
D03*
Y16900D02*
D03*
Y16400D02*
D03*
X8450Y18400D02*
D03*
Y17900D02*
D03*
Y16900D02*
D03*
Y17400D02*
D03*
Y16400D02*
D03*
D94*
X6500Y17400D02*
D03*
D95*
X15533Y8307D02*
D03*
D96*
X11783Y12782D02*
D03*
X19283D02*
D03*
Y3832D02*
D03*
X11783D02*
D03*
D97*
X12283Y12732D02*
D03*
X12783D02*
D03*
X13283D02*
D03*
X13783D02*
D03*
X14283D02*
D03*
X14783D02*
D03*
X15283D02*
D03*
X15783D02*
D03*
X16283D02*
D03*
X16783D02*
D03*
X17283D02*
D03*
X17783D02*
D03*
X18283D02*
D03*
X18783D02*
D03*
Y3882D02*
D03*
X18283D02*
D03*
X17783D02*
D03*
X17283D02*
D03*
X16783D02*
D03*
X16283D02*
D03*
X15783D02*
D03*
X15283D02*
D03*
X14783D02*
D03*
X14283D02*
D03*
X13783D02*
D03*
X13283D02*
D03*
X12783D02*
D03*
X12283D02*
D03*
D98*
X20008Y12057D02*
D03*
Y4557D02*
D03*
X11058D02*
D03*
Y12057D02*
D03*
D99*
X19958Y11557D02*
D03*
Y11057D02*
D03*
Y10557D02*
D03*
Y10057D02*
D03*
Y9557D02*
D03*
Y9057D02*
D03*
Y8557D02*
D03*
Y8057D02*
D03*
Y7557D02*
D03*
Y7057D02*
D03*
Y6557D02*
D03*
Y6057D02*
D03*
Y5557D02*
D03*
Y5057D02*
D03*
X11108D02*
D03*
Y5557D02*
D03*
Y6057D02*
D03*
Y6557D02*
D03*
Y7057D02*
D03*
Y7557D02*
D03*
Y8057D02*
D03*
Y8557D02*
D03*
Y9057D02*
D03*
Y9557D02*
D03*
Y10057D02*
D03*
Y10557D02*
D03*
Y11057D02*
D03*
Y11557D02*
D03*
D100*
X34384Y5624D02*
D03*
X33884D02*
D03*
X33384D02*
D03*
X32884D02*
D03*
X32384D02*
D03*
X31884D02*
D03*
X31384D02*
D03*
X30884D02*
D03*
X30384D02*
D03*
X29884D02*
D03*
X29384D02*
D03*
X28884D02*
D03*
X28384D02*
D03*
X27884D02*
D03*
X27384D02*
D03*
X26884D02*
D03*
Y16824D02*
D03*
X27384D02*
D03*
X27884D02*
D03*
X28384D02*
D03*
X28884D02*
D03*
X29384D02*
D03*
X29884D02*
D03*
X30384D02*
D03*
X30884D02*
D03*
X31384D02*
D03*
X31884D02*
D03*
X32384D02*
D03*
X32884D02*
D03*
X33384D02*
D03*
X33884D02*
D03*
X34384D02*
D03*
D101*
X25034Y7474D02*
D03*
Y7974D02*
D03*
Y8474D02*
D03*
Y8974D02*
D03*
Y9474D02*
D03*
Y9974D02*
D03*
Y10474D02*
D03*
Y10974D02*
D03*
Y11474D02*
D03*
Y11974D02*
D03*
Y12474D02*
D03*
Y12974D02*
D03*
Y13474D02*
D03*
Y13974D02*
D03*
Y14474D02*
D03*
Y14974D02*
D03*
X36234D02*
D03*
Y14474D02*
D03*
Y13974D02*
D03*
Y13474D02*
D03*
Y12974D02*
D03*
Y12474D02*
D03*
Y11974D02*
D03*
Y11474D02*
D03*
Y10974D02*
D03*
Y10474D02*
D03*
Y9974D02*
D03*
Y9474D02*
D03*
Y8974D02*
D03*
Y8474D02*
D03*
Y7974D02*
D03*
Y7474D02*
D03*
D102*
X12300Y2975D02*
D03*
X24494Y19500D02*
D03*
X24800Y3270D02*
D03*
X20954Y4502D02*
D03*
X20943Y5473D02*
D03*
X23260Y5100D02*
D03*
X23900Y6500D02*
D03*
X18800Y2400D02*
D03*
X22600Y2700D02*
D03*
X37900Y16700D02*
D03*
X36900Y16500D02*
D03*
X8500Y5300D02*
D03*
X8900Y4460D02*
D03*
X7900Y4317D02*
D03*
X7125Y4670D02*
D03*
X6300Y5227D02*
D03*
X9400Y7800D02*
D03*
X7000Y6252D02*
D03*
X32600Y1300D02*
D03*
X29200D02*
D03*
X13979Y20700D02*
D03*
X23979Y17157D02*
D03*
X21279Y19800D02*
D03*
X36030Y17424D02*
D03*
X32368Y12900D02*
D03*
X33600Y14140D02*
D03*
X36500Y20348D02*
D03*
X39602Y20357D02*
D03*
X38040D02*
D03*
Y1900D02*
D03*
X39602D02*
D03*
X36500Y1891D02*
D03*
X7125Y16844D02*
D03*
X30900Y1300D02*
D03*
X18000Y19255D02*
D03*
X22690Y19800D02*
D03*
X34400Y9304D02*
D03*
X37300Y5200D02*
D03*
X21700Y17900D02*
D03*
X25800Y17026D02*
D03*
X28300Y13100D02*
D03*
X24000Y16200D02*
D03*
X33900Y12396D02*
D03*
X38626Y7100D02*
D03*
X38600Y13400D02*
D03*
X33884Y10065D02*
D03*
X38600Y16100D02*
D03*
Y12500D02*
D03*
X38626Y6200D02*
D03*
Y5300D02*
D03*
X38600Y15200D02*
D03*
X38600Y11557D02*
D03*
X38800Y8100D02*
D03*
X38678Y14170D02*
D03*
X33884Y11200D02*
D03*
X35700Y4549D02*
D03*
X30500Y12792D02*
D03*
X26934Y9991D02*
D03*
X27400Y10700D02*
D03*
X27600Y11900D02*
D03*
X22100Y10700D02*
D03*
X22000Y9500D02*
D03*
X29500Y12600D02*
D03*
X14283Y17080D02*
D03*
X2100Y17700D02*
D03*
X19400Y16900D02*
D03*
X19325Y19900D02*
D03*
X3300Y18300D02*
D03*
X3020Y19100D02*
D03*
X3600Y19782D02*
D03*
X2957Y20395D02*
D03*
X14500Y15500D02*
D03*
X14525Y14710D02*
D03*
X22932Y11220D02*
D03*
X22800Y10100D02*
D03*
X22700Y8900D02*
D03*
X23260Y8133D02*
D03*
X13600Y1810D02*
D03*
X18000Y2700D02*
D03*
X16900Y1700D02*
D03*
X12700Y1275D02*
D03*
D103*
X15075Y11500D02*
D03*
X16275D02*
D03*
X17475D02*
D03*
Y9100D02*
D03*
Y7900D02*
D03*
Y10300D02*
D03*
X13875Y11500D02*
D03*
X16275Y9100D02*
D03*
Y10300D02*
D03*
X15075D02*
D03*
Y7900D02*
D03*
X16275D02*
D03*
X13875Y9100D02*
D03*
X15075D02*
D03*
X13875Y10300D02*
D03*
Y7900D02*
D03*
M02*
