G04 Layer_Color=65535*
%FSLAX43Y43*%
%MOMM*%
G71*
G01*
G75*
%ADD35C,0.250*%
%ADD36C,0.200*%
%ADD48C,0.600*%
%ADD75C,0.100*%
%ADD76C,0.254*%
G36*
X8550Y2125D02*
X8244D01*
X8550Y1775D01*
X7850D01*
X8156Y2125D01*
X7850D01*
Y2225D01*
X8550D01*
Y2125D01*
D02*
G37*
G36*
X9796D02*
X9490D01*
X9796Y1775D01*
X9096D01*
X9402Y2125D01*
X9096D01*
Y2225D01*
X9796D01*
Y2125D01*
D02*
G37*
D35*
X10308Y12857D02*
G03*
X10308Y12857I-125J0D01*
G01*
X36359Y6774D02*
G03*
X36359Y6774I-125J0D01*
G01*
D36*
X14450Y18550D02*
X15600D01*
Y21400D01*
X11600Y18550D02*
X12750D01*
X11600D02*
Y21400D01*
X15550D01*
X16550Y17500D02*
Y17900D01*
X17250Y17500D02*
Y17900D01*
X18650Y15057D02*
Y15457D01*
X19350Y15057D02*
Y15457D01*
X11150Y1800D02*
Y2200D01*
X10450Y1800D02*
Y2200D01*
X7200Y1818D02*
Y2218D01*
X6500Y1818D02*
Y2218D01*
X18050Y15057D02*
Y15457D01*
X17350Y15057D02*
Y15457D01*
X1962Y19500D02*
Y19900D01*
X1262Y19500D02*
Y19900D01*
X10003Y19750D02*
Y20150D01*
X10703Y19750D02*
Y20150D01*
X2500Y13800D02*
X3700D01*
X10900Y18450D02*
X11300D01*
X10900Y17750D02*
X11300D01*
X1960Y16410D02*
X2360D01*
X1960Y15710D02*
X2360D01*
X28550Y19400D02*
Y19800D01*
X29250Y19400D02*
Y19800D01*
X4570Y12500D02*
X4670D01*
X4650Y19250D02*
X5150D01*
X4650Y18750D02*
Y19250D01*
Y15550D02*
Y16050D01*
Y15550D02*
X5150D01*
X8350Y18750D02*
Y19250D01*
X7850D02*
X8350D01*
Y15550D02*
Y16050D01*
X7850Y15550D02*
X8350D01*
X10833Y3607D02*
X11283D01*
X10833D02*
Y4057D01*
X19783Y3607D02*
X20233D01*
Y4057D01*
Y12557D02*
Y13007D01*
X19783D02*
X20233D01*
X10833D02*
X11283D01*
X10833Y12557D02*
Y13007D01*
X26484Y15374D02*
X34784D01*
X26484Y7074D02*
X34784D01*
X26484D02*
Y15374D01*
X34784Y7074D02*
Y15374D01*
D48*
X34084Y8074D02*
G03*
X34084Y8074I-300J0D01*
G01*
D75*
X10200Y16675D02*
G03*
X10200Y16675I-25J0D01*
G01*
X10400Y16650D02*
X11600D01*
X10400Y13950D02*
X11600D01*
D76*
X8921Y15700D02*
G03*
X8921Y15700I-71J0D01*
G01*
M02*
