%FSLAX25Y25*%
%MOIN*%
G70*
G01*
G75*
G04 Layer_Color=65535*
%ADD10O,0.03543X0.00984*%
%ADD11R,0.06693X0.04331*%
%ADD12R,0.01969X0.01969*%
%ADD13R,0.03543X0.03150*%
%ADD14R,0.03150X0.03543*%
%ADD15R,0.01969X0.01969*%
%ADD16R,0.02362X0.04331*%
%ADD17R,0.03150X0.03150*%
%ADD18R,0.03150X0.03150*%
%ADD19R,0.04134X0.02362*%
%ADD20R,0.02362X0.04134*%
%ADD21R,0.03150X0.02756*%
%ADD22R,0.02756X0.03150*%
%ADD23R,0.02362X0.01969*%
%ADD24R,0.01969X0.02362*%
%ADD25R,0.25590X0.25590*%
%ADD26O,0.00984X0.03543*%
%ADD27R,0.01969X0.02559*%
%ADD28R,0.03347X0.03740*%
%ADD29O,0.02559X0.00787*%
%ADD30O,0.00787X0.02559*%
%ADD31R,0.18504X0.18504*%
%ADD32R,0.02559X0.01969*%
%ADD33R,0.03543X0.02756*%
%ADD34R,0.03150X0.02953*%
%ADD35R,0.10236X0.05906*%
%ADD36R,0.00787X0.01969*%
%ADD37R,0.02953X0.05512*%
%ADD38R,0.05906X0.14173*%
%ADD39C,0.00600*%
%ADD40C,0.01000*%
%ADD41C,0.00800*%
%ADD42C,0.01200*%
%ADD43C,0.00400*%
%ADD44C,0.01600*%
%ADD45C,0.05906*%
%ADD46R,0.05906X0.05906*%
%ADD47R,0.05906X0.05906*%
%ADD48C,0.00900*%
%ADD49C,0.02000*%
%ADD50C,0.01400*%
%ADD51C,0.01969*%
%ADD52C,0.02598*%
%ADD53C,0.04000*%
%ADD54C,0.04743*%
%ADD55C,0.01600*%
%ADD56C,0.02200*%
%ADD57C,0.01800*%
%ADD58C,0.01987*%
%ADD59C,0.02499*%
%ADD60C,0.00984*%
%ADD61C,0.00394*%
%ADD62C,0.00787*%
%ADD63C,0.00500*%
G36*
X221629Y33802D02*
X221391D01*
Y35331D01*
X221629D01*
Y33802D01*
D02*
G37*
G36*
X221100Y33356D02*
X220452Y32932D01*
X221100Y32506D01*
Y32040D01*
X220103Y32702D01*
X219183Y32101D01*
Y32553D01*
X219757Y32932D01*
X219183Y33312D01*
Y33763D01*
X220103Y33162D01*
X221100Y33821D01*
Y33356D01*
D02*
G37*
G36*
Y36772D02*
X220685Y36494D01*
X220682Y36492D01*
X220673Y36489D01*
X220662Y36481D01*
X220649Y36470D01*
X220632Y36459D01*
X220610Y36445D01*
X220565Y36414D01*
X220515Y36378D01*
X220471Y36345D01*
X220430Y36314D01*
X220416Y36301D01*
X220402Y36290D01*
X220399Y36287D01*
X220394Y36281D01*
X220383Y36270D01*
X220369Y36256D01*
X220358Y36237D01*
X220344Y36217D01*
X220333Y36195D01*
X220322Y36173D01*
Y36171D01*
X220319Y36162D01*
X220313Y36148D01*
X220311Y36126D01*
X220305Y36098D01*
X220302Y36065D01*
X220300Y36026D01*
Y35979D01*
Y35902D01*
X221100D01*
Y35514D01*
X219183D01*
Y36328D01*
Y36331D01*
Y36342D01*
Y36359D01*
Y36378D01*
X219186Y36403D01*
Y36434D01*
X219189Y36464D01*
Y36500D01*
X219197Y36572D01*
X219205Y36647D01*
X219219Y36716D01*
X219228Y36747D01*
X219236Y36774D01*
Y36777D01*
X219239Y36780D01*
X219247Y36797D01*
X219261Y36821D01*
X219277Y36855D01*
X219305Y36891D01*
X219336Y36927D01*
X219374Y36963D01*
X219421Y36996D01*
X219424D01*
X219427Y36999D01*
X219435Y37004D01*
X219443Y37010D01*
X219471Y37024D01*
X219507Y37040D01*
X219552Y37054D01*
X219601Y37068D01*
X219660Y37079D01*
X219721Y37082D01*
X219743D01*
X219757Y37079D01*
X219776D01*
X219795Y37076D01*
X219845Y37065D01*
X219903Y37051D01*
X219962Y37029D01*
X220023Y36996D01*
X220050Y36977D01*
X220078Y36954D01*
X220081Y36952D01*
X220083Y36949D01*
X220092Y36941D01*
X220100Y36929D01*
X220111Y36918D01*
X220125Y36902D01*
X220139Y36882D01*
X220153Y36860D01*
X220169Y36835D01*
X220183Y36805D01*
X220197Y36774D01*
X220211Y36741D01*
X220225Y36702D01*
X220236Y36663D01*
X220247Y36622D01*
X220255Y36575D01*
Y36578D01*
X220258Y36580D01*
X220269Y36597D01*
X220283Y36619D01*
X220302Y36647D01*
X220327Y36680D01*
X220352Y36713D01*
X220383Y36749D01*
X220416Y36780D01*
X220419Y36783D01*
X220432Y36797D01*
X220455Y36813D01*
X220488Y36838D01*
X220529Y36871D01*
X220557Y36888D01*
X220585Y36907D01*
X220615Y36929D01*
X220649Y36952D01*
X220687Y36977D01*
X220726Y37001D01*
X221100Y37237D01*
Y36772D01*
D02*
G37*
G36*
X199407Y17888D02*
X199862D01*
Y18688D01*
X200186D01*
Y17888D01*
X201000D01*
Y17500D01*
X199083D01*
Y18816D01*
X199407D01*
Y17888D01*
D02*
G37*
G36*
X221100Y38566D02*
X220452Y38143D01*
X221100Y37716D01*
Y37251D01*
X220103Y37913D01*
X219183Y37312D01*
Y37763D01*
X219757Y38143D01*
X219183Y38522D01*
Y38974D01*
X220103Y38373D01*
X221100Y39032D01*
Y38566D01*
D02*
G37*
G36*
X219507Y31420D02*
X221100D01*
Y31032D01*
X219507D01*
Y30464D01*
X219183D01*
Y31985D01*
X219507D01*
Y31420D01*
D02*
G37*
G36*
X221100Y23888D02*
X219183D01*
Y24276D01*
X221100D01*
Y23888D01*
D02*
G37*
G36*
X220848Y23537D02*
X220853Y23528D01*
X220862Y23520D01*
X220873Y23506D01*
X220884Y23492D01*
X220912Y23453D01*
X220942Y23401D01*
X220978Y23340D01*
X221014Y23271D01*
X221047Y23188D01*
Y23185D01*
X221050Y23176D01*
X221056Y23165D01*
X221061Y23149D01*
X221067Y23126D01*
X221075Y23102D01*
X221083Y23074D01*
X221092Y23043D01*
X221108Y22974D01*
X221122Y22894D01*
X221133Y22811D01*
X221136Y22722D01*
Y22719D01*
Y22708D01*
Y22692D01*
X221133Y22672D01*
Y22645D01*
X221130Y22614D01*
X221125Y22581D01*
X221119Y22542D01*
X221106Y22462D01*
X221083Y22373D01*
X221053Y22282D01*
X221034Y22240D01*
X221011Y22196D01*
X221009Y22193D01*
X221006Y22187D01*
X220998Y22174D01*
X220986Y22160D01*
X220975Y22140D01*
X220959Y22121D01*
X220939Y22096D01*
X220917Y22071D01*
X220867Y22016D01*
X220804Y21960D01*
X220732Y21908D01*
X220649Y21861D01*
X220646D01*
X220637Y21855D01*
X220624Y21850D01*
X220607Y21844D01*
X220585Y21836D01*
X220560Y21825D01*
X220529Y21816D01*
X220496Y21805D01*
X220460Y21794D01*
X220419Y21786D01*
X220333Y21767D01*
X220238Y21755D01*
X220136Y21750D01*
X220106D01*
X220086Y21753D01*
X220058D01*
X220028Y21755D01*
X219995Y21761D01*
X219956Y21767D01*
X219876Y21780D01*
X219784Y21802D01*
X219693Y21833D01*
X219649Y21852D01*
X219604Y21874D01*
X219601Y21877D01*
X219593Y21880D01*
X219582Y21888D01*
X219565Y21897D01*
X219546Y21911D01*
X219524Y21927D01*
X219499Y21947D01*
X219471Y21966D01*
X219443Y21991D01*
X219413Y22018D01*
X219383Y22049D01*
X219352Y22082D01*
X219324Y22118D01*
X219294Y22154D01*
X219244Y22240D01*
Y22243D01*
X219239Y22248D01*
X219236Y22260D01*
X219228Y22273D01*
X219222Y22293D01*
X219214Y22312D01*
X219205Y22340D01*
X219194Y22367D01*
X219186Y22398D01*
X219178Y22434D01*
X219169Y22473D01*
X219161Y22512D01*
X219150Y22600D01*
X219147Y22700D01*
Y22703D01*
Y22717D01*
Y22733D01*
X219150Y22758D01*
X219153Y22789D01*
X219156Y22825D01*
X219158Y22863D01*
X219166Y22905D01*
X219183Y22994D01*
X219211Y23085D01*
X219228Y23132D01*
X219247Y23176D01*
X219269Y23218D01*
X219297Y23257D01*
X219300Y23259D01*
X219302Y23265D01*
X219313Y23276D01*
X219324Y23290D01*
X219338Y23307D01*
X219358Y23323D01*
X219380Y23343D01*
X219405Y23365D01*
X219432Y23387D01*
X219463Y23409D01*
X219496Y23431D01*
X219535Y23451D01*
X219574Y23473D01*
X219615Y23489D01*
X219662Y23506D01*
X219709Y23517D01*
X219781Y23132D01*
X219779D01*
X219776Y23129D01*
X219759Y23124D01*
X219734Y23113D01*
X219701Y23096D01*
X219665Y23077D01*
X219629Y23049D01*
X219593Y23016D01*
X219560Y22977D01*
X219557Y22971D01*
X219546Y22958D01*
X219532Y22933D01*
X219518Y22902D01*
X219502Y22861D01*
X219491Y22814D01*
X219480Y22761D01*
X219477Y22700D01*
Y22697D01*
Y22689D01*
Y22675D01*
X219480Y22658D01*
X219482Y22636D01*
X219485Y22611D01*
X219491Y22584D01*
X219496Y22553D01*
X219516Y22489D01*
X219529Y22456D01*
X219546Y22423D01*
X219565Y22390D01*
X219585Y22356D01*
X219613Y22326D01*
X219640Y22296D01*
X219643Y22293D01*
X219649Y22290D01*
X219657Y22282D01*
X219671Y22273D01*
X219687Y22262D01*
X219707Y22248D01*
X219732Y22235D01*
X219759Y22223D01*
X219793Y22210D01*
X219829Y22196D01*
X219867Y22182D01*
X219909Y22171D01*
X219956Y22163D01*
X220009Y22154D01*
X220061Y22151D01*
X220119Y22149D01*
X220153D01*
X220175Y22151D01*
X220205Y22154D01*
X220236Y22157D01*
X220274Y22163D01*
X220313Y22168D01*
X220396Y22185D01*
X220482Y22212D01*
X220524Y22229D01*
X220563Y22248D01*
X220601Y22273D01*
X220635Y22298D01*
X220637Y22301D01*
X220643Y22307D01*
X220651Y22315D01*
X220662Y22326D01*
X220673Y22343D01*
X220690Y22359D01*
X220704Y22381D01*
X220721Y22406D01*
X220737Y22434D01*
X220751Y22462D01*
X220779Y22531D01*
X220790Y22570D01*
X220798Y22609D01*
X220804Y22653D01*
X220806Y22697D01*
Y22700D01*
Y22703D01*
Y22719D01*
X220804Y22741D01*
X220801Y22775D01*
X220795Y22811D01*
X220787Y22852D01*
X220776Y22897D01*
X220759Y22941D01*
Y22944D01*
X220757Y22946D01*
X220751Y22960D01*
X220740Y22985D01*
X220726Y23013D01*
X220709Y23046D01*
X220690Y23082D01*
X220668Y23118D01*
X220643Y23152D01*
X220396D01*
Y22708D01*
X220072D01*
Y23542D01*
X220842D01*
X220848Y23537D01*
D02*
G37*
G36*
X219507Y25467D02*
X221100D01*
Y25079D01*
X219507D01*
Y24511D01*
X219183D01*
Y26032D01*
X219507D01*
Y25467D01*
D02*
G37*
G36*
X221100Y28226D02*
X219197D01*
Y28614D01*
X220776D01*
Y29578D01*
X221100D01*
Y28226D01*
D02*
G37*
G36*
Y27592D02*
X220665Y27426D01*
Y26656D01*
X221100Y26498D01*
Y26088D01*
X219183Y26830D01*
Y27240D01*
X221100Y28010D01*
Y27592D01*
D02*
G37*
G36*
X200210Y33162D02*
X200283D01*
X200363Y33156D01*
X200446Y33151D01*
X200482Y33148D01*
X200518Y33142D01*
X200551Y33137D01*
X200582Y33131D01*
X200585D01*
X200587Y33128D01*
X200596D01*
X200604Y33126D01*
X200632Y33117D01*
X200665Y33106D01*
X200704Y33090D01*
X200742Y33070D01*
X200784Y33045D01*
X200823Y33015D01*
X200828Y33012D01*
X200839Y33001D01*
X200856Y32982D01*
X200878Y32957D01*
X200903Y32923D01*
X200928Y32885D01*
X200956Y32840D01*
X200978Y32790D01*
Y32788D01*
X200981Y32785D01*
X200983Y32776D01*
X200986Y32765D01*
X200992Y32752D01*
X200997Y32735D01*
X201003Y32713D01*
X201006Y32691D01*
X201017Y32638D01*
X201028Y32574D01*
X201033Y32502D01*
X201036Y32422D01*
Y32419D01*
Y32411D01*
Y32397D01*
Y32378D01*
X201033Y32353D01*
Y32328D01*
X201030Y32297D01*
X201028Y32267D01*
X201022Y32200D01*
X201011Y32131D01*
X200994Y32062D01*
X200986Y32031D01*
X200975Y32004D01*
Y32001D01*
X200972Y31998D01*
X200964Y31982D01*
X200950Y31954D01*
X200931Y31923D01*
X200906Y31887D01*
X200878Y31849D01*
X200845Y31813D01*
X200809Y31779D01*
X200803Y31777D01*
X200792Y31765D01*
X200770Y31752D01*
X200742Y31735D01*
X200712Y31718D01*
X200676Y31699D01*
X200637Y31685D01*
X200596Y31671D01*
X200593D01*
X200587Y31668D01*
X200579D01*
X200565Y31666D01*
X200549Y31663D01*
X200526Y31660D01*
X200501Y31657D01*
X200474Y31655D01*
X200441Y31649D01*
X200404Y31646D01*
X200366Y31644D01*
X200321Y31641D01*
X200274Y31638D01*
X200222D01*
X200166Y31635D01*
X199083D01*
Y32023D01*
X200208D01*
X200258Y32026D01*
X200313D01*
X200366Y32029D01*
X200391Y32031D01*
X200413D01*
X200429Y32034D01*
X200446Y32037D01*
X200451D01*
X200465Y32043D01*
X200488Y32051D01*
X200515Y32062D01*
X200546Y32076D01*
X200576Y32098D01*
X200609Y32123D01*
X200637Y32153D01*
X200640Y32159D01*
X200648Y32170D01*
X200659Y32192D01*
X200670Y32220D01*
X200684Y32259D01*
X200695Y32303D01*
X200704Y32353D01*
X200706Y32411D01*
Y32414D01*
Y32419D01*
Y32427D01*
Y32439D01*
X200704Y32466D01*
X200698Y32502D01*
X200690Y32544D01*
X200679Y32583D01*
X200662Y32624D01*
X200640Y32657D01*
X200637Y32660D01*
X200629Y32671D01*
X200615Y32685D01*
X200596Y32702D01*
X200571Y32718D01*
X200543Y32735D01*
X200513Y32749D01*
X200477Y32757D01*
X200471D01*
X200457Y32760D01*
X200432Y32763D01*
X200399Y32768D01*
X200377D01*
X200352Y32771D01*
X200324D01*
X200296Y32774D01*
X200263D01*
X200227Y32776D01*
X199083D01*
Y33164D01*
X200177D01*
X200210Y33162D01*
D02*
G37*
G36*
X200485Y31308D02*
X200504Y31306D01*
X200543Y31300D01*
X200593Y31289D01*
X200645Y31272D01*
X200698Y31247D01*
X200753Y31217D01*
X200756D01*
X200759Y31212D01*
X200776Y31200D01*
X200803Y31178D01*
X200834Y31151D01*
X200870Y31115D01*
X200903Y31067D01*
X200936Y31018D01*
X200967Y30957D01*
Y30954D01*
X200970Y30948D01*
X200972Y30940D01*
X200978Y30926D01*
X200983Y30910D01*
X200989Y30890D01*
X200994Y30868D01*
X201000Y30843D01*
X201008Y30813D01*
X201014Y30782D01*
X201025Y30710D01*
X201033Y30630D01*
X201036Y30541D01*
Y30538D01*
Y30525D01*
Y30505D01*
X201033Y30480D01*
X201030Y30450D01*
X201028Y30417D01*
X201022Y30378D01*
X201014Y30336D01*
X200994Y30245D01*
X200981Y30198D01*
X200967Y30153D01*
X200947Y30106D01*
X200925Y30062D01*
X200900Y30020D01*
X200870Y29982D01*
X200867Y29979D01*
X200862Y29973D01*
X200853Y29962D01*
X200839Y29951D01*
X200820Y29934D01*
X200798Y29918D01*
X200773Y29899D01*
X200745Y29879D01*
X200712Y29860D01*
X200676Y29840D01*
X200634Y29821D01*
X200590Y29802D01*
X200543Y29788D01*
X200490Y29771D01*
X200435Y29760D01*
X200377Y29752D01*
X200341Y30128D01*
X200343D01*
X200349Y30131D01*
X200360D01*
X200371Y30134D01*
X200404Y30145D01*
X200446Y30159D01*
X200493Y30176D01*
X200540Y30200D01*
X200582Y30228D01*
X200621Y30264D01*
X200623Y30270D01*
X200634Y30284D01*
X200648Y30306D01*
X200665Y30339D01*
X200681Y30380D01*
X200695Y30428D01*
X200706Y30483D01*
X200709Y30547D01*
Y30549D01*
Y30555D01*
Y30563D01*
Y30577D01*
X200704Y30610D01*
X200698Y30652D01*
X200690Y30696D01*
X200676Y30743D01*
X200657Y30788D01*
X200632Y30827D01*
X200629Y30832D01*
X200618Y30843D01*
X200601Y30857D01*
X200579Y30876D01*
X200551Y30893D01*
X200518Y30910D01*
X200485Y30921D01*
X200446Y30923D01*
X200435D01*
X200421Y30921D01*
X200404Y30918D01*
X200388Y30912D01*
X200368Y30907D01*
X200349Y30896D01*
X200330Y30882D01*
X200327Y30879D01*
X200321Y30874D01*
X200313Y30865D01*
X200302Y30851D01*
X200288Y30832D01*
X200274Y30807D01*
X200260Y30779D01*
X200247Y30743D01*
Y30741D01*
X200241Y30729D01*
X200236Y30710D01*
X200230Y30696D01*
X200227Y30680D01*
X200222Y30660D01*
X200213Y30638D01*
X200208Y30613D01*
X200200Y30586D01*
X200191Y30552D01*
X200183Y30516D01*
X200172Y30477D01*
X200161Y30433D01*
Y30430D01*
X200158Y30419D01*
X200152Y30403D01*
X200147Y30383D01*
X200138Y30358D01*
X200130Y30328D01*
X200119Y30297D01*
X200108Y30261D01*
X200080Y30189D01*
X200047Y30120D01*
X200030Y30084D01*
X200011Y30054D01*
X199992Y30023D01*
X199972Y29998D01*
X199970Y29996D01*
X199964Y29990D01*
X199956Y29982D01*
X199945Y29970D01*
X199928Y29957D01*
X199909Y29943D01*
X199889Y29926D01*
X199864Y29912D01*
X199806Y29879D01*
X199740Y29851D01*
X199704Y29840D01*
X199668Y29832D01*
X199626Y29827D01*
X199584Y29824D01*
X199560D01*
X199532Y29829D01*
X199496Y29835D01*
X199454Y29843D01*
X199407Y29857D01*
X199357Y29876D01*
X199310Y29904D01*
X199308D01*
X199305Y29907D01*
X199288Y29921D01*
X199266Y29937D01*
X199238Y29965D01*
X199208Y29998D01*
X199175Y30040D01*
X199144Y30087D01*
X199116Y30142D01*
Y30145D01*
X199114Y30151D01*
X199111Y30159D01*
X199105Y30170D01*
X199100Y30187D01*
X199094Y30203D01*
X199089Y30225D01*
X199080Y30250D01*
X199069Y30306D01*
X199058Y30369D01*
X199050Y30441D01*
X199047Y30522D01*
Y30527D01*
Y30538D01*
Y30555D01*
X199050Y30580D01*
X199053Y30610D01*
X199056Y30646D01*
X199061Y30682D01*
X199066Y30724D01*
X199086Y30813D01*
X199100Y30857D01*
X199114Y30901D01*
X199133Y30946D01*
X199155Y30987D01*
X199180Y31026D01*
X199208Y31062D01*
X199211Y31065D01*
X199216Y31070D01*
X199224Y31078D01*
X199235Y31090D01*
X199252Y31104D01*
X199272Y31120D01*
X199294Y31137D01*
X199319Y31156D01*
X199349Y31173D01*
X199380Y31189D01*
X199416Y31206D01*
X199454Y31220D01*
X199493Y31234D01*
X199537Y31245D01*
X199582Y31253D01*
X199632Y31256D01*
X199645Y30868D01*
X199640D01*
X199620Y30863D01*
X199596Y30857D01*
X199565Y30846D01*
X199529Y30832D01*
X199496Y30813D01*
X199463Y30788D01*
X199435Y30760D01*
X199432Y30757D01*
X199424Y30746D01*
X199413Y30727D01*
X199402Y30699D01*
X199391Y30666D01*
X199380Y30624D01*
X199371Y30574D01*
X199369Y30516D01*
Y30514D01*
Y30508D01*
Y30500D01*
Y30488D01*
X199371Y30458D01*
X199377Y30422D01*
X199385Y30380D01*
X199399Y30336D01*
X199416Y30295D01*
X199441Y30256D01*
X199443Y30253D01*
X199449Y30248D01*
X199457Y30237D01*
X199471Y30225D01*
X199488Y30214D01*
X199510Y30203D01*
X199532Y30198D01*
X199560Y30195D01*
X199571D01*
X199584Y30198D01*
X199598Y30203D01*
X199618Y30209D01*
X199637Y30217D01*
X199656Y30231D01*
X199676Y30250D01*
X199679Y30253D01*
X199687Y30267D01*
X199693Y30275D01*
X199698Y30289D01*
X199706Y30303D01*
X199715Y30322D01*
X199723Y30345D01*
X199734Y30369D01*
X199745Y30400D01*
X199756Y30430D01*
X199767Y30469D01*
X199778Y30511D01*
X199790Y30555D01*
X199803Y30605D01*
Y30608D01*
X199806Y30619D01*
X199809Y30633D01*
X199814Y30652D01*
X199820Y30674D01*
X199828Y30702D01*
X199837Y30732D01*
X199845Y30763D01*
X199867Y30829D01*
X199889Y30898D01*
X199914Y30965D01*
X199928Y30993D01*
X199942Y31020D01*
Y31023D01*
X199945Y31026D01*
X199956Y31043D01*
X199972Y31067D01*
X199995Y31098D01*
X200022Y31131D01*
X200055Y31167D01*
X200094Y31203D01*
X200138Y31234D01*
X200144Y31236D01*
X200161Y31245D01*
X200186Y31259D01*
X200222Y31272D01*
X200266Y31286D01*
X200319Y31300D01*
X200377Y31308D01*
X200443Y31311D01*
X200471D01*
X200485Y31308D01*
D02*
G37*
G36*
X201000Y34832D02*
X200585Y34555D01*
X200582Y34552D01*
X200573Y34549D01*
X200562Y34541D01*
X200549Y34530D01*
X200532Y34519D01*
X200510Y34505D01*
X200465Y34475D01*
X200415Y34438D01*
X200371Y34405D01*
X200330Y34375D01*
X200316Y34361D01*
X200302Y34350D01*
X200299Y34347D01*
X200294Y34342D01*
X200283Y34330D01*
X200269Y34317D01*
X200258Y34297D01*
X200244Y34278D01*
X200233Y34256D01*
X200222Y34234D01*
Y34231D01*
X200219Y34222D01*
X200213Y34209D01*
X200210Y34187D01*
X200205Y34159D01*
X200202Y34126D01*
X200200Y34087D01*
Y34040D01*
Y33962D01*
X201000D01*
Y33574D01*
X199083D01*
Y34389D01*
Y34391D01*
Y34402D01*
Y34419D01*
Y34438D01*
X199086Y34464D01*
Y34494D01*
X199089Y34524D01*
Y34560D01*
X199097Y34633D01*
X199105Y34707D01*
X199119Y34776D01*
X199127Y34807D01*
X199136Y34835D01*
Y34837D01*
X199139Y34840D01*
X199147Y34857D01*
X199161Y34882D01*
X199177Y34915D01*
X199205Y34951D01*
X199235Y34987D01*
X199274Y35023D01*
X199321Y35056D01*
X199324D01*
X199327Y35059D01*
X199335Y35065D01*
X199344Y35070D01*
X199371Y35084D01*
X199407Y35101D01*
X199452Y35114D01*
X199501Y35128D01*
X199560Y35139D01*
X199620Y35142D01*
X199643D01*
X199656Y35139D01*
X199676D01*
X199695Y35137D01*
X199745Y35125D01*
X199803Y35112D01*
X199862Y35089D01*
X199923Y35056D01*
X199950Y35037D01*
X199978Y35015D01*
X199981Y35012D01*
X199983Y35009D01*
X199992Y35001D01*
X200000Y34990D01*
X200011Y34979D01*
X200025Y34962D01*
X200039Y34943D01*
X200053Y34920D01*
X200069Y34896D01*
X200083Y34865D01*
X200097Y34835D01*
X200111Y34801D01*
X200125Y34763D01*
X200136Y34724D01*
X200147Y34682D01*
X200155Y34635D01*
Y34638D01*
X200158Y34641D01*
X200169Y34657D01*
X200183Y34679D01*
X200202Y34707D01*
X200227Y34740D01*
X200252Y34774D01*
X200283Y34810D01*
X200316Y34840D01*
X200319Y34843D01*
X200332Y34857D01*
X200355Y34873D01*
X200388Y34898D01*
X200429Y34932D01*
X200457Y34948D01*
X200485Y34968D01*
X200515Y34990D01*
X200549Y35012D01*
X200587Y35037D01*
X200626Y35062D01*
X201000Y35297D01*
Y34832D01*
D02*
G37*
G36*
X297989Y287500D02*
X297720D01*
Y287769D01*
X297989D01*
Y287500D01*
D02*
G37*
G36*
X201000Y35508D02*
X199083D01*
Y36929D01*
X199407D01*
Y35896D01*
X199831D01*
Y36857D01*
X200155D01*
Y35896D01*
X200676D01*
Y36965D01*
X201000D01*
Y35508D01*
D02*
G37*
G36*
Y29228D02*
X200565Y29062D01*
Y28292D01*
X201000Y28134D01*
Y27724D01*
X199083Y28466D01*
Y28876D01*
X201000Y29646D01*
Y29228D01*
D02*
G37*
G36*
Y20783D02*
X199097D01*
Y21170D01*
X200676D01*
Y22134D01*
X201000D01*
Y20783D01*
D02*
G37*
G36*
Y19145D02*
X199097D01*
Y19533D01*
X200676D01*
Y20497D01*
X201000D01*
Y19145D01*
D02*
G37*
G36*
X201529Y22190D02*
X201291D01*
Y23719D01*
X201529D01*
Y22190D01*
D02*
G37*
G36*
X201000Y26134D02*
X199083D01*
Y27555D01*
X199407D01*
Y26522D01*
X199831D01*
Y27483D01*
X200155D01*
Y26522D01*
X200676D01*
Y27591D01*
X201000D01*
Y26134D01*
D02*
G37*
G36*
Y25383D02*
X199493Y25381D01*
X201000Y25004D01*
Y24630D01*
X199493Y24253D01*
X201000D01*
Y23896D01*
X199083D01*
Y24475D01*
X200393Y24818D01*
X199083Y25159D01*
Y25741D01*
X201000D01*
Y25383D01*
D02*
G37*
G36*
X221100Y21060D02*
X219183D01*
Y21448D01*
X221100D01*
Y21060D01*
D02*
G37*
G36*
X171400Y25088D02*
X169483D01*
Y25476D01*
X171400D01*
Y25088D01*
D02*
G37*
G36*
X171148Y24736D02*
X171153Y24728D01*
X171162Y24720D01*
X171173Y24706D01*
X171184Y24692D01*
X171212Y24653D01*
X171242Y24601D01*
X171278Y24540D01*
X171314Y24471D01*
X171347Y24387D01*
Y24385D01*
X171350Y24376D01*
X171356Y24365D01*
X171361Y24349D01*
X171367Y24327D01*
X171375Y24302D01*
X171383Y24274D01*
X171392Y24243D01*
X171408Y24174D01*
X171422Y24094D01*
X171433Y24011D01*
X171436Y23922D01*
Y23919D01*
Y23908D01*
Y23892D01*
X171433Y23872D01*
Y23845D01*
X171431Y23814D01*
X171425Y23781D01*
X171419Y23742D01*
X171405Y23662D01*
X171383Y23573D01*
X171353Y23482D01*
X171334Y23440D01*
X171311Y23396D01*
X171309Y23393D01*
X171306Y23388D01*
X171298Y23374D01*
X171286Y23360D01*
X171275Y23340D01*
X171259Y23321D01*
X171239Y23296D01*
X171217Y23271D01*
X171167Y23216D01*
X171104Y23160D01*
X171032Y23108D01*
X170949Y23061D01*
X170946D01*
X170937Y23055D01*
X170924Y23050D01*
X170907Y23044D01*
X170885Y23036D01*
X170860Y23025D01*
X170829Y23016D01*
X170796Y23005D01*
X170760Y22994D01*
X170719Y22986D01*
X170633Y22966D01*
X170538Y22955D01*
X170436Y22950D01*
X170406D01*
X170386Y22953D01*
X170359D01*
X170328Y22955D01*
X170295Y22961D01*
X170256Y22966D01*
X170176Y22980D01*
X170084Y23002D01*
X169993Y23033D01*
X169948Y23052D01*
X169904Y23075D01*
X169901Y23077D01*
X169893Y23080D01*
X169882Y23088D01*
X169865Y23097D01*
X169846Y23110D01*
X169824Y23127D01*
X169799Y23146D01*
X169771Y23166D01*
X169744Y23191D01*
X169713Y23219D01*
X169683Y23249D01*
X169652Y23282D01*
X169624Y23318D01*
X169594Y23354D01*
X169544Y23440D01*
Y23443D01*
X169539Y23448D01*
X169536Y23460D01*
X169527Y23473D01*
X169522Y23493D01*
X169514Y23512D01*
X169505Y23540D01*
X169494Y23568D01*
X169486Y23598D01*
X169478Y23634D01*
X169469Y23673D01*
X169461Y23712D01*
X169450Y23800D01*
X169447Y23900D01*
Y23903D01*
Y23917D01*
Y23933D01*
X169450Y23958D01*
X169453Y23989D01*
X169456Y24025D01*
X169458Y24063D01*
X169466Y24105D01*
X169483Y24194D01*
X169511Y24285D01*
X169527Y24332D01*
X169547Y24376D01*
X169569Y24418D01*
X169597Y24457D01*
X169599Y24460D01*
X169602Y24465D01*
X169613Y24476D01*
X169624Y24490D01*
X169638Y24507D01*
X169658Y24523D01*
X169680Y24543D01*
X169705Y24565D01*
X169732Y24587D01*
X169763Y24609D01*
X169796Y24631D01*
X169835Y24651D01*
X169874Y24673D01*
X169915Y24689D01*
X169962Y24706D01*
X170010Y24717D01*
X170081Y24332D01*
X170079D01*
X170076Y24329D01*
X170059Y24324D01*
X170034Y24313D01*
X170001Y24296D01*
X169965Y24277D01*
X169929Y24249D01*
X169893Y24216D01*
X169860Y24177D01*
X169857Y24171D01*
X169846Y24158D01*
X169832Y24133D01*
X169818Y24102D01*
X169802Y24061D01*
X169791Y24013D01*
X169780Y23961D01*
X169777Y23900D01*
Y23897D01*
Y23889D01*
Y23875D01*
X169780Y23858D01*
X169782Y23836D01*
X169785Y23811D01*
X169791Y23784D01*
X169796Y23753D01*
X169816Y23689D01*
X169829Y23656D01*
X169846Y23623D01*
X169865Y23590D01*
X169885Y23557D01*
X169913Y23526D01*
X169940Y23495D01*
X169943Y23493D01*
X169948Y23490D01*
X169957Y23482D01*
X169971Y23473D01*
X169987Y23462D01*
X170007Y23448D01*
X170032Y23435D01*
X170059Y23424D01*
X170093Y23410D01*
X170129Y23396D01*
X170167Y23382D01*
X170209Y23371D01*
X170256Y23363D01*
X170309Y23354D01*
X170361Y23351D01*
X170419Y23349D01*
X170453D01*
X170475Y23351D01*
X170505Y23354D01*
X170536Y23357D01*
X170574Y23363D01*
X170613Y23368D01*
X170696Y23385D01*
X170782Y23412D01*
X170824Y23429D01*
X170863Y23448D01*
X170901Y23473D01*
X170935Y23498D01*
X170937Y23501D01*
X170943Y23507D01*
X170951Y23515D01*
X170962Y23526D01*
X170973Y23543D01*
X170990Y23559D01*
X171004Y23581D01*
X171020Y23606D01*
X171037Y23634D01*
X171051Y23662D01*
X171079Y23731D01*
X171090Y23770D01*
X171098Y23809D01*
X171104Y23853D01*
X171106Y23897D01*
Y23900D01*
Y23903D01*
Y23919D01*
X171104Y23942D01*
X171101Y23975D01*
X171095Y24011D01*
X171087Y24052D01*
X171076Y24097D01*
X171059Y24141D01*
Y24144D01*
X171056Y24147D01*
X171051Y24160D01*
X171040Y24185D01*
X171026Y24213D01*
X171009Y24246D01*
X170990Y24282D01*
X170968Y24318D01*
X170943Y24351D01*
X170696D01*
Y23908D01*
X170372D01*
Y24742D01*
X171142D01*
X171148Y24736D01*
D02*
G37*
G36*
X169807Y26667D02*
X171400D01*
Y26279D01*
X169807D01*
Y25712D01*
X169483D01*
Y27232D01*
X169807D01*
Y26667D01*
D02*
G37*
G36*
X171400Y29426D02*
X169497D01*
Y29814D01*
X171076D01*
Y30778D01*
X171400D01*
Y29426D01*
D02*
G37*
G36*
Y28792D02*
X170965Y28626D01*
Y27856D01*
X171400Y27698D01*
Y27288D01*
X169483Y28030D01*
Y28440D01*
X171400Y29210D01*
Y28792D01*
D02*
G37*
G36*
Y22260D02*
X169483D01*
Y22648D01*
X171400D01*
Y22260D01*
D02*
G37*
G36*
X170522Y16584D02*
X170544D01*
X170572Y16582D01*
X170602Y16579D01*
X170666Y16573D01*
X170732Y16562D01*
X170802Y16546D01*
X170868Y16526D01*
X170871D01*
X170877Y16523D01*
X170888Y16518D01*
X170904Y16512D01*
X170921Y16507D01*
X170940Y16496D01*
X170990Y16474D01*
X171043Y16446D01*
X171101Y16410D01*
X171156Y16368D01*
X171209Y16321D01*
X171214Y16316D01*
X171226Y16302D01*
X171242Y16280D01*
X171264Y16249D01*
X171289Y16210D01*
X171314Y16166D01*
X171339Y16111D01*
X171361Y16050D01*
Y16047D01*
X171364Y16044D01*
Y16036D01*
X171367Y16028D01*
X171372Y15997D01*
X171381Y15958D01*
X171389Y15911D01*
X171395Y15853D01*
X171397Y15784D01*
X171400Y15709D01*
Y14983D01*
X169483D01*
Y15687D01*
Y15690D01*
Y15698D01*
Y15709D01*
Y15726D01*
Y15748D01*
X169486Y15770D01*
X169489Y15823D01*
X169492Y15881D01*
X169500Y15942D01*
X169508Y16000D01*
X169522Y16052D01*
Y16055D01*
X169525Y16061D01*
X169527Y16069D01*
X169530Y16080D01*
X169544Y16114D01*
X169563Y16152D01*
X169588Y16197D01*
X169619Y16246D01*
X169655Y16294D01*
X169699Y16341D01*
Y16343D01*
X169705Y16346D01*
X169721Y16360D01*
X169749Y16382D01*
X169785Y16407D01*
X169829Y16438D01*
X169882Y16468D01*
X169943Y16499D01*
X170010Y16523D01*
X170012D01*
X170018Y16526D01*
X170029Y16529D01*
X170043Y16534D01*
X170059Y16537D01*
X170081Y16543D01*
X170106Y16548D01*
X170134Y16557D01*
X170165Y16562D01*
X170201Y16568D01*
X170237Y16573D01*
X170278Y16576D01*
X170364Y16584D01*
X170461Y16587D01*
X170500D01*
X170522Y16584D01*
D02*
G37*
G36*
X171400Y14105D02*
Y13687D01*
X169483Y13000D01*
Y13418D01*
X170901Y13906D01*
X169483Y14374D01*
Y14787D01*
X171400Y14105D01*
D02*
G37*
G36*
X170522Y18518D02*
X170544D01*
X170572Y18515D01*
X170602Y18512D01*
X170666Y18507D01*
X170732Y18496D01*
X170802Y18479D01*
X170868Y18460D01*
X170871D01*
X170877Y18457D01*
X170888Y18451D01*
X170904Y18446D01*
X170921Y18440D01*
X170940Y18429D01*
X170990Y18407D01*
X171043Y18379D01*
X171101Y18343D01*
X171156Y18302D01*
X171209Y18255D01*
X171214Y18249D01*
X171226Y18235D01*
X171242Y18213D01*
X171264Y18183D01*
X171289Y18144D01*
X171314Y18100D01*
X171339Y18044D01*
X171361Y17983D01*
Y17980D01*
X171364Y17978D01*
Y17969D01*
X171367Y17961D01*
X171372Y17931D01*
X171381Y17892D01*
X171389Y17845D01*
X171395Y17787D01*
X171397Y17717D01*
X171400Y17642D01*
Y16917D01*
X169483D01*
Y17620D01*
Y17623D01*
Y17631D01*
Y17642D01*
Y17659D01*
Y17681D01*
X169486Y17704D01*
X169489Y17756D01*
X169492Y17814D01*
X169500Y17875D01*
X169508Y17933D01*
X169522Y17986D01*
Y17989D01*
X169525Y17994D01*
X169527Y18003D01*
X169530Y18014D01*
X169544Y18047D01*
X169563Y18086D01*
X169588Y18130D01*
X169619Y18180D01*
X169655Y18227D01*
X169699Y18274D01*
Y18277D01*
X169705Y18280D01*
X169721Y18293D01*
X169749Y18316D01*
X169785Y18341D01*
X169829Y18371D01*
X169882Y18402D01*
X169943Y18432D01*
X170010Y18457D01*
X170012D01*
X170018Y18460D01*
X170029Y18462D01*
X170043Y18468D01*
X170059Y18471D01*
X170081Y18476D01*
X170106Y18482D01*
X170134Y18490D01*
X170165Y18496D01*
X170201Y18501D01*
X170237Y18507D01*
X170278Y18509D01*
X170364Y18518D01*
X170461Y18521D01*
X170500D01*
X170522Y18518D01*
D02*
G37*
G36*
Y21942D02*
X170544D01*
X170572Y21939D01*
X170602Y21936D01*
X170666Y21930D01*
X170732Y21919D01*
X170802Y21903D01*
X170868Y21883D01*
X170871D01*
X170877Y21881D01*
X170888Y21875D01*
X170904Y21869D01*
X170921Y21864D01*
X170940Y21853D01*
X170990Y21831D01*
X171043Y21803D01*
X171101Y21767D01*
X171156Y21725D01*
X171209Y21678D01*
X171214Y21673D01*
X171226Y21659D01*
X171242Y21637D01*
X171264Y21606D01*
X171289Y21568D01*
X171314Y21523D01*
X171339Y21468D01*
X171361Y21407D01*
Y21404D01*
X171364Y21401D01*
Y21393D01*
X171367Y21385D01*
X171372Y21354D01*
X171381Y21316D01*
X171389Y21269D01*
X171395Y21210D01*
X171397Y21141D01*
X171400Y21066D01*
Y20340D01*
X169483D01*
Y21044D01*
Y21047D01*
Y21055D01*
Y21066D01*
Y21083D01*
Y21105D01*
X169486Y21127D01*
X169489Y21180D01*
X169492Y21238D01*
X169500Y21299D01*
X169508Y21357D01*
X169522Y21410D01*
Y21413D01*
X169525Y21418D01*
X169527Y21426D01*
X169530Y21437D01*
X169544Y21471D01*
X169563Y21509D01*
X169588Y21554D01*
X169619Y21604D01*
X169655Y21651D01*
X169699Y21698D01*
Y21701D01*
X169705Y21703D01*
X169721Y21717D01*
X169749Y21739D01*
X169785Y21764D01*
X169829Y21795D01*
X169882Y21825D01*
X169943Y21856D01*
X170010Y21881D01*
X170012D01*
X170018Y21883D01*
X170029Y21886D01*
X170043Y21892D01*
X170059Y21894D01*
X170081Y21900D01*
X170106Y21905D01*
X170134Y21914D01*
X170165Y21919D01*
X170201Y21925D01*
X170237Y21930D01*
X170278Y21933D01*
X170364Y21942D01*
X170461Y21944D01*
X170500D01*
X170522Y21942D01*
D02*
G37*
G36*
X171929Y18629D02*
X171691D01*
Y20158D01*
X171929D01*
Y18629D01*
D02*
G37*
G36*
X220222Y15384D02*
X220244D01*
X220272Y15382D01*
X220302Y15379D01*
X220366Y15373D01*
X220432Y15362D01*
X220502Y15346D01*
X220568Y15326D01*
X220571D01*
X220577Y15323D01*
X220588Y15318D01*
X220604Y15312D01*
X220621Y15307D01*
X220640Y15296D01*
X220690Y15274D01*
X220743Y15246D01*
X220801Y15210D01*
X220856Y15168D01*
X220909Y15121D01*
X220914Y15116D01*
X220925Y15102D01*
X220942Y15080D01*
X220964Y15049D01*
X220989Y15010D01*
X221014Y14966D01*
X221039Y14911D01*
X221061Y14850D01*
Y14847D01*
X221064Y14844D01*
Y14836D01*
X221067Y14828D01*
X221072Y14797D01*
X221081Y14758D01*
X221089Y14711D01*
X221094Y14653D01*
X221097Y14584D01*
X221100Y14509D01*
Y13783D01*
X219183D01*
Y14487D01*
Y14490D01*
Y14498D01*
Y14509D01*
Y14526D01*
Y14548D01*
X219186Y14570D01*
X219189Y14623D01*
X219192Y14681D01*
X219200Y14742D01*
X219208Y14800D01*
X219222Y14852D01*
Y14855D01*
X219225Y14861D01*
X219228Y14869D01*
X219230Y14880D01*
X219244Y14913D01*
X219264Y14952D01*
X219288Y14997D01*
X219319Y15046D01*
X219355Y15093D01*
X219399Y15141D01*
Y15143D01*
X219405Y15146D01*
X219421Y15160D01*
X219449Y15182D01*
X219485Y15207D01*
X219529Y15238D01*
X219582Y15268D01*
X219643Y15299D01*
X219709Y15323D01*
X219712D01*
X219718Y15326D01*
X219729Y15329D01*
X219743Y15335D01*
X219759Y15337D01*
X219781Y15343D01*
X219806Y15348D01*
X219834Y15357D01*
X219865Y15362D01*
X219901Y15368D01*
X219937Y15373D01*
X219978Y15376D01*
X220064Y15384D01*
X220161Y15387D01*
X220200D01*
X220222Y15384D01*
D02*
G37*
G36*
X221100Y12905D02*
Y12487D01*
X219183Y11800D01*
Y12218D01*
X220601Y12706D01*
X219183Y13174D01*
Y13587D01*
X221100Y12905D01*
D02*
G37*
G36*
X220222Y17318D02*
X220244D01*
X220272Y17315D01*
X220302Y17312D01*
X220366Y17307D01*
X220432Y17296D01*
X220502Y17279D01*
X220568Y17260D01*
X220571D01*
X220577Y17257D01*
X220588Y17251D01*
X220604Y17246D01*
X220621Y17240D01*
X220640Y17229D01*
X220690Y17207D01*
X220743Y17179D01*
X220801Y17143D01*
X220856Y17102D01*
X220909Y17055D01*
X220914Y17049D01*
X220925Y17035D01*
X220942Y17013D01*
X220964Y16983D01*
X220989Y16944D01*
X221014Y16900D01*
X221039Y16844D01*
X221061Y16783D01*
Y16781D01*
X221064Y16778D01*
Y16769D01*
X221067Y16761D01*
X221072Y16731D01*
X221081Y16692D01*
X221089Y16645D01*
X221094Y16587D01*
X221097Y16517D01*
X221100Y16443D01*
Y15717D01*
X219183D01*
Y16420D01*
Y16423D01*
Y16431D01*
Y16443D01*
Y16459D01*
Y16481D01*
X219186Y16503D01*
X219189Y16556D01*
X219192Y16614D01*
X219200Y16675D01*
X219208Y16733D01*
X219222Y16786D01*
Y16789D01*
X219225Y16794D01*
X219228Y16803D01*
X219230Y16814D01*
X219244Y16847D01*
X219264Y16886D01*
X219288Y16930D01*
X219319Y16980D01*
X219355Y17027D01*
X219399Y17074D01*
Y17077D01*
X219405Y17080D01*
X219421Y17094D01*
X219449Y17116D01*
X219485Y17141D01*
X219529Y17171D01*
X219582Y17201D01*
X219643Y17232D01*
X219709Y17257D01*
X219712D01*
X219718Y17260D01*
X219729Y17262D01*
X219743Y17268D01*
X219759Y17271D01*
X219781Y17276D01*
X219806Y17282D01*
X219834Y17290D01*
X219865Y17296D01*
X219901Y17301D01*
X219937Y17307D01*
X219978Y17310D01*
X220064Y17318D01*
X220161Y17321D01*
X220200D01*
X220222Y17318D01*
D02*
G37*
G36*
Y20742D02*
X220244D01*
X220272Y20739D01*
X220302Y20736D01*
X220366Y20730D01*
X220432Y20719D01*
X220502Y20703D01*
X220568Y20683D01*
X220571D01*
X220577Y20681D01*
X220588Y20675D01*
X220604Y20670D01*
X220621Y20664D01*
X220640Y20653D01*
X220690Y20631D01*
X220743Y20603D01*
X220801Y20567D01*
X220856Y20526D01*
X220909Y20478D01*
X220914Y20473D01*
X220925Y20459D01*
X220942Y20437D01*
X220964Y20406D01*
X220989Y20368D01*
X221014Y20323D01*
X221039Y20268D01*
X221061Y20207D01*
Y20204D01*
X221064Y20201D01*
Y20193D01*
X221067Y20185D01*
X221072Y20154D01*
X221081Y20116D01*
X221089Y20068D01*
X221094Y20010D01*
X221097Y19941D01*
X221100Y19866D01*
Y19140D01*
X219183D01*
Y19844D01*
Y19847D01*
Y19855D01*
Y19866D01*
Y19883D01*
Y19905D01*
X219186Y19927D01*
X219189Y19980D01*
X219192Y20038D01*
X219200Y20099D01*
X219208Y20157D01*
X219222Y20210D01*
Y20212D01*
X219225Y20218D01*
X219228Y20226D01*
X219230Y20237D01*
X219244Y20271D01*
X219264Y20309D01*
X219288Y20354D01*
X219319Y20404D01*
X219355Y20451D01*
X219399Y20498D01*
Y20501D01*
X219405Y20503D01*
X219421Y20517D01*
X219449Y20539D01*
X219485Y20564D01*
X219529Y20595D01*
X219582Y20625D01*
X219643Y20656D01*
X219709Y20681D01*
X219712D01*
X219718Y20683D01*
X219729Y20686D01*
X219743Y20692D01*
X219759Y20695D01*
X219781Y20700D01*
X219806Y20706D01*
X219834Y20714D01*
X219865Y20719D01*
X219901Y20725D01*
X219937Y20730D01*
X219978Y20733D01*
X220064Y20742D01*
X220161Y20744D01*
X220200D01*
X220222Y20742D01*
D02*
G37*
G36*
X221629Y17429D02*
X221391D01*
Y18958D01*
X221629D01*
Y17429D01*
D02*
G37*
G36*
X171400Y40512D02*
X170752Y40088D01*
X171400Y39661D01*
Y39196D01*
X170403Y39858D01*
X169483Y39257D01*
Y39708D01*
X170056Y40088D01*
X169483Y40467D01*
Y40919D01*
X170403Y40318D01*
X171400Y40977D01*
Y40512D01*
D02*
G37*
G36*
X169807Y33365D02*
X171400D01*
Y32977D01*
X169807D01*
Y32409D01*
X169483D01*
Y33930D01*
X169807D01*
Y33365D01*
D02*
G37*
G36*
X171929Y30833D02*
X171691D01*
Y32362D01*
X171929D01*
Y30833D01*
D02*
G37*
G36*
X171400Y35301D02*
X170752Y34877D01*
X171400Y34451D01*
Y33985D01*
X170403Y34648D01*
X169483Y34047D01*
Y34498D01*
X170056Y34877D01*
X169483Y35257D01*
Y35708D01*
X170403Y35107D01*
X171400Y35767D01*
Y35301D01*
D02*
G37*
G36*
Y38717D02*
X170984Y38440D01*
X170982Y38437D01*
X170973Y38434D01*
X170962Y38426D01*
X170949Y38415D01*
X170932Y38404D01*
X170910Y38390D01*
X170865Y38359D01*
X170816Y38323D01*
X170771Y38290D01*
X170730Y38260D01*
X170716Y38246D01*
X170702Y38235D01*
X170699Y38232D01*
X170694Y38226D01*
X170683Y38215D01*
X170669Y38201D01*
X170658Y38182D01*
X170644Y38163D01*
X170633Y38140D01*
X170622Y38118D01*
Y38116D01*
X170619Y38107D01*
X170613Y38093D01*
X170610Y38071D01*
X170605Y38044D01*
X170602Y38010D01*
X170599Y37972D01*
Y37925D01*
Y37847D01*
X171400D01*
Y37459D01*
X169483D01*
Y38274D01*
Y38276D01*
Y38287D01*
Y38304D01*
Y38323D01*
X169486Y38348D01*
Y38379D01*
X169489Y38409D01*
Y38445D01*
X169497Y38517D01*
X169505Y38592D01*
X169519Y38661D01*
X169527Y38692D01*
X169536Y38719D01*
Y38722D01*
X169539Y38725D01*
X169547Y38742D01*
X169561Y38767D01*
X169577Y38800D01*
X169605Y38836D01*
X169635Y38872D01*
X169674Y38908D01*
X169721Y38941D01*
X169724D01*
X169727Y38944D01*
X169735Y38949D01*
X169744Y38955D01*
X169771Y38969D01*
X169807Y38985D01*
X169852Y38999D01*
X169901Y39013D01*
X169960Y39024D01*
X170020Y39027D01*
X170043D01*
X170056Y39024D01*
X170076D01*
X170095Y39021D01*
X170145Y39010D01*
X170203Y38996D01*
X170262Y38974D01*
X170323Y38941D01*
X170350Y38922D01*
X170378Y38899D01*
X170381Y38897D01*
X170383Y38894D01*
X170392Y38886D01*
X170400Y38875D01*
X170411Y38864D01*
X170425Y38847D01*
X170439Y38827D01*
X170453Y38805D01*
X170469Y38780D01*
X170483Y38750D01*
X170497Y38719D01*
X170511Y38686D01*
X170525Y38647D01*
X170536Y38609D01*
X170547Y38567D01*
X170555Y38520D01*
Y38523D01*
X170558Y38526D01*
X170569Y38542D01*
X170583Y38564D01*
X170602Y38592D01*
X170627Y38625D01*
X170652Y38658D01*
X170683Y38695D01*
X170716Y38725D01*
X170719Y38728D01*
X170732Y38742D01*
X170755Y38758D01*
X170788Y38783D01*
X170829Y38816D01*
X170857Y38833D01*
X170885Y38852D01*
X170915Y38875D01*
X170949Y38897D01*
X170987Y38922D01*
X171026Y38947D01*
X171400Y39182D01*
Y38717D01*
D02*
G37*
G36*
X171929Y35747D02*
X171691D01*
Y37276D01*
X171929D01*
Y35747D01*
D02*
G37*
G36*
X223800Y124405D02*
Y123987D01*
X221883Y123300D01*
Y123718D01*
X223301Y124206D01*
X221883Y124674D01*
Y125087D01*
X223800Y124405D01*
D02*
G37*
G36*
X174048Y153094D02*
X174054Y153086D01*
X174062Y153078D01*
X174073Y153064D01*
X174084Y153050D01*
X174112Y153011D01*
X174142Y152959D01*
X174178Y152898D01*
X174214Y152828D01*
X174247Y152745D01*
Y152743D01*
X174250Y152734D01*
X174256Y152723D01*
X174261Y152707D01*
X174267Y152684D01*
X174275Y152659D01*
X174283Y152632D01*
X174292Y152601D01*
X174308Y152532D01*
X174322Y152452D01*
X174333Y152369D01*
X174336Y152280D01*
Y152277D01*
Y152266D01*
Y152250D01*
X174333Y152230D01*
Y152202D01*
X174330Y152172D01*
X174325Y152139D01*
X174319Y152100D01*
X174305Y152020D01*
X174283Y151931D01*
X174253Y151839D01*
X174233Y151798D01*
X174211Y151754D01*
X174209Y151751D01*
X174206Y151745D01*
X174197Y151732D01*
X174186Y151718D01*
X174175Y151698D01*
X174159Y151679D01*
X174139Y151654D01*
X174117Y151629D01*
X174067Y151574D01*
X174004Y151518D01*
X173932Y151465D01*
X173848Y151418D01*
X173846D01*
X173837Y151413D01*
X173824Y151407D01*
X173807Y151402D01*
X173785Y151393D01*
X173760Y151382D01*
X173729Y151374D01*
X173696Y151363D01*
X173660Y151352D01*
X173619Y151344D01*
X173533Y151324D01*
X173439Y151313D01*
X173336Y151308D01*
X173306D01*
X173286Y151310D01*
X173258D01*
X173228Y151313D01*
X173195Y151319D01*
X173156Y151324D01*
X173076Y151338D01*
X172984Y151360D01*
X172893Y151391D01*
X172848Y151410D01*
X172804Y151432D01*
X172801Y151435D01*
X172793Y151438D01*
X172782Y151446D01*
X172765Y151454D01*
X172746Y151468D01*
X172724Y151485D01*
X172699Y151504D01*
X172671Y151524D01*
X172643Y151549D01*
X172613Y151576D01*
X172583Y151607D01*
X172552Y151640D01*
X172524Y151676D01*
X172494Y151712D01*
X172444Y151798D01*
Y151801D01*
X172439Y151806D01*
X172436Y151817D01*
X172427Y151831D01*
X172422Y151851D01*
X172414Y151870D01*
X172405Y151898D01*
X172394Y151925D01*
X172386Y151956D01*
X172378Y151992D01*
X172369Y152031D01*
X172361Y152069D01*
X172350Y152158D01*
X172347Y152258D01*
Y152260D01*
Y152274D01*
Y152291D01*
X172350Y152316D01*
X172353Y152346D01*
X172355Y152382D01*
X172358Y152421D01*
X172366Y152463D01*
X172383Y152551D01*
X172411Y152643D01*
X172427Y152690D01*
X172447Y152734D01*
X172469Y152776D01*
X172497Y152814D01*
X172500Y152817D01*
X172502Y152823D01*
X172513Y152834D01*
X172524Y152848D01*
X172538Y152864D01*
X172558Y152881D01*
X172580Y152900D01*
X172605Y152923D01*
X172633Y152945D01*
X172663Y152967D01*
X172696Y152989D01*
X172735Y153008D01*
X172774Y153031D01*
X172815Y153047D01*
X172862Y153064D01*
X172909Y153075D01*
X172982Y152690D01*
X172979D01*
X172976Y152687D01*
X172959Y152682D01*
X172934Y152671D01*
X172901Y152654D01*
X172865Y152635D01*
X172829Y152607D01*
X172793Y152574D01*
X172760Y152535D01*
X172757Y152529D01*
X172746Y152515D01*
X172732Y152490D01*
X172718Y152460D01*
X172702Y152418D01*
X172691Y152371D01*
X172679Y152319D01*
X172677Y152258D01*
Y152255D01*
Y152247D01*
Y152233D01*
X172679Y152216D01*
X172682Y152194D01*
X172685Y152169D01*
X172691Y152141D01*
X172696Y152111D01*
X172716Y152047D01*
X172729Y152014D01*
X172746Y151981D01*
X172765Y151947D01*
X172785Y151914D01*
X172812Y151884D01*
X172840Y151853D01*
X172843Y151851D01*
X172848Y151848D01*
X172857Y151839D01*
X172871Y151831D01*
X172887Y151820D01*
X172907Y151806D01*
X172932Y151792D01*
X172959Y151781D01*
X172993Y151768D01*
X173029Y151754D01*
X173067Y151740D01*
X173109Y151729D01*
X173156Y151720D01*
X173209Y151712D01*
X173261Y151709D01*
X173319Y151707D01*
X173353D01*
X173375Y151709D01*
X173405Y151712D01*
X173436Y151715D01*
X173475Y151720D01*
X173513Y151726D01*
X173596Y151742D01*
X173682Y151770D01*
X173724Y151787D01*
X173763Y151806D01*
X173801Y151831D01*
X173835Y151856D01*
X173837Y151859D01*
X173843Y151864D01*
X173851Y151873D01*
X173862Y151884D01*
X173873Y151900D01*
X173890Y151917D01*
X173904Y151939D01*
X173921Y151964D01*
X173937Y151992D01*
X173951Y152020D01*
X173979Y152089D01*
X173990Y152128D01*
X173998Y152166D01*
X174004Y152211D01*
X174006Y152255D01*
Y152258D01*
Y152260D01*
Y152277D01*
X174004Y152299D01*
X174001Y152332D01*
X173995Y152369D01*
X173987Y152410D01*
X173976Y152454D01*
X173959Y152499D01*
Y152501D01*
X173957Y152504D01*
X173951Y152518D01*
X173940Y152543D01*
X173926Y152571D01*
X173909Y152604D01*
X173890Y152640D01*
X173868Y152676D01*
X173843Y152709D01*
X173596D01*
Y152266D01*
X173272D01*
Y153100D01*
X174042D01*
X174048Y153094D01*
D02*
G37*
G36*
X222922Y126884D02*
X222944D01*
X222972Y126882D01*
X223002Y126879D01*
X223066Y126873D01*
X223132Y126862D01*
X223202Y126846D01*
X223268Y126826D01*
X223271D01*
X223276Y126823D01*
X223288Y126818D01*
X223304Y126812D01*
X223321Y126807D01*
X223340Y126796D01*
X223390Y126774D01*
X223443Y126746D01*
X223501Y126710D01*
X223556Y126668D01*
X223609Y126621D01*
X223614Y126616D01*
X223625Y126602D01*
X223642Y126580D01*
X223664Y126549D01*
X223689Y126510D01*
X223714Y126466D01*
X223739Y126411D01*
X223761Y126350D01*
Y126347D01*
X223764Y126344D01*
Y126336D01*
X223767Y126328D01*
X223772Y126297D01*
X223781Y126258D01*
X223789Y126211D01*
X223795Y126153D01*
X223797Y126084D01*
X223800Y126009D01*
Y125283D01*
X221883D01*
Y125987D01*
Y125990D01*
Y125998D01*
Y126009D01*
Y126026D01*
Y126048D01*
X221886Y126070D01*
X221889Y126123D01*
X221891Y126181D01*
X221900Y126242D01*
X221908Y126300D01*
X221922Y126353D01*
Y126355D01*
X221925Y126361D01*
X221927Y126369D01*
X221930Y126380D01*
X221944Y126414D01*
X221964Y126452D01*
X221988Y126497D01*
X222019Y126546D01*
X222055Y126593D01*
X222099Y126641D01*
Y126643D01*
X222105Y126646D01*
X222121Y126660D01*
X222149Y126682D01*
X222185Y126707D01*
X222229Y126738D01*
X222282Y126768D01*
X222343Y126798D01*
X222410Y126823D01*
X222412D01*
X222418Y126826D01*
X222429Y126829D01*
X222443Y126834D01*
X222459Y126837D01*
X222481Y126843D01*
X222506Y126848D01*
X222534Y126857D01*
X222565Y126862D01*
X222601Y126868D01*
X222637Y126873D01*
X222678Y126876D01*
X222764Y126884D01*
X222861Y126887D01*
X222900D01*
X222922Y126884D01*
D02*
G37*
G36*
X224329Y128929D02*
X224091D01*
Y130458D01*
X224329D01*
Y128929D01*
D02*
G37*
G36*
X222922Y128818D02*
X222944D01*
X222972Y128815D01*
X223002Y128812D01*
X223066Y128807D01*
X223132Y128796D01*
X223202Y128779D01*
X223268Y128760D01*
X223271D01*
X223276Y128757D01*
X223288Y128751D01*
X223304Y128746D01*
X223321Y128740D01*
X223340Y128729D01*
X223390Y128707D01*
X223443Y128679D01*
X223501Y128643D01*
X223556Y128602D01*
X223609Y128555D01*
X223614Y128549D01*
X223625Y128535D01*
X223642Y128513D01*
X223664Y128483D01*
X223689Y128444D01*
X223714Y128400D01*
X223739Y128344D01*
X223761Y128283D01*
Y128280D01*
X223764Y128278D01*
Y128269D01*
X223767Y128261D01*
X223772Y128231D01*
X223781Y128192D01*
X223789Y128145D01*
X223795Y128087D01*
X223797Y128017D01*
X223800Y127943D01*
Y127217D01*
X221883D01*
Y127920D01*
Y127923D01*
Y127931D01*
Y127943D01*
Y127959D01*
Y127981D01*
X221886Y128004D01*
X221889Y128056D01*
X221891Y128114D01*
X221900Y128175D01*
X221908Y128233D01*
X221922Y128286D01*
Y128289D01*
X221925Y128294D01*
X221927Y128303D01*
X221930Y128314D01*
X221944Y128347D01*
X221964Y128386D01*
X221988Y128430D01*
X222019Y128480D01*
X222055Y128527D01*
X222099Y128574D01*
Y128577D01*
X222105Y128580D01*
X222121Y128594D01*
X222149Y128616D01*
X222185Y128641D01*
X222229Y128671D01*
X222282Y128701D01*
X222343Y128732D01*
X222410Y128757D01*
X222412D01*
X222418Y128760D01*
X222429Y128762D01*
X222443Y128768D01*
X222459Y128771D01*
X222481Y128776D01*
X222506Y128782D01*
X222534Y128790D01*
X222565Y128796D01*
X222601Y128801D01*
X222637Y128807D01*
X222678Y128809D01*
X222764Y128818D01*
X222861Y128821D01*
X222900D01*
X222922Y128818D01*
D02*
G37*
G36*
X174300Y144926D02*
X173037Y144147D01*
X174300D01*
Y143790D01*
X172383D01*
Y144164D01*
X173674Y144956D01*
X172383D01*
Y145313D01*
X174300D01*
Y144926D01*
D02*
G37*
G36*
Y143164D02*
X173865Y142998D01*
Y142228D01*
X174300Y142070D01*
Y141660D01*
X172383Y142402D01*
Y142812D01*
X174300Y143582D01*
Y143164D01*
D02*
G37*
G36*
Y147031D02*
X173865Y146865D01*
Y146095D01*
X174300Y145937D01*
Y145527D01*
X172383Y146269D01*
Y146679D01*
X174300Y147449D01*
Y147031D01*
D02*
G37*
G36*
X173389Y151069D02*
X173422D01*
X173461Y151064D01*
X173505Y151058D01*
X173558Y151050D01*
X173610Y151042D01*
X173668Y151028D01*
X173729Y151011D01*
X173790Y150989D01*
X173851Y150964D01*
X173909Y150936D01*
X173968Y150900D01*
X174023Y150862D01*
X174076Y150817D01*
X174078Y150815D01*
X174087Y150806D01*
X174101Y150792D01*
X174117Y150770D01*
X174137Y150745D01*
X174159Y150715D01*
X174181Y150679D01*
X174206Y150640D01*
X174231Y150593D01*
X174253Y150543D01*
X174275Y150488D01*
X174294Y150427D01*
X174311Y150363D01*
X174325Y150294D01*
X174333Y150222D01*
X174336Y150144D01*
Y150139D01*
Y150125D01*
X174333Y150103D01*
X174330Y150075D01*
X174328Y150039D01*
X174322Y149997D01*
X174314Y149950D01*
X174303Y149900D01*
X174289Y149845D01*
X174272Y149793D01*
X174250Y149734D01*
X174225Y149679D01*
X174197Y149621D01*
X174162Y149568D01*
X174123Y149515D01*
X174076Y149466D01*
X174073Y149463D01*
X174065Y149454D01*
X174048Y149443D01*
X174029Y149427D01*
X174001Y149407D01*
X173968Y149385D01*
X173932Y149363D01*
X173887Y149341D01*
X173840Y149316D01*
X173785Y149294D01*
X173727Y149272D01*
X173663Y149252D01*
X173594Y149236D01*
X173519Y149225D01*
X173439Y149216D01*
X173355Y149214D01*
X173328D01*
X173306Y149216D01*
X173281D01*
X173253Y149219D01*
X173220Y149222D01*
X173184Y149225D01*
X173106Y149236D01*
X173023Y149249D01*
X172940Y149272D01*
X172862Y149299D01*
X172860D01*
X172857Y149302D01*
X172848Y149308D01*
X172837Y149311D01*
X172810Y149327D01*
X172774Y149346D01*
X172732Y149371D01*
X172691Y149402D01*
X172643Y149438D01*
X172599Y149477D01*
X172597Y149479D01*
X172594Y149482D01*
X172580Y149496D01*
X172558Y149521D01*
X172533Y149551D01*
X172505Y149588D01*
X172475Y149629D01*
X172447Y149676D01*
X172425Y149726D01*
Y149729D01*
X172422Y149734D01*
X172416Y149745D01*
X172414Y149759D01*
X172405Y149776D01*
X172400Y149795D01*
X172394Y149820D01*
X172386Y149845D01*
X172372Y149906D01*
X172358Y149975D01*
X172350Y150056D01*
X172347Y150139D01*
Y150144D01*
Y150158D01*
X172350Y150180D01*
Y150208D01*
X172355Y150244D01*
X172361Y150285D01*
X172369Y150333D01*
X172380Y150382D01*
X172394Y150435D01*
X172411Y150490D01*
X172433Y150546D01*
X172458Y150604D01*
X172488Y150660D01*
X172524Y150715D01*
X172566Y150768D01*
X172613Y150817D01*
X172616Y150820D01*
X172624Y150828D01*
X172641Y150842D01*
X172660Y150856D01*
X172688Y150875D01*
X172721Y150898D01*
X172760Y150920D01*
X172804Y150945D01*
X172851Y150970D01*
X172907Y150992D01*
X172968Y151014D01*
X173031Y151033D01*
X173103Y151050D01*
X173178Y151061D01*
X173258Y151069D01*
X173344Y151072D01*
X173364D01*
X173389Y151069D01*
D02*
G37*
G36*
X174300Y147665D02*
X172397D01*
Y148053D01*
X173976D01*
Y149017D01*
X174300D01*
Y147665D01*
D02*
G37*
G36*
X223800Y141031D02*
X223365Y140865D01*
Y140094D01*
X223800Y139937D01*
Y139527D01*
X221883Y140269D01*
Y140679D01*
X223800Y141449D01*
Y141031D01*
D02*
G37*
G36*
Y138926D02*
X222537Y138147D01*
X223800D01*
Y137790D01*
X221883D01*
Y138164D01*
X223174Y138956D01*
X221883D01*
Y139313D01*
X223800D01*
Y138926D01*
D02*
G37*
G36*
Y141665D02*
X221897D01*
Y142053D01*
X223476D01*
Y143017D01*
X223800D01*
Y141665D01*
D02*
G37*
G36*
X223548Y147094D02*
X223553Y147086D01*
X223562Y147078D01*
X223573Y147064D01*
X223584Y147050D01*
X223612Y147011D01*
X223642Y146959D01*
X223678Y146898D01*
X223714Y146828D01*
X223747Y146745D01*
Y146742D01*
X223750Y146734D01*
X223756Y146723D01*
X223761Y146706D01*
X223767Y146684D01*
X223775Y146659D01*
X223783Y146632D01*
X223792Y146601D01*
X223808Y146532D01*
X223822Y146452D01*
X223833Y146369D01*
X223836Y146280D01*
Y146277D01*
Y146266D01*
Y146249D01*
X223833Y146230D01*
Y146202D01*
X223831Y146172D01*
X223825Y146139D01*
X223819Y146100D01*
X223805Y146019D01*
X223783Y145931D01*
X223753Y145840D01*
X223733Y145798D01*
X223711Y145754D01*
X223709Y145751D01*
X223706Y145745D01*
X223697Y145731D01*
X223686Y145718D01*
X223675Y145698D01*
X223659Y145679D01*
X223639Y145654D01*
X223617Y145629D01*
X223567Y145574D01*
X223504Y145518D01*
X223432Y145466D01*
X223348Y145419D01*
X223346D01*
X223337Y145413D01*
X223324Y145407D01*
X223307Y145402D01*
X223285Y145394D01*
X223260Y145382D01*
X223229Y145374D01*
X223196Y145363D01*
X223160Y145352D01*
X223119Y145344D01*
X223033Y145324D01*
X222938Y145313D01*
X222836Y145308D01*
X222806D01*
X222786Y145310D01*
X222759D01*
X222728Y145313D01*
X222695Y145319D01*
X222656Y145324D01*
X222576Y145338D01*
X222484Y145360D01*
X222393Y145391D01*
X222348Y145410D01*
X222304Y145432D01*
X222301Y145435D01*
X222293Y145438D01*
X222282Y145446D01*
X222265Y145455D01*
X222246Y145468D01*
X222224Y145485D01*
X222199Y145504D01*
X222171Y145524D01*
X222144Y145549D01*
X222113Y145576D01*
X222083Y145607D01*
X222052Y145640D01*
X222024Y145676D01*
X221994Y145712D01*
X221944Y145798D01*
Y145801D01*
X221939Y145806D01*
X221936Y145817D01*
X221927Y145831D01*
X221922Y145851D01*
X221914Y145870D01*
X221905Y145898D01*
X221894Y145925D01*
X221886Y145956D01*
X221878Y145992D01*
X221869Y146031D01*
X221861Y146069D01*
X221850Y146158D01*
X221847Y146258D01*
Y146260D01*
Y146274D01*
Y146291D01*
X221850Y146316D01*
X221853Y146346D01*
X221855Y146382D01*
X221858Y146421D01*
X221866Y146463D01*
X221883Y146551D01*
X221911Y146643D01*
X221927Y146690D01*
X221947Y146734D01*
X221969Y146776D01*
X221997Y146815D01*
X222000Y146817D01*
X222002Y146823D01*
X222013Y146834D01*
X222024Y146848D01*
X222038Y146864D01*
X222058Y146881D01*
X222080Y146900D01*
X222105Y146923D01*
X222132Y146945D01*
X222163Y146967D01*
X222196Y146989D01*
X222235Y147008D01*
X222274Y147031D01*
X222315Y147047D01*
X222362Y147064D01*
X222410Y147075D01*
X222481Y146690D01*
X222479D01*
X222476Y146687D01*
X222459Y146682D01*
X222434Y146670D01*
X222401Y146654D01*
X222365Y146634D01*
X222329Y146607D01*
X222293Y146573D01*
X222260Y146535D01*
X222257Y146529D01*
X222246Y146515D01*
X222232Y146490D01*
X222218Y146460D01*
X222202Y146418D01*
X222191Y146371D01*
X222180Y146319D01*
X222177Y146258D01*
Y146255D01*
Y146247D01*
Y146233D01*
X222180Y146216D01*
X222182Y146194D01*
X222185Y146169D01*
X222191Y146141D01*
X222196Y146111D01*
X222216Y146047D01*
X222229Y146014D01*
X222246Y145981D01*
X222265Y145948D01*
X222285Y145914D01*
X222312Y145884D01*
X222340Y145853D01*
X222343Y145851D01*
X222348Y145848D01*
X222357Y145840D01*
X222371Y145831D01*
X222387Y145820D01*
X222407Y145806D01*
X222432Y145792D01*
X222459Y145781D01*
X222493Y145767D01*
X222529Y145754D01*
X222567Y145740D01*
X222609Y145729D01*
X222656Y145720D01*
X222709Y145712D01*
X222761Y145709D01*
X222819Y145706D01*
X222853D01*
X222875Y145709D01*
X222905Y145712D01*
X222936Y145715D01*
X222974Y145720D01*
X223013Y145726D01*
X223096Y145742D01*
X223182Y145770D01*
X223224Y145787D01*
X223263Y145806D01*
X223301Y145831D01*
X223335Y145856D01*
X223337Y145859D01*
X223343Y145864D01*
X223351Y145873D01*
X223362Y145884D01*
X223373Y145900D01*
X223390Y145917D01*
X223404Y145939D01*
X223421Y145964D01*
X223437Y145992D01*
X223451Y146019D01*
X223479Y146089D01*
X223490Y146128D01*
X223498Y146166D01*
X223504Y146211D01*
X223506Y146255D01*
Y146258D01*
Y146260D01*
Y146277D01*
X223504Y146299D01*
X223501Y146333D01*
X223495Y146369D01*
X223487Y146410D01*
X223476Y146454D01*
X223459Y146499D01*
Y146502D01*
X223457Y146504D01*
X223451Y146518D01*
X223440Y146543D01*
X223426Y146571D01*
X223409Y146604D01*
X223390Y146640D01*
X223368Y146676D01*
X223343Y146709D01*
X223096D01*
Y146266D01*
X222772D01*
Y147100D01*
X223542D01*
X223548Y147094D01*
D02*
G37*
G36*
X222889Y145069D02*
X222922D01*
X222961Y145064D01*
X223005Y145058D01*
X223058Y145050D01*
X223110Y145042D01*
X223168Y145028D01*
X223229Y145011D01*
X223290Y144989D01*
X223351Y144964D01*
X223409Y144937D01*
X223468Y144901D01*
X223523Y144862D01*
X223576Y144817D01*
X223578Y144815D01*
X223587Y144806D01*
X223601Y144792D01*
X223617Y144770D01*
X223637Y144745D01*
X223659Y144715D01*
X223681Y144679D01*
X223706Y144640D01*
X223731Y144593D01*
X223753Y144543D01*
X223775Y144488D01*
X223795Y144427D01*
X223811Y144363D01*
X223825Y144294D01*
X223833Y144222D01*
X223836Y144144D01*
Y144139D01*
Y144125D01*
X223833Y144103D01*
X223831Y144075D01*
X223828Y144039D01*
X223822Y143997D01*
X223814Y143950D01*
X223803Y143901D01*
X223789Y143845D01*
X223772Y143792D01*
X223750Y143734D01*
X223725Y143679D01*
X223697Y143621D01*
X223661Y143568D01*
X223623Y143516D01*
X223576Y143466D01*
X223573Y143463D01*
X223565Y143455D01*
X223548Y143443D01*
X223529Y143427D01*
X223501Y143407D01*
X223468Y143385D01*
X223432Y143363D01*
X223387Y143341D01*
X223340Y143316D01*
X223285Y143294D01*
X223227Y143272D01*
X223163Y143252D01*
X223094Y143236D01*
X223019Y143225D01*
X222938Y143216D01*
X222855Y143213D01*
X222828D01*
X222806Y143216D01*
X222781D01*
X222753Y143219D01*
X222720Y143222D01*
X222684Y143225D01*
X222606Y143236D01*
X222523Y143249D01*
X222440Y143272D01*
X222362Y143299D01*
X222360D01*
X222357Y143302D01*
X222348Y143308D01*
X222337Y143310D01*
X222310Y143327D01*
X222274Y143347D01*
X222232Y143371D01*
X222191Y143402D01*
X222144Y143438D01*
X222099Y143477D01*
X222096Y143479D01*
X222094Y143482D01*
X222080Y143496D01*
X222058Y143521D01*
X222033Y143552D01*
X222005Y143588D01*
X221975Y143629D01*
X221947Y143676D01*
X221925Y143726D01*
Y143729D01*
X221922Y143734D01*
X221916Y143745D01*
X221914Y143759D01*
X221905Y143776D01*
X221900Y143795D01*
X221894Y143820D01*
X221886Y143845D01*
X221872Y143906D01*
X221858Y143975D01*
X221850Y144056D01*
X221847Y144139D01*
Y144144D01*
Y144158D01*
X221850Y144180D01*
Y144208D01*
X221855Y144244D01*
X221861Y144286D01*
X221869Y144333D01*
X221880Y144383D01*
X221894Y144435D01*
X221911Y144491D01*
X221933Y144546D01*
X221958Y144604D01*
X221988Y144659D01*
X222024Y144715D01*
X222066Y144767D01*
X222113Y144817D01*
X222116Y144820D01*
X222124Y144828D01*
X222141Y144842D01*
X222160Y144856D01*
X222188Y144876D01*
X222221Y144898D01*
X222260Y144920D01*
X222304Y144945D01*
X222351Y144970D01*
X222407Y144992D01*
X222468Y145014D01*
X222531Y145033D01*
X222603Y145050D01*
X222678Y145061D01*
X222759Y145069D01*
X222844Y145072D01*
X222864D01*
X222889Y145069D01*
D02*
G37*
G36*
X223800Y132125D02*
X223432D01*
Y132494D01*
X223800D01*
Y132125D01*
D02*
G37*
G36*
Y131128D02*
X222412D01*
X222415Y131125D01*
X222421Y131120D01*
X222429Y131109D01*
X222443Y131092D01*
X222459Y131073D01*
X222476Y131051D01*
X222495Y131023D01*
X222517Y130992D01*
X222540Y130959D01*
X222562Y130923D01*
X222587Y130884D01*
X222609Y130843D01*
X222651Y130754D01*
X222689Y130654D01*
X222357D01*
Y130657D01*
X222354Y130660D01*
X222351Y130668D01*
X222348Y130679D01*
X222335Y130707D01*
X222318Y130746D01*
X222296Y130793D01*
X222265Y130845D01*
X222227Y130904D01*
X222182Y130965D01*
X222180Y130967D01*
X222177Y130973D01*
X222168Y130981D01*
X222157Y130992D01*
X222130Y131023D01*
X222094Y131056D01*
X222049Y131095D01*
X221994Y131134D01*
X221936Y131170D01*
X221872Y131197D01*
Y131496D01*
X223800D01*
Y131128D01*
D02*
G37*
G36*
Y132746D02*
X223792D01*
X223781Y132748D01*
X223767Y132751D01*
X223750Y132754D01*
X223731Y132757D01*
X223681Y132768D01*
X223625Y132784D01*
X223565Y132807D01*
X223498Y132834D01*
X223434Y132870D01*
X223432D01*
X223426Y132876D01*
X223415Y132881D01*
X223404Y132893D01*
X223384Y132904D01*
X223365Y132920D01*
X223340Y132940D01*
X223312Y132962D01*
X223279Y132987D01*
X223246Y133017D01*
X223207Y133050D01*
X223166Y133089D01*
X223124Y133131D01*
X223077Y133178D01*
X223027Y133228D01*
X222974Y133283D01*
X222972Y133286D01*
X222964Y133294D01*
X222952Y133305D01*
X222936Y133322D01*
X222919Y133344D01*
X222897Y133366D01*
X222847Y133416D01*
X222795Y133466D01*
X222742Y133516D01*
X222720Y133538D01*
X222695Y133560D01*
X222675Y133577D01*
X222659Y133588D01*
X222653Y133591D01*
X222639Y133599D01*
X222617Y133613D01*
X222587Y133627D01*
X222553Y133640D01*
X222515Y133654D01*
X222476Y133663D01*
X222434Y133665D01*
X222415D01*
X222390Y133663D01*
X222362Y133657D01*
X222332Y133649D01*
X222301Y133638D01*
X222271Y133621D01*
X222243Y133599D01*
X222240Y133596D01*
X222232Y133588D01*
X222221Y133571D01*
X222210Y133552D01*
X222199Y133524D01*
X222188Y133494D01*
X222180Y133458D01*
X222177Y133416D01*
Y133411D01*
Y133397D01*
X222180Y133375D01*
X222185Y133350D01*
X222193Y133319D01*
X222207Y133289D01*
X222224Y133258D01*
X222246Y133230D01*
X222249Y133228D01*
X222260Y133219D01*
X222276Y133208D01*
X222301Y133197D01*
X222332Y133183D01*
X222374Y133172D01*
X222421Y133161D01*
X222476Y133156D01*
X222440Y132790D01*
X222437D01*
X222426Y132793D01*
X222412D01*
X222390Y132798D01*
X222365Y132801D01*
X222337Y132809D01*
X222307Y132818D01*
X222271Y132826D01*
X222202Y132854D01*
X222130Y132887D01*
X222094Y132909D01*
X222060Y132934D01*
X222033Y132962D01*
X222005Y132992D01*
X222002Y132995D01*
X222000Y133001D01*
X221994Y133009D01*
X221983Y133023D01*
X221975Y133039D01*
X221964Y133062D01*
X221950Y133084D01*
X221939Y133111D01*
X221925Y133142D01*
X221914Y133175D01*
X221891Y133247D01*
X221878Y133333D01*
X221875Y133377D01*
X221872Y133424D01*
Y133427D01*
Y133438D01*
Y133452D01*
X221875Y133471D01*
X221878Y133496D01*
X221880Y133524D01*
X221886Y133554D01*
X221891Y133588D01*
X221911Y133660D01*
X221939Y133732D01*
X221955Y133771D01*
X221975Y133804D01*
X222000Y133840D01*
X222027Y133870D01*
X222030Y133873D01*
X222033Y133879D01*
X222044Y133884D01*
X222055Y133895D01*
X222069Y133909D01*
X222088Y133923D01*
X222108Y133937D01*
X222132Y133953D01*
X222188Y133981D01*
X222252Y134009D01*
X222288Y134020D01*
X222326Y134025D01*
X222368Y134031D01*
X222410Y134034D01*
X222432D01*
X222457Y134031D01*
X222487Y134028D01*
X222526Y134023D01*
X222567Y134014D01*
X222612Y134003D01*
X222656Y133987D01*
X222661Y133984D01*
X222675Y133978D01*
X222700Y133967D01*
X222731Y133951D01*
X222767Y133931D01*
X222808Y133906D01*
X222853Y133876D01*
X222900Y133840D01*
X222902Y133837D01*
X222916Y133826D01*
X222936Y133809D01*
X222964Y133784D01*
X222997Y133751D01*
X223041Y133710D01*
X223088Y133660D01*
X223146Y133599D01*
X223149Y133596D01*
X223152Y133591D01*
X223160Y133582D01*
X223171Y133571D01*
X223199Y133541D01*
X223232Y133505D01*
X223268Y133469D01*
X223304Y133433D01*
X223335Y133399D01*
X223348Y133388D01*
X223360Y133377D01*
X223362Y133375D01*
X223368Y133369D01*
X223379Y133361D01*
X223393Y133350D01*
X223423Y133325D01*
X223459Y133302D01*
Y134034D01*
X223800D01*
Y132746D01*
D02*
G37*
G36*
Y137164D02*
X223365Y136998D01*
Y136228D01*
X223800Y136070D01*
Y135660D01*
X221883Y136402D01*
Y136812D01*
X223800Y137582D01*
Y137164D01*
D02*
G37*
G36*
X224329Y134145D02*
X224091D01*
Y135674D01*
X224329D01*
Y134145D01*
D02*
G37*
G36*
X174829Y134929D02*
X174591D01*
Y136458D01*
X174829D01*
Y134929D01*
D02*
G37*
G36*
X173422Y134818D02*
X173444D01*
X173472Y134815D01*
X173502Y134812D01*
X173566Y134807D01*
X173632Y134796D01*
X173702Y134779D01*
X173768Y134760D01*
X173771D01*
X173776Y134757D01*
X173788Y134751D01*
X173804Y134746D01*
X173821Y134740D01*
X173840Y134729D01*
X173890Y134707D01*
X173943Y134679D01*
X174001Y134643D01*
X174056Y134602D01*
X174109Y134555D01*
X174114Y134549D01*
X174126Y134535D01*
X174142Y134513D01*
X174164Y134483D01*
X174189Y134444D01*
X174214Y134400D01*
X174239Y134344D01*
X174261Y134283D01*
Y134281D01*
X174264Y134278D01*
Y134269D01*
X174267Y134261D01*
X174272Y134231D01*
X174281Y134192D01*
X174289Y134145D01*
X174294Y134087D01*
X174297Y134017D01*
X174300Y133942D01*
Y133217D01*
X172383D01*
Y133920D01*
Y133923D01*
Y133931D01*
Y133942D01*
Y133959D01*
Y133981D01*
X172386Y134003D01*
X172389Y134056D01*
X172391Y134114D01*
X172400Y134175D01*
X172408Y134233D01*
X172422Y134286D01*
Y134289D01*
X172425Y134294D01*
X172427Y134303D01*
X172430Y134314D01*
X172444Y134347D01*
X172464Y134386D01*
X172488Y134430D01*
X172519Y134480D01*
X172555Y134527D01*
X172599Y134574D01*
Y134577D01*
X172605Y134580D01*
X172621Y134593D01*
X172649Y134616D01*
X172685Y134641D01*
X172729Y134671D01*
X172782Y134702D01*
X172843Y134732D01*
X172909Y134757D01*
X172912D01*
X172918Y134760D01*
X172929Y134762D01*
X172943Y134768D01*
X172959Y134771D01*
X172982Y134776D01*
X173006Y134782D01*
X173034Y134790D01*
X173065Y134796D01*
X173101Y134801D01*
X173137Y134807D01*
X173178Y134810D01*
X173264Y134818D01*
X173361Y134821D01*
X173400D01*
X173422Y134818D01*
D02*
G37*
G36*
X174300Y137128D02*
X172912D01*
X172915Y137125D01*
X172921Y137120D01*
X172929Y137109D01*
X172943Y137092D01*
X172959Y137073D01*
X172976Y137050D01*
X172995Y137023D01*
X173018Y136992D01*
X173040Y136959D01*
X173062Y136923D01*
X173087Y136884D01*
X173109Y136843D01*
X173151Y136754D01*
X173189Y136654D01*
X172857D01*
Y136657D01*
X172854Y136660D01*
X172851Y136668D01*
X172848Y136679D01*
X172835Y136707D01*
X172818Y136746D01*
X172796Y136793D01*
X172765Y136846D01*
X172727Y136904D01*
X172682Y136965D01*
X172679Y136967D01*
X172677Y136973D01*
X172669Y136981D01*
X172657Y136992D01*
X172630Y137023D01*
X172594Y137056D01*
X172549Y137095D01*
X172494Y137134D01*
X172436Y137170D01*
X172372Y137197D01*
Y137496D01*
X174300D01*
Y137128D01*
D02*
G37*
G36*
X300729Y287500D02*
X300463D01*
X299720Y289417D01*
X299997D01*
X300496Y288023D01*
Y288021D01*
X300499Y288015D01*
X300501Y288007D01*
X300507Y287996D01*
X300510Y287979D01*
X300515Y287963D01*
X300529Y287921D01*
X300546Y287874D01*
X300563Y287821D01*
X300596Y287710D01*
Y287713D01*
X300599Y287719D01*
X300601Y287727D01*
X300604Y287738D01*
X300612Y287769D01*
X300626Y287810D01*
X300640Y287857D01*
X300657Y287910D01*
X300676Y287965D01*
X300698Y288023D01*
X301219Y289417D01*
X301477D01*
X300729Y287500D01*
D02*
G37*
G36*
X298992Y289422D02*
X299028Y289417D01*
X299072Y289408D01*
X299122Y289395D01*
X299172Y289378D01*
X299222Y289356D01*
X299225D01*
X299227Y289353D01*
X299244Y289345D01*
X299269Y289328D01*
X299297Y289309D01*
X299330Y289281D01*
X299363Y289251D01*
X299396Y289215D01*
X299424Y289173D01*
X299427Y289167D01*
X299435Y289154D01*
X299446Y289129D01*
X299460Y289098D01*
X299474Y289062D01*
X299485Y289021D01*
X299493Y288974D01*
X299496Y288927D01*
Y288921D01*
Y288904D01*
X299493Y288882D01*
X299488Y288852D01*
X299479Y288816D01*
X299465Y288777D01*
X299449Y288738D01*
X299427Y288699D01*
X299424Y288694D01*
X299416Y288683D01*
X299399Y288663D01*
X299377Y288641D01*
X299349Y288616D01*
X299316Y288589D01*
X299277Y288564D01*
X299230Y288539D01*
X299233D01*
X299238Y288536D01*
X299247Y288533D01*
X299258Y288530D01*
X299288Y288519D01*
X299327Y288503D01*
X299371Y288481D01*
X299416Y288453D01*
X299457Y288417D01*
X299496Y288375D01*
X299499Y288370D01*
X299510Y288353D01*
X299527Y288326D01*
X299543Y288289D01*
X299560Y288245D01*
X299576Y288193D01*
X299587Y288132D01*
X299590Y288065D01*
Y288062D01*
Y288054D01*
Y288040D01*
X299587Y288023D01*
X299585Y288001D01*
X299579Y287976D01*
X299574Y287949D01*
X299568Y287918D01*
X299546Y287852D01*
X299529Y287816D01*
X299513Y287783D01*
X299490Y287747D01*
X299465Y287710D01*
X299438Y287674D01*
X299405Y287641D01*
X299402Y287638D01*
X299396Y287633D01*
X299385Y287625D01*
X299371Y287614D01*
X299355Y287600D01*
X299333Y287586D01*
X299308Y287569D01*
X299277Y287555D01*
X299247Y287539D01*
X299211Y287522D01*
X299175Y287508D01*
X299133Y287494D01*
X299089Y287483D01*
X299042Y287475D01*
X298995Y287470D01*
X298942Y287467D01*
X298917D01*
X298901Y287470D01*
X298878Y287472D01*
X298853Y287475D01*
X298826Y287481D01*
X298795Y287486D01*
X298729Y287503D01*
X298659Y287530D01*
X298623Y287547D01*
X298590Y287566D01*
X298557Y287591D01*
X298524Y287616D01*
X298521Y287619D01*
X298515Y287625D01*
X298507Y287633D01*
X298499Y287644D01*
X298485Y287658D01*
X298471Y287677D01*
X298454Y287697D01*
X298438Y287722D01*
X298421Y287749D01*
X298405Y287777D01*
X298374Y287843D01*
X298349Y287921D01*
X298341Y287963D01*
X298335Y288007D01*
X298571Y288037D01*
Y288035D01*
X298574Y288029D01*
X298576Y288018D01*
X298579Y288004D01*
X298582Y287987D01*
X298587Y287968D01*
X298601Y287927D01*
X298621Y287877D01*
X298646Y287830D01*
X298673Y287785D01*
X298707Y287747D01*
X298712Y287744D01*
X298723Y287733D01*
X298745Y287719D01*
X298773Y287705D01*
X298806Y287688D01*
X298848Y287674D01*
X298895Y287663D01*
X298945Y287661D01*
X298961D01*
X298973Y287663D01*
X299003Y287666D01*
X299042Y287674D01*
X299086Y287688D01*
X299133Y287708D01*
X299180Y287735D01*
X299225Y287774D01*
X299230Y287780D01*
X299244Y287796D01*
X299261Y287821D01*
X299283Y287855D01*
X299305Y287896D01*
X299322Y287943D01*
X299335Y287999D01*
X299341Y288059D01*
Y288062D01*
Y288068D01*
Y288076D01*
X299338Y288087D01*
X299335Y288118D01*
X299327Y288154D01*
X299316Y288198D01*
X299297Y288242D01*
X299269Y288287D01*
X299233Y288328D01*
X299227Y288334D01*
X299214Y288345D01*
X299191Y288362D01*
X299161Y288381D01*
X299122Y288400D01*
X299075Y288417D01*
X299022Y288428D01*
X298964Y288434D01*
X298939D01*
X298920Y288431D01*
X298895Y288428D01*
X298867Y288422D01*
X298834Y288417D01*
X298798Y288409D01*
X298826Y288616D01*
X298839D01*
X298851Y288614D01*
X298887D01*
X298917Y288619D01*
X298953Y288625D01*
X298995Y288633D01*
X299042Y288647D01*
X299086Y288666D01*
X299133Y288691D01*
X299136D01*
X299139Y288694D01*
X299152Y288705D01*
X299172Y288724D01*
X299194Y288749D01*
X299216Y288785D01*
X299236Y288827D01*
X299250Y288874D01*
X299255Y288902D01*
Y288932D01*
Y288935D01*
Y288938D01*
Y288954D01*
X299250Y288976D01*
X299244Y289007D01*
X299233Y289040D01*
X299219Y289076D01*
X299197Y289112D01*
X299166Y289145D01*
X299164Y289148D01*
X299150Y289159D01*
X299130Y289173D01*
X299106Y289190D01*
X299072Y289204D01*
X299033Y289217D01*
X298989Y289229D01*
X298939Y289231D01*
X298917D01*
X298892Y289226D01*
X298859Y289220D01*
X298823Y289209D01*
X298787Y289195D01*
X298748Y289173D01*
X298712Y289145D01*
X298709Y289143D01*
X298698Y289129D01*
X298682Y289109D01*
X298662Y289082D01*
X298643Y289046D01*
X298623Y289001D01*
X298607Y288949D01*
X298596Y288888D01*
X298360Y288929D01*
Y288932D01*
X298363Y288940D01*
X298366Y288951D01*
X298369Y288968D01*
X298374Y288987D01*
X298382Y289010D01*
X298399Y289062D01*
X298427Y289123D01*
X298460Y289184D01*
X298502Y289242D01*
X298554Y289295D01*
X298557Y289298D01*
X298563Y289300D01*
X298571Y289306D01*
X298582Y289314D01*
X298596Y289325D01*
X298615Y289336D01*
X298635Y289348D01*
X298659Y289361D01*
X298715Y289384D01*
X298779Y289406D01*
X298853Y289420D01*
X298892Y289425D01*
X298961D01*
X298992Y289422D01*
D02*
G37*
G36*
X296757D02*
X296793Y289417D01*
X296837Y289408D01*
X296887Y289395D01*
X296936Y289378D01*
X296986Y289356D01*
X296989D01*
X296992Y289353D01*
X297009Y289345D01*
X297034Y289328D01*
X297061Y289309D01*
X297094Y289281D01*
X297128Y289251D01*
X297161Y289215D01*
X297189Y289173D01*
X297191Y289167D01*
X297200Y289154D01*
X297211Y289129D01*
X297225Y289098D01*
X297238Y289062D01*
X297250Y289021D01*
X297258Y288974D01*
X297261Y288927D01*
Y288921D01*
Y288904D01*
X297258Y288882D01*
X297252Y288852D01*
X297244Y288816D01*
X297230Y288777D01*
X297214Y288738D01*
X297191Y288699D01*
X297189Y288694D01*
X297180Y288683D01*
X297164Y288663D01*
X297142Y288641D01*
X297114Y288616D01*
X297081Y288589D01*
X297042Y288564D01*
X296995Y288539D01*
X296997D01*
X297003Y288536D01*
X297011Y288533D01*
X297022Y288530D01*
X297053Y288519D01*
X297092Y288503D01*
X297136Y288481D01*
X297180Y288453D01*
X297222Y288417D01*
X297261Y288375D01*
X297263Y288370D01*
X297274Y288353D01*
X297291Y288326D01*
X297308Y288289D01*
X297324Y288245D01*
X297341Y288193D01*
X297352Y288132D01*
X297355Y288065D01*
Y288062D01*
Y288054D01*
Y288040D01*
X297352Y288023D01*
X297349Y288001D01*
X297344Y287976D01*
X297338Y287949D01*
X297333Y287918D01*
X297310Y287852D01*
X297294Y287816D01*
X297277Y287783D01*
X297255Y287747D01*
X297230Y287710D01*
X297202Y287674D01*
X297169Y287641D01*
X297166Y287638D01*
X297161Y287633D01*
X297150Y287625D01*
X297136Y287614D01*
X297119Y287600D01*
X297097Y287586D01*
X297072Y287569D01*
X297042Y287555D01*
X297011Y287539D01*
X296975Y287522D01*
X296939Y287508D01*
X296898Y287494D01*
X296853Y287483D01*
X296806Y287475D01*
X296759Y287470D01*
X296707Y287467D01*
X296682D01*
X296665Y287470D01*
X296643Y287472D01*
X296618Y287475D01*
X296590Y287481D01*
X296560Y287486D01*
X296493Y287503D01*
X296424Y287530D01*
X296388Y287547D01*
X296355Y287566D01*
X296322Y287591D01*
X296288Y287616D01*
X296286Y287619D01*
X296280Y287625D01*
X296272Y287633D01*
X296263Y287644D01*
X296250Y287658D01*
X296236Y287677D01*
X296219Y287697D01*
X296202Y287722D01*
X296186Y287749D01*
X296169Y287777D01*
X296139Y287843D01*
X296114Y287921D01*
X296106Y287963D01*
X296100Y288007D01*
X296335Y288037D01*
Y288035D01*
X296338Y288029D01*
X296341Y288018D01*
X296344Y288004D01*
X296346Y287987D01*
X296352Y287968D01*
X296366Y287927D01*
X296385Y287877D01*
X296410Y287830D01*
X296438Y287785D01*
X296471Y287747D01*
X296477Y287744D01*
X296488Y287733D01*
X296510Y287719D01*
X296538Y287705D01*
X296571Y287688D01*
X296612Y287674D01*
X296659Y287663D01*
X296709Y287661D01*
X296726D01*
X296737Y287663D01*
X296768Y287666D01*
X296806Y287674D01*
X296851Y287688D01*
X296898Y287708D01*
X296945Y287735D01*
X296989Y287774D01*
X296995Y287780D01*
X297009Y287796D01*
X297025Y287821D01*
X297047Y287855D01*
X297070Y287896D01*
X297086Y287943D01*
X297100Y287999D01*
X297106Y288059D01*
Y288062D01*
Y288068D01*
Y288076D01*
X297103Y288087D01*
X297100Y288118D01*
X297092Y288154D01*
X297081Y288198D01*
X297061Y288242D01*
X297034Y288287D01*
X296997Y288328D01*
X296992Y288334D01*
X296978Y288345D01*
X296956Y288362D01*
X296925Y288381D01*
X296887Y288400D01*
X296840Y288417D01*
X296787Y288428D01*
X296729Y288434D01*
X296704D01*
X296685Y288431D01*
X296659Y288428D01*
X296632Y288422D01*
X296599Y288417D01*
X296563Y288409D01*
X296590Y288616D01*
X296604D01*
X296615Y288614D01*
X296651D01*
X296682Y288619D01*
X296718Y288625D01*
X296759Y288633D01*
X296806Y288647D01*
X296851Y288666D01*
X296898Y288691D01*
X296901D01*
X296903Y288694D01*
X296917Y288705D01*
X296936Y288724D01*
X296959Y288749D01*
X296981Y288785D01*
X297000Y288827D01*
X297014Y288874D01*
X297020Y288902D01*
Y288932D01*
Y288935D01*
Y288938D01*
Y288954D01*
X297014Y288976D01*
X297009Y289007D01*
X296997Y289040D01*
X296984Y289076D01*
X296961Y289112D01*
X296931Y289145D01*
X296928Y289148D01*
X296914Y289159D01*
X296895Y289173D01*
X296870Y289190D01*
X296837Y289204D01*
X296798Y289217D01*
X296754Y289229D01*
X296704Y289231D01*
X296682D01*
X296657Y289226D01*
X296623Y289220D01*
X296587Y289209D01*
X296551Y289195D01*
X296513Y289173D01*
X296477Y289145D01*
X296474Y289143D01*
X296463Y289129D01*
X296446Y289109D01*
X296427Y289082D01*
X296408Y289046D01*
X296388Y289001D01*
X296372Y288949D01*
X296360Y288888D01*
X296125Y288929D01*
Y288932D01*
X296128Y288940D01*
X296130Y288951D01*
X296133Y288968D01*
X296139Y288987D01*
X296147Y289010D01*
X296164Y289062D01*
X296191Y289123D01*
X296225Y289184D01*
X296266Y289242D01*
X296319Y289295D01*
X296322Y289298D01*
X296327Y289300D01*
X296335Y289306D01*
X296346Y289314D01*
X296360Y289325D01*
X296380Y289336D01*
X296399Y289348D01*
X296424Y289361D01*
X296480Y289384D01*
X296543Y289406D01*
X296618Y289420D01*
X296657Y289425D01*
X296726D01*
X296757Y289422D01*
D02*
G37*
G36*
X173422Y132884D02*
X173444D01*
X173472Y132882D01*
X173502Y132879D01*
X173566Y132873D01*
X173632Y132862D01*
X173702Y132846D01*
X173768Y132826D01*
X173771D01*
X173776Y132823D01*
X173788Y132818D01*
X173804Y132812D01*
X173821Y132807D01*
X173840Y132796D01*
X173890Y132774D01*
X173943Y132746D01*
X174001Y132710D01*
X174056Y132668D01*
X174109Y132621D01*
X174114Y132616D01*
X174126Y132602D01*
X174142Y132580D01*
X174164Y132549D01*
X174189Y132510D01*
X174214Y132466D01*
X174239Y132411D01*
X174261Y132350D01*
Y132347D01*
X174264Y132344D01*
Y132336D01*
X174267Y132328D01*
X174272Y132297D01*
X174281Y132258D01*
X174289Y132211D01*
X174294Y132153D01*
X174297Y132084D01*
X174300Y132009D01*
Y131283D01*
X172383D01*
Y131987D01*
Y131990D01*
Y131998D01*
Y132009D01*
Y132026D01*
Y132048D01*
X172386Y132070D01*
X172389Y132123D01*
X172391Y132181D01*
X172400Y132242D01*
X172408Y132300D01*
X172422Y132352D01*
Y132355D01*
X172425Y132361D01*
X172427Y132369D01*
X172430Y132380D01*
X172444Y132413D01*
X172464Y132452D01*
X172488Y132497D01*
X172519Y132546D01*
X172555Y132594D01*
X172599Y132641D01*
Y132643D01*
X172605Y132646D01*
X172621Y132660D01*
X172649Y132682D01*
X172685Y132707D01*
X172729Y132738D01*
X172782Y132768D01*
X172843Y132799D01*
X172909Y132823D01*
X172912D01*
X172918Y132826D01*
X172929Y132829D01*
X172943Y132834D01*
X172959Y132837D01*
X172982Y132843D01*
X173006Y132848D01*
X173034Y132857D01*
X173065Y132862D01*
X173101Y132868D01*
X173137Y132873D01*
X173178Y132876D01*
X173264Y132884D01*
X173361Y132887D01*
X173400D01*
X173422Y132884D01*
D02*
G37*
G36*
X174300Y130405D02*
Y129987D01*
X172383Y129300D01*
Y129718D01*
X173801Y130206D01*
X172383Y130674D01*
Y131087D01*
X174300Y130405D01*
D02*
G37*
G36*
Y138746D02*
X174292D01*
X174281Y138749D01*
X174267Y138751D01*
X174250Y138754D01*
X174231Y138757D01*
X174181Y138768D01*
X174126Y138785D01*
X174065Y138807D01*
X173998Y138834D01*
X173934Y138870D01*
X173932D01*
X173926Y138876D01*
X173915Y138881D01*
X173904Y138892D01*
X173884Y138904D01*
X173865Y138920D01*
X173840Y138940D01*
X173812Y138962D01*
X173779Y138987D01*
X173746Y139017D01*
X173707Y139050D01*
X173666Y139089D01*
X173624Y139131D01*
X173577Y139178D01*
X173527Y139228D01*
X173475Y139283D01*
X173472Y139286D01*
X173463Y139294D01*
X173452Y139305D01*
X173436Y139322D01*
X173419Y139344D01*
X173397Y139366D01*
X173347Y139416D01*
X173294Y139466D01*
X173242Y139516D01*
X173220Y139538D01*
X173195Y139560D01*
X173175Y139577D01*
X173159Y139588D01*
X173153Y139591D01*
X173139Y139599D01*
X173117Y139613D01*
X173087Y139627D01*
X173054Y139640D01*
X173015Y139654D01*
X172976Y139663D01*
X172934Y139665D01*
X172915D01*
X172890Y139663D01*
X172862Y139657D01*
X172832Y139649D01*
X172801Y139638D01*
X172771Y139621D01*
X172743Y139599D01*
X172740Y139596D01*
X172732Y139588D01*
X172721Y139571D01*
X172710Y139552D01*
X172699Y139524D01*
X172688Y139494D01*
X172679Y139458D01*
X172677Y139416D01*
Y139410D01*
Y139397D01*
X172679Y139374D01*
X172685Y139350D01*
X172693Y139319D01*
X172707Y139289D01*
X172724Y139258D01*
X172746Y139230D01*
X172749Y139228D01*
X172760Y139219D01*
X172776Y139208D01*
X172801Y139197D01*
X172832Y139183D01*
X172873Y139172D01*
X172921Y139161D01*
X172976Y139156D01*
X172940Y138790D01*
X172937D01*
X172926Y138793D01*
X172912D01*
X172890Y138798D01*
X172865Y138801D01*
X172837Y138809D01*
X172807Y138818D01*
X172771Y138826D01*
X172702Y138854D01*
X172630Y138887D01*
X172594Y138909D01*
X172560Y138934D01*
X172533Y138962D01*
X172505Y138992D01*
X172502Y138995D01*
X172500Y139000D01*
X172494Y139009D01*
X172483Y139023D01*
X172475Y139039D01*
X172464Y139061D01*
X172450Y139084D01*
X172439Y139111D01*
X172425Y139142D01*
X172414Y139175D01*
X172391Y139247D01*
X172378Y139333D01*
X172375Y139377D01*
X172372Y139424D01*
Y139427D01*
Y139438D01*
Y139452D01*
X172375Y139471D01*
X172378Y139496D01*
X172380Y139524D01*
X172386Y139555D01*
X172391Y139588D01*
X172411Y139660D01*
X172439Y139732D01*
X172455Y139771D01*
X172475Y139804D01*
X172500Y139840D01*
X172527Y139870D01*
X172530Y139873D01*
X172533Y139879D01*
X172544Y139884D01*
X172555Y139895D01*
X172569Y139909D01*
X172588Y139923D01*
X172608Y139937D01*
X172633Y139953D01*
X172688Y139981D01*
X172752Y140009D01*
X172788Y140020D01*
X172826Y140025D01*
X172868Y140031D01*
X172909Y140034D01*
X172932D01*
X172957Y140031D01*
X172987Y140028D01*
X173026Y140023D01*
X173067Y140014D01*
X173112Y140003D01*
X173156Y139987D01*
X173161Y139984D01*
X173175Y139978D01*
X173200Y139967D01*
X173231Y139951D01*
X173267Y139931D01*
X173308Y139906D01*
X173353Y139876D01*
X173400Y139840D01*
X173403Y139837D01*
X173416Y139826D01*
X173436Y139809D01*
X173463Y139784D01*
X173497Y139751D01*
X173541Y139710D01*
X173588Y139660D01*
X173646Y139599D01*
X173649Y139596D01*
X173652Y139591D01*
X173660Y139582D01*
X173671Y139571D01*
X173699Y139541D01*
X173732Y139505D01*
X173768Y139469D01*
X173804Y139433D01*
X173835Y139399D01*
X173848Y139388D01*
X173860Y139377D01*
X173862Y139374D01*
X173868Y139369D01*
X173879Y139361D01*
X173893Y139350D01*
X173923Y139325D01*
X173959Y139303D01*
Y140034D01*
X174300D01*
Y138746D01*
D02*
G37*
G36*
Y138125D02*
X173932D01*
Y138494D01*
X174300D01*
Y138125D01*
D02*
G37*
G36*
X302493Y289414D02*
X302549Y289411D01*
X302604Y289406D01*
X302659Y289397D01*
X302706Y289389D01*
X302709D01*
X302715Y289386D01*
X302723D01*
X302734Y289381D01*
X302765Y289372D01*
X302803Y289359D01*
X302848Y289339D01*
X302895Y289314D01*
X302942Y289287D01*
X302986Y289251D01*
X302989Y289248D01*
X302992Y289245D01*
X303000Y289237D01*
X303011Y289229D01*
X303039Y289201D01*
X303072Y289162D01*
X303108Y289115D01*
X303147Y289059D01*
X303183Y288996D01*
X303213Y288924D01*
Y288921D01*
X303216Y288915D01*
X303222Y288904D01*
X303224Y288888D01*
X303233Y288868D01*
X303238Y288846D01*
X303244Y288821D01*
X303252Y288791D01*
X303260Y288760D01*
X303266Y288724D01*
X303280Y288647D01*
X303288Y288561D01*
X303291Y288467D01*
Y288464D01*
Y288458D01*
Y288445D01*
Y288431D01*
X303288Y288411D01*
Y288389D01*
X303285Y288336D01*
X303277Y288276D01*
X303269Y288212D01*
X303255Y288145D01*
X303238Y288079D01*
Y288076D01*
X303236Y288071D01*
X303233Y288062D01*
X303230Y288051D01*
X303219Y288021D01*
X303202Y287982D01*
X303186Y287938D01*
X303164Y287893D01*
X303136Y287846D01*
X303108Y287802D01*
X303105Y287796D01*
X303094Y287783D01*
X303078Y287763D01*
X303056Y287738D01*
X303030Y287710D01*
X303000Y287683D01*
X302970Y287652D01*
X302934Y287627D01*
X302928Y287625D01*
X302917Y287616D01*
X302898Y287605D01*
X302870Y287591D01*
X302837Y287575D01*
X302798Y287561D01*
X302753Y287544D01*
X302704Y287530D01*
X302698D01*
X302690Y287528D01*
X302681Y287525D01*
X302654Y287522D01*
X302615Y287517D01*
X302571Y287511D01*
X302518Y287506D01*
X302460Y287503D01*
X302396Y287500D01*
X301707D01*
Y289417D01*
X302443D01*
X302493Y289414D01*
D02*
G37*
G36*
X174829Y140145D02*
X174591D01*
Y141674D01*
X174829D01*
Y140145D01*
D02*
G37*
G36*
X304427Y289414D02*
X304482Y289411D01*
X304537Y289406D01*
X304593Y289397D01*
X304640Y289389D01*
X304643D01*
X304648Y289386D01*
X304657D01*
X304668Y289381D01*
X304698Y289372D01*
X304737Y289359D01*
X304781Y289339D01*
X304828Y289314D01*
X304875Y289287D01*
X304920Y289251D01*
X304922Y289248D01*
X304925Y289245D01*
X304934Y289237D01*
X304945Y289229D01*
X304972Y289201D01*
X305006Y289162D01*
X305042Y289115D01*
X305080Y289059D01*
X305116Y288996D01*
X305147Y288924D01*
Y288921D01*
X305150Y288915D01*
X305155Y288904D01*
X305158Y288888D01*
X305166Y288868D01*
X305172Y288846D01*
X305177Y288821D01*
X305186Y288791D01*
X305194Y288760D01*
X305199Y288724D01*
X305213Y288647D01*
X305222Y288561D01*
X305224Y288467D01*
Y288464D01*
Y288458D01*
Y288445D01*
Y288431D01*
X305222Y288411D01*
Y288389D01*
X305219Y288336D01*
X305210Y288276D01*
X305202Y288212D01*
X305188Y288145D01*
X305172Y288079D01*
Y288076D01*
X305169Y288071D01*
X305166Y288062D01*
X305163Y288051D01*
X305152Y288021D01*
X305136Y287982D01*
X305119Y287938D01*
X305097Y287893D01*
X305069Y287846D01*
X305042Y287802D01*
X305039Y287796D01*
X305028Y287783D01*
X305011Y287763D01*
X304989Y287738D01*
X304964Y287710D01*
X304934Y287683D01*
X304903Y287652D01*
X304867Y287627D01*
X304861Y287625D01*
X304850Y287616D01*
X304831Y287605D01*
X304803Y287591D01*
X304770Y287575D01*
X304731Y287561D01*
X304687Y287544D01*
X304637Y287530D01*
X304632D01*
X304623Y287528D01*
X304615Y287525D01*
X304587Y287522D01*
X304549Y287517D01*
X304504Y287511D01*
X304451Y287506D01*
X304393Y287503D01*
X304330Y287500D01*
X303640D01*
Y289417D01*
X304377D01*
X304427Y289414D01*
D02*
G37*
%LPC*%
G36*
X304338Y289190D02*
X303895D01*
Y287727D01*
X304349D01*
X304368Y287730D01*
X304410Y287733D01*
X304457Y287735D01*
X304507Y287741D01*
X304557Y287749D01*
X304598Y287760D01*
X304604Y287763D01*
X304618Y287766D01*
X304637Y287774D01*
X304662Y287785D01*
X304690Y287802D01*
X304717Y287819D01*
X304745Y287838D01*
X304773Y287860D01*
X304776Y287866D01*
X304787Y287877D01*
X304803Y287896D01*
X304823Y287924D01*
X304845Y287960D01*
X304870Y288001D01*
X304892Y288049D01*
X304911Y288101D01*
Y288104D01*
X304914Y288109D01*
X304917Y288118D01*
X304920Y288129D01*
X304922Y288143D01*
X304928Y288162D01*
X304934Y288181D01*
X304939Y288204D01*
X304947Y288259D01*
X304956Y288323D01*
X304961Y288395D01*
X304964Y288472D01*
Y288475D01*
Y288486D01*
Y288500D01*
X304961Y288522D01*
Y288547D01*
X304959Y288575D01*
X304956Y288608D01*
X304953Y288641D01*
X304939Y288716D01*
X304922Y288794D01*
X304897Y288866D01*
X304881Y288902D01*
X304864Y288932D01*
Y288935D01*
X304859Y288940D01*
X304853Y288949D01*
X304848Y288960D01*
X304825Y288987D01*
X304798Y289021D01*
X304762Y289057D01*
X304720Y289093D01*
X304673Y289123D01*
X304623Y289148D01*
X304618Y289151D01*
X304604Y289154D01*
X304579Y289162D01*
X304543Y289170D01*
X304499Y289176D01*
X304443Y289184D01*
X304410Y289187D01*
X304374D01*
X304338Y289190D01*
D02*
G37*
G36*
X222836Y144673D02*
X222806D01*
X222781Y144671D01*
X222753Y144668D01*
X222723Y144665D01*
X222687Y144662D01*
X222651Y144654D01*
X222570Y144637D01*
X222487Y144612D01*
X222446Y144596D01*
X222410Y144576D01*
X222374Y144551D01*
X222340Y144527D01*
X222337Y144524D01*
X222332Y144521D01*
X222326Y144513D01*
X222315Y144502D01*
X222301Y144485D01*
X222288Y144468D01*
X222274Y144449D01*
X222257Y144424D01*
X222243Y144399D01*
X222229Y144369D01*
X222202Y144305D01*
X222191Y144269D01*
X222185Y144230D01*
X222180Y144189D01*
X222177Y144144D01*
Y144141D01*
Y144133D01*
Y144122D01*
X222180Y144106D01*
X222182Y144083D01*
X222185Y144061D01*
X222196Y144006D01*
X222218Y143945D01*
X222229Y143912D01*
X222246Y143878D01*
X222265Y143848D01*
X222288Y143815D01*
X222312Y143784D01*
X222343Y143756D01*
X222346Y143754D01*
X222351Y143751D01*
X222360Y143743D01*
X222374Y143734D01*
X222393Y143723D01*
X222412Y143712D01*
X222437Y143698D01*
X222468Y143684D01*
X222501Y143671D01*
X222537Y143657D01*
X222578Y143646D01*
X222623Y143635D01*
X222673Y143626D01*
X222725Y143618D01*
X222781Y143615D01*
X222842Y143612D01*
X222872D01*
X222894Y143615D01*
X222922Y143618D01*
X222955Y143621D01*
X222988Y143626D01*
X223027Y143632D01*
X223108Y143648D01*
X223188Y143676D01*
X223229Y143693D01*
X223268Y143712D01*
X223304Y143737D01*
X223337Y143762D01*
X223340Y143765D01*
X223346Y143770D01*
X223354Y143779D01*
X223362Y143790D01*
X223376Y143804D01*
X223390Y143823D01*
X223407Y143842D01*
X223421Y143867D01*
X223454Y143920D01*
X223479Y143986D01*
X223490Y144022D01*
X223498Y144061D01*
X223504Y144103D01*
X223506Y144144D01*
Y144147D01*
Y144155D01*
Y144166D01*
X223504Y144183D01*
X223501Y144202D01*
X223498Y144225D01*
X223484Y144277D01*
X223465Y144338D01*
X223451Y144369D01*
X223437Y144402D01*
X223418Y144432D01*
X223396Y144466D01*
X223371Y144496D01*
X223340Y144524D01*
X223337Y144527D01*
X223332Y144529D01*
X223324Y144538D01*
X223310Y144546D01*
X223290Y144560D01*
X223268Y144571D01*
X223243Y144585D01*
X223213Y144598D01*
X223180Y144612D01*
X223144Y144626D01*
X223102Y144640D01*
X223055Y144651D01*
X223008Y144659D01*
X222955Y144668D01*
X222897Y144671D01*
X222836Y144673D01*
D02*
G37*
G36*
X200241Y28937D02*
X199529Y28669D01*
X200241Y28408D01*
Y28937D01*
D02*
G37*
G36*
X223041Y136873D02*
X222329Y136604D01*
X223041Y136344D01*
Y136873D01*
D02*
G37*
G36*
X170444Y16188D02*
X170389D01*
X170367Y16185D01*
X170320Y16183D01*
X170264Y16177D01*
X170206Y16172D01*
X170153Y16161D01*
X170104Y16147D01*
X170101D01*
X170098Y16144D01*
X170084Y16138D01*
X170062Y16130D01*
X170034Y16119D01*
X170007Y16102D01*
X169976Y16083D01*
X169946Y16061D01*
X169918Y16036D01*
X169915Y16033D01*
X169907Y16025D01*
X169896Y16008D01*
X169882Y15989D01*
X169865Y15961D01*
X169852Y15931D01*
X169838Y15897D01*
X169827Y15859D01*
Y15856D01*
X169824Y15842D01*
X169821Y15820D01*
X169816Y15789D01*
Y15770D01*
X169813Y15745D01*
Y15720D01*
X169810Y15692D01*
Y15659D01*
X169807Y15623D01*
Y15584D01*
Y15543D01*
Y15371D01*
X171076D01*
Y15656D01*
Y15659D01*
Y15665D01*
Y15673D01*
Y15684D01*
Y15712D01*
X171073Y15748D01*
Y15787D01*
X171068Y15825D01*
X171065Y15861D01*
X171059Y15892D01*
Y15897D01*
X171054Y15909D01*
X171048Y15925D01*
X171040Y15947D01*
X171029Y15972D01*
X171015Y15997D01*
X170998Y16022D01*
X170979Y16047D01*
X170976Y16050D01*
X170968Y16058D01*
X170954Y16069D01*
X170935Y16083D01*
X170910Y16097D01*
X170879Y16116D01*
X170841Y16130D01*
X170796Y16147D01*
X170793D01*
X170791Y16150D01*
X170782D01*
X170771Y16152D01*
X170760Y16158D01*
X170744Y16161D01*
X170702Y16169D01*
X170652Y16174D01*
X170594Y16183D01*
X170522Y16185D01*
X170444Y16188D01*
D02*
G37*
G36*
X223041Y140740D02*
X222329Y140471D01*
X223041Y140211D01*
Y140740D01*
D02*
G37*
G36*
X170444Y18122D02*
X170389D01*
X170367Y18119D01*
X170320Y18116D01*
X170264Y18111D01*
X170206Y18105D01*
X170153Y18094D01*
X170104Y18080D01*
X170101D01*
X170098Y18077D01*
X170084Y18072D01*
X170062Y18064D01*
X170034Y18053D01*
X170007Y18036D01*
X169976Y18016D01*
X169946Y17994D01*
X169918Y17969D01*
X169915Y17967D01*
X169907Y17958D01*
X169896Y17942D01*
X169882Y17922D01*
X169865Y17895D01*
X169852Y17864D01*
X169838Y17831D01*
X169827Y17792D01*
Y17789D01*
X169824Y17775D01*
X169821Y17753D01*
X169816Y17723D01*
Y17704D01*
X169813Y17679D01*
Y17654D01*
X169810Y17626D01*
Y17593D01*
X169807Y17557D01*
Y17518D01*
Y17476D01*
Y17305D01*
X171076D01*
Y17590D01*
Y17593D01*
Y17598D01*
Y17606D01*
Y17618D01*
Y17645D01*
X171073Y17681D01*
Y17720D01*
X171068Y17759D01*
X171065Y17795D01*
X171059Y17825D01*
Y17831D01*
X171054Y17842D01*
X171048Y17859D01*
X171040Y17881D01*
X171029Y17906D01*
X171015Y17931D01*
X170998Y17955D01*
X170979Y17980D01*
X170976Y17983D01*
X170968Y17991D01*
X170954Y18003D01*
X170935Y18016D01*
X170910Y18030D01*
X170879Y18050D01*
X170841Y18064D01*
X170796Y18080D01*
X170793D01*
X170791Y18083D01*
X170782D01*
X170771Y18086D01*
X170760Y18091D01*
X170744Y18094D01*
X170702Y18102D01*
X170652Y18108D01*
X170594Y18116D01*
X170522Y18119D01*
X170444Y18122D01*
D02*
G37*
G36*
X302404Y289190D02*
X301961D01*
Y287727D01*
X302416D01*
X302435Y287730D01*
X302477Y287733D01*
X302524Y287735D01*
X302573Y287741D01*
X302623Y287749D01*
X302665Y287760D01*
X302670Y287763D01*
X302684Y287766D01*
X302704Y287774D01*
X302729Y287785D01*
X302756Y287802D01*
X302784Y287819D01*
X302812Y287838D01*
X302839Y287860D01*
X302842Y287866D01*
X302853Y287877D01*
X302870Y287896D01*
X302889Y287924D01*
X302911Y287960D01*
X302936Y288001D01*
X302958Y288049D01*
X302978Y288101D01*
Y288104D01*
X302981Y288109D01*
X302983Y288118D01*
X302986Y288129D01*
X302989Y288143D01*
X302994Y288162D01*
X303000Y288181D01*
X303006Y288204D01*
X303014Y288259D01*
X303022Y288323D01*
X303028Y288395D01*
X303030Y288472D01*
Y288475D01*
Y288486D01*
Y288500D01*
X303028Y288522D01*
Y288547D01*
X303025Y288575D01*
X303022Y288608D01*
X303019Y288641D01*
X303006Y288716D01*
X302989Y288794D01*
X302964Y288866D01*
X302947Y288902D01*
X302931Y288932D01*
Y288935D01*
X302925Y288940D01*
X302920Y288949D01*
X302914Y288960D01*
X302892Y288987D01*
X302864Y289021D01*
X302828Y289057D01*
X302787Y289093D01*
X302740Y289123D01*
X302690Y289148D01*
X302684Y289151D01*
X302670Y289154D01*
X302645Y289162D01*
X302609Y289170D01*
X302565Y289176D01*
X302510Y289184D01*
X302477Y289187D01*
X302441D01*
X302404Y289190D01*
D02*
G37*
G36*
X199648Y34743D02*
X199632D01*
X199615Y34740D01*
X199593Y34738D01*
X199568Y34729D01*
X199543Y34721D01*
X199515Y34707D01*
X199493Y34691D01*
X199490Y34688D01*
X199482Y34682D01*
X199474Y34668D01*
X199460Y34652D01*
X199446Y34633D01*
X199435Y34607D01*
X199424Y34577D01*
X199416Y34544D01*
Y34541D01*
X199413Y34533D01*
Y34516D01*
X199410Y34491D01*
Y34475D01*
Y34455D01*
Y34430D01*
X199407Y34405D01*
Y34375D01*
Y34342D01*
Y34303D01*
Y34261D01*
Y33962D01*
X199895D01*
Y34247D01*
Y34250D01*
Y34258D01*
Y34272D01*
Y34292D01*
Y34314D01*
Y34339D01*
X199892Y34394D01*
X199889Y34452D01*
X199887Y34511D01*
X199884Y34536D01*
X199881Y34558D01*
X199875Y34580D01*
X199873Y34594D01*
Y34596D01*
X199867Y34605D01*
X199862Y34619D01*
X199853Y34633D01*
X199828Y34668D01*
X199812Y34685D01*
X199792Y34702D01*
X199790Y34705D01*
X199781Y34707D01*
X199770Y34716D01*
X199753Y34724D01*
X199731Y34729D01*
X199706Y34738D01*
X199679Y34740D01*
X199648Y34743D01*
D02*
G37*
G36*
X170444Y21545D02*
X170389D01*
X170367Y21543D01*
X170320Y21540D01*
X170264Y21534D01*
X170206Y21529D01*
X170153Y21518D01*
X170104Y21504D01*
X170101D01*
X170098Y21501D01*
X170084Y21496D01*
X170062Y21487D01*
X170034Y21476D01*
X170007Y21460D01*
X169976Y21440D01*
X169946Y21418D01*
X169918Y21393D01*
X169915Y21390D01*
X169907Y21382D01*
X169896Y21365D01*
X169882Y21346D01*
X169865Y21318D01*
X169852Y21288D01*
X169838Y21255D01*
X169827Y21216D01*
Y21213D01*
X169824Y21199D01*
X169821Y21177D01*
X169816Y21147D01*
Y21127D01*
X169813Y21102D01*
Y21077D01*
X169810Y21050D01*
Y21016D01*
X169807Y20980D01*
Y20942D01*
Y20900D01*
Y20728D01*
X171076D01*
Y21014D01*
Y21016D01*
Y21022D01*
Y21030D01*
Y21041D01*
Y21069D01*
X171073Y21105D01*
Y21144D01*
X171068Y21183D01*
X171065Y21219D01*
X171059Y21249D01*
Y21255D01*
X171054Y21266D01*
X171048Y21282D01*
X171040Y21305D01*
X171029Y21329D01*
X171015Y21354D01*
X170998Y21379D01*
X170979Y21404D01*
X170976Y21407D01*
X170968Y21415D01*
X170954Y21426D01*
X170935Y21440D01*
X170910Y21454D01*
X170879Y21473D01*
X170841Y21487D01*
X170796Y21504D01*
X170793D01*
X170791Y21507D01*
X170782D01*
X170771Y21509D01*
X170760Y21515D01*
X170744Y21518D01*
X170702Y21526D01*
X170652Y21532D01*
X170594Y21540D01*
X170522Y21543D01*
X170444Y21545D01*
D02*
G37*
G36*
X170641Y28501D02*
X169929Y28232D01*
X170641Y27972D01*
Y28501D01*
D02*
G37*
G36*
X219748Y36683D02*
X219732D01*
X219715Y36680D01*
X219693Y36677D01*
X219668Y36669D01*
X219643Y36661D01*
X219615Y36647D01*
X219593Y36630D01*
X219590Y36628D01*
X219582Y36622D01*
X219574Y36608D01*
X219560Y36592D01*
X219546Y36572D01*
X219535Y36547D01*
X219524Y36517D01*
X219516Y36483D01*
Y36481D01*
X219513Y36472D01*
Y36456D01*
X219510Y36431D01*
Y36414D01*
Y36395D01*
Y36370D01*
X219507Y36345D01*
Y36314D01*
Y36281D01*
Y36242D01*
Y36201D01*
Y35902D01*
X219995D01*
Y36187D01*
Y36190D01*
Y36198D01*
Y36212D01*
Y36231D01*
Y36254D01*
Y36279D01*
X219992Y36334D01*
X219989Y36392D01*
X219987Y36450D01*
X219984Y36475D01*
X219981Y36497D01*
X219975Y36520D01*
X219973Y36533D01*
Y36536D01*
X219967Y36544D01*
X219962Y36558D01*
X219953Y36572D01*
X219928Y36608D01*
X219912Y36625D01*
X219892Y36641D01*
X219889Y36644D01*
X219881Y36647D01*
X219870Y36655D01*
X219853Y36663D01*
X219831Y36669D01*
X219806Y36677D01*
X219779Y36680D01*
X219748Y36683D01*
D02*
G37*
G36*
X220144Y20345D02*
X220089D01*
X220067Y20343D01*
X220020Y20340D01*
X219964Y20334D01*
X219906Y20329D01*
X219853Y20318D01*
X219804Y20304D01*
X219801D01*
X219798Y20301D01*
X219784Y20296D01*
X219762Y20287D01*
X219734Y20276D01*
X219707Y20260D01*
X219676Y20240D01*
X219646Y20218D01*
X219618Y20193D01*
X219615Y20190D01*
X219607Y20182D01*
X219596Y20165D01*
X219582Y20146D01*
X219565Y20118D01*
X219552Y20088D01*
X219538Y20055D01*
X219527Y20016D01*
Y20013D01*
X219524Y19999D01*
X219521Y19977D01*
X219516Y19947D01*
Y19927D01*
X219513Y19902D01*
Y19877D01*
X219510Y19850D01*
Y19816D01*
X219507Y19780D01*
Y19742D01*
Y19700D01*
Y19528D01*
X220776D01*
Y19814D01*
Y19816D01*
Y19822D01*
Y19830D01*
Y19841D01*
Y19869D01*
X220773Y19905D01*
Y19944D01*
X220768Y19983D01*
X220765Y20019D01*
X220759Y20049D01*
Y20055D01*
X220754Y20066D01*
X220748Y20082D01*
X220740Y20105D01*
X220729Y20129D01*
X220715Y20154D01*
X220698Y20179D01*
X220679Y20204D01*
X220676Y20207D01*
X220668Y20215D01*
X220654Y20226D01*
X220635Y20240D01*
X220610Y20254D01*
X220579Y20273D01*
X220540Y20287D01*
X220496Y20304D01*
X220493D01*
X220491Y20307D01*
X220482D01*
X220471Y20309D01*
X220460Y20315D01*
X220444Y20318D01*
X220402Y20326D01*
X220352Y20332D01*
X220294Y20340D01*
X220222Y20343D01*
X220144Y20345D01*
D02*
G37*
G36*
X173336Y150673D02*
X173306D01*
X173281Y150671D01*
X173253Y150668D01*
X173222Y150665D01*
X173187Y150662D01*
X173151Y150654D01*
X173070Y150637D01*
X172987Y150612D01*
X172945Y150596D01*
X172909Y150576D01*
X172873Y150551D01*
X172840Y150526D01*
X172837Y150524D01*
X172832Y150521D01*
X172826Y150513D01*
X172815Y150502D01*
X172801Y150485D01*
X172788Y150468D01*
X172774Y150449D01*
X172757Y150424D01*
X172743Y150399D01*
X172729Y150369D01*
X172702Y150305D01*
X172691Y150269D01*
X172685Y150230D01*
X172679Y150189D01*
X172677Y150144D01*
Y150142D01*
Y150133D01*
Y150122D01*
X172679Y150106D01*
X172682Y150083D01*
X172685Y150061D01*
X172696Y150006D01*
X172718Y149945D01*
X172729Y149912D01*
X172746Y149878D01*
X172765Y149848D01*
X172788Y149815D01*
X172812Y149784D01*
X172843Y149756D01*
X172846Y149754D01*
X172851Y149751D01*
X172860Y149743D01*
X172873Y149734D01*
X172893Y149723D01*
X172912Y149712D01*
X172937Y149698D01*
X172968Y149684D01*
X173001Y149671D01*
X173037Y149657D01*
X173078Y149646D01*
X173123Y149635D01*
X173173Y149626D01*
X173225Y149618D01*
X173281Y149615D01*
X173342Y149612D01*
X173372D01*
X173394Y149615D01*
X173422Y149618D01*
X173455Y149621D01*
X173488Y149626D01*
X173527Y149632D01*
X173608Y149648D01*
X173688Y149676D01*
X173729Y149693D01*
X173768Y149712D01*
X173804Y149737D01*
X173837Y149762D01*
X173840Y149765D01*
X173846Y149770D01*
X173854Y149779D01*
X173862Y149790D01*
X173876Y149803D01*
X173890Y149823D01*
X173907Y149842D01*
X173921Y149867D01*
X173954Y149920D01*
X173979Y149986D01*
X173990Y150022D01*
X173998Y150061D01*
X174004Y150103D01*
X174006Y150144D01*
Y150147D01*
Y150155D01*
Y150166D01*
X174004Y150183D01*
X174001Y150202D01*
X173998Y150225D01*
X173984Y150277D01*
X173965Y150338D01*
X173951Y150369D01*
X173937Y150402D01*
X173918Y150432D01*
X173896Y150466D01*
X173871Y150496D01*
X173840Y150524D01*
X173837Y150526D01*
X173832Y150529D01*
X173824Y150538D01*
X173810Y150546D01*
X173790Y150560D01*
X173768Y150571D01*
X173743Y150585D01*
X173713Y150599D01*
X173679Y150612D01*
X173644Y150626D01*
X173602Y150640D01*
X173555Y150651D01*
X173508Y150660D01*
X173455Y150668D01*
X173397Y150671D01*
X173336Y150673D01*
D02*
G37*
G36*
X220341Y27301D02*
X219629Y27032D01*
X220341Y26772D01*
Y27301D01*
D02*
G37*
G36*
X173541Y142873D02*
X172829Y142604D01*
X173541Y142344D01*
Y142873D01*
D02*
G37*
G36*
Y146740D02*
X172829Y146471D01*
X173541Y146211D01*
Y146740D01*
D02*
G37*
G36*
X220144Y16922D02*
X220089D01*
X220067Y16919D01*
X220020Y16916D01*
X219964Y16911D01*
X219906Y16905D01*
X219853Y16894D01*
X219804Y16880D01*
X219801D01*
X219798Y16877D01*
X219784Y16872D01*
X219762Y16864D01*
X219734Y16852D01*
X219707Y16836D01*
X219676Y16816D01*
X219646Y16794D01*
X219618Y16769D01*
X219615Y16767D01*
X219607Y16758D01*
X219596Y16742D01*
X219582Y16722D01*
X219565Y16695D01*
X219552Y16664D01*
X219538Y16631D01*
X219527Y16592D01*
Y16589D01*
X219524Y16576D01*
X219521Y16553D01*
X219516Y16523D01*
Y16503D01*
X219513Y16478D01*
Y16454D01*
X219510Y16426D01*
Y16393D01*
X219507Y16357D01*
Y16318D01*
Y16276D01*
Y16105D01*
X220776D01*
Y16390D01*
Y16393D01*
Y16398D01*
Y16407D01*
Y16418D01*
Y16445D01*
X220773Y16481D01*
Y16520D01*
X220768Y16559D01*
X220765Y16595D01*
X220759Y16625D01*
Y16631D01*
X220754Y16642D01*
X220748Y16659D01*
X220740Y16681D01*
X220729Y16706D01*
X220715Y16731D01*
X220698Y16756D01*
X220679Y16781D01*
X220676Y16783D01*
X220668Y16792D01*
X220654Y16803D01*
X220635Y16816D01*
X220610Y16830D01*
X220579Y16850D01*
X220540Y16864D01*
X220496Y16880D01*
X220493D01*
X220491Y16883D01*
X220482D01*
X220471Y16886D01*
X220460Y16891D01*
X220444Y16894D01*
X220402Y16902D01*
X220352Y16908D01*
X220294Y16916D01*
X220222Y16919D01*
X220144Y16922D01*
D02*
G37*
G36*
X173344Y132488D02*
X173289D01*
X173267Y132485D01*
X173220Y132483D01*
X173164Y132477D01*
X173106Y132472D01*
X173054Y132461D01*
X173004Y132447D01*
X173001D01*
X172998Y132444D01*
X172984Y132438D01*
X172962Y132430D01*
X172934Y132419D01*
X172907Y132402D01*
X172876Y132383D01*
X172846Y132361D01*
X172818Y132336D01*
X172815Y132333D01*
X172807Y132325D01*
X172796Y132308D01*
X172782Y132289D01*
X172765Y132261D01*
X172752Y132231D01*
X172738Y132197D01*
X172727Y132159D01*
Y132156D01*
X172724Y132142D01*
X172721Y132120D01*
X172716Y132089D01*
Y132070D01*
X172713Y132045D01*
Y132020D01*
X172710Y131992D01*
Y131959D01*
X172707Y131923D01*
Y131884D01*
Y131843D01*
Y131671D01*
X173976D01*
Y131956D01*
Y131959D01*
Y131965D01*
Y131973D01*
Y131984D01*
Y132012D01*
X173973Y132048D01*
Y132087D01*
X173968Y132125D01*
X173965Y132161D01*
X173959Y132192D01*
Y132197D01*
X173954Y132209D01*
X173948Y132225D01*
X173940Y132247D01*
X173929Y132272D01*
X173915Y132297D01*
X173898Y132322D01*
X173879Y132347D01*
X173876Y132350D01*
X173868Y132358D01*
X173854Y132369D01*
X173835Y132383D01*
X173810Y132397D01*
X173779Y132416D01*
X173740Y132430D01*
X173696Y132447D01*
X173693D01*
X173691Y132449D01*
X173682D01*
X173671Y132452D01*
X173660Y132458D01*
X173644Y132461D01*
X173602Y132469D01*
X173552Y132474D01*
X173494Y132483D01*
X173422Y132485D01*
X173344Y132488D01*
D02*
G37*
G36*
X170048Y38628D02*
X170032D01*
X170015Y38625D01*
X169993Y38622D01*
X169968Y38614D01*
X169943Y38606D01*
X169915Y38592D01*
X169893Y38575D01*
X169890Y38573D01*
X169882Y38567D01*
X169874Y38553D01*
X169860Y38537D01*
X169846Y38517D01*
X169835Y38492D01*
X169824Y38462D01*
X169816Y38429D01*
Y38426D01*
X169813Y38418D01*
Y38401D01*
X169810Y38376D01*
Y38359D01*
Y38340D01*
Y38315D01*
X169807Y38290D01*
Y38260D01*
Y38226D01*
Y38188D01*
Y38146D01*
Y37847D01*
X170295D01*
Y38132D01*
Y38135D01*
Y38143D01*
Y38157D01*
Y38177D01*
Y38199D01*
Y38224D01*
X170292Y38279D01*
X170289Y38337D01*
X170287Y38395D01*
X170284Y38420D01*
X170281Y38443D01*
X170275Y38465D01*
X170273Y38478D01*
Y38481D01*
X170267Y38489D01*
X170262Y38503D01*
X170253Y38517D01*
X170228Y38553D01*
X170212Y38570D01*
X170192Y38587D01*
X170189Y38589D01*
X170181Y38592D01*
X170170Y38600D01*
X170153Y38609D01*
X170131Y38614D01*
X170106Y38622D01*
X170079Y38625D01*
X170048Y38628D01*
D02*
G37*
G36*
X222844Y128422D02*
X222789D01*
X222767Y128419D01*
X222720Y128416D01*
X222664Y128411D01*
X222606Y128405D01*
X222553Y128394D01*
X222504Y128380D01*
X222501D01*
X222498Y128377D01*
X222484Y128372D01*
X222462Y128364D01*
X222434Y128352D01*
X222407Y128336D01*
X222376Y128316D01*
X222346Y128294D01*
X222318Y128269D01*
X222315Y128267D01*
X222307Y128258D01*
X222296Y128242D01*
X222282Y128222D01*
X222265Y128195D01*
X222252Y128164D01*
X222238Y128131D01*
X222227Y128092D01*
Y128089D01*
X222224Y128076D01*
X222221Y128053D01*
X222216Y128023D01*
Y128004D01*
X222213Y127979D01*
Y127954D01*
X222210Y127926D01*
Y127893D01*
X222207Y127857D01*
Y127818D01*
Y127776D01*
Y127605D01*
X223476D01*
Y127890D01*
Y127893D01*
Y127898D01*
Y127907D01*
Y127918D01*
Y127945D01*
X223473Y127981D01*
Y128020D01*
X223468Y128059D01*
X223465Y128095D01*
X223459Y128125D01*
Y128131D01*
X223454Y128142D01*
X223448Y128159D01*
X223440Y128181D01*
X223429Y128206D01*
X223415Y128231D01*
X223398Y128255D01*
X223379Y128280D01*
X223376Y128283D01*
X223368Y128291D01*
X223354Y128303D01*
X223335Y128316D01*
X223310Y128330D01*
X223279Y128350D01*
X223240Y128364D01*
X223196Y128380D01*
X223193D01*
X223191Y128383D01*
X223182D01*
X223171Y128386D01*
X223160Y128391D01*
X223144Y128394D01*
X223102Y128402D01*
X223052Y128408D01*
X222994Y128416D01*
X222922Y128419D01*
X222844Y128422D01*
D02*
G37*
G36*
X220144Y14988D02*
X220089D01*
X220067Y14986D01*
X220020Y14983D01*
X219964Y14977D01*
X219906Y14972D01*
X219853Y14961D01*
X219804Y14947D01*
X219801D01*
X219798Y14944D01*
X219784Y14938D01*
X219762Y14930D01*
X219734Y14919D01*
X219707Y14902D01*
X219676Y14883D01*
X219646Y14861D01*
X219618Y14836D01*
X219615Y14833D01*
X219607Y14825D01*
X219596Y14808D01*
X219582Y14789D01*
X219565Y14761D01*
X219552Y14731D01*
X219538Y14697D01*
X219527Y14659D01*
Y14656D01*
X219524Y14642D01*
X219521Y14620D01*
X219516Y14589D01*
Y14570D01*
X219513Y14545D01*
Y14520D01*
X219510Y14492D01*
Y14459D01*
X219507Y14423D01*
Y14384D01*
Y14343D01*
Y14171D01*
X220776D01*
Y14456D01*
Y14459D01*
Y14465D01*
Y14473D01*
Y14484D01*
Y14512D01*
X220773Y14548D01*
Y14587D01*
X220768Y14625D01*
X220765Y14661D01*
X220759Y14692D01*
Y14697D01*
X220754Y14708D01*
X220748Y14725D01*
X220740Y14747D01*
X220729Y14772D01*
X220715Y14797D01*
X220698Y14822D01*
X220679Y14847D01*
X220676Y14850D01*
X220668Y14858D01*
X220654Y14869D01*
X220635Y14883D01*
X220610Y14897D01*
X220579Y14916D01*
X220540Y14930D01*
X220496Y14947D01*
X220493D01*
X220491Y14950D01*
X220482D01*
X220471Y14952D01*
X220460Y14958D01*
X220444Y14961D01*
X220402Y14969D01*
X220352Y14974D01*
X220294Y14983D01*
X220222Y14986D01*
X220144Y14988D01*
D02*
G37*
G36*
X173344Y134422D02*
X173289D01*
X173267Y134419D01*
X173220Y134416D01*
X173164Y134411D01*
X173106Y134405D01*
X173054Y134394D01*
X173004Y134380D01*
X173001D01*
X172998Y134377D01*
X172984Y134372D01*
X172962Y134364D01*
X172934Y134353D01*
X172907Y134336D01*
X172876Y134317D01*
X172846Y134294D01*
X172818Y134269D01*
X172815Y134267D01*
X172807Y134258D01*
X172796Y134242D01*
X172782Y134222D01*
X172765Y134195D01*
X172752Y134164D01*
X172738Y134131D01*
X172727Y134092D01*
Y134089D01*
X172724Y134075D01*
X172721Y134053D01*
X172716Y134023D01*
Y134003D01*
X172713Y133978D01*
Y133954D01*
X172710Y133926D01*
Y133893D01*
X172707Y133857D01*
Y133818D01*
Y133776D01*
Y133605D01*
X173976D01*
Y133890D01*
Y133893D01*
Y133898D01*
Y133906D01*
Y133918D01*
Y133945D01*
X173973Y133981D01*
Y134020D01*
X173968Y134059D01*
X173965Y134095D01*
X173959Y134125D01*
Y134131D01*
X173954Y134142D01*
X173948Y134159D01*
X173940Y134181D01*
X173929Y134206D01*
X173915Y134231D01*
X173898Y134256D01*
X173879Y134281D01*
X173876Y134283D01*
X173868Y134292D01*
X173854Y134303D01*
X173835Y134317D01*
X173810Y134330D01*
X173779Y134350D01*
X173740Y134364D01*
X173696Y134380D01*
X173693D01*
X173691Y134383D01*
X173682D01*
X173671Y134386D01*
X173660Y134391D01*
X173644Y134394D01*
X173602Y134402D01*
X173552Y134408D01*
X173494Y134416D01*
X173422Y134419D01*
X173344Y134422D01*
D02*
G37*
G36*
X222844Y126488D02*
X222789D01*
X222767Y126486D01*
X222720Y126483D01*
X222664Y126477D01*
X222606Y126472D01*
X222553Y126461D01*
X222504Y126447D01*
X222501D01*
X222498Y126444D01*
X222484Y126438D01*
X222462Y126430D01*
X222434Y126419D01*
X222407Y126402D01*
X222376Y126383D01*
X222346Y126361D01*
X222318Y126336D01*
X222315Y126333D01*
X222307Y126325D01*
X222296Y126308D01*
X222282Y126289D01*
X222265Y126261D01*
X222252Y126231D01*
X222238Y126197D01*
X222227Y126159D01*
Y126156D01*
X222224Y126142D01*
X222221Y126120D01*
X222216Y126089D01*
Y126070D01*
X222213Y126045D01*
Y126020D01*
X222210Y125992D01*
Y125959D01*
X222207Y125923D01*
Y125884D01*
Y125843D01*
Y125671D01*
X223476D01*
Y125956D01*
Y125959D01*
Y125965D01*
Y125973D01*
Y125984D01*
Y126012D01*
X223473Y126048D01*
Y126087D01*
X223468Y126125D01*
X223465Y126161D01*
X223459Y126192D01*
Y126197D01*
X223454Y126208D01*
X223448Y126225D01*
X223440Y126247D01*
X223429Y126272D01*
X223415Y126297D01*
X223398Y126322D01*
X223379Y126347D01*
X223376Y126350D01*
X223368Y126358D01*
X223354Y126369D01*
X223335Y126383D01*
X223310Y126397D01*
X223279Y126416D01*
X223240Y126430D01*
X223196Y126447D01*
X223193D01*
X223191Y126450D01*
X223182D01*
X223171Y126452D01*
X223160Y126458D01*
X223144Y126461D01*
X223102Y126469D01*
X223052Y126474D01*
X222994Y126483D01*
X222922Y126486D01*
X222844Y126488D01*
D02*
G37*
%LPD*%
D39*
X254621Y177900D02*
X257200D01*
X245200Y252100D02*
Y254679D01*
X129100Y79421D02*
Y82000D01*
X129300Y85620D02*
Y88200D01*
X99778Y264984D02*
Y267543D01*
Y260456D02*
Y263015D01*
X97022Y264984D02*
Y267543D01*
Y260456D02*
Y263015D01*
Y260456D02*
X99778D01*
X97022Y267543D02*
X99778Y267543D01*
X104478Y265084D02*
Y267643D01*
Y260556D02*
Y263115D01*
X101722Y265084D02*
Y267643D01*
Y260556D02*
Y263115D01*
Y260556D02*
X104478D01*
X101722Y267643D02*
X104478Y267643D01*
X108730Y235570D02*
Y236830D01*
X111958Y231948D02*
X112430D01*
X115659Y235570D02*
Y236830D01*
X111958Y240452D02*
X112430D01*
X106157Y258478D02*
X108716D01*
X110685D02*
X113244D01*
X106157Y255722D02*
X108716D01*
X110685D02*
X113244D01*
Y258478D01*
X106157D02*
X106157Y255722D01*
X144522Y228057D02*
Y230616D01*
Y232585D02*
Y235144D01*
X147278Y228057D02*
Y230616D01*
Y232585D02*
Y235144D01*
X144522D02*
X147278D01*
X144522Y228057D02*
X147278Y228057D01*
X116022Y255557D02*
X118778D01*
X116022Y262644D02*
X118778D01*
Y260085D02*
Y262644D01*
Y255557D02*
Y258116D01*
X116022Y260085D02*
Y262644D01*
Y255557D02*
Y258116D01*
X115443Y251122D02*
Y253878D01*
X108356Y251122D02*
Y253878D01*
X110915D01*
X112884D02*
X115443D01*
X108356Y251122D02*
X110915D01*
X112884D02*
X115443D01*
X108944Y246622D02*
Y249378D01*
X116031Y246622D02*
Y249378D01*
X113472Y246622D02*
X116031D01*
X108944D02*
X111504D01*
X113472Y249378D02*
X116031D01*
X108944D02*
X111504D01*
X164543Y266922D02*
Y269678D01*
X157456Y266922D02*
Y269678D01*
X160015D01*
X161984D02*
X164543D01*
X157456Y266922D02*
X160015D01*
X161984D02*
X164543D01*
X174343Y256822D02*
Y259578D01*
X167256Y256822D02*
Y259578D01*
X169815D01*
X171784D02*
X174343D01*
X167256Y256822D02*
X169815D01*
X171784D02*
X174343D01*
X104057Y242522D02*
Y245278D01*
X111144Y242522D02*
Y245278D01*
X108585Y242522D02*
X111144D01*
X104057D02*
X106616D01*
X108585Y245278D02*
X111144D01*
X104057D02*
X106616D01*
X122932Y226074D02*
X126868D01*
X122932Y235326D02*
X126868Y235326D01*
Y231684D02*
Y235326D01*
Y226074D02*
Y229716D01*
X122932Y231684D02*
Y235326D01*
Y226074D02*
Y229716D01*
X162743Y239922D02*
Y242678D01*
X155656Y239922D02*
Y242678D01*
X158215D01*
X160184D02*
X162743D01*
X155656Y239922D02*
X158215D01*
X160184D02*
X162743D01*
X174443Y237722D02*
Y240478D01*
X167356Y237722D02*
Y240478D01*
X169915D01*
X171884D02*
X174443D01*
X167356Y237722D02*
X169915D01*
X171884D02*
X174443D01*
X108944Y226722D02*
Y229478D01*
X116031Y226722D02*
Y229478D01*
X113472Y226722D02*
X116031D01*
X108944D02*
X111504D01*
X113472Y229478D02*
X116031D01*
X108944D02*
X111504D01*
X137831Y234226D02*
X141769D01*
X137831Y224974D02*
X141769Y224974D01*
X137831Y224974D02*
Y228616D01*
Y230584D02*
Y234226D01*
X141769Y224974D02*
Y228616D01*
Y230584D02*
Y234226D01*
X216900Y60921D02*
Y63500D01*
X236200Y70400D02*
Y72979D01*
X177100Y18100D02*
X179680D01*
X183700Y39920D02*
Y42500D01*
X167400Y53100D02*
X169980D01*
X182921Y68400D02*
X185500D01*
X191200Y69900D02*
Y72479D01*
X202500Y69920D02*
Y72500D01*
X212900Y70121D02*
Y72700D01*
X230800Y112400D02*
Y114980D01*
X227700Y101920D02*
Y104500D01*
X181300Y111200D02*
Y113779D01*
X170900Y112700D02*
Y115279D01*
X154720Y118700D02*
X157300D01*
X160421Y118600D02*
X163000D01*
X200820Y146900D02*
X203400D01*
D40*
X293550Y178848D02*
Y172850D01*
X297549D01*
X299548Y173850D02*
X300548Y172850D01*
X302547D01*
X303547Y173850D01*
Y177848D01*
X302547Y178848D01*
X300548D01*
X299548Y177848D01*
Y176849D01*
X300548Y175849D01*
X303547D01*
D60*
X303392Y251000D02*
G03*
X303392Y251000I-492J0D01*
G01*
X275692Y268400D02*
G03*
X275692Y268400I-492J0D01*
G01*
X254492Y217700D02*
G03*
X254492Y217700I-492J0D01*
G01*
X207492Y224900D02*
G03*
X207492Y224900I-492J0D01*
G01*
X313392Y205400D02*
G03*
X313392Y205400I-492J0D01*
G01*
X345392Y268200D02*
G03*
X345392Y268200I-492J0D01*
G01*
X179485Y70657D02*
G03*
X179485Y70657I-492J0D01*
G01*
X154546Y246739D02*
G03*
X154546Y246739I-492J0D01*
G01*
D61*
X155585Y53152D02*
G03*
X155585Y53152I-98J0D01*
G01*
X364400Y268086D02*
Y268381D01*
X362400Y268086D02*
Y268381D01*
X313219Y278000D02*
X313514D01*
X313219Y276000D02*
X313514D01*
X315221Y265800D02*
X315442D01*
X315213Y267816D02*
X315434D01*
X303821Y266300D02*
X304042D01*
X303813Y268316D02*
X304034D01*
X303858Y272200D02*
X304079D01*
X303866Y270184D02*
X304087D01*
X240900Y277519D02*
Y277814D01*
X242900Y277519D02*
Y277814D01*
X317762Y76628D02*
X325636D01*
Y80172D01*
X317762D02*
X325636D01*
X317762Y76628D02*
Y80172D01*
Y71728D02*
X325636D01*
Y75272D01*
X317762D02*
X325636D01*
X317762Y71728D02*
Y75272D01*
Y116728D02*
X325636D01*
Y120272D01*
X317762D02*
X325636D01*
X317762Y116728D02*
Y120272D01*
Y66928D02*
X325636D01*
Y70472D01*
X317762D02*
X325636D01*
X317762Y66928D02*
Y70472D01*
X283463Y69028D02*
Y72572D01*
X291337D01*
Y69028D02*
Y72572D01*
X283463Y69028D02*
X291337D01*
X283463Y73628D02*
Y77172D01*
X291337D01*
Y73628D02*
Y77172D01*
X283463Y73628D02*
X291337D01*
X317762Y111595D02*
Y115138D01*
X325636D01*
Y111595D02*
Y115138D01*
X317762Y111595D02*
X325636D01*
X110237Y147623D02*
Y151166D01*
X102363Y147623D02*
X110237D01*
X102363D02*
Y151166D01*
X110237D01*
X102363Y88528D02*
Y92072D01*
X110237D01*
Y88528D02*
Y92072D01*
X102363Y88528D02*
X110237D01*
X317762Y81128D02*
Y84672D01*
X325636D01*
Y81128D02*
Y84672D01*
X317762Y81128D02*
X325636D01*
X317762Y106462D02*
Y110005D01*
X325636D01*
Y106462D02*
Y110005D01*
X317762Y106462D02*
X325636D01*
X102363Y94438D02*
Y97981D01*
X110237D01*
Y94438D02*
Y97981D01*
X102363Y94438D02*
X110237D01*
X317762Y101328D02*
Y104872D01*
X325636D01*
Y101328D02*
Y104872D01*
X317762Y101328D02*
X325636D01*
X110237Y141714D02*
Y145257D01*
X102363Y141714D02*
X110237D01*
X102363D02*
Y145257D01*
X110237D01*
X102363Y100347D02*
Y103891D01*
X110237D01*
Y100347D02*
Y103891D01*
X102363Y100347D02*
X110237D01*
X317762Y96195D02*
Y99738D01*
X325636D01*
Y96195D02*
Y99738D01*
X317762Y96195D02*
X325636D01*
X110237Y135804D02*
Y139347D01*
X102363Y135804D02*
X110237D01*
X102363D02*
Y139347D01*
X110237D01*
X102363Y106257D02*
Y109800D01*
X110237D01*
Y106257D02*
Y109800D01*
X102363Y106257D02*
X110237D01*
Y129895D02*
Y133438D01*
X102363Y129895D02*
X110237D01*
X102363D02*
Y133438D01*
X110237D01*
Y123985D02*
Y127529D01*
X102363Y123985D02*
X110237D01*
X102363D02*
Y127529D01*
X110237D01*
X317762Y91062D02*
Y94605D01*
X325636D01*
Y91062D02*
Y94605D01*
X317762Y91062D02*
X325636D01*
X317762Y85928D02*
Y89472D01*
X325636D01*
Y85928D02*
Y89472D01*
X317762Y85928D02*
X325636D01*
X110237Y118076D02*
Y121619D01*
X102363Y118076D02*
X110237D01*
X102363D02*
Y121619D01*
X110237D01*
Y112166D02*
Y115709D01*
X102363Y112166D02*
X110237D01*
X102363D02*
Y115709D01*
X110237D01*
X124600Y202319D02*
Y202614D01*
X122600Y202319D02*
Y202614D01*
X101500Y202319D02*
Y202614D01*
X99500Y202319D02*
Y202614D01*
X168537Y189828D02*
Y193372D01*
X160663Y189828D02*
X168537D01*
X160663D02*
Y193372D01*
X168537D01*
X168637Y184928D02*
Y188472D01*
X160763Y184928D02*
X168637D01*
X160763D02*
Y188472D01*
X168637D01*
X168437Y180128D02*
Y183672D01*
X160563Y180128D02*
X168437D01*
X160563D02*
Y183672D01*
X168437D01*
X155585Y54038D02*
Y58762D01*
X166215Y54038D02*
Y58762D01*
X239828Y66737D02*
X243372D01*
Y58863D02*
Y66737D01*
X239828Y58863D02*
X243372D01*
X239828D02*
Y66737D01*
X307221Y242700D02*
X307442D01*
X307213Y244716D02*
X307434D01*
D62*
X166647Y125425D02*
Y128575D01*
X172553Y125425D02*
Y128575D01*
X225147Y123225D02*
Y126375D01*
X231053Y123225D02*
Y126375D01*
X179047Y123725D02*
Y126875D01*
X184953Y123725D02*
Y126875D01*
X189347Y58325D02*
Y61475D01*
X195253Y58325D02*
Y61475D01*
X209353Y58425D02*
Y61575D01*
X203447Y58425D02*
Y61575D01*
X222253Y49325D02*
Y52475D01*
X216347Y49325D02*
Y52475D01*
X231453Y49325D02*
Y52475D01*
X225547Y49325D02*
Y52475D01*
X179053Y53125D02*
Y56275D01*
X173147Y53125D02*
Y56275D01*
X186753Y53025D02*
Y56175D01*
X180847Y53025D02*
Y56175D01*
X221653Y120325D02*
Y123475D01*
X215747Y120325D02*
Y123475D01*
X98500Y282400D02*
X158500D01*
Y292400D01*
X303594Y255316D02*
Y257284D01*
X315406Y255316D02*
Y257284D01*
X303594Y255316D02*
X315406D01*
X303594Y257284D02*
X315406D01*
X269119Y268998D02*
Y281202D01*
X271481Y268998D02*
Y281202D01*
X269119D02*
X271481D01*
X269119Y268998D02*
X271481D01*
X247919Y218298D02*
Y230502D01*
X250281Y218298D02*
Y230502D01*
X247919D02*
X250281D01*
X247919Y218298D02*
X250281D01*
X194198Y218819D02*
X206402D01*
X194198Y221181D02*
X206402D01*
X194198Y218819D02*
Y221181D01*
X206402Y218819D02*
Y221181D01*
X306819Y205998D02*
Y218202D01*
X309181Y205998D02*
Y218202D01*
X306819D02*
X309181D01*
X306819Y205998D02*
X309181D01*
X338819Y268798D02*
Y281002D01*
X341181Y268798D02*
Y281002D01*
X338819D02*
X341181D01*
X338819Y268798D02*
X341181D01*
X176434Y70066D02*
Y71838D01*
X174662Y70066D02*
X176434D01*
Y101562D02*
Y103334D01*
X174662D02*
X176434D01*
X143166Y101562D02*
Y103334D01*
X144938D01*
X143166Y70066D02*
Y71838D01*
Y70066D02*
X144938D01*
X148542Y243589D02*
X150511Y245557D01*
X126889Y243589D02*
X128858D01*
X126889D02*
Y245557D01*
Y265243D02*
Y267211D01*
X128858D01*
X148542D02*
X150511D01*
Y265243D02*
Y267211D01*
X149861Y229813D02*
Y231387D01*
X152617Y229813D02*
Y231387D01*
X126081Y230306D02*
Y231094D01*
X123719Y230306D02*
Y231094D01*
X138619Y229206D02*
Y229994D01*
X140981Y229206D02*
Y229994D01*
X373700Y266800D02*
Y286800D01*
Y266800D02*
X383700D01*
Y286800D01*
X373700D02*
X383700D01*
X359100Y17800D02*
X379100D01*
X359100Y177800D02*
X379100D01*
Y17800D02*
Y177800D01*
X359100Y17800D02*
Y177800D01*
X62300Y17300D02*
X82300D01*
X62300Y177300D02*
X82300D01*
Y17300D02*
Y177300D01*
X62300Y17300D02*
Y177300D01*
X191122Y97013D02*
Y98587D01*
X193878Y97013D02*
Y98587D01*
X199422Y86113D02*
Y87687D01*
X202178Y86113D02*
Y87687D01*
X300025Y153726D02*
X303175D01*
X300025Y169474D02*
X303175D01*
X178500Y282500D02*
X238500D01*
X178500Y292500D02*
X238500D01*
X178500Y282500D02*
Y292500D01*
X238500Y282500D02*
Y292500D01*
D63*
X156200Y231600D02*
X157600D01*
X309600Y203299D02*
Y200800D01*
X310100Y200300D01*
X311100D01*
X311599Y200800D01*
Y203299D01*
X312599Y200300D02*
X313599D01*
X313099D01*
Y203299D01*
X312599Y202799D01*
X313400Y225000D02*
Y227999D01*
X314899D01*
X315399Y227499D01*
Y226500D01*
X314899Y226000D01*
X313400D01*
X314400D02*
X315399Y225000D01*
X317899D02*
Y227999D01*
X316399Y226500D01*
X318398D01*
X216300Y227199D02*
Y224200D01*
X218299D01*
X219299D02*
X220299D01*
X219799D01*
Y227199D01*
X219299Y226699D01*
X221798Y224200D02*
X222798D01*
X222298D01*
Y227199D01*
X221798Y226699D01*
X275100Y217399D02*
Y214400D01*
X277099D01*
X278099D02*
X279099D01*
X278599D01*
Y217399D01*
X278099Y216899D01*
X280598D02*
X281098Y217399D01*
X282098D01*
X282598Y216899D01*
Y214900D01*
X282098Y214400D01*
X281098D01*
X280598Y214900D01*
Y216899D01*
X229199Y236199D02*
X228699Y236699D01*
X227700D01*
X227200Y236199D01*
Y234200D01*
X227700Y233700D01*
X228699D01*
X229199Y234200D01*
X231698Y233700D02*
Y236699D01*
X230199Y235199D01*
X232198D01*
X233198Y236199D02*
X233698Y236699D01*
X234698D01*
X235197Y236199D01*
Y235699D01*
X234698Y235199D01*
X234198D01*
X234698D01*
X235197Y234700D01*
Y234200D01*
X234698Y233700D01*
X233698D01*
X233198Y234200D01*
X297799Y224599D02*
X297300Y225099D01*
X296300D01*
X295800Y224599D01*
Y222600D01*
X296300Y222100D01*
X297300D01*
X297799Y222600D01*
X300299Y222100D02*
Y225099D01*
X298799Y223600D01*
X300798D01*
X303797Y222100D02*
X301798D01*
X303797Y224099D01*
Y224599D01*
X303298Y225099D01*
X302298D01*
X301798Y224599D01*
X256099Y210599D02*
X255599Y211099D01*
X254600D01*
X254100Y210599D01*
Y208600D01*
X254600Y208100D01*
X255599D01*
X256099Y208600D01*
X258598Y208100D02*
Y211099D01*
X257099Y209599D01*
X259098D01*
X260098Y208100D02*
X261098D01*
X260598D01*
Y211099D01*
X260098Y210599D01*
X327799Y208999D02*
X327299Y209499D01*
X326300D01*
X325800Y208999D01*
Y207000D01*
X326300Y206500D01*
X327299D01*
X327799Y207000D01*
X330298Y206500D02*
Y209499D01*
X328799Y207999D01*
X330798D01*
X331798Y208999D02*
X332298Y209499D01*
X333298D01*
X333797Y208999D01*
Y207000D01*
X333298Y206500D01*
X332298D01*
X331798Y207000D01*
Y208999D01*
X214199Y213999D02*
X213700Y214499D01*
X212700D01*
X212200Y213999D01*
Y212000D01*
X212700Y211500D01*
X213700D01*
X214199Y212000D01*
X215199Y213999D02*
X215699Y214499D01*
X216699D01*
X217198Y213999D01*
Y213499D01*
X216699Y213000D01*
X216199D01*
X216699D01*
X217198Y212500D01*
Y212000D01*
X216699Y211500D01*
X215699D01*
X215199Y212000D01*
X218198D02*
X218698Y211500D01*
X219698D01*
X220197Y212000D01*
Y213999D01*
X219698Y214499D01*
X218698D01*
X218198Y213999D01*
Y213499D01*
X218698Y213000D01*
X220197D01*
X228599Y226599D02*
X228099Y227099D01*
X227100D01*
X226600Y226599D01*
Y224600D01*
X227100Y224100D01*
X228099D01*
X228599Y224600D01*
X229599Y226599D02*
X230099Y227099D01*
X231099D01*
X231598Y226599D01*
Y226099D01*
X231099Y225600D01*
X230599D01*
X231099D01*
X231598Y225100D01*
Y224600D01*
X231099Y224100D01*
X230099D01*
X229599Y224600D01*
X232598Y226599D02*
X233098Y227099D01*
X234098D01*
X234597Y226599D01*
Y226099D01*
X234098Y225600D01*
X234597Y225100D01*
Y224600D01*
X234098Y224100D01*
X233098D01*
X232598Y224600D01*
Y225100D01*
X233098Y225600D01*
X232598Y226099D01*
Y226599D01*
X233098Y225600D02*
X234098D01*
X240999Y213699D02*
X240499Y214199D01*
X239500D01*
X239000Y213699D01*
Y211700D01*
X239500Y211200D01*
X240499D01*
X240999Y211700D01*
X241999Y213699D02*
X242499Y214199D01*
X243498D01*
X243998Y213699D01*
Y213199D01*
X243498Y212700D01*
X242999D01*
X243498D01*
X243998Y212200D01*
Y211700D01*
X243498Y211200D01*
X242499D01*
X241999Y211700D01*
X244998Y214199D02*
X246997D01*
Y213699D01*
X244998Y211700D01*
Y211200D01*
X267601Y225399D02*
X267101Y224900D01*
Y223900D01*
X267601Y223400D01*
X269600D01*
X270100Y223900D01*
Y224900D01*
X269600Y225399D01*
X267601Y226399D02*
X267101Y226899D01*
Y227899D01*
X267601Y228398D01*
X268101D01*
X268601Y227899D01*
Y227399D01*
Y227899D01*
X269100Y228398D01*
X269600D01*
X270100Y227899D01*
Y226899D01*
X269600Y226399D01*
X267101Y231397D02*
X267601Y230398D01*
X268601Y229398D01*
X269600D01*
X270100Y229898D01*
Y230898D01*
X269600Y231397D01*
X269100D01*
X268601Y230898D01*
Y229398D01*
X296799Y198399D02*
X296300Y198899D01*
X295300D01*
X294800Y198399D01*
Y196400D01*
X295300Y195900D01*
X296300D01*
X296799Y196400D01*
X297799Y198399D02*
X298299Y198899D01*
X299299D01*
X299798Y198399D01*
Y197899D01*
X299299Y197399D01*
X298799D01*
X299299D01*
X299798Y196900D01*
Y196400D01*
X299299Y195900D01*
X298299D01*
X297799Y196400D01*
X302797Y198899D02*
X300798D01*
Y197399D01*
X301798Y197899D01*
X302298D01*
X302797Y197399D01*
Y196400D01*
X302298Y195900D01*
X301298D01*
X300798Y196400D01*
X277299Y202599D02*
X276800Y203099D01*
X275800D01*
X275300Y202599D01*
Y200600D01*
X275800Y200100D01*
X276800D01*
X277299Y200600D01*
X278299Y202599D02*
X278799Y203099D01*
X279799D01*
X280298Y202599D01*
Y202099D01*
X279799Y201600D01*
X279299D01*
X279799D01*
X280298Y201100D01*
Y200600D01*
X279799Y200100D01*
X278799D01*
X278299Y200600D01*
X282798Y200100D02*
Y203099D01*
X281298Y201600D01*
X283297D01*
X171600Y134600D02*
X168601D01*
Y136100D01*
X169101Y136599D01*
X170100D01*
X170600Y136100D01*
Y134600D01*
Y135600D02*
X171600Y136599D01*
X168601Y139598D02*
X169101Y138599D01*
X170100Y137599D01*
X171100D01*
X171600Y138099D01*
Y139099D01*
X171100Y139598D01*
X170600D01*
X170100Y139099D01*
Y137599D01*
X168601Y142597D02*
X169101Y141598D01*
X170100Y140598D01*
X171100D01*
X171600Y141098D01*
Y142098D01*
X171100Y142597D01*
X170600D01*
X170100Y142098D01*
Y140598D01*
X233200Y129800D02*
Y132799D01*
X234700D01*
X235199Y132299D01*
Y131299D01*
X234700Y130800D01*
X233200D01*
X234200D02*
X235199Y129800D01*
X238198Y132799D02*
X237199Y132299D01*
X236199Y131299D01*
Y130300D01*
X236699Y129800D01*
X237699D01*
X238198Y130300D01*
Y130800D01*
X237699Y131299D01*
X236199D01*
X241197Y132799D02*
X239198D01*
Y131299D01*
X240198Y131799D01*
X240698D01*
X241197Y131299D01*
Y130300D01*
X240698Y129800D01*
X239698D01*
X239198Y130300D01*
X186900Y130700D02*
X183901D01*
Y132200D01*
X184401Y132699D01*
X185400D01*
X185900Y132200D01*
Y130700D01*
Y131700D02*
X186900Y132699D01*
X183901Y135698D02*
X184401Y134699D01*
X185400Y133699D01*
X186400D01*
X186900Y134199D01*
Y135199D01*
X186400Y135698D01*
X185900D01*
X185400Y135199D01*
Y133699D01*
X186900Y138198D02*
X183901D01*
X185400Y136698D01*
Y138697D01*
X206100Y124600D02*
Y127599D01*
X207599D01*
X208099Y127099D01*
Y126100D01*
X207599Y125600D01*
X206100D01*
X207100D02*
X208099Y124600D01*
X211098Y127599D02*
X210099Y127099D01*
X209099Y126100D01*
Y125100D01*
X209599Y124600D01*
X210598D01*
X211098Y125100D01*
Y125600D01*
X210598Y126100D01*
X209099D01*
X212098Y127099D02*
X212598Y127599D01*
X213598D01*
X214097Y127099D01*
Y126599D01*
X213598Y126100D01*
X213098D01*
X213598D01*
X214097Y125600D01*
Y125100D01*
X213598Y124600D01*
X212598D01*
X212098Y125100D01*
X191800Y65200D02*
Y68199D01*
X193299D01*
X193799Y67699D01*
Y66699D01*
X193299Y66200D01*
X191800D01*
X192800D02*
X193799Y65200D01*
X196798Y68199D02*
X195799Y67699D01*
X194799Y66699D01*
Y65700D01*
X195299Y65200D01*
X196299D01*
X196798Y65700D01*
Y66200D01*
X196299Y66699D01*
X194799D01*
X199797Y65200D02*
X197798D01*
X199797Y67199D01*
Y67699D01*
X199298Y68199D01*
X198298D01*
X197798Y67699D01*
X201900Y51100D02*
Y54099D01*
X203399D01*
X203899Y53599D01*
Y52600D01*
X203399Y52100D01*
X201900D01*
X202900D02*
X203899Y51100D01*
X206898Y54099D02*
X205899Y53599D01*
X204899Y52600D01*
Y51600D01*
X205399Y51100D01*
X206399D01*
X206898Y51600D01*
Y52100D01*
X206399Y52600D01*
X204899D01*
X207898Y51100D02*
X208898D01*
X208398D01*
Y54099D01*
X207898Y53599D01*
X215300Y42000D02*
Y44999D01*
X216799D01*
X217299Y44499D01*
Y43499D01*
X216799Y43000D01*
X215300D01*
X216300D02*
X217299Y42000D01*
X220298Y44999D02*
X219299Y44499D01*
X218299Y43499D01*
Y42500D01*
X218799Y42000D01*
X219798D01*
X220298Y42500D01*
Y43000D01*
X219798Y43499D01*
X218299D01*
X221298Y44499D02*
X221798Y44999D01*
X222798D01*
X223297Y44499D01*
Y42500D01*
X222798Y42000D01*
X221798D01*
X221298Y42500D01*
Y44499D01*
X233000Y44800D02*
Y47799D01*
X234500D01*
X234999Y47299D01*
Y46299D01*
X234500Y45800D01*
X233000D01*
X234000D02*
X234999Y44800D01*
X237998Y47799D02*
X235999D01*
Y46299D01*
X236999Y46799D01*
X237498D01*
X237998Y46299D01*
Y45300D01*
X237498Y44800D01*
X236499D01*
X235999Y45300D01*
X238998D02*
X239498Y44800D01*
X240498D01*
X240997Y45300D01*
Y47299D01*
X240498Y47799D01*
X239498D01*
X238998Y47299D01*
Y46799D01*
X239498Y46299D01*
X240997D01*
X172300Y44900D02*
Y47899D01*
X173800D01*
X174299Y47399D01*
Y46400D01*
X173800Y45900D01*
X172300D01*
X173300D02*
X174299Y44900D01*
X177298Y47899D02*
X175299D01*
Y46400D01*
X176299Y46899D01*
X176799D01*
X177298Y46400D01*
Y45400D01*
X176799Y44900D01*
X175799D01*
X175299Y45400D01*
X178298Y47399D02*
X178798Y47899D01*
X179798D01*
X180297Y47399D01*
Y46899D01*
X179798Y46400D01*
X180297Y45900D01*
Y45400D01*
X179798Y44900D01*
X178798D01*
X178298Y45400D01*
Y45900D01*
X178798Y46400D01*
X178298Y46899D01*
Y47399D01*
X178798Y46400D02*
X179798D01*
X186500Y46800D02*
Y49799D01*
X187999D01*
X188499Y49299D01*
Y48300D01*
X187999Y47800D01*
X186500D01*
X187500D02*
X188499Y46800D01*
X191498Y49799D02*
X189499D01*
Y48300D01*
X190499Y48799D01*
X190999D01*
X191498Y48300D01*
Y47300D01*
X190999Y46800D01*
X189999D01*
X189499Y47300D01*
X192498Y49799D02*
X194497D01*
Y49299D01*
X192498Y47300D01*
Y46800D01*
X207599Y144499D02*
X207100Y144999D01*
X206100D01*
X205600Y144499D01*
Y142500D01*
X206100Y142000D01*
X207100D01*
X207599Y142500D01*
X208599Y144999D02*
Y142000D01*
X210099D01*
X210598Y142500D01*
Y143000D01*
Y143500D01*
X210099Y143999D01*
X208599D01*
X213098Y142000D02*
Y144999D01*
X211598Y143500D01*
X213597D01*
X216596Y144999D02*
X215597Y144499D01*
X214597Y143500D01*
Y142500D01*
X215097Y142000D01*
X216097D01*
X216596Y142500D01*
Y143000D01*
X216097Y143500D01*
X214597D01*
X167899Y41899D02*
X167400Y42399D01*
X166400D01*
X165900Y41899D01*
Y39900D01*
X166400Y39400D01*
X167400D01*
X167899Y39900D01*
X168899Y42399D02*
Y39400D01*
X170399D01*
X170898Y39900D01*
Y40400D01*
Y40900D01*
X170399Y41399D01*
X168899D01*
X173398Y39400D02*
Y42399D01*
X171898Y40900D01*
X173897D01*
X176896Y42399D02*
X174897D01*
Y40900D01*
X175897Y41399D01*
X176397D01*
X176896Y40900D01*
Y39900D01*
X176397Y39400D01*
X175397D01*
X174897Y39900D01*
X184599Y15899D02*
X184099Y16399D01*
X183100D01*
X182600Y15899D01*
Y13900D01*
X183100Y13400D01*
X184099D01*
X184599Y13900D01*
X185599Y16399D02*
Y13400D01*
X187099D01*
X187598Y13900D01*
Y14400D01*
Y14899D01*
X187099Y15399D01*
X185599D01*
X190098Y13400D02*
Y16399D01*
X188598Y14899D01*
X190597D01*
X193097Y13400D02*
Y16399D01*
X191597Y14899D01*
X193596D01*
X261299Y176599D02*
X260800Y177099D01*
X259800D01*
X259300Y176599D01*
Y174600D01*
X259800Y174100D01*
X260800D01*
X261299Y174600D01*
X262299Y177099D02*
Y174100D01*
X263798D01*
X264298Y174600D01*
Y175100D01*
Y175600D01*
X263798Y176099D01*
X262299D01*
X266798Y174100D02*
Y177099D01*
X265298Y175600D01*
X267297D01*
X268297Y176599D02*
X268797Y177099D01*
X269797D01*
X270296Y176599D01*
Y176099D01*
X269797Y175600D01*
X269297D01*
X269797D01*
X270296Y175100D01*
Y174600D01*
X269797Y174100D01*
X268797D01*
X268297Y174600D01*
X243299Y260199D02*
X242800Y260699D01*
X241800D01*
X241300Y260199D01*
Y258200D01*
X241800Y257700D01*
X242800D01*
X243299Y258200D01*
X244299Y260699D02*
Y257700D01*
X245799D01*
X246298Y258200D01*
Y258700D01*
Y259200D01*
X245799Y259699D01*
X244299D01*
X248798Y257700D02*
Y260699D01*
X247298Y259200D01*
X249297D01*
X252296Y257700D02*
X250297D01*
X252296Y259699D01*
Y260199D01*
X251797Y260699D01*
X250797D01*
X250297Y260199D01*
X127199Y87499D02*
X126700Y87999D01*
X125700D01*
X125200Y87499D01*
Y85500D01*
X125700Y85000D01*
X126700D01*
X127199Y85500D01*
X128199Y87999D02*
Y85000D01*
X129699D01*
X130198Y85500D01*
Y86000D01*
Y86500D01*
X129699Y86999D01*
X128199D01*
X132698Y85000D02*
Y87999D01*
X131198Y86500D01*
X133197D01*
X134197Y85000D02*
X135197D01*
X134697D01*
Y87999D01*
X134197Y87499D01*
X127354Y93699D02*
X126854Y94199D01*
X125854D01*
X125354Y93699D01*
Y91700D01*
X125854Y91200D01*
X126854D01*
X127354Y91700D01*
X128354Y94199D02*
Y91200D01*
X129853D01*
X130353Y91700D01*
Y92200D01*
Y92699D01*
X129853Y93199D01*
X128354D01*
X132852Y91200D02*
Y94199D01*
X131352Y92699D01*
X133352D01*
X134352Y93699D02*
X134851Y94199D01*
X135851D01*
X136351Y93699D01*
Y91700D01*
X135851Y91200D01*
X134851D01*
X134352Y91700D01*
Y93699D01*
X154101Y130399D02*
X153601Y129900D01*
Y128900D01*
X154101Y128400D01*
X156100D01*
X156600Y128900D01*
Y129900D01*
X156100Y130399D01*
X153601Y131399D02*
X156600D01*
Y132899D01*
X156100Y133398D01*
X155600D01*
X155101D01*
X154601Y132899D01*
Y131399D01*
X154101Y134398D02*
X153601Y134898D01*
Y135898D01*
X154101Y136397D01*
X154601D01*
X155101Y135898D01*
Y135398D01*
Y135898D01*
X155600Y136397D01*
X156100D01*
X156600Y135898D01*
Y134898D01*
X156100Y134398D01*
Y137397D02*
X156600Y137897D01*
Y138897D01*
X156100Y139396D01*
X154101D01*
X153601Y138897D01*
Y137897D01*
X154101Y137397D01*
X154601D01*
X155101Y137897D01*
Y139396D01*
X160701Y130399D02*
X160201Y129900D01*
Y128900D01*
X160701Y128400D01*
X162700D01*
X163200Y128900D01*
Y129900D01*
X162700Y130399D01*
X160201Y131399D02*
X163200D01*
Y132899D01*
X162700Y133398D01*
X162200D01*
X161700D01*
X161201Y132899D01*
Y131399D01*
X160701Y134398D02*
X160201Y134898D01*
Y135898D01*
X160701Y136397D01*
X161201D01*
X161700Y135898D01*
Y135398D01*
Y135898D01*
X162200Y136397D01*
X162700D01*
X163200Y135898D01*
Y134898D01*
X162700Y134398D01*
X160701Y137397D02*
X160201Y137897D01*
Y138897D01*
X160701Y139396D01*
X161201D01*
X161700Y138897D01*
X162200Y139396D01*
X162700D01*
X163200Y138897D01*
Y137897D01*
X162700Y137397D01*
X162200D01*
X161700Y137897D01*
X161201Y137397D01*
X160701D01*
X161700Y137897D02*
Y138897D01*
X214501Y77599D02*
X214001Y77100D01*
Y76100D01*
X214501Y75600D01*
X216500D01*
X217000Y76100D01*
Y77100D01*
X216500Y77599D01*
X214001Y78599D02*
X217000D01*
Y80099D01*
X216500Y80598D01*
X216000D01*
X215500D01*
X215001Y80099D01*
Y78599D01*
X214501Y81598D02*
X214001Y82098D01*
Y83098D01*
X214501Y83597D01*
X215001D01*
X215500Y83098D01*
Y82598D01*
Y83098D01*
X216000Y83597D01*
X216500D01*
X217000Y83098D01*
Y82098D01*
X216500Y81598D01*
X214001Y86596D02*
X214501Y85597D01*
X215500Y84597D01*
X216500D01*
X217000Y85097D01*
Y86097D01*
X216500Y86596D01*
X216000D01*
X215500Y86097D01*
Y84597D01*
X227899Y99199D02*
X227399Y99699D01*
X226400D01*
X225900Y99199D01*
Y97200D01*
X226400Y96700D01*
X227399D01*
X227899Y97200D01*
X228899Y99699D02*
Y96700D01*
X230399D01*
X230898Y97200D01*
Y97700D01*
Y98199D01*
X230399Y98699D01*
X228899D01*
X231898Y99199D02*
X232398Y99699D01*
X233398D01*
X233897Y99199D01*
Y98699D01*
X233398Y98199D01*
X232898D01*
X233398D01*
X233897Y97700D01*
Y97200D01*
X233398Y96700D01*
X232398D01*
X231898Y97200D01*
X236397Y96700D02*
Y99699D01*
X234897Y98199D01*
X236896D01*
X186499Y117899D02*
X186000Y118399D01*
X185000D01*
X184500Y117899D01*
Y115900D01*
X185000Y115400D01*
X186000D01*
X186499Y115900D01*
X187499Y118399D02*
Y115400D01*
X188999D01*
X189498Y115900D01*
Y116400D01*
Y116900D01*
X188999Y117399D01*
X187499D01*
X190498Y117899D02*
X190998Y118399D01*
X191998D01*
X192497Y117899D01*
Y117399D01*
X191998Y116900D01*
X191498D01*
X191998D01*
X192497Y116400D01*
Y115900D01*
X191998Y115400D01*
X190998D01*
X190498Y115900D01*
X193497Y117899D02*
X193997Y118399D01*
X194997D01*
X195496Y117899D01*
Y117399D01*
X194997Y116900D01*
X194497D01*
X194997D01*
X195496Y116400D01*
Y115900D01*
X194997Y115400D01*
X193997D01*
X193497Y115900D01*
X163699Y110699D02*
X163199Y111199D01*
X162200D01*
X161700Y110699D01*
Y108700D01*
X162200Y108200D01*
X163199D01*
X163699Y108700D01*
X164699Y111199D02*
Y108200D01*
X166199D01*
X166698Y108700D01*
Y109200D01*
Y109699D01*
X166199Y110199D01*
X164699D01*
X167698Y110699D02*
X168198Y111199D01*
X169198D01*
X169697Y110699D01*
Y110199D01*
X169198Y109699D01*
X168698D01*
X169198D01*
X169697Y109200D01*
Y108700D01*
X169198Y108200D01*
X168198D01*
X167698Y108700D01*
X172696Y108200D02*
X170697D01*
X172696Y110199D01*
Y110699D01*
X172197Y111199D01*
X171197D01*
X170697Y110699D01*
X235799Y119199D02*
X235299Y119699D01*
X234300D01*
X233800Y119199D01*
Y117200D01*
X234300Y116700D01*
X235299D01*
X235799Y117200D01*
X236799Y119699D02*
Y116700D01*
X238299D01*
X238798Y117200D01*
Y117700D01*
Y118200D01*
X238299Y118699D01*
X236799D01*
X239798Y119199D02*
X240298Y119699D01*
X241298D01*
X241797Y119199D01*
Y118699D01*
X241298Y118200D01*
X240798D01*
X241298D01*
X241797Y117700D01*
Y117200D01*
X241298Y116700D01*
X240298D01*
X239798Y117200D01*
X242797Y116700D02*
X243797D01*
X243297D01*
Y119699D01*
X242797Y119199D01*
X190701Y76599D02*
X190201Y76099D01*
Y75100D01*
X190701Y74600D01*
X192700D01*
X193200Y75100D01*
Y76099D01*
X192700Y76599D01*
X190201Y77599D02*
X193200D01*
Y79099D01*
X192700Y79598D01*
X192200D01*
X191700D01*
X191201Y79099D01*
Y77599D01*
X193200Y82597D02*
Y80598D01*
X191201Y82597D01*
X190701D01*
X190201Y82098D01*
Y81098D01*
X190701Y80598D01*
Y83597D02*
X190201Y84097D01*
Y85097D01*
X190701Y85596D01*
X191201D01*
X191700Y85097D01*
X192200Y85596D01*
X192700D01*
X193200Y85097D01*
Y84097D01*
X192700Y83597D01*
X192200D01*
X191700Y84097D01*
X191201Y83597D01*
X190701D01*
X191700Y84097D02*
Y85097D01*
X199099Y79999D02*
X198600Y80499D01*
X197600D01*
X197100Y79999D01*
Y78000D01*
X197600Y77500D01*
X198600D01*
X199099Y78000D01*
X200099Y80499D02*
Y77500D01*
X201599D01*
X202098Y78000D01*
Y78500D01*
Y79000D01*
X201599Y79499D01*
X200099D01*
X205097Y77500D02*
X203098D01*
X205097Y79499D01*
Y79999D01*
X204598Y80499D01*
X203598D01*
X203098Y79999D01*
X206097Y80499D02*
X208096D01*
Y79999D01*
X206097Y78000D01*
Y77500D01*
X183001Y76399D02*
X182501Y75899D01*
Y74900D01*
X183001Y74400D01*
X185000D01*
X185500Y74900D01*
Y75899D01*
X185000Y76399D01*
X182501Y77399D02*
X185500D01*
Y78899D01*
X185000Y79398D01*
X184500D01*
X184001D01*
X183501Y78899D01*
Y77399D01*
X185500Y82397D02*
Y80398D01*
X183501Y82397D01*
X183001D01*
X182501Y81898D01*
Y80898D01*
X183001Y80398D01*
X182501Y85396D02*
Y83397D01*
X184001D01*
X183501Y84397D01*
Y84897D01*
X184001Y85396D01*
X185000D01*
X185500Y84897D01*
Y83897D01*
X185000Y83397D01*
X158499Y45799D02*
X158000Y46299D01*
X157000D01*
X156500Y45799D01*
Y43800D01*
X157000Y43300D01*
X158000D01*
X158499Y43800D01*
X159499Y46299D02*
Y43300D01*
X160999D01*
X161498Y43800D01*
Y44300D01*
Y44800D01*
X160999Y45299D01*
X159499D01*
X164497Y43300D02*
X162498D01*
X164497Y45299D01*
Y45799D01*
X163998Y46299D01*
X162998D01*
X162498Y45799D01*
X166997Y43300D02*
Y46299D01*
X165497Y44800D01*
X167496D01*
X330399Y76260D02*
Y79259D01*
X331898D01*
X332398Y78759D01*
Y77759D01*
X331898Y77260D01*
X330399D01*
X331398D02*
X332398Y76260D01*
X335397D02*
X333398D01*
X335397Y78259D01*
Y78759D01*
X334897Y79259D01*
X333898D01*
X333398Y78759D01*
X338396Y76260D02*
X336397D01*
X338396Y78259D01*
Y78759D01*
X337896Y79259D01*
X336897D01*
X336397Y78759D01*
X330399Y71180D02*
Y74179D01*
X331898D01*
X332398Y73679D01*
Y72680D01*
X331898Y72180D01*
X330399D01*
X331398D02*
X332398Y71180D01*
X335397D02*
X333398D01*
X335397Y73179D01*
Y73679D01*
X334897Y74179D01*
X333898D01*
X333398Y73679D01*
X336397Y71180D02*
X337396D01*
X336897D01*
Y74179D01*
X336397Y73679D01*
X330399Y116900D02*
Y119899D01*
X331898D01*
X332398Y119399D01*
Y118400D01*
X331898Y117900D01*
X330399D01*
X331398D02*
X332398Y116900D01*
X335397D02*
X333398D01*
X335397Y118899D01*
Y119399D01*
X334897Y119899D01*
X333898D01*
X333398Y119399D01*
X336397D02*
X336897Y119899D01*
X337896D01*
X338396Y119399D01*
Y117400D01*
X337896Y116900D01*
X336897D01*
X336397Y117400D01*
Y119399D01*
X330399Y66100D02*
Y69099D01*
X331898D01*
X332398Y68599D01*
Y67599D01*
X331898Y67100D01*
X330399D01*
X331398D02*
X332398Y66100D01*
X333398D02*
X334397D01*
X333898D01*
Y69099D01*
X333398Y68599D01*
X335897Y66600D02*
X336397Y66100D01*
X337396D01*
X337896Y66600D01*
Y68599D01*
X337396Y69099D01*
X336397D01*
X335897Y68599D01*
Y68099D01*
X336397Y67599D01*
X337896D01*
X189399Y34199D02*
X188900Y34699D01*
X187900D01*
X187400Y34199D01*
Y32200D01*
X187900Y31700D01*
X188900D01*
X189399Y32200D01*
X190399Y34199D02*
X190899Y34699D01*
X191899D01*
X192398Y34199D01*
Y33699D01*
X191899Y33200D01*
X191399D01*
X191899D01*
X192398Y32700D01*
Y32200D01*
X191899Y31700D01*
X190899D01*
X190399Y32200D01*
X195397Y31700D02*
X193398D01*
X195397Y33699D01*
Y34199D01*
X194898Y34699D01*
X193898D01*
X193398Y34199D01*
X226200Y280199D02*
Y277200D01*
X227699D01*
X228199Y277700D01*
Y279699D01*
X227699Y280199D01*
X226200D01*
X231198D02*
X229199D01*
Y278699D01*
X230199Y279199D01*
X230698D01*
X231198Y278699D01*
Y277700D01*
X230698Y277200D01*
X229699D01*
X229199Y277700D01*
X314750Y291549D02*
Y288550D01*
X316249D01*
X316749Y289050D01*
Y291049D01*
X316249Y291549D01*
X314750D01*
X319249Y288550D02*
Y291549D01*
X317749Y290050D01*
X319748D01*
X359499Y252400D02*
X356500D01*
Y250901D01*
X357000Y250401D01*
X358999D01*
X359499Y250901D01*
Y252400D01*
X358999Y249401D02*
X359499Y248901D01*
Y247902D01*
X358999Y247402D01*
X358499D01*
X357999Y247902D01*
Y248401D01*
Y247902D01*
X357500Y247402D01*
X357000D01*
X356500Y247902D01*
Y248901D01*
X357000Y249401D01*
X189901Y158700D02*
X192900D01*
Y160699D01*
X190401Y161699D02*
X189901Y162199D01*
Y163199D01*
X190401Y163698D01*
X190901D01*
X191401Y163199D01*
X191900Y163698D01*
X192400D01*
X192900Y163199D01*
Y162199D01*
X192400Y161699D01*
X191900D01*
X191401Y162199D01*
X190901Y161699D01*
X190401D01*
X191401Y162199D02*
Y163199D01*
X206200Y37099D02*
Y34100D01*
X208199D01*
X209199Y37099D02*
X211198D01*
Y36599D01*
X209199Y34600D01*
Y34100D01*
X178851Y145349D02*
X178351Y144850D01*
Y143850D01*
X178851Y143350D01*
X180850D01*
X181350Y143850D01*
Y144850D01*
X180850Y145349D01*
X178851Y146349D02*
X178351Y146849D01*
Y147849D01*
X178851Y148348D01*
X179351D01*
X179850Y147849D01*
Y147349D01*
Y147849D01*
X180350Y148348D01*
X180850D01*
X181350Y147849D01*
Y146849D01*
X180850Y146349D01*
X178851Y149348D02*
X178351Y149848D01*
Y150848D01*
X178851Y151347D01*
X179351D01*
X179850Y150848D01*
Y150348D01*
Y150848D01*
X180350Y151347D01*
X180850D01*
X181350Y150848D01*
Y149848D01*
X180850Y149348D01*
X252200Y236299D02*
Y233800D01*
X252700Y233300D01*
X253699D01*
X254199Y233800D01*
Y236299D01*
X255199Y235799D02*
X255699Y236299D01*
X256698D01*
X257198Y235799D01*
Y235299D01*
X256698Y234800D01*
X257198Y234300D01*
Y233800D01*
X256698Y233300D01*
X255699D01*
X255199Y233800D01*
Y234300D01*
X255699Y234800D01*
X255199Y235299D01*
Y235799D01*
X255699Y234800D02*
X256698D01*
X332500Y287699D02*
Y285200D01*
X333000Y284700D01*
X334000D01*
X334499Y285200D01*
Y287699D01*
X337498D02*
X335499D01*
Y286200D01*
X336499Y286699D01*
X336999D01*
X337498Y286200D01*
Y285200D01*
X336999Y284700D01*
X335999D01*
X335499Y285200D01*
X294400Y257599D02*
Y255100D01*
X294900Y254600D01*
X295900D01*
X296399Y255100D01*
Y257599D01*
X299398D02*
X298399Y257099D01*
X297399Y256100D01*
Y255100D01*
X297899Y254600D01*
X298899D01*
X299398Y255100D01*
Y255600D01*
X298899Y256100D01*
X297399D01*
X274700Y265899D02*
Y263400D01*
X275200Y262900D01*
X276200D01*
X276699Y263400D01*
Y265899D01*
X277699D02*
X279698D01*
Y265399D01*
X277699Y263400D01*
Y262900D01*
X206600Y232099D02*
Y229600D01*
X207100Y229100D01*
X208100D01*
X208599Y229600D01*
Y232099D01*
X209599Y229600D02*
X210099Y229100D01*
X211099D01*
X211598Y229600D01*
Y231599D01*
X211099Y232099D01*
X210099D01*
X209599Y231599D01*
Y231099D01*
X210099Y230599D01*
X211598D01*
X285700Y260400D02*
X282701D01*
Y261899D01*
X283201Y262399D01*
X284201D01*
X284700Y261899D01*
Y260400D01*
Y261400D02*
X285700Y262399D01*
Y264898D02*
X282701D01*
X284201Y263399D01*
Y265398D01*
X285200Y266398D02*
X285700Y266898D01*
Y267898D01*
X285200Y268397D01*
X283201D01*
X282701Y267898D01*
Y266898D01*
X283201Y266398D01*
X283701D01*
X284201Y266898D01*
Y268397D01*
X365900Y273000D02*
X362901D01*
Y274500D01*
X363401Y274999D01*
X364401D01*
X364900Y274500D01*
Y273000D01*
Y274000D02*
X365900Y274999D01*
Y277499D02*
X362901D01*
X364401Y275999D01*
Y277998D01*
X362901Y280997D02*
X363401Y279998D01*
X364401Y278998D01*
X365400D01*
X365900Y279498D01*
Y280498D01*
X365400Y280997D01*
X364900D01*
X364401Y280498D01*
Y278998D01*
X318000Y275900D02*
Y278899D01*
X319499D01*
X319999Y278399D01*
Y277399D01*
X319499Y276900D01*
X318000D01*
X319000D02*
X319999Y275900D01*
X322498D02*
Y278899D01*
X320999Y277399D01*
X322998D01*
X323998Y278899D02*
X325997D01*
Y278399D01*
X323998Y276400D01*
Y275900D01*
X244700Y279300D02*
Y282299D01*
X246199D01*
X246699Y281799D01*
Y280800D01*
X246199Y280300D01*
X244700D01*
X245700D02*
X246699Y279300D01*
X249199D02*
Y282299D01*
X247699Y280800D01*
X249698D01*
X250698Y281799D02*
X251198Y282299D01*
X252198D01*
X252697Y281799D01*
Y281299D01*
X252198Y280800D01*
X252697Y280300D01*
Y279800D01*
X252198Y279300D01*
X251198D01*
X250698Y279800D01*
Y280300D01*
X251198Y280800D01*
X250698Y281299D01*
Y281799D01*
X251198Y280800D02*
X252198D01*
X240900Y268999D02*
Y266000D01*
X242899D01*
X245399D02*
Y268999D01*
X243899Y267500D01*
X245898D01*
X240000Y183199D02*
Y180200D01*
X241999D01*
X244998Y183199D02*
X242999D01*
Y181700D01*
X243999Y182199D01*
X244498D01*
X244998Y181700D01*
Y180700D01*
X244498Y180200D01*
X243499D01*
X242999Y180700D01*
X246500Y31599D02*
Y28600D01*
X248499D01*
X251498Y31599D02*
X250499Y31099D01*
X249499Y30099D01*
Y29100D01*
X249999Y28600D01*
X250998D01*
X251498Y29100D01*
Y29600D01*
X250998Y30099D01*
X249499D01*
X100200Y215799D02*
Y212800D01*
X101700D01*
X102199Y213300D01*
Y215299D01*
X101700Y215799D01*
X100200D01*
X103199Y212800D02*
X104199D01*
X103699D01*
Y215799D01*
X103199Y215299D01*
X117200Y215799D02*
Y212800D01*
X118700D01*
X119199Y213300D01*
Y215299D01*
X118700Y215799D01*
X117200D01*
X122198Y212800D02*
X120199D01*
X122198Y214799D01*
Y215299D01*
X121699Y215799D01*
X120699D01*
X120199Y215299D01*
X336099Y244499D02*
X335599Y244999D01*
X334600D01*
X334100Y244499D01*
Y242500D01*
X334600Y242000D01*
X335599D01*
X336099Y242500D01*
X339098Y242000D02*
X337099D01*
X339098Y243999D01*
Y244499D01*
X338598Y244999D01*
X337599D01*
X337099Y244499D01*
X342097Y242000D02*
X340098D01*
X342097Y243999D01*
Y244499D01*
X341598Y244999D01*
X340598D01*
X340098Y244499D01*
X358601Y285399D02*
X358101Y284899D01*
Y283900D01*
X358601Y283400D01*
X360600D01*
X361100Y283900D01*
Y284899D01*
X360600Y285399D01*
X361100Y288398D02*
Y286399D01*
X359101Y288398D01*
X358601D01*
X358101Y287898D01*
Y286899D01*
X358601Y286399D01*
Y289398D02*
X358101Y289898D01*
Y290898D01*
X358601Y291397D01*
X360600D01*
X361100Y290898D01*
Y289898D01*
X360600Y289398D01*
X358601D01*
X346399Y263899D02*
X345900Y264399D01*
X344900D01*
X344400Y263899D01*
Y261900D01*
X344900Y261400D01*
X345900D01*
X346399Y261900D01*
X349398Y261400D02*
X347399D01*
X349398Y263399D01*
Y263899D01*
X348899Y264399D01*
X347899D01*
X347399Y263899D01*
X351898Y261400D02*
Y264399D01*
X350398Y262899D01*
X352397D01*
X326799Y253999D02*
X326300Y254499D01*
X325300D01*
X324800Y253999D01*
Y252000D01*
X325300Y251500D01*
X326300D01*
X326799Y252000D01*
X329798Y251500D02*
X327799D01*
X329798Y253499D01*
Y253999D01*
X329298Y254499D01*
X328299D01*
X327799Y253999D01*
X330798D02*
X331298Y254499D01*
X332298D01*
X332797Y253999D01*
Y253499D01*
X332298Y252999D01*
X331798D01*
X332298D01*
X332797Y252500D01*
Y252000D01*
X332298Y251500D01*
X331298D01*
X330798Y252000D01*
X313599Y271399D02*
X313100Y271899D01*
X312100D01*
X311600Y271399D01*
Y269400D01*
X312100Y268900D01*
X313100D01*
X313599Y269400D01*
X314599Y268900D02*
X315599D01*
X315099D01*
Y271899D01*
X314599Y271399D01*
X319098Y271899D02*
X318098Y271399D01*
X317098Y270399D01*
Y269400D01*
X317598Y268900D01*
X318598D01*
X319098Y269400D01*
Y269900D01*
X318598Y270399D01*
X317098D01*
X293499Y264999D02*
X293000Y265499D01*
X292000D01*
X291500Y264999D01*
Y263000D01*
X292000Y262500D01*
X293000D01*
X293499Y263000D01*
X294499Y262500D02*
X295499D01*
X294999D01*
Y265499D01*
X294499Y264999D01*
X296998Y265499D02*
X298998D01*
Y264999D01*
X296998Y263000D01*
Y262500D01*
X293199Y269099D02*
X292700Y269599D01*
X291700D01*
X291200Y269099D01*
Y267100D01*
X291700Y266600D01*
X292700D01*
X293199Y267100D01*
X294199Y266600D02*
X295199D01*
X294699D01*
Y269599D01*
X294199Y269099D01*
X296698D02*
X297198Y269599D01*
X298198D01*
X298698Y269099D01*
Y268599D01*
X298198Y268099D01*
X298698Y267600D01*
Y267100D01*
X298198Y266600D01*
X297198D01*
X296698Y267100D01*
Y267600D01*
X297198Y268099D01*
X296698Y268599D01*
Y269099D01*
X297198Y268099D02*
X298198D01*
X297699Y244499D02*
X297200Y244999D01*
X296200D01*
X295700Y244499D01*
Y242500D01*
X296200Y242000D01*
X297200D01*
X297699Y242500D01*
X300698Y242000D02*
X298699D01*
X300698Y243999D01*
Y244499D01*
X300199Y244999D01*
X299199D01*
X298699Y244499D01*
X301698Y242000D02*
X302698D01*
X302198D01*
Y244999D01*
X301698Y244499D01*
X291999Y278099D02*
X291499Y278599D01*
X290500D01*
X290000Y278099D01*
Y276100D01*
X290500Y275600D01*
X291499D01*
X291999Y276100D01*
X292999Y275600D02*
X293999D01*
X293499D01*
Y278599D01*
X292999Y278099D01*
X295498Y276100D02*
X295998Y275600D01*
X296998D01*
X297498Y276100D01*
Y278099D01*
X296998Y278599D01*
X295998D01*
X295498Y278099D01*
Y277599D01*
X295998Y277099D01*
X297498D01*
X269001Y255399D02*
X268501Y254900D01*
Y253900D01*
X269001Y253400D01*
X271000D01*
X271500Y253900D01*
Y254900D01*
X271000Y255399D01*
X271500Y256399D02*
Y257399D01*
Y256899D01*
X268501D01*
X269001Y256399D01*
Y258898D02*
X268501Y259398D01*
Y260398D01*
X269001Y260898D01*
X269501D01*
X270001Y260398D01*
Y259898D01*
Y260398D01*
X270500Y260898D01*
X271000D01*
X271500Y260398D01*
Y259398D01*
X271000Y258898D01*
X259201Y246899D02*
X258701Y246399D01*
Y245400D01*
X259201Y244900D01*
X261200D01*
X261700Y245400D01*
Y246399D01*
X261200Y246899D01*
X261700Y247899D02*
Y248899D01*
Y248399D01*
X258701D01*
X259201Y247899D01*
X261700Y251898D02*
X258701D01*
X260201Y250398D01*
Y252398D01*
X256399Y288899D02*
X255900Y289399D01*
X254900D01*
X254400Y288899D01*
Y286900D01*
X254900Y286400D01*
X255900D01*
X256399Y286900D01*
X259398Y286400D02*
X257399D01*
X259398Y288399D01*
Y288899D01*
X258898Y289399D01*
X257899D01*
X257399Y288899D01*
X262397Y289399D02*
X260398D01*
Y287899D01*
X261398Y288399D01*
X261898D01*
X262397Y287899D01*
Y286900D01*
X261898Y286400D01*
X260898D01*
X260398Y286900D01*
X252699Y269299D02*
X252200Y269799D01*
X251200D01*
X250700Y269299D01*
Y267300D01*
X251200Y266800D01*
X252200D01*
X252699Y267300D01*
X253699Y266800D02*
X254699D01*
X254199D01*
Y269799D01*
X253699Y269299D01*
X258198Y269799D02*
X256198D01*
Y268300D01*
X257198Y268799D01*
X257698D01*
X258198Y268300D01*
Y267300D01*
X257698Y266800D01*
X256698D01*
X256198Y267300D01*
X204899Y174299D02*
X204399Y174799D01*
X203400D01*
X202900Y174299D01*
Y172300D01*
X203400Y171800D01*
X204399D01*
X204899Y172300D01*
X207898Y171800D02*
X205899D01*
X207898Y173799D01*
Y174299D01*
X207399Y174799D01*
X206399D01*
X205899Y174299D01*
X208898D02*
X209398Y174799D01*
X210398D01*
X210897Y174299D01*
Y173799D01*
X210398Y173300D01*
X210897Y172800D01*
Y172300D01*
X210398Y171800D01*
X209398D01*
X208898Y172300D01*
Y172800D01*
X209398Y173300D01*
X208898Y173799D01*
Y174299D01*
X209398Y173300D02*
X210398D01*
X184799Y215999D02*
X184300Y216499D01*
X183300D01*
X182800Y215999D01*
Y214000D01*
X183300Y213500D01*
X184300D01*
X184799Y214000D01*
X187798Y213500D02*
X185799D01*
X187798Y215499D01*
Y215999D01*
X187299Y216499D01*
X186299D01*
X185799Y215999D01*
X188798Y216499D02*
X190797D01*
Y215999D01*
X188798Y214000D01*
Y213500D01*
X194599Y186099D02*
X194099Y186599D01*
X193100D01*
X192600Y186099D01*
Y184100D01*
X193100Y183600D01*
X194099D01*
X194599Y184100D01*
X195599Y186099D02*
X196099Y186599D01*
X197099D01*
X197598Y186099D01*
Y185599D01*
X197099Y185099D01*
X196599D01*
X197099D01*
X197598Y184600D01*
Y184100D01*
X197099Y183600D01*
X196099D01*
X195599Y184100D01*
X198598Y186099D02*
X199098Y186599D01*
X200098D01*
X200597Y186099D01*
Y184100D01*
X200098Y183600D01*
X199098D01*
X198598Y184100D01*
Y186099D01*
X216099Y192099D02*
X215599Y192599D01*
X214600D01*
X214100Y192099D01*
Y190100D01*
X214600Y189600D01*
X215599D01*
X216099Y190100D01*
X219098Y189600D02*
X217099D01*
X219098Y191599D01*
Y192099D01*
X218599Y192599D01*
X217599D01*
X217099Y192099D01*
X220098Y190100D02*
X220598Y189600D01*
X221598D01*
X222097Y190100D01*
Y192099D01*
X221598Y192599D01*
X220598D01*
X220098Y192099D01*
Y191599D01*
X220598Y191100D01*
X222097D01*
X240099Y165199D02*
X239599Y165699D01*
X238600D01*
X238100Y165199D01*
Y163200D01*
X238600Y162700D01*
X239599D01*
X240099Y163200D01*
X243098Y162700D02*
X241099D01*
X243098Y164699D01*
Y165199D01*
X242599Y165699D01*
X241599D01*
X241099Y165199D01*
X246097Y165699D02*
X245098Y165199D01*
X244098Y164199D01*
Y163200D01*
X244598Y162700D01*
X245598D01*
X246097Y163200D01*
Y163700D01*
X245598Y164199D01*
X244098D01*
X161699Y229799D02*
X161199Y230299D01*
X160200D01*
X159700Y229799D01*
Y227800D01*
X160200Y227300D01*
X161199D01*
X161699Y227800D01*
X162699Y227300D02*
X163699D01*
X163199D01*
Y230299D01*
X162699Y229799D01*
X167198Y227300D02*
X165198D01*
X167198Y229299D01*
Y229799D01*
X166698Y230299D01*
X165698D01*
X165198Y229799D01*
X228599Y17499D02*
X228099Y17999D01*
X227100D01*
X226600Y17499D01*
Y15500D01*
X227100Y15000D01*
X228099D01*
X228599Y15500D01*
X229599Y17499D02*
X230099Y17999D01*
X231099D01*
X231598Y17499D01*
Y16999D01*
X231099Y16499D01*
X230599D01*
X231099D01*
X231598Y16000D01*
Y15500D01*
X231099Y15000D01*
X230099D01*
X229599Y15500D01*
X232598Y15000D02*
X233598D01*
X233098D01*
Y17999D01*
X232598Y17499D01*
X133100Y106699D02*
Y104200D01*
X133600Y103700D01*
X134599D01*
X135099Y104200D01*
Y106699D01*
X136099Y106199D02*
X136599Y106699D01*
X137599D01*
X138098Y106199D01*
Y105699D01*
X137599Y105200D01*
X137099D01*
X137599D01*
X138098Y104700D01*
Y104200D01*
X137599Y103700D01*
X136599D01*
X136099Y104200D01*
X97201Y272200D02*
X100200Y274199D01*
X97201D02*
X100200Y272200D01*
X97201Y275199D02*
X100200Y277198D01*
X97201D02*
X100200Y275199D01*
X97701Y278198D02*
X97201Y278698D01*
Y279698D01*
X97701Y280197D01*
X98201D01*
X98700Y279698D01*
Y279198D01*
Y279698D01*
X99200Y280197D01*
X99700D01*
X100200Y279698D01*
Y278698D01*
X99700Y278198D01*
X102301Y272000D02*
X105300Y273999D01*
X102301D02*
X105300Y272000D01*
X102301Y274999D02*
X105300Y276998D01*
X102301D02*
X105300Y274999D01*
Y279997D02*
Y277998D01*
X103301Y279997D01*
X102801D01*
X102301Y279498D01*
Y278498D01*
X102801Y277998D01*
X90763Y256750D02*
X93762Y258749D01*
X90763D02*
X93762Y256750D01*
X90763Y259749D02*
X93762Y261748D01*
X90763D02*
X93762Y259749D01*
Y262748D02*
Y263748D01*
Y263248D01*
X90763D01*
X91263Y262748D01*
X102900Y238999D02*
X104899Y236000D01*
Y238999D02*
X102900Y236000D01*
X105899D02*
X106899D01*
X106399D01*
Y238999D01*
X105899Y238499D01*
X126800Y274599D02*
Y272100D01*
X127300Y271600D01*
X128299D01*
X128799Y272100D01*
Y274599D01*
X131299Y271600D02*
Y274599D01*
X129799Y273099D01*
X131798D01*
X107500Y263699D02*
Y260700D01*
X109499D01*
X110499Y263199D02*
X110999Y263699D01*
X111999D01*
X112498Y263199D01*
Y262699D01*
X111999Y262199D01*
X111499D01*
X111999D01*
X112498Y261700D01*
Y261200D01*
X111999Y260700D01*
X110999D01*
X110499Y261200D01*
X148100Y224999D02*
Y222000D01*
X150099D01*
X153098D02*
X151099D01*
X153098Y223999D01*
Y224499D01*
X152599Y224999D01*
X151599D01*
X151099Y224499D01*
X153549Y234450D02*
X150550D01*
Y232451D01*
Y231451D02*
Y230451D01*
Y230951D01*
X153549D01*
X153049Y231451D01*
X116499Y268299D02*
X115999Y268799D01*
X115000D01*
X114500Y268299D01*
Y266300D01*
X115000Y265800D01*
X115999D01*
X116499Y266300D01*
X117499Y265800D02*
X118499D01*
X117999D01*
Y268799D01*
X117499Y268299D01*
X119998Y265800D02*
X120998D01*
X120498D01*
Y268799D01*
X119998Y268299D01*
X97199Y253399D02*
X96700Y253899D01*
X95700D01*
X95200Y253399D01*
Y251400D01*
X95700Y250900D01*
X96700D01*
X97199Y251400D01*
X98199Y250900D02*
X99199D01*
X98699D01*
Y253899D01*
X98199Y253399D01*
X100698D02*
X101198Y253899D01*
X102198D01*
X102698Y253399D01*
Y251400D01*
X102198Y250900D01*
X101198D01*
X100698Y251400D01*
Y253399D01*
X119599Y248899D02*
X119099Y249399D01*
X118100D01*
X117600Y248899D01*
Y246900D01*
X118100Y246400D01*
X119099D01*
X119599Y246900D01*
X120599D02*
X121099Y246400D01*
X122099D01*
X122598Y246900D01*
Y248899D01*
X122099Y249399D01*
X121099D01*
X120599Y248899D01*
Y248399D01*
X121099Y247900D01*
X122598D01*
X163699Y273599D02*
X163199Y274099D01*
X162200D01*
X161700Y273599D01*
Y271600D01*
X162200Y271100D01*
X163199D01*
X163699Y271600D01*
X164699Y273599D02*
X165199Y274099D01*
X166199D01*
X166698Y273599D01*
Y273099D01*
X166199Y272600D01*
X166698Y272100D01*
Y271600D01*
X166199Y271100D01*
X165199D01*
X164699Y271600D01*
Y272100D01*
X165199Y272600D01*
X164699Y273099D01*
Y273599D01*
X165199Y272600D02*
X166199D01*
X163499Y259199D02*
X162999Y259699D01*
X162000D01*
X161500Y259199D01*
Y257200D01*
X162000Y256700D01*
X162999D01*
X163499Y257200D01*
X164499Y259699D02*
X166498D01*
Y259199D01*
X164499Y257200D01*
Y256700D01*
X97399Y244999D02*
X96899Y245499D01*
X95900D01*
X95400Y244999D01*
Y243000D01*
X95900Y242500D01*
X96899D01*
X97399Y243000D01*
X100398Y245499D02*
X99399Y244999D01*
X98399Y244000D01*
Y243000D01*
X98899Y242500D01*
X99899D01*
X100398Y243000D01*
Y243500D01*
X99899Y244000D01*
X98399D01*
X129799Y224399D02*
X129299Y224899D01*
X128300D01*
X127800Y224399D01*
Y222400D01*
X128300Y221900D01*
X129299D01*
X129799Y222400D01*
X132798Y224899D02*
X130799D01*
Y223399D01*
X131799Y223899D01*
X132299D01*
X132798Y223399D01*
Y222400D01*
X132299Y221900D01*
X131299D01*
X130799Y222400D01*
X158899Y247199D02*
X158399Y247699D01*
X157400D01*
X156900Y247199D01*
Y245200D01*
X157400Y244700D01*
X158399D01*
X158899Y245200D01*
X161898Y244700D02*
X159899D01*
X161898Y246699D01*
Y247199D01*
X161399Y247699D01*
X160399D01*
X159899Y247199D01*
X173099Y235599D02*
X172599Y236099D01*
X171600D01*
X171100Y235599D01*
Y233600D01*
X171600Y233100D01*
X172599D01*
X173099Y233600D01*
X175599Y233100D02*
Y236099D01*
X174099Y234599D01*
X176098D01*
X111799Y224899D02*
X111300Y225399D01*
X110300D01*
X109800Y224899D01*
Y222900D01*
X110300Y222400D01*
X111300D01*
X111799Y222900D01*
X112799Y224899D02*
X113299Y225399D01*
X114299D01*
X114798Y224899D01*
Y224399D01*
X114299Y223900D01*
X113799D01*
X114299D01*
X114798Y223400D01*
Y222900D01*
X114299Y222400D01*
X113299D01*
X112799Y222900D01*
X140549Y240049D02*
X140050Y240549D01*
X139050D01*
X138550Y240049D01*
Y238050D01*
X139050Y237550D01*
X140050D01*
X140549Y238050D01*
X141549Y237550D02*
X142549D01*
X142049D01*
Y240549D01*
X141549Y240049D01*
X224699Y38999D02*
X224200Y39499D01*
X223200D01*
X222700Y38999D01*
Y37000D01*
X223200Y36500D01*
X224200D01*
X224699Y37000D01*
X225699Y39499D02*
Y36500D01*
X227199D01*
X227698Y37000D01*
Y37500D01*
Y37999D01*
X227199Y38499D01*
X225699D01*
X228698Y36500D02*
X229698D01*
X229198D01*
Y39499D01*
X228698Y38999D01*
X231197D02*
X231697Y39499D01*
X232697D01*
X233197Y38999D01*
Y38499D01*
X232697Y37999D01*
X233197Y37500D01*
Y37000D01*
X232697Y36500D01*
X231697D01*
X231197Y37000D01*
Y37500D01*
X231697Y37999D01*
X231197Y38499D01*
Y38999D01*
X231697Y37999D02*
X232697D01*
X227199Y77799D02*
X226699Y78299D01*
X225700D01*
X225200Y77799D01*
Y75800D01*
X225700Y75300D01*
X226699D01*
X227199Y75800D01*
X228199Y78299D02*
Y75300D01*
X229698D01*
X230198Y75800D01*
Y76300D01*
Y76799D01*
X229698Y77299D01*
X228199D01*
X233197Y75300D02*
X231198D01*
X233197Y77299D01*
Y77799D01*
X232698Y78299D01*
X231698D01*
X231198Y77799D01*
X234197Y75300D02*
X235197D01*
X234697D01*
Y78299D01*
X234197Y77799D01*
X162700Y286300D02*
Y289299D01*
X164199D01*
X164699Y288799D01*
Y287800D01*
X164199Y287300D01*
X162700D01*
X167199Y286300D02*
Y289299D01*
X165699Y287800D01*
X167698D01*
X245300Y58000D02*
Y60999D01*
X246799D01*
X247299Y60499D01*
Y59500D01*
X246799Y59000D01*
X245300D01*
X246300D02*
X247299Y58000D01*
X248299D02*
X249299D01*
X248799D01*
Y60999D01*
X248299Y60499D01*
X250798D02*
X251298Y60999D01*
X252298D01*
X252798Y60499D01*
Y59999D01*
X252298Y59500D01*
X251798D01*
X252298D01*
X252798Y59000D01*
Y58500D01*
X252298Y58000D01*
X251298D01*
X250798Y58500D01*
X145400Y56199D02*
Y55699D01*
X146400Y54699D01*
X147399Y55699D01*
Y56199D01*
X146400Y54699D02*
Y53200D01*
X148399Y56199D02*
Y53200D01*
X149399Y54200D01*
X150398Y53200D01*
Y56199D01*
X151398Y55699D02*
X151898Y56199D01*
X152898D01*
X153397Y55699D01*
Y55199D01*
X152898Y54699D01*
X152398D01*
X152898D01*
X153397Y54200D01*
Y53700D01*
X152898Y53200D01*
X151898D01*
X151398Y53700D01*
X377700Y261000D02*
Y263999D01*
X379200D01*
X379699Y263499D01*
Y262499D01*
X379200Y262000D01*
X377700D01*
X382698Y263999D02*
X380699D01*
Y262499D01*
X381699Y262999D01*
X382199D01*
X382698Y262499D01*
Y261500D01*
X382199Y261000D01*
X381199D01*
X380699Y261500D01*
X351100Y18700D02*
Y21699D01*
X352600D01*
X353099Y21199D01*
Y20200D01*
X352600Y19700D01*
X351100D01*
X356098Y18700D02*
X354099D01*
X356098Y20699D01*
Y21199D01*
X355598Y21699D01*
X354599D01*
X354099Y21199D01*
X85900Y15800D02*
Y18799D01*
X87400D01*
X87899Y18299D01*
Y17300D01*
X87400Y16800D01*
X85900D01*
X88899Y18299D02*
X89399Y18799D01*
X90399D01*
X90898Y18299D01*
Y17799D01*
X90399Y17300D01*
X89899D01*
X90399D01*
X90898Y16800D01*
Y16300D01*
X90399Y15800D01*
X89399D01*
X88899Y16300D01*
X292900Y69300D02*
Y72299D01*
X294399D01*
X294899Y71799D01*
Y70799D01*
X294399Y70300D01*
X292900D01*
X293900D02*
X294899Y69300D01*
X295899D02*
X296899D01*
X296399D01*
Y72299D01*
X295899Y71799D01*
X300398Y72299D02*
X298398D01*
Y70799D01*
X299398Y71299D01*
X299898D01*
X300398Y70799D01*
Y69800D01*
X299898Y69300D01*
X298898D01*
X298398Y69800D01*
X292700Y74100D02*
Y77099D01*
X294199D01*
X294699Y76599D01*
Y75599D01*
X294199Y75100D01*
X292700D01*
X293700D02*
X294699Y74100D01*
X295699D02*
X296699D01*
X296199D01*
Y77099D01*
X295699Y76599D01*
X300198Y77099D02*
X299198Y76599D01*
X298198Y75599D01*
Y74600D01*
X298698Y74100D01*
X299698D01*
X300198Y74600D01*
Y75100D01*
X299698Y75599D01*
X298198D01*
X330399Y111820D02*
Y114819D01*
X331898D01*
X332398Y114319D01*
Y113320D01*
X331898Y112820D01*
X330399D01*
X331398D02*
X332398Y111820D01*
X335397D02*
X333398D01*
X335397Y113819D01*
Y114319D01*
X334897Y114819D01*
X333898D01*
X333398Y114319D01*
X336397D02*
X336897Y114819D01*
X337896D01*
X338396Y114319D01*
Y113819D01*
X337896Y113320D01*
X337396D01*
X337896D01*
X338396Y112820D01*
Y112320D01*
X337896Y111820D01*
X336897D01*
X336397Y112320D01*
X92000Y148000D02*
Y150999D01*
X93499D01*
X93999Y150499D01*
Y149499D01*
X93499Y149000D01*
X92000D01*
X93000D02*
X93999Y148000D01*
X96998D02*
X94999D01*
X96998Y149999D01*
Y150499D01*
X96499Y150999D01*
X95499D01*
X94999Y150499D01*
X99498Y148000D02*
Y150999D01*
X97998Y149499D01*
X99997D01*
X92000Y88200D02*
Y91199D01*
X93499D01*
X93999Y90699D01*
Y89700D01*
X93499Y89200D01*
X92000D01*
X93000D02*
X93999Y88200D01*
X96998D02*
X94999D01*
X96998Y90199D01*
Y90699D01*
X96499Y91199D01*
X95499D01*
X94999Y90699D01*
X99997Y91199D02*
X97998D01*
Y89700D01*
X98998Y90199D01*
X99498D01*
X99997Y89700D01*
Y88700D01*
X99498Y88200D01*
X98498D01*
X97998Y88700D01*
X330399Y81340D02*
Y84339D01*
X331898D01*
X332398Y83839D01*
Y82840D01*
X331898Y82340D01*
X330399D01*
X331398D02*
X332398Y81340D01*
X335397D02*
X333398D01*
X335397Y83339D01*
Y83839D01*
X334897Y84339D01*
X333898D01*
X333398Y83839D01*
X338396Y84339D02*
X337396Y83839D01*
X336397Y82840D01*
Y81840D01*
X336897Y81340D01*
X337896D01*
X338396Y81840D01*
Y82340D01*
X337896Y82840D01*
X336397D01*
X330399Y106740D02*
Y109739D01*
X331898D01*
X332398Y109239D01*
Y108239D01*
X331898Y107740D01*
X330399D01*
X331398D02*
X332398Y106740D01*
X335397D02*
X333398D01*
X335397Y108739D01*
Y109239D01*
X334897Y109739D01*
X333898D01*
X333398Y109239D01*
X336397Y109739D02*
X338396D01*
Y109239D01*
X336397Y107240D01*
Y106740D01*
X92000Y94180D02*
Y97179D01*
X93499D01*
X93999Y96679D01*
Y95679D01*
X93499Y95180D01*
X92000D01*
X93000D02*
X93999Y94180D01*
X96998D02*
X94999D01*
X96998Y96179D01*
Y96679D01*
X96499Y97179D01*
X95499D01*
X94999Y96679D01*
X97998D02*
X98498Y97179D01*
X99498D01*
X99997Y96679D01*
Y96179D01*
X99498Y95679D01*
X99997Y95180D01*
Y94680D01*
X99498Y94180D01*
X98498D01*
X97998Y94680D01*
Y95180D01*
X98498Y95679D01*
X97998Y96179D01*
Y96679D01*
X98498Y95679D02*
X99498D01*
X330399Y101660D02*
Y104659D01*
X331898D01*
X332398Y104159D01*
Y103159D01*
X331898Y102660D01*
X330399D01*
X331398D02*
X332398Y101660D01*
X335397D02*
X333398D01*
X335397Y103659D01*
Y104159D01*
X334897Y104659D01*
X333898D01*
X333398Y104159D01*
X336397Y102160D02*
X336897Y101660D01*
X337896D01*
X338396Y102160D01*
Y104159D01*
X337896Y104659D01*
X336897D01*
X336397Y104159D01*
Y103659D01*
X336897Y103159D01*
X338396D01*
X92000Y142020D02*
Y145019D01*
X93499D01*
X93999Y144519D01*
Y143519D01*
X93499Y143020D01*
X92000D01*
X93000D02*
X93999Y142020D01*
X94999Y144519D02*
X95499Y145019D01*
X96499D01*
X96998Y144519D01*
Y144019D01*
X96499Y143519D01*
X95999D01*
X96499D01*
X96998Y143020D01*
Y142520D01*
X96499Y142020D01*
X95499D01*
X94999Y142520D01*
X97998Y144519D02*
X98498Y145019D01*
X99498D01*
X99997Y144519D01*
Y142520D01*
X99498Y142020D01*
X98498D01*
X97998Y142520D01*
Y144519D01*
X92000Y100160D02*
Y103159D01*
X93499D01*
X93999Y102659D01*
Y101660D01*
X93499Y101160D01*
X92000D01*
X93000D02*
X93999Y100160D01*
X94999Y102659D02*
X95499Y103159D01*
X96499D01*
X96998Y102659D01*
Y102159D01*
X96499Y101660D01*
X95999D01*
X96499D01*
X96998Y101160D01*
Y100660D01*
X96499Y100160D01*
X95499D01*
X94999Y100660D01*
X97998Y100160D02*
X98998D01*
X98498D01*
Y103159D01*
X97998Y102659D01*
X330399Y96580D02*
Y99579D01*
X331898D01*
X332398Y99079D01*
Y98080D01*
X331898Y97580D01*
X330399D01*
X331398D02*
X332398Y96580D01*
X333398Y99079D02*
X333898Y99579D01*
X334897D01*
X335397Y99079D01*
Y98579D01*
X334897Y98080D01*
X334397D01*
X334897D01*
X335397Y97580D01*
Y97080D01*
X334897Y96580D01*
X333898D01*
X333398Y97080D01*
X338396Y96580D02*
X336397D01*
X338396Y98579D01*
Y99079D01*
X337896Y99579D01*
X336897D01*
X336397Y99079D01*
X92000Y136040D02*
Y139039D01*
X93499D01*
X93999Y138539D01*
Y137540D01*
X93499Y137040D01*
X92000D01*
X93000D02*
X93999Y136040D01*
X94999Y138539D02*
X95499Y139039D01*
X96499D01*
X96998Y138539D01*
Y138039D01*
X96499Y137540D01*
X95999D01*
X96499D01*
X96998Y137040D01*
Y136540D01*
X96499Y136040D01*
X95499D01*
X94999Y136540D01*
X97998Y138539D02*
X98498Y139039D01*
X99498D01*
X99997Y138539D01*
Y138039D01*
X99498Y137540D01*
X98998D01*
X99498D01*
X99997Y137040D01*
Y136540D01*
X99498Y136040D01*
X98498D01*
X97998Y136540D01*
X92000Y106140D02*
Y109139D01*
X93499D01*
X93999Y108639D01*
Y107640D01*
X93499Y107140D01*
X92000D01*
X93000D02*
X93999Y106140D01*
X94999Y108639D02*
X95499Y109139D01*
X96499D01*
X96998Y108639D01*
Y108139D01*
X96499Y107640D01*
X95999D01*
X96499D01*
X96998Y107140D01*
Y106640D01*
X96499Y106140D01*
X95499D01*
X94999Y106640D01*
X99498Y106140D02*
Y109139D01*
X97998Y107640D01*
X99997D01*
X92000Y130060D02*
Y133059D01*
X93499D01*
X93999Y132559D01*
Y131560D01*
X93499Y131060D01*
X92000D01*
X93000D02*
X93999Y130060D01*
X94999Y132559D02*
X95499Y133059D01*
X96499D01*
X96998Y132559D01*
Y132059D01*
X96499Y131560D01*
X95999D01*
X96499D01*
X96998Y131060D01*
Y130560D01*
X96499Y130060D01*
X95499D01*
X94999Y130560D01*
X99997Y133059D02*
X97998D01*
Y131560D01*
X98998Y132059D01*
X99498D01*
X99997Y131560D01*
Y130560D01*
X99498Y130060D01*
X98498D01*
X97998Y130560D01*
X92000Y124080D02*
Y127079D01*
X93499D01*
X93999Y126579D01*
Y125580D01*
X93499Y125080D01*
X92000D01*
X93000D02*
X93999Y124080D01*
X94999Y126579D02*
X95499Y127079D01*
X96499D01*
X96998Y126579D01*
Y126079D01*
X96499Y125580D01*
X95999D01*
X96499D01*
X96998Y125080D01*
Y124580D01*
X96499Y124080D01*
X95499D01*
X94999Y124580D01*
X99997Y127079D02*
X98998Y126579D01*
X97998Y125580D01*
Y124580D01*
X98498Y124080D01*
X99498D01*
X99997Y124580D01*
Y125080D01*
X99498Y125580D01*
X97998D01*
X330399Y91500D02*
Y94499D01*
X331898D01*
X332398Y93999D01*
Y93000D01*
X331898Y92500D01*
X330399D01*
X331398D02*
X332398Y91500D01*
X333398Y93999D02*
X333898Y94499D01*
X334897D01*
X335397Y93999D01*
Y93499D01*
X334897Y93000D01*
X334397D01*
X334897D01*
X335397Y92500D01*
Y92000D01*
X334897Y91500D01*
X333898D01*
X333398Y92000D01*
X336397Y94499D02*
X338396D01*
Y93999D01*
X336397Y92000D01*
Y91500D01*
X330399Y86420D02*
Y89419D01*
X331898D01*
X332398Y88919D01*
Y87919D01*
X331898Y87420D01*
X330399D01*
X331398D02*
X332398Y86420D01*
X333398Y88919D02*
X333898Y89419D01*
X334897D01*
X335397Y88919D01*
Y88419D01*
X334897Y87919D01*
X334397D01*
X334897D01*
X335397Y87420D01*
Y86920D01*
X334897Y86420D01*
X333898D01*
X333398Y86920D01*
X336397Y88919D02*
X336897Y89419D01*
X337896D01*
X338396Y88919D01*
Y88419D01*
X337896Y87919D01*
X338396Y87420D01*
Y86920D01*
X337896Y86420D01*
X336897D01*
X336397Y86920D01*
Y87420D01*
X336897Y87919D01*
X336397Y88419D01*
Y88919D01*
X336897Y87919D02*
X337896D01*
X92000Y118100D02*
Y121099D01*
X93499D01*
X93999Y120599D01*
Y119599D01*
X93499Y119100D01*
X92000D01*
X93000D02*
X93999Y118100D01*
X94999Y120599D02*
X95499Y121099D01*
X96499D01*
X96998Y120599D01*
Y120099D01*
X96499Y119599D01*
X95999D01*
X96499D01*
X96998Y119100D01*
Y118600D01*
X96499Y118100D01*
X95499D01*
X94999Y118600D01*
X97998D02*
X98498Y118100D01*
X99498D01*
X99997Y118600D01*
Y120599D01*
X99498Y121099D01*
X98498D01*
X97998Y120599D01*
Y120099D01*
X98498Y119599D01*
X99997D01*
X92000Y112120D02*
Y115119D01*
X93499D01*
X93999Y114619D01*
Y113619D01*
X93499Y113120D01*
X92000D01*
X93000D02*
X93999Y112120D01*
X96499D02*
Y115119D01*
X94999Y113619D01*
X96998D01*
X97998Y114619D02*
X98498Y115119D01*
X99498D01*
X99997Y114619D01*
Y112620D01*
X99498Y112120D01*
X98498D01*
X97998Y112620D01*
Y114619D01*
X123450Y208650D02*
Y211649D01*
X124950D01*
X125449Y211149D01*
Y210150D01*
X124950Y209650D01*
X123450D01*
X124450D02*
X125449Y208650D01*
X127949D02*
Y211649D01*
X126449Y210150D01*
X128448D01*
X129448Y208650D02*
X130448D01*
X129948D01*
Y211649D01*
X129448Y211149D01*
X100350Y208650D02*
Y211649D01*
X101850D01*
X102349Y211149D01*
Y210150D01*
X101850Y209650D01*
X100350D01*
X101350D02*
X102349Y208650D01*
X104849D02*
Y211649D01*
X103349Y210150D01*
X105348D01*
X108347Y208650D02*
X106348D01*
X108347Y210649D01*
Y211149D01*
X107848Y211649D01*
X106848D01*
X106348Y211149D01*
X157700Y196100D02*
Y199099D01*
X159200D01*
X159699Y198599D01*
Y197599D01*
X159200Y197100D01*
X157700D01*
X158700D02*
X159699Y196100D01*
X162199D02*
Y199099D01*
X160699Y197599D01*
X162698D01*
X163698Y198599D02*
X164198Y199099D01*
X165198D01*
X165697Y198599D01*
Y198099D01*
X165198Y197599D01*
X164698D01*
X165198D01*
X165697Y197100D01*
Y196600D01*
X165198Y196100D01*
X164198D01*
X163698Y196600D01*
X151600Y185200D02*
Y188199D01*
X153100D01*
X153599Y187699D01*
Y186699D01*
X153100Y186200D01*
X151600D01*
X152600D02*
X153599Y185200D01*
X156099D02*
Y188199D01*
X154599Y186699D01*
X156598D01*
X159098Y185200D02*
Y188199D01*
X157598Y186699D01*
X159597D01*
X151100Y180400D02*
Y183399D01*
X152600D01*
X153099Y182899D01*
Y181899D01*
X152600Y181400D01*
X151100D01*
X152100D02*
X153099Y180400D01*
X155599D02*
Y183399D01*
X154099Y181899D01*
X156098D01*
X159097Y183399D02*
X157098D01*
Y181899D01*
X158098Y182399D01*
X158598D01*
X159097Y181899D01*
Y180900D01*
X158598Y180400D01*
X157598D01*
X157098Y180900D01*
X67500Y283000D02*
Y284999D01*
X68500Y285999D01*
X69499Y284999D01*
Y283000D01*
Y284500D01*
X67500D01*
X70499Y283000D02*
X71499D01*
X70999D01*
Y285999D01*
X70499Y285499D01*
X190600Y105200D02*
Y108199D01*
X192100D01*
X192599Y107699D01*
Y106700D01*
X192100Y106200D01*
X190600D01*
X191600D02*
X192599Y105200D01*
X193599D02*
X194599D01*
X194099D01*
Y108199D01*
X193599Y107699D01*
X198900Y94300D02*
Y97299D01*
X200400D01*
X200899Y96799D01*
Y95800D01*
X200400Y95300D01*
X198900D01*
X199900D02*
X200899Y94300D01*
X203898D02*
X201899D01*
X203898Y96299D01*
Y96799D01*
X203399Y97299D01*
X202399D01*
X201899Y96799D01*
X240900Y286500D02*
Y289499D01*
X242400D01*
X242899Y288999D01*
Y288000D01*
X242400Y287500D01*
X240900D01*
X243899Y286500D02*
X244899D01*
X244399D01*
Y289499D01*
X243899Y288999D01*
X374599Y16800D02*
X375099Y16300D01*
Y15301D01*
X374599Y14801D01*
X374099D01*
X373600Y15301D01*
Y15800D01*
Y15301D01*
X373100Y14801D01*
X372600D01*
X372100Y15301D01*
Y16300D01*
X372600Y16800D01*
X372100Y11802D02*
Y13801D01*
X374099Y11802D01*
X374599D01*
X375099Y12301D01*
Y13301D01*
X374599Y13801D01*
X364599Y16800D02*
X365099Y16300D01*
Y15301D01*
X364599Y14801D01*
X364099D01*
X363599Y15301D01*
Y15800D01*
Y15301D01*
X363100Y14801D01*
X362600D01*
X362100Y15301D01*
Y16300D01*
X362600Y16800D01*
X362100Y13801D02*
Y12801D01*
Y13301D01*
X365099D01*
X364599Y13801D01*
X362100Y182800D02*
Y181800D01*
Y182300D01*
X365099D01*
X364599Y182800D01*
X372100Y180801D02*
Y182800D01*
X374099Y180801D01*
X374599D01*
X375099Y181300D01*
Y182300D01*
X374599Y182800D01*
X77799Y16300D02*
X78299Y15800D01*
Y14800D01*
X77799Y14301D01*
X77299D01*
X76799Y14800D01*
Y15300D01*
Y14800D01*
X76300Y14301D01*
X75800D01*
X75300Y14800D01*
Y15800D01*
X75800Y16300D01*
X75300Y11302D02*
Y13301D01*
X77299Y11302D01*
X77799D01*
X78299Y11801D01*
Y12801D01*
X77799Y13301D01*
X67799Y16300D02*
X68299Y15800D01*
Y14800D01*
X67799Y14301D01*
X67299D01*
X66799Y14800D01*
Y15300D01*
Y14800D01*
X66300Y14301D01*
X65800D01*
X65300Y14800D01*
Y15800D01*
X65800Y16300D01*
X65300Y13301D02*
Y12301D01*
Y12801D01*
X68299D01*
X67799Y13301D01*
X65300Y182300D02*
Y181300D01*
Y181800D01*
X68299D01*
X67799Y182300D01*
X75300Y180301D02*
Y182300D01*
X77299Y180301D01*
X77799D01*
X78299Y180800D01*
Y181800D01*
X77799Y182300D01*
X347500Y235299D02*
X348000Y235799D01*
X349000D01*
X349499Y235299D01*
Y234799D01*
X349000Y234299D01*
X348500D01*
X349000D01*
X349499Y233800D01*
Y233300D01*
X349000Y232800D01*
X348000D01*
X347500Y233300D01*
X350499Y232800D02*
Y233300D01*
X350999D01*
Y232800D01*
X350499D01*
X352998Y235799D02*
X354998D01*
Y235299D01*
X352998Y233300D01*
Y232800D01*
X355997Y235799D02*
Y233800D01*
X356997Y232800D01*
X357997Y233800D01*
Y235799D01*
X358996D02*
Y232800D01*
X360496D01*
X360996Y233300D01*
Y235299D01*
X360496Y235799D01*
X358996D01*
X361995D02*
Y232800D01*
X363495D01*
X363995Y233300D01*
Y235299D01*
X363495Y235799D01*
X361995D01*
X202000Y265100D02*
X203000D01*
X202500D01*
Y268099D01*
X202000Y267599D01*
X204499Y265100D02*
Y265600D01*
X204999D01*
Y265100D01*
X204499D01*
X206998Y267599D02*
X207498Y268099D01*
X208498D01*
X208998Y267599D01*
Y267099D01*
X208498Y266599D01*
X208998Y266100D01*
Y265600D01*
X208498Y265100D01*
X207498D01*
X206998Y265600D01*
Y266100D01*
X207498Y266599D01*
X206998Y267099D01*
Y267599D01*
X207498Y266599D02*
X208498D01*
X209997Y268099D02*
Y266100D01*
X210997Y265100D01*
X211997Y266100D01*
Y268099D01*
X212996D02*
Y265100D01*
X214496D01*
X214996Y265600D01*
Y267599D01*
X214496Y268099D01*
X212996D01*
X215996D02*
Y265100D01*
X217495D01*
X217995Y265600D01*
Y267599D01*
X217495Y268099D01*
X215996D01*
M02*
