%FSLAX25Y25*%
%MOIN*%
G70*
G01*
G75*
G04 Layer_Color=32896*
%ADD10R,0.01969X0.01969*%
%ADD11R,0.05906X0.14173*%
%ADD12R,0.03150X0.02756*%
%ADD13R,0.02756X0.03150*%
%ADD14R,0.01969X0.02362*%
%ADD15R,0.02953X0.05512*%
%ADD16R,0.00787X0.01969*%
%ADD17R,0.03150X0.03543*%
%ADD18R,0.03543X0.02756*%
%ADD19R,0.10236X0.05906*%
%ADD20R,0.02362X0.01969*%
%ADD21R,0.01969X0.01969*%
%ADD22R,0.03150X0.02953*%
%ADD23R,0.01969X0.02559*%
%ADD24R,0.02559X0.01969*%
%ADD25R,0.18504X0.18504*%
%ADD26O,0.00787X0.02559*%
%ADD27O,0.02559X0.00787*%
%ADD28R,0.03347X0.03740*%
%ADD29O,0.03543X0.00984*%
%ADD30O,0.00984X0.03543*%
%ADD31R,0.25590X0.25590*%
%ADD32R,0.03150X0.03150*%
%ADD33R,0.03150X0.03150*%
%ADD34R,0.04134X0.02362*%
%ADD35R,0.03543X0.03150*%
%ADD36R,0.02362X0.04134*%
%ADD37R,0.02362X0.04331*%
%ADD38R,0.06693X0.04331*%
%ADD39C,0.00800*%
%ADD40C,0.00600*%
%ADD41C,0.01200*%
%ADD42C,0.01000*%
%ADD43C,0.01600*%
%ADD44C,0.00400*%
%ADD45R,0.05906X0.05906*%
%ADD46C,0.05906*%
%ADD47R,0.05906X0.05906*%
%ADD48C,0.02000*%
%ADD49C,0.01400*%
%ADD50C,0.01969*%
%ADD51C,0.02598*%
%ADD52C,0.00900*%
%ADD53C,0.04000*%
%ADD54C,0.04743*%
%ADD55C,0.02200*%
%ADD56C,0.01800*%
%ADD57C,0.01600*%
%ADD58C,0.01987*%
%ADD59C,0.02499*%
%ADD60C,0.00394*%
%ADD61C,0.00984*%
%ADD62C,0.00787*%
%ADD63C,0.00500*%
%ADD64R,0.01575X0.01575*%
%ADD65R,0.01575X0.01575*%
%ADD66R,0.02369X0.02369*%
%ADD67R,0.06306X0.14573*%
%ADD68R,0.03550X0.03156*%
%ADD69R,0.03156X0.03550*%
%ADD70R,0.02369X0.02762*%
%ADD71R,0.03353X0.05912*%
%ADD72R,0.01187X0.02369*%
%ADD73R,0.03550X0.03943*%
%ADD74R,0.03943X0.03156*%
%ADD75R,0.10636X0.06306*%
%ADD76R,0.02762X0.02369*%
%ADD77R,0.02369X0.02369*%
%ADD78R,0.03550X0.03353*%
%ADD79R,0.02369X0.02959*%
%ADD80R,0.02959X0.02369*%
%ADD81R,0.18904X0.18904*%
%ADD82O,0.01187X0.02959*%
%ADD83O,0.02959X0.01187*%
%ADD84R,0.03747X0.04140*%
%ADD85O,0.03943X0.01384*%
%ADD86O,0.01384X0.03943*%
%ADD87R,0.25991X0.25991*%
%ADD88R,0.03550X0.03550*%
%ADD89R,0.03550X0.03550*%
%ADD90R,0.04534X0.02762*%
%ADD91R,0.03943X0.03550*%
%ADD92R,0.02762X0.04534*%
%ADD93R,0.02762X0.04731*%
%ADD94R,0.07093X0.04731*%
%ADD95R,0.06306X0.06306*%
%ADD96C,0.06306*%
%ADD97R,0.06306X0.06306*%
%ADD98C,0.02369*%
%ADD99C,0.02998*%
%ADD100C,0.02400*%
%ADD101C,0.01300*%
D40*
X261000Y83320D02*
Y85900D01*
X219754Y60900D02*
Y63480D01*
X182800Y109700D02*
X185380D01*
X165621Y59300D02*
X168200D01*
X174420Y59100D02*
X177000D01*
X210300Y102600D02*
Y105180D01*
X216200Y110400D02*
Y112979D01*
X233000Y113300D02*
X235579D01*
X261000Y88020D02*
Y90600D01*
D60*
X237412Y54052D02*
G03*
X237412Y54052I-98J0D01*
G01*
X290472Y70063D02*
Y77937D01*
X286928Y70063D02*
X290472D01*
X286928D02*
Y77937D01*
X290472D01*
X286772Y70063D02*
Y77937D01*
X283228Y70063D02*
X286772D01*
X283228D02*
Y77937D01*
X286772D01*
X156172Y57863D02*
Y65737D01*
X152628Y57863D02*
X156172D01*
X152628D02*
Y65737D01*
X156172D01*
X226585Y54938D02*
Y59662D01*
X237215Y54938D02*
Y59662D01*
D61*
X215199Y71157D02*
G03*
X215199Y71157I-492J0D01*
G01*
D62*
X217266Y70566D02*
Y72338D01*
Y70566D02*
X219038D01*
X217266Y102062D02*
Y103834D01*
X219038D01*
X250534Y102062D02*
Y103834D01*
X248762D02*
X250534D01*
Y70566D02*
Y72338D01*
X248762Y70566D02*
X250534D01*
D63*
X294400Y79500D02*
Y82499D01*
X292900D01*
X292401Y81999D01*
Y80999D01*
X292900Y80500D01*
X294400D01*
X293400D02*
X292401Y79500D01*
X291401D02*
X290401D01*
X290901D01*
Y82499D01*
X291401Y81999D01*
X288902D02*
X288402Y82499D01*
X287402D01*
X286902Y81999D01*
Y81499D01*
X287402Y80999D01*
X286902Y80500D01*
Y80000D01*
X287402Y79500D01*
X288402D01*
X288902Y80000D01*
Y80500D01*
X288402Y80999D01*
X288902Y81499D01*
Y81999D01*
X288402Y80999D02*
X287402D01*
X285200Y65300D02*
Y68299D01*
X283700D01*
X283201Y67799D01*
Y66799D01*
X283700Y66300D01*
X285200D01*
X284200D02*
X283201Y65300D01*
X282201D02*
X281201D01*
X281701D01*
Y68299D01*
X282201Y67799D01*
X279702Y68299D02*
X277702D01*
Y67799D01*
X279702Y65800D01*
Y65300D01*
X246900Y54099D02*
Y53599D01*
X245900Y52600D01*
X244901Y53599D01*
Y54099D01*
X245900Y52600D02*
Y51100D01*
X243901Y54099D02*
Y51100D01*
X242901Y52100D01*
X241902Y51100D01*
Y54099D01*
X238903Y51100D02*
X240902D01*
X238903Y53099D01*
Y53599D01*
X239402Y54099D01*
X240402D01*
X240902Y53599D01*
X150800Y58300D02*
Y61299D01*
X149301D01*
X148801Y60799D01*
Y59799D01*
X149301Y59300D01*
X150800D01*
X149800D02*
X148801Y58300D01*
X147801D02*
X146801D01*
X147301D01*
Y61299D01*
X147801Y60799D01*
X143802Y58300D02*
Y61299D01*
X145302Y59799D01*
X143302D01*
X214750Y61451D02*
Y63950D01*
X215250Y64450D01*
X216249D01*
X216749Y63950D01*
Y61451D01*
X219748Y64450D02*
X217749D01*
X219748Y62451D01*
Y61951D01*
X219249Y61451D01*
X218249D01*
X217749Y61951D01*
X263999Y78901D02*
X263499Y78401D01*
X262500D01*
X262000Y78901D01*
Y80900D01*
X262500Y81400D01*
X263499D01*
X263999Y80900D01*
X264999Y78401D02*
Y81400D01*
X266498D01*
X266998Y80900D01*
Y80400D01*
Y79900D01*
X266498Y79401D01*
X264999D01*
X269997Y81400D02*
X267998D01*
X269997Y79401D01*
Y78901D01*
X269498Y78401D01*
X268498D01*
X267998Y78901D01*
X270997D02*
X271497Y78401D01*
X272497D01*
X272996Y78901D01*
Y80900D01*
X272497Y81400D01*
X271497D01*
X270997Y80900D01*
Y78901D01*
X210501Y63299D02*
X211000Y63799D01*
X212000D01*
X212500Y63299D01*
Y61300D01*
X212000Y60800D01*
X211000D01*
X210501Y61300D01*
X209501Y63799D02*
Y60800D01*
X208001D01*
X207502Y61300D01*
Y61800D01*
Y62300D01*
X208001Y62799D01*
X209501D01*
X206502Y60800D02*
X205502D01*
X206002D01*
Y63799D01*
X206502Y63299D01*
X204003Y61300D02*
X203503Y60800D01*
X202503D01*
X202003Y61300D01*
Y63299D01*
X202503Y63799D01*
X203503D01*
X204003Y63299D01*
Y62799D01*
X203503Y62300D01*
X202003D01*
X161301Y55299D02*
X161801Y55799D01*
X162800D01*
X163300Y55299D01*
Y53300D01*
X162800Y52800D01*
X161801D01*
X161301Y53300D01*
X160301Y55799D02*
Y52800D01*
X158801D01*
X158302Y53300D01*
Y53800D01*
Y54299D01*
X158801Y54799D01*
X160301D01*
X155303Y52800D02*
X157302D01*
X155303Y54799D01*
Y55299D01*
X155802Y55799D01*
X156802D01*
X157302Y55299D01*
X152304Y52800D02*
X154303D01*
X152304Y54799D01*
Y55299D01*
X152803Y55799D01*
X153803D01*
X154303Y55299D01*
X179601Y52999D02*
X180101Y53499D01*
X181100D01*
X181600Y52999D01*
Y51000D01*
X181100Y50500D01*
X180101D01*
X179601Y51000D01*
X178601Y53499D02*
Y50500D01*
X177101D01*
X176602Y51000D01*
Y51500D01*
Y51999D01*
X177101Y52499D01*
X178601D01*
X173603Y50500D02*
X175602D01*
X173603Y52499D01*
Y52999D01*
X174102Y53499D01*
X175102D01*
X175602Y52999D01*
X172603D02*
X172103Y53499D01*
X171103D01*
X170604Y52999D01*
Y52499D01*
X171103Y51999D01*
X171603D01*
X171103D01*
X170604Y51500D01*
Y51000D01*
X171103Y50500D01*
X172103D01*
X172603Y51000D01*
X202401Y104799D02*
X202901Y105299D01*
X203900D01*
X204400Y104799D01*
Y102800D01*
X203900Y102300D01*
X202901D01*
X202401Y102800D01*
X201401Y105299D02*
Y102300D01*
X199901D01*
X199402Y102800D01*
Y103300D01*
Y103799D01*
X199901Y104299D01*
X201401D01*
X196403Y102300D02*
X198402D01*
X196403Y104299D01*
Y104799D01*
X196902Y105299D01*
X197902D01*
X198402Y104799D01*
X193404Y105299D02*
X194403Y104799D01*
X195403Y103799D01*
Y102800D01*
X194903Y102300D01*
X193903D01*
X193404Y102800D01*
Y103300D01*
X193903Y103799D01*
X195403D01*
X183401Y119099D02*
X183900Y119599D01*
X184900D01*
X185400Y119099D01*
Y117100D01*
X184900Y116600D01*
X183900D01*
X183401Y117100D01*
X182401Y119599D02*
Y116600D01*
X180902D01*
X180402Y117100D01*
Y117600D01*
Y118100D01*
X180902Y118599D01*
X182401D01*
X177403Y116600D02*
X179402D01*
X177403Y118599D01*
Y119099D01*
X177902Y119599D01*
X178902D01*
X179402Y119099D01*
X176403Y117100D02*
X175903Y116600D01*
X174903D01*
X174404Y117100D01*
Y119099D01*
X174903Y119599D01*
X175903D01*
X176403Y119099D01*
Y118599D01*
X175903Y118100D01*
X174404D01*
X218401Y117199D02*
X218900Y117699D01*
X219900D01*
X220400Y117199D01*
Y115200D01*
X219900Y114700D01*
X218900D01*
X218401Y115200D01*
X217401Y117699D02*
Y114700D01*
X215901D01*
X215402Y115200D01*
Y115700D01*
Y116200D01*
X215901Y116699D01*
X217401D01*
X214402Y117199D02*
X213902Y117699D01*
X212902D01*
X212403Y117199D01*
Y116699D01*
X212902Y116200D01*
X213402D01*
X212902D01*
X212403Y115700D01*
Y115200D01*
X212902Y114700D01*
X213902D01*
X214402Y115200D01*
X211403Y117199D02*
X210903Y117699D01*
X209903D01*
X209404Y117199D01*
Y115200D01*
X209903Y114700D01*
X210903D01*
X211403Y115200D01*
Y117199D01*
X245801Y119899D02*
X246301Y120399D01*
X247300D01*
X247800Y119899D01*
Y117900D01*
X247300Y117400D01*
X246301D01*
X245801Y117900D01*
X244801Y120399D02*
Y117400D01*
X243302D01*
X242802Y117900D01*
Y118400D01*
Y118900D01*
X243302Y119399D01*
X244801D01*
X241802Y119899D02*
X241302Y120399D01*
X240302D01*
X239803Y119899D01*
Y119399D01*
X240302Y118900D01*
X240802D01*
X240302D01*
X239803Y118400D01*
Y117900D01*
X240302Y117400D01*
X241302D01*
X241802Y117900D01*
X236804Y120399D02*
X238803D01*
Y118900D01*
X237803Y119399D01*
X237303D01*
X236804Y118900D01*
Y117900D01*
X237303Y117400D01*
X238303D01*
X238803Y117900D01*
X269601Y94999D02*
X270100Y95499D01*
X271100D01*
X271600Y94999D01*
Y93000D01*
X271100Y92500D01*
X270100D01*
X269601Y93000D01*
X268601Y95499D02*
Y92500D01*
X267102D01*
X266602Y93000D01*
Y93500D01*
Y93999D01*
X267102Y94499D01*
X268601D01*
X265602Y94999D02*
X265102Y95499D01*
X264102D01*
X263603Y94999D01*
Y94499D01*
X264102Y93999D01*
X264602D01*
X264102D01*
X263603Y93500D01*
Y93000D01*
X264102Y92500D01*
X265102D01*
X265602Y93000D01*
X262603Y95499D02*
X260604D01*
Y94999D01*
X262603Y93000D01*
Y92500D01*
X269000Y223100D02*
Y226099D01*
X267500D01*
X267001Y225599D01*
Y224600D01*
X267500Y224100D01*
X269000D01*
X268000D02*
X267001Y223100D01*
X264002Y226099D02*
X266001D01*
Y224600D01*
X265001Y225099D01*
X264502D01*
X264002Y224600D01*
Y223600D01*
X264502Y223100D01*
X265501D01*
X266001Y223600D01*
M02*
