M48
;Layer_Color=9474304
;FILE_FORMAT=2:5
INCH
;TYPE=PLATED
T1F00S00C0.00400
T2F00S00C0.00600
T3F00S00C0.00787
T4F00S00C0.01000
T5F00S00C0.01299
T6F00S00C0.03543
%
T01
X0196100Y0096625
Y0098575
X0210400Y0092050
Y0090150
X0320900Y0266800
T02
X0178300Y0010900
X0180800Y0036500
X0194300Y0036200
X0235900Y0015300
X0233500Y0051700
X0230900Y0065000
X0232800Y0067200
X0235300
X0226200Y0061500
X0220100Y0066400
X0256200Y0071400
X0255900Y0076400
X0259800Y0068400
X0262100Y0064500
X0263800Y0060500
X0266300Y0058500
X0268500Y0066600
X0273000Y0063200
X0271400Y0084600
X0270000Y0089500
X0254100Y0090000
X0254300Y0092000
X0255500Y0093700
X0255100Y0096100
X0252500Y0103300
X0245500Y0106500
X0244200Y0107900
X0242800Y0109200
X0241200Y0110200
X0236900Y0106800
X0234800Y0107100
X0230400Y0107500
X0227200Y0109200
X0223100Y0108100
X0218400Y0106700
X0234200Y0120200
X0235900Y0169100
X0216000Y0178000
X0216100Y0185100
X0215900Y0191000
X0260446Y0180754
X0286200Y0196600
X0292800Y0197500
X0168800Y0194900
X0171600Y0186700
X0173600Y0181900
X0157900Y0191700
X0127000Y0196500
X0155900Y0126000
X0161700Y0126100
X0165300Y0115800
X0164779Y0107979
X0168700Y0107900
X0177000Y0107100
X0173700Y0118100
X0188100Y0112500
X0207700Y0111500
X0204300Y0107000
X0206400Y0076500
X0211700Y0076000
X0199600
X0194000Y0075900
X0181800Y0075400
X0166800Y0066000
X0162700Y0064900
X0165000Y0050800
X0159100
X0170500Y0045600
X0140500Y0065500
X0136700Y0066800
X0133400Y0067100
X0123400Y0062000
X0125500Y0056200
X0117200Y0054000
X0118900Y0052100
X0115500Y0058900
X0120600Y0080700
X0120200Y0086200
X0138100Y0089700
X0212200Y0058500
X0207100Y0149800
X0186100Y0148500
X0182500Y0219900
X0200300Y0231000
X0212700Y0235800
X0215400Y0236000
X0208900Y0246100
X0203300Y0245900
X0205800Y0249100
X0191000Y0256100
X0187987Y0254613
X0186000Y0253100
X0184537Y0251463
X0184100Y0262600
X0180900Y0264400
X0178300Y0266100
X0177600Y0279800
X0175300Y0279500
X0172700Y0278400
X0170900Y0276200
X0168200Y0274900
X0159500Y0257800
X0158100Y0256100
X0156787Y0254613
X0155400Y0253300
X0155637Y0251463
X0141700Y0240000
X0140900Y0237300
X0137900Y0237000
X0134800Y0236100
X0131500Y0236300
X0128200Y0237100
X0123400Y0254700
X0121400Y0259000
X0121000Y0261900
X0129300Y0208500
X0111400
X0110200Y0200700
X0209400Y0209600
X0191000Y0260600
X0230600Y0273800
X0248300Y0272400
X0248100Y0248200
X0255900Y0254800
X0237800Y0239200
X0249400Y0224400
X0263800Y0221200
X0264900Y0228000
X0268700Y0210600
X0260000Y0210800
X0236200Y0208600
X0229000Y0209500
X0292800Y0226700
X0324300Y0221800
X0328800Y0214200
X0317400Y0212000
X0322400Y0202800
X0321200Y0287900
X0305700Y0281300
X0299900Y0281400
X0298600Y0271100
X0293900Y0271700
X0270300Y0275100
X0276400Y0287400
T03
X0223073Y0076373
Y0080704
Y0085035
Y0089365
Y0093696
Y0098027
X0227404
X0231735
X0236065
X0240396
X0244727
Y0093696
Y0089365
X0240396
Y0093696
X0236065
Y0089365
X0231735
Y0093696
X0227404
Y0089365
Y0085035
X0231735
X0236065
X0240396
X0244727
Y0080704
X0240396
X0236065
X0231735
X0227404
Y0076373
X0231735
X0236065
X0240396
X0244727
X0170627Y0075873
X0166296
X0161965
X0157635
X0153304
X0148973
Y0080204
X0153304
X0157635
X0161965
X0166296
X0170627
Y0084535
X0166296
X0161965
X0157635
X0153304
X0148973
Y0088865
Y0093196
X0153304
Y0088865
X0157635
Y0093196
X0161965
Y0088865
X0166296
Y0093196
X0170627
Y0088865
Y0097527
X0166296
X0161965
X0157635
X0153304
X0148973
T04
X0178300Y0024800
X0212600Y0040600
X0223400Y0038700
X0229800Y0036600
X0229100Y0025200
X0252700Y0025300
X0232900Y0063100
X0226800Y0067100
X0223000Y0067500
X0254100Y0082900
X0259100Y0094000
X0238500Y0114900
X0228400Y0137900
X0219000Y0138200
X0248800Y0163600
X0255700Y0170200
X0248600Y0187500
X0195700Y0190700
X0199300Y0176400
X0198400Y0155100
X0202100Y0138900
X0192100Y0138700
X0179300Y0137700
X0168900Y0140900
X0151000Y0118000
X0180300Y0106900
X0213346Y0107154
X0176900Y0067100
X0171200Y0062100
X0160300Y0062000
X0176100Y0045900
X0183800Y0045300
X0134700Y0076800
X0132000Y0090300
X0124900Y0222800
X0139500Y0222600
X0157000Y0224100
X0160337Y0233400
X0161100Y0238000
X0177100Y0239100
X0177900Y0258000
X0167500Y0268400
X0159000Y0272800
X0117400Y0264200
X0105800Y0267700
X0098400Y0270700
X0105700Y0252300
Y0248000
X0101900Y0243900
X0106200Y0233400
X0106100Y0228100
X0118100Y0241500
X0130300Y0233100
X0233300Y0253500
X0234000Y0267800
X0309500Y0255900
X0319200Y0251600
X0329200Y0248200
X0329600Y0256500
X0329300Y0262800
X0346800Y0256400
X0352600Y0255600
X0346100Y0247800
X0350200Y0274700
X0358200Y0281300
X0344724Y0287124
X0312700Y0243700
X0305400Y0240200
T05
X0131613Y0248313
Y0253038
Y0257762
Y0262487
X0136338
X0141062
X0145787
Y0257762
X0141062
X0136338
Y0253038
Y0248313
X0141062
Y0253038
X0145787
Y0248313
T06
X0067300Y0022300
X0077300
Y0032300
X0067300
Y0042300
X0077300
X0364100Y0042800
Y0032800
Y0022800
X0374100
Y0032800
Y0042800
Y0052800
Y0062800
Y0072800
Y0082800
Y0092800
Y0102800
Y0112800
Y0122800
Y0132800
Y0142800
Y0152800
Y0162800
Y0172800
X0364100
Y0162800
Y0152800
Y0142800
Y0132800
Y0122800
Y0112800
Y0102800
Y0092800
Y0082800
Y0072800
Y0062800
Y0052800
X0077300Y0052300
X0067300
Y0062300
X0077300
Y0072300
X0067300
Y0082300
X0077300
Y0092300
X0067300
Y0102300
X0077300
Y0112300
X0067300
Y0122300
X0077300
Y0132300
X0067300
Y0142300
X0077300
Y0152300
X0067300
Y0162300
X0077300
Y0172300
X0067300
X0103500Y0287400
X0113500
X0123500
X0133500
X0143500
X0153500
X0183500Y0287500
X0193500
X0203500
X0213500
X0223500
X0233500
X0378700Y0281800
Y0271800
M30
