%FSLAX25Y25*%
%MOIN*%
G70*
G01*
G75*
G04 Layer_Physical_Order=1*
G04 Layer_Color=255*
%ADD10O,0.03543X0.00984*%
%ADD11R,0.06693X0.04331*%
%ADD12R,0.01969X0.01969*%
%ADD13R,0.03543X0.03150*%
%ADD14R,0.03150X0.03543*%
%ADD15R,0.01969X0.01969*%
%ADD16R,0.02362X0.04331*%
%ADD17R,0.03150X0.03150*%
%ADD18R,0.03150X0.03150*%
%ADD19R,0.04134X0.02362*%
%ADD20R,0.02362X0.04134*%
%ADD21R,0.03150X0.02756*%
%ADD22R,0.02756X0.03150*%
%ADD23R,0.02362X0.01969*%
%ADD24R,0.01969X0.02362*%
%ADD25R,0.25590X0.25590*%
%ADD26O,0.00984X0.03543*%
%ADD27R,0.01969X0.02559*%
%ADD28R,0.03347X0.03740*%
%ADD29O,0.02559X0.00787*%
%ADD30O,0.00787X0.02559*%
%ADD31R,0.18504X0.18504*%
%ADD32R,0.02559X0.01969*%
%ADD33R,0.03543X0.02756*%
%ADD34R,0.03150X0.02953*%
%ADD35R,0.10236X0.05906*%
%ADD36R,0.00787X0.01969*%
%ADD37R,0.02953X0.05512*%
%ADD38R,0.05906X0.14173*%
%ADD39C,0.00600*%
%ADD40C,0.01000*%
%ADD41C,0.00800*%
%ADD42C,0.01200*%
%ADD43C,0.00400*%
%ADD44C,0.01600*%
%ADD45C,0.05906*%
%ADD46R,0.05906X0.05906*%
%ADD47R,0.05906X0.05906*%
%ADD48C,0.00900*%
%ADD49C,0.02000*%
%ADD50C,0.01400*%
%ADD51C,0.01969*%
%ADD52C,0.02598*%
G36*
X385100Y290400D02*
Y10900D01*
X384500Y10300D01*
X383700Y9500D01*
X178527D01*
X178491Y9768D01*
X178674Y10067D01*
X178674D01*
X178795Y10148D01*
X178949Y10251D01*
X179045Y10347D01*
X179049Y10351D01*
X179248Y10649D01*
X179318Y11000D01*
Y12868D01*
X180975D01*
Y14746D01*
X175825D01*
Y12868D01*
X177482D01*
Y11296D01*
X177452Y11251D01*
X177382Y10900D01*
X177452Y10549D01*
X177570Y10372D01*
X177651Y10251D01*
X177806Y10148D01*
X177926Y10067D01*
X177926Y10067D01*
X178109Y9768D01*
X178073Y9500D01*
X62700D01*
X61700Y10500D01*
Y10800D01*
Y238300D01*
X61600Y238400D01*
X64100Y240900D01*
Y241000D01*
X96200Y241000D01*
X96600D01*
X96700Y240900D01*
X97500Y241700D01*
Y255916D01*
X100125D01*
Y258684D01*
X98616D01*
Y260450D01*
X99784D01*
Y263591D01*
X100384D01*
Y265370D01*
X98400D01*
Y266370D01*
X100384D01*
Y268150D01*
X99318D01*
Y270700D01*
X99248Y271051D01*
X99049Y271349D01*
X98751Y271548D01*
X98400Y271618D01*
X98049Y271548D01*
X98000Y271515D01*
X97500Y271782D01*
Y290900D01*
Y291500D01*
X98000Y292000D01*
X383500D01*
X385100Y290400D01*
D02*
G37*
G36*
X83500Y268082D02*
X83500Y258269D01*
X96300Y258269D01*
X96300Y256300D01*
X81537Y256300D01*
Y256318D01*
X81531D01*
X81531Y268082D01*
X83500Y268082D01*
D02*
G37*
%LPC*%
G36*
X183654Y112000D02*
X181776D01*
Y109925D01*
X183654D01*
Y112000D01*
D02*
G37*
G36*
X109850Y150779D02*
X106687D01*
Y148010D01*
X109850D01*
Y148681D01*
X115271D01*
X151228Y112724D01*
X151054Y112290D01*
X150569Y112240D01*
X118819Y143990D01*
X118588Y144145D01*
X118315Y144199D01*
X109850D01*
Y144869D01*
X106687D01*
Y142101D01*
X109850D01*
Y142771D01*
X118019D01*
X149315Y111476D01*
X149124Y111014D01*
X147696D01*
X120629Y138080D01*
X120397Y138235D01*
X120124Y138289D01*
X109850D01*
Y138960D01*
X106687D01*
Y136191D01*
X109850D01*
Y136862D01*
X119829D01*
X146090Y110601D01*
X145922Y110062D01*
X145774Y110035D01*
X123638Y132171D01*
X123407Y132326D01*
X123134Y132380D01*
X109850D01*
Y133051D01*
X106687D01*
Y130282D01*
X109850D01*
Y130953D01*
X122838D01*
X126759Y127031D01*
X126744Y126920D01*
X126443Y126470D01*
X109850D01*
Y127141D01*
X106687D01*
Y124373D01*
X109850D01*
Y125043D01*
X126148D01*
X130161Y121029D01*
X129983Y120630D01*
X129922Y120561D01*
X109850D01*
Y121232D01*
X106687D01*
Y118463D01*
X109850D01*
Y119134D01*
X129657D01*
X140600Y108191D01*
Y106114D01*
X122996D01*
X114667Y114443D01*
X114435Y114597D01*
X114162Y114652D01*
X109850D01*
Y115322D01*
X106687D01*
Y112554D01*
X109850D01*
Y113224D01*
X113866D01*
X121877Y105214D01*
X121670Y104714D01*
X116296D01*
X112476Y108533D01*
X112245Y108688D01*
X111972Y108742D01*
X109850D01*
Y109413D01*
X106687D01*
Y106644D01*
X109850D01*
Y107315D01*
X111676D01*
X115495Y103495D01*
X115727Y103341D01*
X115767Y103333D01*
X115718Y102833D01*
X109850D01*
Y103503D01*
X106687D01*
Y100735D01*
X109850D01*
Y101405D01*
X130985D01*
X134277Y98114D01*
X134070Y97614D01*
X108959D01*
X108859Y97594D01*
X106687D01*
Y94825D01*
X109850D01*
Y96186D01*
X134304D01*
X139374Y91117D01*
X139606Y90962D01*
X139879Y90908D01*
X139864Y90414D01*
X138946D01*
X138893Y90493D01*
X138529Y90736D01*
X138334Y90775D01*
X135905Y93205D01*
X135673Y93359D01*
X135400Y93414D01*
X110669D01*
X110395Y93359D01*
X110164Y93205D01*
X108643Y91684D01*
X106687D01*
Y88916D01*
X109850D01*
Y90872D01*
X110964Y91986D01*
X131104D01*
X131255Y91486D01*
X130991Y91309D01*
X130681Y90846D01*
X130573Y90300D01*
X130681Y89754D01*
X130934Y89375D01*
X130839Y89064D01*
X130713Y88875D01*
X130376D01*
Y84925D01*
X133432D01*
X133432D01*
X133437D01*
X133450D01*
X133941Y84434D01*
Y84426D01*
X133941Y84238D01*
X132377Y82675D01*
X130176D01*
Y78725D01*
X131882D01*
Y78300D01*
X131952Y77949D01*
X132151Y77651D01*
X133340Y76463D01*
X133381Y76254D01*
X133691Y75791D01*
X134154Y75481D01*
X134700Y75373D01*
X135246Y75481D01*
X135286Y75508D01*
X135786Y75241D01*
Y70496D01*
X133494Y68203D01*
X133400Y68222D01*
X132971Y68136D01*
X132607Y67893D01*
X132364Y67529D01*
X132278Y67100D01*
X132364Y66671D01*
X132607Y66307D01*
X132971Y66064D01*
X133400Y65978D01*
X133829Y66064D01*
X134193Y66307D01*
X134436Y66671D01*
X134522Y67100D01*
X134503Y67194D01*
X136886Y69577D01*
X137354Y69420D01*
X137386Y69395D01*
Y68496D01*
X136794Y67903D01*
X136700Y67922D01*
X136271Y67836D01*
X135907Y67593D01*
X135664Y67229D01*
X135578Y66800D01*
X135664Y66371D01*
X135907Y66007D01*
X136271Y65764D01*
X136700Y65678D01*
X137129Y65764D01*
X137493Y66007D01*
X137736Y66371D01*
X137822Y66800D01*
X137803Y66894D01*
X138605Y67695D01*
X138759Y67927D01*
X138814Y68200D01*
Y75904D01*
X140037Y77128D01*
X140600D01*
Y66704D01*
X140500Y66622D01*
X140071Y66536D01*
X139707Y66293D01*
X139464Y65929D01*
X139378Y65500D01*
X139464Y65071D01*
X139707Y64707D01*
X140071Y64464D01*
X140500Y64378D01*
X140600Y64296D01*
Y62714D01*
X124246D01*
X124193Y62793D01*
X123829Y63036D01*
X123400Y63122D01*
X122971Y63036D01*
X122607Y62793D01*
X122364Y62429D01*
X122278Y62000D01*
X122364Y61571D01*
X122607Y61207D01*
X122971Y60964D01*
X123400Y60878D01*
X123829Y60964D01*
X124193Y61207D01*
X124246Y61286D01*
X140947D01*
X142212Y60022D01*
X141804Y59614D01*
X116346D01*
X116293Y59693D01*
X115929Y59936D01*
X115500Y60022D01*
X115071Y59936D01*
X114707Y59693D01*
X114464Y59329D01*
X114378Y58900D01*
X114464Y58471D01*
X114707Y58107D01*
X115071Y57864D01*
X115500Y57778D01*
X115929Y57864D01*
X116293Y58107D01*
X116346Y58186D01*
X141670D01*
X141877Y57686D01*
X141104Y56914D01*
X126346D01*
X126293Y56993D01*
X125929Y57236D01*
X125500Y57322D01*
X125071Y57236D01*
X124707Y56993D01*
X124464Y56629D01*
X124378Y56200D01*
X124464Y55771D01*
X124707Y55407D01*
X124996Y55214D01*
X124977Y54896D01*
X124913Y54714D01*
X118046D01*
X117993Y54793D01*
X117629Y55036D01*
X117200Y55122D01*
X116771Y55036D01*
X116407Y54793D01*
X116164Y54429D01*
X116078Y54000D01*
X116164Y53571D01*
X116407Y53207D01*
X116771Y52964D01*
X117200Y52878D01*
X117541Y52946D01*
X117760Y52735D01*
X117872Y52541D01*
X117864Y52529D01*
X117778Y52100D01*
X117864Y51671D01*
X118107Y51307D01*
X118471Y51064D01*
X118900Y50978D01*
X119329Y51064D01*
X119512Y51186D01*
X140926D01*
X141133Y50686D01*
X123562Y33116D01*
X80574D01*
X80566Y33175D01*
X80229Y33991D01*
X79691Y34691D01*
X78991Y35229D01*
X78175Y35566D01*
X77300Y35682D01*
X76425Y35566D01*
X75609Y35229D01*
X74909Y34691D01*
X74371Y33991D01*
X74034Y33175D01*
X73918Y32300D01*
X74034Y31425D01*
X74371Y30609D01*
X74909Y29909D01*
X75609Y29371D01*
X76425Y29034D01*
X77300Y28918D01*
X78175Y29034D01*
X78991Y29371D01*
X79691Y29909D01*
X80229Y30609D01*
X80566Y31425D01*
X80574Y31484D01*
X123900D01*
X123900Y31484D01*
X124179Y31540D01*
X124209Y31518D01*
X124372Y31026D01*
X116462Y23116D01*
X80574D01*
X80566Y23175D01*
X80229Y23991D01*
X79691Y24691D01*
X78991Y25229D01*
X78175Y25567D01*
X77300Y25682D01*
X76425Y25567D01*
X75609Y25229D01*
X74909Y24691D01*
X74371Y23991D01*
X74034Y23175D01*
X73918Y22300D01*
X74034Y21425D01*
X74371Y20609D01*
X74909Y19909D01*
X75609Y19371D01*
X76425Y19034D01*
X77300Y18918D01*
X78175Y19034D01*
X78991Y19371D01*
X79691Y19909D01*
X80229Y20609D01*
X80566Y21425D01*
X80574Y21484D01*
X116800D01*
X116800Y21484D01*
X117112Y21546D01*
X117377Y21723D01*
X154654Y59000D01*
X156169D01*
Y53244D01*
X159113D01*
Y52644D01*
X159113D01*
X159146Y52144D01*
X158451Y51449D01*
X158252Y51151D01*
X158182Y50800D01*
X158252Y50449D01*
X158451Y50151D01*
X158749Y49952D01*
X159100Y49882D01*
X159451Y49952D01*
X159749Y50151D01*
X161155Y51557D01*
X161354Y51855D01*
X161424Y52206D01*
Y52644D01*
X161900D01*
Y53244D01*
X165631D01*
Y58647D01*
X165672Y58854D01*
Y59000D01*
X169983D01*
X170191Y58500D01*
X169423Y57732D01*
X166725D01*
Y54176D01*
X170675D01*
Y56966D01*
X171396Y57686D01*
X172353D01*
Y57450D01*
X179354D01*
X179846Y57450D01*
X179851Y57447D01*
X179851Y57447D01*
X179852Y57447D01*
X180053Y57350D01*
X180054Y57350D01*
Y57350D01*
X180305Y57350D01*
X187547D01*
Y59000D01*
X211282D01*
Y58500D01*
X211352Y58149D01*
X211551Y57851D01*
X211849Y57652D01*
X212200Y57582D01*
X212551Y57652D01*
X212849Y57851D01*
X213048Y58149D01*
X213118Y58500D01*
Y59000D01*
X215144D01*
X215553Y58780D01*
Y53650D01*
X223046D01*
Y58780D01*
X223456Y59000D01*
X224344D01*
X224753Y58780D01*
Y53650D01*
X232246D01*
Y58780D01*
X232656Y59000D01*
X260500D01*
Y64342D01*
X260930Y64385D01*
X260970Y64389D01*
X260994Y64391D01*
X261000Y64392D01*
X261050Y64141D01*
X261050Y64141D01*
X261064Y64071D01*
X261307Y63707D01*
X261671Y63464D01*
X262100Y63378D01*
X262529Y63464D01*
X262893Y63707D01*
X263136Y64071D01*
X263222Y64500D01*
X263136Y64929D01*
X262893Y65293D01*
X262529Y65536D01*
X262100Y65622D01*
X261671Y65536D01*
X261307Y65293D01*
X261064Y64929D01*
X261050Y64859D01*
X261050Y64859D01*
X261000Y64608D01*
X260994Y64609D01*
X260970Y64611D01*
X260930Y64615D01*
X260500Y64658D01*
Y67545D01*
X260593Y67607D01*
X260836Y67971D01*
X260922Y68400D01*
X260836Y68829D01*
X260593Y69193D01*
X260500Y69255D01*
Y70086D01*
X283850D01*
Y69416D01*
X287013D01*
Y72184D01*
X283850D01*
Y71514D01*
X260500D01*
Y75686D01*
X283850D01*
Y74016D01*
X287013D01*
Y76784D01*
X285057D01*
X284936Y76905D01*
X284705Y77059D01*
X284432Y77114D01*
X260500D01*
Y89286D01*
X267366D01*
X268957Y87695D01*
X269188Y87541D01*
X269461Y87486D01*
X296504D01*
X315795Y68195D01*
X316027Y68041D01*
X316300Y67986D01*
X318149D01*
Y67316D01*
X321311D01*
Y70084D01*
X318149D01*
Y69414D01*
X316596D01*
X297305Y88705D01*
X297073Y88859D01*
X296800Y88914D01*
X269757D01*
X268166Y90505D01*
X267935Y90659D01*
X267661Y90714D01*
X260500D01*
Y91286D01*
X300404D01*
X318149Y73542D01*
Y72116D01*
X321311D01*
Y74884D01*
X318825D01*
X301205Y92505D01*
X300973Y92659D01*
X300700Y92714D01*
X260500D01*
Y93862D01*
X260527Y94000D01*
X260500Y94138D01*
Y96086D01*
X300804D01*
X318149Y78742D01*
Y77016D01*
X321311D01*
Y78229D01*
X321345Y78400D01*
X321311Y78570D01*
Y79784D01*
X319125D01*
X301723Y97186D01*
X301880Y97654D01*
X301905Y97686D01*
X303926D01*
X318149Y83464D01*
Y81516D01*
X321311D01*
Y84284D01*
X319347D01*
X304727Y98905D01*
X304495Y99059D01*
X304222Y99114D01*
X258486D01*
X255476Y102124D01*
X255667Y102586D01*
X303304D01*
X318149Y87742D01*
Y86316D01*
X321311D01*
Y89084D01*
X318825D01*
X304105Y103805D01*
X303873Y103959D01*
X303600Y104014D01*
X253586D01*
X252276Y105324D01*
X252467Y105786D01*
X305604D01*
X318149Y93242D01*
Y91449D01*
X321311D01*
Y94218D01*
X319192D01*
X306723Y106686D01*
X306930Y107186D01*
X309004D01*
X318149Y98042D01*
Y96582D01*
X321311D01*
Y99351D01*
X318858D01*
X310223Y107986D01*
X310430Y108486D01*
X312704D01*
X318149Y103042D01*
Y101716D01*
X321311D01*
Y104484D01*
X318725D01*
X313523Y109686D01*
X313527Y109765D01*
X313684Y110186D01*
X316204D01*
X318149Y108242D01*
Y106849D01*
X321311D01*
Y109618D01*
X318792D01*
X317423Y110986D01*
X317630Y111486D01*
X317965D01*
X318238Y111541D01*
X318470Y111695D01*
X318757Y111982D01*
X321311D01*
Y114751D01*
X318149D01*
Y113394D01*
X317669Y112914D01*
X314430D01*
X314223Y113414D01*
X317896Y117086D01*
X319100D01*
X319248Y117116D01*
X321311D01*
Y119884D01*
X318149D01*
Y118514D01*
X317600D01*
X317327Y118459D01*
X317095Y118305D01*
X313004Y114214D01*
X240281D01*
X239890Y114714D01*
X239927Y114900D01*
X239819Y115446D01*
X239509Y115909D01*
X239046Y116219D01*
X238500Y116327D01*
X237954Y116219D01*
X237491Y115909D01*
X237181Y115446D01*
X237073Y114900D01*
X237181Y114354D01*
X237491Y113891D01*
X237954Y113581D01*
X238046Y113563D01*
X238211Y113020D01*
X236532Y111342D01*
X236032Y111549D01*
Y113200D01*
X234154D01*
Y111125D01*
X235609D01*
X235816Y110625D01*
X234295Y109105D01*
X234141Y108873D01*
X234106Y108700D01*
X228732D01*
X228322Y109200D01*
X228303Y109294D01*
X228805Y109795D01*
X228959Y110027D01*
X229014Y110300D01*
Y111725D01*
X229724D01*
Y115675D01*
X229014D01*
Y116920D01*
X231846D01*
Y122050D01*
X224354D01*
Y116920D01*
X227586D01*
Y115675D01*
X226168D01*
Y111725D01*
X227586D01*
Y110663D01*
X227200Y110322D01*
X226771Y110236D01*
X226407Y109993D01*
X226164Y109629D01*
X226079Y109200D01*
X225668Y108700D01*
X224022D01*
X223893Y108893D01*
X223814Y108946D01*
Y113247D01*
X223759Y113520D01*
X223605Y113752D01*
X222446Y114910D01*
Y119150D01*
X214953D01*
Y114020D01*
X221318D01*
X222386Y112952D01*
Y108946D01*
X222307Y108893D01*
X222178Y108700D01*
X175363D01*
X175171Y109162D01*
X176196Y110186D01*
X176846D01*
X177119Y110241D01*
X177350Y110395D01*
X177480Y110525D01*
X180224D01*
Y114475D01*
X179159D01*
Y117397D01*
X179182Y117420D01*
X185747D01*
Y122550D01*
X178253D01*
Y118510D01*
X177941Y118198D01*
X177786Y117966D01*
X177732Y117693D01*
Y114475D01*
X176668D01*
Y112201D01*
X176632Y112173D01*
X176132Y112414D01*
Y113500D01*
X173754D01*
Y114500D01*
X176132D01*
Y116575D01*
X174672D01*
Y118046D01*
X174614Y118339D01*
X174602Y118397D01*
X174403Y118694D01*
X174349Y118749D01*
X174051Y118948D01*
X173796Y118999D01*
X173693Y119026D01*
X173346Y119457D01*
Y124250D01*
X165854D01*
Y119120D01*
X167386D01*
Y115975D01*
X166387D01*
X166336Y116229D01*
X166093Y116593D01*
X165729Y116836D01*
X165300Y116922D01*
X164871Y116836D01*
X164612Y116663D01*
X163675D01*
Y117524D01*
X159725D01*
Y113968D01*
X161835D01*
Y111552D01*
X161720Y111469D01*
X161335Y111363D01*
X157975Y114723D01*
Y117624D01*
X154025D01*
Y117618D01*
X152778D01*
X152427Y118000D01*
X152319Y118546D01*
X152009Y119009D01*
X151546Y119319D01*
X151000Y119427D01*
X150454Y119319D01*
X149991Y119009D01*
X149681Y118546D01*
X149573Y118000D01*
X149681Y117454D01*
X149991Y116991D01*
X150454Y116681D01*
X151000Y116573D01*
X151108Y116594D01*
X151651Y116051D01*
X151949Y115852D01*
X152300Y115782D01*
X154025D01*
Y114068D01*
X156040D01*
X156051Y114051D01*
X159867Y110236D01*
Y109171D01*
X159367Y109020D01*
X159320Y109089D01*
X155105Y113305D01*
X154873Y113459D01*
X154600Y113514D01*
X152457D01*
X116071Y149899D01*
X115840Y150054D01*
X115567Y150108D01*
X109850D01*
Y150779D01*
D02*
G37*
G36*
X233154Y113200D02*
X231276D01*
Y111125D01*
X233154D01*
Y113200D01*
D02*
G37*
G36*
X186532Y115075D02*
X184654D01*
Y112500D01*
Y109925D01*
X186532D01*
Y111582D01*
X188100D01*
X188451Y111652D01*
X188749Y111851D01*
X188948Y112149D01*
X189018Y112500D01*
X188948Y112851D01*
X188749Y113149D01*
X188451Y113348D01*
X188100Y113418D01*
X186532D01*
Y115075D01*
D02*
G37*
G36*
X378021Y112300D02*
X374600D01*
Y108879D01*
X375132Y108949D01*
X376093Y109347D01*
X376919Y109981D01*
X377553Y110807D01*
X377951Y111768D01*
X378021Y112300D01*
D02*
G37*
G36*
X81221Y111800D02*
X77800D01*
Y108379D01*
X78332Y108449D01*
X79293Y108847D01*
X80119Y109481D01*
X80753Y110307D01*
X81151Y111268D01*
X81221Y111800D01*
D02*
G37*
G36*
X76800D02*
X73379D01*
X73449Y111268D01*
X73847Y110307D01*
X74481Y109481D01*
X75307Y108847D01*
X76268Y108449D01*
X76800Y108379D01*
Y111800D01*
D02*
G37*
G36*
X363600Y112300D02*
X360179D01*
X360249Y111768D01*
X360647Y110807D01*
X361281Y109981D01*
X362107Y109347D01*
X363068Y108949D01*
X363600Y108879D01*
Y112300D01*
D02*
G37*
G36*
X373600D02*
X370179D01*
X370249Y111768D01*
X370647Y110807D01*
X371281Y109981D01*
X372107Y109347D01*
X373068Y108949D01*
X373600Y108879D01*
Y112300D01*
D02*
G37*
G36*
X368021D02*
X364600D01*
Y108879D01*
X365132Y108949D01*
X366093Y109347D01*
X366919Y109981D01*
X367553Y110807D01*
X367951Y111768D01*
X368021Y112300D01*
D02*
G37*
G36*
X66800Y116221D02*
X66268Y116151D01*
X65307Y115753D01*
X64481Y115119D01*
X63847Y114293D01*
X63449Y113332D01*
X63379Y112800D01*
X66800D01*
Y116221D01*
D02*
G37*
G36*
X374600Y116721D02*
Y113300D01*
X378021D01*
X377951Y113832D01*
X377553Y114793D01*
X376919Y115619D01*
X376093Y116253D01*
X375132Y116651D01*
X374600Y116721D01*
D02*
G37*
G36*
X373600D02*
X373068Y116651D01*
X372107Y116253D01*
X371281Y115619D01*
X370647Y114793D01*
X370249Y113832D01*
X370179Y113300D01*
X373600D01*
Y116721D01*
D02*
G37*
G36*
X234200Y121118D02*
X233849Y121048D01*
X233551Y120849D01*
X233352Y120551D01*
X233282Y120200D01*
Y116275D01*
X231276D01*
Y114200D01*
X236032D01*
Y116275D01*
X235118D01*
Y120200D01*
X235048Y120551D01*
X234849Y120849D01*
X234551Y121048D01*
X234200Y121118D01*
D02*
G37*
G36*
X71221Y121800D02*
X67800D01*
Y118379D01*
X68332Y118449D01*
X69293Y118847D01*
X70119Y119481D01*
X70753Y120307D01*
X71151Y121268D01*
X71221Y121800D01*
D02*
G37*
G36*
X66800D02*
X63379D01*
X63449Y121268D01*
X63847Y120307D01*
X64481Y119481D01*
X65307Y118847D01*
X66268Y118449D01*
X66800Y118379D01*
Y121800D01*
D02*
G37*
G36*
X364600Y116721D02*
Y113300D01*
X368021D01*
X367951Y113832D01*
X367553Y114793D01*
X366919Y115619D01*
X366093Y116253D01*
X365132Y116651D01*
X364600Y116721D01*
D02*
G37*
G36*
X76800Y116221D02*
X76268Y116151D01*
X75307Y115753D01*
X74481Y115119D01*
X73847Y114293D01*
X73449Y113332D01*
X73379Y112800D01*
X76800D01*
Y116221D01*
D02*
G37*
G36*
X67800D02*
Y112800D01*
X71221D01*
X71151Y113332D01*
X70753Y114293D01*
X70119Y115119D01*
X69293Y115753D01*
X68332Y116151D01*
X67800Y116221D01*
D02*
G37*
G36*
X77800D02*
Y112800D01*
X81221D01*
X81151Y113332D01*
X80753Y114293D01*
X80119Y115119D01*
X79293Y115753D01*
X78332Y116151D01*
X77800Y116221D01*
D02*
G37*
G36*
X363600Y116721D02*
X363068Y116651D01*
X362107Y116253D01*
X361281Y115619D01*
X360647Y114793D01*
X360249Y113832D01*
X360179Y113300D01*
X363600D01*
Y116721D01*
D02*
G37*
G36*
X183654Y115075D02*
X181776D01*
Y113000D01*
X183654D01*
Y115075D01*
D02*
G37*
G36*
X374100Y96182D02*
X373225Y96066D01*
X372409Y95729D01*
X371709Y95191D01*
X371171Y94491D01*
X370834Y93675D01*
X370718Y92800D01*
X370834Y91925D01*
X371171Y91109D01*
X371271Y90980D01*
X368704Y88414D01*
X364897D01*
X364864Y88914D01*
X365132Y88949D01*
X366093Y89347D01*
X366919Y89981D01*
X367553Y90807D01*
X367951Y91768D01*
X368021Y92300D01*
X360179D01*
X360249Y91768D01*
X360647Y90807D01*
X361281Y89981D01*
X362107Y89347D01*
X363068Y88949D01*
X363336Y88914D01*
X363303Y88414D01*
X325248D01*
Y89084D01*
X322086D01*
Y86316D01*
X325248D01*
Y86986D01*
X362571D01*
X362670Y86486D01*
X362107Y86253D01*
X361281Y85619D01*
X360647Y84793D01*
X360249Y83832D01*
X360179Y83300D01*
X368021D01*
X367951Y83832D01*
X367553Y84793D01*
X366919Y85619D01*
X366093Y86253D01*
X365529Y86486D01*
X365629Y86986D01*
X369000D01*
X369273Y87041D01*
X369505Y87195D01*
X372280Y89971D01*
X372409Y89871D01*
X373225Y89534D01*
X374100Y89418D01*
X374975Y89534D01*
X375791Y89871D01*
X376491Y90409D01*
X377029Y91109D01*
X377366Y91925D01*
X377482Y92800D01*
X377366Y93675D01*
X377029Y94491D01*
X376491Y95191D01*
X375791Y95729D01*
X374975Y96066D01*
X374100Y96182D01*
D02*
G37*
G36*
X71221Y91800D02*
X67800D01*
Y88379D01*
X68332Y88449D01*
X69293Y88847D01*
X70119Y89481D01*
X70753Y90307D01*
X71151Y91268D01*
X71221Y91800D01*
D02*
G37*
G36*
X66800Y96221D02*
X66268Y96151D01*
X65307Y95753D01*
X64481Y95119D01*
X63847Y94293D01*
X63449Y93332D01*
X63379Y92800D01*
X66800D01*
Y96221D01*
D02*
G37*
G36*
X105913Y115322D02*
X102750D01*
Y113366D01*
X82398Y93014D01*
X80588D01*
X80566Y93175D01*
X80229Y93991D01*
X79691Y94691D01*
X78991Y95229D01*
X78175Y95566D01*
X77300Y95682D01*
X76425Y95566D01*
X75609Y95229D01*
X74909Y94691D01*
X74371Y93991D01*
X74034Y93175D01*
X73918Y92300D01*
X74034Y91425D01*
X74371Y90609D01*
X74909Y89909D01*
X75609Y89371D01*
X76425Y89034D01*
X77300Y88918D01*
X78175Y89034D01*
X78991Y89371D01*
X79691Y89909D01*
X80229Y90609D01*
X80566Y91425D01*
X80588Y91586D01*
X82694D01*
X82967Y91641D01*
X83198Y91795D01*
X103957Y112554D01*
X105913D01*
Y115322D01*
D02*
G37*
G36*
X67800Y96221D02*
Y92800D01*
X71221D01*
X71151Y93332D01*
X70753Y94293D01*
X70119Y95119D01*
X69293Y95753D01*
X68332Y96151D01*
X67800Y96221D01*
D02*
G37*
G36*
X66800Y91800D02*
X63379D01*
X63449Y91268D01*
X63847Y90307D01*
X64481Y89481D01*
X65307Y88847D01*
X66268Y88449D01*
X66800Y88379D01*
Y91800D01*
D02*
G37*
G36*
X374600Y86721D02*
Y83300D01*
X378021D01*
X377951Y83832D01*
X377553Y84793D01*
X376919Y85619D01*
X376093Y86253D01*
X375132Y86651D01*
X374600Y86721D01*
D02*
G37*
G36*
X373600D02*
X373068Y86651D01*
X372107Y86253D01*
X371281Y85619D01*
X370647Y84793D01*
X370249Y83832D01*
X370179Y83300D01*
X373600D01*
Y86721D01*
D02*
G37*
G36*
X125946Y89475D02*
X124068D01*
Y87118D01*
X120200D01*
X119907Y87059D01*
X119849Y87048D01*
X119551Y86849D01*
X119551Y86849D01*
X119352Y86551D01*
X119282Y86200D01*
X119352Y85849D01*
X119551Y85551D01*
X119849Y85352D01*
X120200Y85282D01*
X120200Y85282D01*
X124068D01*
Y84325D01*
X125946D01*
Y86900D01*
Y89475D01*
D02*
G37*
G36*
X128824D02*
X126946D01*
Y87400D01*
X128824D01*
Y89475D01*
D02*
G37*
G36*
Y86400D02*
X126946D01*
Y84325D01*
X128824D01*
Y86400D01*
D02*
G37*
G36*
X363600Y96721D02*
X363068Y96651D01*
X362107Y96253D01*
X361281Y95619D01*
X360647Y94793D01*
X360249Y93832D01*
X360179Y93300D01*
X363600D01*
Y96721D01*
D02*
G37*
G36*
Y106721D02*
X363068Y106651D01*
X362107Y106253D01*
X361281Y105619D01*
X360647Y104793D01*
X360249Y103832D01*
X360179Y103300D01*
X363600D01*
Y106721D01*
D02*
G37*
G36*
X105913Y121232D02*
X102750D01*
Y119276D01*
X86488Y103014D01*
X80588D01*
X80566Y103175D01*
X80229Y103991D01*
X79691Y104691D01*
X78991Y105229D01*
X78175Y105567D01*
X77300Y105682D01*
X76425Y105567D01*
X75609Y105229D01*
X74909Y104691D01*
X74371Y103991D01*
X74034Y103175D01*
X73918Y102300D01*
X74034Y101425D01*
X74371Y100609D01*
X74909Y99909D01*
X75609Y99371D01*
X76425Y99034D01*
X77300Y98918D01*
X78175Y99034D01*
X78991Y99371D01*
X79691Y99909D01*
X80229Y100609D01*
X80566Y101425D01*
X80588Y101586D01*
X86784D01*
X87057Y101641D01*
X87289Y101795D01*
X103957Y118463D01*
X105913D01*
Y121232D01*
D02*
G37*
G36*
X364600Y106721D02*
Y103300D01*
X368021D01*
X367951Y103832D01*
X367553Y104793D01*
X366919Y105619D01*
X366093Y106253D01*
X365132Y106651D01*
X364600Y106721D01*
D02*
G37*
G36*
X71221Y111800D02*
X67800D01*
Y108379D01*
X68332Y108449D01*
X69293Y108847D01*
X70119Y109481D01*
X70753Y110307D01*
X71151Y111268D01*
X71221Y111800D01*
D02*
G37*
G36*
X66800D02*
X63379D01*
X63449Y111268D01*
X63847Y110307D01*
X64481Y109481D01*
X65307Y108847D01*
X66268Y108449D01*
X66800Y108379D01*
Y111800D01*
D02*
G37*
G36*
X67800Y106221D02*
Y102800D01*
X71221D01*
X71151Y103332D01*
X70753Y104293D01*
X70119Y105119D01*
X69293Y105753D01*
X68332Y106151D01*
X67800Y106221D01*
D02*
G37*
G36*
X66800Y101800D02*
X63379D01*
X63449Y101268D01*
X63847Y100307D01*
X64481Y99481D01*
X65307Y98847D01*
X66268Y98449D01*
X66800Y98379D01*
Y101800D01*
D02*
G37*
G36*
X364600Y96721D02*
Y93300D01*
X368021D01*
X367951Y93832D01*
X367553Y94793D01*
X366919Y95619D01*
X366093Y96253D01*
X365132Y96651D01*
X364600Y96721D01*
D02*
G37*
G36*
X71221Y101800D02*
X67800D01*
Y98379D01*
X68332Y98449D01*
X69293Y98847D01*
X70119Y99481D01*
X70753Y100307D01*
X71151Y101268D01*
X71221Y101800D01*
D02*
G37*
G36*
X66800Y106221D02*
X66268Y106151D01*
X65307Y105753D01*
X64481Y105119D01*
X63847Y104293D01*
X63449Y103332D01*
X63379Y102800D01*
X66800D01*
Y106221D01*
D02*
G37*
G36*
X374100Y106182D02*
X373225Y106067D01*
X372409Y105729D01*
X371709Y105191D01*
X371171Y104491D01*
X370834Y103675D01*
X370718Y102800D01*
X370834Y101925D01*
X371171Y101109D01*
X371271Y100980D01*
X369404Y99114D01*
X366610D01*
X366441Y99614D01*
X366919Y99981D01*
X367553Y100807D01*
X367951Y101768D01*
X368021Y102300D01*
X360179D01*
X360249Y101768D01*
X360647Y100807D01*
X361281Y99981D01*
X361759Y99614D01*
X361590Y99114D01*
X348200D01*
X347927Y99059D01*
X347695Y98905D01*
X342338Y93547D01*
X325248D01*
Y94218D01*
X322086D01*
Y91449D01*
X325248D01*
Y92120D01*
X342633D01*
X342906Y92174D01*
X343138Y92329D01*
X348496Y97686D01*
X369700D01*
X369973Y97741D01*
X370205Y97895D01*
X372280Y99971D01*
X372409Y99871D01*
X373225Y99534D01*
X374100Y99418D01*
X374975Y99534D01*
X375791Y99871D01*
X376491Y100409D01*
X377029Y101109D01*
X377366Y101925D01*
X377482Y102800D01*
X377366Y103675D01*
X377029Y104491D01*
X376491Y105191D01*
X375791Y105729D01*
X374975Y106067D01*
X374100Y106182D01*
D02*
G37*
G36*
X161200Y120954D02*
X159125D01*
Y119076D01*
X161200D01*
Y120954D01*
D02*
G37*
G36*
X186100Y149418D02*
X185749Y149348D01*
X185451Y149149D01*
X185252Y148851D01*
X185182Y148500D01*
X185230Y148263D01*
Y146675D01*
X183572D01*
Y144600D01*
X188722D01*
Y146675D01*
X187065D01*
Y148453D01*
X186995Y148804D01*
X186796Y149102D01*
X186749Y149149D01*
X186451Y149348D01*
X186100Y149418D01*
D02*
G37*
G36*
X67800Y146221D02*
Y142800D01*
X71221D01*
X71151Y143332D01*
X70753Y144293D01*
X70119Y145119D01*
X69293Y145753D01*
X68332Y146151D01*
X67800Y146221D01*
D02*
G37*
G36*
X201600Y149254D02*
X199525D01*
Y147376D01*
X201600D01*
Y149254D01*
D02*
G37*
G36*
X77300Y175682D02*
X76425Y175566D01*
X75609Y175229D01*
X74909Y174691D01*
X74371Y173991D01*
X74034Y173175D01*
X73918Y172300D01*
X74034Y171425D01*
X74371Y170609D01*
X74909Y169909D01*
X75609Y169371D01*
X76425Y169034D01*
X77300Y168918D01*
X78175Y169034D01*
X78991Y169371D01*
X79691Y169909D01*
X80229Y170609D01*
X80566Y171425D01*
X80588Y171586D01*
X81131D01*
X102750Y149967D01*
Y148010D01*
X105913D01*
Y150779D01*
X103957D01*
X81931Y172805D01*
X81699Y172959D01*
X81426Y173014D01*
X80588D01*
X80566Y173175D01*
X80229Y173991D01*
X79691Y174691D01*
X78991Y175229D01*
X78175Y175566D01*
X77300Y175682D01*
D02*
G37*
G36*
X204675Y152132D02*
X202600D01*
Y149754D01*
Y147376D01*
X204675D01*
Y148837D01*
X207054D01*
X207405Y148907D01*
X207703Y149106D01*
X207749Y149151D01*
X207948Y149449D01*
X208018Y149800D01*
X207948Y150151D01*
X207749Y150449D01*
X207451Y150648D01*
X207100Y150718D01*
X206870Y150672D01*
X204675D01*
Y152132D01*
D02*
G37*
G36*
X66800Y146221D02*
X66268Y146151D01*
X65307Y145753D01*
X64481Y145119D01*
X63847Y144293D01*
X63449Y143332D01*
X63379Y142800D01*
X66800D01*
Y146221D01*
D02*
G37*
G36*
X374100Y146182D02*
X373225Y146066D01*
X372409Y145729D01*
X371709Y145191D01*
X371171Y144491D01*
X370834Y143675D01*
X370718Y142800D01*
X370834Y141925D01*
X371171Y141109D01*
X371271Y140980D01*
X369404Y139114D01*
X366610D01*
X366441Y139614D01*
X366919Y139981D01*
X367553Y140807D01*
X367951Y141768D01*
X368021Y142300D01*
X360179D01*
X360249Y141768D01*
X360647Y140807D01*
X361281Y139981D01*
X361759Y139614D01*
X361590Y139114D01*
X358600D01*
X358327Y139059D01*
X358095Y138905D01*
X328138Y108947D01*
X325248D01*
Y109618D01*
X322086D01*
Y106849D01*
X325248D01*
Y107520D01*
X328433D01*
X328707Y107574D01*
X328938Y107729D01*
X358896Y137686D01*
X369700D01*
X369973Y137741D01*
X370205Y137895D01*
X372280Y139971D01*
X372409Y139871D01*
X373225Y139533D01*
X374100Y139418D01*
X374975Y139533D01*
X375791Y139871D01*
X376491Y140409D01*
X377029Y141109D01*
X377366Y141925D01*
X377482Y142800D01*
X377366Y143675D01*
X377029Y144491D01*
X376491Y145191D01*
X375791Y145729D01*
X374975Y146066D01*
X374100Y146182D01*
D02*
G37*
G36*
X71221Y141800D02*
X67800D01*
Y138379D01*
X68332Y138449D01*
X69293Y138847D01*
X70119Y139481D01*
X70753Y140307D01*
X71151Y141268D01*
X71221Y141800D01*
D02*
G37*
G36*
X185647Y143600D02*
X183572D01*
Y141525D01*
X185647D01*
Y143600D01*
D02*
G37*
G36*
X77300Y155682D02*
X76425Y155567D01*
X75609Y155229D01*
X74909Y154691D01*
X74371Y153991D01*
X74034Y153175D01*
X73918Y152300D01*
X74034Y151425D01*
X74371Y150609D01*
X74909Y149909D01*
X75609Y149371D01*
X76425Y149033D01*
X77300Y148918D01*
X78175Y149033D01*
X78991Y149371D01*
X79691Y149909D01*
X80229Y150609D01*
X80566Y151425D01*
X80588Y151586D01*
X92404D01*
X101010Y142981D01*
X101242Y142826D01*
X101515Y142771D01*
X102750D01*
Y142101D01*
X105913D01*
Y144869D01*
X102750D01*
Y144199D01*
X101810D01*
X93205Y152805D01*
X92973Y152959D01*
X92700Y153014D01*
X80588D01*
X80566Y153175D01*
X80229Y153991D01*
X79691Y154691D01*
X78991Y155229D01*
X78175Y155567D01*
X77300Y155682D01*
D02*
G37*
G36*
X188722Y143600D02*
X186647D01*
Y141525D01*
X188722D01*
Y143600D01*
D02*
G37*
G36*
X66800Y151800D02*
X63379D01*
X63449Y151268D01*
X63847Y150307D01*
X64481Y149481D01*
X65307Y148847D01*
X66268Y148449D01*
X66800Y148379D01*
Y151800D01*
D02*
G37*
G36*
X194272Y157031D02*
X189928D01*
Y153081D01*
X194272D01*
Y154036D01*
X197472D01*
X197854Y153781D01*
X198400Y153673D01*
X198946Y153781D01*
X199409Y154091D01*
X199719Y154554D01*
X199827Y155100D01*
X199719Y155646D01*
X199409Y156109D01*
X198946Y156419D01*
X198400Y156527D01*
X197854Y156419D01*
X197391Y156109D01*
X197368Y156076D01*
X194272D01*
Y157031D01*
D02*
G37*
G36*
X364600Y156721D02*
Y153300D01*
X368021D01*
X367951Y153832D01*
X367553Y154793D01*
X366919Y155619D01*
X366093Y156253D01*
X365132Y156651D01*
X364600Y156721D01*
D02*
G37*
G36*
X299047Y169087D02*
X292342D01*
Y154113D01*
X299047D01*
Y169087D01*
D02*
G37*
G36*
X66800Y161800D02*
X63379D01*
X63449Y161268D01*
X63847Y160307D01*
X64481Y159481D01*
X65307Y158847D01*
X66268Y158449D01*
X66800Y158379D01*
Y161800D01*
D02*
G37*
G36*
X310858Y169087D02*
X304153D01*
Y154113D01*
X310858D01*
Y169087D01*
D02*
G37*
G36*
X363600Y156721D02*
X363068Y156651D01*
X362107Y156253D01*
X361281Y155619D01*
X360647Y154793D01*
X360249Y153832D01*
X360179Y153300D01*
X363600D01*
Y156721D01*
D02*
G37*
G36*
X374100Y156182D02*
X373225Y156067D01*
X372409Y155729D01*
X371709Y155191D01*
X371171Y154491D01*
X370834Y153675D01*
X370718Y152800D01*
X370834Y151925D01*
X371171Y151109D01*
X371271Y150980D01*
X368904Y148614D01*
X365629D01*
X365530Y149114D01*
X366093Y149347D01*
X366919Y149981D01*
X367553Y150807D01*
X367951Y151768D01*
X368021Y152300D01*
X360179D01*
X360249Y151768D01*
X360647Y150807D01*
X361281Y149981D01*
X362107Y149347D01*
X362670Y149114D01*
X362571Y148614D01*
X362400D01*
X362127Y148559D01*
X361895Y148405D01*
X327571Y114080D01*
X325248D01*
Y114751D01*
X322086D01*
Y111982D01*
X325248D01*
Y112653D01*
X327867D01*
X328140Y112707D01*
X328371Y112862D01*
X359967Y144458D01*
X360391Y144174D01*
X360249Y143832D01*
X360179Y143300D01*
X368021D01*
X367951Y143832D01*
X367553Y144793D01*
X366919Y145619D01*
X366093Y146253D01*
X365132Y146651D01*
X364864Y146686D01*
X364897Y147186D01*
X369200D01*
X369473Y147241D01*
X369705Y147395D01*
X372280Y149971D01*
X372409Y149871D01*
X373225Y149533D01*
X374100Y149418D01*
X374975Y149533D01*
X375791Y149871D01*
X376491Y150409D01*
X377029Y151109D01*
X377366Y151925D01*
X377482Y152800D01*
X377366Y153675D01*
X377029Y154491D01*
X376491Y155191D01*
X375791Y155729D01*
X374975Y156067D01*
X374100Y156182D01*
D02*
G37*
G36*
X71221Y151800D02*
X67800D01*
Y148379D01*
X68332Y148449D01*
X69293Y148847D01*
X70119Y149481D01*
X70753Y150307D01*
X71151Y151268D01*
X71221Y151800D01*
D02*
G37*
G36*
X201600Y152132D02*
X199525D01*
Y150254D01*
X201600D01*
Y152132D01*
D02*
G37*
G36*
X67800Y156221D02*
Y152800D01*
X71221D01*
X71151Y153332D01*
X70753Y154293D01*
X70119Y155119D01*
X69293Y155753D01*
X68332Y156151D01*
X67800Y156221D01*
D02*
G37*
G36*
X66800D02*
X66268Y156151D01*
X65307Y155753D01*
X64481Y155119D01*
X63847Y154293D01*
X63449Y153332D01*
X63379Y152800D01*
X66800D01*
Y156221D01*
D02*
G37*
G36*
Y141800D02*
X63379D01*
X63449Y141268D01*
X63847Y140307D01*
X64481Y139481D01*
X65307Y138847D01*
X66268Y138449D01*
X66800Y138379D01*
Y141800D01*
D02*
G37*
G36*
X67800Y126221D02*
Y122800D01*
X71221D01*
X71151Y123332D01*
X70753Y124293D01*
X70119Y125119D01*
X69293Y125753D01*
X68332Y126151D01*
X67800Y126221D01*
D02*
G37*
G36*
X66800D02*
X66268Y126151D01*
X65307Y125753D01*
X64481Y125119D01*
X63847Y124293D01*
X63449Y123332D01*
X63379Y122800D01*
X66800D01*
Y126221D01*
D02*
G37*
G36*
X105913Y127141D02*
X102750D01*
Y125185D01*
X100579Y123014D01*
X80588D01*
X80566Y123175D01*
X80229Y123991D01*
X79691Y124691D01*
X78991Y125229D01*
X78175Y125566D01*
X77300Y125682D01*
X76425Y125566D01*
X75609Y125229D01*
X74909Y124691D01*
X74371Y123991D01*
X74034Y123175D01*
X73918Y122300D01*
X74034Y121425D01*
X74371Y120609D01*
X74909Y119909D01*
X75609Y119371D01*
X76425Y119034D01*
X77300Y118918D01*
X78175Y119034D01*
X78991Y119371D01*
X79691Y119909D01*
X80229Y120609D01*
X80566Y121425D01*
X80588Y121586D01*
X100875D01*
X101148Y121641D01*
X101379Y121795D01*
X103957Y124373D01*
X105913D01*
Y127141D01*
D02*
G37*
G36*
X228400Y139327D02*
X227854Y139219D01*
X227391Y138909D01*
X227081Y138446D01*
X226973Y137900D01*
X227081Y137354D01*
X227380Y136906D01*
Y132680D01*
X224354D01*
Y127550D01*
X231846D01*
Y132680D01*
X229420D01*
Y136906D01*
X229719Y137354D01*
X229827Y137900D01*
X229719Y138446D01*
X229409Y138909D01*
X228946Y139219D01*
X228400Y139327D01*
D02*
G37*
G36*
X219000Y139627D02*
X218454Y139519D01*
X217991Y139209D01*
X217681Y138746D01*
X217573Y138200D01*
X217681Y137654D01*
X217780Y137505D01*
Y129780D01*
X214953D01*
Y124650D01*
X222446D01*
Y129780D01*
X219820D01*
Y137064D01*
X220009Y137191D01*
X220319Y137654D01*
X220427Y138200D01*
X220319Y138746D01*
X220009Y139209D01*
X219546Y139519D01*
X219000Y139627D01*
D02*
G37*
G36*
X155900Y126918D02*
X155549Y126848D01*
X155251Y126649D01*
X155052Y126351D01*
X154982Y126000D01*
X155052Y125649D01*
X155082Y125604D01*
Y123932D01*
X153425D01*
Y122054D01*
X158575D01*
Y123932D01*
X156918D01*
Y125900D01*
X156848Y126251D01*
X156649Y126549D01*
X156549Y126649D01*
X156251Y126848D01*
X155900Y126918D01*
D02*
G37*
G36*
X155500Y121054D02*
X153425D01*
Y119176D01*
X155500D01*
Y121054D01*
D02*
G37*
G36*
X164275Y120954D02*
X162200D01*
Y119076D01*
X164275D01*
Y120954D01*
D02*
G37*
G36*
X158575Y121054D02*
X156500D01*
Y119176D01*
X158575D01*
Y121054D01*
D02*
G37*
G36*
X161700Y127018D02*
X161349Y126948D01*
X161051Y126749D01*
X160852Y126451D01*
X160782Y126100D01*
Y123832D01*
X159125D01*
Y121954D01*
X164275D01*
Y123832D01*
X162618D01*
Y126100D01*
X162548Y126451D01*
X162349Y126749D01*
X162051Y126948D01*
X161700Y127018D01*
D02*
G37*
G36*
X374100Y126182D02*
X373225Y126067D01*
X372409Y125729D01*
X371709Y125191D01*
X371171Y124491D01*
X370834Y123675D01*
X370718Y122800D01*
X370834Y121925D01*
X371171Y121109D01*
X371271Y120980D01*
X370004Y119714D01*
X367344D01*
X367098Y120214D01*
X367553Y120807D01*
X367951Y121768D01*
X368021Y122300D01*
X360179D01*
X360249Y121768D01*
X360647Y120807D01*
X361102Y120214D01*
X360856Y119714D01*
X358500D01*
X358227Y119659D01*
X357995Y119505D01*
X337171Y98680D01*
X325248D01*
Y99351D01*
X322086D01*
Y96582D01*
X325248D01*
Y97253D01*
X337467D01*
X337740Y97307D01*
X337971Y97462D01*
X358796Y118286D01*
X370300D01*
X370573Y118341D01*
X370805Y118495D01*
X372280Y119971D01*
X372409Y119871D01*
X373225Y119534D01*
X374100Y119418D01*
X374975Y119534D01*
X375791Y119871D01*
X376491Y120409D01*
X377029Y121109D01*
X377366Y121925D01*
X377482Y122800D01*
X377366Y123675D01*
X377029Y124491D01*
X376491Y125191D01*
X375791Y125729D01*
X374975Y126067D01*
X374100Y126182D01*
D02*
G37*
G36*
X179300Y139127D02*
X178754Y139019D01*
X178291Y138709D01*
X177981Y138246D01*
X177873Y137700D01*
X177981Y137154D01*
X178280Y136706D01*
Y133180D01*
X178253D01*
Y128050D01*
X185747D01*
Y133180D01*
X180320D01*
Y136706D01*
X180619Y137154D01*
X180727Y137700D01*
X180619Y138246D01*
X180309Y138709D01*
X179846Y139019D01*
X179300Y139127D01*
D02*
G37*
G36*
X363600Y136721D02*
X363068Y136651D01*
X362107Y136253D01*
X361281Y135619D01*
X360647Y134793D01*
X360249Y133832D01*
X360179Y133300D01*
X363600D01*
Y136721D01*
D02*
G37*
G36*
X67800Y136221D02*
Y132800D01*
X71221D01*
X71151Y133332D01*
X70753Y134293D01*
X70119Y135119D01*
X69293Y135753D01*
X68332Y136151D01*
X67800Y136221D01*
D02*
G37*
G36*
X364600Y136721D02*
Y133300D01*
X368021D01*
X367951Y133832D01*
X367553Y134793D01*
X366919Y135619D01*
X366093Y136253D01*
X365132Y136651D01*
X364600Y136721D01*
D02*
G37*
G36*
X194272Y151519D02*
X189928D01*
Y147569D01*
X191080D01*
Y146075D01*
X190078D01*
Y142125D01*
X191080D01*
Y139694D01*
X190781Y139246D01*
X190673Y138700D01*
X190781Y138154D01*
X191091Y137691D01*
X191554Y137381D01*
X192100Y137273D01*
X192646Y137381D01*
X193109Y137691D01*
X193419Y138154D01*
X193527Y138700D01*
X193419Y139246D01*
X193120Y139694D01*
Y142125D01*
X194027D01*
Y143026D01*
X200125D01*
Y142268D01*
X201080D01*
Y139894D01*
X200781Y139446D01*
X200673Y138900D01*
X200781Y138354D01*
X201091Y137891D01*
X201554Y137581D01*
X202100Y137473D01*
X202646Y137581D01*
X203109Y137891D01*
X203419Y138354D01*
X203527Y138900D01*
X203419Y139446D01*
X203120Y139894D01*
Y142268D01*
X204075D01*
Y145824D01*
X200125D01*
Y145065D01*
X194027D01*
Y146075D01*
X193120D01*
Y147569D01*
X194272D01*
Y151519D01*
D02*
G37*
G36*
X77300Y145682D02*
X76425Y145566D01*
X75609Y145229D01*
X74909Y144691D01*
X74371Y143991D01*
X74034Y143175D01*
X73918Y142300D01*
X74034Y141425D01*
X74371Y140609D01*
X74909Y139909D01*
X75609Y139371D01*
X76425Y139033D01*
X77300Y138918D01*
X78175Y139033D01*
X78991Y139371D01*
X79691Y139909D01*
X80229Y140609D01*
X80566Y141425D01*
X80588Y141586D01*
X99312D01*
X102750Y138147D01*
Y136191D01*
X105913D01*
Y138960D01*
X103957D01*
X100112Y142805D01*
X99880Y142959D01*
X99607Y143014D01*
X80588D01*
X80566Y143175D01*
X80229Y143991D01*
X79691Y144691D01*
X78991Y145229D01*
X78175Y145566D01*
X77300Y145682D01*
D02*
G37*
G36*
X66800Y136221D02*
X66268Y136151D01*
X65307Y135753D01*
X64481Y135119D01*
X63847Y134293D01*
X63449Y133332D01*
X63379Y132800D01*
X66800D01*
Y136221D01*
D02*
G37*
G36*
X71221Y131800D02*
X67800D01*
Y128379D01*
X68332Y128449D01*
X69293Y128847D01*
X70119Y129481D01*
X70753Y130307D01*
X71151Y131268D01*
X71221Y131800D01*
D02*
G37*
G36*
X66800D02*
X63379D01*
X63449Y131268D01*
X63847Y130307D01*
X64481Y129481D01*
X65307Y128847D01*
X66268Y128449D01*
X66800Y128379D01*
Y131800D01*
D02*
G37*
G36*
X374100Y136182D02*
X373225Y136066D01*
X372409Y135729D01*
X371709Y135191D01*
X371171Y134491D01*
X370834Y133675D01*
X370718Y132800D01*
X370834Y131925D01*
X371171Y131109D01*
X371271Y130980D01*
X368804Y128514D01*
X365388D01*
X365288Y129014D01*
X366093Y129347D01*
X366919Y129981D01*
X367553Y130807D01*
X367951Y131768D01*
X368021Y132300D01*
X360179D01*
X360249Y131768D01*
X360647Y130807D01*
X361281Y129981D01*
X362107Y129347D01*
X362912Y129014D01*
X362812Y128514D01*
X357500D01*
X357227Y128459D01*
X356995Y128305D01*
X332504Y103814D01*
X325248D01*
Y104484D01*
X322086D01*
Y101716D01*
X325248D01*
Y102386D01*
X332800D01*
X333073Y102441D01*
X333305Y102595D01*
X357796Y127086D01*
X362812D01*
X362912Y126586D01*
X362107Y126253D01*
X361281Y125619D01*
X360647Y124793D01*
X360249Y123832D01*
X360179Y123300D01*
X368021D01*
X367951Y123832D01*
X367553Y124793D01*
X366919Y125619D01*
X366093Y126253D01*
X365288Y126586D01*
X365388Y127086D01*
X369100D01*
X369373Y127141D01*
X369605Y127295D01*
X372280Y129971D01*
X372409Y129871D01*
X373225Y129534D01*
X374100Y129418D01*
X374975Y129534D01*
X375791Y129871D01*
X376491Y130409D01*
X377029Y131109D01*
X377366Y131925D01*
X377482Y132800D01*
X377366Y133675D01*
X377029Y134491D01*
X376491Y135191D01*
X375791Y135729D01*
X374975Y136066D01*
X374100Y136182D01*
D02*
G37*
G36*
X77300Y135682D02*
X76425Y135566D01*
X75609Y135229D01*
X74909Y134691D01*
X74371Y133991D01*
X74034Y133175D01*
X73918Y132300D01*
X74034Y131425D01*
X74371Y130609D01*
X74909Y129909D01*
X75609Y129371D01*
X76425Y129034D01*
X77300Y128918D01*
X78175Y129034D01*
X78991Y129371D01*
X79691Y129909D01*
X80229Y130609D01*
X80566Y131425D01*
X80588Y131586D01*
X102750D01*
Y130282D01*
X105913D01*
Y133051D01*
X102750D01*
Y133014D01*
X80588D01*
X80566Y133175D01*
X80229Y133991D01*
X79691Y134691D01*
X78991Y135229D01*
X78175Y135566D01*
X77300Y135682D01*
D02*
G37*
G36*
X168900Y142327D02*
X168354Y142219D01*
X167891Y141909D01*
X167581Y141446D01*
X167473Y140900D01*
X167581Y140354D01*
X167880Y139906D01*
Y134880D01*
X165854D01*
Y129750D01*
X173346D01*
Y134880D01*
X169920D01*
Y139906D01*
X170219Y140354D01*
X170327Y140900D01*
X170219Y141446D01*
X169909Y141909D01*
X169446Y142219D01*
X168900Y142327D01*
D02*
G37*
G36*
X66800Y41800D02*
X63379D01*
X63449Y41268D01*
X63847Y40307D01*
X64481Y39481D01*
X65307Y38847D01*
X66268Y38449D01*
X66800Y38379D01*
Y41800D01*
D02*
G37*
G36*
X223046Y48150D02*
X215553D01*
Y43020D01*
X219480D01*
Y40600D01*
X219558Y40210D01*
X219779Y39879D01*
X221679Y37979D01*
X222010Y37758D01*
X222400Y37680D01*
X222406D01*
X222854Y37381D01*
X223400Y37273D01*
X223946Y37381D01*
X224409Y37691D01*
X224719Y38154D01*
X224827Y38700D01*
X224719Y39246D01*
X224409Y39709D01*
X223946Y40019D01*
X223400Y40127D01*
X222854Y40019D01*
X222656Y39886D01*
X221520Y41022D01*
Y43020D01*
X223046D01*
Y48150D01*
D02*
G37*
G36*
X71221Y41800D02*
X67800D01*
Y38379D01*
X68332Y38449D01*
X69293Y38847D01*
X70119Y39481D01*
X70753Y40307D01*
X71151Y41268D01*
X71221Y41800D01*
D02*
G37*
G36*
X368021Y42300D02*
X364600D01*
Y38879D01*
X365132Y38949D01*
X366093Y39347D01*
X366919Y39981D01*
X367553Y40807D01*
X367951Y41768D01*
X368021Y42300D01*
D02*
G37*
G36*
X363600D02*
X360179D01*
X360249Y41768D01*
X360647Y40807D01*
X361281Y39981D01*
X362107Y39347D01*
X363068Y38949D01*
X363600Y38879D01*
Y42300D01*
D02*
G37*
G36*
X183224Y40700D02*
X178468D01*
Y38625D01*
X179928D01*
Y36730D01*
X179882Y36500D01*
X179952Y36149D01*
X180151Y35851D01*
X180449Y35652D01*
X180800Y35582D01*
X181151Y35652D01*
X181449Y35851D01*
X181494Y35897D01*
X181693Y36195D01*
X181763Y36546D01*
Y38625D01*
X183224D01*
Y40700D01*
D02*
G37*
G36*
X363600Y36721D02*
X363068Y36651D01*
X362107Y36253D01*
X361281Y35619D01*
X360647Y34793D01*
X360249Y33832D01*
X360179Y33300D01*
X363600D01*
Y36721D01*
D02*
G37*
G36*
X67800Y36221D02*
Y32800D01*
X71221D01*
X71151Y33332D01*
X70753Y34293D01*
X70119Y35119D01*
X69293Y35753D01*
X68332Y36151D01*
X67800Y36221D01*
D02*
G37*
G36*
X364600Y36721D02*
Y33300D01*
X368021D01*
X367951Y33832D01*
X367553Y34793D01*
X366919Y35619D01*
X366093Y36253D01*
X365132Y36651D01*
X364600Y36721D01*
D02*
G37*
G36*
X196875Y40147D02*
X191725D01*
Y38072D01*
X193382D01*
Y36200D01*
X193452Y35849D01*
X193651Y35551D01*
X193949Y35352D01*
X194300Y35282D01*
X194651Y35352D01*
X194949Y35551D01*
X195148Y35849D01*
X195218Y36200D01*
Y38072D01*
X196875D01*
Y40147D01*
D02*
G37*
G36*
X232246Y48150D02*
X224753D01*
Y43020D01*
X225780D01*
Y42600D01*
X225858Y42210D01*
X226079Y41879D01*
X228780Y39178D01*
Y37594D01*
X228481Y37146D01*
X228373Y36600D01*
X228481Y36054D01*
X228791Y35591D01*
X229254Y35281D01*
X229800Y35173D01*
X230346Y35281D01*
X230809Y35591D01*
X231119Y36054D01*
X231227Y36600D01*
X231119Y37146D01*
X230820Y37594D01*
Y39600D01*
X230742Y39990D01*
X230521Y40321D01*
X228284Y42558D01*
X228475Y43020D01*
X232246D01*
Y48150D01*
D02*
G37*
G36*
X208272Y42619D02*
X203928D01*
Y38669D01*
X208272D01*
Y39580D01*
X211606D01*
X212054Y39281D01*
X212600Y39173D01*
X213146Y39281D01*
X213609Y39591D01*
X213919Y40054D01*
X214027Y40600D01*
X213919Y41146D01*
X213609Y41609D01*
X213146Y41919D01*
X212600Y42027D01*
X212054Y41919D01*
X211606Y41620D01*
X208272D01*
Y42619D01*
D02*
G37*
G36*
X179847Y51950D02*
X179828D01*
X179595Y51950D01*
X172353D01*
Y46820D01*
X174475D01*
X174756Y46320D01*
X174673Y45900D01*
X174781Y45354D01*
X175091Y44891D01*
X175554Y44581D01*
X176100Y44473D01*
X176646Y44581D01*
X177109Y44891D01*
X177419Y45354D01*
X177527Y45900D01*
X177444Y46320D01*
X177725Y46820D01*
X179553D01*
X179595D01*
X180053Y46720D01*
X180072D01*
X180305Y46720D01*
X182586D01*
X182731Y46220D01*
X182481Y45846D01*
X182373Y45300D01*
X182481Y44754D01*
X182791Y44291D01*
X182814Y44275D01*
X182663Y43775D01*
X181346D01*
Y41700D01*
X183224D01*
Y43477D01*
X183673Y43898D01*
X183800Y43873D01*
X184346Y43981D01*
X184809Y44291D01*
X185119Y44754D01*
X185227Y45300D01*
X185119Y45846D01*
X184869Y46220D01*
X185014Y46720D01*
X187547D01*
Y51850D01*
X180347D01*
X180305D01*
X179847Y51950D01*
D02*
G37*
G36*
X105913Y91684D02*
X102750D01*
Y88916D01*
X103618D01*
Y58527D01*
X88104Y43014D01*
X80588D01*
X80566Y43175D01*
X80229Y43991D01*
X79691Y44691D01*
X78991Y45229D01*
X78175Y45566D01*
X77300Y45682D01*
X76425Y45566D01*
X75609Y45229D01*
X74909Y44691D01*
X74371Y43991D01*
X74034Y43175D01*
X73918Y42300D01*
X74034Y41425D01*
X74371Y40609D01*
X74909Y39909D01*
X75609Y39371D01*
X76425Y39034D01*
X77300Y38918D01*
X78175Y39034D01*
X78991Y39371D01*
X79691Y39909D01*
X80229Y40609D01*
X80566Y41425D01*
X80588Y41586D01*
X88400D01*
X88673Y41641D01*
X88905Y41795D01*
X104836Y57727D01*
X104991Y57958D01*
X105045Y58232D01*
Y88916D01*
X105913D01*
Y91684D01*
D02*
G37*
G36*
X171275Y49746D02*
X169200D01*
Y47868D01*
X169782D01*
Y46146D01*
X169652Y45951D01*
X169582Y45600D01*
X169652Y45249D01*
X169851Y44951D01*
X170149Y44752D01*
X170500Y44682D01*
X170851Y44752D01*
X171149Y44951D01*
X171349Y45151D01*
X171548Y45449D01*
X171559Y45507D01*
X171618Y45800D01*
Y48500D01*
X171548Y48851D01*
X171349Y49149D01*
X171275Y49223D01*
Y49746D01*
D02*
G37*
G36*
X66800Y51800D02*
X63379D01*
X63449Y51268D01*
X63847Y50307D01*
X64481Y49481D01*
X65307Y48847D01*
X66268Y48449D01*
X66800Y48379D01*
Y51800D01*
D02*
G37*
G36*
X168200Y49746D02*
X166125D01*
Y47868D01*
X168200D01*
Y49746D01*
D02*
G37*
G36*
X67800Y46221D02*
Y42800D01*
X71221D01*
X71151Y43332D01*
X70753Y44293D01*
X70119Y45119D01*
X69293Y45753D01*
X68332Y46151D01*
X67800Y46221D01*
D02*
G37*
G36*
X193800Y43222D02*
X191725D01*
Y41147D01*
X193800D01*
Y43222D01*
D02*
G37*
G36*
X325248Y70084D02*
X322086D01*
Y67316D01*
X325143D01*
X345964Y46495D01*
X346195Y46341D01*
X346468Y46286D01*
X361329D01*
X361499Y45786D01*
X361281Y45619D01*
X360647Y44793D01*
X360249Y43832D01*
X360179Y43300D01*
X368021D01*
X367951Y43832D01*
X367553Y44793D01*
X366919Y45619D01*
X366701Y45786D01*
X366871Y46286D01*
X369604D01*
X371271Y44620D01*
X371171Y44491D01*
X370834Y43675D01*
X370718Y42800D01*
X370834Y41925D01*
X371171Y41109D01*
X371709Y40409D01*
X372409Y39871D01*
X373225Y39534D01*
X374100Y39418D01*
X374975Y39534D01*
X375791Y39871D01*
X376491Y40409D01*
X377029Y41109D01*
X377366Y41925D01*
X377482Y42800D01*
X377366Y43675D01*
X377029Y44491D01*
X376491Y45191D01*
X375791Y45729D01*
X374975Y46066D01*
X374100Y46182D01*
X373225Y46066D01*
X372409Y45729D01*
X372280Y45629D01*
X370405Y47505D01*
X370173Y47659D01*
X369900Y47714D01*
X346764D01*
X325273Y69205D01*
X325248Y69221D01*
Y70084D01*
D02*
G37*
G36*
X196875Y43222D02*
X194800D01*
Y41147D01*
X196875D01*
Y43222D01*
D02*
G37*
G36*
X66800Y46221D02*
X66268Y46151D01*
X65307Y45753D01*
X64481Y45119D01*
X63847Y44293D01*
X63449Y43332D01*
X63379Y42800D01*
X66800D01*
Y46221D01*
D02*
G37*
G36*
X180346Y43775D02*
X178468D01*
Y41700D01*
X180346D01*
Y43775D01*
D02*
G37*
G36*
X178300Y26227D02*
X177754Y26119D01*
X177291Y25809D01*
X176981Y25346D01*
X176873Y24800D01*
X176981Y24254D01*
X177291Y23791D01*
X177380Y23731D01*
Y22732D01*
X176425D01*
Y19176D01*
X180375D01*
Y22732D01*
X179420D01*
Y23927D01*
X179542Y24110D01*
X179550Y24151D01*
X179619Y24254D01*
X179727Y24800D01*
X179619Y25346D01*
X179309Y25809D01*
X178846Y26119D01*
X178300Y26227D01*
D02*
G37*
G36*
X368021Y22300D02*
X364600D01*
Y18879D01*
X365132Y18949D01*
X366093Y19347D01*
X366919Y19981D01*
X367553Y20807D01*
X367951Y21768D01*
X368021Y22300D01*
D02*
G37*
G36*
X374100Y26182D02*
X373225Y26066D01*
X372409Y25729D01*
X371709Y25191D01*
X371171Y24491D01*
X370834Y23675D01*
X370718Y22800D01*
X370834Y21925D01*
X371171Y21109D01*
X371709Y20409D01*
X372409Y19871D01*
X373225Y19534D01*
X374100Y19418D01*
X374975Y19534D01*
X375791Y19871D01*
X376491Y20409D01*
X377029Y21109D01*
X377366Y21925D01*
X377482Y22800D01*
X377366Y23675D01*
X377029Y24491D01*
X376491Y25191D01*
X375791Y25729D01*
X374975Y26066D01*
X374100Y26182D01*
D02*
G37*
G36*
X238375Y22222D02*
X236300D01*
Y20147D01*
X238375D01*
Y22222D01*
D02*
G37*
G36*
X235300D02*
X233225D01*
Y20147D01*
X235300D01*
Y22222D01*
D02*
G37*
G36*
X363600Y22300D02*
X360179D01*
X360249Y21768D01*
X360647Y20807D01*
X361281Y19981D01*
X362107Y19347D01*
X363068Y18949D01*
X363600Y18879D01*
Y22300D01*
D02*
G37*
G36*
X177900Y17624D02*
X175825D01*
Y15746D01*
X177900D01*
Y17624D01*
D02*
G37*
G36*
X238375Y19147D02*
X233225D01*
Y17072D01*
X234882D01*
Y15300D01*
X234952Y14949D01*
X235151Y14651D01*
X235449Y14452D01*
X235800Y14382D01*
X235900D01*
X236251Y14452D01*
X236549Y14651D01*
X236748Y14949D01*
X236818Y15300D01*
X236748Y15651D01*
X236718Y15696D01*
Y17072D01*
X238375D01*
Y19147D01*
D02*
G37*
G36*
X180975Y17624D02*
X178900D01*
Y15746D01*
X180975D01*
Y17624D01*
D02*
G37*
G36*
X71221Y21800D02*
X67800D01*
Y18379D01*
X68332Y18449D01*
X69293Y18847D01*
X70119Y19481D01*
X70753Y20307D01*
X71151Y21268D01*
X71221Y21800D01*
D02*
G37*
G36*
X66800D02*
X63379D01*
X63449Y21268D01*
X63847Y20307D01*
X64481Y19481D01*
X65307Y18847D01*
X66268Y18449D01*
X66800Y18379D01*
Y21800D01*
D02*
G37*
G36*
Y26221D02*
X66268Y26151D01*
X65307Y25753D01*
X64481Y25119D01*
X63847Y24293D01*
X63449Y23332D01*
X63379Y22800D01*
X66800D01*
Y26221D01*
D02*
G37*
G36*
X363600Y32300D02*
X360179D01*
X360249Y31768D01*
X360647Y30807D01*
X361281Y29981D01*
X362107Y29347D01*
X363068Y28949D01*
X363600Y28879D01*
Y32300D01*
D02*
G37*
G36*
X71221Y31800D02*
X67800D01*
Y28379D01*
X68332Y28449D01*
X69293Y28847D01*
X70119Y29481D01*
X70753Y30307D01*
X71151Y31268D01*
X71221Y31800D01*
D02*
G37*
G36*
X368021Y32300D02*
X364600D01*
Y28879D01*
X365132Y28949D01*
X366093Y29347D01*
X366919Y29981D01*
X367553Y30807D01*
X367951Y31768D01*
X368021Y32300D01*
D02*
G37*
G36*
X66800Y36221D02*
X66268Y36151D01*
X65307Y35753D01*
X64481Y35119D01*
X63847Y34293D01*
X63449Y33332D01*
X63379Y32800D01*
X66800D01*
Y36221D01*
D02*
G37*
G36*
X374100Y36182D02*
X373225Y36066D01*
X372409Y35729D01*
X371709Y35191D01*
X371171Y34491D01*
X370834Y33675D01*
X370718Y32800D01*
X370834Y31925D01*
X371171Y31109D01*
X371709Y30409D01*
X372409Y29871D01*
X373225Y29534D01*
X374100Y29418D01*
X374975Y29534D01*
X375791Y29871D01*
X376491Y30409D01*
X377029Y31109D01*
X377366Y31925D01*
X377482Y32800D01*
X377366Y33675D01*
X377029Y34491D01*
X376491Y35191D01*
X375791Y35729D01*
X374975Y36066D01*
X374100Y36182D01*
D02*
G37*
G36*
X66800Y31800D02*
X63379D01*
X63449Y31268D01*
X63847Y30307D01*
X64481Y29481D01*
X65307Y28847D01*
X66268Y28449D01*
X66800Y28379D01*
Y31800D01*
D02*
G37*
G36*
X363600Y26721D02*
X363068Y26651D01*
X362107Y26253D01*
X361281Y25619D01*
X360647Y24793D01*
X360249Y23832D01*
X360179Y23300D01*
X363600D01*
Y26721D01*
D02*
G37*
G36*
X67800Y26221D02*
Y22800D01*
X71221D01*
X71151Y23332D01*
X70753Y24293D01*
X70119Y25119D01*
X69293Y25753D01*
X68332Y26151D01*
X67800Y26221D01*
D02*
G37*
G36*
X364600Y26721D02*
Y23300D01*
X368021D01*
X367951Y23832D01*
X367553Y24793D01*
X366919Y25619D01*
X366093Y26253D01*
X365132Y26651D01*
X364600Y26721D01*
D02*
G37*
G36*
X237775Y27528D02*
X233825D01*
Y26220D01*
X230094D01*
X229646Y26519D01*
X229100Y26627D01*
X228554Y26519D01*
X228091Y26209D01*
X227781Y25746D01*
X227673Y25200D01*
X227781Y24654D01*
X228091Y24191D01*
X228554Y23881D01*
X229100Y23773D01*
X229646Y23881D01*
X230094Y24180D01*
X233825D01*
Y23578D01*
X237775D01*
Y24180D01*
X239569D01*
Y23028D01*
X243519D01*
Y27372D01*
X239569D01*
Y26220D01*
X237775D01*
Y27528D01*
D02*
G37*
G36*
X249031Y27372D02*
X245081D01*
Y23028D01*
X249031D01*
Y24180D01*
X251856D01*
X252154Y23981D01*
X252700Y23873D01*
X253246Y23981D01*
X253709Y24291D01*
X254019Y24754D01*
X254127Y25300D01*
X254019Y25846D01*
X253709Y26309D01*
X253246Y26619D01*
X252700Y26727D01*
X252154Y26619D01*
X251691Y26309D01*
X251631Y26220D01*
X249031D01*
Y27372D01*
D02*
G37*
G36*
X71221Y51800D02*
X67800D01*
Y48379D01*
X68332Y48449D01*
X69293Y48847D01*
X70119Y49481D01*
X70753Y50307D01*
X71151Y51268D01*
X71221Y51800D01*
D02*
G37*
G36*
X105913Y109413D02*
X102750D01*
Y107457D01*
X88595Y93302D01*
X88441Y93070D01*
X88386Y92797D01*
Y84396D01*
X79120Y75129D01*
X78991Y75229D01*
X78175Y75566D01*
X77300Y75682D01*
X76425Y75566D01*
X75609Y75229D01*
X74909Y74691D01*
X74371Y73991D01*
X74034Y73175D01*
X73918Y72300D01*
X74034Y71425D01*
X74371Y70609D01*
X74909Y69909D01*
X75609Y69371D01*
X76425Y69034D01*
X77300Y68918D01*
X78175Y69034D01*
X78991Y69371D01*
X79691Y69909D01*
X80229Y70609D01*
X80566Y71425D01*
X80682Y72300D01*
X80566Y73175D01*
X80229Y73991D01*
X80129Y74120D01*
X89605Y83595D01*
X89759Y83827D01*
X89814Y84100D01*
Y92501D01*
X103957Y106644D01*
X105913D01*
Y109413D01*
D02*
G37*
G36*
X290950Y76784D02*
X287787D01*
Y74016D01*
X290950D01*
Y76784D01*
D02*
G37*
G36*
X125746Y83275D02*
X123868D01*
Y81618D01*
X120600D01*
X120249Y81548D01*
X119951Y81349D01*
X119752Y81051D01*
X119682Y80700D01*
X119752Y80349D01*
X119951Y80051D01*
X120249Y79852D01*
X120600Y79782D01*
X123868D01*
Y78125D01*
X125746D01*
Y80700D01*
Y83275D01*
D02*
G37*
G36*
X66800Y81800D02*
X63379D01*
X63449Y81268D01*
X63847Y80307D01*
X64481Y79481D01*
X65307Y78847D01*
X66268Y78449D01*
X66800Y78379D01*
Y81800D01*
D02*
G37*
G36*
X128624Y80200D02*
X126746D01*
Y78125D01*
X128624D01*
Y80200D01*
D02*
G37*
G36*
X67800Y76221D02*
Y72800D01*
X71221D01*
X71151Y73332D01*
X70753Y74293D01*
X70119Y75119D01*
X69293Y75753D01*
X68332Y76151D01*
X67800Y76221D01*
D02*
G37*
G36*
X71221Y71800D02*
X67800D01*
Y68379D01*
X68332Y68449D01*
X69293Y68847D01*
X70119Y69481D01*
X70753Y70307D01*
X71151Y71268D01*
X71221Y71800D01*
D02*
G37*
G36*
X66800D02*
X63379D01*
X63449Y71268D01*
X63847Y70307D01*
X64481Y69481D01*
X65307Y68847D01*
X66268Y68449D01*
X66800Y68379D01*
Y71800D01*
D02*
G37*
G36*
X290950Y72184D02*
X287787D01*
Y69416D01*
X290950D01*
Y72184D01*
D02*
G37*
G36*
X66800Y76221D02*
X66268Y76151D01*
X65307Y75753D01*
X64481Y75119D01*
X63847Y74293D01*
X63449Y73332D01*
X63379Y72800D01*
X66800D01*
Y76221D01*
D02*
G37*
G36*
X325248Y84284D02*
X322086D01*
Y81516D01*
X325248D01*
Y82186D01*
X351004D01*
X356095Y77095D01*
X356327Y76941D01*
X356600Y76886D01*
X362330D01*
X362429Y76386D01*
X362107Y76253D01*
X361281Y75619D01*
X360647Y74793D01*
X360249Y73832D01*
X360179Y73300D01*
X368021D01*
X367951Y73832D01*
X367553Y74793D01*
X366919Y75619D01*
X366093Y76253D01*
X365771Y76386D01*
X365870Y76886D01*
X369004D01*
X371271Y74620D01*
X371171Y74491D01*
X370834Y73675D01*
X370718Y72800D01*
X370834Y71925D01*
X371171Y71109D01*
X371709Y70409D01*
X372409Y69871D01*
X373225Y69534D01*
X374100Y69418D01*
X374975Y69534D01*
X375791Y69871D01*
X376491Y70409D01*
X377029Y71109D01*
X377366Y71925D01*
X377482Y72800D01*
X377366Y73675D01*
X377029Y74491D01*
X376491Y75191D01*
X375791Y75729D01*
X374975Y76066D01*
X374100Y76182D01*
X373225Y76066D01*
X372409Y75729D01*
X372280Y75629D01*
X369805Y78105D01*
X369573Y78259D01*
X369300Y78314D01*
X356896D01*
X351805Y83405D01*
X351573Y83559D01*
X351300Y83614D01*
X325248D01*
Y84284D01*
D02*
G37*
G36*
X71221Y81800D02*
X67800D01*
Y78379D01*
X68332Y78449D01*
X69293Y78847D01*
X70119Y79481D01*
X70753Y80307D01*
X71151Y81268D01*
X71221Y81800D01*
D02*
G37*
G36*
X66800Y86221D02*
X66268Y86151D01*
X65307Y85753D01*
X64481Y85119D01*
X63847Y84293D01*
X63449Y83332D01*
X63379Y82800D01*
X66800D01*
Y86221D01*
D02*
G37*
G36*
X128624Y83275D02*
X126746D01*
Y81200D01*
X128624D01*
Y83275D01*
D02*
G37*
G36*
X67800Y86221D02*
Y82800D01*
X71221D01*
X71151Y83332D01*
X70753Y84293D01*
X70119Y85119D01*
X69293Y85753D01*
X68332Y86151D01*
X67800Y86221D01*
D02*
G37*
G36*
X77800D02*
Y82800D01*
X81221D01*
X81151Y83332D01*
X80753Y84293D01*
X80119Y85119D01*
X79293Y85753D01*
X78332Y86151D01*
X77800Y86221D01*
D02*
G37*
G36*
X76800D02*
X76268Y86151D01*
X75307Y85753D01*
X74481Y85119D01*
X73847Y84293D01*
X73449Y83332D01*
X73379Y82800D01*
X76800D01*
Y86221D01*
D02*
G37*
G36*
X378021Y82300D02*
X374600D01*
Y78879D01*
X375132Y78949D01*
X376093Y79347D01*
X376919Y79981D01*
X377553Y80807D01*
X377951Y81768D01*
X378021Y82300D01*
D02*
G37*
G36*
X81221Y81800D02*
X77800D01*
Y78379D01*
X78332Y78449D01*
X79293Y78847D01*
X80119Y79481D01*
X80753Y80307D01*
X81151Y81268D01*
X81221Y81800D01*
D02*
G37*
G36*
X76800D02*
X73379D01*
X73449Y81268D01*
X73847Y80307D01*
X74481Y79481D01*
X75307Y78847D01*
X76268Y78449D01*
X76800Y78379D01*
Y81800D01*
D02*
G37*
G36*
X363600Y82300D02*
X360179D01*
X360249Y81768D01*
X360647Y80807D01*
X361281Y79981D01*
X362107Y79347D01*
X363068Y78949D01*
X363600Y78879D01*
Y82300D01*
D02*
G37*
G36*
X373600D02*
X370179D01*
X370249Y81768D01*
X370647Y80807D01*
X371281Y79981D01*
X372107Y79347D01*
X373068Y78949D01*
X373600Y78879D01*
Y82300D01*
D02*
G37*
G36*
X368021D02*
X364600D01*
Y78879D01*
X365132Y78949D01*
X366093Y79347D01*
X366919Y79981D01*
X367553Y80807D01*
X367951Y81768D01*
X368021Y82300D01*
D02*
G37*
G36*
X105913Y97594D02*
X102750D01*
Y95638D01*
X99095Y91983D01*
X98941Y91751D01*
X98886Y91478D01*
Y63196D01*
X88704Y53014D01*
X80588D01*
X80566Y53175D01*
X80229Y53991D01*
X79691Y54691D01*
X78991Y55229D01*
X78175Y55566D01*
X77300Y55682D01*
X76425Y55566D01*
X75609Y55229D01*
X74909Y54691D01*
X74371Y53991D01*
X74034Y53175D01*
X73918Y52300D01*
X74034Y51425D01*
X74371Y50609D01*
X74909Y49909D01*
X75609Y49371D01*
X76425Y49034D01*
X77300Y48918D01*
X78175Y49034D01*
X78991Y49371D01*
X79691Y49909D01*
X80229Y50609D01*
X80566Y51425D01*
X80588Y51586D01*
X89000D01*
X89273Y51641D01*
X89505Y51795D01*
X100105Y62395D01*
X100259Y62627D01*
X100314Y62900D01*
Y91182D01*
X103957Y94825D01*
X105913D01*
Y97594D01*
D02*
G37*
G36*
X67800Y56221D02*
Y52800D01*
X71221D01*
X71151Y53332D01*
X70753Y54293D01*
X70119Y55119D01*
X69293Y55753D01*
X68332Y56151D01*
X67800Y56221D01*
D02*
G37*
G36*
X363600Y56721D02*
X363068Y56651D01*
X362107Y56253D01*
X361281Y55619D01*
X360647Y54793D01*
X360249Y53832D01*
X360179Y53300D01*
X363600D01*
Y56721D01*
D02*
G37*
G36*
X210146Y57250D02*
X202654D01*
Y54266D01*
X202153Y53992D01*
X202053Y54033D01*
X196646D01*
X196546Y53992D01*
X196046Y54266D01*
Y57150D01*
X188554D01*
Y52020D01*
X190734D01*
X191008Y51520D01*
X190967Y51420D01*
Y49493D01*
X190981Y49460D01*
X190972Y49426D01*
X191042Y49311D01*
X191094Y49187D01*
X191126Y49173D01*
X191145Y49143D01*
X191483Y48896D01*
X191645Y48778D01*
X191792Y48730D01*
X191900Y48695D01*
X191901Y48694D01*
X192325Y48500D01*
Y46220D01*
X190554D01*
X190164Y46142D01*
X189833Y45921D01*
X187087Y43175D01*
X184776D01*
Y39225D01*
X188332D01*
Y41536D01*
X190977Y44180D01*
X195300D01*
X195690Y44258D01*
X195860Y44372D01*
X196275Y44578D01*
D01*
X196775Y44741D01*
X196922Y44594D01*
X197228Y44467D01*
X203328Y44467D01*
X203428Y44508D01*
X203928Y44234D01*
Y44181D01*
X208272D01*
Y48131D01*
X208272D01*
X208606Y48424D01*
X208606Y48425D01*
X208628Y48477D01*
X208733Y48731D01*
X208733Y51166D01*
X208606Y51472D01*
X208459Y51620D01*
X208666Y52120D01*
X210146D01*
Y57250D01*
D02*
G37*
G36*
X364600Y56721D02*
Y53300D01*
X368021D01*
X367951Y53832D01*
X367553Y54793D01*
X366919Y55619D01*
X366093Y56253D01*
X365132Y56651D01*
X364600Y56721D01*
D02*
G37*
G36*
X66800Y56221D02*
X66268Y56151D01*
X65307Y55753D01*
X64481Y55119D01*
X63847Y54293D01*
X63449Y53332D01*
X63379Y52800D01*
X66800D01*
Y56221D01*
D02*
G37*
G36*
X368021Y52300D02*
X364600D01*
Y48879D01*
X365132Y48949D01*
X366093Y49347D01*
X366919Y49981D01*
X367553Y50807D01*
X367951Y51768D01*
X368021Y52300D01*
D02*
G37*
G36*
X363600D02*
X360179D01*
X360249Y51768D01*
X360647Y50807D01*
X361281Y49981D01*
X362107Y49347D01*
X363068Y48949D01*
X363600Y48879D01*
Y52300D01*
D02*
G37*
G36*
X325248Y74884D02*
X322086D01*
Y72116D01*
X325248D01*
Y72786D01*
X330104D01*
X344995Y57895D01*
X345227Y57741D01*
X345500Y57686D01*
X368204D01*
X371271Y54620D01*
X371171Y54491D01*
X370834Y53675D01*
X370718Y52800D01*
X370834Y51925D01*
X371171Y51109D01*
X371709Y50409D01*
X372409Y49871D01*
X373225Y49534D01*
X374100Y49418D01*
X374975Y49534D01*
X375791Y49871D01*
X376491Y50409D01*
X377029Y51109D01*
X377366Y51925D01*
X377482Y52800D01*
X377366Y53675D01*
X377029Y54491D01*
X376491Y55191D01*
X375791Y55729D01*
X374975Y56066D01*
X374100Y56182D01*
X373225Y56066D01*
X372409Y55729D01*
X372280Y55629D01*
X369005Y58905D01*
X368773Y59059D01*
X368500Y59114D01*
X366610D01*
X366441Y59614D01*
X366919Y59981D01*
X367553Y60807D01*
X367951Y61768D01*
X368021Y62300D01*
X360179D01*
X360249Y61768D01*
X360647Y60807D01*
X361281Y59981D01*
X361759Y59614D01*
X361590Y59114D01*
X345796D01*
X330905Y74005D01*
X330673Y74159D01*
X330400Y74214D01*
X325248D01*
Y74884D01*
D02*
G37*
G36*
X171275Y52624D02*
X169200D01*
Y50746D01*
X171275D01*
Y52624D01*
D02*
G37*
G36*
X168200D02*
X166125D01*
Y50746D01*
X168200D01*
Y52624D01*
D02*
G37*
G36*
X266300Y59622D02*
X265871Y59536D01*
X265507Y59293D01*
X265264Y58929D01*
X265178Y58500D01*
X265264Y58071D01*
X265507Y57707D01*
X265871Y57464D01*
X266300Y57378D01*
X266729Y57464D01*
X267093Y57707D01*
X267336Y58071D01*
X267422Y58500D01*
X267336Y58929D01*
X267093Y59293D01*
X266729Y59536D01*
X266300Y59622D01*
D02*
G37*
G36*
X363600Y66721D02*
X363068Y66651D01*
X362107Y66253D01*
X361281Y65619D01*
X360647Y64793D01*
X360249Y63832D01*
X360179Y63300D01*
X363600D01*
Y66721D01*
D02*
G37*
G36*
X67800Y66221D02*
Y62800D01*
X71221D01*
X71151Y63332D01*
X70753Y64293D01*
X70119Y65119D01*
X69293Y65753D01*
X68332Y66151D01*
X67800Y66221D01*
D02*
G37*
G36*
X364600Y66721D02*
Y63300D01*
X368021D01*
X367951Y63832D01*
X367553Y64793D01*
X366919Y65619D01*
X366093Y66253D01*
X365132Y66651D01*
X364600Y66721D01*
D02*
G37*
G36*
X268500Y67722D02*
X268071Y67636D01*
X267707Y67393D01*
X267464Y67029D01*
X267378Y66600D01*
X267464Y66171D01*
X267707Y65807D01*
X268071Y65564D01*
X268500Y65478D01*
X268929Y65564D01*
X269293Y65807D01*
X269536Y66171D01*
X269621Y66600D01*
X269536Y67029D01*
X269293Y67393D01*
X268929Y67636D01*
X268500Y67722D01*
D02*
G37*
G36*
X105913Y103503D02*
X102750D01*
Y101547D01*
X92495Y91292D01*
X92341Y91061D01*
X92286Y90788D01*
Y78296D01*
X79120Y65129D01*
X78991Y65229D01*
X78175Y65566D01*
X77300Y65682D01*
X76425Y65566D01*
X75609Y65229D01*
X74909Y64691D01*
X74371Y63991D01*
X74034Y63175D01*
X73918Y62300D01*
X74034Y61425D01*
X74371Y60609D01*
X74909Y59909D01*
X75609Y59371D01*
X76425Y59034D01*
X77300Y58918D01*
X78175Y59034D01*
X78991Y59371D01*
X79691Y59909D01*
X80229Y60609D01*
X80566Y61425D01*
X80682Y62300D01*
X80566Y63175D01*
X80229Y63991D01*
X80129Y64120D01*
X93505Y77495D01*
X93659Y77727D01*
X93714Y78000D01*
Y90492D01*
X103957Y100735D01*
X105913D01*
Y103503D01*
D02*
G37*
G36*
X66800Y66221D02*
X66268Y66151D01*
X65307Y65753D01*
X64481Y65119D01*
X63847Y64293D01*
X63449Y63332D01*
X63379Y62800D01*
X66800D01*
Y66221D01*
D02*
G37*
G36*
X71221Y61800D02*
X67800D01*
Y58379D01*
X68332Y58449D01*
X69293Y58847D01*
X70119Y59481D01*
X70753Y60307D01*
X71151Y61268D01*
X71221Y61800D01*
D02*
G37*
G36*
X66800D02*
X63379D01*
X63449Y61268D01*
X63847Y60307D01*
X64481Y59481D01*
X65307Y58847D01*
X66268Y58449D01*
X66800Y58379D01*
Y61800D01*
D02*
G37*
G36*
X263800Y61622D02*
X263371Y61536D01*
X263007Y61293D01*
X262764Y60929D01*
X262679Y60500D01*
X262764Y60071D01*
X263007Y59707D01*
X263371Y59464D01*
X263800Y59378D01*
X264229Y59464D01*
X264593Y59707D01*
X264836Y60071D01*
X264921Y60500D01*
X264836Y60929D01*
X264593Y61293D01*
X264229Y61536D01*
X263800Y61622D01*
D02*
G37*
G36*
X273000Y64322D02*
X272571Y64236D01*
X272207Y63993D01*
X271964Y63629D01*
X271879Y63200D01*
X271964Y62771D01*
X272207Y62407D01*
X272571Y62164D01*
X273000Y62078D01*
X273429Y62164D01*
X273793Y62407D01*
X274036Y62771D01*
X274121Y63200D01*
X274036Y63629D01*
X273793Y63993D01*
X273429Y64236D01*
X273000Y64322D01*
D02*
G37*
G36*
X325248Y79784D02*
X322086D01*
Y77016D01*
X325248D01*
Y77686D01*
X339204D01*
X348995Y67895D01*
X349227Y67741D01*
X349500Y67686D01*
X368204D01*
X371271Y64620D01*
X371171Y64491D01*
X370834Y63675D01*
X370718Y62800D01*
X370834Y61925D01*
X371171Y61109D01*
X371709Y60409D01*
X372409Y59871D01*
X373225Y59534D01*
X374100Y59418D01*
X374975Y59534D01*
X375791Y59871D01*
X376491Y60409D01*
X377029Y61109D01*
X377366Y61925D01*
X377482Y62800D01*
X377366Y63675D01*
X377029Y64491D01*
X376491Y65191D01*
X375791Y65729D01*
X374975Y66066D01*
X374100Y66182D01*
X373225Y66066D01*
X372409Y65729D01*
X372280Y65629D01*
X369005Y68905D01*
X368773Y69059D01*
X368500Y69114D01*
X366610D01*
X366441Y69614D01*
X366919Y69981D01*
X367553Y70807D01*
X367951Y71768D01*
X368021Y72300D01*
X360179D01*
X360249Y71768D01*
X360647Y70807D01*
X361281Y69981D01*
X361759Y69614D01*
X361590Y69114D01*
X349796D01*
X340005Y78905D01*
X339773Y79059D01*
X339500Y79114D01*
X325248D01*
Y79784D01*
D02*
G37*
G36*
X71221Y161800D02*
X67800D01*
Y158379D01*
X68332Y158449D01*
X69293Y158847D01*
X70119Y159481D01*
X70753Y160307D01*
X71151Y161268D01*
X71221Y161800D01*
D02*
G37*
G36*
X360675Y258722D02*
X358600D01*
Y256647D01*
X360675D01*
Y258722D01*
D02*
G37*
G36*
X268075Y257422D02*
X266000D01*
Y255347D01*
X268075D01*
Y257422D01*
D02*
G37*
G36*
X337519Y258572D02*
X333569D01*
Y257420D01*
X330669D01*
X330609Y257509D01*
X330146Y257819D01*
X329600Y257927D01*
X329054Y257819D01*
X328591Y257509D01*
X328281Y257046D01*
X328173Y256500D01*
X328281Y255954D01*
X328591Y255491D01*
X329054Y255181D01*
X329600Y255073D01*
X330146Y255181D01*
X330444Y255380D01*
X333569D01*
Y254228D01*
X337519D01*
Y258572D01*
D02*
G37*
G36*
X191000Y261721D02*
X190571Y261636D01*
X190207Y261393D01*
X189964Y261029D01*
X189878Y260600D01*
X189964Y260171D01*
X190207Y259807D01*
X190571Y259564D01*
X191000Y259478D01*
X191429Y259564D01*
X191793Y259807D01*
X192036Y260171D01*
X192122Y260600D01*
X192036Y261029D01*
X191793Y261393D01*
X191429Y261636D01*
X191000Y261721D01*
D02*
G37*
G36*
X314747Y268184D02*
X311979D01*
Y265416D01*
X312322D01*
Y263590D01*
X311659D01*
Y258459D01*
X314821D01*
Y263590D01*
X314158D01*
Y265416D01*
X314747D01*
Y268184D01*
D02*
G37*
G36*
X191000Y257222D02*
X190571Y257136D01*
X190207Y256893D01*
X189964Y256529D01*
X189878Y256100D01*
X189964Y255671D01*
X190207Y255307D01*
X190571Y255064D01*
X191000Y254978D01*
X191429Y255064D01*
X191793Y255307D01*
X192036Y255671D01*
X192122Y256100D01*
X192036Y256529D01*
X191793Y256893D01*
X191429Y257136D01*
X191000Y257222D01*
D02*
G37*
G36*
X247554Y255975D02*
X245676D01*
Y253900D01*
X247554D01*
Y255975D01*
D02*
G37*
G36*
X360675Y255647D02*
X358600D01*
Y253572D01*
X360675D01*
Y255647D01*
D02*
G37*
G36*
X250432Y255975D02*
X248554D01*
Y253900D01*
X250432D01*
Y255975D01*
D02*
G37*
G36*
X244124Y255375D02*
X240568D01*
Y254823D01*
X233822D01*
X233300Y254927D01*
X232754Y254819D01*
X232291Y254509D01*
X231981Y254046D01*
X231873Y253500D01*
X231981Y252954D01*
X232291Y252491D01*
X232754Y252181D01*
X233300Y252073D01*
X233846Y252181D01*
X234138Y252377D01*
X240568D01*
Y251425D01*
X244124D01*
Y255375D01*
D02*
G37*
G36*
X187987Y255734D02*
X187558Y255649D01*
X187194Y255406D01*
X186951Y255042D01*
X186866Y254613D01*
X186904Y254420D01*
X186454Y254119D01*
X186429Y254136D01*
X186000Y254222D01*
X185571Y254136D01*
X185207Y253893D01*
X184964Y253529D01*
X184878Y253100D01*
X184894Y253023D01*
X184537Y252585D01*
X184511Y252579D01*
X184108Y252499D01*
X183744Y252256D01*
X183501Y251892D01*
X183415Y251463D01*
X183501Y251034D01*
X183744Y250670D01*
X184108Y250427D01*
X184537Y250341D01*
X184966Y250427D01*
X185330Y250670D01*
X185573Y251034D01*
X185659Y251463D01*
X185643Y251540D01*
X186000Y251978D01*
X186026Y251984D01*
X186429Y252064D01*
X186793Y252307D01*
X187036Y252671D01*
X187122Y253100D01*
X187083Y253292D01*
X187533Y253593D01*
X187558Y253576D01*
X187987Y253491D01*
X188417Y253576D01*
X188780Y253819D01*
X189024Y254183D01*
X189109Y254613D01*
X189024Y255042D01*
X188780Y255406D01*
X188417Y255649D01*
X187987Y255734D01*
D02*
G37*
G36*
X364784Y267647D02*
X362016D01*
Y266032D01*
X360011Y264028D01*
X356125D01*
Y260078D01*
X360075D01*
Y261784D01*
X363169Y264879D01*
X364784D01*
Y267647D01*
D02*
G37*
G36*
X143500Y290782D02*
X142625Y290666D01*
X141809Y290329D01*
X141109Y289791D01*
X140571Y289091D01*
X140234Y288275D01*
X140118Y287400D01*
X140234Y286525D01*
X140571Y285709D01*
X141109Y285009D01*
X141471Y284731D01*
X141518Y284071D01*
X129462Y272015D01*
X129285Y271751D01*
X129223Y271439D01*
X129223Y271439D01*
Y267309D01*
X129229Y267277D01*
Y266424D01*
X129283Y266152D01*
X129279Y266095D01*
X128998Y265652D01*
X128448D01*
Y265102D01*
X128005Y264821D01*
X127948Y264817D01*
X127676Y264871D01*
X126823D01*
X126791Y264877D01*
X125676D01*
X124616Y265938D01*
Y284233D01*
X125191Y284471D01*
X125891Y285009D01*
X126429Y285709D01*
X126767Y286525D01*
X126882Y287400D01*
X126767Y288275D01*
X126429Y289091D01*
X125891Y289791D01*
X125191Y290329D01*
X124375Y290666D01*
X123500Y290782D01*
X122625Y290666D01*
X121809Y290329D01*
X121109Y289791D01*
X120571Y289091D01*
X120234Y288275D01*
X120118Y287400D01*
X120234Y286525D01*
X120571Y285709D01*
X121109Y285009D01*
X121809Y284471D01*
X122625Y284134D01*
X122984Y284086D01*
Y265600D01*
X122984Y265600D01*
X123046Y265288D01*
X123223Y265023D01*
X124610Y263636D01*
X124403Y263136D01*
X123682D01*
X114149Y272669D01*
Y284104D01*
X114375Y284134D01*
X115191Y284471D01*
X115891Y285009D01*
X116429Y285709D01*
X116767Y286525D01*
X116882Y287400D01*
X116767Y288275D01*
X116429Y289091D01*
X115891Y289791D01*
X115191Y290329D01*
X114375Y290666D01*
X113500Y290782D01*
X112625Y290666D01*
X111809Y290329D01*
X111109Y289791D01*
X110571Y289091D01*
X110233Y288275D01*
X110118Y287400D01*
X110233Y286525D01*
X110571Y285709D01*
X111109Y285009D01*
X111809Y284471D01*
X112625Y284134D01*
X112851Y284104D01*
Y272400D01*
X113041Y271941D01*
X121610Y263371D01*
X121607Y263363D01*
X121316Y262959D01*
X121000Y263021D01*
X120571Y262936D01*
X120207Y262693D01*
X119964Y262329D01*
X119878Y261900D01*
X119964Y261471D01*
X120207Y261107D01*
X120571Y260864D01*
X120763Y260826D01*
X120970Y260518D01*
X120970Y260481D01*
X120842Y259950D01*
X120607Y259793D01*
X120364Y259429D01*
X120278Y259000D01*
X120364Y258571D01*
X120607Y258207D01*
X120971Y257964D01*
X121360Y257886D01*
X121743Y257503D01*
X121536Y257003D01*
X119138D01*
X118784Y257357D01*
Y258387D01*
X118784Y258713D01*
X119212Y258887D01*
X119212Y258887D01*
X119384D01*
Y260568D01*
X115416D01*
Y258887D01*
X115588D01*
X116016Y258713D01*
X116016Y258447D01*
X115872Y257947D01*
X113250D01*
Y258484D01*
X110010D01*
X109890Y258484D01*
X109700D01*
X109510D01*
X109390Y258484D01*
X106150D01*
Y257912D01*
X104062D01*
Y258684D01*
X103297D01*
Y260550D01*
X104484D01*
Y263690D01*
X105084D01*
Y265470D01*
X101116D01*
Y263690D01*
X101716D01*
Y262364D01*
X101665Y262111D01*
Y258684D01*
X100900D01*
Y255916D01*
X104062D01*
Y256281D01*
X106150D01*
Y255716D01*
X109390D01*
X109510Y255716D01*
X109700D01*
X109890D01*
X110010Y255716D01*
X113250D01*
Y256316D01*
X116016D01*
Y255550D01*
X117858D01*
X118032Y255434D01*
X118344Y255372D01*
X122285D01*
X122392Y255265D01*
X122618Y254872D01*
X122584Y254700D01*
X122646Y254388D01*
X122669Y254353D01*
X122402Y253854D01*
X115450D01*
Y253884D01*
X112613D01*
X112287Y253884D01*
X112113Y254312D01*
X112113Y254312D01*
Y254484D01*
X110432D01*
Y252500D01*
Y250516D01*
X112113D01*
Y250688D01*
X112287Y251116D01*
X112613Y251116D01*
X115450D01*
Y252222D01*
X116817D01*
X117025Y251722D01*
X114687Y249384D01*
X113200D01*
X112875Y249384D01*
X112700Y249812D01*
X112700Y249812D01*
Y249984D01*
X111019D01*
Y248000D01*
Y246016D01*
X112700D01*
Y246188D01*
X112875Y246616D01*
X113200Y246616D01*
X116037D01*
Y248428D01*
X118257Y250647D01*
X121987D01*
X122194Y250147D01*
X116862Y244816D01*
X111150D01*
Y245284D01*
X108313D01*
X107987Y245284D01*
X107813Y245712D01*
X107813Y245712D01*
Y245884D01*
X106131D01*
Y243900D01*
Y241916D01*
X107813D01*
Y242088D01*
X107987Y242516D01*
X108313Y242516D01*
X109115D01*
Y241324D01*
X107857D01*
Y236784D01*
X111785D01*
Y236216D01*
X110430D01*
Y233346D01*
X109430D01*
Y236216D01*
X107257D01*
Y234263D01*
X106473D01*
X106200Y234318D01*
X105849Y234248D01*
X105551Y234049D01*
X105352Y233751D01*
X105282Y233400D01*
X105352Y233049D01*
X105551Y232751D01*
X105605Y232697D01*
X105903Y232498D01*
X105961Y232486D01*
X106254Y232428D01*
X107257D01*
Y230476D01*
X108075D01*
X108338Y230084D01*
X108338Y229976D01*
Y229018D01*
X106100D01*
X105749Y228948D01*
X105451Y228749D01*
X105252Y228451D01*
X105182Y228100D01*
X105252Y227749D01*
X105451Y227451D01*
X105749Y227252D01*
X106100Y227182D01*
X108338D01*
Y226116D01*
X110019D01*
Y228100D01*
X111019D01*
Y226116D01*
X112700D01*
Y226288D01*
X112875Y226716D01*
X113200Y226716D01*
X116037D01*
Y229484D01*
X115272D01*
Y231076D01*
X116531D01*
Y234265D01*
X120777Y238511D01*
X120777Y238511D01*
X120883Y238670D01*
X120954Y238776D01*
X121016Y239088D01*
Y243662D01*
X123745Y246392D01*
X124134Y246073D01*
X124052Y245951D01*
X123982Y245600D01*
Y235234D01*
X122925D01*
Y231481D01*
X126875D01*
Y232182D01*
X129229D01*
X129291Y232091D01*
X129754Y231781D01*
X130300Y231673D01*
X130846Y231781D01*
X131309Y232091D01*
X131619Y232554D01*
X131727Y233100D01*
X131619Y233646D01*
X131309Y234109D01*
X130846Y234419D01*
X130300Y234527D01*
X129754Y234419D01*
X129291Y234109D01*
X129229Y234018D01*
X126875D01*
Y235234D01*
X125818D01*
Y245220D01*
X126527Y245929D01*
X127676D01*
X127948Y245983D01*
X128005Y245979D01*
X128448Y245698D01*
Y245148D01*
X128998D01*
X129279Y244705D01*
X129283Y244648D01*
X129229Y244376D01*
Y242605D01*
X129291Y242295D01*
X129466Y242033D01*
X129729Y241857D01*
X130039Y241795D01*
X130348Y241857D01*
X130611Y242033D01*
X131041D01*
X131179Y241940D01*
X131298Y241494D01*
X131295Y241349D01*
X128160Y238214D01*
X127771Y238136D01*
X127407Y237893D01*
X127164Y237529D01*
X127078Y237100D01*
X127164Y236671D01*
X127407Y236307D01*
X127771Y236064D01*
X128200Y235979D01*
X128629Y236064D01*
X128993Y236307D01*
X129236Y236671D01*
X129314Y237060D01*
X133447Y241194D01*
X133947Y240987D01*
Y239901D01*
X131460Y237414D01*
X131071Y237336D01*
X130707Y237093D01*
X130464Y236729D01*
X130378Y236300D01*
X130464Y235871D01*
X130707Y235507D01*
X131071Y235264D01*
X131500Y235178D01*
X131929Y235264D01*
X132293Y235507D01*
X132536Y235871D01*
X132614Y236260D01*
X135022Y238669D01*
X135522Y238461D01*
Y237976D01*
X134760Y237214D01*
X134371Y237136D01*
X134007Y236893D01*
X133764Y236529D01*
X133678Y236100D01*
X133764Y235671D01*
X134007Y235307D01*
X134371Y235064D01*
X134800Y234979D01*
X135229Y235064D01*
X135593Y235307D01*
X135836Y235671D01*
X135914Y236060D01*
X136398Y236544D01*
X136971Y236410D01*
X137107Y236207D01*
X137471Y235964D01*
X137900Y235878D01*
X138329Y235964D01*
X138693Y236207D01*
X138936Y236571D01*
X139022Y237000D01*
X138943Y237397D01*
X138964Y237427D01*
X139454Y237593D01*
X139786Y237260D01*
X139864Y236871D01*
X140107Y236507D01*
X140471Y236264D01*
X140900Y236178D01*
X141329Y236264D01*
X141693Y236507D01*
X141936Y236871D01*
X142022Y237300D01*
X141936Y237729D01*
X141693Y238093D01*
X141329Y238336D01*
X140940Y238414D01*
X140303Y239051D01*
Y241556D01*
X140710Y241829D01*
X140803Y241847D01*
X141062Y241795D01*
X141230Y241829D01*
X141555Y241532D01*
X141551Y241004D01*
X141123Y240577D01*
X140946Y240312D01*
X140884Y240000D01*
X140946Y239688D01*
X141123Y239423D01*
X141388Y239246D01*
X141700Y239184D01*
X142012Y239246D01*
X142277Y239423D01*
X142896Y240043D01*
X143396Y239836D01*
Y235988D01*
X143396Y235988D01*
X143458Y235676D01*
X143635Y235411D01*
X144473Y234573D01*
X144413Y234073D01*
X141775D01*
Y234134D01*
X137825D01*
Y230381D01*
X141775D01*
Y232442D01*
X144162D01*
X144516Y232088D01*
Y231909D01*
X144516Y231790D01*
Y231600D01*
Y231410D01*
X144516Y231291D01*
Y228050D01*
X146426D01*
X147406Y227070D01*
X147406Y227070D01*
X147670Y226894D01*
X147983Y226832D01*
X149067D01*
Y225869D01*
X153410D01*
Y229425D01*
X149067D01*
Y228463D01*
X148320D01*
X147284Y229499D01*
Y231291D01*
X147284Y231410D01*
Y231600D01*
Y231790D01*
X147284Y231909D01*
Y235150D01*
X146204D01*
X145027Y236326D01*
Y237903D01*
X145528Y238110D01*
X149067Y234571D01*
Y231775D01*
X153410D01*
Y235331D01*
X150614D01*
X146602Y239343D01*
Y241556D01*
X147010Y241829D01*
X147102Y241847D01*
X147361Y241795D01*
X147671Y241857D01*
X147709Y241882D01*
X150520D01*
X155982Y236420D01*
Y235150D01*
X155516D01*
Y232313D01*
X155516Y231987D01*
X155088Y231813D01*
X155088Y231813D01*
X154916D01*
Y230132D01*
X158884D01*
Y231813D01*
X158712D01*
X158654Y231836D01*
X158494Y232442D01*
X158644Y232651D01*
X159154D01*
X159328Y232391D01*
X159791Y232081D01*
X160337Y231973D01*
X160883Y232081D01*
X161346Y232391D01*
X161656Y232854D01*
X161764Y233400D01*
X161656Y233946D01*
X161346Y234409D01*
X160883Y234719D01*
X160337Y234827D01*
X159791Y234719D01*
X159443Y234486D01*
X158284D01*
Y235150D01*
X157818D01*
Y236800D01*
X157748Y237151D01*
X157549Y237449D01*
X155566Y239432D01*
X155544Y239483D01*
X155558Y239507D01*
X155712Y239779D01*
X155747Y239842D01*
X155773Y239888D01*
X155789Y239916D01*
X155812D01*
X155867D01*
X156093Y239916D01*
X156128D01*
X156128D01*
X158487D01*
X158813Y239916D01*
X158987Y239488D01*
X158987Y239488D01*
Y239316D01*
X160251D01*
Y238344D01*
X160182Y238000D01*
X160252Y237649D01*
X160451Y237351D01*
X160520Y237283D01*
X160817Y237084D01*
X161169Y237014D01*
X161520Y237084D01*
X161817Y237283D01*
X162016Y237580D01*
X162086Y237931D01*
Y239316D01*
X163350D01*
Y240800D01*
X161169D01*
Y241300D01*
X160669D01*
Y243284D01*
X158987D01*
Y243112D01*
X158813Y242684D01*
X158487Y242684D01*
X157001D01*
X152687Y246998D01*
X152894Y247498D01*
X164028D01*
X166857Y244669D01*
Y241310D01*
X168116D01*
Y240484D01*
X167350D01*
Y237716D01*
X170187D01*
X170513Y237716D01*
X170687Y237288D01*
X170687Y237288D01*
Y237116D01*
X172369D01*
Y239100D01*
X173369D01*
Y237116D01*
X175050D01*
Y238182D01*
X177100D01*
X177451Y238252D01*
X177749Y238451D01*
X177948Y238749D01*
X178018Y239100D01*
X177948Y239451D01*
X177749Y239749D01*
X177451Y239948D01*
X177100Y240018D01*
X175403D01*
X175050Y240371D01*
Y240937D01*
X175050Y241021D01*
Y241084D01*
Y241084D01*
X174743Y241457D01*
X174743Y241584D01*
Y246047D01*
X167785D01*
X165260Y248572D01*
X165262Y248704D01*
X165434Y249106D01*
X165579Y249135D01*
X165844Y249311D01*
X167685Y251153D01*
X174743D01*
Y255716D01*
X174743Y255801D01*
X174950Y256216D01*
Y256224D01*
X174950Y256304D01*
Y257082D01*
X177900D01*
X178251Y257152D01*
X178549Y257351D01*
X178748Y257649D01*
X178818Y258000D01*
X178748Y258351D01*
X178549Y258649D01*
X178251Y258848D01*
X177900Y258918D01*
X175303D01*
X174950Y259271D01*
Y259755D01*
Y259838D01*
Y259863D01*
X174950Y259976D01*
X175098Y260359D01*
X175264Y260554D01*
X176596Y261886D01*
X183254D01*
X183307Y261807D01*
X183671Y261564D01*
X184100Y261478D01*
X184529Y261564D01*
X184893Y261807D01*
X185136Y262171D01*
X185222Y262600D01*
X185136Y263029D01*
X184893Y263393D01*
X184529Y263636D01*
X184100Y263721D01*
X183671Y263636D01*
X183307Y263393D01*
X183254Y263314D01*
X182086D01*
X181831Y263814D01*
X181936Y263971D01*
X182022Y264400D01*
X181936Y264829D01*
X181693Y265193D01*
X181329Y265436D01*
X180900Y265522D01*
X180471Y265436D01*
X180107Y265193D01*
X180054Y265114D01*
X179565D01*
X179298Y265614D01*
X179336Y265671D01*
X179422Y266100D01*
X179336Y266529D01*
X179093Y266893D01*
X178729Y267136D01*
X178300Y267221D01*
X177871Y267136D01*
X177507Y266893D01*
X177454Y266814D01*
X175400D01*
X175127Y266759D01*
X174895Y266605D01*
X173066Y264775D01*
X151856D01*
X151805Y264809D01*
X151495Y264871D01*
X149724D01*
X149452Y264817D01*
X149395Y264821D01*
X148952Y265102D01*
Y265652D01*
X148402D01*
X148121Y266095D01*
X148117Y266152D01*
X148171Y266424D01*
Y267382D01*
X157450D01*
Y266916D01*
X160287D01*
X160613Y266916D01*
X160787Y266488D01*
Y266488D01*
Y266316D01*
X162469D01*
Y268300D01*
Y270284D01*
X160787D01*
Y270112D01*
X160764Y270054D01*
X160158Y269894D01*
X159949Y270044D01*
Y271750D01*
X160009Y271791D01*
X160319Y272254D01*
X160427Y272800D01*
X160319Y273346D01*
X160092Y273686D01*
X160246Y274103D01*
X160313Y274186D01*
X167354D01*
X167407Y274107D01*
X167771Y273864D01*
X168200Y273779D01*
X168629Y273864D01*
X168993Y274107D01*
X169236Y274471D01*
X169322Y274900D01*
X169304Y274986D01*
X169604Y275378D01*
X170107Y275407D01*
X170471Y275164D01*
X170900Y275079D01*
X171329Y275164D01*
X171693Y275407D01*
X171936Y275771D01*
X172022Y276200D01*
X171936Y276629D01*
X171898Y276686D01*
X172165Y277186D01*
X172200D01*
X172473Y277241D01*
X172569Y277305D01*
X172700Y277278D01*
X173129Y277364D01*
X173493Y277607D01*
X173736Y277971D01*
X173822Y278400D01*
X174228Y278684D01*
X174507Y278707D01*
X174871Y278464D01*
X175300Y278379D01*
X175729Y278464D01*
X176093Y278707D01*
X176250Y278941D01*
X176751Y279014D01*
X176807Y279007D01*
X177171Y278764D01*
X177600Y278678D01*
X178029Y278764D01*
X178393Y279007D01*
X178636Y279371D01*
X178722Y279800D01*
X178636Y280229D01*
X178393Y280593D01*
X178029Y280836D01*
X177600Y280922D01*
X177506Y280903D01*
X177105Y281305D01*
X176873Y281459D01*
X176600Y281514D01*
X149672D01*
X149399Y281459D01*
X149167Y281305D01*
X138983Y271121D01*
X138828Y270889D01*
X138774Y270616D01*
Y269167D01*
X138274Y268909D01*
X138222Y268943D01*
X137913Y269005D01*
X137603Y268943D01*
X137340Y268767D01*
X136910D01*
X136647Y268943D01*
X136338Y269005D01*
X136028Y268943D01*
X135766Y268767D01*
X135335D01*
X135073Y268943D01*
X134763Y269005D01*
X134453Y268943D01*
X134191Y268767D01*
X133760D01*
X133498Y268943D01*
X133188Y269005D01*
X132878Y268943D01*
X132616Y268767D01*
X132186D01*
X131923Y268943D01*
X131613Y269005D01*
X131354Y268953D01*
X131261Y268971D01*
X130854Y269244D01*
Y271101D01*
X143813Y284060D01*
X144375Y284134D01*
X145191Y284471D01*
X145891Y285009D01*
X146429Y285709D01*
X146766Y286525D01*
X146882Y287400D01*
X146766Y288275D01*
X146429Y289091D01*
X145891Y289791D01*
X145191Y290329D01*
X144375Y290666D01*
X143500Y290782D01*
D02*
G37*
G36*
X319284Y268784D02*
X317800D01*
Y266800D01*
Y264816D01*
X319284D01*
Y265882D01*
X320900D01*
X321251Y265952D01*
X321549Y266151D01*
X321748Y266449D01*
X321818Y266800D01*
X321748Y267151D01*
X321549Y267449D01*
X321251Y267648D01*
X320900Y267718D01*
X319284D01*
Y268784D01*
D02*
G37*
G36*
X301463Y266800D02*
X299979D01*
Y265316D01*
X301463D01*
Y266800D01*
D02*
G37*
G36*
X247653Y267400D02*
X245578D01*
Y265325D01*
X247653D01*
Y267400D01*
D02*
G37*
G36*
X303947Y266800D02*
X302463D01*
Y265316D01*
X303947D01*
Y266800D01*
D02*
G37*
G36*
X316800Y266300D02*
X315316D01*
Y264816D01*
X316800D01*
Y266300D01*
D02*
G37*
G36*
X268042Y272941D02*
X263109D01*
Y269779D01*
X264658D01*
Y262728D01*
X263525D01*
Y261670D01*
X261975D01*
Y262828D01*
X258025D01*
Y262018D01*
X250031D01*
Y263272D01*
X246081D01*
Y258928D01*
X250031D01*
Y260182D01*
X258025D01*
Y258878D01*
X261975D01*
Y259835D01*
X263525D01*
Y258778D01*
X267475D01*
Y262728D01*
X266493D01*
Y269779D01*
X268042D01*
Y272941D01*
D02*
G37*
G36*
X117400Y265118D02*
X117049Y265048D01*
X116751Y264849D01*
X116552Y264551D01*
X116482Y264200D01*
Y263250D01*
X115416D01*
Y261568D01*
X119384D01*
Y263250D01*
X118318D01*
Y264200D01*
X118248Y264551D01*
X118049Y264849D01*
X117751Y265048D01*
X117400Y265118D01*
D02*
G37*
G36*
X340556Y265672D02*
X338481D01*
Y263400D01*
X340556D01*
Y265672D01*
D02*
G37*
G36*
X337742Y272741D02*
X332809D01*
Y269579D01*
X334256D01*
Y265072D01*
X333569D01*
Y263920D01*
X330144D01*
X329846Y264119D01*
X329300Y264227D01*
X328754Y264119D01*
X328291Y263809D01*
X327981Y263346D01*
X327873Y262800D01*
X327981Y262254D01*
X328291Y261791D01*
X328754Y261481D01*
X329300Y261373D01*
X329846Y261481D01*
X330309Y261791D01*
X330369Y261880D01*
X333569D01*
Y260728D01*
X337519D01*
Y265072D01*
X336295D01*
Y269579D01*
X337742D01*
Y272741D01*
D02*
G37*
G36*
X343631Y265672D02*
X341556D01*
Y263400D01*
X343631D01*
Y265672D01*
D02*
G37*
G36*
X357600Y258722D02*
X355525D01*
Y257065D01*
X353147D01*
X352854Y257007D01*
X352796Y256995D01*
X352498Y256796D01*
X351951Y256249D01*
X351752Y255951D01*
X351682Y255600D01*
X351752Y255249D01*
X351951Y254951D01*
X352249Y254752D01*
X352600Y254682D01*
X352951Y254752D01*
X353249Y254951D01*
X353527Y255230D01*
X355525D01*
Y253572D01*
X357600D01*
Y256147D01*
Y258722D01*
D02*
G37*
G36*
X163350Y243284D02*
X161669D01*
Y241800D01*
X163350D01*
Y243284D01*
D02*
G37*
G36*
X311284Y245684D02*
X309800D01*
Y243700D01*
Y241716D01*
X311284D01*
Y242782D01*
X312700D01*
X313051Y242852D01*
X313349Y243051D01*
X313548Y243349D01*
X313618Y243700D01*
X313548Y244051D01*
X313349Y244349D01*
X313051Y244548D01*
X312700Y244618D01*
X311284D01*
Y245684D01*
D02*
G37*
G36*
X105131Y245884D02*
X103450D01*
Y244818D01*
X101900D01*
X101549Y244748D01*
X101251Y244549D01*
X101052Y244251D01*
X100982Y243900D01*
X101052Y243549D01*
X101251Y243251D01*
X101549Y243052D01*
X101900Y242982D01*
X103450D01*
Y241916D01*
X105131D01*
Y243900D01*
Y245884D01*
D02*
G37*
G36*
X186853Y290853D02*
X180147D01*
Y284147D01*
X182684D01*
Y277200D01*
X182684Y277200D01*
X182746Y276888D01*
X182923Y276623D01*
X202484Y257062D01*
Y246659D01*
X202264Y246329D01*
X202178Y245900D01*
X202264Y245471D01*
X202507Y245107D01*
X202871Y244864D01*
X203300Y244778D01*
X203729Y244864D01*
X204093Y245107D01*
X204336Y245471D01*
X204422Y245900D01*
X204336Y246329D01*
X204116Y246659D01*
Y257400D01*
X204116Y257400D01*
X204054Y257712D01*
X203877Y257977D01*
X203877Y257977D01*
X184316Y277538D01*
Y284147D01*
X186853D01*
Y290853D01*
D02*
G37*
G36*
X308800Y245684D02*
X307316D01*
Y244200D01*
X308800D01*
Y245684D01*
D02*
G37*
G36*
Y243200D02*
X307316D01*
Y241716D01*
X308800D01*
Y243200D01*
D02*
G37*
G36*
X237400Y234053D02*
X235325D01*
Y231978D01*
X237400D01*
Y234053D01*
D02*
G37*
G36*
X127475Y230519D02*
X125400D01*
Y228542D01*
X127475D01*
Y230519D01*
D02*
G37*
G36*
X240475Y234053D02*
X238400D01*
Y231978D01*
X240475D01*
Y234053D01*
D02*
G37*
G36*
X223500Y290882D02*
X222625Y290766D01*
X221809Y290429D01*
X221109Y289891D01*
X220571Y289191D01*
X220234Y288375D01*
X220118Y287500D01*
X220234Y286625D01*
X220571Y285809D01*
X221109Y285109D01*
X221809Y284571D01*
X222625Y284234D01*
X222684Y284226D01*
Y244438D01*
X215360Y237114D01*
X214971Y237036D01*
X214816Y236932D01*
X214316Y237189D01*
Y284226D01*
X214375Y284234D01*
X215191Y284571D01*
X215891Y285109D01*
X216429Y285809D01*
X216766Y286625D01*
X216882Y287500D01*
X216766Y288375D01*
X216429Y289191D01*
X215891Y289891D01*
X215191Y290429D01*
X214375Y290766D01*
X213500Y290882D01*
X212625Y290766D01*
X211809Y290429D01*
X211109Y289891D01*
X210571Y289191D01*
X210234Y288375D01*
X210118Y287500D01*
X210234Y286625D01*
X210571Y285809D01*
X211109Y285109D01*
X211809Y284571D01*
X212625Y284234D01*
X212684Y284226D01*
Y236938D01*
X212660Y236914D01*
X212271Y236836D01*
X211907Y236593D01*
X211664Y236229D01*
X211578Y235800D01*
X211664Y235371D01*
X211907Y235007D01*
X212271Y234764D01*
X212700Y234679D01*
X213129Y234764D01*
X213493Y235007D01*
X213736Y235371D01*
X213895Y235441D01*
X214364Y235571D01*
X214607Y235207D01*
X214971Y234964D01*
X215400Y234878D01*
X215829Y234964D01*
X216193Y235207D01*
X216436Y235571D01*
X216514Y235960D01*
X224077Y243523D01*
X224254Y243788D01*
X224316Y244100D01*
X224316Y244100D01*
Y284226D01*
X224375Y284234D01*
X225191Y284571D01*
X225891Y285109D01*
X226429Y285809D01*
X226766Y286625D01*
X226882Y287500D01*
X226766Y288375D01*
X226429Y289191D01*
X225891Y289891D01*
X225191Y290429D01*
X224375Y290766D01*
X223500Y290882D01*
D02*
G37*
G36*
X237800Y240118D02*
X237449Y240048D01*
X237151Y239849D01*
X236952Y239551D01*
X236882Y239200D01*
X236952Y238849D01*
X236982Y238804D01*
Y237128D01*
X235325D01*
Y235053D01*
X240475D01*
Y237128D01*
X238818D01*
Y239100D01*
X238748Y239451D01*
X238549Y239749D01*
X238449Y239849D01*
X238151Y240048D01*
X237800Y240118D01*
D02*
G37*
G36*
X203500Y290882D02*
X202625Y290766D01*
X201809Y290429D01*
X201109Y289891D01*
X200571Y289191D01*
X200234Y288375D01*
X200118Y287500D01*
X200234Y286625D01*
X200571Y285809D01*
X201109Y285109D01*
X201809Y284571D01*
X202625Y284234D01*
X202684Y284226D01*
Y271000D01*
X202684Y271000D01*
X202746Y270688D01*
X202923Y270423D01*
X208084Y265262D01*
Y246859D01*
X207864Y246529D01*
X207779Y246100D01*
X207864Y245671D01*
X208107Y245307D01*
X208471Y245064D01*
X208900Y244978D01*
X209329Y245064D01*
X209693Y245307D01*
X209936Y245671D01*
X210021Y246100D01*
X209936Y246529D01*
X209716Y246859D01*
Y265600D01*
X209654Y265912D01*
X209583Y266018D01*
X209477Y266177D01*
X209477Y266177D01*
X204316Y271338D01*
Y284226D01*
X204375Y284234D01*
X205191Y284571D01*
X205891Y285109D01*
X206429Y285809D01*
X206766Y286625D01*
X206882Y287500D01*
X206766Y288375D01*
X206429Y289191D01*
X205891Y289891D01*
X205191Y290429D01*
X204375Y290766D01*
X203500Y290882D01*
D02*
G37*
G36*
X109432Y254484D02*
X107750D01*
Y253218D01*
X105700D01*
X105349Y253148D01*
X105051Y252949D01*
X104852Y252651D01*
X104782Y252300D01*
X104852Y251949D01*
X105051Y251651D01*
X105349Y251452D01*
X105700Y251382D01*
X107750D01*
Y250516D01*
X109432D01*
Y252500D01*
Y254484D01*
D02*
G37*
G36*
X309500Y256818D02*
X309149Y256748D01*
X308851Y256549D01*
X308652Y256251D01*
X308582Y255900D01*
Y254741D01*
X307319D01*
Y254141D01*
X304179D01*
Y249010D01*
X304740D01*
Y245084D01*
X303979D01*
Y242316D01*
X304380D01*
Y241194D01*
X304081Y240746D01*
X303973Y240200D01*
X304081Y239654D01*
X304391Y239191D01*
X304854Y238881D01*
X305400Y238773D01*
X305946Y238881D01*
X306409Y239191D01*
X306719Y239654D01*
X306827Y240200D01*
X306719Y240746D01*
X306420Y241194D01*
Y242316D01*
X306747D01*
Y243935D01*
X306779Y244097D01*
Y249010D01*
X307319D01*
Y248410D01*
X309000D01*
Y251576D01*
X310000D01*
Y248410D01*
X311681D01*
Y249010D01*
X314821D01*
Y250580D01*
X318206D01*
X318654Y250281D01*
X319200Y250173D01*
X319746Y250281D01*
X320209Y250591D01*
X320519Y251054D01*
X320627Y251600D01*
X320519Y252146D01*
X320209Y252609D01*
X319746Y252919D01*
X319200Y253027D01*
X318654Y252919D01*
X318206Y252620D01*
X314821D01*
Y254141D01*
X311681D01*
Y254741D01*
X310418D01*
Y255900D01*
X310348Y256251D01*
X310149Y256549D01*
X309851Y256748D01*
X309500Y256818D01*
D02*
G37*
G36*
X262575Y257522D02*
Y257522D01*
X262467Y257522D01*
X260500D01*
Y254947D01*
Y252372D01*
X262077D01*
X262575Y252372D01*
X262577Y252372D01*
X262577Y252372D01*
X262925Y252272D01*
X262925Y252272D01*
X262925Y252272D01*
X263033Y252272D01*
X265000D01*
Y254847D01*
Y257422D01*
X262925D01*
X262925Y257422D01*
Y257422D01*
X262925D01*
X262575Y257522D01*
D02*
G37*
G36*
X259500Y257522D02*
X257425D01*
Y255765D01*
X255947D01*
X255596Y255695D01*
X255298Y255496D01*
X255251Y255449D01*
X255052Y255151D01*
X254982Y254800D01*
X255052Y254449D01*
X255251Y254151D01*
X255549Y253952D01*
X255900Y253882D01*
X256137Y253930D01*
X257425D01*
Y252372D01*
X259500D01*
Y254947D01*
Y257522D01*
D02*
G37*
G36*
X268075Y254347D02*
X266000D01*
Y252272D01*
X268075D01*
Y254347D01*
D02*
G37*
G36*
X337519Y250372D02*
X333569D01*
Y249220D01*
X330194D01*
X329746Y249519D01*
X329200Y249627D01*
X328654Y249519D01*
X328191Y249209D01*
X327881Y248746D01*
X327773Y248200D01*
X327881Y247654D01*
X328191Y247191D01*
X328654Y246881D01*
X329200Y246773D01*
X329746Y246881D01*
X330194Y247180D01*
X333569D01*
Y246028D01*
X337519D01*
Y250372D01*
D02*
G37*
G36*
X343631Y262400D02*
X338481D01*
Y260128D01*
X340138D01*
Y259172D01*
X338481D01*
Y256900D01*
X341056D01*
Y255900D01*
X338481D01*
Y253628D01*
X340138D01*
Y250972D01*
X338481D01*
Y248700D01*
X341056D01*
Y248200D01*
X341556D01*
Y245428D01*
X343631D01*
Y246882D01*
X346100D01*
X346451Y246952D01*
X346749Y247151D01*
X346948Y247449D01*
X347018Y247800D01*
X346948Y248151D01*
X346749Y248449D01*
X346451Y248648D01*
X346100Y248718D01*
X343631D01*
Y250972D01*
X341973D01*
Y253628D01*
X343631D01*
Y255482D01*
X346800D01*
X347151Y255552D01*
X347449Y255751D01*
X347648Y256049D01*
X347718Y256400D01*
X347648Y256751D01*
X347449Y257049D01*
X347151Y257248D01*
X346800Y257318D01*
X343631D01*
Y259172D01*
X341973D01*
Y260128D01*
X343631D01*
Y262400D01*
D02*
G37*
G36*
X340556Y247700D02*
X338481D01*
Y245428D01*
X340556D01*
Y247700D01*
D02*
G37*
G36*
X110019Y249984D02*
X108338D01*
Y248918D01*
X105700D01*
X105349Y248848D01*
X105051Y248649D01*
X104852Y248351D01*
X104782Y248000D01*
X104852Y247649D01*
X105051Y247351D01*
X105349Y247152D01*
X105700Y247082D01*
X108338D01*
Y246016D01*
X110019D01*
Y248000D01*
Y249984D01*
D02*
G37*
G36*
X193500Y290882D02*
X192625Y290766D01*
X191809Y290429D01*
X191109Y289891D01*
X190571Y289191D01*
X190234Y288375D01*
X190118Y287500D01*
X190234Y286625D01*
X190571Y285809D01*
X191109Y285109D01*
X191809Y284571D01*
X192625Y284234D01*
X192684Y284226D01*
Y272500D01*
X192684Y272500D01*
X192746Y272188D01*
X192923Y271923D01*
X204984Y259862D01*
Y249859D01*
X204764Y249529D01*
X204678Y249100D01*
X204764Y248671D01*
X205007Y248307D01*
X205371Y248064D01*
X205800Y247978D01*
X206229Y248064D01*
X206593Y248307D01*
X206836Y248671D01*
X206922Y249100D01*
X206836Y249529D01*
X206616Y249859D01*
Y260200D01*
X206616Y260200D01*
X206554Y260512D01*
X206377Y260777D01*
X206377Y260777D01*
X194316Y272838D01*
Y284226D01*
X194375Y284234D01*
X195191Y284571D01*
X195891Y285109D01*
X196429Y285809D01*
X196766Y286625D01*
X196882Y287500D01*
X196766Y288375D01*
X196429Y289191D01*
X195891Y289891D01*
X195191Y290429D01*
X194375Y290766D01*
X193500Y290882D01*
D02*
G37*
G36*
X250432Y252900D02*
X245676D01*
Y250825D01*
X247137D01*
Y248246D01*
X247207Y247895D01*
X247406Y247597D01*
X247451Y247551D01*
X247749Y247352D01*
X248100Y247282D01*
X248451Y247352D01*
X248749Y247551D01*
X248948Y247849D01*
X249018Y248200D01*
X248972Y248430D01*
Y250825D01*
X250432D01*
Y252900D01*
D02*
G37*
G36*
X250728Y267400D02*
X248653D01*
Y265325D01*
X250728D01*
Y267400D01*
D02*
G37*
G36*
X137421Y286900D02*
X134000D01*
Y283479D01*
X134532Y283549D01*
X135493Y283947D01*
X136319Y284581D01*
X136953Y285407D01*
X137351Y286368D01*
X137421Y286900D01*
D02*
G37*
G36*
X133000D02*
X129579D01*
X129649Y286368D01*
X130047Y285407D01*
X130681Y284581D01*
X131507Y283947D01*
X132468Y283549D01*
X133000Y283479D01*
Y286900D01*
D02*
G37*
G36*
X153000D02*
X149579D01*
X149649Y286368D01*
X150047Y285407D01*
X150681Y284581D01*
X151507Y283947D01*
X152468Y283549D01*
X153000Y283479D01*
Y286900D01*
D02*
G37*
G36*
X233000Y287000D02*
X229579D01*
X229649Y286468D01*
X230047Y285507D01*
X230681Y284681D01*
X231507Y284047D01*
X232468Y283649D01*
X233000Y283579D01*
Y287000D01*
D02*
G37*
G36*
X157421Y286900D02*
X154000D01*
Y283479D01*
X154532Y283549D01*
X155493Y283947D01*
X156319Y284581D01*
X156953Y285407D01*
X157351Y286368D01*
X157421Y286900D01*
D02*
G37*
G36*
X379200Y285721D02*
Y282300D01*
X382621D01*
X382551Y282832D01*
X382153Y283793D01*
X381519Y284619D01*
X380693Y285253D01*
X379732Y285651D01*
X379200Y285721D01*
D02*
G37*
G36*
X243284Y281021D02*
X240516D01*
Y280453D01*
X236675D01*
Y280528D01*
X234906D01*
X234700Y280568D01*
X234494Y280528D01*
X232725D01*
Y276578D01*
X236675D01*
Y278821D01*
X240516D01*
Y278253D01*
X243284D01*
Y281021D01*
D02*
G37*
G36*
X382621Y281300D02*
X379200D01*
Y277879D01*
X379732Y277949D01*
X380693Y278347D01*
X381519Y278981D01*
X382153Y279807D01*
X382551Y280768D01*
X382621Y281300D01*
D02*
G37*
G36*
X320953Y283300D02*
X318878D01*
Y281225D01*
X320953D01*
Y283300D01*
D02*
G37*
G36*
X378200Y285721D02*
X377668Y285651D01*
X376707Y285253D01*
X375881Y284619D01*
X375247Y283793D01*
X374849Y282832D01*
X374779Y282300D01*
X378200D01*
Y285721D01*
D02*
G37*
G36*
X324028Y283300D02*
X321953D01*
Y281225D01*
X324028D01*
Y283300D01*
D02*
G37*
G36*
X237421Y287000D02*
X234000D01*
Y283579D01*
X234532Y283649D01*
X235493Y284047D01*
X236319Y284681D01*
X236953Y285507D01*
X237351Y286468D01*
X237421Y287000D01*
D02*
G37*
G36*
X154000Y291321D02*
Y287900D01*
X157421D01*
X157351Y288432D01*
X156953Y289393D01*
X156319Y290219D01*
X155493Y290853D01*
X154532Y291251D01*
X154000Y291321D01*
D02*
G37*
G36*
X153000D02*
X152468Y291251D01*
X151507Y290853D01*
X150681Y290219D01*
X150047Y289393D01*
X149649Y288432D01*
X149579Y287900D01*
X153000D01*
Y291321D01*
D02*
G37*
G36*
X233000Y291421D02*
X232468Y291351D01*
X231507Y290953D01*
X230681Y290319D01*
X230047Y289493D01*
X229649Y288532D01*
X229579Y288000D01*
X233000D01*
Y291421D01*
D02*
G37*
G36*
X270753Y290075D02*
X268678D01*
Y288000D01*
X270753D01*
Y290075D01*
D02*
G37*
G36*
X234000Y291421D02*
Y288000D01*
X237421D01*
X237351Y288532D01*
X236953Y289493D01*
X236319Y290319D01*
X235493Y290953D01*
X234532Y291351D01*
X234000Y291421D01*
D02*
G37*
G36*
X134000Y291321D02*
Y287900D01*
X137421D01*
X137351Y288432D01*
X136953Y289393D01*
X136319Y290219D01*
X135493Y290853D01*
X134532Y291251D01*
X134000Y291321D01*
D02*
G37*
G36*
X321200Y288818D02*
X320849Y288748D01*
X320551Y288549D01*
X320352Y288251D01*
X320282Y287900D01*
X320352Y287549D01*
X320535Y287275D01*
Y286375D01*
X318878D01*
Y284300D01*
X324028D01*
Y286375D01*
X322370D01*
Y287647D01*
X322301Y287998D01*
X322102Y288296D01*
X321849Y288549D01*
X321551Y288748D01*
X321200Y288818D01*
D02*
G37*
G36*
X106853Y290753D02*
X100147D01*
Y284047D01*
X106853D01*
Y290753D01*
D02*
G37*
G36*
X270753Y287000D02*
X268678D01*
Y284925D01*
X270753D01*
Y287000D01*
D02*
G37*
G36*
X133000Y291321D02*
X132468Y291251D01*
X131507Y290853D01*
X130681Y290219D01*
X130047Y289393D01*
X129649Y288432D01*
X129579Y287900D01*
X133000D01*
Y291321D01*
D02*
G37*
G36*
X273828Y290075D02*
X271753D01*
Y287500D01*
Y284925D01*
X273828D01*
Y286582D01*
X276004D01*
X276049Y286552D01*
X276400Y286482D01*
X276751Y286552D01*
X277049Y286751D01*
X277248Y287049D01*
X277318Y287400D01*
Y287500D01*
X277248Y287851D01*
X277049Y288149D01*
X276751Y288348D01*
X276400Y288418D01*
X273828D01*
Y290075D01*
D02*
G37*
G36*
X378200Y281300D02*
X374779D01*
X374849Y280768D01*
X375247Y279807D01*
X375881Y278981D01*
X376707Y278347D01*
X377668Y277949D01*
X378200Y277879D01*
Y281300D01*
D02*
G37*
G36*
X243284Y277084D02*
X240516D01*
Y274316D01*
X240676D01*
Y269875D01*
X240272D01*
Y269124D01*
X234522D01*
X234000Y269227D01*
X233454Y269119D01*
X232991Y268809D01*
X232681Y268346D01*
X232573Y267800D01*
X232681Y267254D01*
X232991Y266791D01*
X233454Y266481D01*
X234000Y266373D01*
X234546Y266481D01*
X234839Y266676D01*
X240272D01*
Y265925D01*
X240676D01*
Y263272D01*
X240569D01*
Y258928D01*
X244519D01*
Y263272D01*
X243124D01*
Y265925D01*
X244222D01*
Y269875D01*
X243124D01*
Y274316D01*
X243284D01*
Y277084D01*
D02*
G37*
G36*
X344724Y288552D02*
X344178Y288443D01*
X343715Y288134D01*
X343406Y287671D01*
X343297Y287124D01*
X343406Y286578D01*
X343501Y286436D01*
Y280221D01*
X342257D01*
Y277081D01*
X341657D01*
Y275400D01*
X344724D01*
Y274400D01*
X341657D01*
Y272719D01*
X342257D01*
Y269579D01*
X347191D01*
Y269936D01*
X351233D01*
X351591Y269579D01*
X351988Y269314D01*
X352456Y269221D01*
X356028D01*
Y268469D01*
X360372D01*
Y269221D01*
X362016D01*
Y268816D01*
X364784D01*
Y269221D01*
X375347D01*
Y268447D01*
X382053D01*
Y275153D01*
X375347D01*
Y271668D01*
X360372D01*
Y272419D01*
X356028D01*
Y271668D01*
X352963D01*
X352605Y272025D01*
X352208Y272290D01*
X351740Y272383D01*
X348152D01*
X347791Y272719D01*
Y273982D01*
X349654D01*
X349849Y273852D01*
X350200Y273782D01*
X350551Y273852D01*
X350849Y274051D01*
X351048Y274349D01*
X351118Y274700D01*
X351048Y275051D01*
X350849Y275349D01*
X350649Y275549D01*
X350351Y275748D01*
X350000Y275818D01*
X347791D01*
Y277081D01*
X347191D01*
Y280221D01*
X345948D01*
Y286436D01*
X346043Y286578D01*
X346152Y287124D01*
X346043Y287671D01*
X345734Y288134D01*
X345271Y288443D01*
X344724Y288552D01*
D02*
G37*
G36*
X234200Y275222D02*
X232125D01*
Y274765D01*
X230647D01*
X230296Y274695D01*
X229998Y274496D01*
X229951Y274449D01*
X229752Y274151D01*
X229682Y273800D01*
X229752Y273449D01*
X229951Y273151D01*
X230249Y272952D01*
X230600Y272882D01*
X230837Y272930D01*
X232125D01*
Y270072D01*
X234200D01*
Y272647D01*
Y275222D01*
D02*
G37*
G36*
X303984Y273184D02*
X302500D01*
Y271700D01*
X303984D01*
Y273184D01*
D02*
G37*
G36*
X237275Y272147D02*
X235200D01*
Y270072D01*
X237275D01*
Y272147D01*
D02*
G37*
G36*
X248300Y273318D02*
X247949Y273248D01*
X247651Y273049D01*
X247504Y272902D01*
X247305Y272604D01*
X247235Y272253D01*
Y270475D01*
X245578D01*
Y268400D01*
X250728D01*
Y270475D01*
X249070D01*
Y271933D01*
X249148Y272049D01*
X249218Y272400D01*
X249148Y272751D01*
X248949Y273049D01*
X248651Y273248D01*
X248300Y273318D01*
D02*
G37*
G36*
X102600Y268250D02*
X101116D01*
Y266470D01*
X102600D01*
Y268250D01*
D02*
G37*
G36*
X165150Y270284D02*
X163469D01*
Y268300D01*
Y266316D01*
X165150D01*
Y267382D01*
X167400D01*
X167751Y267452D01*
X168049Y267651D01*
X168149Y267751D01*
X168348Y268049D01*
X168418Y268400D01*
X168348Y268751D01*
X168149Y269049D01*
X167851Y269248D01*
X167500Y269318D01*
X167149Y269248D01*
X167104Y269218D01*
X165150D01*
Y270284D01*
D02*
G37*
G36*
X105800Y268618D02*
X104830D01*
X104479Y268548D01*
X104181Y268349D01*
X104082Y268250D01*
X103600D01*
Y266470D01*
X105084D01*
Y266657D01*
X105210Y266782D01*
X105800D01*
X106151Y266852D01*
X106449Y267051D01*
X106648Y267349D01*
X106718Y267700D01*
X106648Y268051D01*
X106449Y268349D01*
X106151Y268548D01*
X105800Y268618D01*
D02*
G37*
G36*
X301500Y273184D02*
X300016D01*
Y272118D01*
X298700D01*
X298349Y272048D01*
X298051Y271849D01*
X297951Y271749D01*
X297752Y271451D01*
X297682Y271100D01*
X297752Y270749D01*
X297951Y270451D01*
X298249Y270252D01*
X298600Y270182D01*
X298951Y270252D01*
X298996Y270282D01*
X300016D01*
Y269284D01*
X299979D01*
Y267800D01*
X303947D01*
Y269216D01*
X303984D01*
Y270700D01*
X302000D01*
Y271200D01*
X301500D01*
Y273184D01*
D02*
G37*
G36*
X316800Y268784D02*
X315316D01*
Y267300D01*
X316800D01*
Y268784D01*
D02*
G37*
G36*
X237275Y275222D02*
X235200D01*
Y273147D01*
X237275D01*
Y275222D01*
D02*
G37*
G36*
X358200Y282218D02*
X357849Y282148D01*
X357551Y281949D01*
X357352Y281651D01*
X357282Y281300D01*
X357282Y281300D01*
Y278531D01*
X355428D01*
Y276456D01*
X360972D01*
Y278531D01*
X359118D01*
Y281300D01*
X359059Y281593D01*
X359048Y281651D01*
X358849Y281949D01*
X358849D01*
X358551Y282148D01*
X358200Y282218D01*
D02*
G37*
G36*
X277491Y280421D02*
X272557D01*
Y277281D01*
X271957D01*
Y276018D01*
X270300D01*
X269949Y275948D01*
X269651Y275749D01*
X269452Y275451D01*
X269382Y275100D01*
X269452Y274749D01*
X269651Y274451D01*
X269949Y274252D01*
X270300Y274182D01*
X271957D01*
Y272919D01*
X272557D01*
Y269779D01*
X277491D01*
Y270442D01*
X282625D01*
Y269772D01*
X286575D01*
Y270830D01*
X293223D01*
X293471Y270664D01*
X293900Y270579D01*
X294329Y270664D01*
X294693Y270907D01*
X294936Y271271D01*
X295022Y271700D01*
X294936Y272129D01*
X294693Y272493D01*
X294329Y272736D01*
X293900Y272821D01*
X293471Y272736D01*
X293364Y272665D01*
X286575D01*
Y273722D01*
X282625D01*
Y272277D01*
X277491D01*
Y272919D01*
X278091D01*
Y274600D01*
X275024D01*
Y275600D01*
X278091D01*
Y277281D01*
X277491D01*
Y277923D01*
X282625D01*
Y275678D01*
X286575D01*
Y279628D01*
X283854D01*
X283764Y279688D01*
X283413Y279758D01*
X277491D01*
Y280421D01*
D02*
G37*
G36*
X337742Y280221D02*
X332809D01*
Y277059D01*
X337742D01*
Y280221D01*
D02*
G37*
G36*
X299847Y282370D02*
X299496Y282300D01*
X299198Y282102D01*
X299000Y281804D01*
X298930Y281453D01*
Y279575D01*
X297272D01*
Y277500D01*
X302422D01*
Y279575D01*
X300765D01*
Y281135D01*
X300818Y281400D01*
X300748Y281751D01*
X300549Y282049D01*
X300496Y282102D01*
X300198Y282300D01*
X299847Y282370D01*
D02*
G37*
G36*
X267322Y289475D02*
X263372D01*
Y285525D01*
X264430D01*
Y280421D01*
X263109D01*
Y277259D01*
X268042D01*
Y280421D01*
X266265D01*
Y285525D01*
X267322D01*
Y289475D01*
D02*
G37*
G36*
X317522Y285775D02*
X313572D01*
Y281825D01*
X314419D01*
Y278384D01*
X313953D01*
Y275616D01*
X316721D01*
Y278384D01*
X316255D01*
Y281825D01*
X317522D01*
Y285775D01*
D02*
G37*
G36*
X360972Y275456D02*
X358700D01*
Y273381D01*
X360972D01*
Y275456D01*
D02*
G37*
G36*
X357700D02*
X355428D01*
Y273381D01*
X357700D01*
Y275456D01*
D02*
G37*
G36*
X299347Y276500D02*
X297272D01*
Y274425D01*
X299347D01*
Y276500D01*
D02*
G37*
G36*
X305700Y282421D02*
X305271Y282336D01*
X304907Y282093D01*
X304664Y281729D01*
X304578Y281300D01*
X304664Y280871D01*
X304907Y280507D01*
X305019Y280432D01*
Y278975D01*
X303778D01*
Y275025D01*
X304982D01*
Y272584D01*
X304553D01*
Y269816D01*
X304982D01*
Y268684D01*
X304516D01*
Y265916D01*
X304982D01*
Y263590D01*
X304179D01*
Y258459D01*
X307341D01*
Y263590D01*
X306818D01*
Y265916D01*
X307284D01*
Y268684D01*
X306818D01*
Y269816D01*
X307321D01*
Y272584D01*
X306855D01*
Y275025D01*
X307728D01*
Y276082D01*
X310016D01*
Y275616D01*
X312784D01*
Y278384D01*
X310016D01*
Y277918D01*
X307728D01*
Y278975D01*
X306855D01*
Y281063D01*
X306815Y281265D01*
X306821Y281300D01*
X306736Y281729D01*
X306493Y282093D01*
X306129Y282336D01*
X305700Y282421D01*
D02*
G37*
G36*
X302422Y276500D02*
X300347D01*
Y274425D01*
X302422D01*
Y276500D01*
D02*
G37*
G36*
X255400Y183132D02*
X253325D01*
Y181254D01*
X255400D01*
Y183132D01*
D02*
G37*
G36*
X162031Y181400D02*
X160350D01*
Y179916D01*
X162031D01*
Y181400D01*
D02*
G37*
G36*
X248600Y188927D02*
X248054Y188819D01*
X247591Y188509D01*
X247281Y188046D01*
X247173Y187500D01*
X247281Y186954D01*
X247591Y186491D01*
X247680Y186431D01*
Y182831D01*
X246528D01*
Y178881D01*
X250872D01*
Y182831D01*
X249720D01*
Y186656D01*
X249919Y186954D01*
X250027Y187500D01*
X249919Y188046D01*
X249609Y188509D01*
X249146Y188819D01*
X248600Y188927D01*
D02*
G37*
G36*
X208556Y193772D02*
X206481D01*
Y191500D01*
X208556D01*
Y193772D01*
D02*
G37*
G36*
X211631D02*
X209556D01*
Y191000D01*
X209056D01*
Y190500D01*
X206481D01*
Y188230D01*
X206481Y188228D01*
Y188228D01*
X206581Y187770D01*
X206581Y187728D01*
Y185500D01*
X209156D01*
Y185000D01*
X209656D01*
Y182228D01*
X211731D01*
Y184082D01*
X216000D01*
X216351Y184152D01*
X216649Y184351D01*
X216749Y184451D01*
X216948Y184749D01*
X217018Y185100D01*
X216948Y185451D01*
X216749Y185749D01*
X216451Y185948D01*
X216100Y186018D01*
X215749Y185948D01*
X215704Y185918D01*
X212084D01*
X211731Y186271D01*
Y187770D01*
X211731Y187772D01*
Y187772D01*
X211631Y188230D01*
X211631Y188272D01*
Y190082D01*
X215900D01*
X216251Y190152D01*
X216549Y190351D01*
X216549D01*
X216748Y190649D01*
X216806Y190942D01*
X216818Y191000D01*
Y191000D01*
X216748Y191351D01*
X216549Y191649D01*
X216251Y191848D01*
X215900Y191918D01*
X211631D01*
Y193772D01*
D02*
G37*
G36*
X208656Y184500D02*
X206581D01*
Y182228D01*
X208656D01*
Y184500D01*
D02*
G37*
G36*
X211631Y180572D02*
X209556D01*
Y177800D01*
Y175028D01*
X211631D01*
Y176882D01*
X215800D01*
X216151Y176952D01*
X216449Y177151D01*
X216649Y177351D01*
X216848Y177649D01*
X216918Y178000D01*
X216848Y178351D01*
X216649Y178649D01*
X216351Y178848D01*
X216000Y178918D01*
X215649Y178848D01*
X215454Y178718D01*
X211631D01*
Y180572D01*
D02*
G37*
G36*
X208556Y177300D02*
X206481D01*
Y175028D01*
X208556D01*
Y177300D01*
D02*
G37*
G36*
X368053Y176753D02*
X364600D01*
Y173300D01*
X368053D01*
Y176753D01*
D02*
G37*
G36*
X258475Y183132D02*
X256400D01*
Y180754D01*
Y178376D01*
X258475D01*
Y179837D01*
X260446D01*
X260797Y179906D01*
X261094Y180105D01*
X261293Y180403D01*
X261363Y180754D01*
X261293Y181105D01*
X261094Y181403D01*
X260797Y181602D01*
X260446Y181672D01*
X258475D01*
Y183132D01*
D02*
G37*
G36*
X255400Y180254D02*
X253325D01*
Y178376D01*
X255400D01*
Y180254D01*
D02*
G37*
G36*
X208556Y180572D02*
X206481D01*
Y178300D01*
X208556D01*
Y180572D01*
D02*
G37*
G36*
X292300Y204722D02*
X290225D01*
Y202647D01*
X292300D01*
Y204722D01*
D02*
G37*
G36*
X288875D02*
X286800D01*
Y202647D01*
X288875D01*
Y204722D01*
D02*
G37*
G36*
X285800D02*
X283725D01*
Y202647D01*
X285800D01*
Y204722D01*
D02*
G37*
G36*
X106853Y208000D02*
X104778D01*
Y205925D01*
X106853D01*
Y208000D01*
D02*
G37*
G36*
X103422Y210475D02*
X99472D01*
Y206525D01*
X99684D01*
Y205821D01*
X99116D01*
Y203053D01*
X101884D01*
Y205821D01*
X101316D01*
Y206525D01*
X103422D01*
Y210475D01*
D02*
G37*
G36*
X295375Y204722D02*
X293300D01*
Y202647D01*
X295375D01*
Y204722D01*
D02*
G37*
G36*
X124984Y201884D02*
X122216D01*
Y199116D01*
X123231D01*
X125886Y196460D01*
X125964Y196071D01*
X126207Y195707D01*
X126571Y195464D01*
X127000Y195378D01*
X127429Y195464D01*
X127793Y195707D01*
X128036Y196071D01*
X128122Y196500D01*
X128036Y196929D01*
X127793Y197293D01*
X127429Y197536D01*
X127040Y197614D01*
X124984Y199669D01*
Y201884D01*
D02*
G37*
G36*
X168800Y196022D02*
X168371Y195936D01*
X168007Y195693D01*
X167764Y195329D01*
X167678Y194900D01*
X167764Y194471D01*
X168003Y194113D01*
X166875Y192984D01*
X165313D01*
X164987Y192984D01*
X164813Y193412D01*
Y193412D01*
Y193584D01*
X163131D01*
Y191600D01*
X162132D01*
Y193584D01*
X160450D01*
Y192518D01*
X158296D01*
X158251Y192548D01*
X157900Y192618D01*
X157549Y192548D01*
X157251Y192349D01*
X157052Y192051D01*
X156982Y191700D01*
X157052Y191349D01*
X157251Y191051D01*
X157351Y190951D01*
X157649Y190752D01*
X158000Y190682D01*
X160450D01*
Y189616D01*
X161614D01*
Y188684D01*
X160550D01*
Y187200D01*
X162732D01*
Y186200D01*
X160550D01*
Y184716D01*
X161614D01*
Y183884D01*
X160350D01*
Y182400D01*
X162531D01*
Y181900D01*
X163031D01*
Y179916D01*
X164713D01*
Y180088D01*
X164887Y180516D01*
X165213Y180516D01*
X168050D01*
Y181186D01*
X172754D01*
X172807Y181107D01*
X173171Y180864D01*
X173600Y180778D01*
X174029Y180864D01*
X174393Y181107D01*
X174636Y181471D01*
X174722Y181900D01*
X174636Y182329D01*
X174393Y182693D01*
X174029Y182936D01*
X173600Y183022D01*
X173171Y182936D01*
X172807Y182693D01*
X172754Y182614D01*
X168050D01*
Y183284D01*
X165213D01*
X164887Y183284D01*
X164713Y183712D01*
Y183712D01*
Y183884D01*
X163449D01*
Y184716D01*
X164913D01*
Y184888D01*
X165087Y185316D01*
X165413Y185316D01*
X168250D01*
Y185986D01*
X170754D01*
X170807Y185907D01*
X171171Y185664D01*
X171600Y185578D01*
X172029Y185664D01*
X172393Y185907D01*
X172636Y186271D01*
X172722Y186700D01*
X172636Y187129D01*
X172393Y187493D01*
X172029Y187736D01*
X171600Y187822D01*
X171171Y187736D01*
X170807Y187493D01*
X170754Y187414D01*
X168250D01*
Y188084D01*
X165413D01*
X165087Y188084D01*
X164913Y188512D01*
Y188512D01*
Y188684D01*
X163449D01*
Y189616D01*
X164813D01*
Y189788D01*
X164987Y190216D01*
X165313Y190216D01*
X168150D01*
Y192240D01*
X169305Y193395D01*
X169459Y193627D01*
X169514Y193900D01*
Y194054D01*
X169593Y194107D01*
X169836Y194471D01*
X169922Y194900D01*
X169836Y195329D01*
X169593Y195693D01*
X169229Y195936D01*
X168800Y196022D01*
D02*
G37*
G36*
X205621Y217742D02*
X202459D01*
Y215136D01*
X202319Y214997D01*
X202098Y214666D01*
X202021Y214276D01*
Y193172D01*
X201569D01*
Y192020D01*
X196242D01*
X195700Y192127D01*
X195154Y192019D01*
X194691Y191709D01*
X194381Y191246D01*
X194273Y190700D01*
X194381Y190154D01*
X194691Y189691D01*
X195154Y189381D01*
X195700Y189273D01*
X196246Y189381D01*
X196709Y189691D01*
X196903Y189980D01*
X201569D01*
Y188828D01*
X202021D01*
Y187172D01*
X201669D01*
Y182828D01*
X202021D01*
Y179972D01*
X201569D01*
Y178820D01*
X200700D01*
X200310Y178742D01*
X199979Y178521D01*
X199282Y177824D01*
X198754Y177719D01*
X198291Y177409D01*
X197981Y176946D01*
X197873Y176400D01*
X197981Y175854D01*
X198291Y175391D01*
X198754Y175081D01*
X199300Y174973D01*
X199846Y175081D01*
X200309Y175391D01*
X200619Y175854D01*
X200724Y176382D01*
X201069Y176727D01*
X201569Y176652D01*
Y175628D01*
X205519D01*
Y179972D01*
X204060D01*
Y182828D01*
X205619D01*
Y187172D01*
X204060D01*
Y188828D01*
X205519D01*
Y193172D01*
X204060D01*
Y212809D01*
X205621D01*
Y217742D01*
D02*
G37*
G36*
X101884Y201884D02*
X99116D01*
Y199116D01*
X101884D01*
Y199884D01*
X109441D01*
X109771Y199664D01*
X110200Y199578D01*
X110629Y199664D01*
X110993Y199907D01*
X111236Y200271D01*
X111322Y200700D01*
X111236Y201129D01*
X110993Y201493D01*
X110629Y201736D01*
X110200Y201822D01*
X109771Y201736D01*
X109441Y201516D01*
X101884D01*
Y201884D01*
D02*
G37*
G36*
X295375Y201647D02*
X290225D01*
Y199572D01*
X291882D01*
Y197500D01*
X291952Y197149D01*
X292151Y196851D01*
X292449Y196652D01*
X292800Y196582D01*
X293151Y196652D01*
X293449Y196851D01*
X293648Y197149D01*
X293718Y197500D01*
Y199572D01*
X295375D01*
Y201647D01*
D02*
G37*
G36*
X288875D02*
X283725D01*
Y199572D01*
X285382D01*
Y196996D01*
X285352Y196951D01*
X285282Y196600D01*
X285352Y196249D01*
X285551Y195951D01*
X285849Y195752D01*
X286200Y195682D01*
X286551Y195752D01*
X286849Y195951D01*
X286949Y196051D01*
X287148Y196349D01*
X287218Y196700D01*
Y199572D01*
X288875D01*
Y201647D01*
D02*
G37*
G36*
X76800Y166221D02*
X76268Y166151D01*
X75307Y165753D01*
X74481Y165119D01*
X73847Y164293D01*
X73449Y163332D01*
X73379Y162800D01*
X76800D01*
Y166221D01*
D02*
G37*
G36*
X67800D02*
Y162800D01*
X71221D01*
X71151Y163332D01*
X70753Y164293D01*
X70119Y165119D01*
X69293Y165753D01*
X68332Y166151D01*
X67800Y166221D01*
D02*
G37*
G36*
X66800D02*
X66268Y166151D01*
X65307Y165753D01*
X64481Y165119D01*
X63847Y164293D01*
X63449Y163332D01*
X63379Y162800D01*
X66800D01*
Y166221D01*
D02*
G37*
G36*
X364600Y166721D02*
Y163300D01*
X368021D01*
X367951Y163832D01*
X367553Y164793D01*
X366919Y165619D01*
X366093Y166253D01*
X365132Y166651D01*
X364600Y166721D01*
D02*
G37*
G36*
X363600D02*
X363068Y166651D01*
X362107Y166253D01*
X361281Y165619D01*
X360647Y164793D01*
X360249Y163832D01*
X360179Y163300D01*
X363600D01*
Y166721D01*
D02*
G37*
G36*
X77800Y166221D02*
Y162800D01*
X81221D01*
X81151Y163332D01*
X80753Y164293D01*
X80119Y165119D01*
X79293Y165753D01*
X78332Y166151D01*
X77800Y166221D01*
D02*
G37*
G36*
X363600Y162300D02*
X360179D01*
X360249Y161768D01*
X360647Y160807D01*
X361281Y159981D01*
X362107Y159347D01*
X363068Y158949D01*
X363600Y158879D01*
Y162300D01*
D02*
G37*
G36*
X81221Y161800D02*
X77800D01*
Y158379D01*
X78332Y158449D01*
X79293Y158847D01*
X80119Y159481D01*
X80753Y160307D01*
X81151Y161268D01*
X81221Y161800D01*
D02*
G37*
G36*
X76800D02*
X73379D01*
X73449Y161268D01*
X73847Y160307D01*
X74481Y159481D01*
X75307Y158847D01*
X76268Y158449D01*
X76800Y158379D01*
Y161800D01*
D02*
G37*
G36*
X378021Y162300D02*
X374600D01*
Y158879D01*
X375132Y158949D01*
X376093Y159347D01*
X376919Y159981D01*
X377553Y160807D01*
X377951Y161768D01*
X378021Y162300D01*
D02*
G37*
G36*
X373600D02*
X370179D01*
X370249Y161768D01*
X370647Y160807D01*
X371281Y159981D01*
X372107Y159347D01*
X373068Y158949D01*
X373600Y158879D01*
Y162300D01*
D02*
G37*
G36*
X368021D02*
X364600D01*
Y158879D01*
X365132Y158949D01*
X366093Y159347D01*
X366919Y159981D01*
X367553Y160807D01*
X367951Y161768D01*
X368021Y162300D01*
D02*
G37*
G36*
X242247Y171575D02*
X240172D01*
Y169918D01*
X236296D01*
X236251Y169948D01*
X235900Y170018D01*
X235549Y169948D01*
X235251Y169749D01*
X235052Y169451D01*
X234982Y169100D01*
X235052Y168749D01*
X235251Y168451D01*
X235351Y168351D01*
X235649Y168152D01*
X236000Y168082D01*
X240172D01*
Y166425D01*
X242247D01*
Y169000D01*
Y171575D01*
D02*
G37*
G36*
X245322D02*
X243247D01*
Y169500D01*
X245322D01*
Y171575D01*
D02*
G37*
G36*
X374100Y176182D02*
X373225Y176067D01*
X372409Y175729D01*
X371709Y175191D01*
X371171Y174491D01*
X370834Y173675D01*
X370718Y172800D01*
X370834Y171925D01*
X371171Y171109D01*
X371271Y170980D01*
X369104Y168814D01*
X368539D01*
X368053Y168847D01*
X368053Y169314D01*
Y172300D01*
X360147D01*
Y168847D01*
X361031D01*
X361238Y168347D01*
X324795Y131905D01*
X324641Y131673D01*
X324586Y131400D01*
Y120296D01*
X324175Y119884D01*
X322086D01*
Y117116D01*
X325248D01*
Y118939D01*
X325805Y119495D01*
X325959Y119727D01*
X326014Y120000D01*
Y131104D01*
X362296Y167386D01*
X369400D01*
X369673Y167441D01*
X369905Y167595D01*
X372280Y169971D01*
X372409Y169871D01*
X373225Y169534D01*
X374100Y169418D01*
X374975Y169534D01*
X375791Y169871D01*
X376491Y170409D01*
X377029Y171109D01*
X377366Y171925D01*
X377482Y172800D01*
X377366Y173675D01*
X377029Y174491D01*
X376491Y175191D01*
X375791Y175729D01*
X374975Y176067D01*
X374100Y176182D01*
D02*
G37*
G36*
X363600Y176753D02*
X360147D01*
Y173300D01*
X363600D01*
Y176753D01*
D02*
G37*
G36*
X71253Y176253D02*
X67800D01*
Y172800D01*
X71253D01*
Y176253D01*
D02*
G37*
G36*
X66800D02*
X63347D01*
Y172800D01*
X66800D01*
Y176253D01*
D02*
G37*
G36*
X245322Y168500D02*
X243247D01*
Y166425D01*
X245322D01*
Y168500D01*
D02*
G37*
G36*
X374600Y166721D02*
Y163300D01*
X378021D01*
X377951Y163832D01*
X377553Y164793D01*
X376919Y165619D01*
X376093Y166253D01*
X375132Y166651D01*
X374600Y166721D01*
D02*
G37*
G36*
X373600D02*
X373068Y166651D01*
X372107Y166253D01*
X371281Y165619D01*
X370647Y164793D01*
X370249Y163832D01*
X370179Y163300D01*
X373600D01*
Y166721D01*
D02*
G37*
G36*
X250872Y177319D02*
X246528D01*
Y173369D01*
X247782D01*
Y170975D01*
X246678D01*
Y167025D01*
X247735D01*
Y164526D01*
X247481Y164146D01*
X247373Y163600D01*
X247481Y163054D01*
X247791Y162591D01*
X248254Y162281D01*
X248800Y162173D01*
X249346Y162281D01*
X249809Y162591D01*
X250119Y163054D01*
X250227Y163600D01*
X250119Y164146D01*
X249809Y164609D01*
X249570Y164769D01*
Y167025D01*
X250628D01*
Y170975D01*
X249618D01*
Y173369D01*
X250872D01*
Y174426D01*
X253925D01*
Y173268D01*
X254782D01*
Y171271D01*
X254691Y171209D01*
X254381Y170746D01*
X254273Y170200D01*
X254381Y169654D01*
X254691Y169191D01*
X255154Y168881D01*
X255700Y168773D01*
X256246Y168881D01*
X256709Y169191D01*
X257019Y169654D01*
X257127Y170200D01*
X257019Y170746D01*
X256709Y171209D01*
X256618Y171271D01*
Y173268D01*
X257875D01*
Y176824D01*
X253925D01*
Y176262D01*
X250872D01*
Y177319D01*
D02*
G37*
G36*
X71253Y171800D02*
X67800D01*
Y168347D01*
X71253D01*
Y171800D01*
D02*
G37*
G36*
X66800D02*
X63347D01*
Y168347D01*
X66800D01*
Y171800D01*
D02*
G37*
G36*
X292300Y221753D02*
X290225D01*
Y219678D01*
X292300D01*
Y221753D01*
D02*
G37*
G36*
X190472Y219344D02*
X188200D01*
Y217269D01*
X190472D01*
Y219344D01*
D02*
G37*
G36*
X295375Y221753D02*
X293300D01*
Y219678D01*
X295375D01*
Y221753D01*
D02*
G37*
G36*
X320728Y223875D02*
X316778D01*
Y219925D01*
X320728D01*
Y220982D01*
X323544D01*
X323871Y220764D01*
X324300Y220678D01*
X324729Y220764D01*
X325093Y221007D01*
X325336Y221371D01*
X325422Y221800D01*
X325336Y222229D01*
X325093Y222593D01*
X324729Y222836D01*
X324300Y222921D01*
X323871Y222836D01*
X323843Y222818D01*
X320728D01*
Y223875D01*
D02*
G37*
G36*
X190472Y222419D02*
X188200D01*
Y220344D01*
X190472D01*
Y222419D01*
D02*
G37*
G36*
X262575Y217822D02*
X260500D01*
Y215747D01*
X262575D01*
Y217822D01*
D02*
G37*
G36*
X231875Y217122D02*
X229800D01*
Y215047D01*
X231875D01*
Y217122D01*
D02*
G37*
G36*
X228800D02*
X226725D01*
Y215047D01*
X228800D01*
Y217122D01*
D02*
G37*
G36*
X268300Y217422D02*
X266225D01*
Y215347D01*
X268300D01*
Y217422D01*
D02*
G37*
G36*
X259500Y217822D02*
X257425D01*
Y215747D01*
X259500D01*
Y217822D01*
D02*
G37*
G36*
X271375Y217422D02*
X269300D01*
Y215347D01*
X271375D01*
Y217422D01*
D02*
G37*
G36*
X187200Y222419D02*
X184928D01*
Y220762D01*
X182781D01*
X182500Y220818D01*
X182149Y220748D01*
X181851Y220549D01*
X181652Y220251D01*
X181582Y219900D01*
X181652Y219549D01*
X181851Y219251D01*
X181907Y219195D01*
X182205Y218996D01*
X182263Y218985D01*
X182556Y218927D01*
X184928D01*
Y217269D01*
X187200D01*
Y219844D01*
Y222419D01*
D02*
G37*
G36*
X256291Y229721D02*
X251358D01*
Y226581D01*
X250758D01*
Y225318D01*
X249400D01*
X249049Y225248D01*
X248751Y225049D01*
X248552Y224751D01*
X248482Y224400D01*
X248552Y224049D01*
X248751Y223751D01*
X249049Y223552D01*
X249400Y223482D01*
X250758D01*
Y222219D01*
X251358D01*
Y219079D01*
X256291D01*
Y220486D01*
X258025D01*
Y219178D01*
X261975D01*
Y220486D01*
X262954D01*
X263007Y220407D01*
X263371Y220164D01*
X263800Y220078D01*
X263951Y220109D01*
X263974Y220093D01*
X264247Y220039D01*
X266825D01*
Y218778D01*
X270775D01*
Y219580D01*
X272369D01*
Y218428D01*
X276319D01*
Y222772D01*
X272369D01*
Y221620D01*
X270775D01*
Y222728D01*
X266825D01*
Y221466D01*
X264869D01*
X264836Y221629D01*
X264593Y221993D01*
X264229Y222236D01*
X263800Y222322D01*
X263371Y222236D01*
X263007Y221993D01*
X262954Y221914D01*
X261975D01*
Y223128D01*
X258025D01*
Y221914D01*
X257265D01*
X256891Y222219D01*
Y223900D01*
X253824D01*
Y224900D01*
X256891D01*
Y226581D01*
X256291D01*
Y227426D01*
X263960D01*
X264107Y227207D01*
X264471Y226964D01*
X264900Y226878D01*
X265329Y226964D01*
X265693Y227207D01*
X265936Y227571D01*
X266021Y228000D01*
X265936Y228429D01*
X265693Y228793D01*
X265329Y229036D01*
X264900Y229121D01*
X264471Y229036D01*
X264198Y228854D01*
X256291D01*
Y229721D01*
D02*
G37*
G36*
X239875Y230622D02*
X235925D01*
Y226672D01*
X239875D01*
Y227426D01*
X241909D01*
Y226559D01*
X246843D01*
Y229721D01*
X241909D01*
Y228854D01*
X239875D01*
Y230622D01*
D02*
G37*
G36*
X139300Y229419D02*
X137225D01*
Y227443D01*
X139300D01*
Y229419D01*
D02*
G37*
G36*
X124400Y230519D02*
X122325D01*
Y228542D01*
X124400D01*
Y230519D01*
D02*
G37*
G36*
X142375Y229419D02*
X140300D01*
Y227443D01*
X142375D01*
Y229419D01*
D02*
G37*
G36*
X200300Y231918D02*
X199949Y231848D01*
X199651Y231649D01*
X199452Y231351D01*
X199382Y231000D01*
Y227791D01*
X198119D01*
Y227191D01*
X194979D01*
Y225540D01*
X189872D01*
Y227331D01*
X185528D01*
Y223381D01*
X189872D01*
Y223909D01*
X194979D01*
Y222257D01*
X198119D01*
Y221657D01*
X199800D01*
Y224724D01*
X200800D01*
Y221657D01*
X202481D01*
Y222257D01*
X204133D01*
X206643Y219748D01*
X206874Y219593D01*
X207147Y219539D01*
X207625D01*
Y218278D01*
X211575D01*
Y219539D01*
X215669D01*
Y217928D01*
X219619D01*
Y222272D01*
X215669D01*
Y220967D01*
X211575D01*
Y222228D01*
X207625D01*
Y221491D01*
X207125Y221284D01*
X205621Y222788D01*
Y227191D01*
X202481D01*
Y227791D01*
X201218D01*
Y231000D01*
X201148Y231351D01*
X200949Y231649D01*
X200651Y231848D01*
X200300Y231918D01*
D02*
G37*
G36*
X142375Y226443D02*
X137225D01*
Y224466D01*
X138882D01*
Y223280D01*
X138851Y223249D01*
X138652Y222951D01*
X138582Y222600D01*
X138652Y222249D01*
X138851Y221951D01*
X139149Y221752D01*
X139500Y221682D01*
X139851Y221752D01*
X140149Y221951D01*
X140449Y222251D01*
X140648Y222549D01*
X140659Y222607D01*
X140718Y222900D01*
Y224466D01*
X142375D01*
Y226443D01*
D02*
G37*
G36*
X231275Y222428D02*
X227325D01*
Y220814D01*
X225131D01*
Y222272D01*
X221181D01*
Y217928D01*
X225131D01*
Y219386D01*
X227325D01*
Y218478D01*
X231275D01*
Y219386D01*
X233825D01*
Y218378D01*
X237775D01*
Y219386D01*
X241909D01*
Y219079D01*
X246843D01*
Y222241D01*
X241909D01*
Y220814D01*
X237775D01*
Y222328D01*
X233825D01*
Y220814D01*
X231275D01*
Y222428D01*
D02*
G37*
G36*
X127475Y227542D02*
X122325D01*
Y225566D01*
X123982D01*
Y222800D01*
X124052Y222449D01*
X124251Y222151D01*
X124549Y221952D01*
X124900Y221882D01*
X125251Y221952D01*
X125549Y222151D01*
X125748Y222449D01*
X125818Y222800D01*
Y225566D01*
X127475D01*
Y227542D01*
D02*
G37*
G36*
X158884Y229132D02*
X154916D01*
Y227450D01*
X155982D01*
Y224200D01*
X156052Y223849D01*
X156251Y223551D01*
X156351Y223451D01*
X156649Y223252D01*
X157000Y223182D01*
X157351Y223252D01*
X157649Y223451D01*
X157848Y223749D01*
X157918Y224100D01*
X157848Y224451D01*
X157818Y224496D01*
Y227450D01*
X158884D01*
Y229132D01*
D02*
G37*
G36*
X292800Y227618D02*
X292449Y227548D01*
X292151Y227349D01*
X291952Y227051D01*
X291882Y226700D01*
Y224828D01*
X290225D01*
Y222753D01*
X295375D01*
Y224828D01*
X293718D01*
Y226700D01*
X293648Y227051D01*
X293449Y227349D01*
X293151Y227548D01*
X292800Y227618D01*
D02*
G37*
G36*
X126928Y211075D02*
X124853D01*
Y208500D01*
X124353D01*
Y208000D01*
X121778D01*
Y207265D01*
X121316Y207073D01*
X120422Y207967D01*
Y210475D01*
X116472D01*
Y206525D01*
X118980D01*
X121026Y204479D01*
X121357Y204258D01*
X121747Y204180D01*
X122216D01*
Y203053D01*
X124984D01*
Y205821D01*
X125441Y205925D01*
X126928D01*
Y207582D01*
X129300D01*
X129300Y207582D01*
X129651Y207652D01*
X129949Y207851D01*
X130148Y208149D01*
X130218Y208500D01*
X130148Y208851D01*
X129949Y209149D01*
X129949Y209149D01*
X129651Y209348D01*
X129300Y209418D01*
X126928D01*
Y211075D01*
D02*
G37*
G36*
X123853D02*
X121778D01*
Y209000D01*
X123853D01*
Y211075D01*
D02*
G37*
G36*
X271375Y214347D02*
X266225D01*
Y212272D01*
X267882D01*
Y210996D01*
X267852Y210951D01*
X267782Y210600D01*
X267852Y210249D01*
X268051Y209951D01*
X268349Y209752D01*
X268700Y209682D01*
X269051Y209752D01*
X269349Y209951D01*
X269449Y210051D01*
X269648Y210349D01*
X269718Y210700D01*
Y212272D01*
X271375D01*
Y214347D01*
D02*
G37*
G36*
X281831Y222772D02*
X277881D01*
Y218428D01*
X279142D01*
Y214844D01*
X279197Y214571D01*
X279351Y214339D01*
X284325Y209366D01*
Y206078D01*
X288275D01*
Y207286D01*
X290825D01*
Y206078D01*
X294775D01*
Y207646D01*
X300809D01*
Y206779D01*
X305743D01*
Y209941D01*
X300809D01*
Y209073D01*
X294775D01*
Y210028D01*
X290825D01*
Y208714D01*
X288275D01*
Y210028D01*
X285682D01*
X280570Y215140D01*
Y218428D01*
X281831D01*
Y222772D01*
D02*
G37*
G36*
X262575Y214747D02*
X257425D01*
Y212672D01*
X259082D01*
Y210800D01*
X259152Y210449D01*
X259351Y210151D01*
X259649Y209952D01*
X260000Y209882D01*
X260351Y209952D01*
X260649Y210151D01*
X260848Y210449D01*
X260918Y210800D01*
Y212672D01*
X262575D01*
Y214747D01*
D02*
G37*
G36*
X109928Y211075D02*
X107853D01*
Y208500D01*
Y205925D01*
X109928D01*
Y207582D01*
X111400D01*
X111400Y207582D01*
X111751Y207652D01*
X112049Y207851D01*
X112248Y208149D01*
X112318Y208500D01*
X112248Y208851D01*
X112049Y209149D01*
X112049Y209149D01*
X111751Y209348D01*
X111400Y209418D01*
X109928D01*
Y211075D01*
D02*
G37*
G36*
X238375Y213947D02*
X233225D01*
Y211872D01*
X235282D01*
Y208600D01*
X235352Y208249D01*
X235551Y207951D01*
X235849Y207752D01*
X236200Y207682D01*
X236551Y207752D01*
X236849Y207951D01*
X237048Y208249D01*
X237118Y208600D01*
Y211872D01*
X238375D01*
Y213947D01*
D02*
G37*
G36*
X231875Y214047D02*
X226725D01*
Y211972D01*
X228082D01*
Y209500D01*
X228152Y209149D01*
X228351Y208851D01*
X228649Y208652D01*
X229000Y208582D01*
X229351Y208652D01*
X229649Y208851D01*
X229848Y209149D01*
X229918Y209500D01*
Y211972D01*
X231875D01*
Y214047D01*
D02*
G37*
G36*
X106853Y211075D02*
X104778D01*
Y209000D01*
X106853D01*
Y211075D01*
D02*
G37*
G36*
X212175Y213847D02*
X207025D01*
Y211772D01*
X208482D01*
Y209600D01*
X208552Y209249D01*
X208751Y208951D01*
X209049Y208752D01*
X209400Y208682D01*
X209751Y208752D01*
X210049Y208951D01*
X210248Y209249D01*
X210318Y209600D01*
Y211772D01*
X212175D01*
Y213847D01*
D02*
G37*
G36*
X209100Y216922D02*
X207025D01*
Y214847D01*
X209100D01*
Y216922D01*
D02*
G37*
G36*
X322100Y216728D02*
X320025D01*
Y214653D01*
X322100D01*
Y216728D01*
D02*
G37*
G36*
X212175Y216922D02*
X210100D01*
Y214847D01*
X212175D01*
Y216922D01*
D02*
G37*
G36*
X238375Y217022D02*
X236300D01*
Y214947D01*
X238375D01*
Y217022D01*
D02*
G37*
G36*
X235300D02*
X233225D01*
Y214947D01*
X235300D01*
Y217022D01*
D02*
G37*
G36*
X314822Y223875D02*
X310872D01*
Y219925D01*
X312011D01*
Y217421D01*
X310258D01*
Y214281D01*
X309658D01*
Y212600D01*
X312724D01*
Y211600D01*
X309658D01*
Y209919D01*
X310258D01*
Y206779D01*
X315191D01*
Y207330D01*
X320625D01*
Y206272D01*
X321682D01*
Y203643D01*
X321607Y203593D01*
X321364Y203229D01*
X321279Y202800D01*
X321364Y202371D01*
X321607Y202007D01*
X321971Y201764D01*
X322400Y201678D01*
X322829Y201764D01*
X323193Y202007D01*
X323436Y202371D01*
X323521Y202800D01*
X323500Y202910D01*
X323518Y203000D01*
Y206272D01*
X324575D01*
Y210222D01*
X320625D01*
Y209165D01*
X315191D01*
Y209919D01*
X315791D01*
Y211182D01*
X317004D01*
X317049Y211152D01*
X317400Y211082D01*
X317751Y211152D01*
X318049Y211351D01*
X318248Y211649D01*
X318318Y212000D01*
X318248Y212351D01*
X318049Y212649D01*
X317949Y212749D01*
X317651Y212948D01*
X317300Y213018D01*
X315791D01*
Y214281D01*
X315191D01*
Y217421D01*
X313438D01*
Y219925D01*
X314822D01*
Y223875D01*
D02*
G37*
G36*
X322100Y213653D02*
X320025D01*
Y211578D01*
X322100D01*
Y213653D01*
D02*
G37*
G36*
X325175Y216728D02*
X323100D01*
Y214153D01*
Y211578D01*
X325175D01*
Y213235D01*
X328753D01*
X329104Y213305D01*
X329402Y213504D01*
X329449Y213551D01*
X329648Y213849D01*
X329718Y214200D01*
X329648Y214551D01*
X329449Y214849D01*
X329151Y215048D01*
X328800Y215118D01*
X328562Y215070D01*
X325175D01*
Y216728D01*
D02*
G37*
G36*
X294775Y218322D02*
X290825D01*
Y214372D01*
X294775D01*
Y215126D01*
X300809D01*
Y214259D01*
X305743D01*
Y217421D01*
X300809D01*
Y216554D01*
X294775D01*
Y218322D01*
D02*
G37*
G36*
X198141Y217742D02*
X194979D01*
Y212809D01*
X198141D01*
Y217742D01*
D02*
G37*
%LPD*%
G36*
X202600Y87550D02*
X199000D01*
Y88700D01*
X202600D01*
Y87550D01*
D02*
G37*
G36*
Y84800D02*
X199000D01*
Y85800D01*
X202600D01*
Y84800D01*
D02*
G37*
G36*
X194300Y96000D02*
X190700D01*
Y97000D01*
X194300D01*
Y96000D01*
D02*
G37*
G36*
Y98600D02*
X190700D01*
Y99600D01*
X194300D01*
Y98600D01*
D02*
G37*
G36*
X206900Y51520D02*
X207946D01*
X208300Y51166D01*
X208300Y48731D01*
X206600D01*
Y46156D01*
X206100D01*
Y45656D01*
X203328D01*
Y44900D01*
X197228Y44900D01*
X196875Y45254D01*
Y46053D01*
X194300D01*
Y46553D01*
X193800D01*
Y49128D01*
X191900D01*
X191400Y49493D01*
Y51420D01*
X191800D01*
Y54585D01*
X192800D01*
Y51420D01*
X196646D01*
Y53600D01*
X202053D01*
Y51520D01*
X205900D01*
Y54685D01*
X206900D01*
Y51520D01*
D02*
G37*
%LPC*%
G36*
X196875Y49128D02*
X194800D01*
Y47053D01*
X196875D01*
Y49128D01*
D02*
G37*
G36*
X205600Y48731D02*
X203328D01*
Y46656D01*
X205600D01*
Y48731D01*
D02*
G37*
%LPD*%
D10*
X175745Y85716D02*
D03*
Y87684D02*
D03*
Y89653D02*
D03*
Y91621D02*
D03*
X143855Y73905D02*
D03*
Y75873D02*
D03*
Y77842D02*
D03*
Y79810D02*
D03*
Y81779D02*
D03*
Y83747D02*
D03*
Y85716D02*
D03*
Y87684D02*
D03*
Y89653D02*
D03*
Y91621D02*
D03*
Y93590D02*
D03*
Y95558D02*
D03*
Y97527D02*
D03*
Y99495D02*
D03*
X175745D02*
D03*
Y97527D02*
D03*
Y95558D02*
D03*
Y93590D02*
D03*
Y83747D02*
D03*
Y81779D02*
D03*
Y79810D02*
D03*
Y77842D02*
D03*
Y75873D02*
D03*
Y73905D02*
D03*
D11*
X169600Y121685D02*
D03*
Y132315D02*
D03*
X228100Y119485D02*
D03*
Y130115D02*
D03*
X182000Y119985D02*
D03*
Y130615D02*
D03*
X192300Y54585D02*
D03*
Y65215D02*
D03*
X206400Y65315D02*
D03*
Y54685D02*
D03*
X219300Y56215D02*
D03*
Y45585D02*
D03*
X228500Y56215D02*
D03*
Y45585D02*
D03*
X176100Y60015D02*
D03*
Y49385D02*
D03*
X183800Y59915D02*
D03*
Y49285D02*
D03*
X218700Y127215D02*
D03*
Y116585D02*
D03*
D12*
X363400Y266263D02*
D03*
Y270200D02*
D03*
X241900Y279637D02*
D03*
Y275700D02*
D03*
X123600Y200500D02*
D03*
Y204437D02*
D03*
X100500Y200500D02*
D03*
Y204437D02*
D03*
D13*
X358200Y275956D02*
D03*
Y270444D02*
D03*
X187700Y219844D02*
D03*
Y225356D02*
D03*
X248700Y180856D02*
D03*
Y175344D02*
D03*
X192100Y155056D02*
D03*
Y149544D02*
D03*
X206100Y40644D02*
D03*
Y46156D02*
D03*
D14*
X341056Y262900D02*
D03*
X335544D02*
D03*
X341056Y248200D02*
D03*
X335544D02*
D03*
X341056Y256400D02*
D03*
X335544D02*
D03*
X209056Y177800D02*
D03*
X203544D02*
D03*
X209156Y185000D02*
D03*
X203644D02*
D03*
X209056Y191000D02*
D03*
X203544D02*
D03*
X223156Y220100D02*
D03*
X217644D02*
D03*
X279856Y220600D02*
D03*
X274344D02*
D03*
X248056Y261100D02*
D03*
X242544D02*
D03*
X247056Y25200D02*
D03*
X241544D02*
D03*
D15*
X315337Y277000D02*
D03*
X311400D02*
D03*
X317300Y266800D02*
D03*
X313363D02*
D03*
X305900Y267300D02*
D03*
X301963D02*
D03*
X302000Y271200D02*
D03*
X305937D02*
D03*
X309300Y243700D02*
D03*
X305363D02*
D03*
D16*
X305760Y251576D02*
D03*
X309500D02*
D03*
X313240D02*
D03*
Y261024D02*
D03*
X305760D02*
D03*
D17*
X305753Y277000D02*
D03*
X299847D02*
D03*
X265347Y287500D02*
D03*
X271253D02*
D03*
X242247Y267900D02*
D03*
X248153D02*
D03*
X248653Y169000D02*
D03*
X242747D02*
D03*
X312847Y221900D02*
D03*
X318753D02*
D03*
X315547Y283800D02*
D03*
X321453D02*
D03*
X192053Y144100D02*
D03*
X186147D02*
D03*
X101447Y208500D02*
D03*
X107353D02*
D03*
X118447D02*
D03*
X124353D02*
D03*
D18*
X284600Y277653D02*
D03*
Y271747D02*
D03*
X265500Y260753D02*
D03*
Y254847D02*
D03*
X260000Y260853D02*
D03*
Y254947D02*
D03*
X237900Y228647D02*
D03*
Y234553D02*
D03*
X292800Y216347D02*
D03*
Y222253D02*
D03*
X260000Y221153D02*
D03*
Y215247D02*
D03*
X322600Y208247D02*
D03*
Y214153D02*
D03*
X209600Y220253D02*
D03*
Y214347D02*
D03*
X229300Y220453D02*
D03*
Y214547D02*
D03*
X235800Y220353D02*
D03*
Y214447D02*
D03*
X268800Y220753D02*
D03*
Y214847D02*
D03*
X292800Y208053D02*
D03*
Y202147D02*
D03*
X286300Y208053D02*
D03*
Y202147D02*
D03*
X194300Y46553D02*
D03*
Y40647D02*
D03*
X234700Y278553D02*
D03*
Y272647D02*
D03*
X358100Y262053D02*
D03*
Y256147D02*
D03*
X235800Y25553D02*
D03*
Y19647D02*
D03*
D19*
X265576Y271360D02*
D03*
Y278840D02*
D03*
X275024D02*
D03*
Y275100D02*
D03*
Y271360D02*
D03*
X244376Y220660D02*
D03*
Y228140D02*
D03*
X253824D02*
D03*
Y224400D02*
D03*
Y220660D02*
D03*
X303276Y208360D02*
D03*
Y215840D02*
D03*
X312724D02*
D03*
Y212100D02*
D03*
Y208360D02*
D03*
X335276Y271160D02*
D03*
Y278640D02*
D03*
X344724D02*
D03*
Y274900D02*
D03*
Y271160D02*
D03*
D20*
X204040Y215276D02*
D03*
X196560D02*
D03*
Y224724D02*
D03*
X200300D02*
D03*
X204040D02*
D03*
D21*
X255900Y175046D02*
D03*
Y180754D02*
D03*
X178400Y20954D02*
D03*
Y15246D02*
D03*
X168700Y55954D02*
D03*
Y50246D02*
D03*
X184200Y65546D02*
D03*
Y71254D02*
D03*
X156000Y115846D02*
D03*
Y121554D02*
D03*
X161700Y115746D02*
D03*
Y121454D02*
D03*
X202100Y144046D02*
D03*
Y149754D02*
D03*
D22*
X242346Y253400D02*
D03*
X248054D02*
D03*
X131954Y80700D02*
D03*
X126246D02*
D03*
X132154Y86900D02*
D03*
X126446D02*
D03*
X219754Y62200D02*
D03*
X214046D02*
D03*
X239054Y71700D02*
D03*
X233346D02*
D03*
X186554Y41200D02*
D03*
X180846D02*
D03*
X188346Y71200D02*
D03*
X194054D02*
D03*
X205354D02*
D03*
X199646D02*
D03*
X215754Y71400D02*
D03*
X210046D02*
D03*
X227946Y113700D02*
D03*
X233654D02*
D03*
X230554Y103200D02*
D03*
X224846D02*
D03*
X178446Y112500D02*
D03*
X184154D02*
D03*
X168046Y114000D02*
D03*
X173754D02*
D03*
D23*
X323667Y78400D02*
D03*
X319730D02*
D03*
X323667Y73500D02*
D03*
X319730D02*
D03*
X323667Y118500D02*
D03*
X319730D02*
D03*
X323667Y68700D02*
D03*
X319730D02*
D03*
X98544Y257300D02*
D03*
X102481D02*
D03*
X109932Y252500D02*
D03*
X113868D02*
D03*
X114456Y248000D02*
D03*
X110519D02*
D03*
X159031Y268300D02*
D03*
X162969D02*
D03*
X168832Y258200D02*
D03*
X172768D02*
D03*
X109569Y243900D02*
D03*
X105631D02*
D03*
X157231Y241300D02*
D03*
X161169D02*
D03*
X168931Y239100D02*
D03*
X172869D02*
D03*
X114456Y228100D02*
D03*
X110519D02*
D03*
X285432Y70800D02*
D03*
X289369D02*
D03*
X285432Y75400D02*
D03*
X289369D02*
D03*
X319730Y113367D02*
D03*
X323667D02*
D03*
X108268Y149395D02*
D03*
X104332D02*
D03*
X104332Y90300D02*
D03*
X108268D02*
D03*
X319730Y82900D02*
D03*
X323667D02*
D03*
X319730Y108233D02*
D03*
X323667D02*
D03*
X104332Y96210D02*
D03*
X108268D02*
D03*
X319730Y103100D02*
D03*
X323667D02*
D03*
X108268Y143485D02*
D03*
X104332D02*
D03*
X104332Y102119D02*
D03*
X108268D02*
D03*
X319730Y97967D02*
D03*
X323667D02*
D03*
X108268Y137576D02*
D03*
X104332D02*
D03*
X104332Y108028D02*
D03*
X108268D02*
D03*
X108268Y131666D02*
D03*
X104332D02*
D03*
X108268Y125757D02*
D03*
X104332D02*
D03*
X319730Y92833D02*
D03*
X323667D02*
D03*
X319730Y87700D02*
D03*
X323667D02*
D03*
X108268Y119847D02*
D03*
X104332D02*
D03*
X108268Y113938D02*
D03*
X104332D02*
D03*
X166569Y191600D02*
D03*
X162631D02*
D03*
X166668Y186700D02*
D03*
X162732D02*
D03*
X166469Y181900D02*
D03*
X162531D02*
D03*
D24*
X156900Y233569D02*
D03*
Y229631D02*
D03*
X117400Y261069D02*
D03*
Y257132D02*
D03*
X241600Y64768D02*
D03*
Y60831D02*
D03*
D25*
X159800Y86700D02*
D03*
D26*
X172595Y70755D02*
D03*
X170627D02*
D03*
X168658D02*
D03*
X166690D02*
D03*
X164721D02*
D03*
X162753D02*
D03*
X160784D02*
D03*
X158816D02*
D03*
X156847D02*
D03*
X154879D02*
D03*
X152910D02*
D03*
X150942D02*
D03*
X148973D02*
D03*
X147005D02*
D03*
Y102645D02*
D03*
X148973D02*
D03*
X150942D02*
D03*
X152910D02*
D03*
X154879D02*
D03*
X156847D02*
D03*
X158816D02*
D03*
X160784D02*
D03*
X162753D02*
D03*
X164721D02*
D03*
X166690D02*
D03*
X168658D02*
D03*
X170627D02*
D03*
X172595D02*
D03*
D27*
X98400Y265870D02*
D03*
Y262130D02*
D03*
X103100Y265970D02*
D03*
Y262230D02*
D03*
X145900Y229730D02*
D03*
Y233470D02*
D03*
D28*
X114458Y233346D02*
D03*
X109930D02*
D03*
Y239054D02*
D03*
X114458D02*
D03*
D29*
X150609Y246739D02*
D03*
Y248313D02*
D03*
Y249888D02*
D03*
Y251463D02*
D03*
Y253038D02*
D03*
Y254613D02*
D03*
Y256187D02*
D03*
Y257762D02*
D03*
Y259337D02*
D03*
Y260912D02*
D03*
Y262487D02*
D03*
Y264061D02*
D03*
X126791D02*
D03*
Y262487D02*
D03*
Y260912D02*
D03*
Y259337D02*
D03*
Y257762D02*
D03*
Y256187D02*
D03*
Y254613D02*
D03*
Y253038D02*
D03*
Y251463D02*
D03*
Y249888D02*
D03*
Y248313D02*
D03*
Y246739D02*
D03*
D30*
X147361Y267309D02*
D03*
X145787D02*
D03*
X144212D02*
D03*
X142637D02*
D03*
X141062D02*
D03*
X139487D02*
D03*
X137913D02*
D03*
X136338D02*
D03*
X134763D02*
D03*
X133188D02*
D03*
X131613D02*
D03*
X130039D02*
D03*
Y243491D02*
D03*
X131613D02*
D03*
X133188D02*
D03*
X134763D02*
D03*
X136338D02*
D03*
X137913D02*
D03*
X139487D02*
D03*
X141062D02*
D03*
X142637D02*
D03*
X144212D02*
D03*
X145787D02*
D03*
X147361D02*
D03*
D31*
X138700Y255400D02*
D03*
D32*
X107830Y257100D02*
D03*
X111570D02*
D03*
D33*
X151239Y227647D02*
D03*
Y233553D02*
D03*
X192500Y94847D02*
D03*
Y100753D02*
D03*
X200800Y89853D02*
D03*
Y83947D02*
D03*
D34*
X124900Y228043D02*
D03*
Y233358D02*
D03*
X139800Y232258D02*
D03*
Y226942D02*
D03*
D35*
X82200Y285220D02*
D03*
Y265141D02*
D03*
D36*
X161294Y58172D02*
D03*
X160506Y54628D02*
D03*
D37*
X163754Y56400D02*
D03*
X158046D02*
D03*
D38*
X295694Y161600D02*
D03*
X307505D02*
D03*
D39*
X176700Y91500D02*
X182137D01*
X176579Y91621D02*
X176700Y91500D01*
X175745Y91621D02*
X176579D01*
X177100Y89900D02*
X182800D01*
X176853Y89653D02*
X177100Y89900D01*
X175745Y89653D02*
X176853D01*
X175929Y85900D02*
X204763D01*
X175745Y85716D02*
X175929Y85900D01*
X177000Y87500D02*
X204100D01*
X176816Y87684D02*
X177000Y87500D01*
X175745Y87684D02*
X176816D01*
X195750Y96975D02*
X196100Y96625D01*
X189875Y96975D02*
X195750D01*
X189212Y98575D02*
X196100D01*
X182137Y91500D02*
X189212Y98575D01*
X182800Y89900D02*
X189875Y96975D01*
X210250Y91900D02*
X210400Y92050D01*
X208500Y91900D02*
X210250D01*
Y90300D02*
X210400Y90150D01*
X209163Y90300D02*
X210250D01*
X204763Y85900D02*
X209163Y90300D01*
X204100Y87500D02*
X208500Y91900D01*
X319567Y92833D02*
X320431D01*
X305900Y106500D02*
X319567Y92833D01*
X245500Y106500D02*
X305900D01*
X319167Y108233D02*
X320431D01*
X316500Y110900D02*
X319167Y108233D01*
X241900Y110900D02*
X316500D01*
X319100Y103100D02*
X320431D01*
X313000Y109200D02*
X319100Y103100D01*
X242800Y109200D02*
X313000D01*
X319233Y97967D02*
X320431D01*
X309300Y107900D02*
X319233Y97967D01*
X244200Y107900D02*
X309300D01*
X319200Y87700D02*
X320431D01*
X303600Y103300D02*
X319200Y87700D01*
X252500Y103300D02*
X303600D01*
X304222Y98400D02*
X319722Y82900D01*
X257400Y98400D02*
X304222D01*
X319200Y73500D02*
X320232D01*
X300700Y92000D02*
X319200Y73500D01*
X254300Y92000D02*
X300700D01*
X319500Y78400D02*
X320632D01*
X301100Y96800D02*
X319500Y78400D01*
X258600Y96800D02*
X301100D01*
X110669Y92700D02*
X135400D01*
X108268Y90300D02*
X110669Y92700D01*
X139710Y79810D02*
X143855D01*
X136500Y76600D02*
X139710Y79810D01*
X136500Y70200D02*
Y76600D01*
X226200Y58300D02*
Y61500D01*
X169300Y56600D02*
X171100Y58400D01*
X175353D01*
X221700Y114647D02*
Y115500D01*
X323700Y118400D02*
X325300Y120000D01*
X317965Y112200D02*
X319131Y113367D01*
X240800Y112200D02*
X317965D01*
X236900Y108300D02*
X240800Y112200D01*
X317600Y117800D02*
X319100D01*
X279856Y214844D02*
Y220600D01*
Y214844D02*
X286700Y208000D01*
X141000Y54000D02*
X154879Y67879D01*
X117200Y54000D02*
X141000D01*
X156847Y67547D02*
Y70755D01*
X141200Y51900D02*
X156847Y67547D01*
X119100Y51900D02*
X141200D01*
X154879Y67879D02*
Y70755D01*
X150942Y67742D02*
Y70755D01*
X256200Y71400D02*
X256800Y70800D01*
X285432D01*
X284432Y76400D02*
X285432Y75400D01*
X255900Y76400D02*
X284432D01*
X139742Y77842D02*
X143855D01*
X138100Y76200D02*
X139742Y77842D01*
X138100Y68200D02*
Y76200D01*
X136700Y66800D02*
X138100Y68200D01*
X133400Y67100D02*
X136500Y70200D01*
X143808Y89700D02*
X143855Y89653D01*
X138100Y89700D02*
X143808D01*
X345500Y58400D02*
X368500D01*
X330400Y73500D02*
X345500Y58400D01*
X324168Y73500D02*
X330400D01*
X346468Y47000D02*
X369900D01*
X324768Y68700D02*
X346468Y47000D01*
X369900D02*
X374100Y42800D01*
X368500Y68400D02*
X374100Y62800D01*
X349500Y68400D02*
X368500D01*
X339500Y78400D02*
X349500Y68400D01*
X324569Y78400D02*
X339500D01*
X368500Y58400D02*
X374100Y52800D01*
X369300Y77600D02*
X374100Y72800D01*
X356600Y77600D02*
X369300D01*
X351300Y82900D02*
X356600Y77600D01*
X324669Y82900D02*
X351300D01*
X316300Y68700D02*
X319730D01*
X269461Y88200D02*
X296800D01*
X267661Y90000D02*
X269461Y88200D01*
X254100Y90000D02*
X267661D01*
X313300Y113500D02*
X317600Y117800D01*
X239700Y113500D02*
X313300D01*
X369000Y87700D02*
X374100Y92800D01*
X324369Y87700D02*
X369000D01*
X369700Y98400D02*
X374100Y102800D01*
X348200Y98400D02*
X369700D01*
X342633Y92833D02*
X348200Y98400D01*
X324369Y92833D02*
X342633D01*
X370300Y119000D02*
X374100Y122800D01*
X358500Y119000D02*
X370300D01*
X337467Y97967D02*
X358500Y119000D01*
X324369Y97967D02*
X337467D01*
X369100Y127800D02*
X374100Y132800D01*
X357500Y127800D02*
X369100D01*
X332800Y103100D02*
X357500Y127800D01*
X324369Y103100D02*
X332800D01*
X369700Y138400D02*
X374100Y142800D01*
X358600Y138400D02*
X369700D01*
X328433Y108233D02*
X358600Y138400D01*
X324369Y108233D02*
X328433D01*
X369200Y147900D02*
X374100Y152800D01*
X369400Y168100D02*
X374100Y172800D01*
X362000Y168100D02*
X369400D01*
X241200Y110200D02*
X241900Y110900D01*
X236900Y106800D02*
Y108300D01*
X234800Y108600D02*
X239700Y113500D01*
X234800Y107100D02*
Y108600D01*
X159462Y257762D02*
X159500Y257800D01*
X150609Y257762D02*
X159462D01*
X158013Y256187D02*
X158100Y256100D01*
X150609Y256187D02*
X158013D01*
X150609Y254613D02*
X156787D01*
X155138Y253038D02*
X155400Y253300D01*
X150609Y253038D02*
X155138D01*
X150609Y251463D02*
X155637D01*
X118900Y52100D02*
X119100Y51900D01*
X149672Y280800D02*
X176600D01*
X139487Y270616D02*
X149672Y280800D01*
X139487Y267309D02*
Y270616D01*
X176600Y280800D02*
X177600Y279800D01*
X149986Y279700D02*
X175100D01*
X175300Y279500D01*
X141062Y270776D02*
X149986Y279700D01*
X141062Y267309D02*
Y270776D01*
X172200Y277900D02*
X172700Y278400D01*
X149600Y277900D02*
X172200D01*
X142637Y270937D02*
X149600Y277900D01*
X142637Y267309D02*
Y270937D01*
X144212Y270112D02*
X150300Y276200D01*
X170900D01*
X151200Y274900D02*
X168200D01*
X145787Y269487D02*
X151200Y274900D01*
X144212Y267309D02*
Y270112D01*
X145787Y267309D02*
Y269487D01*
X178446Y117693D02*
X179400Y118647D01*
X178446Y112500D02*
Y117693D01*
X176846Y110900D02*
X178446Y112500D01*
X175900Y110900D02*
X176846D01*
X170627Y105627D02*
X175900Y110900D01*
X170627Y102645D02*
Y105627D01*
X166690Y112644D02*
X168046Y114000D01*
X166690Y102645D02*
Y112644D01*
X168046Y114000D02*
X168100Y114054D01*
Y121300D01*
X220100Y56053D02*
Y66400D01*
X219900Y55853D02*
X220100Y56053D01*
X227200Y109200D02*
X228300Y110300D01*
Y117647D01*
X223100Y108100D02*
Y113247D01*
X221700Y114647D02*
X223100Y113247D01*
X223156Y220100D02*
X243816D01*
X244376Y220660D01*
X217491Y220253D02*
X217644Y220100D01*
X209600Y220253D02*
X217491D01*
X238407Y228140D02*
X244376D01*
X254365Y221200D02*
X263800D01*
X264247Y220753D01*
X268800D01*
X253824Y220660D02*
X254365Y221200D01*
X264760Y228140D02*
X264900Y228000D01*
X253824Y228140D02*
X264760D01*
X292800Y208360D02*
X303276D01*
X286700Y208000D02*
X292747D01*
X292800Y208053D01*
X293307Y215840D02*
X303276D01*
X312724D02*
Y221777D01*
X814172Y535997D02*
X814969Y535200D01*
X204040Y223360D02*
Y224724D01*
Y223360D02*
X207147Y220253D01*
X209600D01*
X150609Y260912D02*
X174612D01*
X176300Y262600D01*
X184100D01*
X168800Y193900D02*
Y194900D01*
X166569Y191668D02*
X168800Y193900D01*
X166569Y191600D02*
Y191668D01*
X166668Y186700D02*
X171600D01*
X171600Y186700D02*
X171600Y186700D01*
X166469Y181900D02*
X173600D01*
X173600Y181900D01*
X296800Y88200D02*
X316300Y68700D01*
X324369Y113367D02*
X327867D01*
X362400Y147900D01*
X369200D01*
X150609Y262487D02*
X173987D01*
X175900Y264400D01*
X180900D01*
X150609Y264061D02*
X173361D01*
X175400Y266100D01*
X178300D01*
X325300Y120000D02*
Y131400D01*
X362000Y168100D01*
X241600Y64768D02*
X256269D01*
X259800Y68400D02*
X259900D01*
X256269Y64768D02*
X259900Y68400D01*
X115567Y149395D02*
X152162Y112800D01*
X108268Y149395D02*
X115567D01*
X118315Y143485D02*
X150300Y111500D01*
X108268Y143485D02*
X118315D01*
X120124Y137576D02*
X147400Y110300D01*
X108268Y137576D02*
X120124D01*
X123134Y131666D02*
X145700Y109100D01*
X108268Y131666D02*
X123134D01*
X108268Y125757D02*
X126443D01*
X144300Y107900D01*
X129953Y119847D02*
X143100Y106700D01*
X108268Y119847D02*
X129953D01*
X108268Y113938D02*
X114162D01*
X143100Y106700D02*
X147000D01*
X148973Y104727D01*
Y102645D02*
Y104727D01*
X144300Y107900D02*
X148400D01*
X150942Y105358D01*
Y102645D02*
Y105358D01*
X145700Y109100D02*
X149900D01*
X152910Y106090D01*
Y102645D02*
Y106090D01*
X147400Y110300D02*
X151800D01*
X154879Y107221D01*
Y102645D02*
Y107221D01*
X150300Y111500D02*
X153300D01*
X156847Y107953D01*
Y102645D02*
Y107953D01*
X152162Y112800D02*
X154600D01*
X158816Y108584D01*
Y102645D02*
Y108584D01*
X108268Y108028D02*
X111972D01*
X99600Y91478D02*
X104332Y96210D01*
X99600Y62900D02*
Y91478D01*
X89000Y52300D02*
X99600Y62900D01*
X77300Y52300D02*
X89000D01*
X77300Y62300D02*
X93000Y78000D01*
Y90788D01*
X104332Y102119D01*
X89100Y92797D02*
X104332Y108028D01*
X89100Y84100D02*
Y92797D01*
X77300Y72300D02*
X89100Y84100D01*
X77300Y92300D02*
X82694D01*
X104332Y113938D01*
X77300Y102300D02*
X86784D01*
X104332Y119847D01*
X77300Y122300D02*
X100875D01*
X104332Y125757D01*
X77300Y132300D02*
X103698D01*
X104332Y131666D01*
X77300Y142300D02*
X99607D01*
X104332Y137576D01*
X77300Y152300D02*
X92700D01*
X101515Y143485D01*
X104332D01*
X77300Y172300D02*
X81426D01*
X104332Y149395D01*
X104332Y58232D02*
Y90300D01*
X77300Y42300D02*
X88400D01*
X104332Y58232D01*
X139942Y95558D02*
X143855D01*
X114162Y113938D02*
X122700Y105400D01*
X145600D01*
X147005Y103995D01*
Y102645D02*
Y103995D01*
X111972Y108028D02*
X116000Y104000D01*
X131500D01*
X139942Y95558D01*
X139879Y91621D02*
X143855D01*
X138100Y89700D02*
Y90000D01*
X135400Y92700D02*
X138100Y90000D01*
X108268Y96210D02*
X108959Y96900D01*
X134600D01*
X139879Y91621D01*
X108268Y102119D02*
X131281D01*
X139810Y93590D01*
X143855D01*
X123400Y62000D02*
X142618D01*
X148973Y68355D01*
Y70755D01*
X125500Y56200D02*
X141400D01*
X152910Y67710D01*
Y70755D01*
X115500Y58900D02*
X142100D01*
X150942Y67742D01*
X255100Y96100D02*
X257400Y98400D01*
X255500Y93700D02*
X258600Y96800D01*
X226000Y54500D02*
X227300D01*
D40*
X163800Y57900D02*
X164754Y58854D01*
X168800Y50400D02*
X170700Y48500D01*
X218400Y106700D02*
X221900Y103200D01*
X224846D01*
X230400Y107500D02*
X230554Y107346D01*
Y103200D02*
Y107346D01*
X233654Y113700D02*
X234200Y114246D01*
Y120200D01*
X175000Y107100D02*
X177000D01*
X172595Y104695D02*
X175000Y107100D01*
X172595Y102645D02*
Y104695D01*
X173700Y118100D02*
X173754Y118046D01*
Y114000D02*
Y118046D01*
X235169Y60831D02*
X241600D01*
X232900Y63100D02*
X235169Y60831D01*
X239054Y75032D02*
X240396Y76373D01*
X239054Y71700D02*
Y75032D01*
X134300Y76800D02*
X134700D01*
X180300Y97714D02*
Y106900D01*
X178145Y95558D02*
X180300Y97714D01*
X175745Y95558D02*
X178145D01*
X235800Y15300D02*
Y19647D01*
Y15300D02*
X235900D01*
X170500Y45600D02*
X170700Y45800D01*
Y48500D01*
X194300Y36200D02*
Y40647D01*
X161700Y121454D02*
Y126100D01*
X155900Y126000D02*
X156000Y125900D01*
Y121554D02*
Y125900D01*
X184154Y112500D02*
X188100D01*
X168658Y107858D02*
X168700Y107900D01*
X168658Y102645D02*
Y107858D01*
X164721Y102645D02*
Y107979D01*
X164779D01*
X161700Y115746D02*
X165246D01*
X165300Y115800D01*
X162753Y102645D02*
Y114693D01*
X120600Y80700D02*
X126246D01*
X120200Y86200D02*
X120200Y86200D01*
X126291D01*
X132939Y87684D02*
X143855D01*
X132000Y90300D02*
X132000Y90300D01*
X132000Y86200D02*
Y90300D01*
X168658Y64642D02*
Y70755D01*
Y64642D02*
X171200Y62100D01*
X215700Y67300D02*
X215754Y67354D01*
Y71400D01*
X159100Y50800D02*
X160506Y52206D01*
Y54628D01*
X164721Y70755D02*
X164754Y70722D01*
Y58854D02*
Y70722D01*
X235900Y169100D02*
X236000Y169000D01*
X242747D01*
X248653Y163747D02*
X248800Y163600D01*
X248653Y163747D02*
Y169000D01*
X248700Y169047D01*
Y175344D01*
X186100Y148500D02*
X186147Y148453D01*
Y144100D02*
Y148453D01*
X284600Y271747D02*
X293853D01*
X305937Y277000D02*
X311400D01*
X305900Y267300D02*
Y276853D01*
X305937Y277000D02*
Y281063D01*
Y271200D02*
Y277000D01*
X305700Y281300D02*
X305937Y281063D01*
X298600Y271100D02*
X298700Y271200D01*
X302000D01*
X236200Y208600D02*
Y214347D01*
X229000Y209500D02*
Y214647D01*
X209400Y209600D02*
Y214447D01*
X237800Y239200D02*
X237900Y239100D01*
Y234553D02*
Y239100D01*
X286200Y196600D02*
X286300Y196700D01*
Y202147D01*
X292800Y197500D02*
Y202147D01*
Y222253D02*
Y226700D01*
X324200Y221900D02*
X324300Y221800D01*
X318753Y221900D02*
X324200D01*
X328753Y214153D02*
X328800Y214200D01*
X322600Y214153D02*
X328753D01*
X317300Y212100D02*
X317400Y212000D01*
X312724Y212100D02*
X317300D01*
X312837Y208247D02*
X322600D01*
X98400Y265870D02*
Y270700D01*
X156900Y224200D02*
X157000Y224100D01*
X156900Y224200D02*
Y229631D01*
X167400Y268300D02*
X167500Y268400D01*
X162969Y268300D02*
X167400D01*
X159000Y272800D02*
X159031Y272768D01*
Y268300D02*
Y272768D01*
X161169Y237931D02*
Y241300D01*
X161100Y238000D02*
X161169Y237931D01*
X172968Y258000D02*
X177900D01*
X172768Y258200D02*
X172968Y258000D01*
X172869Y239100D02*
X177100D01*
X160169Y233569D02*
X160337Y233400D01*
X156900Y233569D02*
X160169D01*
X124900Y222800D02*
Y228043D01*
X139500Y222600D02*
X139800Y222900D01*
Y226942D01*
X105700Y252300D02*
X110520D01*
X105700Y248000D02*
X110519D01*
X117400Y260368D02*
Y264200D01*
X104830Y267700D02*
X105800D01*
X103100Y265970D02*
X104830Y267700D01*
X101900Y243900D02*
X105631D01*
X106100Y228100D02*
X110519D01*
X106200Y233400D02*
X106254Y233346D01*
X109930D01*
X116903Y241500D02*
X118100D01*
X114458Y239054D02*
X116903Y241500D01*
X344724Y274900D02*
X350000D01*
X350200Y274700D01*
X358200Y275956D02*
Y281300D01*
X358200Y281300D02*
X358200Y281300D01*
X353147Y256147D02*
X358100D01*
X352600Y255600D02*
X353147Y256147D01*
X341056Y248200D02*
X341456Y247800D01*
X346100D01*
X341056Y256400D02*
X346800D01*
X341056Y248200D02*
Y262900D01*
X309300Y243700D02*
X312700D01*
X309500Y251576D02*
Y255900D01*
X313240Y261024D02*
Y266677D01*
X317300Y266800D02*
X320900D01*
X305900Y261165D02*
Y267300D01*
X305760Y261024D02*
X305900Y261165D01*
X305753Y277000D02*
X305900Y276853D01*
X315337Y277000D02*
Y283316D01*
X315053Y283600D02*
X315337Y283316D01*
X321453Y283800D02*
Y287647D01*
X321200Y287900D02*
X321453Y287647D01*
X299847Y281453D02*
X299900Y281400D01*
X299847Y277000D02*
Y281453D01*
X293853Y271747D02*
X293900Y271700D01*
X275024Y271360D02*
X284213D01*
X284600Y271747D01*
X270300Y275100D02*
X275024D01*
X283413Y278840D02*
X284600Y277653D01*
X275024Y278840D02*
X283413D01*
X276400Y287400D02*
Y287500D01*
X271253D02*
X276400D01*
X265347Y279068D02*
Y287500D01*
Y279068D02*
X265576Y278840D01*
Y260828D02*
Y271360D01*
X265500Y260753D02*
X265576Y260828D01*
X260100Y260753D02*
X265500D01*
X260000Y260853D02*
X260100Y260753D01*
X255947Y254847D02*
X265500D01*
X255900Y254800D02*
X255947Y254847D01*
X265500Y260753D02*
X265891D01*
X248153Y267900D02*
Y272253D01*
X248300Y272400D01*
X248056Y261100D02*
X259753D01*
X260000Y260853D01*
X230647Y273847D02*
X234700D01*
X230600Y273800D02*
X230647Y273847D01*
X200300Y224724D02*
Y231000D01*
X182556Y219844D02*
X187700D01*
X182500Y219900D02*
X182556Y219844D01*
X209056Y191000D02*
X215900D01*
X215900Y191000D01*
X209156Y185000D02*
X216000D01*
X216100Y185100D01*
X209056Y177800D02*
X215800D01*
X216000Y178000D01*
X322600Y203000D02*
Y208247D01*
X322400Y202800D02*
X322600Y203000D01*
X268800Y210700D02*
Y214847D01*
X268700Y210600D02*
X268800Y210700D01*
X260000Y210800D02*
Y215247D01*
X249400Y224400D02*
X253824D01*
X124353Y208500D02*
X129300D01*
X129300Y208500D01*
X107353Y208500D02*
X111400D01*
X111400Y208500D01*
X181900Y73554D02*
X184200Y71254D01*
X181900Y73554D02*
Y75300D01*
X181800Y75400D02*
X181900Y75300D01*
X194054Y71200D02*
Y75846D01*
X194000Y75900D02*
X194054Y75846D01*
X199646Y71200D02*
Y75954D01*
X199600Y76000D02*
X199646Y75954D01*
X210046Y71400D02*
X211700Y73054D01*
Y76000D01*
X212200Y60354D02*
X214046Y62200D01*
X212200Y58500D02*
Y60354D01*
X158000Y191600D02*
X162631D01*
X157900Y191700D02*
X158000Y191600D01*
X162531Y191500D02*
X162631Y191600D01*
X162531Y181900D02*
Y191500D01*
X248054Y248246D02*
Y253400D01*
Y248246D02*
X248100Y248200D01*
X255900Y180754D02*
X260446D01*
X248700Y175344D02*
X255602D01*
X178400Y11000D02*
Y15246D01*
X178300Y10900D02*
X178400Y11000D01*
X180846Y36546D02*
Y41200D01*
X180800Y36500D02*
X180846Y36546D01*
X202100Y149754D02*
X207054D01*
X207100Y149800D01*
X301963Y267300D02*
Y271163D01*
X302000Y271200D01*
X124900Y233358D02*
Y245600D01*
X126000Y246700D01*
X125800Y233100D02*
X130300D01*
X125542Y233358D02*
X125800Y233100D01*
X147700Y242800D02*
X150900D01*
X156900Y233569D02*
Y236800D01*
X150900Y242800D02*
X156900Y236800D01*
X147500Y268300D02*
X159031D01*
X132154Y86900D02*
X132939Y87684D01*
X166690Y66110D02*
X166800Y66000D01*
X166690Y66110D02*
Y70755D01*
X161700Y115746D02*
X162753Y114693D01*
X230327Y70627D02*
X232273D01*
X233346Y71700D01*
X131900Y80900D02*
X136716Y85716D01*
X143855D01*
X215754Y71400D02*
X216754Y70400D01*
X220100D01*
X223000Y67500D01*
X151000Y118000D02*
X152300Y116700D01*
X155146D01*
X156000Y115846D01*
X255700Y170200D02*
Y174846D01*
X255900Y175046D01*
X156700Y114700D02*
Y115700D01*
Y114700D02*
X160784Y110616D01*
Y102645D02*
Y110616D01*
X132800Y78300D02*
X134300Y76800D01*
X132800Y78300D02*
Y79700D01*
X131900Y80600D02*
X132800Y79700D01*
X226800Y67100D02*
X230327Y70627D01*
D41*
X190853Y64300D02*
X192600D01*
X175200Y61500D02*
Y63200D01*
X162700Y64900D02*
X162753Y64953D01*
Y70755D01*
X160784Y66284D02*
Y70755D01*
X116800Y22300D02*
X160784Y66284D01*
X158816Y67216D02*
Y70755D01*
X241369Y65000D02*
X241600Y64768D01*
X230900Y65000D02*
X241369D01*
X123800Y265600D02*
Y287400D01*
Y265600D02*
X125339Y264061D01*
X143500Y284900D02*
Y287400D01*
X130039Y271439D02*
X143500Y284900D01*
X183800Y58800D02*
Y65200D01*
X178245Y70755D02*
X183800Y65200D01*
X172595Y70755D02*
X178245D01*
X170627Y67773D02*
Y70755D01*
Y67773D02*
X175200Y63200D01*
X172595Y70755D02*
X172687Y70664D01*
Y69305D02*
Y70664D01*
X175900Y81800D02*
X182900D01*
X188346Y76354D01*
Y71200D02*
Y76354D01*
Y71200D02*
X188853Y70693D01*
Y66300D02*
Y70693D01*
Y66300D02*
X190853Y64300D01*
X206400Y65315D02*
Y76300D01*
X206400Y76300D02*
Y76500D01*
X206400Y76300D02*
X206400Y76300D01*
X130039Y267309D02*
Y271439D01*
X125339Y264061D02*
X126791D01*
X168832Y253590D02*
X168900Y253521D01*
X168832Y253590D02*
Y258200D01*
X168931Y243610D02*
X169000Y243679D01*
X168931Y239100D02*
Y243610D01*
X150609Y246739D02*
X151793D01*
X157231Y241300D01*
X145687Y233258D02*
Y234513D01*
X144212Y235988D02*
X145687Y234513D01*
X144212Y235988D02*
Y243491D01*
X145787Y239005D02*
Y243491D01*
Y239005D02*
X151239Y233553D01*
X147983Y227647D02*
X151239D01*
X145900Y229730D02*
X147983Y227647D01*
X140100Y233258D02*
X145687D01*
X89300Y257300D02*
X98544D01*
X102184Y257097D02*
X107845D01*
X102481Y257300D02*
X102585Y257196D01*
X112300Y257132D02*
X117400D01*
X114456Y233344D02*
X114458Y233346D01*
X124513Y248313D02*
X126791D01*
X114456Y228100D02*
Y233344D01*
X377344Y270444D02*
X378700Y271800D01*
X344724Y278640D02*
X345540D01*
X359190Y262053D02*
X363400Y266263D01*
X358100Y262053D02*
X359190D01*
X150609Y248313D02*
X164365D01*
X169000Y243679D01*
X150609Y249888D02*
X165267D01*
X168900Y253521D01*
X234816Y279637D02*
X241900D01*
X234700Y279753D02*
X234816Y279637D01*
X188331Y224724D02*
X196560D01*
X187700Y225356D02*
X188331Y224724D01*
X123563Y259337D02*
X126791D01*
X121000Y261900D02*
X123563Y259337D01*
X122638Y257762D02*
X126791D01*
X121400Y259000D02*
X122638Y257762D01*
X123600Y199900D02*
X127000Y196500D01*
X123600Y199900D02*
Y200500D01*
X100700Y200700D02*
X110200D01*
X100500Y200500D02*
X100700Y200700D01*
X100500Y204437D02*
Y207553D01*
X101447Y208500D01*
X113868Y252500D02*
X114406Y253038D01*
X114456Y248000D02*
X117919Y251463D01*
X126791D01*
X123088Y249888D02*
X126791D01*
X109930Y239054D02*
Y244000D01*
X117200D01*
X123088Y249888D01*
X114458Y233346D02*
X120200Y239088D01*
Y244000D01*
X124513Y248313D01*
X114406Y253038D02*
X126791D01*
X102481Y257300D02*
Y262111D01*
X102981D02*
X103100Y262230D01*
X97800Y258044D02*
X98544Y257300D01*
X97800Y258044D02*
Y261130D01*
X118344Y256187D02*
X126791D01*
X117400Y257132D02*
X118344Y256187D01*
X77300Y22300D02*
X116800D01*
X77300Y32300D02*
X123900D01*
X158816Y67216D01*
X137913Y238013D02*
Y243491D01*
X137900Y238000D02*
X137913Y238013D01*
X137900Y237000D02*
Y238000D01*
X131500Y236300D02*
X134763Y239563D01*
Y243491D01*
X136338Y237638D02*
Y243491D01*
X134800Y236100D02*
X136338Y237638D01*
X139487Y238713D02*
X140900Y237300D01*
X139487Y238713D02*
Y243491D01*
X128200Y237100D02*
X133188Y242088D01*
Y243491D01*
X183500Y277200D02*
Y287500D01*
Y277200D02*
X203300Y257400D01*
Y245900D02*
Y257400D01*
X193500Y272500D02*
Y287500D01*
Y272500D02*
X205800Y260200D01*
Y249100D02*
Y260200D01*
X208900Y246100D02*
Y265600D01*
X203500Y271000D02*
X208900Y265600D01*
X203500Y271000D02*
Y287500D01*
X213500Y236600D02*
Y287500D01*
X212700Y235800D02*
X213500Y236600D01*
X223500Y244100D02*
Y287500D01*
X215400Y236000D02*
X223500Y244100D01*
X344724Y287124D02*
X344800Y287200D01*
X344700D02*
X344800D01*
X161294Y58172D02*
Y61006D01*
X160300Y62000D02*
X161294Y61006D01*
X123487Y254613D02*
X126791D01*
X123400Y254700D02*
X123487Y254613D01*
X142637Y240937D02*
Y243491D01*
X141700Y240000D02*
X142637Y240937D01*
D42*
X218400Y46200D02*
X220500Y44100D01*
Y40600D02*
Y44100D01*
Y40600D02*
X222400Y38700D01*
X194300Y46553D02*
Y49500D01*
X192300Y51500D02*
X194300Y49500D01*
X192300Y51500D02*
Y55200D01*
X222400Y38700D02*
X223400D01*
X229800Y36600D02*
Y39600D01*
X226800Y42600D02*
X229800Y39600D01*
X168900Y132100D02*
Y140900D01*
X168100Y131300D02*
X168900Y132100D01*
X179300Y130600D02*
Y137700D01*
X218800Y125815D02*
Y138000D01*
X219000Y138200D01*
X228400Y129600D02*
Y137900D01*
X203040Y214276D02*
X204040Y215276D01*
X252600Y25200D02*
X252700Y25300D01*
X247056Y25200D02*
X252600D01*
X206144Y40600D02*
X212600D01*
X206100Y40644D02*
X206144Y40600D01*
X206100Y46156D02*
X206400Y46456D01*
Y54400D01*
X248600Y187500D02*
X248700Y187400D01*
Y180856D02*
Y187400D01*
X192100Y138700D02*
X192100Y138700D01*
X183800Y45300D02*
X183800Y45300D01*
X183800Y45300D02*
Y50100D01*
X229100Y25200D02*
X236153D01*
X236153Y25200D01*
X241544D01*
X335276Y263169D02*
Y271160D01*
X329400Y262900D02*
X335544D01*
X329300Y262800D02*
X329400Y262900D01*
X329800Y256400D02*
X335544D01*
X329700Y256500D02*
X329800Y256400D01*
X329600Y256500D02*
X329700D01*
X329200Y248200D02*
X335544D01*
X329200Y248200D02*
X329200Y248200D01*
X319176Y251576D02*
X319200Y251600D01*
X305760Y244097D02*
Y251576D01*
X305400Y243737D02*
X305760Y244097D01*
X305400Y240200D02*
Y243737D01*
X313265Y251600D02*
X319200D01*
X313240Y251576D02*
X313265Y251600D01*
X195700Y190700D02*
X196000Y191000D01*
X203040D01*
X203544D01*
X203040D02*
Y214276D01*
Y178304D02*
Y191000D01*
X268953Y220600D02*
X274344D01*
X268800Y220753D02*
X268953Y220600D01*
X118447Y208500D02*
X121747Y205200D01*
X122837D01*
X123600Y204437D01*
X226800Y42600D02*
Y46100D01*
X199300Y176400D02*
X200700Y177800D01*
X203544D01*
X192100Y155056D02*
X198356D01*
X198400Y155100D01*
X178400Y20954D02*
Y24300D01*
X178300Y24800D02*
X178600Y24500D01*
X178400Y24300D02*
X178600Y24500D01*
X192154Y144046D02*
X202100D01*
X192100Y144100D02*
X192154Y144046D01*
X192100Y138700D02*
Y144100D01*
Y149544D01*
X202100Y138900D02*
Y144046D01*
X176100Y45900D02*
Y49385D01*
X186554Y41200D02*
X190554Y45200D01*
X195300D01*
D43*
X123413Y262487D02*
X126791D01*
X113500Y272400D02*
X123413Y262487D01*
X113500Y272400D02*
Y287400D01*
D44*
X358200Y270444D02*
X377344D01*
X352456D02*
X358200D01*
X351740Y271160D02*
X352456Y270444D01*
X344724Y271160D02*
X351740D01*
X344724Y278640D02*
Y287124D01*
X241900Y261744D02*
X242544Y261100D01*
X234000Y267800D02*
X234100Y267900D01*
X241900D01*
X242247D01*
X241900Y261744D02*
Y267900D01*
Y275700D01*
X233400Y253600D02*
X241547D01*
X233300Y253500D02*
X233400Y253600D01*
D45*
X153500Y287400D02*
D03*
X143500D02*
D03*
X133500D02*
D03*
X123500D02*
D03*
X113500D02*
D03*
X378700Y281800D02*
D03*
X374100Y172800D02*
D03*
X364100Y162800D02*
D03*
X374100D02*
D03*
X364100Y152800D02*
D03*
X374100D02*
D03*
X364100Y142800D02*
D03*
X374100D02*
D03*
X364100Y132800D02*
D03*
X374100D02*
D03*
X364100Y122800D02*
D03*
X374100D02*
D03*
X364100Y112800D02*
D03*
X374100D02*
D03*
X364100Y102800D02*
D03*
X374100D02*
D03*
X364100Y92800D02*
D03*
X374100D02*
D03*
X364100Y82800D02*
D03*
X374100D02*
D03*
X364100Y72800D02*
D03*
X374100D02*
D03*
X364100Y62800D02*
D03*
X374100D02*
D03*
X364100Y52800D02*
D03*
X374100D02*
D03*
X364100Y42800D02*
D03*
X374100D02*
D03*
X364100Y32800D02*
D03*
X374100D02*
D03*
X364100Y22800D02*
D03*
X374100D02*
D03*
X77300Y172300D02*
D03*
X67300Y162300D02*
D03*
X77300D02*
D03*
X67300Y152300D02*
D03*
X77300D02*
D03*
X67300Y142300D02*
D03*
X77300D02*
D03*
X67300Y132300D02*
D03*
X77300D02*
D03*
X67300Y122300D02*
D03*
X77300D02*
D03*
X67300Y112300D02*
D03*
X77300D02*
D03*
X67300Y102300D02*
D03*
X77300D02*
D03*
X67300Y92300D02*
D03*
X77300D02*
D03*
X67300Y82300D02*
D03*
X77300D02*
D03*
X67300Y72300D02*
D03*
X77300D02*
D03*
X67300Y62300D02*
D03*
X77300D02*
D03*
X67300Y52300D02*
D03*
X77300D02*
D03*
X67300Y42300D02*
D03*
X77300D02*
D03*
X67300Y32300D02*
D03*
X77300D02*
D03*
X67300Y22300D02*
D03*
X77300D02*
D03*
X233500Y287500D02*
D03*
X223500D02*
D03*
X213500D02*
D03*
X203500D02*
D03*
X193500D02*
D03*
D46*
X103500Y287400D02*
D03*
X183500Y287500D02*
D03*
D47*
X378700Y271800D02*
D03*
X364100Y172800D02*
D03*
X67300Y172300D02*
D03*
D48*
X196100Y96625D02*
D03*
Y98575D02*
D03*
X210400Y92050D02*
D03*
Y90150D02*
D03*
X320900Y266800D02*
D03*
D49*
X223400Y38700D02*
D03*
X229800Y36600D02*
D03*
X168900Y140900D02*
D03*
X179300Y137700D02*
D03*
X219000Y138200D02*
D03*
X228400Y137900D02*
D03*
X171200Y62100D02*
D03*
X134700Y76800D02*
D03*
X180300Y106900D02*
D03*
X213346Y107154D02*
D03*
X252700Y25300D02*
D03*
X212600Y40600D02*
D03*
X248600Y187500D02*
D03*
X238500Y114900D02*
D03*
X132000Y90300D02*
D03*
X215700Y67300D02*
D03*
X160300Y62000D02*
D03*
X232900Y63100D02*
D03*
X248800Y163600D02*
D03*
X192100Y138700D02*
D03*
X183800Y45300D02*
D03*
X229100Y25200D02*
D03*
X98400Y270700D02*
D03*
X157000Y224100D02*
D03*
X167500Y268400D02*
D03*
X159000Y272800D02*
D03*
X161100Y238000D02*
D03*
X177900Y258000D02*
D03*
X177100Y239100D02*
D03*
X160337Y233400D02*
D03*
X124900Y222800D02*
D03*
X139500Y222600D02*
D03*
X105700Y252300D02*
D03*
Y248000D02*
D03*
X117400Y264200D02*
D03*
X105800Y267700D02*
D03*
X101900Y243900D02*
D03*
X106100Y228100D02*
D03*
X106200Y233400D02*
D03*
X118100Y241500D02*
D03*
X350200Y274700D02*
D03*
X358200Y281300D02*
D03*
X352600Y255600D02*
D03*
X346100Y247800D02*
D03*
X346800Y256400D02*
D03*
X329300Y262800D02*
D03*
X329600Y256500D02*
D03*
X329200Y248200D02*
D03*
X319200Y251600D02*
D03*
X305400Y240200D02*
D03*
X312700Y243700D02*
D03*
X309500Y255900D02*
D03*
X195700Y190700D02*
D03*
X199300Y176400D02*
D03*
X198400Y155100D02*
D03*
X255700Y170200D02*
D03*
X178300Y24800D02*
D03*
X202100Y138900D02*
D03*
X130300Y233100D02*
D03*
X344724Y287124D02*
D03*
X234000Y267800D02*
D03*
X233300Y253500D02*
D03*
X151000Y118000D02*
D03*
X223000Y67500D02*
D03*
X254100Y82900D02*
D03*
X176900Y67100D02*
D03*
X226800D02*
D03*
X259100Y94000D02*
D03*
X176100Y45900D02*
D03*
D50*
X226200Y61500D02*
D03*
X230400Y107500D02*
D03*
X234200Y120200D02*
D03*
X177000Y107100D02*
D03*
X173700Y118100D02*
D03*
X162700Y64900D02*
D03*
X235300Y67200D02*
D03*
X232800D02*
D03*
X230900Y65000D02*
D03*
X256200Y71400D02*
D03*
X255900Y76400D02*
D03*
X136700Y66800D02*
D03*
X133400Y67100D02*
D03*
X218400Y106700D02*
D03*
X204300Y107000D02*
D03*
X207700Y111500D02*
D03*
X235900Y15300D02*
D03*
X165000Y50800D02*
D03*
X170500Y45600D02*
D03*
X194300Y36200D02*
D03*
X138100Y89700D02*
D03*
X254100Y90000D02*
D03*
X254300Y92000D02*
D03*
X255100Y96100D02*
D03*
X252500Y103300D02*
D03*
X245500Y106500D02*
D03*
X244200Y107900D02*
D03*
X241200Y110200D02*
D03*
X242800Y109200D02*
D03*
X236900Y106800D02*
D03*
X234800Y107100D02*
D03*
X263800Y60500D02*
D03*
X266300Y58500D02*
D03*
X273000Y63200D02*
D03*
X262100Y64500D02*
D03*
X268500Y66600D02*
D03*
X191000Y260600D02*
D03*
Y256100D02*
D03*
X187987Y254613D02*
D03*
X159500Y257800D02*
D03*
X158100Y256100D02*
D03*
X156787Y254613D02*
D03*
X155400Y253300D02*
D03*
X155637Y251463D02*
D03*
X118900Y52100D02*
D03*
X117200Y54000D02*
D03*
X115500Y58900D02*
D03*
X177600Y279800D02*
D03*
X175300Y279500D02*
D03*
X172700Y278400D02*
D03*
X170900Y276200D02*
D03*
X168200Y274900D02*
D03*
X161700Y126100D02*
D03*
X155900Y126000D02*
D03*
X188100Y112500D02*
D03*
X168700Y107900D02*
D03*
X164779Y107979D02*
D03*
X165300Y115800D02*
D03*
X120600Y80700D02*
D03*
X120200Y86200D02*
D03*
X166800Y66000D02*
D03*
X206400Y76500D02*
D03*
X270000Y89500D02*
D03*
X220100Y66400D02*
D03*
X227200Y109200D02*
D03*
X223100Y108100D02*
D03*
X271400Y84600D02*
D03*
X159100Y50800D02*
D03*
X233500Y51700D02*
D03*
X235900Y169100D02*
D03*
X186100Y148500D02*
D03*
X298600Y271100D02*
D03*
X229000Y209500D02*
D03*
X236200Y208600D02*
D03*
X209400Y209600D02*
D03*
X237800Y239200D02*
D03*
X263800Y221200D02*
D03*
X264900Y228000D02*
D03*
X286200Y196600D02*
D03*
X292800Y197500D02*
D03*
Y226700D02*
D03*
X324300Y221800D02*
D03*
X328800Y214200D02*
D03*
X317400Y212000D02*
D03*
X321200Y287900D02*
D03*
X305700Y281300D02*
D03*
X299900Y281400D02*
D03*
X293900Y271700D02*
D03*
X270300Y275100D02*
D03*
X276400Y287400D02*
D03*
X255900Y254800D02*
D03*
X248300Y272400D02*
D03*
X230600Y273800D02*
D03*
X200300Y231000D02*
D03*
X182500Y219900D02*
D03*
X215900Y191000D02*
D03*
X216100Y185100D02*
D03*
X216000Y178000D02*
D03*
X322400Y202800D02*
D03*
X268700Y210600D02*
D03*
X260000Y210800D02*
D03*
X249400Y224400D02*
D03*
X129300Y208500D02*
D03*
X121400Y259000D02*
D03*
X127000Y196500D02*
D03*
X121000Y261900D02*
D03*
X110200Y200700D02*
D03*
X111400Y208500D02*
D03*
X181800Y75400D02*
D03*
X194000Y75900D02*
D03*
X199600Y76000D02*
D03*
X211700D02*
D03*
X212200Y58500D02*
D03*
X184100Y262600D02*
D03*
X180900Y264400D02*
D03*
X178300Y266100D02*
D03*
X168800Y194900D02*
D03*
X171600Y186700D02*
D03*
X173600Y181900D02*
D03*
X184537Y251463D02*
D03*
X186000Y253100D02*
D03*
X140500Y65500D02*
D03*
X157900Y191700D02*
D03*
X248100Y248200D02*
D03*
X260446Y180754D02*
D03*
X178300Y10900D02*
D03*
X180800Y36500D02*
D03*
X207100Y149800D02*
D03*
X141700Y240000D02*
D03*
X123400Y254700D02*
D03*
X259800Y68400D02*
D03*
X123400Y62000D02*
D03*
X125500Y56200D02*
D03*
X137900Y237000D02*
D03*
X128200Y237100D02*
D03*
X131500Y236300D02*
D03*
X134800Y236100D02*
D03*
X140900Y237300D02*
D03*
X203300Y245900D02*
D03*
X205800Y249100D02*
D03*
X208900Y246100D02*
D03*
X212700Y235800D02*
D03*
X215400Y236000D02*
D03*
X255500Y93700D02*
D03*
D51*
X148973Y97527D02*
D03*
X153304D02*
D03*
X157635D02*
D03*
X161965D02*
D03*
X166296D02*
D03*
X170627D02*
D03*
X148973Y93196D02*
D03*
X153304D02*
D03*
X157635D02*
D03*
X161965D02*
D03*
X166296D02*
D03*
X170627D02*
D03*
X148973Y88865D02*
D03*
X153304D02*
D03*
X157635D02*
D03*
X161965D02*
D03*
X166296D02*
D03*
X170627D02*
D03*
X148973Y84535D02*
D03*
X153304D02*
D03*
X157635D02*
D03*
X161965D02*
D03*
X166296D02*
D03*
X170627D02*
D03*
X148973Y80204D02*
D03*
X153304D02*
D03*
X157635D02*
D03*
X161965D02*
D03*
X166296D02*
D03*
X170627D02*
D03*
X148973Y75873D02*
D03*
X153304D02*
D03*
X157635D02*
D03*
X161965D02*
D03*
X166296D02*
D03*
X170627D02*
D03*
X223073Y76373D02*
D03*
X227404D02*
D03*
X231735D02*
D03*
X236065D02*
D03*
X240396D02*
D03*
X244727D02*
D03*
X223073Y80704D02*
D03*
X227404D02*
D03*
X231735D02*
D03*
X236065D02*
D03*
X240396D02*
D03*
X244727D02*
D03*
X223073Y85035D02*
D03*
X227404D02*
D03*
X231735D02*
D03*
X236065D02*
D03*
X240396D02*
D03*
X244727D02*
D03*
X223073Y89365D02*
D03*
X227404D02*
D03*
X231735D02*
D03*
X236065D02*
D03*
X240396D02*
D03*
X244727D02*
D03*
X223073Y93696D02*
D03*
X227404D02*
D03*
X231735D02*
D03*
X236065D02*
D03*
X240396D02*
D03*
X244727D02*
D03*
X223073Y98027D02*
D03*
X227404D02*
D03*
X231735D02*
D03*
X236065D02*
D03*
X240396D02*
D03*
X244727D02*
D03*
D52*
X145787Y248313D02*
D03*
X141062D02*
D03*
X136338D02*
D03*
X131613D02*
D03*
X145787Y253038D02*
D03*
X141062D02*
D03*
X136338D02*
D03*
X131613D02*
D03*
X145787Y257762D02*
D03*
X141062D02*
D03*
X136338D02*
D03*
X131613D02*
D03*
X145787Y262487D02*
D03*
X141062D02*
D03*
X136338D02*
D03*
X131613D02*
D03*
M02*
