%FSLAX25Y25*%
%MOIN*%
G70*
G01*
G75*
G04 Layer_Color=8388736*
%ADD10R,0.01969X0.01969*%
%ADD11R,0.05906X0.14173*%
%ADD12R,0.03150X0.02756*%
%ADD13R,0.02756X0.03150*%
%ADD14R,0.01969X0.02362*%
%ADD15R,0.02953X0.05512*%
%ADD16R,0.00787X0.01969*%
%ADD17R,0.03150X0.03543*%
%ADD18R,0.03543X0.02756*%
%ADD19R,0.10236X0.05906*%
%ADD20R,0.02362X0.01969*%
%ADD21R,0.01969X0.01969*%
%ADD22R,0.03150X0.02953*%
%ADD23R,0.01969X0.02559*%
%ADD24R,0.02559X0.01969*%
%ADD25R,0.18504X0.18504*%
%ADD26O,0.00787X0.02559*%
%ADD27O,0.02559X0.00787*%
%ADD28R,0.03347X0.03740*%
%ADD29O,0.03543X0.00984*%
%ADD30O,0.00984X0.03543*%
%ADD31R,0.25590X0.25590*%
%ADD32R,0.03150X0.03150*%
%ADD33R,0.03150X0.03150*%
%ADD34R,0.04134X0.02362*%
%ADD35R,0.03543X0.03150*%
%ADD36R,0.02362X0.04134*%
%ADD37R,0.02362X0.04331*%
%ADD38R,0.06693X0.04331*%
%ADD39C,0.00800*%
%ADD40C,0.00600*%
%ADD41C,0.01200*%
%ADD42C,0.01000*%
%ADD43C,0.01600*%
%ADD44C,0.00400*%
%ADD45R,0.05906X0.05906*%
%ADD46C,0.05906*%
%ADD47R,0.05906X0.05906*%
%ADD48C,0.02000*%
%ADD49C,0.01400*%
%ADD50C,0.01969*%
%ADD51C,0.02598*%
%ADD52C,0.00900*%
%ADD53C,0.04000*%
%ADD54C,0.04743*%
%ADD55C,0.02200*%
%ADD56C,0.01800*%
%ADD57C,0.01600*%
%ADD58C,0.01987*%
%ADD59C,0.02499*%
%ADD60C,0.00394*%
%ADD61C,0.00984*%
%ADD62C,0.00787*%
%ADD63C,0.00500*%
%ADD64R,0.01575X0.01575*%
%ADD65R,0.01575X0.01575*%
%ADD66R,0.02369X0.02369*%
%ADD67R,0.06306X0.14573*%
%ADD68R,0.03550X0.03156*%
%ADD69R,0.03156X0.03550*%
%ADD70R,0.02369X0.02762*%
%ADD71R,0.03353X0.05912*%
%ADD72R,0.01187X0.02369*%
%ADD73R,0.03550X0.03943*%
%ADD74R,0.03943X0.03156*%
%ADD75R,0.10636X0.06306*%
%ADD76R,0.02762X0.02369*%
%ADD77R,0.02369X0.02369*%
%ADD78R,0.03550X0.03353*%
%ADD79R,0.02369X0.02959*%
%ADD80R,0.02959X0.02369*%
%ADD81R,0.18904X0.18904*%
%ADD82O,0.01187X0.02959*%
%ADD83O,0.02959X0.01187*%
%ADD84R,0.03747X0.04140*%
%ADD85O,0.03943X0.01384*%
%ADD86O,0.01384X0.03943*%
%ADD87R,0.25991X0.25991*%
%ADD88R,0.03550X0.03550*%
%ADD89R,0.03550X0.03550*%
%ADD90R,0.04534X0.02762*%
%ADD91R,0.03943X0.03550*%
%ADD92R,0.02762X0.04534*%
%ADD93R,0.02762X0.04731*%
%ADD94R,0.07093X0.04731*%
%ADD95R,0.06306X0.06306*%
%ADD96C,0.06306*%
%ADD97R,0.06306X0.06306*%
%ADD98C,0.02369*%
%ADD99C,0.02998*%
%ADD100C,0.02400*%
%ADD101C,0.01300*%
D56*
X123400Y254700D02*
D03*
X211700Y76000D02*
D03*
X199600D02*
D03*
X194000Y75900D02*
D03*
X181800Y75400D02*
D03*
X121000Y261900D02*
D03*
X121400Y259000D02*
D03*
X206400Y76500D02*
D03*
X120200Y86200D02*
D03*
X120600Y80700D02*
D03*
D66*
X305363Y243700D02*
D03*
X309300D02*
D03*
X305937Y271200D02*
D03*
X302000D02*
D03*
X301963Y267300D02*
D03*
X305900D02*
D03*
X313363Y266800D02*
D03*
X317300D02*
D03*
X311400Y277000D02*
D03*
X315337D02*
D03*
D67*
X307505Y161600D02*
D03*
X295694D02*
D03*
D68*
X202100Y149754D02*
D03*
Y144046D02*
D03*
X161700Y121454D02*
D03*
Y115746D02*
D03*
X156000Y121554D02*
D03*
Y115846D02*
D03*
X184200Y71254D02*
D03*
Y65546D02*
D03*
X168700Y50246D02*
D03*
Y55954D02*
D03*
X178400Y15246D02*
D03*
Y20954D02*
D03*
X255900Y180754D02*
D03*
Y175046D02*
D03*
D69*
X173754Y114000D02*
D03*
X168046D02*
D03*
X184154Y112500D02*
D03*
X178446D02*
D03*
X224846Y103200D02*
D03*
X230554D02*
D03*
X233654Y113700D02*
D03*
X227946D02*
D03*
X210046Y71400D02*
D03*
X215754D02*
D03*
X199646Y71200D02*
D03*
X205354D02*
D03*
X194054D02*
D03*
X188346D02*
D03*
X180846Y41200D02*
D03*
X186554D02*
D03*
X233346Y71700D02*
D03*
X239054D02*
D03*
X214046Y62200D02*
D03*
X219754D02*
D03*
X126446Y86900D02*
D03*
X132154D02*
D03*
X126246Y80700D02*
D03*
X131954D02*
D03*
X248054Y253400D02*
D03*
X242346D02*
D03*
D70*
X241600Y60831D02*
D03*
Y64768D02*
D03*
X117400Y257132D02*
D03*
Y261069D02*
D03*
X156900Y229631D02*
D03*
Y233569D02*
D03*
D71*
X158046Y56400D02*
D03*
X163754D02*
D03*
D72*
X160506Y54628D02*
D03*
X161294Y58172D02*
D03*
D73*
X241544Y25200D02*
D03*
X247056D02*
D03*
X242544Y261100D02*
D03*
X248056D02*
D03*
X274344Y220600D02*
D03*
X279856D02*
D03*
X217644Y220100D02*
D03*
X223156D02*
D03*
X203544Y191000D02*
D03*
X209056D02*
D03*
X203644Y185000D02*
D03*
X209156D02*
D03*
X203544Y177800D02*
D03*
X209056D02*
D03*
X335544Y256400D02*
D03*
X341056D02*
D03*
X335544Y248200D02*
D03*
X341056D02*
D03*
X335544Y262900D02*
D03*
X341056D02*
D03*
D74*
X200800Y83947D02*
D03*
Y89853D02*
D03*
X192500Y100753D02*
D03*
Y94847D02*
D03*
X151239Y233553D02*
D03*
Y227647D02*
D03*
D75*
X82200Y265141D02*
D03*
Y285220D02*
D03*
D76*
X162531Y181900D02*
D03*
X166469D02*
D03*
X162732Y186700D02*
D03*
X166668D02*
D03*
X162631Y191600D02*
D03*
X166569D02*
D03*
X104332Y113938D02*
D03*
X108268D02*
D03*
X104332Y119847D02*
D03*
X108268D02*
D03*
X323667Y87700D02*
D03*
X319730D02*
D03*
X323667Y92833D02*
D03*
X319730D02*
D03*
X104332Y125757D02*
D03*
X108268D02*
D03*
X104332Y131666D02*
D03*
X108268D02*
D03*
X108268Y108028D02*
D03*
X104332D02*
D03*
X104332Y137576D02*
D03*
X108268D02*
D03*
X323667Y97967D02*
D03*
X319730D02*
D03*
X108268Y102119D02*
D03*
X104332D02*
D03*
X104332Y143485D02*
D03*
X108268D02*
D03*
X323667Y103100D02*
D03*
X319730D02*
D03*
X108268Y96210D02*
D03*
X104332D02*
D03*
X323667Y108233D02*
D03*
X319730D02*
D03*
X323667Y82900D02*
D03*
X319730D02*
D03*
X108268Y90300D02*
D03*
X104332D02*
D03*
X104332Y149395D02*
D03*
X108268D02*
D03*
X323667Y113367D02*
D03*
X319730D02*
D03*
X289369Y75400D02*
D03*
X285432D02*
D03*
X289369Y70800D02*
D03*
X285432D02*
D03*
X110519Y228100D02*
D03*
X114456D02*
D03*
X172869Y239100D02*
D03*
X168931D02*
D03*
X161169Y241300D02*
D03*
X157231D02*
D03*
X105631Y243900D02*
D03*
X109569D02*
D03*
X172768Y258200D02*
D03*
X168832D02*
D03*
X162969Y268300D02*
D03*
X159031D02*
D03*
X110519Y248000D02*
D03*
X114456D02*
D03*
X113868Y252500D02*
D03*
X109932D02*
D03*
X102481Y257300D02*
D03*
X98544D02*
D03*
X319730Y68700D02*
D03*
X323667D02*
D03*
X319730Y118500D02*
D03*
X323667D02*
D03*
X319730Y73500D02*
D03*
X323667D02*
D03*
X319730Y78400D02*
D03*
X323667D02*
D03*
D77*
X100500Y204437D02*
D03*
Y200500D02*
D03*
X123600Y204437D02*
D03*
Y200500D02*
D03*
X241900Y275700D02*
D03*
Y279637D02*
D03*
X363400Y270200D02*
D03*
Y266263D02*
D03*
D78*
X139800Y226942D02*
D03*
Y232258D02*
D03*
X124900Y233358D02*
D03*
Y228043D02*
D03*
D79*
X145900Y233470D02*
D03*
Y229730D02*
D03*
X103100Y262230D02*
D03*
Y265970D02*
D03*
X98400Y262130D02*
D03*
Y265870D02*
D03*
D80*
X111570Y257100D02*
D03*
X107830D02*
D03*
D81*
X138700Y255400D02*
D03*
D82*
X147361Y243491D02*
D03*
X145787D02*
D03*
X144212D02*
D03*
X142637D02*
D03*
X141062D02*
D03*
X139487D02*
D03*
X137913D02*
D03*
X136338D02*
D03*
X134763D02*
D03*
X133188D02*
D03*
X131613D02*
D03*
X130039D02*
D03*
Y267309D02*
D03*
X131613D02*
D03*
X133188D02*
D03*
X134763D02*
D03*
X136338D02*
D03*
X137913D02*
D03*
X139487D02*
D03*
X141062D02*
D03*
X142637D02*
D03*
X144212D02*
D03*
X145787D02*
D03*
X147361D02*
D03*
D83*
X126791Y246739D02*
D03*
Y248313D02*
D03*
Y249888D02*
D03*
Y251463D02*
D03*
Y253038D02*
D03*
Y254613D02*
D03*
Y256187D02*
D03*
Y257762D02*
D03*
Y259337D02*
D03*
Y260912D02*
D03*
Y262487D02*
D03*
Y264061D02*
D03*
X150609D02*
D03*
Y262487D02*
D03*
Y260912D02*
D03*
Y259337D02*
D03*
Y257762D02*
D03*
Y256187D02*
D03*
Y254613D02*
D03*
Y253038D02*
D03*
Y251463D02*
D03*
Y249888D02*
D03*
Y248313D02*
D03*
Y246739D02*
D03*
D84*
X114458Y239054D02*
D03*
X109930D02*
D03*
Y233346D02*
D03*
X114458D02*
D03*
D85*
X175745Y73905D02*
D03*
Y75873D02*
D03*
Y77842D02*
D03*
Y79810D02*
D03*
Y81779D02*
D03*
Y83747D02*
D03*
Y93590D02*
D03*
Y95558D02*
D03*
Y97527D02*
D03*
Y99495D02*
D03*
X143855D02*
D03*
Y97527D02*
D03*
Y95558D02*
D03*
Y93590D02*
D03*
Y91621D02*
D03*
Y89653D02*
D03*
Y87684D02*
D03*
Y85716D02*
D03*
Y83747D02*
D03*
Y81779D02*
D03*
Y79810D02*
D03*
Y77842D02*
D03*
Y75873D02*
D03*
Y73905D02*
D03*
X175745Y91621D02*
D03*
Y89653D02*
D03*
Y87684D02*
D03*
Y85716D02*
D03*
D86*
X172595Y102645D02*
D03*
X170627D02*
D03*
X168658D02*
D03*
X166690D02*
D03*
X164721D02*
D03*
X162753D02*
D03*
X160784D02*
D03*
X158816D02*
D03*
X156847D02*
D03*
X154879D02*
D03*
X152910D02*
D03*
X150942D02*
D03*
X148973D02*
D03*
X147005D02*
D03*
Y70755D02*
D03*
X148973D02*
D03*
X150942D02*
D03*
X152910D02*
D03*
X154879D02*
D03*
X156847D02*
D03*
X158816D02*
D03*
X160784D02*
D03*
X162753D02*
D03*
X164721D02*
D03*
X166690D02*
D03*
X168658D02*
D03*
X170627D02*
D03*
X172595D02*
D03*
D87*
X159800Y86700D02*
D03*
D88*
X235800Y19647D02*
D03*
Y25553D02*
D03*
X358100Y256147D02*
D03*
Y262053D02*
D03*
X234700Y272647D02*
D03*
Y278553D02*
D03*
X194300Y40647D02*
D03*
Y46553D02*
D03*
X286300Y202147D02*
D03*
Y208053D02*
D03*
X292800Y202147D02*
D03*
Y208053D02*
D03*
X268800Y214847D02*
D03*
Y220753D02*
D03*
X235800Y214447D02*
D03*
Y220353D02*
D03*
X229300Y214547D02*
D03*
Y220453D02*
D03*
X209600Y214347D02*
D03*
Y220253D02*
D03*
X322600Y214153D02*
D03*
Y208247D02*
D03*
X260000Y215247D02*
D03*
Y221153D02*
D03*
X292800Y222253D02*
D03*
Y216347D02*
D03*
X237900Y234553D02*
D03*
Y228647D02*
D03*
X260000Y254947D02*
D03*
Y260853D02*
D03*
X265500Y254847D02*
D03*
Y260753D02*
D03*
X284600Y271747D02*
D03*
Y277653D02*
D03*
D89*
X124353Y208500D02*
D03*
X118447D02*
D03*
X107353D02*
D03*
X101447D02*
D03*
X186147Y144100D02*
D03*
X192053D02*
D03*
X321453Y283800D02*
D03*
X315547D02*
D03*
X318753Y221900D02*
D03*
X312847D02*
D03*
X242747Y169000D02*
D03*
X248653D02*
D03*
X248153Y267900D02*
D03*
X242247D02*
D03*
X271253Y287500D02*
D03*
X265347D02*
D03*
X299847Y277000D02*
D03*
X305753D02*
D03*
D90*
X344724Y271160D02*
D03*
Y274900D02*
D03*
Y278640D02*
D03*
X335276D02*
D03*
Y271160D02*
D03*
X312724Y208360D02*
D03*
Y212100D02*
D03*
Y215840D02*
D03*
X303276D02*
D03*
Y208360D02*
D03*
X253824Y220660D02*
D03*
Y224400D02*
D03*
Y228140D02*
D03*
X244376D02*
D03*
Y220660D02*
D03*
X275024Y271360D02*
D03*
Y275100D02*
D03*
Y278840D02*
D03*
X265576D02*
D03*
Y271360D02*
D03*
D91*
X206100Y46156D02*
D03*
Y40644D02*
D03*
X192100Y149544D02*
D03*
Y155056D02*
D03*
X248700Y175344D02*
D03*
Y180856D02*
D03*
X187700Y225356D02*
D03*
Y219844D02*
D03*
X358200Y270444D02*
D03*
Y275956D02*
D03*
D92*
X204040Y224724D02*
D03*
X200300D02*
D03*
X196560D02*
D03*
Y215276D02*
D03*
X204040D02*
D03*
D93*
X305760Y261024D02*
D03*
X313240D02*
D03*
Y251576D02*
D03*
X309500D02*
D03*
X305760D02*
D03*
D94*
X218700Y116585D02*
D03*
Y127215D02*
D03*
X184600Y49285D02*
D03*
Y59915D02*
D03*
X176100Y49385D02*
D03*
Y60015D02*
D03*
X228500Y45585D02*
D03*
Y56215D02*
D03*
X219300Y45585D02*
D03*
Y56215D02*
D03*
X206400Y54685D02*
D03*
Y65315D02*
D03*
X193900D02*
D03*
Y54685D02*
D03*
X182000Y130615D02*
D03*
Y119985D02*
D03*
X228100Y130115D02*
D03*
Y119485D02*
D03*
X169600Y132315D02*
D03*
Y121685D02*
D03*
D95*
X183500Y287500D02*
D03*
X103500Y287400D02*
D03*
D96*
X193500Y287500D02*
D03*
X203500D02*
D03*
X213500D02*
D03*
X223500D02*
D03*
X233500D02*
D03*
X77300Y22300D02*
D03*
X67300D02*
D03*
X77300Y32300D02*
D03*
X67300D02*
D03*
X77300Y42300D02*
D03*
X67300D02*
D03*
X77300Y52300D02*
D03*
X67300D02*
D03*
X77300Y62300D02*
D03*
X67300D02*
D03*
X77300Y72300D02*
D03*
X67300D02*
D03*
X77300Y82300D02*
D03*
X67300D02*
D03*
X77300Y92300D02*
D03*
X67300D02*
D03*
X77300Y102300D02*
D03*
X67300D02*
D03*
X77300Y112300D02*
D03*
X67300D02*
D03*
X77300Y122300D02*
D03*
X67300D02*
D03*
X77300Y132300D02*
D03*
X67300D02*
D03*
X77300Y142300D02*
D03*
X67300D02*
D03*
X77300Y152300D02*
D03*
X67300D02*
D03*
X77300Y162300D02*
D03*
X67300D02*
D03*
X77300Y172300D02*
D03*
X374100Y22800D02*
D03*
X364100D02*
D03*
X374100Y32800D02*
D03*
X364100D02*
D03*
X374100Y42800D02*
D03*
X364100D02*
D03*
X374100Y52800D02*
D03*
X364100D02*
D03*
X374100Y62800D02*
D03*
X364100D02*
D03*
X374100Y72800D02*
D03*
X364100D02*
D03*
X374100Y82800D02*
D03*
X364100D02*
D03*
X374100Y92800D02*
D03*
X364100D02*
D03*
X374100Y102800D02*
D03*
X364100D02*
D03*
X374100Y112800D02*
D03*
X364100D02*
D03*
X374100Y122800D02*
D03*
X364100D02*
D03*
X374100Y132800D02*
D03*
X364100D02*
D03*
X374100Y142800D02*
D03*
X364100D02*
D03*
X374100Y152800D02*
D03*
X364100D02*
D03*
X374100Y162800D02*
D03*
X364100D02*
D03*
X374100Y172800D02*
D03*
X378700Y281800D02*
D03*
X113500Y287400D02*
D03*
X123500D02*
D03*
X133500D02*
D03*
X143500D02*
D03*
X153500D02*
D03*
D97*
X67300Y172300D02*
D03*
X364100Y172800D02*
D03*
X378700Y271800D02*
D03*
D98*
X244727Y98027D02*
D03*
X240396D02*
D03*
X236065D02*
D03*
X231735D02*
D03*
X227404D02*
D03*
X223073D02*
D03*
X244727Y93696D02*
D03*
X240396D02*
D03*
X236065D02*
D03*
X231735D02*
D03*
X227404D02*
D03*
X223073D02*
D03*
X244727Y89365D02*
D03*
X240396D02*
D03*
X236065D02*
D03*
X231735D02*
D03*
X227404D02*
D03*
X223073D02*
D03*
X244727Y85035D02*
D03*
X240396D02*
D03*
X236065D02*
D03*
X231735D02*
D03*
X227404D02*
D03*
X223073D02*
D03*
X244727Y80704D02*
D03*
X240396D02*
D03*
X236065D02*
D03*
X231735D02*
D03*
X227404D02*
D03*
X223073D02*
D03*
X244727Y76373D02*
D03*
X240396D02*
D03*
X236065D02*
D03*
X231735D02*
D03*
X227404D02*
D03*
X223073D02*
D03*
X170627Y75873D02*
D03*
X166296D02*
D03*
X161965D02*
D03*
X157635D02*
D03*
X153304D02*
D03*
X148973D02*
D03*
X170627Y80204D02*
D03*
X166296D02*
D03*
X161965D02*
D03*
X157635D02*
D03*
X153304D02*
D03*
X148973D02*
D03*
X170627Y84535D02*
D03*
X166296D02*
D03*
X161965D02*
D03*
X157635D02*
D03*
X153304D02*
D03*
X148973D02*
D03*
X170627Y88865D02*
D03*
X166296D02*
D03*
X161965D02*
D03*
X157635D02*
D03*
X153304D02*
D03*
X148973D02*
D03*
X170627Y93196D02*
D03*
X166296D02*
D03*
X161965D02*
D03*
X157635D02*
D03*
X153304D02*
D03*
X148973D02*
D03*
X170627Y97527D02*
D03*
X166296D02*
D03*
X161965D02*
D03*
X157635D02*
D03*
X153304D02*
D03*
X148973D02*
D03*
D99*
X131613Y262487D02*
D03*
X136338D02*
D03*
X141062D02*
D03*
X145787D02*
D03*
X131613Y257762D02*
D03*
X136338D02*
D03*
X141062D02*
D03*
X145787D02*
D03*
X131613Y253038D02*
D03*
X136338D02*
D03*
X141062D02*
D03*
X145787D02*
D03*
X131613Y248313D02*
D03*
X136338D02*
D03*
X141062D02*
D03*
X145787D02*
D03*
D100*
X118100Y241500D02*
D03*
X101900Y243900D02*
D03*
X105800Y267700D02*
D03*
X117400Y264200D02*
D03*
X105700Y248000D02*
D03*
Y252300D02*
D03*
X132000Y90300D02*
D03*
X134700Y76800D02*
D03*
D101*
X210400Y90150D02*
D03*
Y92050D02*
D03*
X196100Y98575D02*
D03*
Y96625D02*
D03*
M02*
