%FSLAX25Y25*%
%MOIN*%
G70*
G01*
G75*
G04 Layer_Physical_Order=3*
G04 Layer_Color=36540*
%ADD10O,0.03543X0.00984*%
%ADD11R,0.06693X0.04331*%
%ADD12R,0.01969X0.01969*%
%ADD13R,0.03543X0.03150*%
%ADD14R,0.03150X0.03543*%
%ADD15R,0.01969X0.01969*%
%ADD16R,0.02362X0.04331*%
%ADD17R,0.03150X0.03150*%
%ADD18R,0.03150X0.03150*%
%ADD19R,0.04134X0.02362*%
%ADD20R,0.02362X0.04134*%
%ADD21R,0.03150X0.02756*%
%ADD22R,0.02756X0.03150*%
%ADD23R,0.02362X0.01969*%
%ADD24R,0.01969X0.02362*%
%ADD25R,0.25590X0.25590*%
%ADD26O,0.00984X0.03543*%
%ADD27R,0.01969X0.02559*%
%ADD28R,0.03347X0.03740*%
%ADD29O,0.02559X0.00787*%
%ADD30O,0.00787X0.02559*%
%ADD31R,0.18504X0.18504*%
%ADD32R,0.02559X0.01969*%
%ADD33R,0.03543X0.02756*%
%ADD34R,0.03150X0.02953*%
%ADD35R,0.10236X0.05906*%
%ADD36R,0.00787X0.01969*%
%ADD37R,0.02953X0.05512*%
%ADD38R,0.05906X0.14173*%
%ADD39C,0.00600*%
%ADD40C,0.01000*%
%ADD41C,0.00800*%
%ADD42C,0.01200*%
%ADD43C,0.00400*%
%ADD44C,0.01600*%
%ADD45C,0.05906*%
%ADD46R,0.05906X0.05906*%
%ADD47R,0.05906X0.05906*%
%ADD48C,0.00900*%
%ADD49C,0.02000*%
%ADD50C,0.01400*%
%ADD51C,0.01969*%
%ADD52C,0.02598*%
%ADD53C,0.04000*%
%ADD54C,0.04743*%
%ADD55C,0.01600*%
%ADD56C,0.02200*%
%ADD57C,0.01800*%
G36*
X178786Y241000D02*
Y225896D01*
X168295Y215405D01*
X168141Y215173D01*
X168086Y214900D01*
Y195746D01*
X168007Y195693D01*
X167764Y195329D01*
X167678Y194900D01*
X167764Y194471D01*
X168007Y194107D01*
X168371Y193864D01*
X168800Y193778D01*
X169229Y193864D01*
X169593Y194107D01*
X169836Y194471D01*
X169922Y194900D01*
X169836Y195329D01*
X169593Y195693D01*
X169514Y195746D01*
Y214604D01*
X170318Y215409D01*
X170718Y215230D01*
X170786Y215170D01*
Y187462D01*
X170754Y187414D01*
X137530D01*
X137323Y187914D01*
X173405Y223995D01*
X173559Y224227D01*
X173614Y224500D01*
Y240647D01*
X173967Y241000D01*
X178786D01*
D02*
G37*
G36*
X272786Y107104D02*
Y78296D01*
X269045Y74554D01*
X268657Y74873D01*
X268759Y75027D01*
X268814Y75300D01*
Y110370D01*
X269314Y110577D01*
X272786Y107104D01*
D02*
G37*
G36*
X183823Y240652D02*
Y194463D01*
X183878Y194190D01*
X184032Y193958D01*
X199741Y178250D01*
X199495Y177789D01*
X199300Y177827D01*
X198754Y177719D01*
X198291Y177409D01*
X198057Y177059D01*
X197502Y176907D01*
X192005Y182405D01*
X191773Y182559D01*
X191500Y182614D01*
X174446D01*
X174414Y182662D01*
Y214504D01*
X182905Y222995D01*
X183059Y223227D01*
X183114Y223500D01*
Y240414D01*
X183568Y240756D01*
X183823Y240652D01*
D02*
G37*
G36*
X162986Y241000D02*
Y221796D01*
X114995Y173805D01*
X114841Y173573D01*
X114786Y173300D01*
Y59746D01*
X114707Y59693D01*
X114464Y59329D01*
X114378Y58900D01*
X114464Y58471D01*
X114707Y58107D01*
X115071Y57864D01*
X115500Y57778D01*
X115929Y57864D01*
X116086Y57969D01*
X116586Y57714D01*
Y54913D01*
X116407Y54793D01*
X116164Y54429D01*
X116078Y54000D01*
X116164Y53571D01*
X116407Y53207D01*
X116771Y52964D01*
X117200Y52878D01*
X117541Y52946D01*
X117760Y52735D01*
X117872Y52541D01*
X117864Y52529D01*
X117778Y52100D01*
X117864Y51671D01*
X118107Y51307D01*
X118471Y51064D01*
X118900Y50978D01*
X119329Y51064D01*
X119693Y51307D01*
X119936Y51671D01*
X120022Y52100D01*
X119936Y52529D01*
X119693Y52893D01*
X119614Y52946D01*
Y173204D01*
X122224Y175815D01*
X122686Y175624D01*
Y62846D01*
X122607Y62793D01*
X122364Y62429D01*
X122278Y62000D01*
X122364Y61571D01*
X122607Y61207D01*
X122971Y60964D01*
X123400Y60878D01*
X123829Y60964D01*
X124193Y61207D01*
X124286Y61347D01*
X124786Y61195D01*
Y57046D01*
X124707Y56993D01*
X124464Y56629D01*
X124378Y56200D01*
X124464Y55771D01*
X124707Y55407D01*
X125071Y55164D01*
X125500Y55078D01*
X125929Y55164D01*
X126293Y55407D01*
X126536Y55771D01*
X126622Y56200D01*
X126536Y56629D01*
X126293Y56993D01*
X126214Y57046D01*
Y78070D01*
X126714Y78277D01*
X136583Y68408D01*
X136418Y67866D01*
X136271Y67836D01*
X135907Y67593D01*
X135664Y67229D01*
X135578Y66800D01*
X135664Y66371D01*
X135907Y66007D01*
X136271Y65764D01*
X136700Y65678D01*
X137129Y65764D01*
X137493Y66007D01*
X137736Y66371D01*
X137766Y66518D01*
X138308Y66683D01*
X139397Y65594D01*
X139378Y65500D01*
X139464Y65071D01*
X139707Y64707D01*
X140071Y64464D01*
X140500Y64378D01*
X140929Y64464D01*
X141293Y64707D01*
X141536Y65071D01*
X141622Y65500D01*
X141536Y65929D01*
X141293Y66293D01*
X140929Y66536D01*
X140500Y66622D01*
X140406Y66603D01*
X127714Y79296D01*
Y176304D01*
X137396Y185986D01*
X170754D01*
X170807Y185907D01*
X171171Y185664D01*
X171600Y185578D01*
X172029Y185664D01*
X172393Y185907D01*
X172486Y186047D01*
X172986Y185895D01*
Y182813D01*
X172807Y182693D01*
X172564Y182329D01*
X172478Y181900D01*
X172564Y181471D01*
X172807Y181107D01*
X173171Y180864D01*
X173600Y180778D01*
X174029Y180864D01*
X174393Y181107D01*
X174446Y181186D01*
X191204D01*
X266386Y106004D01*
Y76010D01*
X260495Y70119D01*
X260467Y70076D01*
X259894Y69503D01*
X259800Y69522D01*
X259371Y69436D01*
X259007Y69193D01*
X258764Y68829D01*
X258679Y68400D01*
X258764Y67971D01*
X259007Y67607D01*
X259371Y67364D01*
X259800Y67278D01*
X260229Y67364D01*
X260593Y67607D01*
X260786Y67896D01*
X261104Y67877D01*
X261286Y67813D01*
Y65262D01*
X261064Y64929D01*
X260979Y64500D01*
X261064Y64071D01*
X261307Y63707D01*
X261671Y63464D01*
X262100Y63378D01*
X262529Y63464D01*
X262786Y63636D01*
X263162Y63507D01*
X263286Y63414D01*
Y61480D01*
X263007Y61293D01*
X262764Y60929D01*
X262679Y60500D01*
X262764Y60071D01*
X263007Y59707D01*
X263371Y59464D01*
X263800Y59378D01*
X264229Y59464D01*
X264593Y59707D01*
X264836Y60071D01*
X264921Y60500D01*
X264836Y60929D01*
X264714Y61112D01*
Y68204D01*
X273660Y77151D01*
X274155Y76961D01*
X274199Y76608D01*
X265895Y68305D01*
X265741Y68073D01*
X265686Y67800D01*
Y59413D01*
X265507Y59293D01*
X265264Y58929D01*
X265178Y58500D01*
X265264Y58071D01*
X265507Y57707D01*
X265871Y57464D01*
X266300Y57378D01*
X266729Y57464D01*
X267093Y57707D01*
X267336Y58071D01*
X267422Y58500D01*
X267336Y58929D01*
X267114Y59262D01*
Y65795D01*
X267614Y65947D01*
X267707Y65807D01*
X268071Y65564D01*
X268500Y65478D01*
X268929Y65564D01*
X269293Y65807D01*
X269536Y66171D01*
X269621Y66600D01*
X269586Y66777D01*
X276524Y73715D01*
X276986Y73524D01*
Y68096D01*
X273177Y64286D01*
X273000Y64322D01*
X272571Y64236D01*
X272207Y63993D01*
X271964Y63629D01*
X271879Y63200D01*
X271964Y62771D01*
X272207Y62407D01*
X272571Y62164D01*
X273000Y62078D01*
X273429Y62164D01*
X273793Y62407D01*
X274036Y62771D01*
X274121Y63200D01*
X274119Y63210D01*
X278205Y67295D01*
X278359Y67527D01*
X278414Y67800D01*
Y107528D01*
X278359Y107801D01*
X278205Y108033D01*
X199214Y187024D01*
Y240647D01*
X199567Y241000D01*
X303695Y241000D01*
X304032Y240500D01*
X303973Y240200D01*
X304081Y239654D01*
X304391Y239191D01*
X304854Y238881D01*
X305400Y238773D01*
X305946Y238881D01*
X306409Y239191D01*
X306719Y239654D01*
X306827Y240200D01*
X306768Y240500D01*
X307105Y241000D01*
X384800D01*
X384800Y9854D01*
X384446Y9500D01*
X62154Y9500D01*
X61800Y9854D01*
X61800Y241000D01*
X96200Y241000D01*
Y241000D01*
X96200Y241000D01*
X162986D01*
D02*
G37*
%LPC*%
G36*
X71221Y81800D02*
X67800D01*
Y78379D01*
X68332Y78449D01*
X69293Y78847D01*
X70119Y79481D01*
X70753Y80307D01*
X71151Y81268D01*
X71221Y81800D01*
D02*
G37*
G36*
X76800D02*
X73379D01*
X73449Y81268D01*
X73847Y80307D01*
X74481Y79481D01*
X75307Y78847D01*
X76268Y78449D01*
X76800Y78379D01*
Y81800D01*
D02*
G37*
G36*
X81221D02*
X77800D01*
Y78379D01*
X78332Y78449D01*
X79293Y78847D01*
X80119Y79481D01*
X80753Y80307D01*
X81151Y81268D01*
X81221Y81800D01*
D02*
G37*
G36*
X66800D02*
X63379D01*
X63449Y81268D01*
X63847Y80307D01*
X64481Y79481D01*
X65307Y78847D01*
X66268Y78449D01*
X66800Y78379D01*
Y81800D01*
D02*
G37*
G36*
X255900Y77522D02*
X255471Y77436D01*
X255107Y77193D01*
X254864Y76829D01*
X254779Y76400D01*
X254864Y75971D01*
X255107Y75607D01*
X255471Y75364D01*
X255900Y75278D01*
X256329Y75364D01*
X256693Y75607D01*
X256936Y75971D01*
X257021Y76400D01*
X256936Y76829D01*
X256693Y77193D01*
X256329Y77436D01*
X255900Y77522D01*
D02*
G37*
G36*
X134700Y78227D02*
X134154Y78119D01*
X133691Y77809D01*
X133381Y77346D01*
X133273Y76800D01*
X133381Y76254D01*
X133691Y75791D01*
X134154Y75481D01*
X134700Y75373D01*
X135246Y75481D01*
X135709Y75791D01*
X136019Y76254D01*
X136127Y76800D01*
X136019Y77346D01*
X135709Y77809D01*
X135246Y78119D01*
X134700Y78227D01*
D02*
G37*
G36*
X206400Y77622D02*
X205971Y77536D01*
X205607Y77293D01*
X205364Y76929D01*
X205278Y76500D01*
X205364Y76071D01*
X205607Y75707D01*
X205971Y75464D01*
X206400Y75378D01*
X206829Y75464D01*
X207193Y75707D01*
X207436Y76071D01*
X207522Y76500D01*
X207436Y76929D01*
X207193Y77293D01*
X206829Y77536D01*
X206400Y77622D01*
D02*
G37*
G36*
X254100Y84327D02*
X253554Y84219D01*
X253091Y83909D01*
X252781Y83446D01*
X252673Y82900D01*
X252781Y82354D01*
X253091Y81891D01*
X253554Y81581D01*
X254100Y81473D01*
X254646Y81581D01*
X255109Y81891D01*
X255419Y82354D01*
X255527Y82900D01*
X255419Y83446D01*
X255109Y83909D01*
X254646Y84219D01*
X254100Y84327D01*
D02*
G37*
G36*
X66800Y86221D02*
X66268Y86151D01*
X65307Y85753D01*
X64481Y85119D01*
X63847Y84293D01*
X63449Y83332D01*
X63379Y82800D01*
X66800D01*
Y86221D01*
D02*
G37*
G36*
X67800D02*
Y82800D01*
X71221D01*
X71151Y83332D01*
X70753Y84293D01*
X70119Y85119D01*
X69293Y85753D01*
X68332Y86151D01*
X67800Y86221D01*
D02*
G37*
G36*
X378021Y82300D02*
X374600D01*
Y78879D01*
X375132Y78949D01*
X376093Y79347D01*
X376919Y79981D01*
X377553Y80807D01*
X377951Y81768D01*
X378021Y82300D01*
D02*
G37*
G36*
X363600D02*
X360179D01*
X360249Y81768D01*
X360647Y80807D01*
X361281Y79981D01*
X362107Y79347D01*
X363068Y78949D01*
X363600Y78879D01*
Y82300D01*
D02*
G37*
G36*
X368021D02*
X364600D01*
Y78879D01*
X365132Y78949D01*
X366093Y79347D01*
X366919Y79981D01*
X367553Y80807D01*
X367951Y81768D01*
X368021Y82300D01*
D02*
G37*
G36*
X373600D02*
X370179D01*
X370249Y81768D01*
X370647Y80807D01*
X371281Y79981D01*
X372107Y79347D01*
X373068Y78949D01*
X373600Y78879D01*
Y82300D01*
D02*
G37*
G36*
X77300Y75682D02*
X76425Y75566D01*
X75609Y75229D01*
X74909Y74691D01*
X74371Y73991D01*
X74034Y73175D01*
X73918Y72300D01*
X74034Y71425D01*
X74371Y70609D01*
X74909Y69909D01*
X75609Y69371D01*
X76425Y69034D01*
X77300Y68918D01*
X78175Y69034D01*
X78991Y69371D01*
X79691Y69909D01*
X80229Y70609D01*
X80566Y71425D01*
X80682Y72300D01*
X80566Y73175D01*
X80229Y73991D01*
X79691Y74691D01*
X78991Y75229D01*
X78175Y75566D01*
X77300Y75682D01*
D02*
G37*
G36*
X374100Y76182D02*
X373225Y76066D01*
X372409Y75729D01*
X371709Y75191D01*
X371171Y74491D01*
X370834Y73675D01*
X370718Y72800D01*
X370834Y71925D01*
X371171Y71109D01*
X371709Y70409D01*
X372409Y69871D01*
X373225Y69534D01*
X374100Y69418D01*
X374975Y69534D01*
X375791Y69871D01*
X376491Y70409D01*
X377029Y71109D01*
X377366Y71925D01*
X377482Y72800D01*
X377366Y73675D01*
X377029Y74491D01*
X376491Y75191D01*
X375791Y75729D01*
X374975Y76066D01*
X374100Y76182D01*
D02*
G37*
G36*
X256200Y72522D02*
X255771Y72436D01*
X255407Y72193D01*
X255164Y71829D01*
X255079Y71400D01*
X255164Y70971D01*
X255407Y70607D01*
X255771Y70364D01*
X256200Y70278D01*
X256629Y70364D01*
X256993Y70607D01*
X257236Y70971D01*
X257322Y71400D01*
X257236Y71829D01*
X256993Y72193D01*
X256629Y72436D01*
X256200Y72522D01*
D02*
G37*
G36*
X368021Y72300D02*
X364600D01*
Y68879D01*
X365132Y68949D01*
X366093Y69347D01*
X366919Y69981D01*
X367553Y70807D01*
X367951Y71768D01*
X368021Y72300D01*
D02*
G37*
G36*
X66800Y71800D02*
X63379D01*
X63449Y71268D01*
X63847Y70307D01*
X64481Y69481D01*
X65307Y68847D01*
X66268Y68449D01*
X66800Y68379D01*
Y71800D01*
D02*
G37*
G36*
X71221D02*
X67800D01*
Y68379D01*
X68332Y68449D01*
X69293Y68847D01*
X70119Y69481D01*
X70753Y70307D01*
X71151Y71268D01*
X71221Y71800D01*
D02*
G37*
G36*
X363600Y72300D02*
X360179D01*
X360249Y71768D01*
X360647Y70807D01*
X361281Y69981D01*
X362107Y69347D01*
X363068Y68949D01*
X363600Y68879D01*
Y72300D01*
D02*
G37*
G36*
X223000Y68927D02*
X222454Y68819D01*
X221991Y68509D01*
X221681Y68046D01*
X221573Y67500D01*
X221681Y66954D01*
X221991Y66491D01*
X222454Y66181D01*
X223000Y66073D01*
X223546Y66181D01*
X224009Y66491D01*
X224319Y66954D01*
X224427Y67500D01*
X224319Y68046D01*
X224009Y68509D01*
X223546Y68819D01*
X223000Y68927D01*
D02*
G37*
G36*
X133400Y68222D02*
X132971Y68136D01*
X132607Y67893D01*
X132364Y67529D01*
X132278Y67100D01*
X132364Y66671D01*
X132607Y66307D01*
X132971Y66064D01*
X133400Y65978D01*
X133829Y66064D01*
X134193Y66307D01*
X134436Y66671D01*
X134522Y67100D01*
X134436Y67529D01*
X134193Y67893D01*
X133829Y68136D01*
X133400Y68222D01*
D02*
G37*
G36*
X235300Y68322D02*
X234871Y68236D01*
X234507Y67993D01*
X234327Y67724D01*
X234095Y67679D01*
X234005D01*
X233773Y67724D01*
X233593Y67993D01*
X233229Y68236D01*
X232800Y68322D01*
X232371Y68236D01*
X232007Y67993D01*
X231764Y67629D01*
X231679Y67200D01*
X231764Y66771D01*
X232007Y66407D01*
X232371Y66164D01*
X232760Y66086D01*
X236984Y61862D01*
Y45700D01*
X236984Y45700D01*
X237046Y45388D01*
X237223Y45123D01*
X255123Y27223D01*
X255123Y27223D01*
X255282Y27117D01*
X255388Y27046D01*
X255700Y26984D01*
X362566D01*
X362666Y26484D01*
X362107Y26253D01*
X361281Y25619D01*
X360647Y24793D01*
X360249Y23832D01*
X360179Y23300D01*
X368021D01*
X367951Y23832D01*
X367553Y24793D01*
X366919Y25619D01*
X366093Y26253D01*
X365534Y26484D01*
X365634Y26984D01*
X368762D01*
X371208Y24539D01*
X371171Y24491D01*
X370834Y23675D01*
X370718Y22800D01*
X370834Y21925D01*
X371171Y21109D01*
X371709Y20409D01*
X372409Y19871D01*
X373225Y19534D01*
X374100Y19418D01*
X374975Y19534D01*
X375791Y19871D01*
X376491Y20409D01*
X377029Y21109D01*
X377366Y21925D01*
X377482Y22800D01*
X377366Y23675D01*
X377029Y24491D01*
X376491Y25191D01*
X375791Y25729D01*
X374975Y26066D01*
X374100Y26182D01*
X373225Y26066D01*
X372409Y25729D01*
X372361Y25692D01*
X369677Y28377D01*
X369412Y28554D01*
X369100Y28616D01*
X369100Y28616D01*
X365634D01*
X365534Y29116D01*
X366093Y29347D01*
X366919Y29981D01*
X367553Y30807D01*
X367951Y31768D01*
X368021Y32300D01*
X360179D01*
X360249Y31768D01*
X360647Y30807D01*
X361281Y29981D01*
X362107Y29347D01*
X362666Y29116D01*
X362566Y28616D01*
X256038D01*
X238616Y46038D01*
Y61509D01*
X239116Y61785D01*
X239184Y61742D01*
Y47100D01*
X239184Y47100D01*
X239246Y46788D01*
X239423Y46523D01*
X248273Y37673D01*
X248538Y37496D01*
X248850Y37434D01*
X248850Y37434D01*
X368312D01*
X371208Y34538D01*
X371171Y34491D01*
X370834Y33675D01*
X370718Y32800D01*
X370834Y31925D01*
X371171Y31109D01*
X371709Y30409D01*
X372409Y29871D01*
X373225Y29534D01*
X374100Y29418D01*
X374975Y29534D01*
X375791Y29871D01*
X376491Y30409D01*
X377029Y31109D01*
X377366Y31925D01*
X377482Y32800D01*
X377366Y33675D01*
X377029Y34491D01*
X376491Y35191D01*
X375791Y35729D01*
X374975Y36066D01*
X374100Y36182D01*
X373225Y36066D01*
X372409Y35729D01*
X372361Y35692D01*
X369227Y38827D01*
X368962Y39004D01*
X368650Y39066D01*
X368650Y39066D01*
X366548D01*
X366378Y39566D01*
X366919Y39981D01*
X367553Y40807D01*
X367951Y41768D01*
X368021Y42300D01*
X360179D01*
X360249Y41768D01*
X360647Y40807D01*
X361281Y39981D01*
X361822Y39566D01*
X361652Y39066D01*
X249188D01*
X240816Y47438D01*
Y62500D01*
X240754Y62812D01*
X240683Y62918D01*
X240577Y63077D01*
X240577Y63077D01*
X236414Y67240D01*
X236336Y67629D01*
X236093Y67993D01*
X235729Y68236D01*
X235300Y68322D01*
D02*
G37*
G36*
X364600Y76721D02*
Y73300D01*
X368021D01*
X367951Y73832D01*
X367553Y74793D01*
X366919Y75619D01*
X366093Y76253D01*
X365132Y76651D01*
X364600Y76721D01*
D02*
G37*
G36*
X66800Y76221D02*
X66268Y76151D01*
X65307Y75753D01*
X64481Y75119D01*
X63847Y74293D01*
X63449Y73332D01*
X63379Y72800D01*
X66800D01*
Y76221D01*
D02*
G37*
G36*
X67800D02*
Y72800D01*
X71221D01*
X71151Y73332D01*
X70753Y74293D01*
X70119Y75119D01*
X69293Y75753D01*
X68332Y76151D01*
X67800Y76221D01*
D02*
G37*
G36*
X363600Y76721D02*
X363068Y76651D01*
X362107Y76253D01*
X361281Y75619D01*
X360647Y74793D01*
X360249Y73832D01*
X360179Y73300D01*
X363600D01*
Y76721D01*
D02*
G37*
G36*
X76800Y86221D02*
X76268Y86151D01*
X75307Y85753D01*
X74481Y85119D01*
X73847Y84293D01*
X73449Y83332D01*
X73379Y82800D01*
X76800D01*
Y86221D01*
D02*
G37*
G36*
X364600Y96721D02*
Y93300D01*
X368021D01*
X367951Y93832D01*
X367553Y94793D01*
X366919Y95619D01*
X366093Y96253D01*
X365132Y96651D01*
X364600Y96721D01*
D02*
G37*
G36*
X196100Y99442D02*
X195768Y99376D01*
X195487Y99188D01*
X195299Y98907D01*
X195233Y98575D01*
X195299Y98243D01*
X195487Y97962D01*
X195614Y97878D01*
X195627Y97838D01*
Y97362D01*
X195614Y97322D01*
X195487Y97238D01*
X195299Y96957D01*
X195233Y96625D01*
X195299Y96293D01*
X195487Y96012D01*
X195768Y95824D01*
X196100Y95758D01*
X196432Y95824D01*
X196713Y96012D01*
X196901Y96293D01*
X196967Y96625D01*
X196901Y96957D01*
X196713Y97238D01*
X196587Y97322D01*
X196573Y97362D01*
Y97838D01*
X196587Y97878D01*
X196713Y97962D01*
X196901Y98243D01*
X196967Y98575D01*
X196901Y98907D01*
X196713Y99188D01*
X196432Y99376D01*
X196100Y99442D01*
D02*
G37*
G36*
X66800Y101800D02*
X63379D01*
X63449Y101268D01*
X63847Y100307D01*
X64481Y99481D01*
X65307Y98847D01*
X66268Y98449D01*
X66800Y98379D01*
Y101800D01*
D02*
G37*
G36*
X363600Y96721D02*
X363068Y96651D01*
X362107Y96253D01*
X361281Y95619D01*
X360647Y94793D01*
X360249Y93832D01*
X360179Y93300D01*
X363600D01*
Y96721D01*
D02*
G37*
G36*
X259100Y95427D02*
X258554Y95319D01*
X258091Y95009D01*
X257781Y94546D01*
X257673Y94000D01*
X257781Y93454D01*
X258091Y92991D01*
X258554Y92681D01*
X259100Y92573D01*
X259646Y92681D01*
X260109Y92991D01*
X260419Y93454D01*
X260527Y94000D01*
X260419Y94546D01*
X260109Y95009D01*
X259646Y95319D01*
X259100Y95427D01*
D02*
G37*
G36*
X66800Y96221D02*
X66268Y96151D01*
X65307Y95753D01*
X64481Y95119D01*
X63847Y94293D01*
X63449Y93332D01*
X63379Y92800D01*
X66800D01*
Y96221D01*
D02*
G37*
G36*
X67800D02*
Y92800D01*
X71221D01*
X71151Y93332D01*
X70753Y94293D01*
X70119Y95119D01*
X69293Y95753D01*
X68332Y96151D01*
X67800Y96221D01*
D02*
G37*
G36*
X374100Y106182D02*
X373225Y106067D01*
X372409Y105729D01*
X371709Y105191D01*
X371171Y104491D01*
X370834Y103675D01*
X370718Y102800D01*
X370834Y101925D01*
X371171Y101109D01*
X371709Y100409D01*
X372409Y99871D01*
X373225Y99534D01*
X374100Y99418D01*
X374975Y99534D01*
X375791Y99871D01*
X376491Y100409D01*
X377029Y101109D01*
X377366Y101925D01*
X377482Y102800D01*
X377366Y103675D01*
X377029Y104491D01*
X376491Y105191D01*
X375791Y105729D01*
X374975Y106067D01*
X374100Y106182D01*
D02*
G37*
G36*
X252500Y104422D02*
X252071Y104336D01*
X251707Y104093D01*
X251464Y103729D01*
X251378Y103300D01*
X251464Y102871D01*
X251707Y102507D01*
X252071Y102264D01*
X252500Y102178D01*
X252929Y102264D01*
X253293Y102507D01*
X253536Y102871D01*
X253622Y103300D01*
X253536Y103729D01*
X253293Y104093D01*
X252929Y104336D01*
X252500Y104422D01*
D02*
G37*
G36*
X66800Y106221D02*
X66268Y106151D01*
X65307Y105753D01*
X64481Y105119D01*
X63847Y104293D01*
X63449Y103332D01*
X63379Y102800D01*
X66800D01*
Y106221D01*
D02*
G37*
G36*
X77300Y105682D02*
X76425Y105567D01*
X75609Y105229D01*
X74909Y104691D01*
X74371Y103991D01*
X74034Y103175D01*
X73918Y102300D01*
X74034Y101425D01*
X74371Y100609D01*
X74909Y99909D01*
X75609Y99371D01*
X76425Y99034D01*
X77300Y98918D01*
X78175Y99034D01*
X78991Y99371D01*
X79691Y99909D01*
X80229Y100609D01*
X80566Y101425D01*
X80682Y102300D01*
X80566Y103175D01*
X80229Y103991D01*
X79691Y104691D01*
X78991Y105229D01*
X78175Y105567D01*
X77300Y105682D01*
D02*
G37*
G36*
X71221Y101800D02*
X67800D01*
Y98379D01*
X68332Y98449D01*
X69293Y98847D01*
X70119Y99481D01*
X70753Y100307D01*
X71151Y101268D01*
X71221Y101800D01*
D02*
G37*
G36*
X363600Y102300D02*
X360179D01*
X360249Y101768D01*
X360647Y100807D01*
X361281Y99981D01*
X362107Y99347D01*
X363068Y98949D01*
X363600Y98879D01*
Y102300D01*
D02*
G37*
G36*
X368021D02*
X364600D01*
Y98879D01*
X365132Y98949D01*
X366093Y99347D01*
X366919Y99981D01*
X367553Y100807D01*
X367951Y101768D01*
X368021Y102300D01*
D02*
G37*
G36*
X374100Y96182D02*
X373225Y96066D01*
X372409Y95729D01*
X371709Y95191D01*
X371171Y94491D01*
X370834Y93675D01*
X370718Y92800D01*
X370834Y91925D01*
X371171Y91109D01*
X371709Y90409D01*
X372409Y89871D01*
X373225Y89534D01*
X374100Y89418D01*
X374975Y89534D01*
X375791Y89871D01*
X376491Y90409D01*
X377029Y91109D01*
X377366Y91925D01*
X377482Y92800D01*
X377366Y93675D01*
X377029Y94491D01*
X376491Y95191D01*
X375791Y95729D01*
X374975Y96066D01*
X374100Y96182D01*
D02*
G37*
G36*
X374600Y86721D02*
Y83300D01*
X378021D01*
X377951Y83832D01*
X377553Y84793D01*
X376919Y85619D01*
X376093Y86253D01*
X375132Y86651D01*
X374600Y86721D01*
D02*
G37*
G36*
X66800Y91800D02*
X63379D01*
X63449Y91268D01*
X63847Y90307D01*
X64481Y89481D01*
X65307Y88847D01*
X66268Y88449D01*
X66800Y88379D01*
Y91800D01*
D02*
G37*
G36*
X71221D02*
X67800D01*
Y88379D01*
X68332Y88449D01*
X69293Y88847D01*
X70119Y89481D01*
X70753Y90307D01*
X71151Y91268D01*
X71221Y91800D01*
D02*
G37*
G36*
X373600Y86721D02*
X373068Y86651D01*
X372107Y86253D01*
X371281Y85619D01*
X370647Y84793D01*
X370249Y83832D01*
X370179Y83300D01*
X373600D01*
Y86721D01*
D02*
G37*
G36*
X77800Y86221D02*
Y82800D01*
X81221D01*
X81151Y83332D01*
X80753Y84293D01*
X80119Y85119D01*
X79293Y85753D01*
X78332Y86151D01*
X77800Y86221D01*
D02*
G37*
G36*
X363600Y86721D02*
X363068Y86651D01*
X362107Y86253D01*
X361281Y85619D01*
X360647Y84793D01*
X360249Y83832D01*
X360179Y83300D01*
X363600D01*
Y86721D01*
D02*
G37*
G36*
X364600D02*
Y83300D01*
X368021D01*
X367951Y83832D01*
X367553Y84793D01*
X366919Y85619D01*
X366093Y86253D01*
X365132Y86651D01*
X364600Y86721D01*
D02*
G37*
G36*
X368021Y92300D02*
X364600D01*
Y88879D01*
X365132Y88949D01*
X366093Y89347D01*
X366919Y89981D01*
X367553Y90807D01*
X367951Y91768D01*
X368021Y92300D01*
D02*
G37*
G36*
X77300Y95682D02*
X76425Y95566D01*
X75609Y95229D01*
X74909Y94691D01*
X74371Y93991D01*
X74034Y93175D01*
X73918Y92300D01*
X74034Y91425D01*
X74371Y90609D01*
X74909Y89909D01*
X75609Y89371D01*
X76425Y89034D01*
X77300Y88918D01*
X78175Y89034D01*
X78991Y89371D01*
X79691Y89909D01*
X80229Y90609D01*
X80566Y91425D01*
X80682Y92300D01*
X80566Y93175D01*
X80229Y93991D01*
X79691Y94691D01*
X78991Y95229D01*
X78175Y95566D01*
X77300Y95682D01*
D02*
G37*
G36*
X210400Y92917D02*
X210068Y92851D01*
X209787Y92663D01*
X209599Y92382D01*
X209533Y92050D01*
X209599Y91718D01*
X209787Y91437D01*
X209870Y91382D01*
Y90818D01*
X209787Y90763D01*
X209599Y90482D01*
X209533Y90150D01*
X209599Y89818D01*
X209787Y89537D01*
X210068Y89349D01*
X210400Y89283D01*
X210732Y89349D01*
X211013Y89537D01*
X211201Y89818D01*
X211267Y90150D01*
X211201Y90482D01*
X211013Y90763D01*
X210930Y90818D01*
Y91382D01*
X211013Y91437D01*
X211201Y91718D01*
X211267Y92050D01*
X211201Y92382D01*
X211013Y92663D01*
X210732Y92851D01*
X210400Y92917D01*
D02*
G37*
G36*
X363600Y92300D02*
X360179D01*
X360249Y91768D01*
X360647Y90807D01*
X361281Y89981D01*
X362107Y89347D01*
X363068Y88949D01*
X363600Y88879D01*
Y92300D01*
D02*
G37*
G36*
X138100Y90822D02*
X137671Y90736D01*
X137307Y90493D01*
X137064Y90129D01*
X136978Y89700D01*
X137064Y89271D01*
X137307Y88907D01*
X137671Y88664D01*
X138100Y88578D01*
X138529Y88664D01*
X138893Y88907D01*
X139136Y89271D01*
X139222Y89700D01*
X139136Y90129D01*
X138893Y90493D01*
X138529Y90736D01*
X138100Y90822D01*
D02*
G37*
G36*
X132000Y91727D02*
X131454Y91619D01*
X130991Y91309D01*
X130681Y90846D01*
X130573Y90300D01*
X130681Y89754D01*
X130991Y89291D01*
X131454Y88981D01*
X132000Y88873D01*
X132546Y88981D01*
X133009Y89291D01*
X133319Y89754D01*
X133427Y90300D01*
X133319Y90846D01*
X133009Y91309D01*
X132546Y91619D01*
X132000Y91727D01*
D02*
G37*
G36*
X255100Y97222D02*
X254671Y97136D01*
X254307Y96893D01*
X254064Y96529D01*
X253978Y96100D01*
X254064Y95671D01*
X254307Y95307D01*
X254671Y95064D01*
X254769Y94534D01*
X254707Y94493D01*
X254464Y94129D01*
X254379Y93700D01*
X254396Y93612D01*
X254316Y93201D01*
X254033Y93068D01*
X253871Y93036D01*
X253507Y92793D01*
X253264Y92429D01*
X253179Y92000D01*
X253264Y91571D01*
X253507Y91207D01*
X253282Y90756D01*
X253064Y90429D01*
X252978Y90000D01*
X253064Y89571D01*
X253307Y89207D01*
X253671Y88964D01*
X254100Y88878D01*
X254529Y88964D01*
X254893Y89207D01*
X255136Y89571D01*
X255222Y90000D01*
X255136Y90429D01*
X254893Y90793D01*
X255118Y91244D01*
X255336Y91571D01*
X255421Y92000D01*
X255404Y92088D01*
X255484Y92499D01*
X255767Y92632D01*
X255929Y92664D01*
X256293Y92907D01*
X256536Y93271D01*
X256622Y93700D01*
X256536Y94129D01*
X256293Y94493D01*
X255929Y94736D01*
X255831Y95266D01*
X255893Y95307D01*
X256136Y95671D01*
X256222Y96100D01*
X256136Y96529D01*
X255893Y96893D01*
X255529Y97136D01*
X255100Y97222D01*
D02*
G37*
G36*
X215700Y68727D02*
X215154Y68619D01*
X214691Y68309D01*
X214381Y67846D01*
X214273Y67300D01*
X214381Y66754D01*
X214691Y66291D01*
X215154Y65981D01*
X215700Y65873D01*
X216246Y65981D01*
X216709Y66291D01*
X217019Y66754D01*
X217127Y67300D01*
X217019Y67846D01*
X216709Y68309D01*
X216246Y68619D01*
X215700Y68727D01*
D02*
G37*
G36*
X66800Y41800D02*
X63379D01*
X63449Y41268D01*
X63847Y40307D01*
X64481Y39481D01*
X65307Y38847D01*
X66268Y38449D01*
X66800Y38379D01*
Y41800D01*
D02*
G37*
G36*
X71221D02*
X67800D01*
Y38379D01*
X68332Y38449D01*
X69293Y38847D01*
X70119Y39481D01*
X70753Y40307D01*
X71151Y41268D01*
X71221Y41800D01*
D02*
G37*
G36*
X77300Y45682D02*
X76425Y45566D01*
X75609Y45229D01*
X74909Y44691D01*
X74371Y43991D01*
X74034Y43175D01*
X73918Y42300D01*
X74034Y41425D01*
X74371Y40609D01*
X74909Y39909D01*
X75609Y39371D01*
X76425Y39034D01*
X77300Y38918D01*
X78175Y39034D01*
X78991Y39371D01*
X79691Y39909D01*
X80229Y40609D01*
X80566Y41425D01*
X80682Y42300D01*
X80566Y43175D01*
X80229Y43991D01*
X79691Y44691D01*
X78991Y45229D01*
X78175Y45566D01*
X77300Y45682D01*
D02*
G37*
G36*
X223400Y40127D02*
X222854Y40019D01*
X222391Y39709D01*
X222081Y39246D01*
X221973Y38700D01*
X222081Y38154D01*
X222391Y37691D01*
X222854Y37381D01*
X223400Y37273D01*
X223946Y37381D01*
X224409Y37691D01*
X224719Y38154D01*
X224827Y38700D01*
X224719Y39246D01*
X224409Y39709D01*
X223946Y40019D01*
X223400Y40127D01*
D02*
G37*
G36*
X363600Y36721D02*
X363068Y36651D01*
X362107Y36253D01*
X361281Y35619D01*
X360647Y34793D01*
X360249Y33832D01*
X360179Y33300D01*
X363600D01*
Y36721D01*
D02*
G37*
G36*
X364600D02*
Y33300D01*
X368021D01*
X367951Y33832D01*
X367553Y34793D01*
X366919Y35619D01*
X366093Y36253D01*
X365132Y36651D01*
X364600Y36721D01*
D02*
G37*
G36*
X229800Y38027D02*
X229254Y37919D01*
X228791Y37609D01*
X228481Y37146D01*
X228373Y36600D01*
X228481Y36054D01*
X228791Y35591D01*
X229254Y35281D01*
X229800Y35173D01*
X230346Y35281D01*
X230809Y35591D01*
X231119Y36054D01*
X231227Y36600D01*
X231119Y37146D01*
X230809Y37609D01*
X230346Y37919D01*
X229800Y38027D01*
D02*
G37*
G36*
X363600Y46721D02*
X363068Y46651D01*
X362107Y46253D01*
X361281Y45619D01*
X360647Y44793D01*
X360249Y43832D01*
X360179Y43300D01*
X363600D01*
Y46721D01*
D02*
G37*
G36*
X364600D02*
Y43300D01*
X368021D01*
X367951Y43832D01*
X367553Y44793D01*
X366919Y45619D01*
X366093Y46253D01*
X365132Y46651D01*
X364600Y46721D01*
D02*
G37*
G36*
X183800Y46727D02*
X183254Y46619D01*
X182791Y46309D01*
X182481Y45846D01*
X182373Y45300D01*
X182481Y44754D01*
X182791Y44291D01*
X183254Y43981D01*
X183800Y43873D01*
X184346Y43981D01*
X184809Y44291D01*
X185119Y44754D01*
X185227Y45300D01*
X185119Y45846D01*
X184809Y46309D01*
X184346Y46619D01*
X183800Y46727D01*
D02*
G37*
G36*
X67800Y46221D02*
Y42800D01*
X71221D01*
X71151Y43332D01*
X70753Y44293D01*
X70119Y45119D01*
X69293Y45753D01*
X68332Y46151D01*
X67800Y46221D01*
D02*
G37*
G36*
X212600Y42027D02*
X212054Y41919D01*
X211591Y41609D01*
X211281Y41146D01*
X211173Y40600D01*
X211281Y40054D01*
X211591Y39591D01*
X212054Y39281D01*
X212600Y39173D01*
X213146Y39281D01*
X213609Y39591D01*
X213919Y40054D01*
X214027Y40600D01*
X213919Y41146D01*
X213609Y41609D01*
X213146Y41919D01*
X212600Y42027D01*
D02*
G37*
G36*
X374100Y46182D02*
X373225Y46066D01*
X372409Y45729D01*
X371709Y45191D01*
X371171Y44491D01*
X370834Y43675D01*
X370718Y42800D01*
X370834Y41925D01*
X371171Y41109D01*
X371709Y40409D01*
X372409Y39871D01*
X373225Y39534D01*
X374100Y39418D01*
X374975Y39534D01*
X375791Y39871D01*
X376491Y40409D01*
X377029Y41109D01*
X377366Y41925D01*
X377482Y42800D01*
X377366Y43675D01*
X377029Y44491D01*
X376491Y45191D01*
X375791Y45729D01*
X374975Y46066D01*
X374100Y46182D01*
D02*
G37*
G36*
X66800Y46221D02*
X66268Y46151D01*
X65307Y45753D01*
X64481Y45119D01*
X63847Y44293D01*
X63449Y43332D01*
X63379Y42800D01*
X66800D01*
Y46221D01*
D02*
G37*
G36*
X67800Y36221D02*
Y32800D01*
X71221D01*
X71151Y33332D01*
X70753Y34293D01*
X70119Y35119D01*
X69293Y35753D01*
X68332Y36151D01*
X67800Y36221D01*
D02*
G37*
G36*
X77300Y25682D02*
X76425Y25567D01*
X75609Y25229D01*
X74909Y24691D01*
X74371Y23991D01*
X74034Y23175D01*
X73918Y22300D01*
X74034Y21425D01*
X74371Y20609D01*
X74909Y19909D01*
X75609Y19371D01*
X76425Y19034D01*
X77300Y18918D01*
X78175Y19034D01*
X78991Y19371D01*
X79691Y19909D01*
X80229Y20609D01*
X80566Y21425D01*
X80682Y22300D01*
X80566Y23175D01*
X80229Y23991D01*
X79691Y24691D01*
X78991Y25229D01*
X78175Y25567D01*
X77300Y25682D01*
D02*
G37*
G36*
X66800Y26221D02*
X66268Y26151D01*
X65307Y25753D01*
X64481Y25119D01*
X63847Y24293D01*
X63449Y23332D01*
X63379Y22800D01*
X66800D01*
Y26221D01*
D02*
G37*
G36*
X67800D02*
Y22800D01*
X71221D01*
X71151Y23332D01*
X70753Y24293D01*
X70119Y25119D01*
X69293Y25753D01*
X68332Y26151D01*
X67800Y26221D01*
D02*
G37*
G36*
X368021Y22300D02*
X364600D01*
Y18879D01*
X365132Y18949D01*
X366093Y19347D01*
X366919Y19981D01*
X367553Y20807D01*
X367951Y21768D01*
X368021Y22300D01*
D02*
G37*
G36*
X66800Y21800D02*
X63379D01*
X63449Y21268D01*
X63847Y20307D01*
X64481Y19481D01*
X65307Y18847D01*
X66268Y18449D01*
X66800Y18379D01*
Y21800D01*
D02*
G37*
G36*
X71221D02*
X67800D01*
Y18379D01*
X68332Y18449D01*
X69293Y18847D01*
X70119Y19481D01*
X70753Y20307D01*
X71151Y21268D01*
X71221Y21800D01*
D02*
G37*
G36*
X363600Y22300D02*
X360179D01*
X360249Y21768D01*
X360647Y20807D01*
X361281Y19981D01*
X362107Y19347D01*
X363068Y18949D01*
X363600Y18879D01*
Y22300D01*
D02*
G37*
G36*
X71221Y31800D02*
X67800D01*
Y28379D01*
X68332Y28449D01*
X69293Y28847D01*
X70119Y29481D01*
X70753Y30307D01*
X71151Y31268D01*
X71221Y31800D01*
D02*
G37*
G36*
X77300Y35682D02*
X76425Y35566D01*
X75609Y35229D01*
X74909Y34691D01*
X74371Y33991D01*
X74034Y33175D01*
X73918Y32300D01*
X74034Y31425D01*
X74371Y30609D01*
X74909Y29909D01*
X75609Y29371D01*
X76425Y29034D01*
X77300Y28918D01*
X78175Y29034D01*
X78991Y29371D01*
X79691Y29909D01*
X80229Y30609D01*
X80566Y31425D01*
X80682Y32300D01*
X80566Y33175D01*
X80229Y33991D01*
X79691Y34691D01*
X78991Y35229D01*
X78175Y35566D01*
X77300Y35682D01*
D02*
G37*
G36*
X66800Y36221D02*
X66268Y36151D01*
X65307Y35753D01*
X64481Y35119D01*
X63847Y34293D01*
X63449Y33332D01*
X63379Y32800D01*
X66800D01*
Y36221D01*
D02*
G37*
G36*
Y31800D02*
X63379D01*
X63449Y31268D01*
X63847Y30307D01*
X64481Y29481D01*
X65307Y28847D01*
X66268Y28449D01*
X66800Y28379D01*
Y31800D01*
D02*
G37*
G36*
X178300Y26227D02*
X177754Y26119D01*
X177291Y25809D01*
X176981Y25346D01*
X176873Y24800D01*
X176981Y24254D01*
X177291Y23791D01*
X177754Y23481D01*
X178300Y23373D01*
X178846Y23481D01*
X179309Y23791D01*
X179619Y24254D01*
X179727Y24800D01*
X179619Y25346D01*
X179309Y25809D01*
X178846Y26119D01*
X178300Y26227D01*
D02*
G37*
G36*
X229100Y26627D02*
X228554Y26519D01*
X228091Y26209D01*
X227781Y25746D01*
X227673Y25200D01*
X227781Y24654D01*
X228091Y24191D01*
X228554Y23881D01*
X229100Y23773D01*
X229646Y23881D01*
X230109Y24191D01*
X230419Y24654D01*
X230527Y25200D01*
X230419Y25746D01*
X230109Y26209D01*
X229646Y26519D01*
X229100Y26627D01*
D02*
G37*
G36*
X252700Y26727D02*
X252154Y26619D01*
X251691Y26309D01*
X251381Y25846D01*
X251273Y25300D01*
X251381Y24754D01*
X251691Y24291D01*
X252154Y23981D01*
X252700Y23873D01*
X253246Y23981D01*
X253709Y24291D01*
X254019Y24754D01*
X254127Y25300D01*
X254019Y25846D01*
X253709Y26309D01*
X253246Y26619D01*
X252700Y26727D01*
D02*
G37*
G36*
X176100Y47327D02*
X175554Y47219D01*
X175091Y46909D01*
X174781Y46446D01*
X174673Y45900D01*
X174781Y45354D01*
X175091Y44891D01*
X175554Y44581D01*
X176100Y44473D01*
X176646Y44581D01*
X177109Y44891D01*
X177419Y45354D01*
X177527Y45900D01*
X177419Y46446D01*
X177109Y46909D01*
X176646Y47219D01*
X176100Y47327D01*
D02*
G37*
G36*
X230900Y66122D02*
X230471Y66036D01*
X230107Y65793D01*
X229864Y65429D01*
X229779Y65000D01*
X229864Y64571D01*
X230107Y64207D01*
X230471Y63964D01*
X230900Y63878D01*
X231171Y63932D01*
X231340Y63814D01*
X231515Y63622D01*
X231560Y63539D01*
X231473Y63100D01*
X231581Y62554D01*
X231891Y62091D01*
X232354Y61781D01*
X232900Y61673D01*
X233446Y61781D01*
X233909Y62091D01*
X234219Y62554D01*
X234327Y63100D01*
X234219Y63646D01*
X233909Y64109D01*
X233446Y64419D01*
X232900Y64527D01*
X232396Y64427D01*
X232211Y64551D01*
X231975Y64767D01*
X232021Y65000D01*
X231936Y65429D01*
X231693Y65793D01*
X231329Y66036D01*
X230900Y66122D01*
D02*
G37*
G36*
X66800Y66221D02*
X66268Y66151D01*
X65307Y65753D01*
X64481Y65119D01*
X63847Y64293D01*
X63449Y63332D01*
X63379Y62800D01*
X66800D01*
Y66221D01*
D02*
G37*
G36*
X67800D02*
Y62800D01*
X71221D01*
X71151Y63332D01*
X70753Y64293D01*
X70119Y65119D01*
X69293Y65753D01*
X68332Y66151D01*
X67800Y66221D01*
D02*
G37*
G36*
X171200Y63527D02*
X170654Y63419D01*
X170191Y63109D01*
X169881Y62646D01*
X169773Y62100D01*
X169881Y61554D01*
X170191Y61091D01*
X170654Y60781D01*
X171200Y60673D01*
X171746Y60781D01*
X172209Y61091D01*
X172519Y61554D01*
X172627Y62100D01*
X172519Y62646D01*
X172209Y63109D01*
X171746Y63419D01*
X171200Y63527D01*
D02*
G37*
G36*
X374100Y66182D02*
X373225Y66066D01*
X372409Y65729D01*
X371709Y65191D01*
X371171Y64491D01*
X370834Y63675D01*
X370718Y62800D01*
X370834Y61925D01*
X371171Y61109D01*
X371709Y60409D01*
X372409Y59871D01*
X373225Y59534D01*
X374100Y59418D01*
X374975Y59534D01*
X375791Y59871D01*
X376491Y60409D01*
X377029Y61109D01*
X377366Y61925D01*
X377482Y62800D01*
X377366Y63675D01*
X377029Y64491D01*
X376491Y65191D01*
X375791Y65729D01*
X374975Y66066D01*
X374100Y66182D01*
D02*
G37*
G36*
X226200Y62622D02*
X225771Y62536D01*
X225407Y62293D01*
X225164Y61929D01*
X225079Y61500D01*
X225164Y61071D01*
X225407Y60707D01*
X225771Y60464D01*
X226200Y60378D01*
X226629Y60464D01*
X226993Y60707D01*
X227236Y61071D01*
X227322Y61500D01*
X227236Y61929D01*
X226993Y62293D01*
X226629Y62536D01*
X226200Y62622D01*
D02*
G37*
G36*
X160300Y63427D02*
X159754Y63319D01*
X159291Y63009D01*
X158981Y62546D01*
X158873Y62000D01*
X158981Y61454D01*
X159291Y60991D01*
X159754Y60681D01*
X160300Y60573D01*
X160846Y60681D01*
X161309Y60991D01*
X161619Y61454D01*
X161727Y62000D01*
X161619Y62546D01*
X161309Y63009D01*
X160846Y63319D01*
X160300Y63427D01*
D02*
G37*
G36*
X220100Y67522D02*
X219671Y67436D01*
X219307Y67193D01*
X219064Y66829D01*
X218979Y66400D01*
X219064Y65971D01*
X219307Y65607D01*
X219671Y65364D01*
X220100Y65278D01*
X220529Y65364D01*
X220893Y65607D01*
X221136Y65971D01*
X221221Y66400D01*
X221136Y66829D01*
X220893Y67193D01*
X220529Y67436D01*
X220100Y67522D01*
D02*
G37*
G36*
X176900Y68527D02*
X176354Y68419D01*
X175891Y68109D01*
X175581Y67646D01*
X175473Y67100D01*
X175581Y66554D01*
X175891Y66091D01*
X176354Y65781D01*
X176900Y65673D01*
X177446Y65781D01*
X177909Y66091D01*
X178219Y66554D01*
X178327Y67100D01*
X178219Y67646D01*
X177909Y68109D01*
X177446Y68419D01*
X176900Y68527D01*
D02*
G37*
G36*
X226800D02*
X226254Y68419D01*
X225791Y68109D01*
X225481Y67646D01*
X225373Y67100D01*
X225481Y66554D01*
X225791Y66091D01*
X226254Y65781D01*
X226800Y65673D01*
X227346Y65781D01*
X227809Y66091D01*
X228119Y66554D01*
X228227Y67100D01*
X228119Y67646D01*
X227809Y68109D01*
X227346Y68419D01*
X226800Y68527D01*
D02*
G37*
G36*
X166800Y67122D02*
X166371Y67036D01*
X166007Y66793D01*
X165764Y66429D01*
X165678Y66000D01*
X165764Y65571D01*
X166007Y65207D01*
X166371Y64964D01*
X166800Y64878D01*
X167229Y64964D01*
X167593Y65207D01*
X167836Y65571D01*
X167922Y66000D01*
X167836Y66429D01*
X167593Y66793D01*
X167229Y67036D01*
X166800Y67122D01*
D02*
G37*
G36*
X363600Y66721D02*
X363068Y66651D01*
X362107Y66253D01*
X361281Y65619D01*
X360647Y64793D01*
X360249Y63832D01*
X360179Y63300D01*
X363600D01*
Y66721D01*
D02*
G37*
G36*
X364600D02*
Y63300D01*
X368021D01*
X367951Y63832D01*
X367553Y64793D01*
X366919Y65619D01*
X366093Y66253D01*
X365132Y66651D01*
X364600Y66721D01*
D02*
G37*
G36*
X162700Y66022D02*
X162271Y65936D01*
X161907Y65693D01*
X161664Y65329D01*
X161578Y64900D01*
X161664Y64471D01*
X161907Y64107D01*
X162271Y63864D01*
X162700Y63778D01*
X163129Y63864D01*
X163493Y64107D01*
X163736Y64471D01*
X163822Y64900D01*
X163736Y65329D01*
X163493Y65693D01*
X163129Y65936D01*
X162700Y66022D01*
D02*
G37*
G36*
X77300Y65682D02*
X76425Y65566D01*
X75609Y65229D01*
X74909Y64691D01*
X74371Y63991D01*
X74034Y63175D01*
X73918Y62300D01*
X74034Y61425D01*
X74371Y60609D01*
X74909Y59909D01*
X75609Y59371D01*
X76425Y59034D01*
X77300Y58918D01*
X78175Y59034D01*
X78991Y59371D01*
X79691Y59909D01*
X80229Y60609D01*
X80566Y61425D01*
X80682Y62300D01*
X80566Y63175D01*
X80229Y63991D01*
X79691Y64691D01*
X78991Y65229D01*
X78175Y65566D01*
X77300Y65682D01*
D02*
G37*
G36*
Y55682D02*
X76425Y55566D01*
X75609Y55229D01*
X74909Y54691D01*
X74371Y53991D01*
X74034Y53175D01*
X73918Y52300D01*
X74034Y51425D01*
X74371Y50609D01*
X74909Y49909D01*
X75609Y49371D01*
X76425Y49034D01*
X77300Y48918D01*
X78175Y49034D01*
X78991Y49371D01*
X79691Y49909D01*
X80229Y50609D01*
X80566Y51425D01*
X80682Y52300D01*
X80566Y53175D01*
X80229Y53991D01*
X79691Y54691D01*
X78991Y55229D01*
X78175Y55566D01*
X77300Y55682D01*
D02*
G37*
G36*
X374100Y56182D02*
X373225Y56066D01*
X372409Y55729D01*
X371709Y55191D01*
X371171Y54491D01*
X370834Y53675D01*
X370718Y52800D01*
X370834Y51925D01*
X371171Y51109D01*
X371709Y50409D01*
X372409Y49871D01*
X373225Y49534D01*
X374100Y49418D01*
X374975Y49534D01*
X375791Y49871D01*
X376491Y50409D01*
X377029Y51109D01*
X377366Y51925D01*
X377482Y52800D01*
X377366Y53675D01*
X377029Y54491D01*
X376491Y55191D01*
X375791Y55729D01*
X374975Y56066D01*
X374100Y56182D01*
D02*
G37*
G36*
X66800Y56221D02*
X66268Y56151D01*
X65307Y55753D01*
X64481Y55119D01*
X63847Y54293D01*
X63449Y53332D01*
X63379Y52800D01*
X66800D01*
Y56221D01*
D02*
G37*
G36*
X368021Y52300D02*
X364600D01*
Y48879D01*
X365132Y48949D01*
X366093Y49347D01*
X366919Y49981D01*
X367553Y50807D01*
X367951Y51768D01*
X368021Y52300D01*
D02*
G37*
G36*
X66800Y51800D02*
X63379D01*
X63449Y51268D01*
X63847Y50307D01*
X64481Y49481D01*
X65307Y48847D01*
X66268Y48449D01*
X66800Y48379D01*
Y51800D01*
D02*
G37*
G36*
X71221D02*
X67800D01*
Y48379D01*
X68332Y48449D01*
X69293Y48847D01*
X70119Y49481D01*
X70753Y50307D01*
X71151Y51268D01*
X71221Y51800D01*
D02*
G37*
G36*
X363600Y52300D02*
X360179D01*
X360249Y51768D01*
X360647Y50807D01*
X361281Y49981D01*
X362107Y49347D01*
X363068Y48949D01*
X363600Y48879D01*
Y52300D01*
D02*
G37*
G36*
X71221Y61800D02*
X67800D01*
Y58379D01*
X68332Y58449D01*
X69293Y58847D01*
X70119Y59481D01*
X70753Y60307D01*
X71151Y61268D01*
X71221Y61800D01*
D02*
G37*
G36*
X363600Y62300D02*
X360179D01*
X360249Y61768D01*
X360647Y60807D01*
X361281Y59981D01*
X362107Y59347D01*
X363068Y58949D01*
X363600Y58879D01*
Y62300D01*
D02*
G37*
G36*
X368021D02*
X364600D01*
Y58879D01*
X365132Y58949D01*
X366093Y59347D01*
X366919Y59981D01*
X367553Y60807D01*
X367951Y61768D01*
X368021Y62300D01*
D02*
G37*
G36*
X66800Y61800D02*
X63379D01*
X63449Y61268D01*
X63847Y60307D01*
X64481Y59481D01*
X65307Y58847D01*
X66268Y58449D01*
X66800Y58379D01*
Y61800D01*
D02*
G37*
G36*
X67800Y56221D02*
Y52800D01*
X71221D01*
X71151Y53332D01*
X70753Y54293D01*
X70119Y55119D01*
X69293Y55753D01*
X68332Y56151D01*
X67800Y56221D01*
D02*
G37*
G36*
X363600Y56721D02*
X363068Y56651D01*
X362107Y56253D01*
X361281Y55619D01*
X360647Y54793D01*
X360249Y53832D01*
X360179Y53300D01*
X363600D01*
Y56721D01*
D02*
G37*
G36*
X364600D02*
Y53300D01*
X368021D01*
X367951Y53832D01*
X367553Y54793D01*
X366919Y55619D01*
X366093Y56253D01*
X365132Y56651D01*
X364600Y56721D01*
D02*
G37*
G36*
X81221Y161800D02*
X77800D01*
Y158379D01*
X78332Y158449D01*
X79293Y158847D01*
X80119Y159481D01*
X80753Y160307D01*
X81151Y161268D01*
X81221Y161800D01*
D02*
G37*
G36*
X363600Y162300D02*
X360179D01*
X360249Y161768D01*
X360647Y160807D01*
X361281Y159981D01*
X362107Y159347D01*
X363068Y158949D01*
X363600Y158879D01*
Y162300D01*
D02*
G37*
G36*
X368021D02*
X364600D01*
Y158879D01*
X365132Y158949D01*
X366093Y159347D01*
X366919Y159981D01*
X367553Y160807D01*
X367951Y161768D01*
X368021Y162300D01*
D02*
G37*
G36*
X76800Y161800D02*
X73379D01*
X73449Y161268D01*
X73847Y160307D01*
X74481Y159481D01*
X75307Y158847D01*
X76268Y158449D01*
X76800Y158379D01*
Y161800D01*
D02*
G37*
G36*
X198400Y156527D02*
X197854Y156419D01*
X197391Y156109D01*
X197081Y155646D01*
X196973Y155100D01*
X197081Y154554D01*
X197391Y154091D01*
X197854Y153781D01*
X198400Y153673D01*
X198946Y153781D01*
X199409Y154091D01*
X199719Y154554D01*
X199827Y155100D01*
X199719Y155646D01*
X199409Y156109D01*
X198946Y156419D01*
X198400Y156527D01*
D02*
G37*
G36*
X66800Y161800D02*
X63379D01*
X63449Y161268D01*
X63847Y160307D01*
X64481Y159481D01*
X65307Y158847D01*
X66268Y158449D01*
X66800Y158379D01*
Y161800D01*
D02*
G37*
G36*
X71221D02*
X67800D01*
Y158379D01*
X68332Y158449D01*
X69293Y158847D01*
X70119Y159481D01*
X70753Y160307D01*
X71151Y161268D01*
X71221Y161800D01*
D02*
G37*
G36*
X67800Y166221D02*
Y162800D01*
X71221D01*
X71151Y163332D01*
X70753Y164293D01*
X70119Y165119D01*
X69293Y165753D01*
X68332Y166151D01*
X67800Y166221D01*
D02*
G37*
G36*
X76800D02*
X76268Y166151D01*
X75307Y165753D01*
X74481Y165119D01*
X73847Y164293D01*
X73449Y163332D01*
X73379Y162800D01*
X76800D01*
Y166221D01*
D02*
G37*
G36*
X77800D02*
Y162800D01*
X81221D01*
X81151Y163332D01*
X80753Y164293D01*
X80119Y165119D01*
X79293Y165753D01*
X78332Y166151D01*
X77800Y166221D01*
D02*
G37*
G36*
X66800D02*
X66268Y166151D01*
X65307Y165753D01*
X64481Y165119D01*
X63847Y164293D01*
X63449Y163332D01*
X63379Y162800D01*
X66800D01*
Y166221D01*
D02*
G37*
G36*
X373600Y162300D02*
X370179D01*
X370249Y161768D01*
X370647Y160807D01*
X371281Y159981D01*
X372107Y159347D01*
X373068Y158949D01*
X373600Y158879D01*
Y162300D01*
D02*
G37*
G36*
X378021D02*
X374600D01*
Y158879D01*
X375132Y158949D01*
X376093Y159347D01*
X376919Y159981D01*
X377553Y160807D01*
X377951Y161768D01*
X378021Y162300D01*
D02*
G37*
G36*
X248800Y165027D02*
X248254Y164919D01*
X247791Y164609D01*
X247481Y164146D01*
X247373Y163600D01*
X247481Y163054D01*
X247791Y162591D01*
X248254Y162281D01*
X248800Y162173D01*
X249346Y162281D01*
X249809Y162591D01*
X250119Y163054D01*
X250227Y163600D01*
X250119Y164146D01*
X249809Y164609D01*
X249346Y164919D01*
X248800Y165027D01*
D02*
G37*
G36*
X364600Y156721D02*
Y153300D01*
X368021D01*
X367951Y153832D01*
X367553Y154793D01*
X366919Y155619D01*
X366093Y156253D01*
X365132Y156651D01*
X364600Y156721D01*
D02*
G37*
G36*
Y146721D02*
Y143300D01*
X368021D01*
X367951Y143832D01*
X367553Y144793D01*
X366919Y145619D01*
X366093Y146253D01*
X365132Y146651D01*
X364600Y146721D01*
D02*
G37*
G36*
X66800Y151800D02*
X63379D01*
X63449Y151268D01*
X63847Y150307D01*
X64481Y149481D01*
X65307Y148847D01*
X66268Y148449D01*
X66800Y148379D01*
Y151800D01*
D02*
G37*
G36*
X71221D02*
X67800D01*
Y148379D01*
X68332Y148449D01*
X69293Y148847D01*
X70119Y149481D01*
X70753Y150307D01*
X71151Y151268D01*
X71221Y151800D01*
D02*
G37*
G36*
X363600Y146721D02*
X363068Y146651D01*
X362107Y146253D01*
X361281Y145619D01*
X360647Y144793D01*
X360249Y143832D01*
X360179Y143300D01*
X363600D01*
Y146721D01*
D02*
G37*
G36*
X168900Y142327D02*
X168354Y142219D01*
X167891Y141909D01*
X167581Y141446D01*
X167473Y140900D01*
X167581Y140354D01*
X167891Y139891D01*
X168354Y139581D01*
X168900Y139473D01*
X169446Y139581D01*
X169909Y139891D01*
X170219Y140354D01*
X170327Y140900D01*
X170219Y141446D01*
X169909Y141909D01*
X169446Y142219D01*
X168900Y142327D01*
D02*
G37*
G36*
X66800Y146221D02*
X66268Y146151D01*
X65307Y145753D01*
X64481Y145119D01*
X63847Y144293D01*
X63449Y143332D01*
X63379Y142800D01*
X66800D01*
Y146221D01*
D02*
G37*
G36*
X67800D02*
Y142800D01*
X71221D01*
X71151Y143332D01*
X70753Y144293D01*
X70119Y145119D01*
X69293Y145753D01*
X68332Y146151D01*
X67800Y146221D01*
D02*
G37*
G36*
X66800Y156221D02*
X66268Y156151D01*
X65307Y155753D01*
X64481Y155119D01*
X63847Y154293D01*
X63449Y153332D01*
X63379Y152800D01*
X66800D01*
Y156221D01*
D02*
G37*
G36*
X67800D02*
Y152800D01*
X71221D01*
X71151Y153332D01*
X70753Y154293D01*
X70119Y155119D01*
X69293Y155753D01*
X68332Y156151D01*
X67800Y156221D01*
D02*
G37*
G36*
X363600Y156721D02*
X363068Y156651D01*
X362107Y156253D01*
X361281Y155619D01*
X360647Y154793D01*
X360249Y153832D01*
X360179Y153300D01*
X363600D01*
Y156721D01*
D02*
G37*
G36*
X374100Y156182D02*
X373225Y156067D01*
X372409Y155729D01*
X371709Y155191D01*
X371171Y154491D01*
X370834Y153675D01*
X370718Y152800D01*
X370834Y151925D01*
X371171Y151109D01*
X371709Y150409D01*
X372409Y149871D01*
X373225Y149533D01*
X374100Y149418D01*
X374975Y149533D01*
X375791Y149871D01*
X376491Y150409D01*
X377029Y151109D01*
X377366Y151925D01*
X377482Y152800D01*
X377366Y153675D01*
X377029Y154491D01*
X376491Y155191D01*
X375791Y155729D01*
X374975Y156067D01*
X374100Y156182D01*
D02*
G37*
G36*
X363600Y152300D02*
X360179D01*
X360249Y151768D01*
X360647Y150807D01*
X361281Y149981D01*
X362107Y149347D01*
X363068Y148949D01*
X363600Y148879D01*
Y152300D01*
D02*
G37*
G36*
X368021D02*
X364600D01*
Y148879D01*
X365132Y148949D01*
X366093Y149347D01*
X366919Y149981D01*
X367553Y150807D01*
X367951Y151768D01*
X368021Y152300D01*
D02*
G37*
G36*
X77300Y155682D02*
X76425Y155567D01*
X75609Y155229D01*
X74909Y154691D01*
X74371Y153991D01*
X74034Y153175D01*
X73918Y152300D01*
X74034Y151425D01*
X74371Y150609D01*
X74909Y149909D01*
X75609Y149371D01*
X76425Y149033D01*
X77300Y148918D01*
X78175Y149033D01*
X78991Y149371D01*
X79691Y149909D01*
X80229Y150609D01*
X80566Y151425D01*
X80682Y152300D01*
X80566Y153175D01*
X80229Y153991D01*
X79691Y154691D01*
X78991Y155229D01*
X78175Y155567D01*
X77300Y155682D01*
D02*
G37*
G36*
X363600Y166721D02*
X363068Y166651D01*
X362107Y166253D01*
X361281Y165619D01*
X360647Y164793D01*
X360249Y163832D01*
X360179Y163300D01*
X363600D01*
Y166721D01*
D02*
G37*
G36*
X324300Y222921D02*
X323871Y222836D01*
X323507Y222593D01*
X323264Y222229D01*
X323179Y221800D01*
X323264Y221371D01*
X323507Y221007D01*
X323871Y220764D01*
X324300Y220678D01*
X324729Y220764D01*
X325093Y221007D01*
X325336Y221371D01*
X325422Y221800D01*
X325336Y222229D01*
X325093Y222593D01*
X324729Y222836D01*
X324300Y222921D01*
D02*
G37*
G36*
X264900Y229121D02*
X264471Y229036D01*
X264107Y228793D01*
X263864Y228429D01*
X263778Y228000D01*
X263864Y227571D01*
X264107Y227207D01*
X264471Y226964D01*
X264900Y226878D01*
X265329Y226964D01*
X265693Y227207D01*
X265936Y227571D01*
X266021Y228000D01*
X265936Y228429D01*
X265693Y228793D01*
X265329Y229036D01*
X264900Y229121D01*
D02*
G37*
G36*
X130300Y234527D02*
X129754Y234419D01*
X129291Y234109D01*
X128981Y233646D01*
X128873Y233100D01*
X128981Y232554D01*
X129291Y232091D01*
X129754Y231781D01*
X130300Y231673D01*
X130846Y231781D01*
X131309Y232091D01*
X131619Y232554D01*
X131727Y233100D01*
X131619Y233646D01*
X131309Y234109D01*
X130846Y234419D01*
X130300Y234527D01*
D02*
G37*
G36*
X263800Y222322D02*
X263371Y222236D01*
X263007Y221993D01*
X262764Y221629D01*
X262679Y221200D01*
X262764Y220771D01*
X263007Y220407D01*
X263371Y220164D01*
X263800Y220078D01*
X264229Y220164D01*
X264593Y220407D01*
X264836Y220771D01*
X264921Y221200D01*
X264836Y221629D01*
X264593Y221993D01*
X264229Y222236D01*
X263800Y222322D01*
D02*
G37*
G36*
X127000Y197622D02*
X126571Y197536D01*
X126207Y197293D01*
X125964Y196929D01*
X125878Y196500D01*
X125964Y196071D01*
X126207Y195707D01*
X126571Y195464D01*
X127000Y195378D01*
X127429Y195464D01*
X127793Y195707D01*
X128036Y196071D01*
X128122Y196500D01*
X128036Y196929D01*
X127793Y197293D01*
X127429Y197536D01*
X127000Y197622D01*
D02*
G37*
G36*
X110200Y201822D02*
X109771Y201736D01*
X109407Y201493D01*
X109164Y201129D01*
X109078Y200700D01*
X109164Y200271D01*
X109407Y199907D01*
X109771Y199664D01*
X110200Y199578D01*
X110629Y199664D01*
X110993Y199907D01*
X111236Y200271D01*
X111322Y200700D01*
X111236Y201129D01*
X110993Y201493D01*
X110629Y201736D01*
X110200Y201822D01*
D02*
G37*
G36*
X322400Y203922D02*
X321971Y203836D01*
X321607Y203593D01*
X321364Y203229D01*
X321279Y202800D01*
X321364Y202371D01*
X321607Y202007D01*
X321971Y201764D01*
X322400Y201678D01*
X322829Y201764D01*
X323193Y202007D01*
X323436Y202371D01*
X323521Y202800D01*
X323436Y203229D01*
X323193Y203593D01*
X322829Y203836D01*
X322400Y203922D01*
D02*
G37*
G36*
X128200Y238222D02*
X127771Y238136D01*
X127407Y237893D01*
X127164Y237529D01*
X127078Y237100D01*
X127164Y236671D01*
X127407Y236307D01*
X127771Y236064D01*
X128200Y235979D01*
X128629Y236064D01*
X128993Y236307D01*
X129236Y236671D01*
X129322Y237100D01*
X129236Y237529D01*
X128993Y237893D01*
X128629Y238136D01*
X128200Y238222D01*
D02*
G37*
G36*
X215400Y237122D02*
X214971Y237036D01*
X214607Y236793D01*
X214364Y236429D01*
X214345Y236332D01*
X214334Y236280D01*
X214325Y236257D01*
X213797Y236144D01*
X213736Y236229D01*
X213733Y236235D01*
X213710Y236269D01*
D01*
X213493Y236593D01*
X213129Y236836D01*
X212700Y236922D01*
X212271Y236836D01*
X211907Y236593D01*
X211664Y236229D01*
X211578Y235800D01*
X211664Y235371D01*
X211907Y235007D01*
X212271Y234764D01*
X212700Y234679D01*
X213129Y234764D01*
X213493Y235007D01*
X213736Y235371D01*
X213755Y235468D01*
X213766Y235520D01*
Y235520D01*
X213770Y235542D01*
X213766Y235520D01*
X213775Y235543D01*
X214303Y235656D01*
X214364Y235571D01*
X214367Y235565D01*
X214390Y235531D01*
D01*
X214607Y235207D01*
X214971Y234964D01*
X215400Y234878D01*
X215829Y234964D01*
X216193Y235207D01*
X216436Y235571D01*
X216522Y236000D01*
X216436Y236429D01*
X216193Y236793D01*
X215829Y237036D01*
X215400Y237122D01*
D02*
G37*
G36*
X140900Y238422D02*
X140471Y238336D01*
X140107Y238093D01*
X139864Y237729D01*
X139778Y237300D01*
X139864Y236871D01*
X140107Y236507D01*
X140471Y236264D01*
X140900Y236178D01*
X141329Y236264D01*
X141693Y236507D01*
X141936Y236871D01*
X142022Y237300D01*
X141936Y237729D01*
X141693Y238093D01*
X141329Y238336D01*
X140900Y238422D01*
D02*
G37*
G36*
X137900Y238122D02*
X137471Y238036D01*
X137107Y237793D01*
X136864Y237429D01*
X136778Y237000D01*
X136864Y236571D01*
X137107Y236207D01*
X137471Y235964D01*
X137900Y235878D01*
X138329Y235964D01*
X138693Y236207D01*
X138936Y236571D01*
X139022Y237000D01*
X138936Y237429D01*
X138693Y237793D01*
X138329Y238036D01*
X137900Y238122D01*
D02*
G37*
G36*
X160337Y234827D02*
X159791Y234719D01*
X159328Y234409D01*
X159018Y233946D01*
X158910Y233400D01*
X159018Y232854D01*
X159328Y232391D01*
X159791Y232081D01*
X160337Y231973D01*
X160883Y232081D01*
X161346Y232391D01*
X161656Y232854D01*
X161764Y233400D01*
X161656Y233946D01*
X161346Y234409D01*
X160883Y234719D01*
X160337Y234827D01*
D02*
G37*
G36*
X134800Y237222D02*
X134371Y237136D01*
X134007Y236893D01*
X133764Y236529D01*
X133678Y236100D01*
X133764Y235671D01*
X134007Y235307D01*
X134371Y235064D01*
X134800Y234979D01*
X135229Y235064D01*
X135593Y235307D01*
X135836Y235671D01*
X135922Y236100D01*
X135836Y236529D01*
X135593Y236893D01*
X135229Y237136D01*
X134800Y237222D01*
D02*
G37*
G36*
X131500Y237421D02*
X131071Y237336D01*
X130707Y237093D01*
X130464Y236729D01*
X130378Y236300D01*
X130464Y235871D01*
X130707Y235507D01*
X131071Y235264D01*
X131500Y235178D01*
X131929Y235264D01*
X132293Y235507D01*
X132536Y235871D01*
X132622Y236300D01*
X132536Y236729D01*
X132293Y237093D01*
X131929Y237336D01*
X131500Y237421D01*
D02*
G37*
G36*
X248600Y188927D02*
X248054Y188819D01*
X247591Y188509D01*
X247281Y188046D01*
X247173Y187500D01*
X247281Y186954D01*
X247591Y186491D01*
X248054Y186181D01*
X248600Y186073D01*
X249146Y186181D01*
X249609Y186491D01*
X249919Y186954D01*
X250027Y187500D01*
X249919Y188046D01*
X249609Y188509D01*
X249146Y188819D01*
X248600Y188927D01*
D02*
G37*
G36*
X71253Y171800D02*
X67800D01*
Y168347D01*
X71253D01*
Y171800D01*
D02*
G37*
G36*
X255700Y171627D02*
X255154Y171519D01*
X254691Y171209D01*
X254381Y170746D01*
X254273Y170200D01*
X254381Y169654D01*
X254691Y169191D01*
X255154Y168881D01*
X255700Y168773D01*
X256246Y168881D01*
X256709Y169191D01*
X257019Y169654D01*
X257127Y170200D01*
X257019Y170746D01*
X256709Y171209D01*
X256246Y171519D01*
X255700Y171627D01*
D02*
G37*
G36*
X363600Y172300D02*
X360147D01*
Y168847D01*
X363600D01*
Y172300D01*
D02*
G37*
G36*
X66800Y171800D02*
X63347D01*
Y168347D01*
X66800D01*
Y171800D01*
D02*
G37*
G36*
X364600Y166721D02*
Y163300D01*
X368021D01*
X367951Y163832D01*
X367553Y164793D01*
X366919Y165619D01*
X366093Y166253D01*
X365132Y166651D01*
X364600Y166721D01*
D02*
G37*
G36*
X373600D02*
X373068Y166651D01*
X372107Y166253D01*
X371281Y165619D01*
X370647Y164793D01*
X370249Y163832D01*
X370179Y163300D01*
X373600D01*
Y166721D01*
D02*
G37*
G36*
X374600D02*
Y163300D01*
X378021D01*
X377951Y163832D01*
X377553Y164793D01*
X376919Y165619D01*
X376093Y166253D01*
X375132Y166651D01*
X374600Y166721D01*
D02*
G37*
G36*
X71253Y176253D02*
X67800D01*
Y172800D01*
X71253D01*
Y176253D01*
D02*
G37*
G36*
X363600Y176753D02*
X360147D01*
Y173300D01*
X363600D01*
Y176753D01*
D02*
G37*
G36*
X368053D02*
X364600D01*
Y173300D01*
X368053D01*
Y176753D01*
D02*
G37*
G36*
X66800Y176253D02*
X63347D01*
Y172800D01*
X66800D01*
Y176253D01*
D02*
G37*
G36*
X368053Y172300D02*
X364600D01*
Y168847D01*
X368053D01*
Y172300D01*
D02*
G37*
G36*
X77300Y175682D02*
X76425Y175566D01*
X75609Y175229D01*
X74909Y174691D01*
X74371Y173991D01*
X74034Y173175D01*
X73918Y172300D01*
X74034Y171425D01*
X74371Y170609D01*
X74909Y169909D01*
X75609Y169371D01*
X76425Y169034D01*
X77300Y168918D01*
X78175Y169034D01*
X78991Y169371D01*
X79691Y169909D01*
X80229Y170609D01*
X80566Y171425D01*
X80682Y172300D01*
X80566Y173175D01*
X80229Y173991D01*
X79691Y174691D01*
X78991Y175229D01*
X78175Y175566D01*
X77300Y175682D01*
D02*
G37*
G36*
X374100Y176182D02*
X373225Y176067D01*
X372409Y175729D01*
X371709Y175191D01*
X371171Y174491D01*
X370834Y173675D01*
X370718Y172800D01*
X370834Y171925D01*
X371171Y171109D01*
X371709Y170409D01*
X372409Y169871D01*
X373225Y169534D01*
X374100Y169418D01*
X374975Y169534D01*
X375791Y169871D01*
X376491Y170409D01*
X377029Y171109D01*
X377366Y171925D01*
X377482Y172800D01*
X377366Y173675D01*
X377029Y174491D01*
X376491Y175191D01*
X375791Y175729D01*
X374975Y176067D01*
X374100Y176182D01*
D02*
G37*
G36*
Y146182D02*
X373225Y146066D01*
X372409Y145729D01*
X371709Y145191D01*
X371171Y144491D01*
X370834Y143675D01*
X370718Y142800D01*
X370834Y141925D01*
X371171Y141109D01*
X371709Y140409D01*
X372409Y139871D01*
X373225Y139533D01*
X374100Y139418D01*
X374975Y139533D01*
X375791Y139871D01*
X376491Y140409D01*
X377029Y141109D01*
X377366Y141925D01*
X377482Y142800D01*
X377366Y143675D01*
X377029Y144491D01*
X376491Y145191D01*
X375791Y145729D01*
X374975Y146066D01*
X374100Y146182D01*
D02*
G37*
G36*
X67800Y116221D02*
Y112800D01*
X71221D01*
X71151Y113332D01*
X70753Y114293D01*
X70119Y115119D01*
X69293Y115753D01*
X68332Y116151D01*
X67800Y116221D01*
D02*
G37*
G36*
X76800D02*
X76268Y116151D01*
X75307Y115753D01*
X74481Y115119D01*
X73847Y114293D01*
X73449Y113332D01*
X73379Y112800D01*
X76800D01*
Y116221D01*
D02*
G37*
G36*
X77800D02*
Y112800D01*
X81221D01*
X81151Y113332D01*
X80753Y114293D01*
X80119Y115119D01*
X79293Y115753D01*
X78332Y116151D01*
X77800Y116221D01*
D02*
G37*
G36*
X66800D02*
X66268Y116151D01*
X65307Y115753D01*
X64481Y115119D01*
X63847Y114293D01*
X63449Y113332D01*
X63379Y112800D01*
X66800D01*
Y116221D01*
D02*
G37*
G36*
X368021Y112300D02*
X364600D01*
Y108879D01*
X365132Y108949D01*
X366093Y109347D01*
X366919Y109981D01*
X367553Y110807D01*
X367951Y111768D01*
X368021Y112300D01*
D02*
G37*
G36*
X373600D02*
X370179D01*
X370249Y111768D01*
X370647Y110807D01*
X371281Y109981D01*
X372107Y109347D01*
X373068Y108949D01*
X373600Y108879D01*
Y112300D01*
D02*
G37*
G36*
X378021D02*
X374600D01*
Y108879D01*
X375132Y108949D01*
X376093Y109347D01*
X376919Y109981D01*
X377553Y110807D01*
X377951Y111768D01*
X378021Y112300D01*
D02*
G37*
G36*
X238500Y116327D02*
X237954Y116219D01*
X237491Y115909D01*
X237181Y115446D01*
X237073Y114900D01*
X237181Y114354D01*
X237491Y113891D01*
X237954Y113581D01*
X238500Y113473D01*
X239046Y113581D01*
X239509Y113891D01*
X239819Y114354D01*
X239927Y114900D01*
X239819Y115446D01*
X239509Y115909D01*
X239046Y116219D01*
X238500Y116327D01*
D02*
G37*
G36*
X165300Y116922D02*
X164871Y116836D01*
X164507Y116593D01*
X164264Y116229D01*
X164178Y115800D01*
X164264Y115371D01*
X164507Y115007D01*
X164871Y114764D01*
X165300Y114678D01*
X165729Y114764D01*
X166093Y115007D01*
X166336Y115371D01*
X166422Y115800D01*
X166336Y116229D01*
X166093Y116593D01*
X165729Y116836D01*
X165300Y116922D01*
D02*
G37*
G36*
X151000Y119427D02*
X150454Y119319D01*
X149991Y119009D01*
X149681Y118546D01*
X149573Y118000D01*
X149681Y117454D01*
X149991Y116991D01*
X150454Y116681D01*
X151000Y116573D01*
X151546Y116681D01*
X152009Y116991D01*
X152319Y117454D01*
X152427Y118000D01*
X152319Y118546D01*
X152009Y119009D01*
X151546Y119319D01*
X151000Y119427D01*
D02*
G37*
G36*
X374600Y116721D02*
Y113300D01*
X378021D01*
X377951Y113832D01*
X377553Y114793D01*
X376919Y115619D01*
X376093Y116253D01*
X375132Y116651D01*
X374600Y116721D01*
D02*
G37*
G36*
X363600D02*
X363068Y116651D01*
X362107Y116253D01*
X361281Y115619D01*
X360647Y114793D01*
X360249Y113832D01*
X360179Y113300D01*
X363600D01*
Y116721D01*
D02*
G37*
G36*
X364600D02*
Y113300D01*
X368021D01*
X367951Y113832D01*
X367553Y114793D01*
X366919Y115619D01*
X366093Y116253D01*
X365132Y116651D01*
X364600Y116721D01*
D02*
G37*
G36*
X373600D02*
X373068Y116651D01*
X372107Y116253D01*
X371281Y115619D01*
X370647Y114793D01*
X370249Y113832D01*
X370179Y113300D01*
X373600D01*
Y116721D01*
D02*
G37*
G36*
X363600Y112300D02*
X360179D01*
X360249Y111768D01*
X360647Y110807D01*
X361281Y109981D01*
X362107Y109347D01*
X363068Y108949D01*
X363600Y108879D01*
Y112300D01*
D02*
G37*
G36*
X180300Y108327D02*
X179754Y108219D01*
X179291Y107909D01*
X178981Y107446D01*
X178873Y106900D01*
X178981Y106354D01*
X179291Y105891D01*
X179754Y105581D01*
X180300Y105473D01*
X180846Y105581D01*
X181309Y105891D01*
X181619Y106354D01*
X181727Y106900D01*
X181619Y107446D01*
X181309Y107909D01*
X180846Y108219D01*
X180300Y108327D01*
D02*
G37*
G36*
X234800Y108222D02*
X234371Y108136D01*
X234007Y107893D01*
X233764Y107529D01*
X233679Y107100D01*
X233764Y106671D01*
X234007Y106307D01*
X234371Y106064D01*
X234800Y105978D01*
X235229Y106064D01*
X235426Y106195D01*
X235644Y106283D01*
X236051Y106091D01*
X236107Y106007D01*
X236471Y105764D01*
X236900Y105678D01*
X237329Y105764D01*
X237693Y106007D01*
X237936Y106371D01*
X238021Y106800D01*
X237936Y107229D01*
X237693Y107593D01*
X237329Y107836D01*
X236900Y107922D01*
X236471Y107836D01*
X236274Y107705D01*
X236056Y107617D01*
X235649Y107808D01*
X235593Y107893D01*
X235229Y108136D01*
X234800Y108222D01*
D02*
G37*
G36*
X213346Y108582D02*
X212799Y108473D01*
X212336Y108164D01*
X212027Y107701D01*
X211918Y107154D01*
X212027Y106608D01*
X212336Y106145D01*
X212799Y105836D01*
X213346Y105727D01*
X213892Y105836D01*
X214355Y106145D01*
X214664Y106608D01*
X214773Y107154D01*
X214664Y107701D01*
X214355Y108164D01*
X213892Y108473D01*
X213346Y108582D01*
D02*
G37*
G36*
X241200Y111322D02*
X240771Y111236D01*
X240407Y110993D01*
X240164Y110629D01*
X240078Y110200D01*
X240164Y109771D01*
X240407Y109407D01*
X240771Y109164D01*
X241200Y109078D01*
X241629Y109164D01*
X241749Y108845D01*
X241764Y108771D01*
X242007Y108407D01*
X242371Y108164D01*
X242800Y108078D01*
X243119Y107697D01*
X243164Y107471D01*
X243407Y107107D01*
X243771Y106864D01*
X243934Y106831D01*
X244303Y106557D01*
X244416Y106312D01*
X244464Y106071D01*
X244707Y105707D01*
X245071Y105464D01*
X245500Y105378D01*
X245929Y105464D01*
X246293Y105707D01*
X246536Y106071D01*
X246621Y106500D01*
X246536Y106929D01*
X246293Y107293D01*
X245929Y107536D01*
X245765Y107569D01*
X245397Y107843D01*
X245284Y108088D01*
X245236Y108329D01*
X244993Y108693D01*
X244629Y108936D01*
X244388Y108984D01*
X243921Y109200D01*
X243836Y109629D01*
X243593Y109993D01*
X243229Y110236D01*
X242800Y110322D01*
X242371Y110236D01*
X242251Y110555D01*
X242236Y110629D01*
X241993Y110993D01*
X241629Y111236D01*
X241200Y111322D01*
D02*
G37*
G36*
X67800Y106221D02*
Y102800D01*
X71221D01*
X71151Y103332D01*
X70753Y104293D01*
X70119Y105119D01*
X69293Y105753D01*
X68332Y106151D01*
X67800Y106221D01*
D02*
G37*
G36*
X363600Y106721D02*
X363068Y106651D01*
X362107Y106253D01*
X361281Y105619D01*
X360647Y104793D01*
X360249Y103832D01*
X360179Y103300D01*
X363600D01*
Y106721D01*
D02*
G37*
G36*
X364600D02*
Y103300D01*
X368021D01*
X367951Y103832D01*
X367553Y104793D01*
X366919Y105619D01*
X366093Y106253D01*
X365132Y106651D01*
X364600Y106721D01*
D02*
G37*
G36*
X71221Y111800D02*
X67800D01*
Y108379D01*
X68332Y108449D01*
X69293Y108847D01*
X70119Y109481D01*
X70753Y110307D01*
X71151Y111268D01*
X71221Y111800D01*
D02*
G37*
G36*
X76800D02*
X73379D01*
X73449Y111268D01*
X73847Y110307D01*
X74481Y109481D01*
X75307Y108847D01*
X76268Y108449D01*
X76800Y108379D01*
Y111800D01*
D02*
G37*
G36*
X81221D02*
X77800D01*
Y108379D01*
X78332Y108449D01*
X79293Y108847D01*
X80119Y109481D01*
X80753Y110307D01*
X81151Y111268D01*
X81221Y111800D01*
D02*
G37*
G36*
X66800D02*
X63379D01*
X63449Y111268D01*
X63847Y110307D01*
X64481Y109481D01*
X65307Y108847D01*
X66268Y108449D01*
X66800Y108379D01*
Y111800D01*
D02*
G37*
G36*
X230400Y108622D02*
X229971Y108536D01*
X229607Y108293D01*
X229364Y107929D01*
X229278Y107500D01*
X229364Y107071D01*
X229607Y106707D01*
X229971Y106464D01*
X230400Y106378D01*
X230829Y106464D01*
X231193Y106707D01*
X231436Y107071D01*
X231522Y107500D01*
X231436Y107929D01*
X231193Y108293D01*
X230829Y108536D01*
X230400Y108622D01*
D02*
G37*
G36*
X223100Y109222D02*
X222671Y109136D01*
X222307Y108893D01*
X222064Y108529D01*
X221978Y108100D01*
X222064Y107671D01*
X222307Y107307D01*
X222671Y107064D01*
X223100Y106978D01*
X223529Y107064D01*
X223893Y107307D01*
X224136Y107671D01*
X224221Y108100D01*
X224136Y108529D01*
X223893Y108893D01*
X223529Y109136D01*
X223100Y109222D01*
D02*
G37*
G36*
X227200Y110322D02*
X226771Y110236D01*
X226407Y109993D01*
X226164Y109629D01*
X226079Y109200D01*
X226164Y108771D01*
X226407Y108407D01*
X226771Y108164D01*
X227200Y108078D01*
X227629Y108164D01*
X227993Y108407D01*
X228236Y108771D01*
X228322Y109200D01*
X228236Y109629D01*
X227993Y109993D01*
X227629Y110236D01*
X227200Y110322D01*
D02*
G37*
G36*
X66800Y121800D02*
X63379D01*
X63449Y121268D01*
X63847Y120307D01*
X64481Y119481D01*
X65307Y118847D01*
X66268Y118449D01*
X66800Y118379D01*
Y121800D01*
D02*
G37*
G36*
X179300Y139127D02*
X178754Y139019D01*
X178291Y138709D01*
X177981Y138246D01*
X177873Y137700D01*
X177981Y137154D01*
X178291Y136691D01*
X178754Y136381D01*
X179300Y136273D01*
X179846Y136381D01*
X180309Y136691D01*
X180619Y137154D01*
X180727Y137700D01*
X180619Y138246D01*
X180309Y138709D01*
X179846Y139019D01*
X179300Y139127D01*
D02*
G37*
G36*
X228400Y139327D02*
X227854Y139219D01*
X227391Y138909D01*
X227081Y138446D01*
X226973Y137900D01*
X227081Y137354D01*
X227391Y136891D01*
X227854Y136581D01*
X228400Y136473D01*
X228946Y136581D01*
X229409Y136891D01*
X229719Y137354D01*
X229827Y137900D01*
X229719Y138446D01*
X229409Y138909D01*
X228946Y139219D01*
X228400Y139327D01*
D02*
G37*
G36*
X219000Y139627D02*
X218454Y139519D01*
X217991Y139209D01*
X217681Y138746D01*
X217573Y138200D01*
X217681Y137654D01*
X217991Y137191D01*
X218454Y136881D01*
X219000Y136773D01*
X219546Y136881D01*
X220009Y137191D01*
X220319Y137654D01*
X220427Y138200D01*
X220319Y138746D01*
X220009Y139209D01*
X219546Y139519D01*
X219000Y139627D01*
D02*
G37*
G36*
X364600Y136721D02*
Y133300D01*
X368021D01*
X367951Y133832D01*
X367553Y134793D01*
X366919Y135619D01*
X366093Y136253D01*
X365132Y136651D01*
X364600Y136721D01*
D02*
G37*
G36*
X66800Y136221D02*
X66268Y136151D01*
X65307Y135753D01*
X64481Y135119D01*
X63847Y134293D01*
X63449Y133332D01*
X63379Y132800D01*
X66800D01*
Y136221D01*
D02*
G37*
G36*
X67800D02*
Y132800D01*
X71221D01*
X71151Y133332D01*
X70753Y134293D01*
X70119Y135119D01*
X69293Y135753D01*
X68332Y136151D01*
X67800Y136221D01*
D02*
G37*
G36*
X363600Y136721D02*
X363068Y136651D01*
X362107Y136253D01*
X361281Y135619D01*
X360647Y134793D01*
X360249Y133832D01*
X360179Y133300D01*
X363600D01*
Y136721D01*
D02*
G37*
G36*
Y142300D02*
X360179D01*
X360249Y141768D01*
X360647Y140807D01*
X361281Y139981D01*
X362107Y139347D01*
X363068Y138949D01*
X363600Y138879D01*
Y142300D01*
D02*
G37*
G36*
X368021D02*
X364600D01*
Y138879D01*
X365132Y138949D01*
X366093Y139347D01*
X366919Y139981D01*
X367553Y140807D01*
X367951Y141768D01*
X368021Y142300D01*
D02*
G37*
G36*
X77300Y145682D02*
X76425Y145566D01*
X75609Y145229D01*
X74909Y144691D01*
X74371Y143991D01*
X74034Y143175D01*
X73918Y142300D01*
X74034Y141425D01*
X74371Y140609D01*
X74909Y139909D01*
X75609Y139371D01*
X76425Y139033D01*
X77300Y138918D01*
X78175Y139033D01*
X78991Y139371D01*
X79691Y139909D01*
X80229Y140609D01*
X80566Y141425D01*
X80682Y142300D01*
X80566Y143175D01*
X80229Y143991D01*
X79691Y144691D01*
X78991Y145229D01*
X78175Y145566D01*
X77300Y145682D01*
D02*
G37*
G36*
X71221Y141800D02*
X67800D01*
Y138379D01*
X68332Y138449D01*
X69293Y138847D01*
X70119Y139481D01*
X70753Y140307D01*
X71151Y141268D01*
X71221Y141800D01*
D02*
G37*
G36*
X192100Y140127D02*
X191554Y140019D01*
X191091Y139709D01*
X190781Y139246D01*
X190673Y138700D01*
X190781Y138154D01*
X191091Y137691D01*
X191554Y137381D01*
X192100Y137273D01*
X192646Y137381D01*
X193109Y137691D01*
X193419Y138154D01*
X193527Y138700D01*
X193419Y139246D01*
X193109Y139709D01*
X192646Y140019D01*
X192100Y140127D01*
D02*
G37*
G36*
X202100Y140327D02*
X201554Y140219D01*
X201091Y139909D01*
X200781Y139446D01*
X200673Y138900D01*
X200781Y138354D01*
X201091Y137891D01*
X201554Y137581D01*
X202100Y137473D01*
X202646Y137581D01*
X203109Y137891D01*
X203419Y138354D01*
X203527Y138900D01*
X203419Y139446D01*
X203109Y139909D01*
X202646Y140219D01*
X202100Y140327D01*
D02*
G37*
G36*
X66800Y141800D02*
X63379D01*
X63449Y141268D01*
X63847Y140307D01*
X64481Y139481D01*
X65307Y138847D01*
X66268Y138449D01*
X66800Y138379D01*
Y141800D01*
D02*
G37*
G36*
X374100Y136182D02*
X373225Y136066D01*
X372409Y135729D01*
X371709Y135191D01*
X371171Y134491D01*
X370834Y133675D01*
X370718Y132800D01*
X370834Y131925D01*
X371171Y131109D01*
X371709Y130409D01*
X372409Y129871D01*
X373225Y129534D01*
X374100Y129418D01*
X374975Y129534D01*
X375791Y129871D01*
X376491Y130409D01*
X377029Y131109D01*
X377366Y131925D01*
X377482Y132800D01*
X377366Y133675D01*
X377029Y134491D01*
X376491Y135191D01*
X375791Y135729D01*
X374975Y136066D01*
X374100Y136182D01*
D02*
G37*
G36*
Y126182D02*
X373225Y126067D01*
X372409Y125729D01*
X371709Y125191D01*
X371171Y124491D01*
X370834Y123675D01*
X370718Y122800D01*
X370834Y121925D01*
X371171Y121109D01*
X371709Y120409D01*
X372409Y119871D01*
X373225Y119534D01*
X374100Y119418D01*
X374975Y119534D01*
X375791Y119871D01*
X376491Y120409D01*
X377029Y121109D01*
X377366Y121925D01*
X377482Y122800D01*
X377366Y123675D01*
X377029Y124491D01*
X376491Y125191D01*
X375791Y125729D01*
X374975Y126067D01*
X374100Y126182D01*
D02*
G37*
G36*
X66800Y126221D02*
X66268Y126151D01*
X65307Y125753D01*
X64481Y125119D01*
X63847Y124293D01*
X63449Y123332D01*
X63379Y122800D01*
X66800D01*
Y126221D01*
D02*
G37*
G36*
X67800D02*
Y122800D01*
X71221D01*
X71151Y123332D01*
X70753Y124293D01*
X70119Y125119D01*
X69293Y125753D01*
X68332Y126151D01*
X67800Y126221D01*
D02*
G37*
G36*
X77300Y125682D02*
X76425Y125566D01*
X75609Y125229D01*
X74909Y124691D01*
X74371Y123991D01*
X74034Y123175D01*
X73918Y122300D01*
X74034Y121425D01*
X74371Y120609D01*
X74909Y119909D01*
X75609Y119371D01*
X76425Y119034D01*
X77300Y118918D01*
X78175Y119034D01*
X78991Y119371D01*
X79691Y119909D01*
X80229Y120609D01*
X80566Y121425D01*
X80682Y122300D01*
X80566Y123175D01*
X80229Y123991D01*
X79691Y124691D01*
X78991Y125229D01*
X78175Y125566D01*
X77300Y125682D01*
D02*
G37*
G36*
X71221Y121800D02*
X67800D01*
Y118379D01*
X68332Y118449D01*
X69293Y118847D01*
X70119Y119481D01*
X70753Y120307D01*
X71151Y121268D01*
X71221Y121800D01*
D02*
G37*
G36*
X363600Y122300D02*
X360179D01*
X360249Y121768D01*
X360647Y120807D01*
X361281Y119981D01*
X362107Y119347D01*
X363068Y118949D01*
X363600Y118879D01*
Y122300D01*
D02*
G37*
G36*
X368021D02*
X364600D01*
Y118879D01*
X365132Y118949D01*
X366093Y119347D01*
X366919Y119981D01*
X367553Y120807D01*
X367951Y121768D01*
X368021Y122300D01*
D02*
G37*
G36*
X363600Y132300D02*
X360179D01*
X360249Y131768D01*
X360647Y130807D01*
X361281Y129981D01*
X362107Y129347D01*
X363068Y128949D01*
X363600Y128879D01*
Y132300D01*
D02*
G37*
G36*
X368021D02*
X364600D01*
Y128879D01*
X365132Y128949D01*
X366093Y129347D01*
X366919Y129981D01*
X367553Y130807D01*
X367951Y131768D01*
X368021Y132300D01*
D02*
G37*
G36*
X77300Y135682D02*
X76425Y135566D01*
X75609Y135229D01*
X74909Y134691D01*
X74371Y133991D01*
X74034Y133175D01*
X73918Y132300D01*
X74034Y131425D01*
X74371Y130609D01*
X74909Y129909D01*
X75609Y129371D01*
X76425Y129034D01*
X77300Y128918D01*
X78175Y129034D01*
X78991Y129371D01*
X79691Y129909D01*
X80229Y130609D01*
X80566Y131425D01*
X80682Y132300D01*
X80566Y133175D01*
X80229Y133991D01*
X79691Y134691D01*
X78991Y135229D01*
X78175Y135566D01*
X77300Y135682D01*
D02*
G37*
G36*
X71221Y131800D02*
X67800D01*
Y128379D01*
X68332Y128449D01*
X69293Y128847D01*
X70119Y129481D01*
X70753Y130307D01*
X71151Y131268D01*
X71221Y131800D01*
D02*
G37*
G36*
X363600Y126721D02*
X363068Y126651D01*
X362107Y126253D01*
X361281Y125619D01*
X360647Y124793D01*
X360249Y123832D01*
X360179Y123300D01*
X363600D01*
Y126721D01*
D02*
G37*
G36*
X364600D02*
Y123300D01*
X368021D01*
X367951Y123832D01*
X367553Y124793D01*
X366919Y125619D01*
X366093Y126253D01*
X365132Y126651D01*
X364600Y126721D01*
D02*
G37*
G36*
X66800Y131800D02*
X63379D01*
X63449Y131268D01*
X63847Y130307D01*
X64481Y129481D01*
X65307Y128847D01*
X66268Y128449D01*
X66800Y128379D01*
Y131800D01*
D02*
G37*
%LPD*%
D39*
X118900Y173500D02*
X170500Y225100D01*
X117300Y173500D02*
X169500Y225700D01*
X115500Y173300D02*
X163700Y221500D01*
X115500Y58900D02*
Y173300D01*
X117200Y54000D02*
X117300Y54100D01*
X163700Y221500D02*
Y270400D01*
X168200Y274900D01*
X169500Y274800D02*
X170900Y276200D01*
X177600Y275586D02*
Y279800D01*
X172700Y275700D02*
Y278400D01*
X170500Y273500D02*
X172700Y275700D01*
X172900Y270886D02*
X177600Y275586D01*
X171700Y272200D02*
X175300Y275800D01*
Y279500D01*
X184100Y262600D02*
X184300Y262400D01*
X178300Y259863D02*
Y266100D01*
Y259863D02*
X179500Y258663D01*
X117300Y54100D02*
Y173500D01*
X169500Y225700D02*
Y274800D01*
X118900Y52100D02*
Y173500D01*
X170500Y225100D02*
Y273500D01*
X171700Y224800D02*
Y272200D01*
X172900Y224500D02*
Y270886D01*
X179500Y225600D02*
Y258663D01*
X168800Y214900D02*
X179500Y225600D01*
X168800Y194900D02*
Y214900D01*
X173600Y181900D02*
X173700D01*
X191000Y260600D02*
X198500Y253100D01*
X187987Y194413D02*
Y254613D01*
X173700Y181900D02*
X191500D01*
X273100Y63200D02*
X277700Y67800D01*
X184537Y194463D02*
Y251463D01*
X186000Y194900D02*
Y253100D01*
X268400Y66600D02*
X276500Y74700D01*
X187987Y194413D02*
X275000Y107400D01*
X186000Y194900D02*
X273500Y107400D01*
Y78000D02*
Y107400D01*
X275000Y76400D02*
Y107400D01*
X266400Y58500D02*
Y67800D01*
X275000Y76400D01*
X264000Y68500D02*
X273500Y78000D01*
X263800Y60500D02*
X264000Y60700D01*
Y68500D01*
X137100Y186700D02*
X171500D01*
X171600D01*
X173700Y181900D02*
Y214800D01*
X182400Y223500D01*
X171500Y186700D02*
Y215200D01*
X180900Y224600D01*
Y264400D01*
X182400Y223500D02*
Y260500D01*
X184300Y262400D01*
X261000Y69614D02*
X267100Y75714D01*
Y106300D01*
X191500Y181900D02*
X267100Y106300D01*
X268100Y75300D02*
Y110900D01*
X184537Y194463D02*
X268100Y110900D01*
X262000Y64500D02*
Y69200D01*
X268100Y75300D01*
X259900Y68500D02*
X261000Y69600D01*
Y69614D01*
X127000Y79000D02*
X140500Y65500D01*
X127000Y79000D02*
Y176600D01*
X137100Y186700D01*
X123400Y62000D02*
Y176500D01*
X171700Y224800D01*
X125500Y177100D02*
X172900Y224500D01*
X125500Y56200D02*
Y177100D01*
X276500Y74700D02*
Y107314D01*
X191000Y192814D02*
Y256100D01*
Y192814D02*
X276500Y107314D01*
X277700Y67800D02*
Y107528D01*
X198500Y186728D02*
Y253100D01*
Y186728D02*
X277700Y107528D01*
D41*
X237800Y45700D02*
Y62200D01*
X235300Y67200D02*
X240000Y62500D01*
X232800Y67200D02*
X237800Y62200D01*
X368650Y38250D02*
X374100Y32800D01*
X255700Y27800D02*
X369100D01*
X374100Y22800D01*
X237800Y45700D02*
X255700Y27800D01*
X240000Y47100D02*
Y62500D01*
Y47100D02*
X248850Y38250D01*
X368650D01*
D45*
X364100Y162800D02*
D03*
X374100D02*
D03*
X364100Y152800D02*
D03*
Y142800D02*
D03*
Y132800D02*
D03*
Y122800D02*
D03*
Y112800D02*
D03*
X374100D02*
D03*
X364100Y102800D02*
D03*
Y92800D02*
D03*
Y82800D02*
D03*
X374100D02*
D03*
X364100Y72800D02*
D03*
Y62800D02*
D03*
Y52800D02*
D03*
Y42800D02*
D03*
Y32800D02*
D03*
X374100D02*
D03*
X364100Y22800D02*
D03*
X374100D02*
D03*
X67300Y162300D02*
D03*
X77300D02*
D03*
X67300Y152300D02*
D03*
Y142300D02*
D03*
Y132300D02*
D03*
Y122300D02*
D03*
Y112300D02*
D03*
X77300D02*
D03*
X67300Y102300D02*
D03*
Y92300D02*
D03*
Y82300D02*
D03*
X77300D02*
D03*
X67300Y72300D02*
D03*
Y62300D02*
D03*
Y52300D02*
D03*
Y42300D02*
D03*
Y32300D02*
D03*
Y22300D02*
D03*
D47*
X364100Y172800D02*
D03*
X67300Y172300D02*
D03*
D49*
X157000Y224100D02*
D03*
X161100Y238000D02*
D03*
X177100Y239100D02*
D03*
X124900Y222800D02*
D03*
X139500Y222600D02*
D03*
X106100Y228100D02*
D03*
X106200Y233400D02*
D03*
X118100Y241500D02*
D03*
D50*
X234200Y120200D02*
D03*
X177000Y107100D02*
D03*
X173700Y118100D02*
D03*
X235300Y67200D02*
D03*
X232800D02*
D03*
X218400Y106700D02*
D03*
X204300Y107000D02*
D03*
X207700Y111500D02*
D03*
X235900Y15300D02*
D03*
X165000Y50800D02*
D03*
X170500Y45600D02*
D03*
X194300Y36200D02*
D03*
X263800Y60500D02*
D03*
X266300Y58500D02*
D03*
X273000Y63200D02*
D03*
X262100Y64500D02*
D03*
X268500Y66600D02*
D03*
X191000Y260600D02*
D03*
Y256100D02*
D03*
X187987Y254613D02*
D03*
X118900Y52100D02*
D03*
X117200Y54000D02*
D03*
X115500Y58900D02*
D03*
X177600Y279800D02*
D03*
X175300Y279500D02*
D03*
X172700Y278400D02*
D03*
X170900Y276200D02*
D03*
X168200Y274900D02*
D03*
X161700Y126100D02*
D03*
X155900Y126000D02*
D03*
X188100Y112500D02*
D03*
X168700Y107900D02*
D03*
X164779Y107979D02*
D03*
X120600Y80700D02*
D03*
X120200Y86200D02*
D03*
X270000Y89500D02*
D03*
X271400Y84600D02*
D03*
X159100Y50800D02*
D03*
X233500Y51700D02*
D03*
X235900Y169100D02*
D03*
X186100Y148500D02*
D03*
X229000Y209500D02*
D03*
X236200Y208600D02*
D03*
X209400Y209600D02*
D03*
X237800Y239200D02*
D03*
X286200Y196600D02*
D03*
X292800Y197500D02*
D03*
Y226700D02*
D03*
X328800Y214200D02*
D03*
X317400Y212000D02*
D03*
X200300Y231000D02*
D03*
X182500Y219900D02*
D03*
X215900Y191000D02*
D03*
X216100Y185100D02*
D03*
X216000Y178000D02*
D03*
X268700Y210600D02*
D03*
X260000Y210800D02*
D03*
X249400Y224400D02*
D03*
X129300Y208500D02*
D03*
X111400D02*
D03*
X181800Y75400D02*
D03*
X194000Y75900D02*
D03*
X199600Y76000D02*
D03*
X211700D02*
D03*
X212200Y58500D02*
D03*
X184100Y262600D02*
D03*
X180900Y264400D02*
D03*
X178300Y266100D02*
D03*
X168800Y194900D02*
D03*
X171600Y186700D02*
D03*
X173600Y181900D02*
D03*
X184537Y251463D02*
D03*
X186000Y253100D02*
D03*
X140500Y65500D02*
D03*
X157900Y191700D02*
D03*
X260446Y180754D02*
D03*
X178300Y10900D02*
D03*
X180800Y36500D02*
D03*
X207100Y149800D02*
D03*
X141700Y240000D02*
D03*
X259800Y68400D02*
D03*
X123400Y62000D02*
D03*
X125500Y56200D02*
D03*
D51*
X148973Y97527D02*
D03*
X153304D02*
D03*
X157635D02*
D03*
X161965D02*
D03*
X166296D02*
D03*
X170627D02*
D03*
X148973Y93196D02*
D03*
X153304D02*
D03*
X157635D02*
D03*
X161965D02*
D03*
X166296D02*
D03*
X170627D02*
D03*
X148973Y88865D02*
D03*
X153304D02*
D03*
X157635D02*
D03*
X161965D02*
D03*
X166296D02*
D03*
X170627D02*
D03*
X148973Y84535D02*
D03*
X153304D02*
D03*
X157635D02*
D03*
X161965D02*
D03*
X166296D02*
D03*
X170627D02*
D03*
X148973Y80204D02*
D03*
X153304D02*
D03*
X157635D02*
D03*
X161965D02*
D03*
X166296D02*
D03*
X170627D02*
D03*
X148973Y75873D02*
D03*
X153304D02*
D03*
X157635D02*
D03*
X161965D02*
D03*
X166296D02*
D03*
X170627D02*
D03*
X223073Y76373D02*
D03*
X227404D02*
D03*
X231735D02*
D03*
X236065D02*
D03*
X240396D02*
D03*
X244727D02*
D03*
X223073Y80704D02*
D03*
X227404D02*
D03*
X231735D02*
D03*
X236065D02*
D03*
X240396D02*
D03*
X244727D02*
D03*
X223073Y85035D02*
D03*
X227404D02*
D03*
X231735D02*
D03*
X236065D02*
D03*
X240396D02*
D03*
X244727D02*
D03*
X223073Y89365D02*
D03*
X227404D02*
D03*
X231735D02*
D03*
X236065D02*
D03*
X240396D02*
D03*
X244727D02*
D03*
X223073Y93696D02*
D03*
X227404D02*
D03*
X231735D02*
D03*
X236065D02*
D03*
X240396D02*
D03*
X244727D02*
D03*
X223073Y98027D02*
D03*
X227404D02*
D03*
X231735D02*
D03*
X236065D02*
D03*
X240396D02*
D03*
X244727D02*
D03*
M02*
