%FSLAX25Y25*%
%MOIN*%
G70*
G01*
G75*
G04 Layer_Color=16711935*
%ADD10O,0.03543X0.00984*%
%ADD11R,0.06693X0.04331*%
%ADD12R,0.01969X0.01969*%
%ADD13R,0.03543X0.03150*%
%ADD14R,0.03150X0.03543*%
%ADD15R,0.01969X0.01969*%
%ADD16R,0.02362X0.04331*%
%ADD17R,0.03150X0.03150*%
%ADD18R,0.03150X0.03150*%
%ADD19R,0.04134X0.02362*%
%ADD20R,0.02362X0.04134*%
%ADD21R,0.03150X0.02756*%
%ADD22R,0.02756X0.03150*%
%ADD23R,0.02362X0.01969*%
%ADD24R,0.01969X0.02362*%
%ADD25R,0.25590X0.25590*%
%ADD26O,0.00984X0.03543*%
%ADD27R,0.01969X0.02559*%
%ADD28R,0.07087X0.03937*%
%ADD29R,0.03347X0.03740*%
%ADD30O,0.02559X0.00787*%
%ADD31O,0.00787X0.02559*%
%ADD32R,0.18504X0.18504*%
%ADD33R,0.02559X0.01969*%
%ADD34R,0.03543X0.02756*%
%ADD35R,0.03150X0.02953*%
%ADD36R,0.10236X0.05906*%
%ADD37R,0.00787X0.01969*%
%ADD38R,0.02953X0.05512*%
%ADD39R,0.05906X0.14173*%
%ADD40C,0.00600*%
%ADD41C,0.01000*%
%ADD42C,0.00800*%
%ADD43C,0.01200*%
%ADD44C,0.00400*%
%ADD45C,0.01600*%
%ADD46C,0.05906*%
%ADD47R,0.05906X0.05906*%
%ADD48R,0.05906X0.05906*%
%ADD49C,0.00900*%
%ADD50C,0.02000*%
%ADD51C,0.01400*%
%ADD52C,0.01969*%
%ADD53C,0.02598*%
%ADD54C,0.04000*%
%ADD55C,0.04743*%
%ADD56C,0.01600*%
%ADD57C,0.02200*%
%ADD58C,0.01800*%
%ADD59C,0.01987*%
%ADD60C,0.02499*%
%ADD61C,0.00984*%
%ADD62C,0.00394*%
%ADD63C,0.00787*%
%ADD64C,0.00500*%
%ADD65R,0.01575X0.01575*%
%ADD66R,0.01575X0.01575*%
%ADD67O,0.03943X0.01384*%
%ADD68R,0.07093X0.04731*%
%ADD69R,0.02369X0.02369*%
%ADD70R,0.03943X0.03550*%
%ADD71R,0.03550X0.03943*%
%ADD72R,0.02369X0.02369*%
%ADD73R,0.02762X0.04731*%
%ADD74R,0.03550X0.03550*%
%ADD75R,0.03550X0.03550*%
%ADD76R,0.04534X0.02762*%
%ADD77R,0.02762X0.04534*%
%ADD78R,0.03550X0.03156*%
%ADD79R,0.03156X0.03550*%
%ADD80R,0.02762X0.02369*%
%ADD81R,0.02369X0.02762*%
%ADD82R,0.25991X0.25991*%
%ADD83O,0.01384X0.03943*%
%ADD84R,0.02369X0.02959*%
%ADD85R,0.07487X0.04337*%
%ADD86R,0.03747X0.04140*%
%ADD87O,0.02959X0.01187*%
%ADD88O,0.01187X0.02959*%
%ADD89R,0.18904X0.18904*%
%ADD90R,0.02959X0.02369*%
%ADD91R,0.03943X0.03156*%
%ADD92R,0.03550X0.03353*%
%ADD93R,0.10636X0.06306*%
%ADD94R,0.01187X0.02369*%
%ADD95R,0.03353X0.05912*%
%ADD96R,0.06306X0.14573*%
%ADD97C,0.06306*%
%ADD98R,0.06306X0.06306*%
%ADD99R,0.06306X0.06306*%
%ADD100C,0.01300*%
%ADD101C,0.02400*%
%ADD102C,0.02369*%
%ADD103C,0.02998*%
%ADD104C,0.00050*%
D104*
X-96726Y-112648D02*
G03*
X-96726Y-112648I-1J0D01*
G01*
X-96672Y-112649D02*
G03*
X-96672Y-112649I-1J0D01*
G01*
X-96649D02*
G03*
X-96649Y-112649I-1J0D01*
G01*
X-96654Y-112658D02*
G03*
X-96654Y-112658I-1J0D01*
G01*
X-96644Y-112701D02*
G03*
X-96644Y-112701I-1J0D01*
G01*
X-96651Y-112708D02*
G03*
X-96651Y-112708I-1J0D01*
G01*
X-96681Y-112767D02*
G03*
X-96681Y-112767I-1J0D01*
G01*
X-96658Y-112721D02*
G03*
X-96658Y-112721I-1J0D01*
G01*
X-96678Y-112729D02*
G03*
X-96678Y-112729I-1J0D01*
G01*
X-96700Y-112773D02*
G03*
X-96700Y-112773I-1J0D01*
G01*
X-96761Y-112737D02*
G03*
X-96761Y-112737I-3J0D01*
G01*
Y-112695D02*
G03*
X-96761Y-112695I-3J0D01*
G01*
X-96739Y-112666D02*
G03*
X-96739Y-112666I-3J0D01*
G01*
X-96677Y-112717D02*
G03*
X-96677Y-112717I-3J0D01*
G01*
X-96724Y-112764D02*
G03*
X-96724Y-112764I-3J0D01*
G01*
X-96752Y-112678D02*
G03*
X-96752Y-112678I-3J0D01*
G01*
X-96745Y-112764D02*
G03*
X-96745Y-112764I-3J0D01*
G01*
X-96670Y-112663D02*
G03*
X-96670Y-112663I-3J0D01*
G01*
X-96671Y-112704D02*
G03*
X-96671Y-112704I-3J0D01*
G01*
X-96763Y-112766D02*
G03*
X-96763Y-112766I-4J0D01*
G01*
X-96689Y-112769D02*
G03*
X-96689Y-112769I-4J0D01*
G01*
X-96731Y-112652D02*
G03*
X-96731Y-112652I-4J0D01*
G01*
X-96654Y-112651D02*
G03*
X-96654Y-112651I-4J0D01*
G01*
X-96652Y-112716D02*
G03*
X-96652Y-112716I-4J0D01*
G01*
X-96765Y-112711D02*
G03*
X-96765Y-112711I-4J0D01*
G01*
X-96684Y-112668D02*
G03*
X-96684Y-112668I-2J0D01*
G01*
X-96696D02*
G03*
X-96696Y-112668I-2J0D01*
G01*
X-96707D02*
G03*
X-96707Y-112668I-2J0D01*
G01*
X-96719D02*
G03*
X-96719Y-112668I-2J0D01*
G01*
X-96671Y-112674D02*
G03*
X-96671Y-112674I-2J0D01*
G01*
X-96684D02*
G03*
X-96684Y-112674I-2J0D01*
G01*
X-96696D02*
G03*
X-96696Y-112674I-2J0D01*
G01*
X-96707D02*
G03*
X-96707Y-112674I-2J0D01*
G01*
X-96719D02*
G03*
X-96719Y-112674I-2J0D01*
G01*
X-96732D02*
G03*
X-96732Y-112674I-2J0D01*
G01*
X-96678Y-112680D02*
G03*
X-96678Y-112680I-2J0D01*
G01*
X-96689D02*
G03*
X-96689Y-112680I-2J0D01*
G01*
X-96702D02*
G03*
X-96702Y-112680I-2J0D01*
G01*
X-96714D02*
G03*
X-96714Y-112680I-2J0D01*
G01*
X-96725D02*
G03*
X-96725Y-112680I-2J0D01*
G01*
X-96737D02*
G03*
X-96737Y-112680I-2J0D01*
G01*
X-96684Y-112686D02*
G03*
X-96684Y-112686I-2J0D01*
G01*
X-96696D02*
G03*
X-96696Y-112686I-2J0D01*
G01*
X-96707D02*
G03*
X-96707Y-112686I-2J0D01*
G01*
X-96719D02*
G03*
X-96719Y-112686I-2J0D01*
G01*
X-96732D02*
G03*
X-96732Y-112686I-2J0D01*
G01*
X-96744D02*
G03*
X-96744Y-112686I-2J0D01*
G01*
X-96684Y-112692D02*
G03*
X-96684Y-112692I-2J0D01*
G01*
X-96696D02*
G03*
X-96696Y-112692I-2J0D01*
G01*
X-96707D02*
G03*
X-96707Y-112692I-2J0D01*
G01*
X-96719D02*
G03*
X-96719Y-112692I-2J0D01*
G01*
X-96732D02*
G03*
X-96732Y-112692I-2J0D01*
G01*
X-96744D02*
G03*
X-96744Y-112692I-2J0D01*
G01*
X-96684Y-112698D02*
G03*
X-96684Y-112698I-2J0D01*
G01*
X-96696D02*
G03*
X-96696Y-112698I-2J0D01*
G01*
X-96707D02*
G03*
X-96707Y-112698I-2J0D01*
G01*
X-96719D02*
G03*
X-96719Y-112698I-2J0D01*
G01*
X-96732D02*
G03*
X-96732Y-112698I-2J0D01*
G01*
X-96744D02*
G03*
X-96744Y-112698I-2J0D01*
G01*
X-96684Y-112704D02*
G03*
X-96684Y-112704I-2J0D01*
G01*
X-96696D02*
G03*
X-96696Y-112704I-2J0D01*
G01*
X-96707D02*
G03*
X-96707Y-112704I-2J0D01*
G01*
X-96719D02*
G03*
X-96719Y-112704I-2J0D01*
G01*
X-96732D02*
G03*
X-96732Y-112704I-2J0D01*
G01*
X-96744D02*
G03*
X-96744Y-112704I-2J0D01*
G01*
X-96689Y-112710D02*
G03*
X-96689Y-112710I-2J0D01*
G01*
X-96702D02*
G03*
X-96702Y-112710I-2J0D01*
G01*
X-96714D02*
G03*
X-96714Y-112710I-2J0D01*
G01*
X-96725D02*
G03*
X-96725Y-112710I-2J0D01*
G01*
X-96737D02*
G03*
X-96737Y-112710I-2J0D01*
G01*
X-96750D02*
G03*
X-96750Y-112710I-2J0D01*
G01*
X-96696Y-112716D02*
G03*
X-96696Y-112716I-2J0D01*
G01*
X-96707D02*
G03*
X-96707Y-112716I-2J0D01*
G01*
X-96719D02*
G03*
X-96719Y-112716I-2J0D01*
G01*
X-96732D02*
G03*
X-96732Y-112716I-2J0D01*
G01*
X-96744D02*
G03*
X-96744Y-112716I-2J0D01*
G01*
X-96696Y-112722D02*
G03*
X-96696Y-112722I-2J0D01*
G01*
X-96707D02*
G03*
X-96707Y-112722I-2J0D01*
G01*
X-96719D02*
G03*
X-96719Y-112722I-2J0D01*
G01*
X-96732D02*
G03*
X-96732Y-112722I-2J0D01*
G01*
X-96744D02*
G03*
X-96744Y-112722I-2J0D01*
G01*
X-96696Y-112728D02*
G03*
X-96696Y-112728I-2J0D01*
G01*
X-96707D02*
G03*
X-96707Y-112728I-2J0D01*
G01*
X-96719D02*
G03*
X-96719Y-112728I-2J0D01*
G01*
X-96732D02*
G03*
X-96732Y-112728I-2J0D01*
G01*
X-96744D02*
G03*
X-96744Y-112728I-2J0D01*
G01*
X-96702Y-112734D02*
G03*
X-96702Y-112734I-2J0D01*
G01*
X-96714D02*
G03*
X-96714Y-112734I-2J0D01*
G01*
X-96725D02*
G03*
X-96725Y-112734I-2J0D01*
G01*
X-96737D02*
G03*
X-96737Y-112734I-2J0D01*
G01*
X-96750D02*
G03*
X-96750Y-112734I-2J0D01*
G01*
X-96707Y-112740D02*
G03*
X-96707Y-112740I-2J0D01*
G01*
X-96719D02*
G03*
X-96719Y-112740I-2J0D01*
G01*
X-96732D02*
G03*
X-96732Y-112740I-2J0D01*
G01*
X-96744D02*
G03*
X-96744Y-112740I-2J0D01*
G01*
X-96707Y-112746D02*
G03*
X-96707Y-112746I-2J0D01*
G01*
X-96719D02*
G03*
X-96719Y-112746I-2J0D01*
G01*
X-96732D02*
G03*
X-96732Y-112746I-2J0D01*
G01*
X-96744D02*
G03*
X-96744Y-112746I-2J0D01*
G01*
X-96707Y-112752D02*
G03*
X-96707Y-112752I-2J0D01*
G01*
X-96719D02*
G03*
X-96719Y-112752I-2J0D01*
G01*
X-96732D02*
G03*
X-96732Y-112752I-2J0D01*
G01*
X-96744D02*
G03*
X-96744Y-112752I-2J0D01*
G01*
X-96635Y-112660D02*
G03*
X-96650Y-112645I-15J0D01*
G01*
X-96731D02*
G03*
X-96742Y-112649I0J-15D01*
G01*
X-96771Y-112678D02*
G03*
X-96775Y-112689I11J-11D01*
G01*
Y-112760D02*
G03*
X-96760Y-112775I15J0D01*
G01*
X-96688D02*
G03*
X-96674Y-112767I0J15D01*
G01*
X-96637Y-112692D02*
G03*
X-96635Y-112685I-13J7D01*
G01*
X-96750Y-112752D02*
G03*
X-96750Y-112752I-2J0D01*
G01*
X-96737D02*
G03*
X-96737Y-112752I-2J0D01*
G01*
X-96725D02*
G03*
X-96725Y-112752I-2J0D01*
G01*
X-96714D02*
G03*
X-96714Y-112752I-2J0D01*
G01*
X-96750Y-112746D02*
G03*
X-96750Y-112746I-2J0D01*
G01*
X-96737D02*
G03*
X-96737Y-112746I-2J0D01*
G01*
X-96725D02*
G03*
X-96725Y-112746I-2J0D01*
G01*
X-96714D02*
G03*
X-96714Y-112746I-2J0D01*
G01*
X-96750Y-112740D02*
G03*
X-96750Y-112740I-2J0D01*
G01*
X-96737D02*
G03*
X-96737Y-112740I-2J0D01*
G01*
X-96725D02*
G03*
X-96725Y-112740I-2J0D01*
G01*
X-96714D02*
G03*
X-96714Y-112740I-2J0D01*
G01*
X-96702D02*
G03*
X-96702Y-112740I-2J0D01*
G01*
X-96744Y-112734D02*
G03*
X-96744Y-112734I-2J0D01*
G01*
X-96732D02*
G03*
X-96732Y-112734I-2J0D01*
G01*
X-96719D02*
G03*
X-96719Y-112734I-2J0D01*
G01*
X-96707D02*
G03*
X-96707Y-112734I-2J0D01*
G01*
X-96750Y-112728D02*
G03*
X-96750Y-112728I-2J0D01*
G01*
X-96737D02*
G03*
X-96737Y-112728I-2J0D01*
G01*
X-96725D02*
G03*
X-96725Y-112728I-2J0D01*
G01*
X-96714D02*
G03*
X-96714Y-112728I-2J0D01*
G01*
X-96702D02*
G03*
X-96702Y-112728I-2J0D01*
G01*
X-96750Y-112722D02*
G03*
X-96750Y-112722I-2J0D01*
G01*
X-96737D02*
G03*
X-96737Y-112722I-2J0D01*
G01*
X-96725D02*
G03*
X-96725Y-112722I-2J0D01*
G01*
X-96714D02*
G03*
X-96714Y-112722I-2J0D01*
G01*
X-96702D02*
G03*
X-96702Y-112722I-2J0D01*
G01*
X-96750Y-112716D02*
G03*
X-96750Y-112716I-2J0D01*
G01*
X-96737D02*
G03*
X-96737Y-112716I-2J0D01*
G01*
X-96725D02*
G03*
X-96725Y-112716I-2J0D01*
G01*
X-96714D02*
G03*
X-96714Y-112716I-2J0D01*
G01*
X-96702D02*
G03*
X-96702Y-112716I-2J0D01*
G01*
X-96689D02*
G03*
X-96689Y-112716I-2J0D01*
G01*
X-96744Y-112710D02*
G03*
X-96744Y-112710I-2J0D01*
G01*
X-96732D02*
G03*
X-96732Y-112710I-2J0D01*
G01*
X-96719D02*
G03*
X-96719Y-112710I-2J0D01*
G01*
X-96707D02*
G03*
X-96707Y-112710I-2J0D01*
G01*
X-96696D02*
G03*
X-96696Y-112710I-2J0D01*
G01*
X-96750Y-112704D02*
G03*
X-96750Y-112704I-2J0D01*
G01*
X-96737D02*
G03*
X-96737Y-112704I-2J0D01*
G01*
X-96725D02*
G03*
X-96725Y-112704I-2J0D01*
G01*
X-96714D02*
G03*
X-96714Y-112704I-2J0D01*
G01*
X-96702D02*
G03*
X-96702Y-112704I-2J0D01*
G01*
X-96689D02*
G03*
X-96689Y-112704I-2J0D01*
G01*
X-96750Y-112698D02*
G03*
X-96750Y-112698I-2J0D01*
G01*
X-96737D02*
G03*
X-96737Y-112698I-2J0D01*
G01*
X-96725D02*
G03*
X-96725Y-112698I-2J0D01*
G01*
X-96714D02*
G03*
X-96714Y-112698I-2J0D01*
G01*
X-96702D02*
G03*
X-96702Y-112698I-2J0D01*
G01*
X-96689D02*
G03*
X-96689Y-112698I-2J0D01*
G01*
X-96750Y-112692D02*
G03*
X-96750Y-112692I-2J0D01*
G01*
X-96737D02*
G03*
X-96737Y-112692I-2J0D01*
G01*
X-96725D02*
G03*
X-96725Y-112692I-2J0D01*
G01*
X-96714D02*
G03*
X-96714Y-112692I-2J0D01*
G01*
X-96702D02*
G03*
X-96702Y-112692I-2J0D01*
G01*
X-96689D02*
G03*
X-96689Y-112692I-2J0D01*
G01*
X-96678D02*
G03*
X-96678Y-112692I-2J0D01*
G01*
X-96737Y-112686D02*
G03*
X-96737Y-112686I-2J0D01*
G01*
X-96725D02*
G03*
X-96725Y-112686I-2J0D01*
G01*
X-96714D02*
G03*
X-96714Y-112686I-2J0D01*
G01*
X-96702D02*
G03*
X-96702Y-112686I-2J0D01*
G01*
X-96689D02*
G03*
X-96689Y-112686I-2J0D01*
G01*
X-96678D02*
G03*
X-96678Y-112686I-2J0D01*
G01*
X-96732Y-112680D02*
G03*
X-96732Y-112680I-2J0D01*
G01*
X-96719D02*
G03*
X-96719Y-112680I-2J0D01*
G01*
X-96707D02*
G03*
X-96707Y-112680I-2J0D01*
G01*
X-96696D02*
G03*
X-96696Y-112680I-2J0D01*
G01*
X-96684D02*
G03*
X-96684Y-112680I-2J0D01*
G01*
X-96671D02*
G03*
X-96671Y-112680I-2J0D01*
G01*
X-96725Y-112674D02*
G03*
X-96725Y-112674I-2J0D01*
G01*
X-96714D02*
G03*
X-96714Y-112674I-2J0D01*
G01*
X-96702D02*
G03*
X-96702Y-112674I-2J0D01*
G01*
X-96689D02*
G03*
X-96689Y-112674I-2J0D01*
G01*
X-96678D02*
G03*
X-96678Y-112674I-2J0D01*
G01*
X-96725Y-112668D02*
G03*
X-96725Y-112668I-2J0D01*
G01*
X-96714D02*
G03*
X-96714Y-112668I-2J0D01*
G01*
X-96702D02*
G03*
X-96702Y-112668I-2J0D01*
G01*
X-96689D02*
G03*
X-96689Y-112668I-2J0D01*
G01*
X-96678D02*
G03*
X-96678Y-112668I-2J0D01*
G01*
X-96710Y-112770D02*
X-96688Y-112726D01*
X-96682Y-112730D01*
X-96704Y-112773D02*
X-96682Y-112730D01*
X-96710Y-112770D02*
X-96704Y-112773D01*
X-96667Y-112718D02*
X-96661Y-112721D01*
X-96683Y-112765D02*
X-96661Y-112721D01*
X-96689Y-112762D02*
X-96683Y-112765D01*
X-96689Y-112762D02*
X-96667Y-112718D01*
X-96663Y-112708D02*
Y-112659D01*
X-96656D01*
Y-112708D02*
Y-112659D01*
X-96663Y-112708D02*
X-96656D01*
X-96649Y-112698D02*
Y-112649D01*
X-96642D01*
Y-112698D02*
Y-112649D01*
X-96649Y-112698D02*
X-96642D01*
X-96725Y-112656D02*
Y-112649D01*
X-96676D01*
Y-112656D02*
Y-112649D01*
X-96725Y-112656D02*
X-96676D01*
X-96731Y-112645D02*
X-96650D01*
X-96771Y-112678D02*
X-96741Y-112649D01*
X-96775Y-112760D02*
Y-112689D01*
X-96760Y-112775D02*
X-96688D01*
X-96674Y-112767D02*
X-96637Y-112692D01*
X-96635Y-112685D02*
Y-112660D01*
M02*
