%FSLAX25Y25*%
%MOIN*%
G70*
G01*
G75*
G04 Layer_Color=255*
%ADD10O,0.03543X0.00984*%
%ADD11R,0.06693X0.04331*%
%ADD12R,0.01969X0.01969*%
%ADD13R,0.03543X0.03150*%
%ADD14R,0.03150X0.03543*%
%ADD15R,0.01969X0.01969*%
%ADD16R,0.02362X0.04331*%
%ADD17R,0.03150X0.03150*%
%ADD18R,0.03150X0.03150*%
%ADD19R,0.04134X0.02362*%
%ADD20R,0.02362X0.04134*%
%ADD21R,0.03150X0.02756*%
%ADD22R,0.02756X0.03150*%
%ADD23R,0.02362X0.01969*%
%ADD24R,0.01969X0.02362*%
%ADD25R,0.25590X0.25590*%
%ADD26O,0.00984X0.03543*%
%ADD27R,0.01969X0.02559*%
%ADD28R,0.07087X0.03937*%
%ADD29R,0.03347X0.03740*%
%ADD30O,0.02559X0.00787*%
%ADD31O,0.00787X0.02559*%
%ADD32R,0.18504X0.18504*%
%ADD33R,0.02559X0.01969*%
%ADD34R,0.03543X0.02756*%
%ADD35R,0.03150X0.02953*%
%ADD36R,0.10236X0.05906*%
%ADD37R,0.00787X0.01969*%
%ADD38R,0.02953X0.05512*%
%ADD39R,0.05906X0.14173*%
%ADD40C,0.00600*%
%ADD41C,0.01000*%
%ADD42C,0.00800*%
%ADD43C,0.01200*%
%ADD44C,0.00400*%
%ADD45C,0.01600*%
%ADD46C,0.05906*%
%ADD47R,0.05906X0.05906*%
%ADD48R,0.05906X0.05906*%
%ADD49C,0.00900*%
%ADD50C,0.02000*%
%ADD51C,0.01400*%
%ADD52C,0.01969*%
%ADD53C,0.02598*%
%ADD54C,0.04000*%
%ADD55C,0.04743*%
%ADD56C,0.01600*%
%ADD57C,0.02200*%
%ADD58C,0.01800*%
%ADD59C,0.01987*%
%ADD60C,0.02499*%
D10*
X217955Y86216D02*
D03*
Y88184D02*
D03*
Y74405D02*
D03*
Y76373D02*
D03*
Y78342D02*
D03*
Y80310D02*
D03*
Y82279D02*
D03*
Y84247D02*
D03*
Y94090D02*
D03*
Y96058D02*
D03*
Y98027D02*
D03*
Y99995D02*
D03*
X249845D02*
D03*
Y98027D02*
D03*
Y96058D02*
D03*
Y94090D02*
D03*
Y92121D02*
D03*
Y90153D02*
D03*
Y88184D02*
D03*
Y86216D02*
D03*
Y84247D02*
D03*
Y82279D02*
D03*
Y80310D02*
D03*
Y78342D02*
D03*
Y76373D02*
D03*
Y74405D02*
D03*
X217955Y92121D02*
D03*
Y90153D02*
D03*
D18*
X260000Y227153D02*
D03*
Y221247D02*
D03*
D21*
X234300Y110446D02*
D03*
Y116154D02*
D03*
X175700Y61954D02*
D03*
Y56246D02*
D03*
X166900Y62154D02*
D03*
Y56446D02*
D03*
X184100Y106846D02*
D03*
Y112554D02*
D03*
D22*
X258146Y89300D02*
D03*
X263854D02*
D03*
X219054Y111700D02*
D03*
X213346D02*
D03*
X213154Y103900D02*
D03*
X207446D02*
D03*
X222609Y62200D02*
D03*
X216900D02*
D03*
X258146Y84600D02*
D03*
X263854D02*
D03*
D24*
X154400Y63769D02*
D03*
Y59832D02*
D03*
X285000Y75968D02*
D03*
Y72031D02*
D03*
X288700Y75968D02*
D03*
Y72031D02*
D03*
D25*
X233900Y87200D02*
D03*
D26*
X221105Y103145D02*
D03*
X223073D02*
D03*
X225042D02*
D03*
X227010D02*
D03*
X228979D02*
D03*
X230947D02*
D03*
X232916D02*
D03*
X234884D02*
D03*
X236853D02*
D03*
X238821D02*
D03*
X240790D02*
D03*
X242758D02*
D03*
X244727D02*
D03*
X246695D02*
D03*
Y71255D02*
D03*
X244727D02*
D03*
X242758D02*
D03*
X240790D02*
D03*
X238821D02*
D03*
X236853D02*
D03*
X234884D02*
D03*
X232916D02*
D03*
X230947D02*
D03*
X228979D02*
D03*
X227010D02*
D03*
X225042D02*
D03*
X223073D02*
D03*
X221105D02*
D03*
D37*
X231506Y59072D02*
D03*
X232294Y55528D02*
D03*
D38*
X229046Y57300D02*
D03*
X234754D02*
D03*
D46*
X153500Y287400D02*
D03*
X143500D02*
D03*
X133500D02*
D03*
X123500D02*
D03*
X113500D02*
D03*
X378700Y281800D02*
D03*
X374100Y172800D02*
D03*
X364100Y162800D02*
D03*
X374100D02*
D03*
X364100Y152800D02*
D03*
X374100D02*
D03*
X364100Y142800D02*
D03*
X374100D02*
D03*
X364100Y132800D02*
D03*
X374100D02*
D03*
X364100Y122800D02*
D03*
X374100D02*
D03*
X364100Y112800D02*
D03*
X374100D02*
D03*
X364100Y102800D02*
D03*
X374100D02*
D03*
X364100Y92800D02*
D03*
X374100D02*
D03*
X364100Y82800D02*
D03*
X374100D02*
D03*
X364100Y72800D02*
D03*
X374100D02*
D03*
X364100Y62800D02*
D03*
X374100D02*
D03*
X364100Y52800D02*
D03*
X374100D02*
D03*
X364100Y42800D02*
D03*
X374100D02*
D03*
X364100Y32800D02*
D03*
X374100D02*
D03*
X364100Y22800D02*
D03*
X374100D02*
D03*
X77300Y172300D02*
D03*
X67300Y162300D02*
D03*
X77300D02*
D03*
X67300Y152300D02*
D03*
X77300D02*
D03*
X67300Y142300D02*
D03*
X77300D02*
D03*
X67300Y132300D02*
D03*
X77300D02*
D03*
X67300Y122300D02*
D03*
X77300D02*
D03*
X67300Y112300D02*
D03*
X77300D02*
D03*
X67300Y102300D02*
D03*
X77300D02*
D03*
X67300Y92300D02*
D03*
X77300D02*
D03*
X67300Y82300D02*
D03*
X77300D02*
D03*
X67300Y72300D02*
D03*
X77300D02*
D03*
X67300Y62300D02*
D03*
X77300D02*
D03*
X67300Y52300D02*
D03*
X77300D02*
D03*
X67300Y42300D02*
D03*
X77300D02*
D03*
X67300Y32300D02*
D03*
X77300D02*
D03*
X67300Y22300D02*
D03*
X77300D02*
D03*
X233500Y287500D02*
D03*
X223500D02*
D03*
X213500D02*
D03*
X203500D02*
D03*
X193500D02*
D03*
D47*
X103500Y287400D02*
D03*
X183500Y287500D02*
D03*
D48*
X378700Y271800D02*
D03*
X364100Y172800D02*
D03*
X67300Y172300D02*
D03*
M02*
