%FSLAX25Y25*%
%MOIN*%
G70*
G01*
G75*
G04 Layer_Physical_Order=4*
G04 Layer_Color=128*
%ADD10R,0.01969X0.01969*%
%ADD11R,0.05906X0.14173*%
%ADD12R,0.03150X0.02756*%
%ADD13R,0.02756X0.03150*%
%ADD14R,0.01969X0.02362*%
%ADD15R,0.02953X0.05512*%
%ADD16R,0.00787X0.01969*%
%ADD17R,0.03150X0.03543*%
%ADD18R,0.03543X0.02756*%
%ADD19R,0.10236X0.05906*%
%ADD20R,0.02362X0.01969*%
%ADD21R,0.01969X0.01969*%
%ADD22R,0.03150X0.02953*%
%ADD23R,0.01969X0.02559*%
%ADD24R,0.02559X0.01969*%
%ADD25R,0.18504X0.18504*%
%ADD26O,0.00787X0.02559*%
%ADD27O,0.02559X0.00787*%
%ADD28R,0.03347X0.03740*%
%ADD29O,0.03543X0.00984*%
%ADD30O,0.00984X0.03543*%
%ADD31R,0.25590X0.25590*%
%ADD32R,0.03150X0.03150*%
%ADD33R,0.03150X0.03150*%
%ADD34R,0.04134X0.02362*%
%ADD35R,0.03543X0.03150*%
%ADD36R,0.02362X0.04134*%
%ADD37R,0.02362X0.04331*%
%ADD38R,0.06693X0.04331*%
%ADD39C,0.00800*%
%ADD40C,0.00600*%
%ADD41C,0.01200*%
%ADD42C,0.01000*%
%ADD43C,0.01600*%
%ADD44C,0.00400*%
%ADD45R,0.05906X0.05906*%
%ADD46C,0.05906*%
%ADD47R,0.05906X0.05906*%
%ADD48C,0.02000*%
%ADD49C,0.01400*%
%ADD50C,0.01969*%
%ADD51C,0.02598*%
%ADD52C,0.00900*%
%ADD53C,0.04000*%
%ADD54C,0.04743*%
%ADD55C,0.02200*%
%ADD56C,0.01800*%
%ADD57C,0.01600*%
%ADD58C,0.01987*%
%ADD59C,0.02499*%
G36*
X96200Y294899D02*
Y241000D01*
X58900Y241000D01*
X58900Y294899D01*
X96200Y294899D01*
D02*
G37*
D39*
X97900Y227900D02*
Y229100D01*
X128700Y6300D02*
Y191300D01*
X349300Y217200D02*
X388000D01*
X333600Y232900D02*
X349300Y217200D01*
X331400Y235100D02*
X333600Y232900D01*
X305000Y235100D02*
X331400D01*
X301300Y238800D02*
X305000Y235100D01*
X301300Y238800D02*
Y264900D01*
X308300Y271900D01*
X340200D01*
X340600Y271600D02*
Y294700D01*
Y271600D02*
X345600Y266600D01*
X388000D01*
X97900Y229200D02*
Y294500D01*
X58900D02*
X97900D01*
X286900Y196300D02*
Y262000D01*
Y229200D02*
Y293000D01*
X288600Y294700D01*
X162100Y113500D02*
X167700D01*
X162100Y98800D02*
Y113500D01*
X154300Y91000D02*
X162100Y98800D01*
X167700Y77000D02*
Y113500D01*
X133000Y75200D02*
X143800Y64400D01*
X160200D01*
X169200D01*
X233100Y98400D02*
Y109900D01*
Y98400D02*
X236200Y95300D01*
X261100D01*
X235000Y76700D02*
X243000Y84700D01*
X235000Y66500D02*
Y76700D01*
X169200Y64400D02*
X223400D01*
X141600Y120000D02*
X209225D01*
X141600Y94700D02*
Y195592D01*
X133000Y75200D02*
Y86700D01*
X286900Y196300D02*
X388200D01*
X141600Y195592D02*
Y200500D01*
X165200Y224100D01*
X141600Y91000D02*
Y94700D01*
Y91000D02*
X154300D01*
X245400Y87100D02*
X261100D01*
X243000Y84700D02*
X245400Y87100D01*
X261100D02*
Y95300D01*
X213400Y55900D02*
X235000D01*
Y66500D01*
X215900Y33500D02*
X217400Y35000D01*
Y43900D01*
X234200D01*
Y22600D02*
Y43900D01*
X229900Y18300D02*
X234200Y22600D01*
X162600Y18300D02*
X229900D01*
X159300Y21600D02*
X162600Y18300D01*
X159300Y21600D02*
Y47800D01*
X160900Y49400D01*
X186200D01*
Y33500D02*
Y49400D01*
Y33500D02*
X215900D01*
X164400Y144100D02*
X230100D01*
X164400Y127200D02*
Y144100D01*
Y127200D02*
X230100D01*
Y144100D01*
X236300Y151700D02*
X240300Y147700D01*
X230400Y175000D02*
X232900Y177500D01*
X258300D01*
Y120100D02*
Y177500D01*
X230400Y157600D02*
X236300Y151700D01*
X230400Y157600D02*
Y175000D01*
X182800Y241700D02*
X286492D01*
X165200Y224100D02*
X182800Y241700D01*
X274600Y72700D02*
Y103800D01*
X257800Y55900D02*
X274600Y72700D01*
X128700Y55900D02*
X257800D01*
X133000Y86700D02*
X153500D01*
X157125Y83075D02*
X163200Y77000D01*
X164400D02*
X167700D01*
X153500Y86700D02*
X157125Y83075D01*
X163200Y77000D02*
X164400D01*
X258300Y120100D02*
X274600Y103800D01*
X223400Y64400D02*
X226300Y67300D01*
X223900Y79850D02*
Y107400D01*
X226400Y109900D02*
X233100D01*
X223900Y79850D02*
X226300Y77450D01*
Y67300D02*
Y77450D01*
X97900Y227900D02*
X128700Y197100D01*
Y191300D02*
Y197100D01*
X141600Y110500D02*
Y120000D01*
X209225D02*
X215425Y113800D01*
X240300Y120400D02*
Y147700D01*
X233700Y113800D02*
X240300Y120400D01*
X215425Y113800D02*
X233700D01*
X223900Y107400D02*
X226400Y109900D01*
D53*
X59000Y294900D02*
X388000Y294902D01*
X59000Y6300D02*
Y294900D01*
Y6300D02*
X388000Y6300D01*
X388000Y294902D02*
X388000Y6300D01*
D54*
X183500Y287500D02*
D03*
X193500D02*
D03*
X203500D02*
D03*
X213500D02*
D03*
X223500D02*
D03*
X233500D02*
D03*
X77300Y22300D02*
D03*
Y32300D02*
D03*
Y42300D02*
D03*
Y52300D02*
D03*
Y62300D02*
D03*
Y72300D02*
D03*
Y92300D02*
D03*
Y102300D02*
D03*
Y122300D02*
D03*
Y132300D02*
D03*
Y142300D02*
D03*
Y152300D02*
D03*
Y172300D02*
D03*
X374100Y22800D02*
D03*
X364100D02*
D03*
X374100Y32800D02*
D03*
X364100D02*
D03*
X374100Y42800D02*
D03*
X364100D02*
D03*
X374100Y52800D02*
D03*
X364100D02*
D03*
X374100Y62800D02*
D03*
X364100D02*
D03*
X374100Y72800D02*
D03*
X364100D02*
D03*
X374100Y82800D02*
D03*
X364100D02*
D03*
X374100Y92800D02*
D03*
X364100D02*
D03*
X374100Y102800D02*
D03*
X364100D02*
D03*
X374100Y112800D02*
D03*
X364100D02*
D03*
X374100Y122800D02*
D03*
X364100D02*
D03*
X374100Y132800D02*
D03*
X364100D02*
D03*
X374100Y142800D02*
D03*
X364100D02*
D03*
X374100Y152800D02*
D03*
X364100D02*
D03*
X374100Y162800D02*
D03*
X364100D02*
D03*
X374100Y172800D02*
D03*
X364100D02*
D03*
X378700Y281800D02*
D03*
X113500Y287400D02*
D03*
X123500D02*
D03*
X133500D02*
D03*
X143500D02*
D03*
X153500D02*
D03*
D55*
X226800Y67100D02*
D03*
X309500Y255900D02*
D03*
X312700Y243700D02*
D03*
X346800Y256400D02*
D03*
X346100Y247800D02*
D03*
X352600Y255600D02*
D03*
X358200Y281300D02*
D03*
X350200Y274700D02*
D03*
X118100Y241500D02*
D03*
X106200Y233400D02*
D03*
X106100Y228100D02*
D03*
X101900Y243900D02*
D03*
X105800Y267700D02*
D03*
X117400Y264200D02*
D03*
X105700Y248000D02*
D03*
Y252300D02*
D03*
X139500Y222600D02*
D03*
X124900Y222800D02*
D03*
X177100Y239100D02*
D03*
X177900Y258000D02*
D03*
X161100Y238000D02*
D03*
X167500Y268400D02*
D03*
X157000Y224100D02*
D03*
X98400Y270700D02*
D03*
X171200Y62100D02*
D03*
D56*
X255500Y93700D02*
D03*
X215400Y236000D02*
D03*
X212700Y235800D02*
D03*
X208900Y246100D02*
D03*
X205800Y249100D02*
D03*
X203300Y245900D02*
D03*
X140900Y237300D02*
D03*
X134800Y236100D02*
D03*
X131500Y236300D02*
D03*
X128200Y237100D02*
D03*
X137900Y237000D02*
D03*
X125500Y56200D02*
D03*
X123400Y62000D02*
D03*
X259800Y68400D02*
D03*
X123400Y254700D02*
D03*
X141700Y240000D02*
D03*
X207100Y149800D02*
D03*
X180800Y36500D02*
D03*
X178300Y10900D02*
D03*
X260446Y180754D02*
D03*
X248100Y248200D02*
D03*
X157900Y191700D02*
D03*
X140500Y65500D02*
D03*
X186000Y253100D02*
D03*
X184537Y251463D02*
D03*
X173600Y181900D02*
D03*
X171600Y186700D02*
D03*
X168800Y194900D02*
D03*
X178300Y266100D02*
D03*
X180900Y264400D02*
D03*
X184100Y262600D02*
D03*
X212200Y58500D02*
D03*
X211700Y76000D02*
D03*
X199600D02*
D03*
X194000Y75900D02*
D03*
X181800Y75400D02*
D03*
X110200Y200700D02*
D03*
X121000Y261900D02*
D03*
X127000Y196500D02*
D03*
X121400Y259000D02*
D03*
X129300Y208500D02*
D03*
X249400Y224400D02*
D03*
X260000Y210800D02*
D03*
X268700Y210600D02*
D03*
X216000Y178000D02*
D03*
X216100Y185100D02*
D03*
X215900Y191000D02*
D03*
X182500Y219900D02*
D03*
X200300Y231000D02*
D03*
X230600Y273800D02*
D03*
X248300Y272400D02*
D03*
X255900Y254800D02*
D03*
X276400Y287400D02*
D03*
X270300Y275100D02*
D03*
X299900Y281400D02*
D03*
X321200Y287900D02*
D03*
X317400Y212000D02*
D03*
X328800Y214200D02*
D03*
X292800Y226700D02*
D03*
Y197500D02*
D03*
X286200Y196600D02*
D03*
X264900Y228000D02*
D03*
X263800Y221200D02*
D03*
X237800Y239200D02*
D03*
X209400Y209600D02*
D03*
X236200Y208600D02*
D03*
X229000Y209500D02*
D03*
X298600Y271100D02*
D03*
X186100Y148500D02*
D03*
X235900Y169100D02*
D03*
X233500Y51700D02*
D03*
X159100Y50800D02*
D03*
X271400Y84600D02*
D03*
X223100Y108100D02*
D03*
X227200Y109200D02*
D03*
X220100Y66400D02*
D03*
X270000Y89500D02*
D03*
X206400Y76500D02*
D03*
X166800Y66000D02*
D03*
X165300Y115800D02*
D03*
X164779Y107979D02*
D03*
X168700Y107900D02*
D03*
X188100Y112500D02*
D03*
X155900Y126000D02*
D03*
X161700Y126100D02*
D03*
X168200Y274900D02*
D03*
X170900Y276200D02*
D03*
X172700Y278400D02*
D03*
X175300Y279500D02*
D03*
X177600Y279800D02*
D03*
X115500Y58900D02*
D03*
X117200Y54000D02*
D03*
X118900Y52100D02*
D03*
X155637Y251463D02*
D03*
X155400Y253300D02*
D03*
X156787Y254613D02*
D03*
X158100Y256100D02*
D03*
X159500Y257800D02*
D03*
X187987Y254613D02*
D03*
X191000Y256100D02*
D03*
Y260600D02*
D03*
X268500Y66600D02*
D03*
X262100Y64500D02*
D03*
X273000Y63200D02*
D03*
X266300Y58500D02*
D03*
X263800Y60500D02*
D03*
X234800Y107100D02*
D03*
X236900Y106800D02*
D03*
X242800Y109200D02*
D03*
X241200Y110200D02*
D03*
X244200Y107900D02*
D03*
X245500Y106500D02*
D03*
X252500Y103300D02*
D03*
X255100Y96100D02*
D03*
X254300Y92000D02*
D03*
X254100Y90000D02*
D03*
X138100Y89700D02*
D03*
X194300Y36200D02*
D03*
X170500Y45600D02*
D03*
X165000Y50800D02*
D03*
X235900Y15300D02*
D03*
X207700Y111500D02*
D03*
X204300Y107000D02*
D03*
X218400Y106700D02*
D03*
X133400Y67100D02*
D03*
X136700Y66800D02*
D03*
X255900Y76400D02*
D03*
X256200Y71400D02*
D03*
X230900Y65000D02*
D03*
X232800Y67200D02*
D03*
X235300D02*
D03*
X162700Y64900D02*
D03*
X173700Y118100D02*
D03*
X177000Y107100D02*
D03*
X234200Y120200D02*
D03*
X226200Y61500D02*
D03*
D57*
X320900Y266800D02*
D03*
X210400Y90150D02*
D03*
Y92050D02*
D03*
X196100Y98575D02*
D03*
Y96625D02*
D03*
D58*
X244727Y98027D02*
D03*
X240396D02*
D03*
X236065D02*
D03*
X231735D02*
D03*
X227404D02*
D03*
X223073D02*
D03*
X244727Y93696D02*
D03*
X240396D02*
D03*
X236065D02*
D03*
X231735D02*
D03*
X227404D02*
D03*
X223073D02*
D03*
X244727Y89365D02*
D03*
X240396D02*
D03*
X236065D02*
D03*
X231735D02*
D03*
X227404D02*
D03*
X223073D02*
D03*
X244727Y85035D02*
D03*
X240396D02*
D03*
X236065D02*
D03*
X231735D02*
D03*
X227404D02*
D03*
X223073D02*
D03*
X244727Y80704D02*
D03*
X240396D02*
D03*
X236065D02*
D03*
X231735D02*
D03*
X227404D02*
D03*
X223073D02*
D03*
X244727Y76373D02*
D03*
X240396D02*
D03*
X236065D02*
D03*
X231735D02*
D03*
X227404D02*
D03*
X223073D02*
D03*
X170627Y75873D02*
D03*
X166296D02*
D03*
X161965D02*
D03*
X157635D02*
D03*
X153304D02*
D03*
X148973D02*
D03*
X170627Y80204D02*
D03*
X166296D02*
D03*
X161965D02*
D03*
X157635D02*
D03*
X153304D02*
D03*
X148973D02*
D03*
X170627Y84535D02*
D03*
X166296D02*
D03*
X161965D02*
D03*
X157635D02*
D03*
X153304D02*
D03*
X148973D02*
D03*
X170627Y88865D02*
D03*
X166296D02*
D03*
X161965D02*
D03*
X157635D02*
D03*
X153304D02*
D03*
X148973D02*
D03*
X170627Y93196D02*
D03*
X166296D02*
D03*
X161965D02*
D03*
X157635D02*
D03*
X153304D02*
D03*
X148973D02*
D03*
X170627Y97527D02*
D03*
X166296D02*
D03*
X161965D02*
D03*
X157635D02*
D03*
X153304D02*
D03*
X148973D02*
D03*
D59*
X131613Y262487D02*
D03*
X136338D02*
D03*
X141062D02*
D03*
X145787D02*
D03*
X131613Y257762D02*
D03*
X136338D02*
D03*
X141062D02*
D03*
X145787D02*
D03*
X131613Y253038D02*
D03*
X136338D02*
D03*
X141062D02*
D03*
X145787D02*
D03*
X131613Y248313D02*
D03*
X136338D02*
D03*
X141062D02*
D03*
X145787D02*
D03*
M02*
