%FSLAX25Y25*%
%MOIN*%
G70*
G01*
G75*
G04 Layer_Physical_Order=5*
G04 Layer_Color=8388736*
%ADD10R,0.01969X0.01969*%
%ADD11R,0.05906X0.14173*%
%ADD12R,0.03150X0.02756*%
%ADD13R,0.02756X0.03150*%
%ADD14R,0.01969X0.02362*%
%ADD15R,0.02953X0.05512*%
%ADD16R,0.00787X0.01969*%
%ADD17R,0.03150X0.03543*%
%ADD18R,0.03543X0.02756*%
%ADD19R,0.10236X0.05906*%
%ADD20R,0.02362X0.01969*%
%ADD21R,0.01969X0.01969*%
%ADD22R,0.03150X0.02953*%
%ADD23R,0.01969X0.02559*%
%ADD24R,0.02559X0.01969*%
%ADD25R,0.18504X0.18504*%
%ADD26O,0.00787X0.02559*%
%ADD27O,0.02559X0.00787*%
%ADD28R,0.03347X0.03740*%
%ADD29O,0.03543X0.00984*%
%ADD30O,0.00984X0.03543*%
%ADD31R,0.25590X0.25590*%
%ADD32R,0.03150X0.03150*%
%ADD33R,0.03150X0.03150*%
%ADD34R,0.04134X0.02362*%
%ADD35R,0.03543X0.03150*%
%ADD36R,0.02362X0.04134*%
%ADD37R,0.02362X0.04331*%
%ADD38R,0.06693X0.04331*%
%ADD39C,0.00800*%
%ADD40C,0.00600*%
%ADD41C,0.01200*%
%ADD42C,0.01000*%
%ADD43C,0.01600*%
%ADD44C,0.00400*%
%ADD45R,0.05906X0.05906*%
%ADD46C,0.05906*%
%ADD47R,0.05906X0.05906*%
%ADD48C,0.02000*%
%ADD49C,0.01400*%
%ADD50C,0.01969*%
%ADD51C,0.02598*%
%ADD52C,0.00900*%
%ADD53C,0.04000*%
%ADD54C,0.04743*%
%ADD55C,0.02200*%
%ADD56C,0.01800*%
%ADD57C,0.01600*%
%ADD58C,0.01987*%
%ADD59C,0.02499*%
G36*
X96200Y294899D02*
Y241000D01*
X58900Y241000D01*
X58900Y294899D01*
X96200Y294899D01*
D02*
G37*
D53*
X59000Y294900D02*
X388000Y294902D01*
X59000Y6300D02*
Y294900D01*
Y6300D02*
X388000Y6300D01*
X388000Y294902D02*
X388000Y6300D01*
D54*
X183500Y287500D02*
D03*
X193500D02*
D03*
X203500D02*
D03*
X213500D02*
D03*
X223500D02*
D03*
X233500D02*
D03*
X77300Y22300D02*
D03*
X67300D02*
D03*
X77300Y32300D02*
D03*
X67300D02*
D03*
X77300Y42300D02*
D03*
X67300D02*
D03*
X77300Y52300D02*
D03*
X67300D02*
D03*
X77300Y62300D02*
D03*
X67300D02*
D03*
X77300Y72300D02*
D03*
X67300D02*
D03*
X77300Y82300D02*
D03*
X67300D02*
D03*
X77300Y92300D02*
D03*
X67300D02*
D03*
X77300Y102300D02*
D03*
X67300D02*
D03*
X77300Y112300D02*
D03*
X67300D02*
D03*
X77300Y122300D02*
D03*
X67300D02*
D03*
X77300Y132300D02*
D03*
X67300D02*
D03*
X77300Y142300D02*
D03*
X67300D02*
D03*
X77300Y152300D02*
D03*
X67300D02*
D03*
X77300Y162300D02*
D03*
X67300D02*
D03*
X77300Y172300D02*
D03*
X67300D02*
D03*
X374100Y22800D02*
D03*
X364100D02*
D03*
X374100Y32800D02*
D03*
X364100D02*
D03*
X374100Y42800D02*
D03*
X364100D02*
D03*
X374100Y52800D02*
D03*
X364100D02*
D03*
X374100Y62800D02*
D03*
X364100D02*
D03*
X374100Y72800D02*
D03*
X364100D02*
D03*
X374100Y82800D02*
D03*
X364100D02*
D03*
X374100Y92800D02*
D03*
X364100D02*
D03*
X374100Y102800D02*
D03*
X364100D02*
D03*
X374100Y112800D02*
D03*
X364100D02*
D03*
X374100Y122800D02*
D03*
X364100D02*
D03*
X374100Y132800D02*
D03*
X364100D02*
D03*
X374100Y142800D02*
D03*
X364100D02*
D03*
X374100Y152800D02*
D03*
X364100D02*
D03*
X374100Y162800D02*
D03*
X364100D02*
D03*
X374100Y172800D02*
D03*
X364100D02*
D03*
X378700Y271800D02*
D03*
Y281800D02*
D03*
X113500Y287400D02*
D03*
X123500D02*
D03*
X133500D02*
D03*
X143500D02*
D03*
X153500D02*
D03*
D55*
X176100Y45900D02*
D03*
X176900Y67100D02*
D03*
X254100Y82900D02*
D03*
X223000Y67500D02*
D03*
X151000Y118000D02*
D03*
X344724Y287124D02*
D03*
X202100Y138900D02*
D03*
X178300Y24800D02*
D03*
X255700Y170200D02*
D03*
X198400Y155100D02*
D03*
X199300Y176400D02*
D03*
X195700Y190700D02*
D03*
X309500Y255900D02*
D03*
X312700Y243700D02*
D03*
X305400Y240200D02*
D03*
X319200Y251600D02*
D03*
X329200Y248200D02*
D03*
X329600Y256500D02*
D03*
X329300Y262800D02*
D03*
X346800Y256400D02*
D03*
X346100Y247800D02*
D03*
X352600Y255600D02*
D03*
X358200Y281300D02*
D03*
X350200Y274700D02*
D03*
X118100Y241500D02*
D03*
X106200Y233400D02*
D03*
X106100Y228100D02*
D03*
X101900Y243900D02*
D03*
X105800Y267700D02*
D03*
X117400Y264200D02*
D03*
X105700Y248000D02*
D03*
Y252300D02*
D03*
X139500Y222600D02*
D03*
X124900Y222800D02*
D03*
X177100Y239100D02*
D03*
X177900Y258000D02*
D03*
X161100Y238000D02*
D03*
X167500Y268400D02*
D03*
X157000Y224100D02*
D03*
X98400Y270700D02*
D03*
X229100Y25200D02*
D03*
X183800Y45300D02*
D03*
X192100Y138700D02*
D03*
X248800Y163600D02*
D03*
X238500Y114900D02*
D03*
X248600Y187500D02*
D03*
X212600Y40600D02*
D03*
X252700Y25300D02*
D03*
X213346Y107154D02*
D03*
X180300Y106900D02*
D03*
X134700Y76800D02*
D03*
X171200Y62100D02*
D03*
X228400Y137900D02*
D03*
X219000Y138200D02*
D03*
X179300Y137700D02*
D03*
X168900Y140900D02*
D03*
X229800Y36600D02*
D03*
X223400Y38700D02*
D03*
D56*
X255500Y93700D02*
D03*
X215400Y236000D02*
D03*
X212700Y235800D02*
D03*
X208900Y246100D02*
D03*
X205800Y249100D02*
D03*
X203300Y245900D02*
D03*
X140900Y237300D02*
D03*
X134800Y236100D02*
D03*
X131500Y236300D02*
D03*
X128200Y237100D02*
D03*
X137900Y237000D02*
D03*
X125500Y56200D02*
D03*
X123400Y62000D02*
D03*
X259800Y68400D02*
D03*
X123400Y254700D02*
D03*
X141700Y240000D02*
D03*
X207100Y149800D02*
D03*
X180800Y36500D02*
D03*
X178300Y10900D02*
D03*
X260446Y180754D02*
D03*
X248100Y248200D02*
D03*
X157900Y191700D02*
D03*
X140500Y65500D02*
D03*
X186000Y253100D02*
D03*
X184537Y251463D02*
D03*
X173600Y181900D02*
D03*
X171600Y186700D02*
D03*
X168800Y194900D02*
D03*
X178300Y266100D02*
D03*
X180900Y264400D02*
D03*
X184100Y262600D02*
D03*
X212200Y58500D02*
D03*
X211700Y76000D02*
D03*
X199600D02*
D03*
X194000Y75900D02*
D03*
X181800Y75400D02*
D03*
X111400Y208500D02*
D03*
X110200Y200700D02*
D03*
X121000Y261900D02*
D03*
X127000Y196500D02*
D03*
X121400Y259000D02*
D03*
X129300Y208500D02*
D03*
X249400Y224400D02*
D03*
X260000Y210800D02*
D03*
X268700Y210600D02*
D03*
X322400Y202800D02*
D03*
X216000Y178000D02*
D03*
X216100Y185100D02*
D03*
X215900Y191000D02*
D03*
X182500Y219900D02*
D03*
X200300Y231000D02*
D03*
X230600Y273800D02*
D03*
X248300Y272400D02*
D03*
X255900Y254800D02*
D03*
X276400Y287400D02*
D03*
X270300Y275100D02*
D03*
X293900Y271700D02*
D03*
X299900Y281400D02*
D03*
X305700Y281300D02*
D03*
X321200Y287900D02*
D03*
X317400Y212000D02*
D03*
X328800Y214200D02*
D03*
X324300Y221800D02*
D03*
X292800Y226700D02*
D03*
Y197500D02*
D03*
X286200Y196600D02*
D03*
X264900Y228000D02*
D03*
X263800Y221200D02*
D03*
X237800Y239200D02*
D03*
X209400Y209600D02*
D03*
X236200Y208600D02*
D03*
X229000Y209500D02*
D03*
X298600Y271100D02*
D03*
X186100Y148500D02*
D03*
X235900Y169100D02*
D03*
X233500Y51700D02*
D03*
X159100Y50800D02*
D03*
X271400Y84600D02*
D03*
X223100Y108100D02*
D03*
X227200Y109200D02*
D03*
X220100Y66400D02*
D03*
X270000Y89500D02*
D03*
X206400Y76500D02*
D03*
X120200Y86200D02*
D03*
X120600Y80700D02*
D03*
X164779Y107979D02*
D03*
X168700Y107900D02*
D03*
X188100Y112500D02*
D03*
X155900Y126000D02*
D03*
X161700Y126100D02*
D03*
X168200Y274900D02*
D03*
X170900Y276200D02*
D03*
X172700Y278400D02*
D03*
X175300Y279500D02*
D03*
X177600Y279800D02*
D03*
X115500Y58900D02*
D03*
X117200Y54000D02*
D03*
X118900Y52100D02*
D03*
X155637Y251463D02*
D03*
X155400Y253300D02*
D03*
X156787Y254613D02*
D03*
X158100Y256100D02*
D03*
X159500Y257800D02*
D03*
X187987Y254613D02*
D03*
X191000Y256100D02*
D03*
Y260600D02*
D03*
X268500Y66600D02*
D03*
X262100Y64500D02*
D03*
X273000Y63200D02*
D03*
X266300Y58500D02*
D03*
X263800Y60500D02*
D03*
X234800Y107100D02*
D03*
X236900Y106800D02*
D03*
X242800Y109200D02*
D03*
X241200Y110200D02*
D03*
X244200Y107900D02*
D03*
X245500Y106500D02*
D03*
X252500Y103300D02*
D03*
X255100Y96100D02*
D03*
X254300Y92000D02*
D03*
X254100Y90000D02*
D03*
X138100Y89700D02*
D03*
X194300Y36200D02*
D03*
X170500Y45600D02*
D03*
X165000Y50800D02*
D03*
X235900Y15300D02*
D03*
X207700Y111500D02*
D03*
X204300Y107000D02*
D03*
X218400Y106700D02*
D03*
X133400Y67100D02*
D03*
X136700Y66800D02*
D03*
X255900Y76400D02*
D03*
X256200Y71400D02*
D03*
X230900Y65000D02*
D03*
X232800Y67200D02*
D03*
X235300D02*
D03*
X162700Y64900D02*
D03*
X173700Y118100D02*
D03*
X177000Y107100D02*
D03*
X234200Y120200D02*
D03*
X226200Y61500D02*
D03*
D57*
X320900Y266800D02*
D03*
X210400Y90150D02*
D03*
Y92050D02*
D03*
X196100Y98575D02*
D03*
Y96625D02*
D03*
D58*
X244727Y98027D02*
D03*
X240396D02*
D03*
X236065D02*
D03*
X231735D02*
D03*
X227404D02*
D03*
X223073D02*
D03*
X244727Y93696D02*
D03*
X240396D02*
D03*
X236065D02*
D03*
X231735D02*
D03*
X227404D02*
D03*
X223073D02*
D03*
X244727Y89365D02*
D03*
X240396D02*
D03*
X236065D02*
D03*
X231735D02*
D03*
X227404D02*
D03*
X223073D02*
D03*
X244727Y85035D02*
D03*
X240396D02*
D03*
X236065D02*
D03*
X231735D02*
D03*
X227404D02*
D03*
X223073D02*
D03*
X244727Y80704D02*
D03*
X240396D02*
D03*
X236065D02*
D03*
X231735D02*
D03*
X227404D02*
D03*
X223073D02*
D03*
X244727Y76373D02*
D03*
X240396D02*
D03*
X236065D02*
D03*
X231735D02*
D03*
X227404D02*
D03*
X223073D02*
D03*
X170627Y75873D02*
D03*
X166296D02*
D03*
X161965D02*
D03*
X157635D02*
D03*
X153304D02*
D03*
X148973D02*
D03*
X170627Y80204D02*
D03*
X166296D02*
D03*
X161965D02*
D03*
X157635D02*
D03*
X153304D02*
D03*
X148973D02*
D03*
X170627Y84535D02*
D03*
X166296D02*
D03*
X161965D02*
D03*
X157635D02*
D03*
X153304D02*
D03*
X148973D02*
D03*
X170627Y88865D02*
D03*
X166296D02*
D03*
X161965D02*
D03*
X157635D02*
D03*
X153304D02*
D03*
X148973D02*
D03*
X170627Y93196D02*
D03*
X166296D02*
D03*
X161965D02*
D03*
X157635D02*
D03*
X153304D02*
D03*
X148973D02*
D03*
X170627Y97527D02*
D03*
X166296D02*
D03*
X161965D02*
D03*
X157635D02*
D03*
X153304D02*
D03*
X148973D02*
D03*
D59*
X131613Y262487D02*
D03*
X136338D02*
D03*
X141062D02*
D03*
X145787D02*
D03*
X131613Y257762D02*
D03*
X136338D02*
D03*
X141062D02*
D03*
X145787D02*
D03*
X131613Y253038D02*
D03*
X136338D02*
D03*
X141062D02*
D03*
X145787D02*
D03*
X131613Y248313D02*
D03*
X136338D02*
D03*
X141062D02*
D03*
X145787D02*
D03*
M02*
