%FSLAX25Y25*%
%MOIN*%
G70*
G01*
G75*
G04 Layer_Color=65535*
%ADD10R,0.01969X0.01969*%
%ADD11R,0.05906X0.14173*%
%ADD12R,0.03150X0.02756*%
%ADD13R,0.02756X0.03150*%
%ADD14R,0.01969X0.02362*%
%ADD15R,0.02953X0.05512*%
%ADD16R,0.00787X0.01969*%
%ADD17R,0.03150X0.03543*%
%ADD18R,0.03543X0.02756*%
%ADD19R,0.10236X0.05906*%
%ADD20R,0.02362X0.01969*%
%ADD21R,0.01969X0.01969*%
%ADD22R,0.03150X0.02953*%
%ADD23R,0.01969X0.02559*%
%ADD24R,0.02559X0.01969*%
%ADD25R,0.18504X0.18504*%
%ADD26O,0.00787X0.02559*%
%ADD27O,0.02559X0.00787*%
%ADD28R,0.03347X0.03740*%
%ADD29O,0.03543X0.00984*%
%ADD30O,0.00984X0.03543*%
%ADD31R,0.25590X0.25590*%
%ADD32R,0.03150X0.03150*%
%ADD33R,0.03150X0.03150*%
%ADD34R,0.04134X0.02362*%
%ADD35R,0.03543X0.03150*%
%ADD36R,0.02362X0.04134*%
%ADD37R,0.02362X0.04331*%
%ADD38R,0.06693X0.04331*%
%ADD39C,0.00800*%
%ADD40C,0.00600*%
%ADD41C,0.01200*%
%ADD42C,0.01000*%
%ADD43C,0.01600*%
%ADD44C,0.00400*%
%ADD45R,0.05906X0.05906*%
%ADD46C,0.05906*%
%ADD47R,0.05906X0.05906*%
%ADD48C,0.02000*%
%ADD49C,0.01400*%
%ADD50C,0.01969*%
%ADD51C,0.02598*%
%ADD52C,0.00900*%
%ADD53C,0.04000*%
%ADD54C,0.04743*%
%ADD55C,0.02200*%
%ADD56C,0.01800*%
%ADD57C,0.01600*%
%ADD58C,0.01987*%
%ADD59C,0.02499*%
%ADD60C,0.00394*%
%ADD61C,0.00984*%
%ADD62C,0.00787*%
%ADD63C,0.00500*%
G36*
X215205Y152400D02*
X214787D01*
X214100Y154317D01*
X214518D01*
X215006Y152899D01*
X215474Y154317D01*
X215887D01*
X215205Y152400D01*
D02*
G37*
G36*
X200210Y33162D02*
X200283D01*
X200363Y33156D01*
X200446Y33151D01*
X200482Y33148D01*
X200518Y33142D01*
X200551Y33137D01*
X200582Y33131D01*
X200585D01*
X200587Y33128D01*
X200596D01*
X200604Y33126D01*
X200632Y33117D01*
X200665Y33106D01*
X200704Y33090D01*
X200742Y33070D01*
X200784Y33045D01*
X200823Y33015D01*
X200828Y33012D01*
X200839Y33001D01*
X200856Y32982D01*
X200878Y32957D01*
X200903Y32923D01*
X200928Y32885D01*
X200956Y32840D01*
X200978Y32790D01*
Y32788D01*
X200981Y32785D01*
X200983Y32776D01*
X200986Y32765D01*
X200992Y32752D01*
X200997Y32735D01*
X201003Y32713D01*
X201006Y32691D01*
X201017Y32638D01*
X201028Y32574D01*
X201033Y32502D01*
X201036Y32422D01*
Y32419D01*
Y32411D01*
Y32397D01*
Y32378D01*
X201033Y32353D01*
Y32328D01*
X201030Y32297D01*
X201028Y32267D01*
X201022Y32200D01*
X201011Y32131D01*
X200994Y32062D01*
X200986Y32031D01*
X200975Y32004D01*
Y32001D01*
X200972Y31998D01*
X200964Y31982D01*
X200950Y31954D01*
X200931Y31923D01*
X200906Y31887D01*
X200878Y31849D01*
X200845Y31813D01*
X200809Y31779D01*
X200803Y31777D01*
X200792Y31765D01*
X200770Y31752D01*
X200742Y31735D01*
X200712Y31718D01*
X200676Y31699D01*
X200637Y31685D01*
X200596Y31671D01*
X200593D01*
X200587Y31668D01*
X200579D01*
X200565Y31666D01*
X200549Y31663D01*
X200526Y31660D01*
X200501Y31657D01*
X200474Y31655D01*
X200441Y31649D01*
X200404Y31646D01*
X200366Y31644D01*
X200321Y31641D01*
X200274Y31638D01*
X200222D01*
X200166Y31635D01*
X199083D01*
Y32023D01*
X200208D01*
X200258Y32026D01*
X200313D01*
X200366Y32029D01*
X200391Y32031D01*
X200413D01*
X200429Y32034D01*
X200446Y32037D01*
X200451D01*
X200465Y32043D01*
X200488Y32051D01*
X200515Y32062D01*
X200546Y32076D01*
X200576Y32098D01*
X200609Y32123D01*
X200637Y32153D01*
X200640Y32159D01*
X200648Y32170D01*
X200659Y32192D01*
X200670Y32220D01*
X200684Y32259D01*
X200695Y32303D01*
X200704Y32353D01*
X200706Y32411D01*
Y32414D01*
Y32419D01*
Y32427D01*
Y32439D01*
X200704Y32466D01*
X200698Y32502D01*
X200690Y32544D01*
X200679Y32583D01*
X200662Y32624D01*
X200640Y32657D01*
X200637Y32660D01*
X200629Y32671D01*
X200615Y32685D01*
X200596Y32702D01*
X200571Y32718D01*
X200543Y32735D01*
X200513Y32749D01*
X200477Y32757D01*
X200471D01*
X200457Y32760D01*
X200432Y32763D01*
X200399Y32768D01*
X200377D01*
X200352Y32771D01*
X200324D01*
X200296Y32774D01*
X200263D01*
X200227Y32776D01*
X199083D01*
Y33164D01*
X200177D01*
X200210Y33162D01*
D02*
G37*
G36*
X201000Y34832D02*
X200585Y34555D01*
X200582Y34552D01*
X200573Y34549D01*
X200562Y34541D01*
X200549Y34530D01*
X200532Y34519D01*
X200510Y34505D01*
X200465Y34475D01*
X200415Y34438D01*
X200371Y34405D01*
X200330Y34375D01*
X200316Y34361D01*
X200302Y34350D01*
X200299Y34347D01*
X200294Y34342D01*
X200283Y34330D01*
X200269Y34317D01*
X200258Y34297D01*
X200244Y34278D01*
X200233Y34256D01*
X200222Y34234D01*
Y34231D01*
X200219Y34222D01*
X200213Y34209D01*
X200210Y34187D01*
X200205Y34159D01*
X200202Y34126D01*
X200200Y34087D01*
Y34040D01*
Y33962D01*
X201000D01*
Y33574D01*
X199083D01*
Y34389D01*
Y34391D01*
Y34402D01*
Y34419D01*
Y34438D01*
X199086Y34464D01*
Y34494D01*
X199089Y34524D01*
Y34560D01*
X199097Y34633D01*
X199105Y34707D01*
X199119Y34776D01*
X199127Y34807D01*
X199136Y34835D01*
Y34837D01*
X199139Y34840D01*
X199147Y34857D01*
X199161Y34882D01*
X199177Y34915D01*
X199205Y34951D01*
X199235Y34987D01*
X199274Y35023D01*
X199321Y35056D01*
X199324D01*
X199327Y35059D01*
X199335Y35065D01*
X199344Y35070D01*
X199371Y35084D01*
X199407Y35101D01*
X199452Y35114D01*
X199501Y35128D01*
X199560Y35139D01*
X199620Y35142D01*
X199643D01*
X199656Y35139D01*
X199676D01*
X199695Y35137D01*
X199745Y35125D01*
X199803Y35112D01*
X199862Y35089D01*
X199923Y35056D01*
X199950Y35037D01*
X199978Y35015D01*
X199981Y35012D01*
X199983Y35009D01*
X199992Y35001D01*
X200000Y34990D01*
X200011Y34979D01*
X200025Y34962D01*
X200039Y34943D01*
X200053Y34920D01*
X200069Y34896D01*
X200083Y34865D01*
X200097Y34835D01*
X200111Y34801D01*
X200125Y34763D01*
X200136Y34724D01*
X200147Y34682D01*
X200155Y34635D01*
Y34638D01*
X200158Y34641D01*
X200169Y34657D01*
X200183Y34679D01*
X200202Y34707D01*
X200227Y34740D01*
X200252Y34774D01*
X200283Y34810D01*
X200316Y34840D01*
X200319Y34843D01*
X200332Y34857D01*
X200355Y34873D01*
X200388Y34898D01*
X200429Y34932D01*
X200457Y34948D01*
X200485Y34968D01*
X200515Y34990D01*
X200549Y35012D01*
X200587Y35037D01*
X200626Y35062D01*
X201000Y35297D01*
Y34832D01*
D02*
G37*
G36*
X224900Y11605D02*
Y11187D01*
X222983Y10500D01*
Y10918D01*
X224401Y11406D01*
X222983Y11874D01*
Y12287D01*
X224900Y11605D01*
D02*
G37*
G36*
X201000Y35508D02*
X199083D01*
Y36929D01*
X199407D01*
Y35896D01*
X199831D01*
Y36857D01*
X200155D01*
Y35896D01*
X200676D01*
Y36965D01*
X201000D01*
Y35508D01*
D02*
G37*
G36*
X200485Y31308D02*
X200504Y31306D01*
X200543Y31300D01*
X200593Y31289D01*
X200645Y31272D01*
X200698Y31247D01*
X200753Y31217D01*
X200756D01*
X200759Y31212D01*
X200776Y31200D01*
X200803Y31178D01*
X200834Y31151D01*
X200870Y31115D01*
X200903Y31067D01*
X200936Y31018D01*
X200967Y30957D01*
Y30954D01*
X200970Y30948D01*
X200972Y30940D01*
X200978Y30926D01*
X200983Y30910D01*
X200989Y30890D01*
X200994Y30868D01*
X201000Y30843D01*
X201008Y30813D01*
X201014Y30782D01*
X201025Y30710D01*
X201033Y30630D01*
X201036Y30541D01*
Y30538D01*
Y30525D01*
Y30505D01*
X201033Y30480D01*
X201030Y30450D01*
X201028Y30417D01*
X201022Y30378D01*
X201014Y30336D01*
X200994Y30245D01*
X200981Y30198D01*
X200967Y30153D01*
X200947Y30106D01*
X200925Y30062D01*
X200900Y30020D01*
X200870Y29982D01*
X200867Y29979D01*
X200862Y29973D01*
X200853Y29962D01*
X200839Y29951D01*
X200820Y29934D01*
X200798Y29918D01*
X200773Y29899D01*
X200745Y29879D01*
X200712Y29860D01*
X200676Y29840D01*
X200634Y29821D01*
X200590Y29802D01*
X200543Y29788D01*
X200490Y29771D01*
X200435Y29760D01*
X200377Y29752D01*
X200341Y30128D01*
X200343D01*
X200349Y30131D01*
X200360D01*
X200371Y30134D01*
X200404Y30145D01*
X200446Y30159D01*
X200493Y30176D01*
X200540Y30200D01*
X200582Y30228D01*
X200621Y30264D01*
X200623Y30270D01*
X200634Y30284D01*
X200648Y30306D01*
X200665Y30339D01*
X200681Y30380D01*
X200695Y30428D01*
X200706Y30483D01*
X200709Y30547D01*
Y30549D01*
Y30555D01*
Y30563D01*
Y30577D01*
X200704Y30610D01*
X200698Y30652D01*
X200690Y30696D01*
X200676Y30743D01*
X200657Y30788D01*
X200632Y30827D01*
X200629Y30832D01*
X200618Y30843D01*
X200601Y30857D01*
X200579Y30876D01*
X200551Y30893D01*
X200518Y30910D01*
X200485Y30921D01*
X200446Y30923D01*
X200435D01*
X200421Y30921D01*
X200404Y30918D01*
X200388Y30912D01*
X200368Y30907D01*
X200349Y30896D01*
X200330Y30882D01*
X200327Y30879D01*
X200321Y30874D01*
X200313Y30865D01*
X200302Y30851D01*
X200288Y30832D01*
X200274Y30807D01*
X200260Y30779D01*
X200247Y30743D01*
Y30741D01*
X200241Y30729D01*
X200236Y30710D01*
X200230Y30696D01*
X200227Y30680D01*
X200222Y30660D01*
X200213Y30638D01*
X200208Y30613D01*
X200200Y30586D01*
X200191Y30552D01*
X200183Y30516D01*
X200172Y30477D01*
X200161Y30433D01*
Y30430D01*
X200158Y30419D01*
X200152Y30403D01*
X200147Y30383D01*
X200138Y30358D01*
X200130Y30328D01*
X200119Y30297D01*
X200108Y30261D01*
X200080Y30189D01*
X200047Y30120D01*
X200030Y30084D01*
X200011Y30054D01*
X199992Y30023D01*
X199972Y29998D01*
X199970Y29996D01*
X199964Y29990D01*
X199956Y29982D01*
X199945Y29970D01*
X199928Y29957D01*
X199909Y29943D01*
X199889Y29926D01*
X199864Y29912D01*
X199806Y29879D01*
X199740Y29851D01*
X199704Y29840D01*
X199668Y29832D01*
X199626Y29827D01*
X199584Y29824D01*
X199560D01*
X199532Y29829D01*
X199496Y29835D01*
X199454Y29843D01*
X199407Y29857D01*
X199357Y29876D01*
X199310Y29904D01*
X199308D01*
X199305Y29907D01*
X199288Y29921D01*
X199266Y29937D01*
X199238Y29965D01*
X199208Y29998D01*
X199175Y30040D01*
X199144Y30087D01*
X199116Y30142D01*
Y30145D01*
X199114Y30151D01*
X199111Y30159D01*
X199105Y30170D01*
X199100Y30187D01*
X199094Y30203D01*
X199089Y30225D01*
X199080Y30250D01*
X199069Y30306D01*
X199058Y30369D01*
X199050Y30441D01*
X199047Y30522D01*
Y30527D01*
Y30538D01*
Y30555D01*
X199050Y30580D01*
X199053Y30610D01*
X199056Y30646D01*
X199061Y30682D01*
X199066Y30724D01*
X199086Y30813D01*
X199100Y30857D01*
X199114Y30901D01*
X199133Y30946D01*
X199155Y30987D01*
X199180Y31026D01*
X199208Y31062D01*
X199211Y31065D01*
X199216Y31070D01*
X199224Y31078D01*
X199235Y31090D01*
X199252Y31104D01*
X199272Y31120D01*
X199294Y31137D01*
X199319Y31156D01*
X199349Y31173D01*
X199380Y31189D01*
X199416Y31206D01*
X199454Y31220D01*
X199493Y31234D01*
X199537Y31245D01*
X199582Y31253D01*
X199632Y31256D01*
X199645Y30868D01*
X199640D01*
X199620Y30863D01*
X199596Y30857D01*
X199565Y30846D01*
X199529Y30832D01*
X199496Y30813D01*
X199463Y30788D01*
X199435Y30760D01*
X199432Y30757D01*
X199424Y30746D01*
X199413Y30727D01*
X199402Y30699D01*
X199391Y30666D01*
X199380Y30624D01*
X199371Y30574D01*
X199369Y30516D01*
Y30514D01*
Y30508D01*
Y30500D01*
Y30488D01*
X199371Y30458D01*
X199377Y30422D01*
X199385Y30380D01*
X199399Y30336D01*
X199416Y30295D01*
X199441Y30256D01*
X199443Y30253D01*
X199449Y30248D01*
X199457Y30237D01*
X199471Y30225D01*
X199488Y30214D01*
X199510Y30203D01*
X199532Y30198D01*
X199560Y30195D01*
X199571D01*
X199584Y30198D01*
X199598Y30203D01*
X199618Y30209D01*
X199637Y30217D01*
X199656Y30231D01*
X199676Y30250D01*
X199679Y30253D01*
X199687Y30267D01*
X199693Y30275D01*
X199698Y30289D01*
X199706Y30303D01*
X199715Y30322D01*
X199723Y30345D01*
X199734Y30369D01*
X199745Y30400D01*
X199756Y30430D01*
X199767Y30469D01*
X199778Y30511D01*
X199790Y30555D01*
X199803Y30605D01*
Y30608D01*
X199806Y30619D01*
X199809Y30633D01*
X199814Y30652D01*
X199820Y30674D01*
X199828Y30702D01*
X199837Y30732D01*
X199845Y30763D01*
X199867Y30829D01*
X199889Y30898D01*
X199914Y30965D01*
X199928Y30993D01*
X199942Y31020D01*
Y31023D01*
X199945Y31026D01*
X199956Y31043D01*
X199972Y31067D01*
X199995Y31098D01*
X200022Y31131D01*
X200055Y31167D01*
X200094Y31203D01*
X200138Y31234D01*
X200144Y31236D01*
X200161Y31245D01*
X200186Y31259D01*
X200222Y31272D01*
X200266Y31286D01*
X200319Y31300D01*
X200377Y31308D01*
X200443Y31311D01*
X200471D01*
X200485Y31308D01*
D02*
G37*
G36*
X201000Y25383D02*
X199493Y25381D01*
X201000Y25004D01*
Y24630D01*
X199493Y24253D01*
X201000D01*
Y23896D01*
X199083D01*
Y24475D01*
X200393Y24818D01*
X199083Y25159D01*
Y25741D01*
X201000D01*
Y25383D01*
D02*
G37*
G36*
X201529Y22190D02*
X201291D01*
Y23719D01*
X201529D01*
Y22190D01*
D02*
G37*
G36*
X201000Y26134D02*
X199083D01*
Y27555D01*
X199407D01*
Y26522D01*
X199831D01*
Y27483D01*
X200155D01*
Y26522D01*
X200676D01*
Y27591D01*
X201000D01*
Y26134D01*
D02*
G37*
G36*
X230113Y152400D02*
X229726D01*
X228947Y153663D01*
Y152400D01*
X228590D01*
Y154317D01*
X228964D01*
X229756Y153026D01*
Y154317D01*
X230113D01*
Y152400D01*
D02*
G37*
G36*
X201000Y29228D02*
X200565Y29062D01*
Y28292D01*
X201000Y28134D01*
Y27724D01*
X199083Y28466D01*
Y28876D01*
X201000Y29646D01*
Y29228D01*
D02*
G37*
G36*
X224022Y14084D02*
X224044D01*
X224072Y14082D01*
X224102Y14079D01*
X224166Y14073D01*
X224232Y14062D01*
X224302Y14046D01*
X224368Y14026D01*
X224371D01*
X224377Y14023D01*
X224388Y14018D01*
X224404Y14012D01*
X224421Y14007D01*
X224440Y13996D01*
X224490Y13974D01*
X224543Y13946D01*
X224601Y13910D01*
X224656Y13868D01*
X224709Y13821D01*
X224714Y13816D01*
X224726Y13802D01*
X224742Y13780D01*
X224764Y13749D01*
X224789Y13710D01*
X224814Y13666D01*
X224839Y13611D01*
X224861Y13550D01*
Y13547D01*
X224864Y13544D01*
Y13536D01*
X224867Y13528D01*
X224872Y13497D01*
X224881Y13458D01*
X224889Y13411D01*
X224894Y13353D01*
X224897Y13284D01*
X224900Y13209D01*
Y12483D01*
X222983D01*
Y13187D01*
Y13190D01*
Y13198D01*
Y13209D01*
Y13226D01*
Y13248D01*
X222986Y13270D01*
X222989Y13323D01*
X222991Y13381D01*
X223000Y13442D01*
X223008Y13500D01*
X223022Y13553D01*
Y13555D01*
X223025Y13561D01*
X223027Y13569D01*
X223030Y13580D01*
X223044Y13613D01*
X223063Y13652D01*
X223088Y13697D01*
X223119Y13746D01*
X223155Y13793D01*
X223199Y13841D01*
Y13843D01*
X223205Y13846D01*
X223221Y13860D01*
X223249Y13882D01*
X223285Y13907D01*
X223329Y13938D01*
X223382Y13968D01*
X223443Y13998D01*
X223510Y14023D01*
X223512D01*
X223518Y14026D01*
X223529Y14029D01*
X223543Y14035D01*
X223559Y14037D01*
X223582Y14043D01*
X223606Y14048D01*
X223634Y14057D01*
X223665Y14062D01*
X223701Y14068D01*
X223737Y14073D01*
X223778Y14076D01*
X223864Y14084D01*
X223961Y14087D01*
X224000D01*
X224022Y14084D01*
D02*
G37*
G36*
X224900Y26292D02*
X224465Y26126D01*
Y25355D01*
X224900Y25198D01*
Y24788D01*
X222983Y25530D01*
Y25940D01*
X224900Y26710D01*
Y26292D01*
D02*
G37*
G36*
X223307Y24167D02*
X224900D01*
Y23779D01*
X223307D01*
Y23212D01*
X222983D01*
Y24732D01*
X223307D01*
Y24167D01*
D02*
G37*
G36*
X232853Y152724D02*
X233817D01*
Y152400D01*
X232465D01*
Y154303D01*
X232853D01*
Y152724D01*
D02*
G37*
G36*
X223307Y30120D02*
X224900D01*
Y29732D01*
X223307D01*
Y29164D01*
X222983D01*
Y30685D01*
X223307D01*
Y30120D01*
D02*
G37*
G36*
X224900Y26926D02*
X222997D01*
Y27314D01*
X224576D01*
Y28278D01*
X224900D01*
Y26926D01*
D02*
G37*
G36*
Y22588D02*
X222983D01*
Y22976D01*
X224900D01*
Y22588D01*
D02*
G37*
G36*
X225429Y16129D02*
X225191D01*
Y17658D01*
X225429D01*
Y16129D01*
D02*
G37*
G36*
X224022Y16018D02*
X224044D01*
X224072Y16015D01*
X224102Y16012D01*
X224166Y16007D01*
X224232Y15996D01*
X224302Y15979D01*
X224368Y15960D01*
X224371D01*
X224377Y15957D01*
X224388Y15951D01*
X224404Y15946D01*
X224421Y15940D01*
X224440Y15929D01*
X224490Y15907D01*
X224543Y15879D01*
X224601Y15843D01*
X224656Y15802D01*
X224709Y15755D01*
X224714Y15749D01*
X224726Y15735D01*
X224742Y15713D01*
X224764Y15683D01*
X224789Y15644D01*
X224814Y15600D01*
X224839Y15544D01*
X224861Y15483D01*
Y15481D01*
X224864Y15478D01*
Y15469D01*
X224867Y15461D01*
X224872Y15431D01*
X224881Y15392D01*
X224889Y15345D01*
X224894Y15287D01*
X224897Y15217D01*
X224900Y15143D01*
Y14417D01*
X222983D01*
Y15120D01*
Y15123D01*
Y15131D01*
Y15143D01*
Y15159D01*
Y15181D01*
X222986Y15203D01*
X222989Y15256D01*
X222991Y15314D01*
X223000Y15375D01*
X223008Y15433D01*
X223022Y15486D01*
Y15489D01*
X223025Y15494D01*
X223027Y15503D01*
X223030Y15514D01*
X223044Y15547D01*
X223063Y15586D01*
X223088Y15630D01*
X223119Y15680D01*
X223155Y15727D01*
X223199Y15774D01*
Y15777D01*
X223205Y15780D01*
X223221Y15793D01*
X223249Y15816D01*
X223285Y15841D01*
X223329Y15871D01*
X223382Y15901D01*
X223443Y15932D01*
X223510Y15957D01*
X223512D01*
X223518Y15960D01*
X223529Y15962D01*
X223543Y15968D01*
X223559Y15971D01*
X223582Y15976D01*
X223606Y15982D01*
X223634Y15990D01*
X223665Y15996D01*
X223701Y16001D01*
X223737Y16007D01*
X223778Y16010D01*
X223864Y16018D01*
X223961Y16021D01*
X224000D01*
X224022Y16018D01*
D02*
G37*
G36*
Y19442D02*
X224044D01*
X224072Y19439D01*
X224102Y19436D01*
X224166Y19431D01*
X224232Y19419D01*
X224302Y19403D01*
X224368Y19383D01*
X224371D01*
X224377Y19381D01*
X224388Y19375D01*
X224404Y19369D01*
X224421Y19364D01*
X224440Y19353D01*
X224490Y19331D01*
X224543Y19303D01*
X224601Y19267D01*
X224656Y19226D01*
X224709Y19178D01*
X224714Y19173D01*
X224726Y19159D01*
X224742Y19137D01*
X224764Y19106D01*
X224789Y19068D01*
X224814Y19023D01*
X224839Y18968D01*
X224861Y18907D01*
Y18904D01*
X224864Y18901D01*
Y18893D01*
X224867Y18885D01*
X224872Y18854D01*
X224881Y18815D01*
X224889Y18768D01*
X224894Y18710D01*
X224897Y18641D01*
X224900Y18566D01*
Y17841D01*
X222983D01*
Y18544D01*
Y18547D01*
Y18555D01*
Y18566D01*
Y18583D01*
Y18605D01*
X222986Y18627D01*
X222989Y18680D01*
X222991Y18738D01*
X223000Y18799D01*
X223008Y18857D01*
X223022Y18910D01*
Y18913D01*
X223025Y18918D01*
X223027Y18926D01*
X223030Y18937D01*
X223044Y18971D01*
X223063Y19009D01*
X223088Y19054D01*
X223119Y19104D01*
X223155Y19151D01*
X223199Y19198D01*
Y19201D01*
X223205Y19203D01*
X223221Y19217D01*
X223249Y19239D01*
X223285Y19264D01*
X223329Y19295D01*
X223382Y19325D01*
X223443Y19356D01*
X223510Y19381D01*
X223512D01*
X223518Y19383D01*
X223529Y19386D01*
X223543Y19392D01*
X223559Y19395D01*
X223582Y19400D01*
X223606Y19406D01*
X223634Y19414D01*
X223665Y19419D01*
X223701Y19425D01*
X223737Y19431D01*
X223778Y19433D01*
X223864Y19442D01*
X223961Y19444D01*
X224000D01*
X224022Y19442D01*
D02*
G37*
G36*
X224648Y22237D02*
X224654Y22228D01*
X224662Y22220D01*
X224673Y22206D01*
X224684Y22192D01*
X224712Y22153D01*
X224742Y22101D01*
X224778Y22040D01*
X224814Y21971D01*
X224847Y21888D01*
Y21885D01*
X224850Y21876D01*
X224856Y21865D01*
X224861Y21849D01*
X224867Y21826D01*
X224875Y21802D01*
X224883Y21774D01*
X224892Y21743D01*
X224908Y21674D01*
X224922Y21594D01*
X224933Y21511D01*
X224936Y21422D01*
Y21419D01*
Y21408D01*
Y21392D01*
X224933Y21372D01*
Y21345D01*
X224931Y21314D01*
X224925Y21281D01*
X224919Y21242D01*
X224905Y21162D01*
X224883Y21073D01*
X224853Y20982D01*
X224833Y20940D01*
X224811Y20896D01*
X224809Y20893D01*
X224806Y20888D01*
X224798Y20874D01*
X224786Y20860D01*
X224775Y20840D01*
X224759Y20821D01*
X224739Y20796D01*
X224717Y20771D01*
X224667Y20716D01*
X224604Y20660D01*
X224532Y20608D01*
X224448Y20561D01*
X224446D01*
X224437Y20555D01*
X224424Y20550D01*
X224407Y20544D01*
X224385Y20536D01*
X224360Y20525D01*
X224329Y20516D01*
X224296Y20505D01*
X224260Y20494D01*
X224219Y20486D01*
X224133Y20467D01*
X224039Y20455D01*
X223936Y20450D01*
X223906D01*
X223886Y20453D01*
X223858D01*
X223828Y20455D01*
X223795Y20461D01*
X223756Y20467D01*
X223676Y20480D01*
X223584Y20503D01*
X223493Y20533D01*
X223448Y20552D01*
X223404Y20574D01*
X223401Y20577D01*
X223393Y20580D01*
X223382Y20588D01*
X223365Y20597D01*
X223346Y20610D01*
X223324Y20627D01*
X223299Y20647D01*
X223271Y20666D01*
X223243Y20691D01*
X223213Y20719D01*
X223183Y20749D01*
X223152Y20782D01*
X223124Y20818D01*
X223094Y20854D01*
X223044Y20940D01*
Y20943D01*
X223039Y20948D01*
X223036Y20959D01*
X223027Y20973D01*
X223022Y20993D01*
X223014Y21012D01*
X223005Y21040D01*
X222994Y21068D01*
X222986Y21098D01*
X222978Y21134D01*
X222969Y21173D01*
X222961Y21212D01*
X222950Y21300D01*
X222947Y21400D01*
Y21403D01*
Y21417D01*
Y21433D01*
X222950Y21458D01*
X222953Y21489D01*
X222955Y21525D01*
X222958Y21563D01*
X222967Y21605D01*
X222983Y21694D01*
X223011Y21785D01*
X223027Y21832D01*
X223047Y21876D01*
X223069Y21918D01*
X223097Y21957D01*
X223099Y21960D01*
X223102Y21965D01*
X223113Y21976D01*
X223124Y21990D01*
X223138Y22007D01*
X223158Y22023D01*
X223180Y22043D01*
X223205Y22065D01*
X223233Y22087D01*
X223263Y22109D01*
X223296Y22131D01*
X223335Y22151D01*
X223374Y22173D01*
X223415Y22189D01*
X223462Y22206D01*
X223510Y22217D01*
X223582Y21832D01*
X223579D01*
X223576Y21829D01*
X223559Y21824D01*
X223534Y21813D01*
X223501Y21796D01*
X223465Y21777D01*
X223429Y21749D01*
X223393Y21716D01*
X223360Y21677D01*
X223357Y21671D01*
X223346Y21658D01*
X223332Y21633D01*
X223318Y21602D01*
X223302Y21561D01*
X223291Y21513D01*
X223280Y21461D01*
X223277Y21400D01*
Y21397D01*
Y21389D01*
Y21375D01*
X223280Y21358D01*
X223282Y21336D01*
X223285Y21311D01*
X223291Y21284D01*
X223296Y21253D01*
X223316Y21189D01*
X223329Y21156D01*
X223346Y21123D01*
X223365Y21090D01*
X223385Y21057D01*
X223412Y21026D01*
X223440Y20996D01*
X223443Y20993D01*
X223448Y20990D01*
X223457Y20982D01*
X223471Y20973D01*
X223487Y20962D01*
X223507Y20948D01*
X223532Y20935D01*
X223559Y20923D01*
X223593Y20910D01*
X223629Y20896D01*
X223667Y20882D01*
X223709Y20871D01*
X223756Y20863D01*
X223809Y20854D01*
X223861Y20852D01*
X223919Y20849D01*
X223953D01*
X223975Y20852D01*
X224005Y20854D01*
X224036Y20857D01*
X224075Y20863D01*
X224113Y20868D01*
X224196Y20885D01*
X224282Y20912D01*
X224324Y20929D01*
X224363Y20948D01*
X224401Y20973D01*
X224435Y20998D01*
X224437Y21001D01*
X224443Y21007D01*
X224451Y21015D01*
X224462Y21026D01*
X224473Y21043D01*
X224490Y21059D01*
X224504Y21081D01*
X224520Y21106D01*
X224537Y21134D01*
X224551Y21162D01*
X224579Y21231D01*
X224590Y21270D01*
X224598Y21308D01*
X224604Y21353D01*
X224606Y21397D01*
Y21400D01*
Y21403D01*
Y21419D01*
X224604Y21441D01*
X224601Y21475D01*
X224595Y21511D01*
X224587Y21552D01*
X224576Y21597D01*
X224559Y21641D01*
Y21644D01*
X224556Y21646D01*
X224551Y21660D01*
X224540Y21685D01*
X224526Y21713D01*
X224509Y21746D01*
X224490Y21782D01*
X224468Y21818D01*
X224443Y21851D01*
X224196D01*
Y21408D01*
X223872D01*
Y22242D01*
X224642D01*
X224648Y22237D01*
D02*
G37*
G36*
X224900Y19760D02*
X222983D01*
Y20148D01*
X224900D01*
Y19760D01*
D02*
G37*
G36*
X201000Y20783D02*
X199097D01*
Y21170D01*
X200676D01*
Y22134D01*
X201000D01*
Y20783D01*
D02*
G37*
G36*
X162670Y156814D02*
X162723Y156811D01*
X162781Y156808D01*
X162842Y156800D01*
X162900Y156792D01*
X162952Y156778D01*
X162955D01*
X162961Y156775D01*
X162969Y156772D01*
X162980Y156770D01*
X163014Y156756D01*
X163052Y156737D01*
X163097Y156712D01*
X163146Y156681D01*
X163194Y156645D01*
X163241Y156601D01*
X163243D01*
X163246Y156595D01*
X163260Y156579D01*
X163282Y156551D01*
X163307Y156515D01*
X163338Y156471D01*
X163368Y156418D01*
X163399Y156357D01*
X163423Y156290D01*
Y156288D01*
X163426Y156282D01*
X163429Y156271D01*
X163435Y156257D01*
X163437Y156241D01*
X163443Y156219D01*
X163448Y156194D01*
X163457Y156166D01*
X163462Y156135D01*
X163468Y156099D01*
X163473Y156063D01*
X163476Y156022D01*
X163484Y155936D01*
X163487Y155839D01*
Y155836D01*
Y155828D01*
Y155817D01*
Y155800D01*
X163484Y155778D01*
Y155756D01*
X163482Y155728D01*
X163479Y155698D01*
X163473Y155634D01*
X163462Y155568D01*
X163446Y155498D01*
X163426Y155432D01*
Y155429D01*
X163423Y155423D01*
X163418Y155412D01*
X163412Y155396D01*
X163407Y155379D01*
X163396Y155360D01*
X163374Y155310D01*
X163346Y155257D01*
X163310Y155199D01*
X163268Y155144D01*
X163221Y155091D01*
X163216Y155086D01*
X163202Y155075D01*
X163180Y155058D01*
X163149Y155036D01*
X163110Y155011D01*
X163066Y154986D01*
X163011Y154961D01*
X162950Y154939D01*
X162947D01*
X162944Y154936D01*
X162936D01*
X162928Y154933D01*
X162897Y154928D01*
X162858Y154919D01*
X162811Y154911D01*
X162753Y154905D01*
X162684Y154903D01*
X162609Y154900D01*
X161883D01*
Y156817D01*
X162648D01*
X162670Y156814D01*
D02*
G37*
G36*
X178653Y155224D02*
X179617D01*
Y154900D01*
X178265D01*
Y156803D01*
X178653D01*
Y155224D01*
D02*
G37*
G36*
X180780Y156850D02*
X180808D01*
X180844Y156844D01*
X180886Y156839D01*
X180933Y156831D01*
X180982Y156820D01*
X181035Y156806D01*
X181090Y156789D01*
X181146Y156767D01*
X181204Y156742D01*
X181260Y156712D01*
X181315Y156676D01*
X181368Y156634D01*
X181417Y156587D01*
X181420Y156584D01*
X181428Y156576D01*
X181442Y156559D01*
X181456Y156540D01*
X181475Y156512D01*
X181498Y156479D01*
X181520Y156440D01*
X181545Y156396D01*
X181570Y156349D01*
X181592Y156293D01*
X181614Y156232D01*
X181633Y156169D01*
X181650Y156097D01*
X181661Y156022D01*
X181669Y155941D01*
X181672Y155856D01*
Y155850D01*
Y155836D01*
X181669Y155811D01*
Y155778D01*
X181664Y155739D01*
X181658Y155695D01*
X181650Y155642D01*
X181642Y155590D01*
X181628Y155532D01*
X181611Y155471D01*
X181589Y155410D01*
X181564Y155349D01*
X181536Y155291D01*
X181500Y155232D01*
X181462Y155177D01*
X181417Y155124D01*
X181415Y155122D01*
X181406Y155113D01*
X181392Y155099D01*
X181370Y155083D01*
X181345Y155063D01*
X181315Y155041D01*
X181279Y155019D01*
X181240Y154994D01*
X181193Y154969D01*
X181143Y154947D01*
X181088Y154925D01*
X181027Y154905D01*
X180963Y154889D01*
X180894Y154875D01*
X180822Y154867D01*
X180744Y154864D01*
X180725D01*
X180703Y154867D01*
X180675Y154869D01*
X180639Y154872D01*
X180597Y154878D01*
X180550Y154886D01*
X180500Y154897D01*
X180445Y154911D01*
X180393Y154928D01*
X180334Y154950D01*
X180279Y154975D01*
X180221Y155002D01*
X180168Y155038D01*
X180115Y155077D01*
X180066Y155124D01*
X180063Y155127D01*
X180054Y155135D01*
X180043Y155152D01*
X180027Y155172D01*
X180007Y155199D01*
X179985Y155232D01*
X179963Y155268D01*
X179941Y155313D01*
X179916Y155360D01*
X179894Y155415D01*
X179872Y155473D01*
X179852Y155537D01*
X179836Y155606D01*
X179825Y155681D01*
X179816Y155762D01*
X179814Y155845D01*
Y155847D01*
Y155858D01*
Y155872D01*
X179816Y155894D01*
Y155919D01*
X179819Y155947D01*
X179822Y155980D01*
X179825Y156016D01*
X179836Y156094D01*
X179850Y156177D01*
X179872Y156260D01*
X179899Y156338D01*
Y156340D01*
X179902Y156343D01*
X179908Y156351D01*
X179911Y156363D01*
X179927Y156390D01*
X179946Y156426D01*
X179971Y156468D01*
X180002Y156509D01*
X180038Y156556D01*
X180077Y156601D01*
X180079Y156604D01*
X180082Y156606D01*
X180096Y156620D01*
X180121Y156642D01*
X180151Y156667D01*
X180187Y156695D01*
X180229Y156725D01*
X180276Y156753D01*
X180326Y156775D01*
X180329D01*
X180334Y156778D01*
X180345Y156784D01*
X180359Y156786D01*
X180376Y156795D01*
X180395Y156800D01*
X180420Y156806D01*
X180445Y156814D01*
X180506Y156828D01*
X180575Y156842D01*
X180656Y156850D01*
X180739Y156853D01*
X180758D01*
X180780Y156850D01*
D02*
G37*
G36*
X161005Y154900D02*
X160587D01*
X159900Y156817D01*
X160318D01*
X160806Y155399D01*
X161274Y156817D01*
X161687D01*
X161005Y154900D01*
D02*
G37*
G36*
X172274Y154371D02*
X170745D01*
Y154609D01*
X172274D01*
Y154371D01*
D02*
G37*
G36*
X178049Y154900D02*
X177631D01*
X177465Y155335D01*
X176695D01*
X176537Y154900D01*
X176127D01*
X176869Y156817D01*
X177279D01*
X178049Y154900D01*
D02*
G37*
G36*
X168096D02*
X167728D01*
Y156288D01*
X167725Y156285D01*
X167720Y156280D01*
X167709Y156271D01*
X167692Y156257D01*
X167673Y156241D01*
X167650Y156224D01*
X167623Y156205D01*
X167592Y156183D01*
X167559Y156160D01*
X167523Y156138D01*
X167484Y156113D01*
X167443Y156091D01*
X167354Y156050D01*
X167254Y156011D01*
Y156343D01*
X167257D01*
X167260Y156346D01*
X167268Y156349D01*
X167279Y156351D01*
X167307Y156365D01*
X167346Y156382D01*
X167393Y156404D01*
X167446Y156435D01*
X167504Y156473D01*
X167565Y156518D01*
X167567Y156520D01*
X167573Y156523D01*
X167581Y156532D01*
X167592Y156543D01*
X167623Y156570D01*
X167656Y156606D01*
X167695Y156651D01*
X167734Y156706D01*
X167770Y156764D01*
X167797Y156828D01*
X168096D01*
Y154900D01*
D02*
G37*
G36*
X164603Y156814D02*
X164656Y156811D01*
X164714Y156808D01*
X164775Y156800D01*
X164833Y156792D01*
X164886Y156778D01*
X164889D01*
X164894Y156775D01*
X164903Y156772D01*
X164914Y156770D01*
X164947Y156756D01*
X164986Y156737D01*
X165030Y156712D01*
X165080Y156681D01*
X165127Y156645D01*
X165174Y156601D01*
X165177D01*
X165180Y156595D01*
X165193Y156579D01*
X165216Y156551D01*
X165241Y156515D01*
X165271Y156471D01*
X165302Y156418D01*
X165332Y156357D01*
X165357Y156290D01*
Y156288D01*
X165360Y156282D01*
X165362Y156271D01*
X165368Y156257D01*
X165371Y156241D01*
X165376Y156219D01*
X165382Y156194D01*
X165390Y156166D01*
X165396Y156135D01*
X165401Y156099D01*
X165407Y156063D01*
X165410Y156022D01*
X165418Y155936D01*
X165421Y155839D01*
Y155836D01*
Y155828D01*
Y155817D01*
Y155800D01*
X165418Y155778D01*
Y155756D01*
X165415Y155728D01*
X165412Y155698D01*
X165407Y155634D01*
X165396Y155568D01*
X165379Y155498D01*
X165360Y155432D01*
Y155429D01*
X165357Y155423D01*
X165351Y155412D01*
X165346Y155396D01*
X165340Y155379D01*
X165329Y155360D01*
X165307Y155310D01*
X165279Y155257D01*
X165243Y155199D01*
X165202Y155144D01*
X165155Y155091D01*
X165149Y155086D01*
X165135Y155075D01*
X165113Y155058D01*
X165083Y155036D01*
X165044Y155011D01*
X165000Y154986D01*
X164944Y154961D01*
X164883Y154939D01*
X164881D01*
X164878Y154936D01*
X164869D01*
X164861Y154933D01*
X164831Y154928D01*
X164792Y154919D01*
X164745Y154911D01*
X164687Y154905D01*
X164617Y154903D01*
X164542Y154900D01*
X163817D01*
Y156817D01*
X164581D01*
X164603Y156814D01*
D02*
G37*
G36*
X169094Y154900D02*
X168725D01*
Y155268D01*
X169094D01*
Y154900D01*
D02*
G37*
G36*
X174182D02*
X173764D01*
X173598Y155335D01*
X172828D01*
X172670Y154900D01*
X172260D01*
X173002Y156817D01*
X173412D01*
X174182Y154900D01*
D02*
G37*
G36*
X170071Y156825D02*
X170096Y156822D01*
X170124Y156820D01*
X170155Y156814D01*
X170188Y156808D01*
X170260Y156789D01*
X170332Y156761D01*
X170371Y156745D01*
X170404Y156725D01*
X170440Y156701D01*
X170470Y156673D01*
X170473Y156670D01*
X170479Y156667D01*
X170484Y156656D01*
X170495Y156645D01*
X170509Y156631D01*
X170523Y156612D01*
X170537Y156593D01*
X170553Y156568D01*
X170581Y156512D01*
X170609Y156448D01*
X170620Y156412D01*
X170625Y156374D01*
X170631Y156332D01*
X170634Y156290D01*
Y156285D01*
Y156268D01*
X170631Y156244D01*
X170628Y156213D01*
X170623Y156174D01*
X170614Y156133D01*
X170603Y156088D01*
X170587Y156044D01*
X170584Y156038D01*
X170578Y156025D01*
X170567Y156000D01*
X170551Y155969D01*
X170531Y155933D01*
X170506Y155892D01*
X170476Y155847D01*
X170440Y155800D01*
X170437Y155798D01*
X170426Y155784D01*
X170409Y155764D01*
X170384Y155736D01*
X170351Y155703D01*
X170310Y155659D01*
X170260Y155612D01*
X170199Y155554D01*
X170196Y155551D01*
X170191Y155548D01*
X170182Y155540D01*
X170171Y155529D01*
X170141Y155501D01*
X170105Y155468D01*
X170069Y155432D01*
X170033Y155396D01*
X169999Y155365D01*
X169988Y155351D01*
X169977Y155340D01*
X169975Y155338D01*
X169969Y155332D01*
X169961Y155321D01*
X169950Y155307D01*
X169925Y155277D01*
X169903Y155241D01*
X170634D01*
Y154900D01*
X169346D01*
Y154903D01*
Y154908D01*
X169349Y154919D01*
X169351Y154933D01*
X169354Y154950D01*
X169357Y154969D01*
X169368Y155019D01*
X169385Y155075D01*
X169407Y155135D01*
X169434Y155202D01*
X169470Y155266D01*
Y155268D01*
X169476Y155274D01*
X169481Y155285D01*
X169492Y155296D01*
X169504Y155315D01*
X169520Y155335D01*
X169540Y155360D01*
X169562Y155387D01*
X169587Y155421D01*
X169617Y155454D01*
X169650Y155493D01*
X169689Y155534D01*
X169731Y155576D01*
X169778Y155623D01*
X169828Y155673D01*
X169883Y155726D01*
X169886Y155728D01*
X169894Y155736D01*
X169905Y155748D01*
X169922Y155764D01*
X169944Y155781D01*
X169966Y155803D01*
X170016Y155853D01*
X170066Y155905D01*
X170116Y155958D01*
X170138Y155980D01*
X170160Y156005D01*
X170177Y156025D01*
X170188Y156041D01*
X170191Y156047D01*
X170199Y156061D01*
X170213Y156083D01*
X170227Y156113D01*
X170240Y156147D01*
X170254Y156185D01*
X170263Y156224D01*
X170265Y156266D01*
Y156268D01*
Y156271D01*
Y156285D01*
X170263Y156310D01*
X170257Y156338D01*
X170249Y156368D01*
X170238Y156399D01*
X170221Y156429D01*
X170199Y156457D01*
X170196Y156459D01*
X170188Y156468D01*
X170171Y156479D01*
X170152Y156490D01*
X170124Y156501D01*
X170094Y156512D01*
X170058Y156520D01*
X170016Y156523D01*
X169997D01*
X169975Y156520D01*
X169950Y156515D01*
X169919Y156507D01*
X169889Y156493D01*
X169858Y156476D01*
X169830Y156454D01*
X169828Y156451D01*
X169819Y156440D01*
X169808Y156423D01*
X169797Y156399D01*
X169783Y156368D01*
X169772Y156326D01*
X169761Y156280D01*
X169756Y156224D01*
X169390Y156260D01*
Y156263D01*
X169393Y156274D01*
Y156288D01*
X169398Y156310D01*
X169401Y156335D01*
X169409Y156363D01*
X169418Y156393D01*
X169426Y156429D01*
X169454Y156498D01*
X169487Y156570D01*
X169509Y156606D01*
X169534Y156640D01*
X169562Y156667D01*
X169592Y156695D01*
X169595Y156698D01*
X169600Y156701D01*
X169609Y156706D01*
X169623Y156717D01*
X169639Y156725D01*
X169661Y156737D01*
X169684Y156750D01*
X169711Y156761D01*
X169742Y156775D01*
X169775Y156786D01*
X169847Y156808D01*
X169933Y156822D01*
X169977Y156825D01*
X170024Y156828D01*
X170052D01*
X170071Y156825D01*
D02*
G37*
G36*
X175913Y154900D02*
X175526D01*
X174747Y156163D01*
Y154900D01*
X174390D01*
Y156817D01*
X174764D01*
X175556Y155526D01*
Y156817D01*
X175913D01*
Y154900D01*
D02*
G37*
G36*
X296757Y289422D02*
X296793Y289417D01*
X296837Y289408D01*
X296887Y289395D01*
X296936Y289378D01*
X296986Y289356D01*
X296989D01*
X296992Y289353D01*
X297009Y289345D01*
X297034Y289328D01*
X297061Y289309D01*
X297094Y289281D01*
X297128Y289251D01*
X297161Y289215D01*
X297189Y289173D01*
X297191Y289167D01*
X297200Y289154D01*
X297211Y289129D01*
X297225Y289098D01*
X297238Y289062D01*
X297250Y289021D01*
X297258Y288974D01*
X297261Y288927D01*
Y288921D01*
Y288904D01*
X297258Y288882D01*
X297252Y288852D01*
X297244Y288816D01*
X297230Y288777D01*
X297214Y288738D01*
X297191Y288699D01*
X297189Y288694D01*
X297180Y288683D01*
X297164Y288663D01*
X297142Y288641D01*
X297114Y288616D01*
X297081Y288589D01*
X297042Y288564D01*
X296995Y288539D01*
X296997D01*
X297003Y288536D01*
X297011Y288533D01*
X297022Y288530D01*
X297053Y288519D01*
X297092Y288503D01*
X297136Y288481D01*
X297180Y288453D01*
X297222Y288417D01*
X297261Y288375D01*
X297263Y288370D01*
X297274Y288353D01*
X297291Y288326D01*
X297308Y288289D01*
X297324Y288245D01*
X297341Y288193D01*
X297352Y288132D01*
X297355Y288065D01*
Y288062D01*
Y288054D01*
Y288040D01*
X297352Y288023D01*
X297349Y288001D01*
X297344Y287976D01*
X297338Y287949D01*
X297333Y287918D01*
X297310Y287852D01*
X297294Y287816D01*
X297277Y287783D01*
X297255Y287747D01*
X297230Y287710D01*
X297202Y287674D01*
X297169Y287641D01*
X297166Y287638D01*
X297161Y287633D01*
X297150Y287625D01*
X297136Y287614D01*
X297119Y287600D01*
X297097Y287586D01*
X297072Y287569D01*
X297042Y287555D01*
X297011Y287539D01*
X296975Y287522D01*
X296939Y287508D01*
X296898Y287494D01*
X296853Y287483D01*
X296806Y287475D01*
X296759Y287470D01*
X296707Y287467D01*
X296682D01*
X296665Y287470D01*
X296643Y287472D01*
X296618Y287475D01*
X296590Y287481D01*
X296560Y287486D01*
X296493Y287503D01*
X296424Y287530D01*
X296388Y287547D01*
X296355Y287566D01*
X296322Y287591D01*
X296288Y287616D01*
X296286Y287619D01*
X296280Y287625D01*
X296272Y287633D01*
X296263Y287644D01*
X296250Y287658D01*
X296236Y287677D01*
X296219Y287697D01*
X296202Y287722D01*
X296186Y287749D01*
X296169Y287777D01*
X296139Y287843D01*
X296114Y287921D01*
X296106Y287963D01*
X296100Y288007D01*
X296335Y288037D01*
Y288035D01*
X296338Y288029D01*
X296341Y288018D01*
X296344Y288004D01*
X296346Y287987D01*
X296352Y287968D01*
X296366Y287927D01*
X296385Y287877D01*
X296410Y287830D01*
X296438Y287785D01*
X296471Y287747D01*
X296477Y287744D01*
X296488Y287733D01*
X296510Y287719D01*
X296538Y287705D01*
X296571Y287688D01*
X296612Y287674D01*
X296659Y287663D01*
X296709Y287661D01*
X296726D01*
X296737Y287663D01*
X296768Y287666D01*
X296806Y287674D01*
X296851Y287688D01*
X296898Y287708D01*
X296945Y287735D01*
X296989Y287774D01*
X296995Y287780D01*
X297009Y287796D01*
X297025Y287821D01*
X297047Y287855D01*
X297070Y287896D01*
X297086Y287943D01*
X297100Y287999D01*
X297106Y288059D01*
Y288062D01*
Y288068D01*
Y288076D01*
X297103Y288087D01*
X297100Y288118D01*
X297092Y288154D01*
X297081Y288198D01*
X297061Y288242D01*
X297034Y288287D01*
X296997Y288328D01*
X296992Y288334D01*
X296978Y288345D01*
X296956Y288362D01*
X296925Y288381D01*
X296887Y288400D01*
X296840Y288417D01*
X296787Y288428D01*
X296729Y288434D01*
X296704D01*
X296685Y288431D01*
X296659Y288428D01*
X296632Y288422D01*
X296599Y288417D01*
X296563Y288409D01*
X296590Y288616D01*
X296604D01*
X296615Y288614D01*
X296651D01*
X296682Y288619D01*
X296718Y288625D01*
X296759Y288633D01*
X296806Y288647D01*
X296851Y288666D01*
X296898Y288691D01*
X296901D01*
X296903Y288694D01*
X296917Y288705D01*
X296936Y288724D01*
X296959Y288749D01*
X296981Y288785D01*
X297000Y288827D01*
X297014Y288874D01*
X297020Y288902D01*
Y288932D01*
Y288935D01*
Y288938D01*
Y288954D01*
X297014Y288976D01*
X297009Y289007D01*
X296997Y289040D01*
X296984Y289076D01*
X296961Y289112D01*
X296931Y289145D01*
X296928Y289148D01*
X296914Y289159D01*
X296895Y289173D01*
X296870Y289190D01*
X296837Y289204D01*
X296798Y289217D01*
X296754Y289229D01*
X296704Y289231D01*
X296682D01*
X296657Y289226D01*
X296623Y289220D01*
X296587Y289209D01*
X296551Y289195D01*
X296513Y289173D01*
X296477Y289145D01*
X296474Y289143D01*
X296463Y289129D01*
X296446Y289109D01*
X296427Y289082D01*
X296408Y289046D01*
X296388Y289001D01*
X296372Y288949D01*
X296360Y288888D01*
X296125Y288929D01*
Y288932D01*
X296128Y288940D01*
X296130Y288951D01*
X296133Y288968D01*
X296139Y288987D01*
X296147Y289010D01*
X296164Y289062D01*
X296191Y289123D01*
X296225Y289184D01*
X296266Y289242D01*
X296319Y289295D01*
X296322Y289298D01*
X296327Y289300D01*
X296335Y289306D01*
X296346Y289314D01*
X296360Y289325D01*
X296380Y289336D01*
X296399Y289348D01*
X296424Y289361D01*
X296480Y289384D01*
X296543Y289406D01*
X296618Y289420D01*
X296657Y289425D01*
X296726D01*
X296757Y289422D01*
D02*
G37*
G36*
X300729Y287500D02*
X300463D01*
X299720Y289417D01*
X299997D01*
X300496Y288023D01*
Y288021D01*
X300499Y288015D01*
X300501Y288007D01*
X300507Y287996D01*
X300510Y287979D01*
X300515Y287963D01*
X300529Y287921D01*
X300546Y287874D01*
X300563Y287821D01*
X300596Y287710D01*
Y287713D01*
X300599Y287719D01*
X300601Y287727D01*
X300604Y287738D01*
X300612Y287769D01*
X300626Y287810D01*
X300640Y287857D01*
X300657Y287910D01*
X300676Y287965D01*
X300698Y288023D01*
X301219Y289417D01*
X301477D01*
X300729Y287500D01*
D02*
G37*
G36*
X298992Y289422D02*
X299028Y289417D01*
X299072Y289408D01*
X299122Y289395D01*
X299172Y289378D01*
X299222Y289356D01*
X299225D01*
X299227Y289353D01*
X299244Y289345D01*
X299269Y289328D01*
X299297Y289309D01*
X299330Y289281D01*
X299363Y289251D01*
X299396Y289215D01*
X299424Y289173D01*
X299427Y289167D01*
X299435Y289154D01*
X299446Y289129D01*
X299460Y289098D01*
X299474Y289062D01*
X299485Y289021D01*
X299493Y288974D01*
X299496Y288927D01*
Y288921D01*
Y288904D01*
X299493Y288882D01*
X299488Y288852D01*
X299479Y288816D01*
X299465Y288777D01*
X299449Y288738D01*
X299427Y288699D01*
X299424Y288694D01*
X299416Y288683D01*
X299399Y288663D01*
X299377Y288641D01*
X299349Y288616D01*
X299316Y288589D01*
X299277Y288564D01*
X299230Y288539D01*
X299233D01*
X299238Y288536D01*
X299247Y288533D01*
X299258Y288530D01*
X299288Y288519D01*
X299327Y288503D01*
X299371Y288481D01*
X299416Y288453D01*
X299457Y288417D01*
X299496Y288375D01*
X299499Y288370D01*
X299510Y288353D01*
X299527Y288326D01*
X299543Y288289D01*
X299560Y288245D01*
X299576Y288193D01*
X299587Y288132D01*
X299590Y288065D01*
Y288062D01*
Y288054D01*
Y288040D01*
X299587Y288023D01*
X299585Y288001D01*
X299579Y287976D01*
X299574Y287949D01*
X299568Y287918D01*
X299546Y287852D01*
X299529Y287816D01*
X299513Y287783D01*
X299490Y287747D01*
X299465Y287710D01*
X299438Y287674D01*
X299405Y287641D01*
X299402Y287638D01*
X299396Y287633D01*
X299385Y287625D01*
X299371Y287614D01*
X299355Y287600D01*
X299333Y287586D01*
X299308Y287569D01*
X299277Y287555D01*
X299247Y287539D01*
X299211Y287522D01*
X299175Y287508D01*
X299133Y287494D01*
X299089Y287483D01*
X299042Y287475D01*
X298995Y287470D01*
X298942Y287467D01*
X298917D01*
X298901Y287470D01*
X298878Y287472D01*
X298853Y287475D01*
X298826Y287481D01*
X298795Y287486D01*
X298729Y287503D01*
X298659Y287530D01*
X298623Y287547D01*
X298590Y287566D01*
X298557Y287591D01*
X298524Y287616D01*
X298521Y287619D01*
X298515Y287625D01*
X298507Y287633D01*
X298499Y287644D01*
X298485Y287658D01*
X298471Y287677D01*
X298454Y287697D01*
X298438Y287722D01*
X298421Y287749D01*
X298405Y287777D01*
X298374Y287843D01*
X298349Y287921D01*
X298341Y287963D01*
X298335Y288007D01*
X298571Y288037D01*
Y288035D01*
X298574Y288029D01*
X298576Y288018D01*
X298579Y288004D01*
X298582Y287987D01*
X298587Y287968D01*
X298601Y287927D01*
X298621Y287877D01*
X298646Y287830D01*
X298673Y287785D01*
X298707Y287747D01*
X298712Y287744D01*
X298723Y287733D01*
X298745Y287719D01*
X298773Y287705D01*
X298806Y287688D01*
X298848Y287674D01*
X298895Y287663D01*
X298945Y287661D01*
X298961D01*
X298973Y287663D01*
X299003Y287666D01*
X299042Y287674D01*
X299086Y287688D01*
X299133Y287708D01*
X299180Y287735D01*
X299225Y287774D01*
X299230Y287780D01*
X299244Y287796D01*
X299261Y287821D01*
X299283Y287855D01*
X299305Y287896D01*
X299322Y287943D01*
X299335Y287999D01*
X299341Y288059D01*
Y288062D01*
Y288068D01*
Y288076D01*
X299338Y288087D01*
X299335Y288118D01*
X299327Y288154D01*
X299316Y288198D01*
X299297Y288242D01*
X299269Y288287D01*
X299233Y288328D01*
X299227Y288334D01*
X299214Y288345D01*
X299191Y288362D01*
X299161Y288381D01*
X299122Y288400D01*
X299075Y288417D01*
X299022Y288428D01*
X298964Y288434D01*
X298939D01*
X298920Y288431D01*
X298895Y288428D01*
X298867Y288422D01*
X298834Y288417D01*
X298798Y288409D01*
X298826Y288616D01*
X298839D01*
X298851Y288614D01*
X298887D01*
X298917Y288619D01*
X298953Y288625D01*
X298995Y288633D01*
X299042Y288647D01*
X299086Y288666D01*
X299133Y288691D01*
X299136D01*
X299139Y288694D01*
X299152Y288705D01*
X299172Y288724D01*
X299194Y288749D01*
X299216Y288785D01*
X299236Y288827D01*
X299250Y288874D01*
X299255Y288902D01*
Y288932D01*
Y288935D01*
Y288938D01*
Y288954D01*
X299250Y288976D01*
X299244Y289007D01*
X299233Y289040D01*
X299219Y289076D01*
X299197Y289112D01*
X299166Y289145D01*
X299164Y289148D01*
X299150Y289159D01*
X299130Y289173D01*
X299106Y289190D01*
X299072Y289204D01*
X299033Y289217D01*
X298989Y289229D01*
X298939Y289231D01*
X298917D01*
X298892Y289226D01*
X298859Y289220D01*
X298823Y289209D01*
X298787Y289195D01*
X298748Y289173D01*
X298712Y289145D01*
X298709Y289143D01*
X298698Y289129D01*
X298682Y289109D01*
X298662Y289082D01*
X298643Y289046D01*
X298623Y289001D01*
X298607Y288949D01*
X298596Y288888D01*
X298360Y288929D01*
Y288932D01*
X298363Y288940D01*
X298366Y288951D01*
X298369Y288968D01*
X298374Y288987D01*
X298382Y289010D01*
X298399Y289062D01*
X298427Y289123D01*
X298460Y289184D01*
X298502Y289242D01*
X298554Y289295D01*
X298557Y289298D01*
X298563Y289300D01*
X298571Y289306D01*
X298582Y289314D01*
X298596Y289325D01*
X298615Y289336D01*
X298635Y289348D01*
X298659Y289361D01*
X298715Y289384D01*
X298779Y289406D01*
X298853Y289420D01*
X298892Y289425D01*
X298961D01*
X298992Y289422D01*
D02*
G37*
G36*
X201000Y19145D02*
X199097D01*
Y19533D01*
X200676D01*
Y20497D01*
X201000D01*
Y19145D01*
D02*
G37*
G36*
X199407Y17888D02*
X199862D01*
Y18688D01*
X200186D01*
Y17888D01*
X201000D01*
Y17500D01*
X199083D01*
Y18816D01*
X199407D01*
Y17888D01*
D02*
G37*
G36*
X304427Y289414D02*
X304482Y289411D01*
X304537Y289406D01*
X304593Y289397D01*
X304640Y289389D01*
X304643D01*
X304648Y289386D01*
X304657D01*
X304668Y289381D01*
X304698Y289372D01*
X304737Y289359D01*
X304781Y289339D01*
X304828Y289314D01*
X304875Y289287D01*
X304920Y289251D01*
X304922Y289248D01*
X304925Y289245D01*
X304934Y289237D01*
X304945Y289229D01*
X304972Y289201D01*
X305006Y289162D01*
X305042Y289115D01*
X305080Y289059D01*
X305116Y288996D01*
X305147Y288924D01*
Y288921D01*
X305150Y288915D01*
X305155Y288904D01*
X305158Y288888D01*
X305166Y288868D01*
X305172Y288846D01*
X305177Y288821D01*
X305186Y288791D01*
X305194Y288760D01*
X305199Y288724D01*
X305213Y288647D01*
X305222Y288561D01*
X305224Y288467D01*
Y288464D01*
Y288458D01*
Y288445D01*
Y288431D01*
X305222Y288411D01*
Y288389D01*
X305219Y288336D01*
X305210Y288276D01*
X305202Y288212D01*
X305188Y288145D01*
X305172Y288079D01*
Y288076D01*
X305169Y288071D01*
X305166Y288062D01*
X305163Y288051D01*
X305152Y288021D01*
X305136Y287982D01*
X305119Y287938D01*
X305097Y287893D01*
X305069Y287846D01*
X305042Y287802D01*
X305039Y287796D01*
X305028Y287783D01*
X305011Y287763D01*
X304989Y287738D01*
X304964Y287710D01*
X304934Y287683D01*
X304903Y287652D01*
X304867Y287627D01*
X304861Y287625D01*
X304850Y287616D01*
X304831Y287605D01*
X304803Y287591D01*
X304770Y287575D01*
X304731Y287561D01*
X304687Y287544D01*
X304637Y287530D01*
X304632D01*
X304623Y287528D01*
X304615Y287525D01*
X304587Y287522D01*
X304549Y287517D01*
X304504Y287511D01*
X304451Y287506D01*
X304393Y287503D01*
X304330Y287500D01*
X303640D01*
Y289417D01*
X304377D01*
X304427Y289414D01*
D02*
G37*
G36*
X237116Y154350D02*
X237146Y154347D01*
X237182Y154344D01*
X237221Y154342D01*
X237263Y154333D01*
X237351Y154317D01*
X237443Y154289D01*
X237490Y154272D01*
X237534Y154253D01*
X237576Y154231D01*
X237614Y154203D01*
X237617Y154200D01*
X237623Y154198D01*
X237634Y154187D01*
X237648Y154176D01*
X237664Y154162D01*
X237681Y154142D01*
X237700Y154120D01*
X237723Y154095D01*
X237745Y154068D01*
X237767Y154037D01*
X237789Y154004D01*
X237808Y153965D01*
X237831Y153926D01*
X237847Y153885D01*
X237864Y153838D01*
X237875Y153790D01*
X237490Y153718D01*
Y153721D01*
X237487Y153724D01*
X237482Y153741D01*
X237471Y153766D01*
X237454Y153799D01*
X237435Y153835D01*
X237407Y153871D01*
X237373Y153907D01*
X237335Y153940D01*
X237329Y153943D01*
X237315Y153954D01*
X237290Y153968D01*
X237260Y153982D01*
X237218Y153998D01*
X237171Y154009D01*
X237119Y154021D01*
X237058Y154023D01*
X237033D01*
X237016Y154021D01*
X236994Y154018D01*
X236969Y154015D01*
X236941Y154009D01*
X236911Y154004D01*
X236847Y153984D01*
X236814Y153971D01*
X236781Y153954D01*
X236748Y153935D01*
X236714Y153915D01*
X236684Y153887D01*
X236653Y153860D01*
X236651Y153857D01*
X236648Y153851D01*
X236639Y153843D01*
X236631Y153829D01*
X236620Y153813D01*
X236606Y153793D01*
X236592Y153768D01*
X236581Y153741D01*
X236567Y153707D01*
X236554Y153671D01*
X236540Y153633D01*
X236529Y153591D01*
X236520Y153544D01*
X236512Y153491D01*
X236509Y153439D01*
X236507Y153381D01*
Y153378D01*
Y153367D01*
Y153347D01*
X236509Y153325D01*
X236512Y153295D01*
X236515Y153264D01*
X236520Y153226D01*
X236526Y153187D01*
X236543Y153104D01*
X236570Y153018D01*
X236587Y152976D01*
X236606Y152937D01*
X236631Y152899D01*
X236656Y152865D01*
X236659Y152863D01*
X236664Y152857D01*
X236673Y152849D01*
X236684Y152838D01*
X236700Y152827D01*
X236717Y152810D01*
X236739Y152796D01*
X236764Y152779D01*
X236792Y152763D01*
X236820Y152749D01*
X236889Y152721D01*
X236928Y152710D01*
X236966Y152702D01*
X237011Y152696D01*
X237055Y152694D01*
X237077D01*
X237099Y152696D01*
X237133Y152699D01*
X237169Y152705D01*
X237210Y152713D01*
X237254Y152724D01*
X237299Y152741D01*
X237301D01*
X237304Y152743D01*
X237318Y152749D01*
X237343Y152760D01*
X237371Y152774D01*
X237404Y152791D01*
X237440Y152810D01*
X237476Y152832D01*
X237509Y152857D01*
Y153104D01*
X237066D01*
Y153428D01*
X237900D01*
Y152658D01*
X237894Y152652D01*
X237886Y152647D01*
X237878Y152638D01*
X237864Y152627D01*
X237850Y152616D01*
X237811Y152588D01*
X237759Y152558D01*
X237698Y152522D01*
X237628Y152486D01*
X237545Y152453D01*
X237543D01*
X237534Y152450D01*
X237523Y152444D01*
X237507Y152439D01*
X237484Y152433D01*
X237459Y152425D01*
X237432Y152417D01*
X237401Y152408D01*
X237332Y152392D01*
X237252Y152378D01*
X237169Y152367D01*
X237080Y152364D01*
X237049D01*
X237030Y152367D01*
X237002D01*
X236972Y152369D01*
X236939Y152375D01*
X236900Y152381D01*
X236820Y152394D01*
X236731Y152417D01*
X236639Y152447D01*
X236598Y152466D01*
X236554Y152489D01*
X236551Y152491D01*
X236545Y152494D01*
X236531Y152503D01*
X236518Y152514D01*
X236498Y152525D01*
X236479Y152541D01*
X236454Y152561D01*
X236429Y152583D01*
X236374Y152633D01*
X236318Y152696D01*
X236265Y152768D01*
X236218Y152851D01*
Y152854D01*
X236213Y152863D01*
X236207Y152876D01*
X236202Y152893D01*
X236193Y152915D01*
X236182Y152940D01*
X236174Y152971D01*
X236163Y153004D01*
X236152Y153040D01*
X236144Y153081D01*
X236124Y153167D01*
X236113Y153261D01*
X236108Y153364D01*
Y153367D01*
Y153378D01*
Y153394D01*
X236110Y153414D01*
Y153442D01*
X236113Y153472D01*
X236119Y153505D01*
X236124Y153544D01*
X236138Y153624D01*
X236160Y153716D01*
X236191Y153807D01*
X236210Y153851D01*
X236232Y153896D01*
X236235Y153899D01*
X236238Y153907D01*
X236246Y153918D01*
X236255Y153935D01*
X236268Y153954D01*
X236285Y153976D01*
X236304Y154001D01*
X236324Y154029D01*
X236349Y154057D01*
X236376Y154087D01*
X236407Y154117D01*
X236440Y154148D01*
X236476Y154176D01*
X236512Y154206D01*
X236598Y154256D01*
X236601D01*
X236606Y154261D01*
X236617Y154264D01*
X236631Y154272D01*
X236651Y154278D01*
X236670Y154286D01*
X236698Y154295D01*
X236725Y154306D01*
X236756Y154314D01*
X236792Y154322D01*
X236831Y154331D01*
X236869Y154339D01*
X236958Y154350D01*
X237058Y154353D01*
X237091D01*
X237116Y154350D01*
D02*
G37*
G36*
X167058Y154371D02*
X165529D01*
Y154609D01*
X167058D01*
Y154371D01*
D02*
G37*
G36*
X182916Y156850D02*
X182946Y156847D01*
X182982Y156844D01*
X183021Y156842D01*
X183063Y156834D01*
X183151Y156817D01*
X183243Y156789D01*
X183290Y156772D01*
X183334Y156753D01*
X183376Y156731D01*
X183414Y156703D01*
X183417Y156701D01*
X183423Y156698D01*
X183434Y156687D01*
X183448Y156676D01*
X183464Y156662D01*
X183481Y156642D01*
X183500Y156620D01*
X183523Y156595D01*
X183545Y156568D01*
X183567Y156537D01*
X183589Y156504D01*
X183608Y156465D01*
X183631Y156426D01*
X183647Y156385D01*
X183664Y156338D01*
X183675Y156290D01*
X183290Y156219D01*
Y156221D01*
X183287Y156224D01*
X183282Y156241D01*
X183271Y156266D01*
X183254Y156299D01*
X183235Y156335D01*
X183207Y156371D01*
X183174Y156407D01*
X183135Y156440D01*
X183129Y156443D01*
X183115Y156454D01*
X183090Y156468D01*
X183060Y156482D01*
X183018Y156498D01*
X182971Y156509D01*
X182919Y156520D01*
X182858Y156523D01*
X182833D01*
X182816Y156520D01*
X182794Y156518D01*
X182769Y156515D01*
X182741Y156509D01*
X182711Y156504D01*
X182647Y156484D01*
X182614Y156471D01*
X182581Y156454D01*
X182547Y156435D01*
X182514Y156415D01*
X182484Y156387D01*
X182453Y156360D01*
X182451Y156357D01*
X182448Y156351D01*
X182439Y156343D01*
X182431Y156329D01*
X182420Y156313D01*
X182406Y156293D01*
X182392Y156268D01*
X182381Y156241D01*
X182368Y156207D01*
X182354Y156171D01*
X182340Y156133D01*
X182329Y156091D01*
X182320Y156044D01*
X182312Y155991D01*
X182309Y155939D01*
X182307Y155881D01*
Y155878D01*
Y155867D01*
Y155847D01*
X182309Y155825D01*
X182312Y155795D01*
X182315Y155764D01*
X182320Y155726D01*
X182326Y155687D01*
X182343Y155604D01*
X182370Y155518D01*
X182387Y155476D01*
X182406Y155437D01*
X182431Y155399D01*
X182456Y155365D01*
X182459Y155363D01*
X182464Y155357D01*
X182473Y155349D01*
X182484Y155338D01*
X182500Y155327D01*
X182517Y155310D01*
X182539Y155296D01*
X182564Y155280D01*
X182592Y155263D01*
X182620Y155249D01*
X182689Y155221D01*
X182728Y155210D01*
X182766Y155202D01*
X182811Y155196D01*
X182855Y155194D01*
X182877D01*
X182899Y155196D01*
X182932Y155199D01*
X182969Y155205D01*
X183010Y155213D01*
X183054Y155224D01*
X183099Y155241D01*
X183101D01*
X183104Y155244D01*
X183118Y155249D01*
X183143Y155260D01*
X183171Y155274D01*
X183204Y155291D01*
X183240Y155310D01*
X183276Y155332D01*
X183309Y155357D01*
Y155604D01*
X182866D01*
Y155928D01*
X183700D01*
Y155158D01*
X183694Y155152D01*
X183686Y155147D01*
X183678Y155138D01*
X183664Y155127D01*
X183650Y155116D01*
X183611Y155088D01*
X183559Y155058D01*
X183498Y155022D01*
X183428Y154986D01*
X183345Y154953D01*
X183343D01*
X183334Y154950D01*
X183323Y154944D01*
X183307Y154939D01*
X183284Y154933D01*
X183259Y154925D01*
X183232Y154917D01*
X183201Y154908D01*
X183132Y154892D01*
X183052Y154878D01*
X182969Y154867D01*
X182880Y154864D01*
X182850D01*
X182830Y154867D01*
X182802D01*
X182772Y154869D01*
X182739Y154875D01*
X182700Y154881D01*
X182620Y154894D01*
X182531Y154917D01*
X182439Y154947D01*
X182398Y154966D01*
X182354Y154989D01*
X182351Y154991D01*
X182345Y154994D01*
X182332Y155002D01*
X182318Y155014D01*
X182298Y155025D01*
X182279Y155041D01*
X182254Y155061D01*
X182229Y155083D01*
X182174Y155133D01*
X182118Y155196D01*
X182065Y155268D01*
X182018Y155351D01*
Y155354D01*
X182013Y155363D01*
X182007Y155376D01*
X182002Y155393D01*
X181993Y155415D01*
X181982Y155440D01*
X181974Y155471D01*
X181963Y155504D01*
X181952Y155540D01*
X181944Y155581D01*
X181924Y155667D01*
X181913Y155762D01*
X181908Y155864D01*
Y155867D01*
Y155878D01*
Y155894D01*
X181910Y155914D01*
Y155941D01*
X181913Y155972D01*
X181919Y156005D01*
X181924Y156044D01*
X181938Y156124D01*
X181960Y156216D01*
X181991Y156307D01*
X182010Y156351D01*
X182032Y156396D01*
X182035Y156399D01*
X182038Y156407D01*
X182046Y156418D01*
X182054Y156435D01*
X182068Y156454D01*
X182085Y156476D01*
X182104Y156501D01*
X182124Y156529D01*
X182149Y156556D01*
X182176Y156587D01*
X182207Y156617D01*
X182240Y156648D01*
X182276Y156676D01*
X182312Y156706D01*
X182398Y156756D01*
X182401D01*
X182406Y156761D01*
X182417Y156764D01*
X182431Y156772D01*
X182451Y156778D01*
X182470Y156786D01*
X182498Y156795D01*
X182525Y156806D01*
X182556Y156814D01*
X182592Y156822D01*
X182631Y156831D01*
X182669Y156839D01*
X182758Y156850D01*
X182858Y156853D01*
X182891D01*
X182916Y156850D01*
D02*
G37*
G36*
X302493Y289414D02*
X302549Y289411D01*
X302604Y289406D01*
X302659Y289397D01*
X302706Y289389D01*
X302709D01*
X302715Y289386D01*
X302723D01*
X302734Y289381D01*
X302765Y289372D01*
X302803Y289359D01*
X302848Y289339D01*
X302895Y289314D01*
X302942Y289287D01*
X302986Y289251D01*
X302989Y289248D01*
X302992Y289245D01*
X303000Y289237D01*
X303011Y289229D01*
X303039Y289201D01*
X303072Y289162D01*
X303108Y289115D01*
X303147Y289059D01*
X303183Y288996D01*
X303213Y288924D01*
Y288921D01*
X303216Y288915D01*
X303222Y288904D01*
X303224Y288888D01*
X303233Y288868D01*
X303238Y288846D01*
X303244Y288821D01*
X303252Y288791D01*
X303260Y288760D01*
X303266Y288724D01*
X303280Y288647D01*
X303288Y288561D01*
X303291Y288467D01*
Y288464D01*
Y288458D01*
Y288445D01*
Y288431D01*
X303288Y288411D01*
Y288389D01*
X303285Y288336D01*
X303277Y288276D01*
X303269Y288212D01*
X303255Y288145D01*
X303238Y288079D01*
Y288076D01*
X303236Y288071D01*
X303233Y288062D01*
X303230Y288051D01*
X303219Y288021D01*
X303202Y287982D01*
X303186Y287938D01*
X303164Y287893D01*
X303136Y287846D01*
X303108Y287802D01*
X303105Y287796D01*
X303094Y287783D01*
X303078Y287763D01*
X303056Y287738D01*
X303030Y287710D01*
X303000Y287683D01*
X302970Y287652D01*
X302934Y287627D01*
X302928Y287625D01*
X302917Y287616D01*
X302898Y287605D01*
X302870Y287591D01*
X302837Y287575D01*
X302798Y287561D01*
X302753Y287544D01*
X302704Y287530D01*
X302698D01*
X302690Y287528D01*
X302681Y287525D01*
X302654Y287522D01*
X302615Y287517D01*
X302571Y287511D01*
X302518Y287506D01*
X302460Y287503D01*
X302396Y287500D01*
X301707D01*
Y289417D01*
X302443D01*
X302493Y289414D01*
D02*
G37*
G36*
X297989Y287500D02*
X297720D01*
Y287769D01*
X297989D01*
Y287500D01*
D02*
G37*
G36*
X216870Y154314D02*
X216923Y154311D01*
X216981Y154308D01*
X217042Y154300D01*
X217100Y154292D01*
X217153Y154278D01*
X217155D01*
X217161Y154275D01*
X217169Y154272D01*
X217180Y154270D01*
X217214Y154256D01*
X217252Y154236D01*
X217297Y154212D01*
X217346Y154181D01*
X217393Y154145D01*
X217441Y154101D01*
X217443D01*
X217446Y154095D01*
X217460Y154079D01*
X217482Y154051D01*
X217507Y154015D01*
X217538Y153971D01*
X217568Y153918D01*
X217599Y153857D01*
X217623Y153790D01*
Y153788D01*
X217626Y153782D01*
X217629Y153771D01*
X217635Y153757D01*
X217637Y153741D01*
X217643Y153718D01*
X217648Y153694D01*
X217657Y153666D01*
X217662Y153635D01*
X217668Y153599D01*
X217673Y153563D01*
X217676Y153522D01*
X217684Y153436D01*
X217687Y153339D01*
Y153336D01*
Y153328D01*
Y153317D01*
Y153300D01*
X217684Y153278D01*
Y153256D01*
X217682Y153228D01*
X217679Y153198D01*
X217673Y153134D01*
X217662Y153068D01*
X217646Y152998D01*
X217626Y152932D01*
Y152929D01*
X217623Y152924D01*
X217618Y152912D01*
X217612Y152896D01*
X217607Y152879D01*
X217596Y152860D01*
X217574Y152810D01*
X217546Y152757D01*
X217510Y152699D01*
X217468Y152644D01*
X217421Y152591D01*
X217416Y152586D01*
X217402Y152575D01*
X217380Y152558D01*
X217349Y152536D01*
X217310Y152511D01*
X217266Y152486D01*
X217211Y152461D01*
X217150Y152439D01*
X217147D01*
X217144Y152436D01*
X217136D01*
X217128Y152433D01*
X217097Y152428D01*
X217058Y152419D01*
X217011Y152411D01*
X216953Y152406D01*
X216884Y152403D01*
X216809Y152400D01*
X216083D01*
Y154317D01*
X216848D01*
X216870Y154314D01*
D02*
G37*
G36*
X217289Y133114D02*
X217320D01*
X217350Y133111D01*
X217386D01*
X217458Y133103D01*
X217533Y133095D01*
X217602Y133081D01*
X217633Y133072D01*
X217660Y133064D01*
X217663D01*
X217666Y133061D01*
X217683Y133053D01*
X217707Y133039D01*
X217741Y133023D01*
X217777Y132995D01*
X217813Y132965D01*
X217849Y132926D01*
X217882Y132879D01*
Y132876D01*
X217885Y132873D01*
X217890Y132865D01*
X217896Y132857D01*
X217910Y132829D01*
X217926Y132793D01*
X217940Y132748D01*
X217954Y132699D01*
X217965Y132640D01*
X217968Y132580D01*
Y132577D01*
Y132571D01*
Y132557D01*
X217965Y132544D01*
Y132524D01*
X217962Y132505D01*
X217951Y132455D01*
X217937Y132397D01*
X217915Y132339D01*
X217882Y132278D01*
X217863Y132250D01*
X217840Y132222D01*
X217838Y132219D01*
X217835Y132217D01*
X217827Y132208D01*
X217815Y132200D01*
X217804Y132189D01*
X217788Y132175D01*
X217768Y132161D01*
X217746Y132147D01*
X217721Y132131D01*
X217691Y132117D01*
X217660Y132103D01*
X217627Y132089D01*
X217588Y132075D01*
X217549Y132064D01*
X217508Y132053D01*
X217461Y132045D01*
X217464D01*
X217466Y132042D01*
X217483Y132031D01*
X217505Y132017D01*
X217533Y131998D01*
X217566Y131973D01*
X217599Y131948D01*
X217635Y131917D01*
X217666Y131884D01*
X217669Y131881D01*
X217683Y131868D01*
X217699Y131845D01*
X217724Y131812D01*
X217757Y131771D01*
X217774Y131743D01*
X217793Y131715D01*
X217815Y131685D01*
X217838Y131651D01*
X217863Y131613D01*
X217887Y131574D01*
X218123Y131200D01*
X217658D01*
X217381Y131615D01*
X217378Y131618D01*
X217375Y131627D01*
X217367Y131638D01*
X217356Y131651D01*
X217345Y131668D01*
X217331Y131690D01*
X217300Y131735D01*
X217264Y131784D01*
X217231Y131829D01*
X217200Y131870D01*
X217187Y131884D01*
X217176Y131898D01*
X217173Y131901D01*
X217167Y131906D01*
X217156Y131917D01*
X217142Y131931D01*
X217123Y131942D01*
X217104Y131956D01*
X217081Y131967D01*
X217059Y131978D01*
X217056D01*
X217048Y131981D01*
X217034Y131987D01*
X217012Y131990D01*
X216985Y131995D01*
X216951Y131998D01*
X216912Y132001D01*
X216788D01*
Y131200D01*
X216400D01*
Y133117D01*
X217264D01*
X217289Y133114D01*
D02*
G37*
G36*
X229298Y134397D02*
X229957Y133400D01*
X229492D01*
X229068Y134048D01*
X228642Y133400D01*
X228176D01*
X228838Y134397D01*
X228237Y135317D01*
X228689D01*
X229068Y134743D01*
X229448Y135317D01*
X229899D01*
X229298Y134397D01*
D02*
G37*
G36*
X234980Y154350D02*
X235008D01*
X235044Y154344D01*
X235086Y154339D01*
X235133Y154331D01*
X235182Y154320D01*
X235235Y154306D01*
X235291Y154289D01*
X235346Y154267D01*
X235404Y154242D01*
X235459Y154212D01*
X235515Y154176D01*
X235567Y154134D01*
X235617Y154087D01*
X235620Y154084D01*
X235628Y154076D01*
X235642Y154059D01*
X235656Y154040D01*
X235676Y154012D01*
X235698Y153979D01*
X235720Y153940D01*
X235745Y153896D01*
X235770Y153849D01*
X235792Y153793D01*
X235814Y153732D01*
X235833Y153669D01*
X235850Y153597D01*
X235861Y153522D01*
X235869Y153442D01*
X235872Y153356D01*
Y153350D01*
Y153336D01*
X235869Y153311D01*
Y153278D01*
X235864Y153239D01*
X235858Y153195D01*
X235850Y153142D01*
X235842Y153090D01*
X235828Y153032D01*
X235811Y152971D01*
X235789Y152910D01*
X235764Y152849D01*
X235736Y152791D01*
X235700Y152732D01*
X235662Y152677D01*
X235617Y152624D01*
X235615Y152622D01*
X235606Y152613D01*
X235592Y152599D01*
X235570Y152583D01*
X235545Y152563D01*
X235515Y152541D01*
X235479Y152519D01*
X235440Y152494D01*
X235393Y152469D01*
X235343Y152447D01*
X235288Y152425D01*
X235227Y152406D01*
X235163Y152389D01*
X235094Y152375D01*
X235022Y152367D01*
X234944Y152364D01*
X234925D01*
X234903Y152367D01*
X234875Y152369D01*
X234839Y152372D01*
X234797Y152378D01*
X234750Y152386D01*
X234700Y152397D01*
X234645Y152411D01*
X234593Y152428D01*
X234534Y152450D01*
X234479Y152475D01*
X234421Y152503D01*
X234368Y152539D01*
X234315Y152577D01*
X234266Y152624D01*
X234263Y152627D01*
X234255Y152635D01*
X234243Y152652D01*
X234227Y152672D01*
X234207Y152699D01*
X234185Y152732D01*
X234163Y152768D01*
X234141Y152813D01*
X234116Y152860D01*
X234094Y152915D01*
X234072Y152973D01*
X234052Y153037D01*
X234036Y153106D01*
X234025Y153181D01*
X234016Y153261D01*
X234014Y153345D01*
Y153347D01*
Y153358D01*
Y153372D01*
X234016Y153394D01*
Y153419D01*
X234019Y153447D01*
X234022Y153480D01*
X234025Y153516D01*
X234036Y153594D01*
X234050Y153677D01*
X234072Y153760D01*
X234099Y153838D01*
Y153840D01*
X234102Y153843D01*
X234108Y153851D01*
X234110Y153863D01*
X234127Y153890D01*
X234146Y153926D01*
X234171Y153968D01*
X234202Y154009D01*
X234238Y154057D01*
X234277Y154101D01*
X234279Y154104D01*
X234282Y154106D01*
X234296Y154120D01*
X234321Y154142D01*
X234351Y154167D01*
X234387Y154195D01*
X234429Y154225D01*
X234476Y154253D01*
X234526Y154275D01*
X234529D01*
X234534Y154278D01*
X234545Y154284D01*
X234559Y154286D01*
X234576Y154295D01*
X234595Y154300D01*
X234620Y154306D01*
X234645Y154314D01*
X234706Y154328D01*
X234775Y154342D01*
X234856Y154350D01*
X234939Y154353D01*
X234958D01*
X234980Y154350D01*
D02*
G37*
G36*
X181589Y136314D02*
X181620D01*
X181650Y136311D01*
X181686D01*
X181758Y136303D01*
X181833Y136295D01*
X181902Y136281D01*
X181933Y136273D01*
X181960Y136264D01*
X181963D01*
X181966Y136261D01*
X181983Y136253D01*
X182007Y136239D01*
X182041Y136223D01*
X182077Y136195D01*
X182113Y136164D01*
X182149Y136126D01*
X182182Y136079D01*
Y136076D01*
X182185Y136073D01*
X182190Y136065D01*
X182196Y136056D01*
X182210Y136029D01*
X182226Y135993D01*
X182240Y135948D01*
X182254Y135899D01*
X182265Y135840D01*
X182268Y135780D01*
Y135777D01*
Y135771D01*
Y135757D01*
X182265Y135743D01*
Y135724D01*
X182262Y135705D01*
X182251Y135655D01*
X182237Y135597D01*
X182215Y135538D01*
X182182Y135477D01*
X182163Y135450D01*
X182140Y135422D01*
X182138Y135419D01*
X182135Y135417D01*
X182126Y135408D01*
X182115Y135400D01*
X182104Y135389D01*
X182088Y135375D01*
X182068Y135361D01*
X182046Y135347D01*
X182021Y135331D01*
X181991Y135317D01*
X181960Y135303D01*
X181927Y135289D01*
X181888Y135275D01*
X181850Y135264D01*
X181808Y135253D01*
X181761Y135245D01*
X181764D01*
X181766Y135242D01*
X181783Y135231D01*
X181805Y135217D01*
X181833Y135198D01*
X181866Y135173D01*
X181899Y135148D01*
X181935Y135117D01*
X181966Y135084D01*
X181969Y135081D01*
X181983Y135068D01*
X181999Y135045D01*
X182024Y135012D01*
X182057Y134971D01*
X182074Y134943D01*
X182093Y134915D01*
X182115Y134885D01*
X182138Y134852D01*
X182163Y134813D01*
X182187Y134774D01*
X182423Y134400D01*
X181958D01*
X181681Y134816D01*
X181678Y134818D01*
X181675Y134827D01*
X181667Y134838D01*
X181656Y134852D01*
X181645Y134868D01*
X181631Y134890D01*
X181600Y134935D01*
X181564Y134985D01*
X181531Y135029D01*
X181500Y135070D01*
X181487Y135084D01*
X181476Y135098D01*
X181473Y135101D01*
X181467Y135106D01*
X181456Y135117D01*
X181442Y135131D01*
X181423Y135142D01*
X181404Y135156D01*
X181381Y135167D01*
X181359Y135178D01*
X181357D01*
X181348Y135181D01*
X181334Y135187D01*
X181312Y135189D01*
X181284Y135195D01*
X181251Y135198D01*
X181212Y135201D01*
X181088D01*
Y134400D01*
X180700D01*
Y136317D01*
X181564D01*
X181589Y136314D01*
D02*
G37*
G36*
X219259Y132197D02*
X219918Y131200D01*
X219453D01*
X219029Y131848D01*
X218602Y131200D01*
X218137D01*
X218799Y132197D01*
X218198Y133117D01*
X218649D01*
X219029Y132544D01*
X219408Y133117D01*
X219860D01*
X219259Y132197D01*
D02*
G37*
G36*
X218804Y154314D02*
X218856Y154311D01*
X218914Y154308D01*
X218975Y154300D01*
X219033Y154292D01*
X219086Y154278D01*
X219089D01*
X219094Y154275D01*
X219103Y154272D01*
X219114Y154270D01*
X219147Y154256D01*
X219186Y154236D01*
X219230Y154212D01*
X219280Y154181D01*
X219327Y154145D01*
X219374Y154101D01*
X219377D01*
X219380Y154095D01*
X219393Y154079D01*
X219416Y154051D01*
X219441Y154015D01*
X219471Y153971D01*
X219501Y153918D01*
X219532Y153857D01*
X219557Y153790D01*
Y153788D01*
X219560Y153782D01*
X219562Y153771D01*
X219568Y153757D01*
X219571Y153741D01*
X219576Y153718D01*
X219582Y153694D01*
X219590Y153666D01*
X219596Y153635D01*
X219601Y153599D01*
X219607Y153563D01*
X219609Y153522D01*
X219618Y153436D01*
X219621Y153339D01*
Y153336D01*
Y153328D01*
Y153317D01*
Y153300D01*
X219618Y153278D01*
Y153256D01*
X219615Y153228D01*
X219612Y153198D01*
X219607Y153134D01*
X219596Y153068D01*
X219579Y152998D01*
X219560Y152932D01*
Y152929D01*
X219557Y152924D01*
X219551Y152912D01*
X219546Y152896D01*
X219540Y152879D01*
X219529Y152860D01*
X219507Y152810D01*
X219479Y152757D01*
X219443Y152699D01*
X219402Y152644D01*
X219355Y152591D01*
X219349Y152586D01*
X219335Y152575D01*
X219313Y152558D01*
X219283Y152536D01*
X219244Y152511D01*
X219200Y152486D01*
X219144Y152461D01*
X219083Y152439D01*
X219080D01*
X219078Y152436D01*
X219069D01*
X219061Y152433D01*
X219031Y152428D01*
X218992Y152419D01*
X218945Y152411D01*
X218887Y152406D01*
X218817Y152403D01*
X218742Y152400D01*
X218017D01*
Y154317D01*
X218781D01*
X218804Y154314D01*
D02*
G37*
G36*
X175329Y37547D02*
X175091D01*
Y39076D01*
X175329D01*
Y37547D01*
D02*
G37*
G36*
X174800Y37101D02*
X174152Y36678D01*
X174800Y36251D01*
Y35785D01*
X173803Y36448D01*
X172883Y35846D01*
Y36298D01*
X173457Y36678D01*
X172883Y37057D01*
Y37508D01*
X173803Y36907D01*
X174800Y37567D01*
Y37101D01*
D02*
G37*
G36*
X228121Y134993D02*
X227556D01*
Y133400D01*
X227168D01*
Y134993D01*
X226600D01*
Y135317D01*
X228121D01*
Y134993D01*
D02*
G37*
G36*
X174800Y42312D02*
X174152Y41888D01*
X174800Y41461D01*
Y40996D01*
X173803Y41658D01*
X172883Y41057D01*
Y41508D01*
X173457Y41888D01*
X172883Y42267D01*
Y42719D01*
X173803Y42118D01*
X174800Y42777D01*
Y42312D01*
D02*
G37*
G36*
Y40517D02*
X174384Y40240D01*
X174382Y40237D01*
X174373Y40234D01*
X174362Y40226D01*
X174348Y40215D01*
X174332Y40204D01*
X174310Y40190D01*
X174265Y40159D01*
X174215Y40123D01*
X174171Y40090D01*
X174130Y40060D01*
X174116Y40046D01*
X174102Y40035D01*
X174099Y40032D01*
X174094Y40026D01*
X174083Y40015D01*
X174069Y40001D01*
X174058Y39982D01*
X174044Y39963D01*
X174033Y39941D01*
X174022Y39918D01*
Y39916D01*
X174019Y39907D01*
X174013Y39893D01*
X174011Y39871D01*
X174005Y39844D01*
X174002Y39810D01*
X174000Y39772D01*
Y39724D01*
Y39647D01*
X174800D01*
Y39259D01*
X172883D01*
Y40073D01*
Y40076D01*
Y40087D01*
Y40104D01*
Y40123D01*
X172886Y40148D01*
Y40179D01*
X172889Y40209D01*
Y40245D01*
X172897Y40317D01*
X172905Y40392D01*
X172919Y40461D01*
X172927Y40492D01*
X172936Y40519D01*
Y40522D01*
X172939Y40525D01*
X172947Y40542D01*
X172961Y40567D01*
X172977Y40600D01*
X173005Y40636D01*
X173036Y40672D01*
X173074Y40708D01*
X173121Y40741D01*
X173124D01*
X173127Y40744D01*
X173135Y40749D01*
X173143Y40755D01*
X173171Y40769D01*
X173207Y40785D01*
X173252Y40799D01*
X173301Y40813D01*
X173360Y40824D01*
X173421Y40827D01*
X173443D01*
X173457Y40824D01*
X173476D01*
X173495Y40821D01*
X173545Y40810D01*
X173603Y40796D01*
X173661Y40774D01*
X173723Y40741D01*
X173750Y40722D01*
X173778Y40699D01*
X173781Y40697D01*
X173783Y40694D01*
X173792Y40686D01*
X173800Y40675D01*
X173811Y40663D01*
X173825Y40647D01*
X173839Y40628D01*
X173853Y40605D01*
X173869Y40580D01*
X173883Y40550D01*
X173897Y40519D01*
X173911Y40486D01*
X173925Y40447D01*
X173936Y40409D01*
X173947Y40367D01*
X173955Y40320D01*
Y40323D01*
X173958Y40325D01*
X173969Y40342D01*
X173983Y40364D01*
X174002Y40392D01*
X174027Y40425D01*
X174052Y40459D01*
X174083Y40494D01*
X174116Y40525D01*
X174119Y40528D01*
X174132Y40542D01*
X174155Y40558D01*
X174188Y40583D01*
X174229Y40616D01*
X174257Y40633D01*
X174285Y40652D01*
X174315Y40675D01*
X174348Y40697D01*
X174387Y40722D01*
X174426Y40747D01*
X174800Y40982D01*
Y40517D01*
D02*
G37*
G36*
X183559Y135397D02*
X184218Y134400D01*
X183753D01*
X183329Y135048D01*
X182902Y134400D01*
X182437D01*
X183099Y135397D01*
X182498Y136317D01*
X182949D01*
X183329Y135743D01*
X183708Y136317D01*
X184160D01*
X183559Y135397D01*
D02*
G37*
G36*
X221258Y151871D02*
X219729D01*
Y152109D01*
X221258D01*
Y151871D01*
D02*
G37*
G36*
X216489Y42314D02*
X216520D01*
X216550Y42311D01*
X216586D01*
X216658Y42303D01*
X216733Y42295D01*
X216802Y42281D01*
X216833Y42272D01*
X216860Y42264D01*
X216863D01*
X216866Y42261D01*
X216882Y42253D01*
X216907Y42239D01*
X216941Y42223D01*
X216977Y42195D01*
X217013Y42164D01*
X217049Y42126D01*
X217082Y42079D01*
Y42076D01*
X217085Y42073D01*
X217090Y42065D01*
X217096Y42057D01*
X217110Y42029D01*
X217126Y41993D01*
X217140Y41948D01*
X217154Y41899D01*
X217165Y41840D01*
X217168Y41780D01*
Y41777D01*
Y41771D01*
Y41757D01*
X217165Y41743D01*
Y41724D01*
X217162Y41705D01*
X217151Y41655D01*
X217137Y41597D01*
X217115Y41539D01*
X217082Y41478D01*
X217063Y41450D01*
X217040Y41422D01*
X217038Y41419D01*
X217035Y41417D01*
X217026Y41408D01*
X217016Y41400D01*
X217004Y41389D01*
X216988Y41375D01*
X216968Y41361D01*
X216946Y41347D01*
X216921Y41331D01*
X216891Y41317D01*
X216860Y41303D01*
X216827Y41289D01*
X216788Y41275D01*
X216750Y41264D01*
X216708Y41253D01*
X216661Y41245D01*
X216664D01*
X216666Y41242D01*
X216683Y41231D01*
X216705Y41217D01*
X216733Y41198D01*
X216766Y41173D01*
X216799Y41148D01*
X216835Y41117D01*
X216866Y41084D01*
X216869Y41081D01*
X216882Y41068D01*
X216899Y41045D01*
X216924Y41012D01*
X216957Y40971D01*
X216974Y40943D01*
X216993Y40915D01*
X217016Y40885D01*
X217038Y40852D01*
X217063Y40813D01*
X217088Y40774D01*
X217323Y40400D01*
X216858D01*
X216581Y40815D01*
X216578Y40818D01*
X216575Y40827D01*
X216567Y40838D01*
X216556Y40852D01*
X216545Y40868D01*
X216531Y40890D01*
X216500Y40935D01*
X216464Y40984D01*
X216431Y41029D01*
X216401Y41070D01*
X216387Y41084D01*
X216376Y41098D01*
X216373Y41101D01*
X216367Y41106D01*
X216356Y41117D01*
X216342Y41131D01*
X216323Y41142D01*
X216304Y41156D01*
X216281Y41167D01*
X216259Y41178D01*
X216256D01*
X216248Y41181D01*
X216234Y41187D01*
X216212Y41189D01*
X216184Y41195D01*
X216151Y41198D01*
X216112Y41201D01*
X215988D01*
Y40400D01*
X215600D01*
Y42317D01*
X216464D01*
X216489Y42314D01*
D02*
G37*
G36*
X182059Y63697D02*
X182718Y62700D01*
X182253D01*
X181829Y63348D01*
X181402Y62700D01*
X180937D01*
X181599Y63697D01*
X180998Y64617D01*
X181449D01*
X181829Y64043D01*
X182208Y64617D01*
X182660D01*
X182059Y63697D01*
D02*
G37*
G36*
X233398Y41197D02*
X234057Y40200D01*
X233592D01*
X233168Y40848D01*
X232741Y40200D01*
X232276D01*
X232938Y41197D01*
X232337Y42117D01*
X232789D01*
X233168Y41543D01*
X233548Y42117D01*
X233999D01*
X233398Y41197D01*
D02*
G37*
G36*
X232221Y41793D02*
X231656D01*
Y40200D01*
X231268D01*
Y41793D01*
X230700D01*
Y42117D01*
X232221D01*
Y41793D01*
D02*
G37*
G36*
X218459Y41397D02*
X219118Y40400D01*
X218653D01*
X218229Y41048D01*
X217802Y40400D01*
X217337D01*
X217999Y41397D01*
X217398Y42317D01*
X217849D01*
X218229Y41743D01*
X218608Y42317D01*
X219060D01*
X218459Y41397D01*
D02*
G37*
G36*
X175721Y64393D02*
X175156D01*
Y62800D01*
X174768D01*
Y64393D01*
X174200D01*
Y64717D01*
X175721D01*
Y64393D01*
D02*
G37*
G36*
X169898Y137497D02*
X170557Y136500D01*
X170092D01*
X169668Y137148D01*
X169241Y136500D01*
X168776D01*
X169438Y137497D01*
X168837Y138417D01*
X169289D01*
X169668Y137844D01*
X170048Y138417D01*
X170499D01*
X169898Y137497D01*
D02*
G37*
G36*
X168721Y138093D02*
X168156D01*
Y136500D01*
X167768D01*
Y138093D01*
X167200D01*
Y138417D01*
X168721D01*
Y138093D01*
D02*
G37*
G36*
X226474Y151871D02*
X224944D01*
Y152109D01*
X226474D01*
Y151871D01*
D02*
G37*
G36*
X180089Y64614D02*
X180120D01*
X180150Y64611D01*
X180186D01*
X180258Y64603D01*
X180333Y64595D01*
X180402Y64581D01*
X180433Y64573D01*
X180460Y64564D01*
X180463D01*
X180466Y64561D01*
X180482Y64553D01*
X180507Y64539D01*
X180541Y64523D01*
X180577Y64495D01*
X180613Y64464D01*
X180649Y64426D01*
X180682Y64379D01*
Y64376D01*
X180685Y64373D01*
X180690Y64365D01*
X180696Y64356D01*
X180710Y64329D01*
X180726Y64293D01*
X180740Y64248D01*
X180754Y64199D01*
X180765Y64140D01*
X180768Y64079D01*
Y64077D01*
Y64071D01*
Y64057D01*
X180765Y64043D01*
Y64024D01*
X180762Y64005D01*
X180751Y63955D01*
X180737Y63897D01*
X180715Y63838D01*
X180682Y63778D01*
X180663Y63750D01*
X180640Y63722D01*
X180638Y63719D01*
X180635Y63717D01*
X180626Y63708D01*
X180615Y63700D01*
X180604Y63689D01*
X180588Y63675D01*
X180568Y63661D01*
X180546Y63647D01*
X180521Y63631D01*
X180491Y63617D01*
X180460Y63603D01*
X180427Y63589D01*
X180388Y63575D01*
X180350Y63564D01*
X180308Y63553D01*
X180261Y63545D01*
X180264D01*
X180266Y63542D01*
X180283Y63531D01*
X180305Y63517D01*
X180333Y63498D01*
X180366Y63473D01*
X180399Y63448D01*
X180435Y63417D01*
X180466Y63384D01*
X180469Y63381D01*
X180482Y63368D01*
X180499Y63345D01*
X180524Y63312D01*
X180557Y63271D01*
X180574Y63243D01*
X180593Y63215D01*
X180615Y63185D01*
X180638Y63152D01*
X180663Y63113D01*
X180687Y63074D01*
X180923Y62700D01*
X180458D01*
X180181Y63116D01*
X180178Y63118D01*
X180175Y63127D01*
X180167Y63138D01*
X180156Y63152D01*
X180145Y63168D01*
X180131Y63190D01*
X180100Y63235D01*
X180064Y63284D01*
X180031Y63329D01*
X180000Y63370D01*
X179987Y63384D01*
X179976Y63398D01*
X179973Y63401D01*
X179967Y63406D01*
X179956Y63417D01*
X179942Y63431D01*
X179923Y63442D01*
X179904Y63456D01*
X179881Y63467D01*
X179859Y63478D01*
X179857D01*
X179848Y63481D01*
X179834Y63487D01*
X179812Y63489D01*
X179785Y63495D01*
X179751Y63498D01*
X179712Y63500D01*
X179588D01*
Y62700D01*
X179200D01*
Y64617D01*
X180064D01*
X180089Y64614D01*
D02*
G37*
G36*
X176898Y63797D02*
X177557Y62800D01*
X177092D01*
X176668Y63448D01*
X176242Y62800D01*
X175776D01*
X176438Y63797D01*
X175837Y64717D01*
X176289D01*
X176668Y64143D01*
X177048Y64717D01*
X177499D01*
X176898Y63797D01*
D02*
G37*
G36*
X175329Y20429D02*
X175091D01*
Y21958D01*
X175329D01*
Y20429D01*
D02*
G37*
G36*
X224900Y35472D02*
X224484Y35195D01*
X224482Y35192D01*
X224473Y35189D01*
X224462Y35181D01*
X224448Y35170D01*
X224432Y35159D01*
X224410Y35145D01*
X224365Y35114D01*
X224316Y35078D01*
X224271Y35045D01*
X224230Y35015D01*
X224216Y35001D01*
X224202Y34990D01*
X224199Y34987D01*
X224194Y34981D01*
X224183Y34970D01*
X224169Y34956D01*
X224158Y34937D01*
X224144Y34918D01*
X224133Y34895D01*
X224122Y34873D01*
Y34870D01*
X224119Y34862D01*
X224113Y34848D01*
X224111Y34826D01*
X224105Y34798D01*
X224102Y34765D01*
X224099Y34726D01*
Y34679D01*
Y34602D01*
X224900D01*
Y34214D01*
X222983D01*
Y35028D01*
Y35031D01*
Y35042D01*
Y35059D01*
Y35078D01*
X222986Y35103D01*
Y35134D01*
X222989Y35164D01*
Y35200D01*
X222997Y35272D01*
X223005Y35347D01*
X223019Y35416D01*
X223027Y35447D01*
X223036Y35474D01*
Y35477D01*
X223039Y35480D01*
X223047Y35497D01*
X223061Y35521D01*
X223077Y35555D01*
X223105Y35591D01*
X223135Y35627D01*
X223174Y35663D01*
X223221Y35696D01*
X223224D01*
X223227Y35699D01*
X223235Y35704D01*
X223243Y35710D01*
X223271Y35724D01*
X223307Y35740D01*
X223352Y35754D01*
X223401Y35768D01*
X223460Y35779D01*
X223520Y35782D01*
X223543D01*
X223557Y35779D01*
X223576D01*
X223595Y35776D01*
X223645Y35765D01*
X223703Y35751D01*
X223762Y35729D01*
X223822Y35696D01*
X223850Y35677D01*
X223878Y35654D01*
X223881Y35652D01*
X223883Y35649D01*
X223892Y35640D01*
X223900Y35629D01*
X223911Y35618D01*
X223925Y35602D01*
X223939Y35582D01*
X223953Y35560D01*
X223969Y35535D01*
X223983Y35505D01*
X223997Y35474D01*
X224011Y35441D01*
X224025Y35402D01*
X224036Y35364D01*
X224047Y35322D01*
X224055Y35275D01*
Y35278D01*
X224058Y35280D01*
X224069Y35297D01*
X224083Y35319D01*
X224102Y35347D01*
X224127Y35380D01*
X224152Y35413D01*
X224183Y35449D01*
X224216Y35480D01*
X224219Y35483D01*
X224232Y35497D01*
X224255Y35513D01*
X224288Y35538D01*
X224329Y35571D01*
X224357Y35588D01*
X224385Y35607D01*
X224415Y35629D01*
X224448Y35652D01*
X224487Y35677D01*
X224526Y35702D01*
X224900Y35937D01*
Y35472D01*
D02*
G37*
G36*
X232249Y152400D02*
X231831D01*
X231665Y152835D01*
X230894D01*
X230737Y152400D01*
X230327D01*
X231069Y154317D01*
X231479D01*
X232249Y152400D01*
D02*
G37*
G36*
X223294D02*
X222925D01*
Y152768D01*
X223294D01*
Y152400D01*
D02*
G37*
G36*
X173922Y23742D02*
X173944D01*
X173972Y23739D01*
X174002Y23736D01*
X174066Y23731D01*
X174132Y23719D01*
X174202Y23703D01*
X174268Y23683D01*
X174271D01*
X174276Y23681D01*
X174288Y23675D01*
X174304Y23670D01*
X174321Y23664D01*
X174340Y23653D01*
X174390Y23631D01*
X174443Y23603D01*
X174501Y23567D01*
X174556Y23526D01*
X174609Y23478D01*
X174614Y23473D01*
X174626Y23459D01*
X174642Y23437D01*
X174664Y23406D01*
X174689Y23368D01*
X174714Y23323D01*
X174739Y23268D01*
X174761Y23207D01*
Y23204D01*
X174764Y23201D01*
Y23193D01*
X174767Y23185D01*
X174772Y23154D01*
X174781Y23115D01*
X174789Y23068D01*
X174794Y23010D01*
X174797Y22941D01*
X174800Y22866D01*
Y22140D01*
X172883D01*
Y22844D01*
Y22847D01*
Y22855D01*
Y22866D01*
Y22883D01*
Y22905D01*
X172886Y22927D01*
X172889Y22980D01*
X172891Y23038D01*
X172900Y23099D01*
X172908Y23157D01*
X172922Y23210D01*
Y23212D01*
X172925Y23218D01*
X172927Y23226D01*
X172930Y23237D01*
X172944Y23271D01*
X172964Y23309D01*
X172988Y23354D01*
X173019Y23404D01*
X173055Y23451D01*
X173099Y23498D01*
Y23501D01*
X173105Y23503D01*
X173121Y23517D01*
X173149Y23539D01*
X173185Y23564D01*
X173229Y23595D01*
X173282Y23625D01*
X173343Y23656D01*
X173409Y23681D01*
X173412D01*
X173418Y23683D01*
X173429Y23686D01*
X173443Y23692D01*
X173459Y23695D01*
X173482Y23700D01*
X173506Y23706D01*
X173534Y23714D01*
X173565Y23719D01*
X173601Y23725D01*
X173637Y23731D01*
X173678Y23733D01*
X173764Y23742D01*
X173861Y23744D01*
X173900D01*
X173922Y23742D01*
D02*
G37*
G36*
X224271Y154325D02*
X224296Y154322D01*
X224324Y154320D01*
X224355Y154314D01*
X224388Y154308D01*
X224460Y154289D01*
X224532Y154261D01*
X224571Y154245D01*
X224604Y154225D01*
X224640Y154200D01*
X224670Y154173D01*
X224673Y154170D01*
X224679Y154167D01*
X224684Y154156D01*
X224695Y154145D01*
X224709Y154131D01*
X224723Y154112D01*
X224737Y154093D01*
X224753Y154068D01*
X224781Y154012D01*
X224809Y153948D01*
X224820Y153912D01*
X224825Y153874D01*
X224831Y153832D01*
X224834Y153790D01*
Y153785D01*
Y153768D01*
X224831Y153744D01*
X224828Y153713D01*
X224823Y153674D01*
X224814Y153633D01*
X224803Y153588D01*
X224787Y153544D01*
X224784Y153539D01*
X224778Y153525D01*
X224767Y153500D01*
X224751Y153469D01*
X224731Y153433D01*
X224706Y153392D01*
X224676Y153347D01*
X224640Y153300D01*
X224637Y153297D01*
X224626Y153284D01*
X224609Y153264D01*
X224585Y153236D01*
X224551Y153203D01*
X224510Y153159D01*
X224460Y153112D01*
X224399Y153054D01*
X224396Y153051D01*
X224391Y153048D01*
X224382Y153040D01*
X224371Y153029D01*
X224341Y153001D01*
X224305Y152968D01*
X224269Y152932D01*
X224233Y152896D01*
X224199Y152865D01*
X224188Y152851D01*
X224177Y152840D01*
X224174Y152838D01*
X224169Y152832D01*
X224161Y152821D01*
X224150Y152807D01*
X224125Y152777D01*
X224102Y152741D01*
X224834D01*
Y152400D01*
X223546D01*
Y152403D01*
Y152408D01*
X223549Y152419D01*
X223551Y152433D01*
X223554Y152450D01*
X223557Y152469D01*
X223568Y152519D01*
X223585Y152575D01*
X223607Y152635D01*
X223634Y152702D01*
X223670Y152766D01*
Y152768D01*
X223676Y152774D01*
X223681Y152785D01*
X223692Y152796D01*
X223704Y152815D01*
X223720Y152835D01*
X223740Y152860D01*
X223762Y152887D01*
X223787Y152921D01*
X223817Y152954D01*
X223850Y152993D01*
X223889Y153034D01*
X223931Y153076D01*
X223978Y153123D01*
X224028Y153173D01*
X224083Y153226D01*
X224086Y153228D01*
X224094Y153236D01*
X224105Y153248D01*
X224122Y153264D01*
X224144Y153281D01*
X224166Y153303D01*
X224216Y153353D01*
X224266Y153405D01*
X224316Y153458D01*
X224338Y153480D01*
X224360Y153505D01*
X224377Y153525D01*
X224388Y153541D01*
X224391Y153547D01*
X224399Y153561D01*
X224413Y153583D01*
X224427Y153613D01*
X224440Y153647D01*
X224454Y153685D01*
X224463Y153724D01*
X224465Y153766D01*
Y153768D01*
Y153771D01*
Y153785D01*
X224463Y153810D01*
X224457Y153838D01*
X224449Y153868D01*
X224438Y153899D01*
X224421Y153929D01*
X224399Y153957D01*
X224396Y153960D01*
X224388Y153968D01*
X224371Y153979D01*
X224352Y153990D01*
X224324Y154001D01*
X224294Y154012D01*
X224258Y154021D01*
X224216Y154023D01*
X224197D01*
X224174Y154021D01*
X224150Y154015D01*
X224119Y154007D01*
X224089Y153993D01*
X224058Y153976D01*
X224030Y153954D01*
X224028Y153951D01*
X224019Y153940D01*
X224008Y153923D01*
X223997Y153899D01*
X223983Y153868D01*
X223972Y153826D01*
X223961Y153779D01*
X223956Y153724D01*
X223590Y153760D01*
Y153763D01*
X223593Y153774D01*
Y153788D01*
X223598Y153810D01*
X223601Y153835D01*
X223609Y153863D01*
X223618Y153893D01*
X223626Y153929D01*
X223654Y153998D01*
X223687Y154070D01*
X223709Y154106D01*
X223734Y154140D01*
X223762Y154167D01*
X223792Y154195D01*
X223795Y154198D01*
X223800Y154200D01*
X223809Y154206D01*
X223823Y154217D01*
X223839Y154225D01*
X223862Y154236D01*
X223884Y154250D01*
X223911Y154261D01*
X223942Y154275D01*
X223975Y154286D01*
X224047Y154308D01*
X224133Y154322D01*
X224177Y154325D01*
X224224Y154328D01*
X224252D01*
X224271Y154325D01*
D02*
G37*
G36*
X173922Y18384D02*
X173944D01*
X173972Y18382D01*
X174002Y18379D01*
X174066Y18373D01*
X174132Y18362D01*
X174202Y18346D01*
X174268Y18326D01*
X174271D01*
X174276Y18323D01*
X174288Y18318D01*
X174304Y18312D01*
X174321Y18307D01*
X174340Y18296D01*
X174390Y18274D01*
X174443Y18246D01*
X174501Y18210D01*
X174556Y18168D01*
X174609Y18121D01*
X174614Y18116D01*
X174626Y18102D01*
X174642Y18080D01*
X174664Y18049D01*
X174689Y18010D01*
X174714Y17966D01*
X174739Y17911D01*
X174761Y17850D01*
Y17847D01*
X174764Y17844D01*
Y17836D01*
X174767Y17828D01*
X174772Y17797D01*
X174781Y17758D01*
X174789Y17711D01*
X174794Y17653D01*
X174797Y17584D01*
X174800Y17509D01*
Y16783D01*
X172883D01*
Y17487D01*
Y17490D01*
Y17498D01*
Y17509D01*
Y17526D01*
Y17548D01*
X172886Y17570D01*
X172889Y17623D01*
X172891Y17681D01*
X172900Y17742D01*
X172908Y17800D01*
X172922Y17853D01*
Y17855D01*
X172925Y17861D01*
X172927Y17869D01*
X172930Y17880D01*
X172944Y17913D01*
X172964Y17952D01*
X172988Y17997D01*
X173019Y18046D01*
X173055Y18093D01*
X173099Y18141D01*
Y18143D01*
X173105Y18146D01*
X173121Y18160D01*
X173149Y18182D01*
X173185Y18207D01*
X173229Y18238D01*
X173282Y18268D01*
X173343Y18298D01*
X173409Y18323D01*
X173412D01*
X173418Y18326D01*
X173429Y18329D01*
X173443Y18335D01*
X173459Y18337D01*
X173482Y18343D01*
X173506Y18348D01*
X173534Y18357D01*
X173565Y18362D01*
X173601Y18368D01*
X173637Y18373D01*
X173678Y18376D01*
X173764Y18384D01*
X173861Y18387D01*
X173900D01*
X173922Y18384D01*
D02*
G37*
G36*
X174800Y15905D02*
Y15487D01*
X172883Y14800D01*
Y15218D01*
X174301Y15706D01*
X172883Y16174D01*
Y16587D01*
X174800Y15905D01*
D02*
G37*
G36*
X228382Y152400D02*
X227964D01*
X227798Y152835D01*
X227028D01*
X226870Y152400D01*
X226460D01*
X227202Y154317D01*
X227612D01*
X228382Y152400D01*
D02*
G37*
G36*
X173922Y20318D02*
X173944D01*
X173972Y20315D01*
X174002Y20312D01*
X174066Y20307D01*
X174132Y20296D01*
X174202Y20279D01*
X174268Y20260D01*
X174271D01*
X174276Y20257D01*
X174288Y20251D01*
X174304Y20246D01*
X174321Y20240D01*
X174340Y20229D01*
X174390Y20207D01*
X174443Y20179D01*
X174501Y20143D01*
X174556Y20102D01*
X174609Y20055D01*
X174614Y20049D01*
X174626Y20035D01*
X174642Y20013D01*
X174664Y19983D01*
X174689Y19944D01*
X174714Y19900D01*
X174739Y19844D01*
X174761Y19783D01*
Y19781D01*
X174764Y19778D01*
Y19769D01*
X174767Y19761D01*
X174772Y19731D01*
X174781Y19692D01*
X174789Y19645D01*
X174794Y19587D01*
X174797Y19517D01*
X174800Y19443D01*
Y18717D01*
X172883D01*
Y19420D01*
Y19423D01*
Y19431D01*
Y19443D01*
Y19459D01*
Y19481D01*
X172886Y19503D01*
X172889Y19556D01*
X172891Y19614D01*
X172900Y19675D01*
X172908Y19733D01*
X172922Y19786D01*
Y19789D01*
X172925Y19794D01*
X172927Y19803D01*
X172930Y19814D01*
X172944Y19847D01*
X172964Y19886D01*
X172988Y19930D01*
X173019Y19980D01*
X173055Y20027D01*
X173099Y20074D01*
Y20077D01*
X173105Y20080D01*
X173121Y20094D01*
X173149Y20116D01*
X173185Y20141D01*
X173229Y20171D01*
X173282Y20201D01*
X173343Y20232D01*
X173409Y20257D01*
X173412D01*
X173418Y20260D01*
X173429Y20262D01*
X173443Y20268D01*
X173459Y20271D01*
X173482Y20276D01*
X173506Y20282D01*
X173534Y20290D01*
X173565Y20296D01*
X173601Y20301D01*
X173637Y20307D01*
X173678Y20310D01*
X173764Y20318D01*
X173861Y20321D01*
X173900D01*
X173922Y20318D01*
D02*
G37*
G36*
X224900Y37266D02*
X224252Y36843D01*
X224900Y36416D01*
Y35951D01*
X223903Y36613D01*
X222983Y36012D01*
Y36463D01*
X223557Y36843D01*
X222983Y37222D01*
Y37674D01*
X223903Y37073D01*
X224900Y37732D01*
Y37266D01*
D02*
G37*
G36*
X222296Y152400D02*
X221928D01*
Y153788D01*
X221925Y153785D01*
X221920Y153779D01*
X221909Y153771D01*
X221892Y153757D01*
X221873Y153741D01*
X221850Y153724D01*
X221823Y153705D01*
X221792Y153682D01*
X221759Y153660D01*
X221723Y153638D01*
X221684Y153613D01*
X221643Y153591D01*
X221554Y153550D01*
X221454Y153511D01*
Y153843D01*
X221457D01*
X221460Y153846D01*
X221468Y153849D01*
X221479Y153851D01*
X221507Y153865D01*
X221546Y153882D01*
X221593Y153904D01*
X221645Y153935D01*
X221704Y153973D01*
X221765Y154018D01*
X221767Y154021D01*
X221773Y154023D01*
X221781Y154032D01*
X221792Y154043D01*
X221823Y154070D01*
X221856Y154106D01*
X221895Y154151D01*
X221934Y154206D01*
X221970Y154264D01*
X221997Y154328D01*
X222296D01*
Y152400D01*
D02*
G37*
G36*
X174800Y30592D02*
X174365Y30426D01*
Y29656D01*
X174800Y29498D01*
Y29088D01*
X172883Y29830D01*
Y30240D01*
X174800Y31010D01*
Y30592D01*
D02*
G37*
G36*
Y31226D02*
X172897D01*
Y31614D01*
X174476D01*
Y32578D01*
X174800D01*
Y31226D01*
D02*
G37*
G36*
X173207Y35165D02*
X174800D01*
Y34777D01*
X173207D01*
Y34209D01*
X172883D01*
Y35730D01*
X173207D01*
Y35165D01*
D02*
G37*
G36*
X175329Y32633D02*
X175091D01*
Y34162D01*
X175329D01*
Y32633D01*
D02*
G37*
G36*
X173207Y28467D02*
X174800D01*
Y28079D01*
X173207D01*
Y27512D01*
X172883D01*
Y29032D01*
X173207D01*
Y28467D01*
D02*
G37*
G36*
X174548Y26537D02*
X174554Y26528D01*
X174562Y26520D01*
X174573Y26506D01*
X174584Y26492D01*
X174612Y26453D01*
X174642Y26401D01*
X174678Y26340D01*
X174714Y26271D01*
X174747Y26188D01*
Y26185D01*
X174750Y26176D01*
X174756Y26165D01*
X174761Y26149D01*
X174767Y26127D01*
X174775Y26102D01*
X174783Y26074D01*
X174792Y26043D01*
X174808Y25974D01*
X174822Y25894D01*
X174833Y25811D01*
X174836Y25722D01*
Y25719D01*
Y25708D01*
Y25692D01*
X174833Y25672D01*
Y25644D01*
X174830Y25614D01*
X174825Y25581D01*
X174819Y25542D01*
X174805Y25462D01*
X174783Y25373D01*
X174753Y25282D01*
X174733Y25240D01*
X174711Y25196D01*
X174709Y25193D01*
X174706Y25188D01*
X174697Y25174D01*
X174686Y25160D01*
X174675Y25140D01*
X174659Y25121D01*
X174639Y25096D01*
X174617Y25071D01*
X174567Y25016D01*
X174504Y24960D01*
X174432Y24908D01*
X174348Y24861D01*
X174346D01*
X174337Y24855D01*
X174324Y24850D01*
X174307Y24844D01*
X174285Y24836D01*
X174260Y24825D01*
X174229Y24816D01*
X174196Y24805D01*
X174160Y24794D01*
X174119Y24786D01*
X174033Y24767D01*
X173939Y24755D01*
X173836Y24750D01*
X173806D01*
X173786Y24753D01*
X173758D01*
X173728Y24755D01*
X173695Y24761D01*
X173656Y24767D01*
X173576Y24780D01*
X173484Y24803D01*
X173393Y24833D01*
X173348Y24852D01*
X173304Y24874D01*
X173301Y24877D01*
X173293Y24880D01*
X173282Y24888D01*
X173265Y24897D01*
X173246Y24911D01*
X173224Y24927D01*
X173199Y24947D01*
X173171Y24966D01*
X173143Y24991D01*
X173113Y25019D01*
X173083Y25049D01*
X173052Y25082D01*
X173024Y25118D01*
X172994Y25154D01*
X172944Y25240D01*
Y25243D01*
X172939Y25248D01*
X172936Y25260D01*
X172927Y25273D01*
X172922Y25293D01*
X172914Y25312D01*
X172905Y25340D01*
X172894Y25368D01*
X172886Y25398D01*
X172878Y25434D01*
X172869Y25473D01*
X172861Y25512D01*
X172850Y25600D01*
X172847Y25700D01*
Y25703D01*
Y25717D01*
Y25733D01*
X172850Y25758D01*
X172853Y25789D01*
X172855Y25825D01*
X172858Y25863D01*
X172866Y25905D01*
X172883Y25994D01*
X172911Y26085D01*
X172927Y26132D01*
X172947Y26176D01*
X172969Y26218D01*
X172997Y26257D01*
X173000Y26259D01*
X173002Y26265D01*
X173013Y26276D01*
X173024Y26290D01*
X173038Y26307D01*
X173058Y26323D01*
X173080Y26343D01*
X173105Y26365D01*
X173133Y26387D01*
X173163Y26409D01*
X173196Y26431D01*
X173235Y26451D01*
X173274Y26473D01*
X173315Y26489D01*
X173362Y26506D01*
X173409Y26517D01*
X173482Y26132D01*
X173479D01*
X173476Y26129D01*
X173459Y26124D01*
X173434Y26113D01*
X173401Y26096D01*
X173365Y26077D01*
X173329Y26049D01*
X173293Y26016D01*
X173260Y25977D01*
X173257Y25971D01*
X173246Y25958D01*
X173232Y25933D01*
X173218Y25902D01*
X173202Y25861D01*
X173191Y25813D01*
X173179Y25761D01*
X173177Y25700D01*
Y25697D01*
Y25689D01*
Y25675D01*
X173179Y25658D01*
X173182Y25636D01*
X173185Y25611D01*
X173191Y25584D01*
X173196Y25553D01*
X173216Y25489D01*
X173229Y25456D01*
X173246Y25423D01*
X173265Y25390D01*
X173285Y25357D01*
X173312Y25326D01*
X173340Y25295D01*
X173343Y25293D01*
X173348Y25290D01*
X173357Y25282D01*
X173371Y25273D01*
X173387Y25262D01*
X173407Y25248D01*
X173432Y25235D01*
X173459Y25223D01*
X173493Y25210D01*
X173529Y25196D01*
X173567Y25182D01*
X173609Y25171D01*
X173656Y25163D01*
X173709Y25154D01*
X173761Y25152D01*
X173819Y25149D01*
X173853D01*
X173875Y25152D01*
X173905Y25154D01*
X173936Y25157D01*
X173975Y25163D01*
X174013Y25168D01*
X174096Y25185D01*
X174182Y25212D01*
X174224Y25229D01*
X174263Y25248D01*
X174301Y25273D01*
X174335Y25298D01*
X174337Y25301D01*
X174343Y25307D01*
X174351Y25315D01*
X174362Y25326D01*
X174373Y25343D01*
X174390Y25359D01*
X174404Y25381D01*
X174420Y25406D01*
X174437Y25434D01*
X174451Y25462D01*
X174479Y25531D01*
X174490Y25570D01*
X174498Y25609D01*
X174504Y25653D01*
X174506Y25697D01*
Y25700D01*
Y25703D01*
Y25719D01*
X174504Y25741D01*
X174501Y25775D01*
X174495Y25811D01*
X174487Y25852D01*
X174476Y25897D01*
X174459Y25941D01*
Y25944D01*
X174457Y25947D01*
X174451Y25960D01*
X174440Y25985D01*
X174426Y26013D01*
X174409Y26046D01*
X174390Y26082D01*
X174368Y26118D01*
X174343Y26151D01*
X174096D01*
Y25708D01*
X173772D01*
Y26542D01*
X174542D01*
X174548Y26537D01*
D02*
G37*
G36*
X174800Y24060D02*
X172883D01*
Y24448D01*
X174800D01*
Y24060D01*
D02*
G37*
G36*
Y26888D02*
X172883D01*
Y27276D01*
X174800D01*
Y26888D01*
D02*
G37*
G36*
X224900Y32056D02*
X224252Y31632D01*
X224900Y31206D01*
Y30740D01*
X223903Y31402D01*
X222983Y30801D01*
Y31253D01*
X223557Y31632D01*
X222983Y32012D01*
Y32463D01*
X223903Y31862D01*
X224900Y32522D01*
Y32056D01*
D02*
G37*
G36*
X225429Y32502D02*
X225191D01*
Y34031D01*
X225429D01*
Y32502D01*
D02*
G37*
%LPC*%
G36*
X231271Y153871D02*
X231011Y153159D01*
X231540D01*
X231271Y153871D01*
D02*
G37*
G36*
X227404D02*
X227144Y153159D01*
X227673D01*
X227404Y153871D01*
D02*
G37*
G36*
X218657Y153993D02*
X218405D01*
Y152724D01*
X218745D01*
X218781Y152727D01*
X218820D01*
X218859Y152732D01*
X218895Y152735D01*
X218925Y152741D01*
X218931D01*
X218942Y152746D01*
X218959Y152752D01*
X218981Y152760D01*
X219006Y152771D01*
X219031Y152785D01*
X219056Y152802D01*
X219080Y152821D01*
X219083Y152824D01*
X219092Y152832D01*
X219103Y152846D01*
X219116Y152865D01*
X219130Y152890D01*
X219150Y152921D01*
X219164Y152960D01*
X219180Y153004D01*
Y153007D01*
X219183Y153009D01*
Y153018D01*
X219186Y153029D01*
X219191Y153040D01*
X219194Y153057D01*
X219202Y153098D01*
X219208Y153148D01*
X219216Y153206D01*
X219219Y153278D01*
X219222Y153356D01*
Y153358D01*
Y153367D01*
Y153378D01*
Y153392D01*
Y153411D01*
X219219Y153433D01*
X219216Y153480D01*
X219211Y153536D01*
X219205Y153594D01*
X219194Y153647D01*
X219180Y153696D01*
Y153699D01*
X219177Y153702D01*
X219172Y153716D01*
X219164Y153738D01*
X219152Y153766D01*
X219136Y153793D01*
X219116Y153824D01*
X219094Y153854D01*
X219069Y153882D01*
X219067Y153885D01*
X219058Y153893D01*
X219042Y153904D01*
X219022Y153918D01*
X218995Y153935D01*
X218964Y153948D01*
X218931Y153962D01*
X218892Y153973D01*
X218889D01*
X218876Y153976D01*
X218853Y153979D01*
X218823Y153984D01*
X218804D01*
X218778Y153987D01*
X218754D01*
X218726Y153990D01*
X218693D01*
X218657Y153993D01*
D02*
G37*
G36*
X234944Y154023D02*
X234922D01*
X234906Y154021D01*
X234883Y154018D01*
X234861Y154015D01*
X234806Y154004D01*
X234745Y153982D01*
X234712Y153971D01*
X234678Y153954D01*
X234648Y153935D01*
X234615Y153912D01*
X234584Y153887D01*
X234556Y153857D01*
X234554Y153854D01*
X234551Y153849D01*
X234543Y153840D01*
X234534Y153826D01*
X234523Y153807D01*
X234512Y153788D01*
X234498Y153763D01*
X234484Y153732D01*
X234471Y153699D01*
X234457Y153663D01*
X234446Y153622D01*
X234435Y153577D01*
X234426Y153527D01*
X234418Y153475D01*
X234415Y153419D01*
X234412Y153358D01*
Y153356D01*
Y153345D01*
Y153328D01*
X234415Y153306D01*
X234418Y153278D01*
X234421Y153245D01*
X234426Y153212D01*
X234432Y153173D01*
X234448Y153093D01*
X234476Y153012D01*
X234493Y152971D01*
X234512Y152932D01*
X234537Y152896D01*
X234562Y152863D01*
X234565Y152860D01*
X234570Y152854D01*
X234579Y152846D01*
X234590Y152838D01*
X234604Y152824D01*
X234623Y152810D01*
X234642Y152793D01*
X234667Y152779D01*
X234720Y152746D01*
X234786Y152721D01*
X234822Y152710D01*
X234861Y152702D01*
X234903Y152696D01*
X234944Y152694D01*
X234966D01*
X234983Y152696D01*
X235002Y152699D01*
X235025Y152702D01*
X235077Y152716D01*
X235138Y152735D01*
X235169Y152749D01*
X235202Y152763D01*
X235232Y152782D01*
X235266Y152804D01*
X235296Y152829D01*
X235324Y152860D01*
X235327Y152863D01*
X235329Y152868D01*
X235338Y152876D01*
X235346Y152890D01*
X235360Y152910D01*
X235371Y152932D01*
X235385Y152957D01*
X235399Y152987D01*
X235412Y153021D01*
X235426Y153057D01*
X235440Y153098D01*
X235451Y153145D01*
X235459Y153192D01*
X235468Y153245D01*
X235471Y153303D01*
X235473Y153364D01*
Y153367D01*
Y153378D01*
Y153394D01*
X235471Y153419D01*
X235468Y153447D01*
X235465Y153478D01*
X235462Y153514D01*
X235454Y153550D01*
X235437Y153630D01*
X235412Y153713D01*
X235396Y153754D01*
X235376Y153790D01*
X235351Y153826D01*
X235327Y153860D01*
X235324Y153863D01*
X235321Y153868D01*
X235313Y153874D01*
X235302Y153885D01*
X235285Y153899D01*
X235268Y153912D01*
X235249Y153926D01*
X235224Y153943D01*
X235199Y153957D01*
X235169Y153971D01*
X235105Y153998D01*
X235069Y154009D01*
X235030Y154015D01*
X234989Y154021D01*
X234944Y154023D01*
D02*
G37*
G36*
X216723Y153993D02*
X216471D01*
Y152724D01*
X216812D01*
X216848Y152727D01*
X216887D01*
X216925Y152732D01*
X216961Y152735D01*
X216992Y152741D01*
X216997D01*
X217008Y152746D01*
X217025Y152752D01*
X217047Y152760D01*
X217072Y152771D01*
X217097Y152785D01*
X217122Y152802D01*
X217147Y152821D01*
X217150Y152824D01*
X217158Y152832D01*
X217169Y152846D01*
X217183Y152865D01*
X217197Y152890D01*
X217216Y152921D01*
X217230Y152960D01*
X217247Y153004D01*
Y153007D01*
X217249Y153009D01*
Y153018D01*
X217252Y153029D01*
X217258Y153040D01*
X217261Y153057D01*
X217269Y153098D01*
X217274Y153148D01*
X217283Y153206D01*
X217285Y153278D01*
X217288Y153356D01*
Y153358D01*
Y153367D01*
Y153378D01*
Y153392D01*
Y153411D01*
X217285Y153433D01*
X217283Y153480D01*
X217277Y153536D01*
X217272Y153594D01*
X217261Y153647D01*
X217247Y153696D01*
Y153699D01*
X217244Y153702D01*
X217238Y153716D01*
X217230Y153738D01*
X217219Y153766D01*
X217202Y153793D01*
X217183Y153824D01*
X217161Y153854D01*
X217136Y153882D01*
X217133Y153885D01*
X217125Y153893D01*
X217108Y153904D01*
X217089Y153918D01*
X217061Y153935D01*
X217031Y153948D01*
X216997Y153962D01*
X216959Y153973D01*
X216956D01*
X216942Y153976D01*
X216920Y153979D01*
X216889Y153984D01*
X216870D01*
X216845Y153987D01*
X216820D01*
X216792Y153990D01*
X216759D01*
X216723Y153993D01*
D02*
G37*
G36*
X173844Y19922D02*
X173789D01*
X173767Y19919D01*
X173720Y19916D01*
X173664Y19911D01*
X173606Y19905D01*
X173554Y19894D01*
X173504Y19880D01*
X173501D01*
X173498Y19877D01*
X173484Y19872D01*
X173462Y19864D01*
X173434Y19852D01*
X173407Y19836D01*
X173376Y19816D01*
X173346Y19794D01*
X173318Y19769D01*
X173315Y19767D01*
X173307Y19758D01*
X173296Y19742D01*
X173282Y19722D01*
X173265Y19695D01*
X173252Y19664D01*
X173238Y19631D01*
X173227Y19592D01*
Y19589D01*
X173224Y19576D01*
X173221Y19553D01*
X173216Y19523D01*
Y19503D01*
X173213Y19478D01*
Y19454D01*
X173210Y19426D01*
Y19393D01*
X173207Y19357D01*
Y19318D01*
Y19276D01*
Y19105D01*
X174476D01*
Y19390D01*
Y19393D01*
Y19398D01*
Y19407D01*
Y19418D01*
Y19445D01*
X174473Y19481D01*
Y19520D01*
X174468Y19559D01*
X174465Y19595D01*
X174459Y19625D01*
Y19631D01*
X174454Y19642D01*
X174448Y19659D01*
X174440Y19681D01*
X174429Y19706D01*
X174415Y19731D01*
X174398Y19756D01*
X174379Y19781D01*
X174376Y19783D01*
X174368Y19792D01*
X174354Y19803D01*
X174335Y19816D01*
X174310Y19830D01*
X174279Y19850D01*
X174241Y19864D01*
X174196Y19880D01*
X174193D01*
X174191Y19883D01*
X174182D01*
X174171Y19886D01*
X174160Y19891D01*
X174144Y19894D01*
X174102Y19902D01*
X174052Y19908D01*
X173994Y19916D01*
X173922Y19919D01*
X173844Y19922D01*
D02*
G37*
G36*
Y23345D02*
X173789D01*
X173767Y23343D01*
X173720Y23340D01*
X173664Y23334D01*
X173606Y23329D01*
X173554Y23318D01*
X173504Y23304D01*
X173501D01*
X173498Y23301D01*
X173484Y23296D01*
X173462Y23287D01*
X173434Y23276D01*
X173407Y23260D01*
X173376Y23240D01*
X173346Y23218D01*
X173318Y23193D01*
X173315Y23190D01*
X173307Y23182D01*
X173296Y23165D01*
X173282Y23146D01*
X173265Y23118D01*
X173252Y23088D01*
X173238Y23055D01*
X173227Y23016D01*
Y23013D01*
X173224Y22999D01*
X173221Y22977D01*
X173216Y22947D01*
Y22927D01*
X173213Y22902D01*
Y22877D01*
X173210Y22850D01*
Y22816D01*
X173207Y22780D01*
Y22742D01*
Y22700D01*
Y22528D01*
X174476D01*
Y22814D01*
Y22816D01*
Y22822D01*
Y22830D01*
Y22841D01*
Y22869D01*
X174473Y22905D01*
Y22944D01*
X174468Y22983D01*
X174465Y23019D01*
X174459Y23049D01*
Y23055D01*
X174454Y23066D01*
X174448Y23082D01*
X174440Y23104D01*
X174429Y23129D01*
X174415Y23154D01*
X174398Y23179D01*
X174379Y23204D01*
X174376Y23207D01*
X174368Y23215D01*
X174354Y23226D01*
X174335Y23240D01*
X174310Y23254D01*
X174279Y23273D01*
X174241Y23287D01*
X174196Y23304D01*
X174193D01*
X174191Y23307D01*
X174182D01*
X174171Y23309D01*
X174160Y23315D01*
X174144Y23318D01*
X174102Y23326D01*
X174052Y23332D01*
X173994Y23340D01*
X173922Y23343D01*
X173844Y23345D01*
D02*
G37*
G36*
Y17988D02*
X173789D01*
X173767Y17986D01*
X173720Y17983D01*
X173664Y17977D01*
X173606Y17972D01*
X173554Y17961D01*
X173504Y17947D01*
X173501D01*
X173498Y17944D01*
X173484Y17938D01*
X173462Y17930D01*
X173434Y17919D01*
X173407Y17902D01*
X173376Y17883D01*
X173346Y17861D01*
X173318Y17836D01*
X173315Y17833D01*
X173307Y17825D01*
X173296Y17808D01*
X173282Y17789D01*
X173265Y17761D01*
X173252Y17731D01*
X173238Y17697D01*
X173227Y17659D01*
Y17656D01*
X173224Y17642D01*
X173221Y17620D01*
X173216Y17589D01*
Y17570D01*
X173213Y17545D01*
Y17520D01*
X173210Y17492D01*
Y17459D01*
X173207Y17423D01*
Y17384D01*
Y17343D01*
Y17171D01*
X174476D01*
Y17456D01*
Y17459D01*
Y17465D01*
Y17473D01*
Y17484D01*
Y17512D01*
X174473Y17548D01*
Y17587D01*
X174468Y17625D01*
X174465Y17661D01*
X174459Y17692D01*
Y17697D01*
X174454Y17708D01*
X174448Y17725D01*
X174440Y17747D01*
X174429Y17772D01*
X174415Y17797D01*
X174398Y17822D01*
X174379Y17847D01*
X174376Y17850D01*
X174368Y17858D01*
X174354Y17869D01*
X174335Y17883D01*
X174310Y17897D01*
X174279Y17916D01*
X174241Y17930D01*
X174196Y17947D01*
X174193D01*
X174191Y17950D01*
X174182D01*
X174171Y17952D01*
X174160Y17958D01*
X174144Y17961D01*
X174102Y17969D01*
X174052Y17974D01*
X173994Y17983D01*
X173922Y17986D01*
X173844Y17988D01*
D02*
G37*
G36*
X224141Y26001D02*
X223429Y25732D01*
X224141Y25472D01*
Y26001D01*
D02*
G37*
G36*
X223548Y35383D02*
X223532D01*
X223515Y35380D01*
X223493Y35377D01*
X223468Y35369D01*
X223443Y35361D01*
X223415Y35347D01*
X223393Y35330D01*
X223390Y35328D01*
X223382Y35322D01*
X223374Y35308D01*
X223360Y35291D01*
X223346Y35272D01*
X223335Y35247D01*
X223324Y35217D01*
X223316Y35184D01*
Y35181D01*
X223313Y35172D01*
Y35156D01*
X223310Y35131D01*
Y35114D01*
Y35095D01*
Y35070D01*
X223307Y35045D01*
Y35015D01*
Y34981D01*
Y34942D01*
Y34901D01*
Y34602D01*
X223795D01*
Y34887D01*
Y34890D01*
Y34898D01*
Y34912D01*
Y34931D01*
Y34954D01*
Y34979D01*
X223792Y35034D01*
X223789Y35092D01*
X223786Y35150D01*
X223784Y35175D01*
X223781Y35197D01*
X223775Y35219D01*
X223773Y35233D01*
Y35236D01*
X223767Y35244D01*
X223762Y35258D01*
X223753Y35272D01*
X223728Y35308D01*
X223712Y35325D01*
X223692Y35341D01*
X223690Y35344D01*
X223681Y35347D01*
X223670Y35355D01*
X223654Y35364D01*
X223631Y35369D01*
X223606Y35377D01*
X223579Y35380D01*
X223548Y35383D01*
D02*
G37*
G36*
X174041Y30301D02*
X173329Y30032D01*
X174041Y29772D01*
Y30301D01*
D02*
G37*
G36*
X180031Y64293D02*
X179588D01*
Y63805D01*
X179964D01*
X180020Y63808D01*
X180078Y63811D01*
X180136Y63814D01*
X180161Y63816D01*
X180183Y63819D01*
X180206Y63825D01*
X180219Y63827D01*
X180222D01*
X180230Y63833D01*
X180244Y63838D01*
X180258Y63847D01*
X180294Y63872D01*
X180311Y63888D01*
X180327Y63908D01*
X180330Y63911D01*
X180333Y63919D01*
X180341Y63930D01*
X180350Y63946D01*
X180355Y63969D01*
X180363Y63994D01*
X180366Y64021D01*
X180369Y64052D01*
Y64057D01*
Y64068D01*
X180366Y64085D01*
X180363Y64107D01*
X180355Y64132D01*
X180347Y64157D01*
X180333Y64185D01*
X180316Y64207D01*
X180314Y64210D01*
X180308Y64218D01*
X180294Y64226D01*
X180278Y64240D01*
X180258Y64254D01*
X180233Y64265D01*
X180203Y64276D01*
X180169Y64284D01*
X180167D01*
X180158Y64287D01*
X180142D01*
X180117Y64290D01*
X180056D01*
X180031Y64293D01*
D02*
G37*
G36*
X216431Y41993D02*
X215988D01*
Y41505D01*
X216365D01*
X216420Y41508D01*
X216478Y41511D01*
X216536Y41513D01*
X216561Y41516D01*
X216583Y41519D01*
X216605Y41525D01*
X216619Y41527D01*
X216622D01*
X216630Y41533D01*
X216644Y41539D01*
X216658Y41547D01*
X216694Y41572D01*
X216711Y41588D01*
X216727Y41608D01*
X216730Y41611D01*
X216733Y41619D01*
X216741Y41630D01*
X216750Y41647D01*
X216755Y41669D01*
X216763Y41694D01*
X216766Y41721D01*
X216769Y41752D01*
Y41757D01*
Y41768D01*
X216766Y41785D01*
X216763Y41807D01*
X216755Y41832D01*
X216747Y41857D01*
X216733Y41885D01*
X216716Y41907D01*
X216714Y41910D01*
X216708Y41918D01*
X216694Y41926D01*
X216677Y41940D01*
X216658Y41954D01*
X216633Y41965D01*
X216603Y41976D01*
X216569Y41984D01*
X216567D01*
X216558Y41987D01*
X216542D01*
X216517Y41990D01*
X216456D01*
X216431Y41993D01*
D02*
G37*
G36*
X181531Y135993D02*
X181088D01*
Y135505D01*
X181465D01*
X181520Y135508D01*
X181578Y135511D01*
X181636Y135513D01*
X181661Y135516D01*
X181683Y135519D01*
X181705Y135525D01*
X181719Y135527D01*
X181722D01*
X181730Y135533D01*
X181744Y135538D01*
X181758Y135547D01*
X181794Y135572D01*
X181811Y135588D01*
X181827Y135608D01*
X181830Y135610D01*
X181833Y135619D01*
X181841Y135630D01*
X181850Y135646D01*
X181855Y135669D01*
X181863Y135694D01*
X181866Y135721D01*
X181869Y135752D01*
Y135757D01*
Y135768D01*
X181866Y135785D01*
X181863Y135807D01*
X181855Y135832D01*
X181847Y135857D01*
X181833Y135885D01*
X181816Y135907D01*
X181814Y135910D01*
X181808Y135918D01*
X181794Y135926D01*
X181778Y135940D01*
X181758Y135954D01*
X181733Y135965D01*
X181703Y135976D01*
X181669Y135984D01*
X181667D01*
X181658Y135987D01*
X181642D01*
X181617Y135990D01*
X181556D01*
X181531Y135993D01*
D02*
G37*
G36*
X173448Y40428D02*
X173432D01*
X173415Y40425D01*
X173393Y40422D01*
X173368Y40414D01*
X173343Y40406D01*
X173315Y40392D01*
X173293Y40375D01*
X173290Y40373D01*
X173282Y40367D01*
X173274Y40353D01*
X173260Y40337D01*
X173246Y40317D01*
X173235Y40292D01*
X173224Y40262D01*
X173216Y40229D01*
Y40226D01*
X173213Y40218D01*
Y40201D01*
X173210Y40176D01*
Y40159D01*
Y40140D01*
Y40115D01*
X173207Y40090D01*
Y40060D01*
Y40026D01*
Y39988D01*
Y39946D01*
Y39647D01*
X173695D01*
Y39932D01*
Y39935D01*
Y39943D01*
Y39957D01*
Y39977D01*
Y39999D01*
Y40024D01*
X173692Y40079D01*
X173689Y40137D01*
X173687Y40195D01*
X173684Y40220D01*
X173681Y40242D01*
X173675Y40265D01*
X173673Y40279D01*
Y40281D01*
X173667Y40290D01*
X173661Y40303D01*
X173653Y40317D01*
X173628Y40353D01*
X173612Y40370D01*
X173592Y40387D01*
X173590Y40389D01*
X173581Y40392D01*
X173570Y40400D01*
X173554Y40409D01*
X173531Y40414D01*
X173506Y40422D01*
X173479Y40425D01*
X173448Y40428D01*
D02*
G37*
G36*
X217231Y132793D02*
X216788D01*
Y132305D01*
X217164D01*
X217220Y132308D01*
X217278Y132311D01*
X217336Y132314D01*
X217361Y132316D01*
X217383Y132319D01*
X217406Y132325D01*
X217419Y132327D01*
X217422D01*
X217430Y132333D01*
X217444Y132339D01*
X217458Y132347D01*
X217494Y132372D01*
X217511Y132388D01*
X217527Y132408D01*
X217530Y132411D01*
X217533Y132419D01*
X217541Y132430D01*
X217549Y132447D01*
X217555Y132469D01*
X217563Y132494D01*
X217566Y132521D01*
X217569Y132552D01*
Y132557D01*
Y132568D01*
X217566Y132585D01*
X217563Y132607D01*
X217555Y132632D01*
X217547Y132657D01*
X217533Y132685D01*
X217516Y132707D01*
X217513Y132710D01*
X217508Y132718D01*
X217494Y132726D01*
X217477Y132740D01*
X217458Y132754D01*
X217433Y132765D01*
X217403Y132776D01*
X217370Y132784D01*
X217367D01*
X217358Y132787D01*
X217342D01*
X217317Y132790D01*
X217256D01*
X217231Y132793D01*
D02*
G37*
G36*
X223944Y19045D02*
X223889D01*
X223867Y19043D01*
X223820Y19040D01*
X223764Y19034D01*
X223706Y19029D01*
X223654Y19018D01*
X223604Y19004D01*
X223601D01*
X223598Y19001D01*
X223584Y18996D01*
X223562Y18987D01*
X223534Y18976D01*
X223507Y18960D01*
X223476Y18940D01*
X223446Y18918D01*
X223418Y18893D01*
X223415Y18890D01*
X223407Y18882D01*
X223396Y18865D01*
X223382Y18846D01*
X223365Y18818D01*
X223352Y18788D01*
X223338Y18755D01*
X223327Y18716D01*
Y18713D01*
X223324Y18699D01*
X223321Y18677D01*
X223316Y18647D01*
Y18627D01*
X223313Y18602D01*
Y18577D01*
X223310Y18550D01*
Y18516D01*
X223307Y18480D01*
Y18442D01*
Y18400D01*
Y18228D01*
X224576D01*
Y18514D01*
Y18516D01*
Y18522D01*
Y18530D01*
Y18541D01*
Y18569D01*
X224573Y18605D01*
Y18644D01*
X224568Y18683D01*
X224565Y18719D01*
X224559Y18749D01*
Y18755D01*
X224554Y18766D01*
X224548Y18782D01*
X224540Y18804D01*
X224529Y18829D01*
X224515Y18854D01*
X224498Y18879D01*
X224479Y18904D01*
X224476Y18907D01*
X224468Y18915D01*
X224454Y18926D01*
X224435Y18940D01*
X224410Y18954D01*
X224379Y18973D01*
X224341Y18987D01*
X224296Y19004D01*
X224293D01*
X224291Y19007D01*
X224282D01*
X224271Y19009D01*
X224260Y19015D01*
X224243Y19018D01*
X224202Y19026D01*
X224152Y19032D01*
X224094Y19040D01*
X224022Y19043D01*
X223944Y19045D01*
D02*
G37*
G36*
X173204Y156371D02*
X172944Y155659D01*
X173473D01*
X173204Y156371D01*
D02*
G37*
G36*
X177071D02*
X176811Y155659D01*
X177340D01*
X177071Y156371D01*
D02*
G37*
G36*
X164457Y156493D02*
X164205D01*
Y155224D01*
X164545D01*
X164581Y155227D01*
X164620D01*
X164659Y155232D01*
X164695Y155235D01*
X164725Y155241D01*
X164731D01*
X164742Y155246D01*
X164759Y155252D01*
X164781Y155260D01*
X164806Y155271D01*
X164831Y155285D01*
X164856Y155302D01*
X164881Y155321D01*
X164883Y155324D01*
X164892Y155332D01*
X164903Y155346D01*
X164917Y155365D01*
X164930Y155390D01*
X164950Y155421D01*
X164964Y155459D01*
X164980Y155504D01*
Y155507D01*
X164983Y155509D01*
Y155518D01*
X164986Y155529D01*
X164991Y155540D01*
X164994Y155556D01*
X165002Y155598D01*
X165008Y155648D01*
X165016Y155706D01*
X165019Y155778D01*
X165022Y155856D01*
Y155858D01*
Y155867D01*
Y155878D01*
Y155892D01*
Y155911D01*
X165019Y155933D01*
X165016Y155980D01*
X165011Y156036D01*
X165005Y156094D01*
X164994Y156147D01*
X164980Y156196D01*
Y156199D01*
X164977Y156202D01*
X164972Y156216D01*
X164964Y156238D01*
X164953Y156266D01*
X164936Y156293D01*
X164917Y156324D01*
X164894Y156354D01*
X164869Y156382D01*
X164867Y156385D01*
X164858Y156393D01*
X164842Y156404D01*
X164822Y156418D01*
X164795Y156435D01*
X164764Y156448D01*
X164731Y156462D01*
X164692Y156473D01*
X164689D01*
X164675Y156476D01*
X164653Y156479D01*
X164623Y156484D01*
X164603D01*
X164578Y156487D01*
X164554D01*
X164526Y156490D01*
X164493D01*
X164457Y156493D01*
D02*
G37*
G36*
X180744Y156523D02*
X180722D01*
X180705Y156520D01*
X180683Y156518D01*
X180661Y156515D01*
X180606Y156504D01*
X180545Y156482D01*
X180512Y156471D01*
X180478Y156454D01*
X180448Y156435D01*
X180415Y156412D01*
X180384Y156387D01*
X180356Y156357D01*
X180354Y156354D01*
X180351Y156349D01*
X180343Y156340D01*
X180334Y156326D01*
X180323Y156307D01*
X180312Y156288D01*
X180298Y156263D01*
X180284Y156232D01*
X180271Y156199D01*
X180257Y156163D01*
X180246Y156122D01*
X180235Y156077D01*
X180226Y156027D01*
X180218Y155975D01*
X180215Y155919D01*
X180212Y155858D01*
Y155856D01*
Y155845D01*
Y155828D01*
X180215Y155806D01*
X180218Y155778D01*
X180221Y155745D01*
X180226Y155712D01*
X180232Y155673D01*
X180248Y155593D01*
X180276Y155512D01*
X180293Y155471D01*
X180312Y155432D01*
X180337Y155396D01*
X180362Y155363D01*
X180365Y155360D01*
X180370Y155354D01*
X180379Y155346D01*
X180390Y155338D01*
X180403Y155324D01*
X180423Y155310D01*
X180442Y155293D01*
X180467Y155280D01*
X180520Y155246D01*
X180586Y155221D01*
X180622Y155210D01*
X180661Y155202D01*
X180703Y155196D01*
X180744Y155194D01*
X180766D01*
X180783Y155196D01*
X180802Y155199D01*
X180825Y155202D01*
X180877Y155216D01*
X180938Y155235D01*
X180969Y155249D01*
X181002Y155263D01*
X181032Y155282D01*
X181066Y155304D01*
X181096Y155329D01*
X181124Y155360D01*
X181126Y155363D01*
X181129Y155368D01*
X181138Y155376D01*
X181146Y155390D01*
X181160Y155410D01*
X181171Y155432D01*
X181185Y155457D01*
X181199Y155487D01*
X181212Y155520D01*
X181226Y155556D01*
X181240Y155598D01*
X181251Y155645D01*
X181260Y155692D01*
X181268Y155745D01*
X181271Y155803D01*
X181273Y155864D01*
Y155867D01*
Y155878D01*
Y155894D01*
X181271Y155919D01*
X181268Y155947D01*
X181265Y155977D01*
X181262Y156014D01*
X181254Y156050D01*
X181237Y156130D01*
X181212Y156213D01*
X181196Y156254D01*
X181176Y156290D01*
X181151Y156326D01*
X181126Y156360D01*
X181124Y156363D01*
X181121Y156368D01*
X181113Y156374D01*
X181102Y156385D01*
X181085Y156399D01*
X181068Y156412D01*
X181049Y156426D01*
X181024Y156443D01*
X180999Y156457D01*
X180969Y156471D01*
X180905Y156498D01*
X180869Y156509D01*
X180830Y156515D01*
X180789Y156520D01*
X180744Y156523D01*
D02*
G37*
G36*
X162523Y156493D02*
X162271D01*
Y155224D01*
X162612D01*
X162648Y155227D01*
X162687D01*
X162725Y155232D01*
X162761Y155235D01*
X162792Y155241D01*
X162797D01*
X162809Y155246D01*
X162825Y155252D01*
X162847Y155260D01*
X162872Y155271D01*
X162897Y155285D01*
X162922Y155302D01*
X162947Y155321D01*
X162950Y155324D01*
X162958Y155332D01*
X162969Y155346D01*
X162983Y155365D01*
X162997Y155390D01*
X163016Y155421D01*
X163030Y155459D01*
X163047Y155504D01*
Y155507D01*
X163049Y155509D01*
Y155518D01*
X163052Y155529D01*
X163058Y155540D01*
X163061Y155556D01*
X163069Y155598D01*
X163074Y155648D01*
X163083Y155706D01*
X163085Y155778D01*
X163088Y155856D01*
Y155858D01*
Y155867D01*
Y155878D01*
Y155892D01*
Y155911D01*
X163085Y155933D01*
X163083Y155980D01*
X163077Y156036D01*
X163072Y156094D01*
X163061Y156147D01*
X163047Y156196D01*
Y156199D01*
X163044Y156202D01*
X163038Y156216D01*
X163030Y156238D01*
X163019Y156266D01*
X163002Y156293D01*
X162983Y156324D01*
X162961Y156354D01*
X162936Y156382D01*
X162933Y156385D01*
X162925Y156393D01*
X162908Y156404D01*
X162889Y156418D01*
X162861Y156435D01*
X162831Y156448D01*
X162797Y156462D01*
X162759Y156473D01*
X162756D01*
X162742Y156476D01*
X162720Y156479D01*
X162689Y156484D01*
X162670D01*
X162645Y156487D01*
X162620D01*
X162592Y156490D01*
X162559D01*
X162523Y156493D01*
D02*
G37*
G36*
X302404Y289190D02*
X301961D01*
Y287727D01*
X302416D01*
X302435Y287730D01*
X302477Y287733D01*
X302524Y287735D01*
X302573Y287741D01*
X302623Y287749D01*
X302665Y287760D01*
X302670Y287763D01*
X302684Y287766D01*
X302704Y287774D01*
X302729Y287785D01*
X302756Y287802D01*
X302784Y287819D01*
X302812Y287838D01*
X302839Y287860D01*
X302842Y287866D01*
X302853Y287877D01*
X302870Y287896D01*
X302889Y287924D01*
X302911Y287960D01*
X302936Y288001D01*
X302958Y288049D01*
X302978Y288101D01*
Y288104D01*
X302981Y288109D01*
X302983Y288118D01*
X302986Y288129D01*
X302989Y288143D01*
X302994Y288162D01*
X303000Y288181D01*
X303006Y288204D01*
X303014Y288259D01*
X303022Y288323D01*
X303028Y288395D01*
X303030Y288472D01*
Y288475D01*
Y288486D01*
Y288500D01*
X303028Y288522D01*
Y288547D01*
X303025Y288575D01*
X303022Y288608D01*
X303019Y288641D01*
X303006Y288716D01*
X302989Y288794D01*
X302964Y288866D01*
X302947Y288902D01*
X302931Y288932D01*
Y288935D01*
X302925Y288940D01*
X302920Y288949D01*
X302914Y288960D01*
X302892Y288987D01*
X302864Y289021D01*
X302828Y289057D01*
X302787Y289093D01*
X302740Y289123D01*
X302690Y289148D01*
X302684Y289151D01*
X302670Y289154D01*
X302645Y289162D01*
X302609Y289170D01*
X302565Y289176D01*
X302510Y289184D01*
X302477Y289187D01*
X302441D01*
X302404Y289190D01*
D02*
G37*
G36*
X223944Y13688D02*
X223889D01*
X223867Y13686D01*
X223820Y13683D01*
X223764Y13677D01*
X223706Y13672D01*
X223654Y13661D01*
X223604Y13647D01*
X223601D01*
X223598Y13644D01*
X223584Y13638D01*
X223562Y13630D01*
X223534Y13619D01*
X223507Y13602D01*
X223476Y13583D01*
X223446Y13561D01*
X223418Y13536D01*
X223415Y13533D01*
X223407Y13525D01*
X223396Y13508D01*
X223382Y13489D01*
X223365Y13461D01*
X223352Y13431D01*
X223338Y13397D01*
X223327Y13359D01*
Y13356D01*
X223324Y13342D01*
X223321Y13320D01*
X223316Y13289D01*
Y13270D01*
X223313Y13245D01*
Y13220D01*
X223310Y13192D01*
Y13159D01*
X223307Y13123D01*
Y13084D01*
Y13043D01*
Y12871D01*
X224576D01*
Y13156D01*
Y13159D01*
Y13165D01*
Y13173D01*
Y13184D01*
Y13212D01*
X224573Y13248D01*
Y13287D01*
X224568Y13325D01*
X224565Y13361D01*
X224559Y13392D01*
Y13397D01*
X224554Y13408D01*
X224548Y13425D01*
X224540Y13447D01*
X224529Y13472D01*
X224515Y13497D01*
X224498Y13522D01*
X224479Y13547D01*
X224476Y13550D01*
X224468Y13558D01*
X224454Y13569D01*
X224435Y13583D01*
X224410Y13597D01*
X224379Y13616D01*
X224341Y13630D01*
X224296Y13647D01*
X224293D01*
X224291Y13649D01*
X224282D01*
X224271Y13652D01*
X224260Y13658D01*
X224243Y13661D01*
X224202Y13669D01*
X224152Y13674D01*
X224094Y13683D01*
X224022Y13686D01*
X223944Y13688D01*
D02*
G37*
G36*
Y15622D02*
X223889D01*
X223867Y15619D01*
X223820Y15616D01*
X223764Y15611D01*
X223706Y15605D01*
X223654Y15594D01*
X223604Y15580D01*
X223601D01*
X223598Y15577D01*
X223584Y15572D01*
X223562Y15564D01*
X223534Y15552D01*
X223507Y15536D01*
X223476Y15517D01*
X223446Y15494D01*
X223418Y15469D01*
X223415Y15467D01*
X223407Y15458D01*
X223396Y15442D01*
X223382Y15422D01*
X223365Y15395D01*
X223352Y15364D01*
X223338Y15331D01*
X223327Y15292D01*
Y15289D01*
X223324Y15276D01*
X223321Y15253D01*
X223316Y15223D01*
Y15203D01*
X223313Y15179D01*
Y15154D01*
X223310Y15126D01*
Y15093D01*
X223307Y15057D01*
Y15018D01*
Y14976D01*
Y14805D01*
X224576D01*
Y15090D01*
Y15093D01*
Y15098D01*
Y15107D01*
Y15118D01*
Y15145D01*
X224573Y15181D01*
Y15220D01*
X224568Y15259D01*
X224565Y15295D01*
X224559Y15325D01*
Y15331D01*
X224554Y15342D01*
X224548Y15359D01*
X224540Y15381D01*
X224529Y15406D01*
X224515Y15431D01*
X224498Y15455D01*
X224479Y15481D01*
X224476Y15483D01*
X224468Y15492D01*
X224454Y15503D01*
X224435Y15517D01*
X224410Y15530D01*
X224379Y15550D01*
X224341Y15564D01*
X224296Y15580D01*
X224293D01*
X224291Y15583D01*
X224282D01*
X224271Y15586D01*
X224260Y15591D01*
X224243Y15594D01*
X224202Y15602D01*
X224152Y15608D01*
X224094Y15616D01*
X224022Y15619D01*
X223944Y15622D01*
D02*
G37*
G36*
X199648Y34743D02*
X199632D01*
X199615Y34740D01*
X199593Y34738D01*
X199568Y34729D01*
X199543Y34721D01*
X199515Y34707D01*
X199493Y34691D01*
X199490Y34688D01*
X199482Y34682D01*
X199474Y34668D01*
X199460Y34652D01*
X199446Y34633D01*
X199435Y34607D01*
X199424Y34577D01*
X199416Y34544D01*
Y34541D01*
X199413Y34533D01*
Y34516D01*
X199410Y34491D01*
Y34475D01*
Y34455D01*
Y34430D01*
X199407Y34405D01*
Y34375D01*
Y34342D01*
Y34303D01*
Y34261D01*
Y33962D01*
X199895D01*
Y34247D01*
Y34250D01*
Y34258D01*
Y34272D01*
Y34292D01*
Y34314D01*
Y34339D01*
X199892Y34394D01*
X199889Y34452D01*
X199887Y34511D01*
X199884Y34536D01*
X199881Y34558D01*
X199875Y34580D01*
X199873Y34594D01*
Y34596D01*
X199867Y34605D01*
X199862Y34619D01*
X199853Y34633D01*
X199828Y34668D01*
X199812Y34685D01*
X199792Y34702D01*
X199790Y34705D01*
X199781Y34707D01*
X199770Y34716D01*
X199753Y34724D01*
X199731Y34729D01*
X199706Y34738D01*
X199679Y34740D01*
X199648Y34743D01*
D02*
G37*
G36*
X304338Y289190D02*
X303895D01*
Y287727D01*
X304349D01*
X304368Y287730D01*
X304410Y287733D01*
X304457Y287735D01*
X304507Y287741D01*
X304557Y287749D01*
X304598Y287760D01*
X304604Y287763D01*
X304618Y287766D01*
X304637Y287774D01*
X304662Y287785D01*
X304690Y287802D01*
X304717Y287819D01*
X304745Y287838D01*
X304773Y287860D01*
X304776Y287866D01*
X304787Y287877D01*
X304803Y287896D01*
X304823Y287924D01*
X304845Y287960D01*
X304870Y288001D01*
X304892Y288049D01*
X304911Y288101D01*
Y288104D01*
X304914Y288109D01*
X304917Y288118D01*
X304920Y288129D01*
X304922Y288143D01*
X304928Y288162D01*
X304934Y288181D01*
X304939Y288204D01*
X304947Y288259D01*
X304956Y288323D01*
X304961Y288395D01*
X304964Y288472D01*
Y288475D01*
Y288486D01*
Y288500D01*
X304961Y288522D01*
Y288547D01*
X304959Y288575D01*
X304956Y288608D01*
X304953Y288641D01*
X304939Y288716D01*
X304922Y288794D01*
X304897Y288866D01*
X304881Y288902D01*
X304864Y288932D01*
Y288935D01*
X304859Y288940D01*
X304853Y288949D01*
X304848Y288960D01*
X304825Y288987D01*
X304798Y289021D01*
X304762Y289057D01*
X304720Y289093D01*
X304673Y289123D01*
X304623Y289148D01*
X304618Y289151D01*
X304604Y289154D01*
X304579Y289162D01*
X304543Y289170D01*
X304499Y289176D01*
X304443Y289184D01*
X304410Y289187D01*
X304374D01*
X304338Y289190D01*
D02*
G37*
G36*
X200241Y28937D02*
X199529Y28669D01*
X200241Y28408D01*
Y28937D01*
D02*
G37*
%LPD*%
D40*
X200820Y146900D02*
X203400D01*
X160421Y118600D02*
X163000D01*
X154720Y118700D02*
X157300D01*
X170900Y112700D02*
Y115279D01*
X181300Y111200D02*
Y113779D01*
X227700Y101920D02*
Y104500D01*
X230800Y112400D02*
Y114980D01*
X212900Y70121D02*
Y72700D01*
X202500Y69920D02*
Y72500D01*
X191200Y69900D02*
Y72479D01*
X182921Y68400D02*
X185500D01*
X167400Y53100D02*
X169980D01*
X183700Y39920D02*
Y42500D01*
X177100Y18100D02*
X179680D01*
X236200Y70400D02*
Y72979D01*
X216900Y60921D02*
Y63500D01*
X141769Y230584D02*
Y234226D01*
Y224974D02*
Y228616D01*
X137831Y230584D02*
Y234226D01*
Y224974D02*
Y228616D01*
Y224974D02*
X141769Y224974D01*
X137831Y234226D02*
X141769D01*
X108944Y229478D02*
X111504D01*
X113472D02*
X116031D01*
X108944Y226722D02*
X111504D01*
X113472D02*
X116031D01*
Y229478D01*
X108944Y226722D02*
Y229478D01*
X171884Y237722D02*
X174443D01*
X167356D02*
X169915D01*
X171884Y240478D02*
X174443D01*
X167356D02*
X169915D01*
X167356Y237722D02*
Y240478D01*
X174443Y237722D02*
Y240478D01*
X160184Y239922D02*
X162743D01*
X155656D02*
X158215D01*
X160184Y242678D02*
X162743D01*
X155656D02*
X158215D01*
X155656Y239922D02*
Y242678D01*
X162743Y239922D02*
Y242678D01*
X122932Y226074D02*
Y229716D01*
Y231684D02*
Y235326D01*
X126868Y226074D02*
Y229716D01*
Y231684D02*
Y235326D01*
X122932Y235326D02*
X126868Y235326D01*
X122932Y226074D02*
X126868D01*
X104057Y245278D02*
X106616D01*
X108585D02*
X111144D01*
X104057Y242522D02*
X106616D01*
X108585D02*
X111144D01*
Y245278D01*
X104057Y242522D02*
Y245278D01*
X171784Y256822D02*
X174343D01*
X167256D02*
X169815D01*
X171784Y259578D02*
X174343D01*
X167256D02*
X169815D01*
X167256Y256822D02*
Y259578D01*
X174343Y256822D02*
Y259578D01*
X161984Y266922D02*
X164543D01*
X157456D02*
X160015D01*
X161984Y269678D02*
X164543D01*
X157456D02*
X160015D01*
X157456Y266922D02*
Y269678D01*
X164543Y266922D02*
Y269678D01*
X108944Y249378D02*
X111504D01*
X113472D02*
X116031D01*
X108944Y246622D02*
X111504D01*
X113472D02*
X116031D01*
Y249378D01*
X108944Y246622D02*
Y249378D01*
X112884Y251122D02*
X115443D01*
X108356D02*
X110915D01*
X112884Y253878D02*
X115443D01*
X108356D02*
X110915D01*
X108356Y251122D02*
Y253878D01*
X115443Y251122D02*
Y253878D01*
X116022Y255557D02*
Y258116D01*
Y260085D02*
Y262644D01*
X118778Y255557D02*
Y258116D01*
Y260085D02*
Y262644D01*
X116022D02*
X118778D01*
X116022Y255557D02*
X118778D01*
X144522Y228057D02*
X147278Y228057D01*
X144522Y235144D02*
X147278D01*
Y232585D02*
Y235144D01*
Y228057D02*
Y230616D01*
X144522Y232585D02*
Y235144D01*
Y228057D02*
Y230616D01*
X106157Y258478D02*
X106157Y255722D01*
X113244D02*
Y258478D01*
X110685Y255722D02*
X113244D01*
X106157D02*
X108716D01*
X110685Y258478D02*
X113244D01*
X106157D02*
X108716D01*
X111958Y240452D02*
X112430D01*
X115659Y235570D02*
Y236830D01*
X111958Y231948D02*
X112430D01*
X108730Y235570D02*
Y236830D01*
X101722Y267643D02*
X104478Y267643D01*
X101722Y260556D02*
X104478D01*
X101722D02*
Y263115D01*
Y265084D02*
Y267643D01*
X104478Y260556D02*
Y263115D01*
Y265084D02*
Y267643D01*
X97022Y267543D02*
X99778Y267543D01*
X97022Y260456D02*
X99778D01*
X97022D02*
Y263015D01*
Y264984D02*
Y267543D01*
X99778Y260456D02*
Y263015D01*
Y264984D02*
Y267543D01*
X129300Y85620D02*
Y88200D01*
X129100Y79421D02*
Y82000D01*
X245200Y252100D02*
Y254679D01*
X254621Y177900D02*
X257200D01*
D42*
X293550Y178848D02*
Y172850D01*
X297549D01*
X299548Y173850D02*
X300548Y172850D01*
X302547D01*
X303547Y173850D01*
Y177848D01*
X302547Y178848D01*
X300548D01*
X299548Y177848D01*
Y176849D01*
X300548Y175849D01*
X303547D01*
D60*
X155585Y53152D02*
G03*
X155585Y53152I-98J0D01*
G01*
X307213Y244716D02*
X307434D01*
X307221Y242700D02*
X307442D01*
X239828Y58863D02*
Y66737D01*
Y58863D02*
X243372D01*
Y66737D01*
X239828D02*
X243372D01*
X166215Y54038D02*
Y58762D01*
X155585Y54038D02*
Y58762D01*
X160563Y183672D02*
X168437D01*
X160563Y180128D02*
Y183672D01*
Y180128D02*
X168437D01*
Y183672D01*
X160763Y188472D02*
X168637D01*
X160763Y184928D02*
Y188472D01*
Y184928D02*
X168637D01*
Y188472D01*
X160663Y193372D02*
X168537D01*
X160663Y189828D02*
Y193372D01*
Y189828D02*
X168537D01*
Y193372D01*
X99500Y202319D02*
Y202614D01*
X101500Y202319D02*
Y202614D01*
X122600Y202319D02*
Y202614D01*
X124600Y202319D02*
Y202614D01*
X102363Y115709D02*
X110237D01*
X102363Y112166D02*
Y115709D01*
Y112166D02*
X110237D01*
Y115709D01*
X102363Y121619D02*
X110237D01*
X102363Y118076D02*
Y121619D01*
Y118076D02*
X110237D01*
Y121619D01*
X317762Y85928D02*
X325636D01*
Y89472D01*
X317762D02*
X325636D01*
X317762Y85928D02*
Y89472D01*
Y91062D02*
X325636D01*
Y94605D01*
X317762D02*
X325636D01*
X317762Y91062D02*
Y94605D01*
X102363Y127529D02*
X110237D01*
X102363Y123985D02*
Y127529D01*
Y123985D02*
X110237D01*
Y127529D01*
X102363Y133438D02*
X110237D01*
X102363Y129895D02*
Y133438D01*
Y129895D02*
X110237D01*
Y133438D01*
X102363Y106257D02*
X110237D01*
Y109800D01*
X102363D02*
X110237D01*
X102363Y106257D02*
Y109800D01*
Y139347D02*
X110237D01*
X102363Y135804D02*
Y139347D01*
Y135804D02*
X110237D01*
Y139347D01*
X317762Y96195D02*
X325636D01*
Y99738D01*
X317762D02*
X325636D01*
X317762Y96195D02*
Y99738D01*
X102363Y100347D02*
X110237D01*
Y103891D01*
X102363D02*
X110237D01*
X102363Y100347D02*
Y103891D01*
Y145257D02*
X110237D01*
X102363Y141714D02*
Y145257D01*
Y141714D02*
X110237D01*
Y145257D01*
X317762Y101328D02*
X325636D01*
Y104872D01*
X317762D02*
X325636D01*
X317762Y101328D02*
Y104872D01*
X102363Y94438D02*
X110237D01*
Y97981D01*
X102363D02*
X110237D01*
X102363Y94438D02*
Y97981D01*
X317762Y106462D02*
X325636D01*
Y110005D01*
X317762D02*
X325636D01*
X317762Y106462D02*
Y110005D01*
Y81128D02*
X325636D01*
Y84672D01*
X317762D02*
X325636D01*
X317762Y81128D02*
Y84672D01*
X102363Y88528D02*
X110237D01*
Y92072D01*
X102363D02*
X110237D01*
X102363Y88528D02*
Y92072D01*
Y151166D02*
X110237D01*
X102363Y147623D02*
Y151166D01*
Y147623D02*
X110237D01*
Y151166D01*
X317762Y111595D02*
X325636D01*
Y115138D01*
X317762D02*
X325636D01*
X317762Y111595D02*
Y115138D01*
X283463Y73628D02*
X291337D01*
Y77172D01*
X283463D02*
X291337D01*
X283463Y73628D02*
Y77172D01*
Y69028D02*
X291337D01*
Y72572D01*
X283463D02*
X291337D01*
X283463Y69028D02*
Y72572D01*
X317762Y66928D02*
Y70472D01*
X325636D01*
Y66928D02*
Y70472D01*
X317762Y66928D02*
X325636D01*
X317762Y116728D02*
Y120272D01*
X325636D01*
Y116728D02*
Y120272D01*
X317762Y116728D02*
X325636D01*
X317762Y71728D02*
Y75272D01*
X325636D01*
Y71728D02*
Y75272D01*
X317762Y71728D02*
X325636D01*
X317762Y76628D02*
Y80172D01*
X325636D01*
Y76628D02*
Y80172D01*
X317762Y76628D02*
X325636D01*
X242900Y277519D02*
Y277814D01*
X240900Y277519D02*
Y277814D01*
X303866Y270184D02*
X304087D01*
X303858Y272200D02*
X304079D01*
X303813Y268316D02*
X304034D01*
X303821Y266300D02*
X304042D01*
X315213Y267816D02*
X315434D01*
X315221Y265800D02*
X315442D01*
X313219Y276000D02*
X313514D01*
X313219Y278000D02*
X313514D01*
X362400Y268086D02*
Y268381D01*
X364400Y268086D02*
Y268381D01*
D61*
X154546Y246739D02*
G03*
X154546Y246739I-492J0D01*
G01*
X179485Y70657D02*
G03*
X179485Y70657I-492J0D01*
G01*
X345392Y268200D02*
G03*
X345392Y268200I-492J0D01*
G01*
X313392Y205400D02*
G03*
X313392Y205400I-492J0D01*
G01*
X207492Y224900D02*
G03*
X207492Y224900I-492J0D01*
G01*
X254492Y217700D02*
G03*
X254492Y217700I-492J0D01*
G01*
X275692Y268400D02*
G03*
X275692Y268400I-492J0D01*
G01*
X303392Y251000D02*
G03*
X303392Y251000I-492J0D01*
G01*
D62*
X238500Y282500D02*
Y292500D01*
X178500Y282500D02*
Y292500D01*
X238500D01*
X178500Y282500D02*
X238500D01*
X300025Y169474D02*
X303175D01*
X300025Y153726D02*
X303175D01*
X202178Y86113D02*
Y87687D01*
X199422Y86113D02*
Y87687D01*
X193878Y97013D02*
Y98587D01*
X191122Y97013D02*
Y98587D01*
X62300Y17300D02*
Y177300D01*
X82300Y17300D02*
Y177300D01*
X62300D02*
X82300D01*
X62300Y17300D02*
X82300D01*
X359100Y17800D02*
Y177800D01*
X379100Y17800D02*
Y177800D01*
X359100D02*
X379100D01*
X359100Y17800D02*
X379100D01*
X373700Y286800D02*
X383700D01*
Y266800D02*
Y286800D01*
X373700Y266800D02*
X383700D01*
X373700D02*
Y286800D01*
X140981Y229206D02*
Y229994D01*
X138619Y229206D02*
Y229994D01*
X123719Y230306D02*
Y231094D01*
X126081Y230306D02*
Y231094D01*
X152617Y229813D02*
Y231387D01*
X149861Y229813D02*
Y231387D01*
X150511Y265243D02*
Y267211D01*
X148542D02*
X150511D01*
X126889D02*
X128858D01*
X126889Y265243D02*
Y267211D01*
Y243589D02*
Y245557D01*
Y243589D02*
X128858D01*
X148542D02*
X150511Y245557D01*
X143166Y70066D02*
X144938D01*
X143166D02*
Y71838D01*
Y103334D02*
X144938D01*
X143166Y101562D02*
Y103334D01*
X174662D02*
X176434D01*
Y101562D02*
Y103334D01*
X174662Y70066D02*
X176434D01*
Y71838D01*
X338819Y268798D02*
X341181D01*
X338819Y281002D02*
X341181D01*
Y268798D02*
Y281002D01*
X338819Y268798D02*
Y281002D01*
X306819Y205998D02*
X309181D01*
X306819Y218202D02*
X309181D01*
Y205998D02*
Y218202D01*
X306819Y205998D02*
Y218202D01*
X206402Y218819D02*
Y221181D01*
X194198Y218819D02*
Y221181D01*
X206402D01*
X194198Y218819D02*
X206402D01*
X247919Y218298D02*
X250281D01*
X247919Y230502D02*
X250281D01*
Y218298D02*
Y230502D01*
X247919Y218298D02*
Y230502D01*
X269119Y268998D02*
X271481D01*
X269119Y281202D02*
X271481D01*
Y268998D02*
Y281202D01*
X269119Y268998D02*
Y281202D01*
X303594Y257284D02*
X315406D01*
X303594Y255316D02*
X315406D01*
Y257284D01*
X303594Y255316D02*
Y257284D01*
X158500Y282400D02*
Y292400D01*
X98500Y282400D02*
X158500D01*
X215747Y120325D02*
Y123475D01*
X221653Y120325D02*
Y123475D01*
X181647Y53025D02*
Y56175D01*
X187553Y53025D02*
Y56175D01*
X173147Y53125D02*
Y56275D01*
X179053Y53125D02*
Y56275D01*
X225547Y49325D02*
Y52475D01*
X231453Y49325D02*
Y52475D01*
X216347Y49325D02*
Y52475D01*
X222253Y49325D02*
Y52475D01*
X203447Y58425D02*
Y61575D01*
X209353Y58425D02*
Y61575D01*
X196853Y58425D02*
Y61575D01*
X190947Y58425D02*
Y61575D01*
X184953Y123725D02*
Y126875D01*
X179047Y123725D02*
Y126875D01*
X231053Y123225D02*
Y126375D01*
X225147Y123225D02*
Y126375D01*
X172553Y125425D02*
Y128575D01*
X166647Y125425D02*
Y128575D01*
D63*
X156200Y231600D02*
X157600D01*
X240900Y286500D02*
Y289499D01*
X242400D01*
X242899Y288999D01*
Y288000D01*
X242400Y287500D01*
X240900D01*
X243899Y286500D02*
X244899D01*
X244399D01*
Y289499D01*
X243899Y288999D01*
X198900Y94300D02*
Y97299D01*
X200400D01*
X200899Y96799D01*
Y95800D01*
X200400Y95300D01*
X198900D01*
X199900D02*
X200899Y94300D01*
X203898D02*
X201899D01*
X203898Y96299D01*
Y96799D01*
X203399Y97299D01*
X202399D01*
X201899Y96799D01*
X190600Y105200D02*
Y108199D01*
X192100D01*
X192599Y107699D01*
Y106700D01*
X192100Y106200D01*
X190600D01*
X191600D02*
X192599Y105200D01*
X193599D02*
X194599D01*
X194099D01*
Y108199D01*
X193599Y107699D01*
X67500Y283000D02*
Y284999D01*
X68500Y285999D01*
X69499Y284999D01*
Y283000D01*
Y284500D01*
X67500D01*
X70499Y283000D02*
X71499D01*
X70999D01*
Y285999D01*
X70499Y285499D01*
X151100Y180400D02*
Y183399D01*
X152600D01*
X153099Y182899D01*
Y181899D01*
X152600Y181400D01*
X151100D01*
X152100D02*
X153099Y180400D01*
X155599D02*
Y183399D01*
X154099Y181899D01*
X156098D01*
X159097Y183399D02*
X157098D01*
Y181899D01*
X158098Y182399D01*
X158598D01*
X159097Y181899D01*
Y180900D01*
X158598Y180400D01*
X157598D01*
X157098Y180900D01*
X151600Y185200D02*
Y188199D01*
X153100D01*
X153599Y187699D01*
Y186699D01*
X153100Y186200D01*
X151600D01*
X152600D02*
X153599Y185200D01*
X156099D02*
Y188199D01*
X154599Y186699D01*
X156598D01*
X159098Y185200D02*
Y188199D01*
X157598Y186699D01*
X159597D01*
X157700Y196100D02*
Y199099D01*
X159200D01*
X159699Y198599D01*
Y197599D01*
X159200Y197100D01*
X157700D01*
X158700D02*
X159699Y196100D01*
X162199D02*
Y199099D01*
X160699Y197599D01*
X162698D01*
X163698Y198599D02*
X164198Y199099D01*
X165198D01*
X165697Y198599D01*
Y198099D01*
X165198Y197599D01*
X164698D01*
X165198D01*
X165697Y197100D01*
Y196600D01*
X165198Y196100D01*
X164198D01*
X163698Y196600D01*
X100350Y208650D02*
Y211649D01*
X101850D01*
X102349Y211149D01*
Y210150D01*
X101850Y209650D01*
X100350D01*
X101350D02*
X102349Y208650D01*
X104849D02*
Y211649D01*
X103349Y210150D01*
X105348D01*
X108347Y208650D02*
X106348D01*
X108347Y210649D01*
Y211149D01*
X107848Y211649D01*
X106848D01*
X106348Y211149D01*
X123450Y208650D02*
Y211649D01*
X124950D01*
X125449Y211149D01*
Y210150D01*
X124950Y209650D01*
X123450D01*
X124450D02*
X125449Y208650D01*
X127949D02*
Y211649D01*
X126449Y210150D01*
X128448D01*
X129448Y208650D02*
X130448D01*
X129948D01*
Y211649D01*
X129448Y211149D01*
X92000Y112120D02*
Y115119D01*
X93499D01*
X93999Y114619D01*
Y113619D01*
X93499Y113120D01*
X92000D01*
X93000D02*
X93999Y112120D01*
X96499D02*
Y115119D01*
X94999Y113619D01*
X96998D01*
X97998Y114619D02*
X98498Y115119D01*
X99498D01*
X99997Y114619D01*
Y112620D01*
X99498Y112120D01*
X98498D01*
X97998Y112620D01*
Y114619D01*
X92000Y118100D02*
Y121099D01*
X93499D01*
X93999Y120599D01*
Y119599D01*
X93499Y119100D01*
X92000D01*
X93000D02*
X93999Y118100D01*
X94999Y120599D02*
X95499Y121099D01*
X96499D01*
X96998Y120599D01*
Y120099D01*
X96499Y119599D01*
X95999D01*
X96499D01*
X96998Y119100D01*
Y118600D01*
X96499Y118100D01*
X95499D01*
X94999Y118600D01*
X97998D02*
X98498Y118100D01*
X99498D01*
X99997Y118600D01*
Y120599D01*
X99498Y121099D01*
X98498D01*
X97998Y120599D01*
Y120099D01*
X98498Y119599D01*
X99997D01*
X330399Y86420D02*
Y89419D01*
X331898D01*
X332398Y88919D01*
Y87919D01*
X331898Y87420D01*
X330399D01*
X331398D02*
X332398Y86420D01*
X333398Y88919D02*
X333898Y89419D01*
X334897D01*
X335397Y88919D01*
Y88419D01*
X334897Y87919D01*
X334397D01*
X334897D01*
X335397Y87420D01*
Y86920D01*
X334897Y86420D01*
X333898D01*
X333398Y86920D01*
X336397Y88919D02*
X336897Y89419D01*
X337896D01*
X338396Y88919D01*
Y88419D01*
X337896Y87919D01*
X338396Y87420D01*
Y86920D01*
X337896Y86420D01*
X336897D01*
X336397Y86920D01*
Y87420D01*
X336897Y87919D01*
X336397Y88419D01*
Y88919D01*
X336897Y87919D02*
X337896D01*
X330399Y91500D02*
Y94499D01*
X331898D01*
X332398Y93999D01*
Y93000D01*
X331898Y92500D01*
X330399D01*
X331398D02*
X332398Y91500D01*
X333398Y93999D02*
X333898Y94499D01*
X334897D01*
X335397Y93999D01*
Y93499D01*
X334897Y93000D01*
X334397D01*
X334897D01*
X335397Y92500D01*
Y92000D01*
X334897Y91500D01*
X333898D01*
X333398Y92000D01*
X336397Y94499D02*
X338396D01*
Y93999D01*
X336397Y92000D01*
Y91500D01*
X92000Y124080D02*
Y127079D01*
X93499D01*
X93999Y126579D01*
Y125580D01*
X93499Y125080D01*
X92000D01*
X93000D02*
X93999Y124080D01*
X94999Y126579D02*
X95499Y127079D01*
X96499D01*
X96998Y126579D01*
Y126079D01*
X96499Y125580D01*
X95999D01*
X96499D01*
X96998Y125080D01*
Y124580D01*
X96499Y124080D01*
X95499D01*
X94999Y124580D01*
X99997Y127079D02*
X98998Y126579D01*
X97998Y125580D01*
Y124580D01*
X98498Y124080D01*
X99498D01*
X99997Y124580D01*
Y125080D01*
X99498Y125580D01*
X97998D01*
X92000Y130060D02*
Y133059D01*
X93499D01*
X93999Y132559D01*
Y131560D01*
X93499Y131060D01*
X92000D01*
X93000D02*
X93999Y130060D01*
X94999Y132559D02*
X95499Y133059D01*
X96499D01*
X96998Y132559D01*
Y132059D01*
X96499Y131560D01*
X95999D01*
X96499D01*
X96998Y131060D01*
Y130560D01*
X96499Y130060D01*
X95499D01*
X94999Y130560D01*
X99997Y133059D02*
X97998D01*
Y131560D01*
X98998Y132059D01*
X99498D01*
X99997Y131560D01*
Y130560D01*
X99498Y130060D01*
X98498D01*
X97998Y130560D01*
X92000Y106140D02*
Y109139D01*
X93499D01*
X93999Y108639D01*
Y107640D01*
X93499Y107140D01*
X92000D01*
X93000D02*
X93999Y106140D01*
X94999Y108639D02*
X95499Y109139D01*
X96499D01*
X96998Y108639D01*
Y108139D01*
X96499Y107640D01*
X95999D01*
X96499D01*
X96998Y107140D01*
Y106640D01*
X96499Y106140D01*
X95499D01*
X94999Y106640D01*
X99498Y106140D02*
Y109139D01*
X97998Y107640D01*
X99997D01*
X92000Y136040D02*
Y139039D01*
X93499D01*
X93999Y138539D01*
Y137540D01*
X93499Y137040D01*
X92000D01*
X93000D02*
X93999Y136040D01*
X94999Y138539D02*
X95499Y139039D01*
X96499D01*
X96998Y138539D01*
Y138039D01*
X96499Y137540D01*
X95999D01*
X96499D01*
X96998Y137040D01*
Y136540D01*
X96499Y136040D01*
X95499D01*
X94999Y136540D01*
X97998Y138539D02*
X98498Y139039D01*
X99498D01*
X99997Y138539D01*
Y138039D01*
X99498Y137540D01*
X98998D01*
X99498D01*
X99997Y137040D01*
Y136540D01*
X99498Y136040D01*
X98498D01*
X97998Y136540D01*
X330399Y96580D02*
Y99579D01*
X331898D01*
X332398Y99079D01*
Y98080D01*
X331898Y97580D01*
X330399D01*
X331398D02*
X332398Y96580D01*
X333398Y99079D02*
X333898Y99579D01*
X334897D01*
X335397Y99079D01*
Y98579D01*
X334897Y98080D01*
X334397D01*
X334897D01*
X335397Y97580D01*
Y97080D01*
X334897Y96580D01*
X333898D01*
X333398Y97080D01*
X338396Y96580D02*
X336397D01*
X338396Y98579D01*
Y99079D01*
X337896Y99579D01*
X336897D01*
X336397Y99079D01*
X92000Y100160D02*
Y103159D01*
X93499D01*
X93999Y102659D01*
Y101660D01*
X93499Y101160D01*
X92000D01*
X93000D02*
X93999Y100160D01*
X94999Y102659D02*
X95499Y103159D01*
X96499D01*
X96998Y102659D01*
Y102159D01*
X96499Y101660D01*
X95999D01*
X96499D01*
X96998Y101160D01*
Y100660D01*
X96499Y100160D01*
X95499D01*
X94999Y100660D01*
X97998Y100160D02*
X98998D01*
X98498D01*
Y103159D01*
X97998Y102659D01*
X92000Y142020D02*
Y145019D01*
X93499D01*
X93999Y144519D01*
Y143519D01*
X93499Y143020D01*
X92000D01*
X93000D02*
X93999Y142020D01*
X94999Y144519D02*
X95499Y145019D01*
X96499D01*
X96998Y144519D01*
Y144019D01*
X96499Y143519D01*
X95999D01*
X96499D01*
X96998Y143020D01*
Y142520D01*
X96499Y142020D01*
X95499D01*
X94999Y142520D01*
X97998Y144519D02*
X98498Y145019D01*
X99498D01*
X99997Y144519D01*
Y142520D01*
X99498Y142020D01*
X98498D01*
X97998Y142520D01*
Y144519D01*
X330399Y101660D02*
Y104659D01*
X331898D01*
X332398Y104159D01*
Y103159D01*
X331898Y102660D01*
X330399D01*
X331398D02*
X332398Y101660D01*
X335397D02*
X333398D01*
X335397Y103659D01*
Y104159D01*
X334897Y104659D01*
X333898D01*
X333398Y104159D01*
X336397Y102160D02*
X336897Y101660D01*
X337896D01*
X338396Y102160D01*
Y104159D01*
X337896Y104659D01*
X336897D01*
X336397Y104159D01*
Y103659D01*
X336897Y103159D01*
X338396D01*
X92000Y94180D02*
Y97179D01*
X93499D01*
X93999Y96679D01*
Y95679D01*
X93499Y95180D01*
X92000D01*
X93000D02*
X93999Y94180D01*
X96998D02*
X94999D01*
X96998Y96179D01*
Y96679D01*
X96499Y97179D01*
X95499D01*
X94999Y96679D01*
X97998D02*
X98498Y97179D01*
X99498D01*
X99997Y96679D01*
Y96179D01*
X99498Y95679D01*
X99997Y95180D01*
Y94680D01*
X99498Y94180D01*
X98498D01*
X97998Y94680D01*
Y95180D01*
X98498Y95679D01*
X97998Y96179D01*
Y96679D01*
X98498Y95679D02*
X99498D01*
X330399Y106740D02*
Y109739D01*
X331898D01*
X332398Y109239D01*
Y108239D01*
X331898Y107740D01*
X330399D01*
X331398D02*
X332398Y106740D01*
X335397D02*
X333398D01*
X335397Y108739D01*
Y109239D01*
X334897Y109739D01*
X333898D01*
X333398Y109239D01*
X336397Y109739D02*
X338396D01*
Y109239D01*
X336397Y107240D01*
Y106740D01*
X330399Y81340D02*
Y84339D01*
X331898D01*
X332398Y83839D01*
Y82840D01*
X331898Y82340D01*
X330399D01*
X331398D02*
X332398Y81340D01*
X335397D02*
X333398D01*
X335397Y83339D01*
Y83839D01*
X334897Y84339D01*
X333898D01*
X333398Y83839D01*
X338396Y84339D02*
X337396Y83839D01*
X336397Y82840D01*
Y81840D01*
X336897Y81340D01*
X337896D01*
X338396Y81840D01*
Y82340D01*
X337896Y82840D01*
X336397D01*
X92000Y88200D02*
Y91199D01*
X93499D01*
X93999Y90699D01*
Y89700D01*
X93499Y89200D01*
X92000D01*
X93000D02*
X93999Y88200D01*
X96998D02*
X94999D01*
X96998Y90199D01*
Y90699D01*
X96499Y91199D01*
X95499D01*
X94999Y90699D01*
X99997Y91199D02*
X97998D01*
Y89700D01*
X98998Y90199D01*
X99498D01*
X99997Y89700D01*
Y88700D01*
X99498Y88200D01*
X98498D01*
X97998Y88700D01*
X92000Y148000D02*
Y150999D01*
X93499D01*
X93999Y150499D01*
Y149499D01*
X93499Y149000D01*
X92000D01*
X93000D02*
X93999Y148000D01*
X96998D02*
X94999D01*
X96998Y149999D01*
Y150499D01*
X96499Y150999D01*
X95499D01*
X94999Y150499D01*
X99498Y148000D02*
Y150999D01*
X97998Y149499D01*
X99997D01*
X330399Y111820D02*
Y114819D01*
X331898D01*
X332398Y114319D01*
Y113320D01*
X331898Y112820D01*
X330399D01*
X331398D02*
X332398Y111820D01*
X335397D02*
X333398D01*
X335397Y113819D01*
Y114319D01*
X334897Y114819D01*
X333898D01*
X333398Y114319D01*
X336397D02*
X336897Y114819D01*
X337896D01*
X338396Y114319D01*
Y113819D01*
X337896Y113320D01*
X337396D01*
X337896D01*
X338396Y112820D01*
Y112320D01*
X337896Y111820D01*
X336897D01*
X336397Y112320D01*
X292700Y74100D02*
Y77099D01*
X294199D01*
X294699Y76599D01*
Y75599D01*
X294199Y75100D01*
X292700D01*
X293700D02*
X294699Y74100D01*
X295699D02*
X296699D01*
X296199D01*
Y77099D01*
X295699Y76599D01*
X300198Y77099D02*
X299198Y76599D01*
X298198Y75599D01*
Y74600D01*
X298698Y74100D01*
X299698D01*
X300198Y74600D01*
Y75100D01*
X299698Y75599D01*
X298198D01*
X292900Y69300D02*
Y72299D01*
X294399D01*
X294899Y71799D01*
Y70799D01*
X294399Y70300D01*
X292900D01*
X293900D02*
X294899Y69300D01*
X295899D02*
X296899D01*
X296399D01*
Y72299D01*
X295899Y71799D01*
X300398Y72299D02*
X298398D01*
Y70799D01*
X299398Y71299D01*
X299898D01*
X300398Y70799D01*
Y69800D01*
X299898Y69300D01*
X298898D01*
X298398Y69800D01*
X85900Y15800D02*
Y18799D01*
X87400D01*
X87899Y18299D01*
Y17300D01*
X87400Y16800D01*
X85900D01*
X88899Y18299D02*
X89399Y18799D01*
X90399D01*
X90898Y18299D01*
Y17799D01*
X90399Y17300D01*
X89899D01*
X90399D01*
X90898Y16800D01*
Y16300D01*
X90399Y15800D01*
X89399D01*
X88899Y16300D01*
X351100Y18700D02*
Y21699D01*
X352600D01*
X353099Y21199D01*
Y20200D01*
X352600Y19700D01*
X351100D01*
X356098Y18700D02*
X354099D01*
X356098Y20699D01*
Y21199D01*
X355598Y21699D01*
X354599D01*
X354099Y21199D01*
X377700Y261000D02*
Y263999D01*
X379200D01*
X379699Y263499D01*
Y262499D01*
X379200Y262000D01*
X377700D01*
X382698Y263999D02*
X380699D01*
Y262499D01*
X381699Y262999D01*
X382199D01*
X382698Y262499D01*
Y261500D01*
X382199Y261000D01*
X381199D01*
X380699Y261500D01*
X145400Y56199D02*
Y55699D01*
X146400Y54699D01*
X147399Y55699D01*
Y56199D01*
X146400Y54699D02*
Y53200D01*
X148399Y56199D02*
Y53200D01*
X149399Y54200D01*
X150398Y53200D01*
Y56199D01*
X151398Y55699D02*
X151898Y56199D01*
X152898D01*
X153397Y55699D01*
Y55199D01*
X152898Y54699D01*
X152398D01*
X152898D01*
X153397Y54200D01*
Y53700D01*
X152898Y53200D01*
X151898D01*
X151398Y53700D01*
X245300Y58000D02*
Y60999D01*
X246799D01*
X247299Y60499D01*
Y59500D01*
X246799Y59000D01*
X245300D01*
X246300D02*
X247299Y58000D01*
X248299D02*
X249299D01*
X248799D01*
Y60999D01*
X248299Y60499D01*
X250798D02*
X251298Y60999D01*
X252298D01*
X252798Y60499D01*
Y59999D01*
X252298Y59500D01*
X251798D01*
X252298D01*
X252798Y59000D01*
Y58500D01*
X252298Y58000D01*
X251298D01*
X250798Y58500D01*
X162700Y286300D02*
Y289299D01*
X164199D01*
X164699Y288799D01*
Y287800D01*
X164199Y287300D01*
X162700D01*
X167199Y286300D02*
Y289299D01*
X165699Y287800D01*
X167698D01*
X227199Y77799D02*
X226699Y78299D01*
X225700D01*
X225200Y77799D01*
Y75800D01*
X225700Y75300D01*
X226699D01*
X227199Y75800D01*
X228199Y78299D02*
Y75300D01*
X229698D01*
X230198Y75800D01*
Y76300D01*
Y76799D01*
X229698Y77299D01*
X228199D01*
X233197Y75300D02*
X231198D01*
X233197Y77299D01*
Y77799D01*
X232698Y78299D01*
X231698D01*
X231198Y77799D01*
X234197Y75300D02*
X235197D01*
X234697D01*
Y78299D01*
X234197Y77799D01*
X225099Y63199D02*
X224600Y63699D01*
X223600D01*
X223100Y63199D01*
Y61200D01*
X223600Y60700D01*
X224600D01*
X225099Y61200D01*
X226099Y63699D02*
Y60700D01*
X227599D01*
X228098Y61200D01*
Y61700D01*
Y62199D01*
X227599Y62699D01*
X226099D01*
X229098Y60700D02*
X230098D01*
X229598D01*
Y63699D01*
X229098Y63199D01*
X231597D02*
X232097Y63699D01*
X233097D01*
X233597Y63199D01*
Y62699D01*
X233097Y62199D01*
X233597Y61700D01*
Y61200D01*
X233097Y60700D01*
X232097D01*
X231597Y61200D01*
Y61700D01*
X232097Y62199D01*
X231597Y62699D01*
Y63199D01*
X232097Y62199D02*
X233097D01*
X140549Y240049D02*
X140050Y240549D01*
X139050D01*
X138550Y240049D01*
Y238050D01*
X139050Y237550D01*
X140050D01*
X140549Y238050D01*
X141549Y237550D02*
X142549D01*
X142049D01*
Y240549D01*
X141549Y240049D01*
X111799Y224899D02*
X111300Y225399D01*
X110300D01*
X109800Y224899D01*
Y222900D01*
X110300Y222400D01*
X111300D01*
X111799Y222900D01*
X112799Y224899D02*
X113299Y225399D01*
X114299D01*
X114798Y224899D01*
Y224399D01*
X114299Y223900D01*
X113799D01*
X114299D01*
X114798Y223400D01*
Y222900D01*
X114299Y222400D01*
X113299D01*
X112799Y222900D01*
X173099Y235599D02*
X172599Y236099D01*
X171600D01*
X171100Y235599D01*
Y233600D01*
X171600Y233100D01*
X172599D01*
X173099Y233600D01*
X175599Y233100D02*
Y236099D01*
X174099Y234599D01*
X176098D01*
X158899Y247199D02*
X158399Y247699D01*
X157400D01*
X156900Y247199D01*
Y245200D01*
X157400Y244700D01*
X158399D01*
X158899Y245200D01*
X161898Y244700D02*
X159899D01*
X161898Y246699D01*
Y247199D01*
X161399Y247699D01*
X160399D01*
X159899Y247199D01*
X129799Y224399D02*
X129299Y224899D01*
X128300D01*
X127800Y224399D01*
Y222400D01*
X128300Y221900D01*
X129299D01*
X129799Y222400D01*
X132798Y224899D02*
X130799D01*
Y223399D01*
X131799Y223899D01*
X132299D01*
X132798Y223399D01*
Y222400D01*
X132299Y221900D01*
X131299D01*
X130799Y222400D01*
X97399Y244999D02*
X96899Y245499D01*
X95900D01*
X95400Y244999D01*
Y243000D01*
X95900Y242500D01*
X96899D01*
X97399Y243000D01*
X100398Y245499D02*
X99399Y244999D01*
X98399Y244000D01*
Y243000D01*
X98899Y242500D01*
X99899D01*
X100398Y243000D01*
Y243500D01*
X99899Y244000D01*
X98399D01*
X163499Y259199D02*
X162999Y259699D01*
X162000D01*
X161500Y259199D01*
Y257200D01*
X162000Y256700D01*
X162999D01*
X163499Y257200D01*
X164499Y259699D02*
X166498D01*
Y259199D01*
X164499Y257200D01*
Y256700D01*
X163699Y273599D02*
X163199Y274099D01*
X162200D01*
X161700Y273599D01*
Y271600D01*
X162200Y271100D01*
X163199D01*
X163699Y271600D01*
X164699Y273599D02*
X165199Y274099D01*
X166199D01*
X166698Y273599D01*
Y273099D01*
X166199Y272600D01*
X166698Y272100D01*
Y271600D01*
X166199Y271100D01*
X165199D01*
X164699Y271600D01*
Y272100D01*
X165199Y272600D01*
X164699Y273099D01*
Y273599D01*
X165199Y272600D02*
X166199D01*
X119599Y248899D02*
X119099Y249399D01*
X118100D01*
X117600Y248899D01*
Y246900D01*
X118100Y246400D01*
X119099D01*
X119599Y246900D01*
X120599D02*
X121099Y246400D01*
X122099D01*
X122598Y246900D01*
Y248899D01*
X122099Y249399D01*
X121099D01*
X120599Y248899D01*
Y248399D01*
X121099Y247900D01*
X122598D01*
X97199Y253399D02*
X96700Y253899D01*
X95700D01*
X95200Y253399D01*
Y251400D01*
X95700Y250900D01*
X96700D01*
X97199Y251400D01*
X98199Y250900D02*
X99199D01*
X98699D01*
Y253899D01*
X98199Y253399D01*
X100698D02*
X101198Y253899D01*
X102198D01*
X102698Y253399D01*
Y251400D01*
X102198Y250900D01*
X101198D01*
X100698Y251400D01*
Y253399D01*
X116499Y268299D02*
X115999Y268799D01*
X115000D01*
X114500Y268299D01*
Y266300D01*
X115000Y265800D01*
X115999D01*
X116499Y266300D01*
X117499Y265800D02*
X118499D01*
X117999D01*
Y268799D01*
X117499Y268299D01*
X119998Y265800D02*
X120998D01*
X120498D01*
Y268799D01*
X119998Y268299D01*
X153549Y234450D02*
X150550D01*
Y232451D01*
Y231451D02*
Y230451D01*
Y230951D01*
X153549D01*
X153049Y231451D01*
X148100Y224999D02*
Y222000D01*
X150099D01*
X153098D02*
X151099D01*
X153098Y223999D01*
Y224499D01*
X152599Y224999D01*
X151599D01*
X151099Y224499D01*
X107500Y263699D02*
Y260700D01*
X109499D01*
X110499Y263199D02*
X110999Y263699D01*
X111999D01*
X112498Y263199D01*
Y262699D01*
X111999Y262199D01*
X111499D01*
X111999D01*
X112498Y261700D01*
Y261200D01*
X111999Y260700D01*
X110999D01*
X110499Y261200D01*
X126800Y274599D02*
Y272100D01*
X127300Y271600D01*
X128299D01*
X128799Y272100D01*
Y274599D01*
X131299Y271600D02*
Y274599D01*
X129799Y273099D01*
X131798D01*
X102900Y238999D02*
X104899Y236000D01*
Y238999D02*
X102900Y236000D01*
X105899D02*
X106899D01*
X106399D01*
Y238999D01*
X105899Y238499D01*
X90763Y256750D02*
X93762Y258749D01*
X90763D02*
X93762Y256750D01*
X90763Y259749D02*
X93762Y261748D01*
X90763D02*
X93762Y259749D01*
Y262748D02*
Y263748D01*
Y263248D01*
X90763D01*
X91263Y262748D01*
X102301Y272000D02*
X105300Y273999D01*
X102301D02*
X105300Y272000D01*
X102301Y274999D02*
X105300Y276998D01*
X102301D02*
X105300Y274999D01*
Y279997D02*
Y277998D01*
X103301Y279997D01*
X102801D01*
X102301Y279498D01*
Y278498D01*
X102801Y277998D01*
X97201Y272200D02*
X100200Y274199D01*
X97201D02*
X100200Y272200D01*
X97201Y275199D02*
X100200Y277198D01*
X97201D02*
X100200Y275199D01*
X97701Y278198D02*
X97201Y278698D01*
Y279698D01*
X97701Y280197D01*
X98201D01*
X98700Y279698D01*
Y279198D01*
Y279698D01*
X99200Y280197D01*
X99700D01*
X100200Y279698D01*
Y278698D01*
X99700Y278198D01*
X133100Y106699D02*
Y104200D01*
X133600Y103700D01*
X134599D01*
X135099Y104200D01*
Y106699D01*
X136099Y106199D02*
X136599Y106699D01*
X137599D01*
X138098Y106199D01*
Y105699D01*
X137599Y105200D01*
X137099D01*
X137599D01*
X138098Y104700D01*
Y104200D01*
X137599Y103700D01*
X136599D01*
X136099Y104200D01*
X228599Y17499D02*
X228099Y17999D01*
X227100D01*
X226600Y17499D01*
Y15500D01*
X227100Y15000D01*
X228099D01*
X228599Y15500D01*
X229599Y17499D02*
X230099Y17999D01*
X231099D01*
X231598Y17499D01*
Y16999D01*
X231099Y16499D01*
X230599D01*
X231099D01*
X231598Y16000D01*
Y15500D01*
X231099Y15000D01*
X230099D01*
X229599Y15500D01*
X232598Y15000D02*
X233598D01*
X233098D01*
Y17999D01*
X232598Y17499D01*
X161699Y229799D02*
X161199Y230299D01*
X160200D01*
X159700Y229799D01*
Y227800D01*
X160200Y227300D01*
X161199D01*
X161699Y227800D01*
X162699Y227300D02*
X163699D01*
X163199D01*
Y230299D01*
X162699Y229799D01*
X167198Y227300D02*
X165198D01*
X167198Y229299D01*
Y229799D01*
X166698Y230299D01*
X165698D01*
X165198Y229799D01*
X240099Y165199D02*
X239599Y165699D01*
X238600D01*
X238100Y165199D01*
Y163200D01*
X238600Y162700D01*
X239599D01*
X240099Y163200D01*
X243098Y162700D02*
X241099D01*
X243098Y164699D01*
Y165199D01*
X242599Y165699D01*
X241599D01*
X241099Y165199D01*
X246097Y165699D02*
X245098Y165199D01*
X244098Y164199D01*
Y163200D01*
X244598Y162700D01*
X245598D01*
X246097Y163200D01*
Y163700D01*
X245598Y164199D01*
X244098D01*
X216099Y192099D02*
X215599Y192599D01*
X214600D01*
X214100Y192099D01*
Y190100D01*
X214600Y189600D01*
X215599D01*
X216099Y190100D01*
X219098Y189600D02*
X217099D01*
X219098Y191599D01*
Y192099D01*
X218599Y192599D01*
X217599D01*
X217099Y192099D01*
X220098Y190100D02*
X220598Y189600D01*
X221598D01*
X222097Y190100D01*
Y192099D01*
X221598Y192599D01*
X220598D01*
X220098Y192099D01*
Y191599D01*
X220598Y191100D01*
X222097D01*
X194599Y186099D02*
X194099Y186599D01*
X193100D01*
X192600Y186099D01*
Y184100D01*
X193100Y183600D01*
X194099D01*
X194599Y184100D01*
X195599Y186099D02*
X196099Y186599D01*
X197099D01*
X197598Y186099D01*
Y185599D01*
X197099Y185099D01*
X196599D01*
X197099D01*
X197598Y184600D01*
Y184100D01*
X197099Y183600D01*
X196099D01*
X195599Y184100D01*
X198598Y186099D02*
X199098Y186599D01*
X200098D01*
X200597Y186099D01*
Y184100D01*
X200098Y183600D01*
X199098D01*
X198598Y184100D01*
Y186099D01*
X184799Y215999D02*
X184300Y216499D01*
X183300D01*
X182800Y215999D01*
Y214000D01*
X183300Y213500D01*
X184300D01*
X184799Y214000D01*
X187798Y213500D02*
X185799D01*
X187798Y215499D01*
Y215999D01*
X187299Y216499D01*
X186299D01*
X185799Y215999D01*
X188798Y216499D02*
X190797D01*
Y215999D01*
X188798Y214000D01*
Y213500D01*
X204899Y174299D02*
X204399Y174799D01*
X203400D01*
X202900Y174299D01*
Y172300D01*
X203400Y171800D01*
X204399D01*
X204899Y172300D01*
X207898Y171800D02*
X205899D01*
X207898Y173799D01*
Y174299D01*
X207399Y174799D01*
X206399D01*
X205899Y174299D01*
X208898D02*
X209398Y174799D01*
X210398D01*
X210897Y174299D01*
Y173799D01*
X210398Y173300D01*
X210897Y172800D01*
Y172300D01*
X210398Y171800D01*
X209398D01*
X208898Y172300D01*
Y172800D01*
X209398Y173300D01*
X208898Y173799D01*
Y174299D01*
X209398Y173300D02*
X210398D01*
X252699Y269299D02*
X252200Y269799D01*
X251200D01*
X250700Y269299D01*
Y267300D01*
X251200Y266800D01*
X252200D01*
X252699Y267300D01*
X253699Y266800D02*
X254699D01*
X254199D01*
Y269799D01*
X253699Y269299D01*
X258198Y269799D02*
X256198D01*
Y268300D01*
X257198Y268799D01*
X257698D01*
X258198Y268300D01*
Y267300D01*
X257698Y266800D01*
X256698D01*
X256198Y267300D01*
X256399Y288899D02*
X255900Y289399D01*
X254900D01*
X254400Y288899D01*
Y286900D01*
X254900Y286400D01*
X255900D01*
X256399Y286900D01*
X259398Y286400D02*
X257399D01*
X259398Y288399D01*
Y288899D01*
X258898Y289399D01*
X257899D01*
X257399Y288899D01*
X262397Y289399D02*
X260398D01*
Y287899D01*
X261398Y288399D01*
X261898D01*
X262397Y287899D01*
Y286900D01*
X261898Y286400D01*
X260898D01*
X260398Y286900D01*
X259201Y246899D02*
X258701Y246399D01*
Y245400D01*
X259201Y244900D01*
X261200D01*
X261700Y245400D01*
Y246399D01*
X261200Y246899D01*
X261700Y247899D02*
Y248899D01*
Y248399D01*
X258701D01*
X259201Y247899D01*
X261700Y251898D02*
X258701D01*
X260201Y250398D01*
Y252398D01*
X269001Y255399D02*
X268501Y254900D01*
Y253900D01*
X269001Y253400D01*
X271000D01*
X271500Y253900D01*
Y254900D01*
X271000Y255399D01*
X271500Y256399D02*
Y257399D01*
Y256899D01*
X268501D01*
X269001Y256399D01*
Y258898D02*
X268501Y259398D01*
Y260398D01*
X269001Y260898D01*
X269501D01*
X270001Y260398D01*
Y259898D01*
Y260398D01*
X270500Y260898D01*
X271000D01*
X271500Y260398D01*
Y259398D01*
X271000Y258898D01*
X291999Y278099D02*
X291499Y278599D01*
X290500D01*
X290000Y278099D01*
Y276100D01*
X290500Y275600D01*
X291499D01*
X291999Y276100D01*
X292999Y275600D02*
X293999D01*
X293499D01*
Y278599D01*
X292999Y278099D01*
X295498Y276100D02*
X295998Y275600D01*
X296998D01*
X297498Y276100D01*
Y278099D01*
X296998Y278599D01*
X295998D01*
X295498Y278099D01*
Y277599D01*
X295998Y277099D01*
X297498D01*
X297699Y244499D02*
X297200Y244999D01*
X296200D01*
X295700Y244499D01*
Y242500D01*
X296200Y242000D01*
X297200D01*
X297699Y242500D01*
X300698Y242000D02*
X298699D01*
X300698Y243999D01*
Y244499D01*
X300199Y244999D01*
X299199D01*
X298699Y244499D01*
X301698Y242000D02*
X302698D01*
X302198D01*
Y244999D01*
X301698Y244499D01*
X293199Y269099D02*
X292700Y269599D01*
X291700D01*
X291200Y269099D01*
Y267100D01*
X291700Y266600D01*
X292700D01*
X293199Y267100D01*
X294199Y266600D02*
X295199D01*
X294699D01*
Y269599D01*
X294199Y269099D01*
X296698D02*
X297198Y269599D01*
X298198D01*
X298698Y269099D01*
Y268599D01*
X298198Y268099D01*
X298698Y267600D01*
Y267100D01*
X298198Y266600D01*
X297198D01*
X296698Y267100D01*
Y267600D01*
X297198Y268099D01*
X296698Y268599D01*
Y269099D01*
X297198Y268099D02*
X298198D01*
X293499Y264999D02*
X293000Y265499D01*
X292000D01*
X291500Y264999D01*
Y263000D01*
X292000Y262500D01*
X293000D01*
X293499Y263000D01*
X294499Y262500D02*
X295499D01*
X294999D01*
Y265499D01*
X294499Y264999D01*
X296998Y265499D02*
X298998D01*
Y264999D01*
X296998Y263000D01*
Y262500D01*
X313599Y271399D02*
X313100Y271899D01*
X312100D01*
X311600Y271399D01*
Y269400D01*
X312100Y268900D01*
X313100D01*
X313599Y269400D01*
X314599Y268900D02*
X315599D01*
X315099D01*
Y271899D01*
X314599Y271399D01*
X319098Y271899D02*
X318098Y271399D01*
X317098Y270399D01*
Y269400D01*
X317598Y268900D01*
X318598D01*
X319098Y269400D01*
Y269900D01*
X318598Y270399D01*
X317098D01*
X326799Y253999D02*
X326300Y254499D01*
X325300D01*
X324800Y253999D01*
Y252000D01*
X325300Y251500D01*
X326300D01*
X326799Y252000D01*
X329798Y251500D02*
X327799D01*
X329798Y253499D01*
Y253999D01*
X329298Y254499D01*
X328299D01*
X327799Y253999D01*
X330798D02*
X331298Y254499D01*
X332298D01*
X332797Y253999D01*
Y253499D01*
X332298Y252999D01*
X331798D01*
X332298D01*
X332797Y252500D01*
Y252000D01*
X332298Y251500D01*
X331298D01*
X330798Y252000D01*
X346399Y263899D02*
X345900Y264399D01*
X344900D01*
X344400Y263899D01*
Y261900D01*
X344900Y261400D01*
X345900D01*
X346399Y261900D01*
X349398Y261400D02*
X347399D01*
X349398Y263399D01*
Y263899D01*
X348899Y264399D01*
X347899D01*
X347399Y263899D01*
X351898Y261400D02*
Y264399D01*
X350398Y262899D01*
X352397D01*
X358601Y285399D02*
X358101Y284899D01*
Y283900D01*
X358601Y283400D01*
X360600D01*
X361100Y283900D01*
Y284899D01*
X360600Y285399D01*
X361100Y288398D02*
Y286399D01*
X359101Y288398D01*
X358601D01*
X358101Y287898D01*
Y286899D01*
X358601Y286399D01*
Y289398D02*
X358101Y289898D01*
Y290898D01*
X358601Y291397D01*
X360600D01*
X361100Y290898D01*
Y289898D01*
X360600Y289398D01*
X358601D01*
X336099Y244499D02*
X335599Y244999D01*
X334600D01*
X334100Y244499D01*
Y242500D01*
X334600Y242000D01*
X335599D01*
X336099Y242500D01*
X339098Y242000D02*
X337099D01*
X339098Y243999D01*
Y244499D01*
X338598Y244999D01*
X337599D01*
X337099Y244499D01*
X342097Y242000D02*
X340098D01*
X342097Y243999D01*
Y244499D01*
X341598Y244999D01*
X340598D01*
X340098Y244499D01*
X117200Y215799D02*
Y212800D01*
X118700D01*
X119199Y213300D01*
Y215299D01*
X118700Y215799D01*
X117200D01*
X122198Y212800D02*
X120199D01*
X122198Y214799D01*
Y215299D01*
X121699Y215799D01*
X120699D01*
X120199Y215299D01*
X100200Y215799D02*
Y212800D01*
X101700D01*
X102199Y213300D01*
Y215299D01*
X101700Y215799D01*
X100200D01*
X103199Y212800D02*
X104199D01*
X103699D01*
Y215799D01*
X103199Y215299D01*
X246500Y31599D02*
Y28600D01*
X248499D01*
X251498Y31599D02*
X250499Y31099D01*
X249499Y30099D01*
Y29100D01*
X249999Y28600D01*
X250998D01*
X251498Y29100D01*
Y29600D01*
X250998Y30099D01*
X249499D01*
X240000Y183199D02*
Y180200D01*
X241999D01*
X244998Y183199D02*
X242999D01*
Y181700D01*
X243999Y182199D01*
X244498D01*
X244998Y181700D01*
Y180700D01*
X244498Y180200D01*
X243499D01*
X242999Y180700D01*
X240900Y268999D02*
Y266000D01*
X242899D01*
X245399D02*
Y268999D01*
X243899Y267500D01*
X245898D01*
X244700Y279300D02*
Y282299D01*
X246199D01*
X246699Y281799D01*
Y280800D01*
X246199Y280300D01*
X244700D01*
X245700D02*
X246699Y279300D01*
X249199D02*
Y282299D01*
X247699Y280800D01*
X249698D01*
X250698Y281799D02*
X251198Y282299D01*
X252198D01*
X252697Y281799D01*
Y281299D01*
X252198Y280800D01*
X252697Y280300D01*
Y279800D01*
X252198Y279300D01*
X251198D01*
X250698Y279800D01*
Y280300D01*
X251198Y280800D01*
X250698Y281299D01*
Y281799D01*
X251198Y280800D02*
X252198D01*
X318000Y275900D02*
Y278899D01*
X319499D01*
X319999Y278399D01*
Y277399D01*
X319499Y276900D01*
X318000D01*
X319000D02*
X319999Y275900D01*
X322498D02*
Y278899D01*
X320999Y277399D01*
X322998D01*
X323998Y278899D02*
X325997D01*
Y278399D01*
X323998Y276400D01*
Y275900D01*
X365900Y273000D02*
X362901D01*
Y274500D01*
X363401Y274999D01*
X364401D01*
X364900Y274500D01*
Y273000D01*
Y274000D02*
X365900Y274999D01*
Y277499D02*
X362901D01*
X364401Y275999D01*
Y277998D01*
X362901Y280997D02*
X363401Y279998D01*
X364401Y278998D01*
X365400D01*
X365900Y279498D01*
Y280498D01*
X365400Y280997D01*
X364900D01*
X364401Y280498D01*
Y278998D01*
X285700Y260400D02*
X282701D01*
Y261899D01*
X283201Y262399D01*
X284201D01*
X284700Y261899D01*
Y260400D01*
Y261400D02*
X285700Y262399D01*
Y264898D02*
X282701D01*
X284201Y263399D01*
Y265398D01*
X285200Y266398D02*
X285700Y266898D01*
Y267898D01*
X285200Y268397D01*
X283201D01*
X282701Y267898D01*
Y266898D01*
X283201Y266398D01*
X283701D01*
X284201Y266898D01*
Y268397D01*
X206600Y232099D02*
Y229600D01*
X207100Y229100D01*
X208100D01*
X208599Y229600D01*
Y232099D01*
X209599Y229600D02*
X210099Y229100D01*
X211099D01*
X211598Y229600D01*
Y231599D01*
X211099Y232099D01*
X210099D01*
X209599Y231599D01*
Y231099D01*
X210099Y230599D01*
X211598D01*
X274700Y265899D02*
Y263400D01*
X275200Y262900D01*
X276200D01*
X276699Y263400D01*
Y265899D01*
X277699D02*
X279698D01*
Y265399D01*
X277699Y263400D01*
Y262900D01*
X294400Y257599D02*
Y255100D01*
X294900Y254600D01*
X295900D01*
X296399Y255100D01*
Y257599D01*
X299398D02*
X298399Y257099D01*
X297399Y256100D01*
Y255100D01*
X297899Y254600D01*
X298899D01*
X299398Y255100D01*
Y255600D01*
X298899Y256100D01*
X297399D01*
X332500Y287699D02*
Y285200D01*
X333000Y284700D01*
X334000D01*
X334499Y285200D01*
Y287699D01*
X337498D02*
X335499D01*
Y286200D01*
X336499Y286699D01*
X336999D01*
X337498Y286200D01*
Y285200D01*
X336999Y284700D01*
X335999D01*
X335499Y285200D01*
X252200Y236299D02*
Y233800D01*
X252700Y233300D01*
X253699D01*
X254199Y233800D01*
Y236299D01*
X255199Y235799D02*
X255699Y236299D01*
X256698D01*
X257198Y235799D01*
Y235299D01*
X256698Y234800D01*
X257198Y234300D01*
Y233800D01*
X256698Y233300D01*
X255699D01*
X255199Y233800D01*
Y234300D01*
X255699Y234800D01*
X255199Y235299D01*
Y235799D01*
X255699Y234800D02*
X256698D01*
X178851Y145349D02*
X178351Y144850D01*
Y143850D01*
X178851Y143350D01*
X180850D01*
X181350Y143850D01*
Y144850D01*
X180850Y145349D01*
X178851Y146349D02*
X178351Y146849D01*
Y147849D01*
X178851Y148348D01*
X179351D01*
X179850Y147849D01*
Y147349D01*
Y147849D01*
X180350Y148348D01*
X180850D01*
X181350Y147849D01*
Y146849D01*
X180850Y146349D01*
X178851Y149348D02*
X178351Y149848D01*
Y150848D01*
X178851Y151347D01*
X179351D01*
X179850Y150848D01*
Y150348D01*
Y150848D01*
X180350Y151347D01*
X180850D01*
X181350Y150848D01*
Y149848D01*
X180850Y149348D01*
X206200Y37099D02*
Y34100D01*
X208199D01*
X209199Y37099D02*
X211198D01*
Y36599D01*
X209199Y34600D01*
Y34100D01*
X189901Y158700D02*
X192900D01*
Y160699D01*
X190401Y161699D02*
X189901Y162199D01*
Y163199D01*
X190401Y163698D01*
X190901D01*
X191401Y163199D01*
X191900Y163698D01*
X192400D01*
X192900Y163199D01*
Y162199D01*
X192400Y161699D01*
X191900D01*
X191401Y162199D01*
X190901Y161699D01*
X190401D01*
X191401Y162199D02*
Y163199D01*
X359499Y252400D02*
X356500D01*
Y250901D01*
X357000Y250401D01*
X358999D01*
X359499Y250901D01*
Y252400D01*
X358999Y249401D02*
X359499Y248901D01*
Y247902D01*
X358999Y247402D01*
X358499D01*
X357999Y247902D01*
Y248401D01*
Y247902D01*
X357500Y247402D01*
X357000D01*
X356500Y247902D01*
Y248901D01*
X357000Y249401D01*
X314750Y291549D02*
Y288550D01*
X316249D01*
X316749Y289050D01*
Y291049D01*
X316249Y291549D01*
X314750D01*
X319249Y288550D02*
Y291549D01*
X317749Y290050D01*
X319748D01*
X226200Y280199D02*
Y277200D01*
X227699D01*
X228199Y277700D01*
Y279699D01*
X227699Y280199D01*
X226200D01*
X231198D02*
X229199D01*
Y278699D01*
X230199Y279199D01*
X230698D01*
X231198Y278699D01*
Y277700D01*
X230698Y277200D01*
X229699D01*
X229199Y277700D01*
X188501Y31199D02*
X188001Y30700D01*
Y29700D01*
X188501Y29200D01*
X190500D01*
X191000Y29700D01*
Y30700D01*
X190500Y31199D01*
X188501Y32199D02*
X188001Y32699D01*
Y33699D01*
X188501Y34198D01*
X189001D01*
X189500Y33699D01*
Y33199D01*
Y33699D01*
X190000Y34198D01*
X190500D01*
X191000Y33699D01*
Y32699D01*
X190500Y32199D01*
X191000Y37197D02*
Y35198D01*
X189001Y37197D01*
X188501D01*
X188001Y36698D01*
Y35698D01*
X188501Y35198D01*
X330399Y66100D02*
Y69099D01*
X331898D01*
X332398Y68599D01*
Y67599D01*
X331898Y67100D01*
X330399D01*
X331398D02*
X332398Y66100D01*
X333398D02*
X334397D01*
X333898D01*
Y69099D01*
X333398Y68599D01*
X335897Y66600D02*
X336397Y66100D01*
X337396D01*
X337896Y66600D01*
Y68599D01*
X337396Y69099D01*
X336397D01*
X335897Y68599D01*
Y68099D01*
X336397Y67599D01*
X337896D01*
X330399Y116900D02*
Y119899D01*
X331898D01*
X332398Y119399D01*
Y118400D01*
X331898Y117900D01*
X330399D01*
X331398D02*
X332398Y116900D01*
X335397D02*
X333398D01*
X335397Y118899D01*
Y119399D01*
X334897Y119899D01*
X333898D01*
X333398Y119399D01*
X336397D02*
X336897Y119899D01*
X337896D01*
X338396Y119399D01*
Y117400D01*
X337896Y116900D01*
X336897D01*
X336397Y117400D01*
Y119399D01*
X330399Y71180D02*
Y74179D01*
X331898D01*
X332398Y73679D01*
Y72680D01*
X331898Y72180D01*
X330399D01*
X331398D02*
X332398Y71180D01*
X335397D02*
X333398D01*
X335397Y73179D01*
Y73679D01*
X334897Y74179D01*
X333898D01*
X333398Y73679D01*
X336397Y71180D02*
X337396D01*
X336897D01*
Y74179D01*
X336397Y73679D01*
X330399Y76260D02*
Y79259D01*
X331898D01*
X332398Y78759D01*
Y77759D01*
X331898Y77260D01*
X330399D01*
X331398D02*
X332398Y76260D01*
X335397D02*
X333398D01*
X335397Y78259D01*
Y78759D01*
X334897Y79259D01*
X333898D01*
X333398Y78759D01*
X338396Y76260D02*
X336397D01*
X338396Y78259D01*
Y78759D01*
X337896Y79259D01*
X336897D01*
X336397Y78759D01*
X158499Y45799D02*
X158000Y46299D01*
X157000D01*
X156500Y45799D01*
Y43800D01*
X157000Y43300D01*
X158000D01*
X158499Y43800D01*
X159499Y46299D02*
Y43300D01*
X160999D01*
X161498Y43800D01*
Y44300D01*
Y44800D01*
X160999Y45299D01*
X159499D01*
X164497Y43300D02*
X162498D01*
X164497Y45299D01*
Y45799D01*
X163998Y46299D01*
X162998D01*
X162498Y45799D01*
X166997Y43300D02*
Y46299D01*
X165497Y44800D01*
X167496D01*
X183001Y76399D02*
X182501Y75899D01*
Y74900D01*
X183001Y74400D01*
X185000D01*
X185500Y74900D01*
Y75899D01*
X185000Y76399D01*
X182501Y77399D02*
X185500D01*
Y78899D01*
X185000Y79398D01*
X184500D01*
X184001D01*
X183501Y78899D01*
Y77399D01*
X185500Y82397D02*
Y80398D01*
X183501Y82397D01*
X183001D01*
X182501Y81898D01*
Y80898D01*
X183001Y80398D01*
X182501Y85396D02*
Y83397D01*
X184001D01*
X183501Y84397D01*
Y84897D01*
X184001Y85396D01*
X185000D01*
X185500Y84897D01*
Y83897D01*
X185000Y83397D01*
X199099Y79999D02*
X198600Y80499D01*
X197600D01*
X197100Y79999D01*
Y78000D01*
X197600Y77500D01*
X198600D01*
X199099Y78000D01*
X200099Y80499D02*
Y77500D01*
X201599D01*
X202098Y78000D01*
Y78500D01*
Y79000D01*
X201599Y79499D01*
X200099D01*
X205097Y77500D02*
X203098D01*
X205097Y79499D01*
Y79999D01*
X204598Y80499D01*
X203598D01*
X203098Y79999D01*
X206097Y80499D02*
X208096D01*
Y79999D01*
X206097Y78000D01*
Y77500D01*
X190701Y76599D02*
X190201Y76099D01*
Y75100D01*
X190701Y74600D01*
X192700D01*
X193200Y75100D01*
Y76099D01*
X192700Y76599D01*
X190201Y77599D02*
X193200D01*
Y79099D01*
X192700Y79598D01*
X192200D01*
X191700D01*
X191201Y79099D01*
Y77599D01*
X193200Y82597D02*
Y80598D01*
X191201Y82597D01*
X190701D01*
X190201Y82098D01*
Y81098D01*
X190701Y80598D01*
Y83597D02*
X190201Y84097D01*
Y85097D01*
X190701Y85596D01*
X191201D01*
X191700Y85097D01*
X192200Y85596D01*
X192700D01*
X193200Y85097D01*
Y84097D01*
X192700Y83597D01*
X192200D01*
X191700Y84097D01*
X191201Y83597D01*
X190701D01*
X191700Y84097D02*
Y85097D01*
X235799Y119199D02*
X235299Y119699D01*
X234300D01*
X233800Y119199D01*
Y117200D01*
X234300Y116700D01*
X235299D01*
X235799Y117200D01*
X236799Y119699D02*
Y116700D01*
X238299D01*
X238798Y117200D01*
Y117700D01*
Y118200D01*
X238299Y118699D01*
X236799D01*
X239798Y119199D02*
X240298Y119699D01*
X241298D01*
X241797Y119199D01*
Y118699D01*
X241298Y118200D01*
X240798D01*
X241298D01*
X241797Y117700D01*
Y117200D01*
X241298Y116700D01*
X240298D01*
X239798Y117200D01*
X242797Y116700D02*
X243797D01*
X243297D01*
Y119699D01*
X242797Y119199D01*
X163699Y110699D02*
X163199Y111199D01*
X162200D01*
X161700Y110699D01*
Y108700D01*
X162200Y108200D01*
X163199D01*
X163699Y108700D01*
X164699Y111199D02*
Y108200D01*
X166199D01*
X166698Y108700D01*
Y109200D01*
Y109699D01*
X166199Y110199D01*
X164699D01*
X167698Y110699D02*
X168198Y111199D01*
X169198D01*
X169697Y110699D01*
Y110199D01*
X169198Y109699D01*
X168698D01*
X169198D01*
X169697Y109200D01*
Y108700D01*
X169198Y108200D01*
X168198D01*
X167698Y108700D01*
X172696Y108200D02*
X170697D01*
X172696Y110199D01*
Y110699D01*
X172197Y111199D01*
X171197D01*
X170697Y110699D01*
X186499Y117899D02*
X186000Y118399D01*
X185000D01*
X184500Y117899D01*
Y115900D01*
X185000Y115400D01*
X186000D01*
X186499Y115900D01*
X187499Y118399D02*
Y115400D01*
X188999D01*
X189498Y115900D01*
Y116400D01*
Y116900D01*
X188999Y117399D01*
X187499D01*
X190498Y117899D02*
X190998Y118399D01*
X191998D01*
X192497Y117899D01*
Y117399D01*
X191998Y116900D01*
X191498D01*
X191998D01*
X192497Y116400D01*
Y115900D01*
X191998Y115400D01*
X190998D01*
X190498Y115900D01*
X193497Y117899D02*
X193997Y118399D01*
X194997D01*
X195496Y117899D01*
Y117399D01*
X194997Y116900D01*
X194497D01*
X194997D01*
X195496Y116400D01*
Y115900D01*
X194997Y115400D01*
X193997D01*
X193497Y115900D01*
X227899Y99199D02*
X227399Y99699D01*
X226400D01*
X225900Y99199D01*
Y97200D01*
X226400Y96700D01*
X227399D01*
X227899Y97200D01*
X228899Y99699D02*
Y96700D01*
X230399D01*
X230898Y97200D01*
Y97700D01*
Y98199D01*
X230399Y98699D01*
X228899D01*
X231898Y99199D02*
X232398Y99699D01*
X233398D01*
X233897Y99199D01*
Y98699D01*
X233398Y98199D01*
X232898D01*
X233398D01*
X233897Y97700D01*
Y97200D01*
X233398Y96700D01*
X232398D01*
X231898Y97200D01*
X236397Y96700D02*
Y99699D01*
X234897Y98199D01*
X236896D01*
X214501Y77599D02*
X214001Y77100D01*
Y76100D01*
X214501Y75600D01*
X216500D01*
X217000Y76100D01*
Y77100D01*
X216500Y77599D01*
X214001Y78599D02*
X217000D01*
Y80099D01*
X216500Y80598D01*
X216000D01*
X215500D01*
X215001Y80099D01*
Y78599D01*
X214501Y81598D02*
X214001Y82098D01*
Y83098D01*
X214501Y83597D01*
X215001D01*
X215500Y83098D01*
Y82598D01*
Y83098D01*
X216000Y83597D01*
X216500D01*
X217000Y83098D01*
Y82098D01*
X216500Y81598D01*
X214001Y86596D02*
X214501Y85597D01*
X215500Y84597D01*
X216500D01*
X217000Y85097D01*
Y86097D01*
X216500Y86596D01*
X216000D01*
X215500Y86097D01*
Y84597D01*
X160701Y130399D02*
X160201Y129900D01*
Y128900D01*
X160701Y128400D01*
X162700D01*
X163200Y128900D01*
Y129900D01*
X162700Y130399D01*
X160201Y131399D02*
X163200D01*
Y132899D01*
X162700Y133398D01*
X162200D01*
X161700D01*
X161201Y132899D01*
Y131399D01*
X160701Y134398D02*
X160201Y134898D01*
Y135898D01*
X160701Y136397D01*
X161201D01*
X161700Y135898D01*
Y135398D01*
Y135898D01*
X162200Y136397D01*
X162700D01*
X163200Y135898D01*
Y134898D01*
X162700Y134398D01*
X160701Y137397D02*
X160201Y137897D01*
Y138897D01*
X160701Y139396D01*
X161201D01*
X161700Y138897D01*
X162200Y139396D01*
X162700D01*
X163200Y138897D01*
Y137897D01*
X162700Y137397D01*
X162200D01*
X161700Y137897D01*
X161201Y137397D01*
X160701D01*
X161700Y137897D02*
Y138897D01*
X154101Y130399D02*
X153601Y129900D01*
Y128900D01*
X154101Y128400D01*
X156100D01*
X156600Y128900D01*
Y129900D01*
X156100Y130399D01*
X153601Y131399D02*
X156600D01*
Y132899D01*
X156100Y133398D01*
X155600D01*
X155101D01*
X154601Y132899D01*
Y131399D01*
X154101Y134398D02*
X153601Y134898D01*
Y135898D01*
X154101Y136397D01*
X154601D01*
X155101Y135898D01*
Y135398D01*
Y135898D01*
X155600Y136397D01*
X156100D01*
X156600Y135898D01*
Y134898D01*
X156100Y134398D01*
Y137397D02*
X156600Y137897D01*
Y138897D01*
X156100Y139396D01*
X154101D01*
X153601Y138897D01*
Y137897D01*
X154101Y137397D01*
X154601D01*
X155101Y137897D01*
Y139396D01*
X127354Y93699D02*
X126854Y94199D01*
X125854D01*
X125354Y93699D01*
Y91700D01*
X125854Y91200D01*
X126854D01*
X127354Y91700D01*
X128354Y94199D02*
Y91200D01*
X129853D01*
X130353Y91700D01*
Y92200D01*
Y92699D01*
X129853Y93199D01*
X128354D01*
X132852Y91200D02*
Y94199D01*
X131352Y92699D01*
X133352D01*
X134352Y93699D02*
X134851Y94199D01*
X135851D01*
X136351Y93699D01*
Y91700D01*
X135851Y91200D01*
X134851D01*
X134352Y91700D01*
Y93699D01*
X127199Y87499D02*
X126700Y87999D01*
X125700D01*
X125200Y87499D01*
Y85500D01*
X125700Y85000D01*
X126700D01*
X127199Y85500D01*
X128199Y87999D02*
Y85000D01*
X129699D01*
X130198Y85500D01*
Y86000D01*
Y86500D01*
X129699Y86999D01*
X128199D01*
X132698Y85000D02*
Y87999D01*
X131198Y86500D01*
X133197D01*
X134197Y85000D02*
X135197D01*
X134697D01*
Y87999D01*
X134197Y87499D01*
X243299Y260199D02*
X242800Y260699D01*
X241800D01*
X241300Y260199D01*
Y258200D01*
X241800Y257700D01*
X242800D01*
X243299Y258200D01*
X244299Y260699D02*
Y257700D01*
X245799D01*
X246298Y258200D01*
Y258700D01*
Y259200D01*
X245799Y259699D01*
X244299D01*
X248798Y257700D02*
Y260699D01*
X247298Y259200D01*
X249297D01*
X252296Y257700D02*
X250297D01*
X252296Y259699D01*
Y260199D01*
X251797Y260699D01*
X250797D01*
X250297Y260199D01*
X261299Y176599D02*
X260800Y177099D01*
X259800D01*
X259300Y176599D01*
Y174600D01*
X259800Y174100D01*
X260800D01*
X261299Y174600D01*
X262299Y177099D02*
Y174100D01*
X263798D01*
X264298Y174600D01*
Y175100D01*
Y175600D01*
X263798Y176099D01*
X262299D01*
X266798Y174100D02*
Y177099D01*
X265298Y175600D01*
X267297D01*
X268297Y176599D02*
X268797Y177099D01*
X269797D01*
X270296Y176599D01*
Y176099D01*
X269797Y175600D01*
X269297D01*
X269797D01*
X270296Y175100D01*
Y174600D01*
X269797Y174100D01*
X268797D01*
X268297Y174600D01*
X184599Y15899D02*
X184099Y16399D01*
X183100D01*
X182600Y15899D01*
Y13900D01*
X183100Y13400D01*
X184099D01*
X184599Y13900D01*
X185599Y16399D02*
Y13400D01*
X187099D01*
X187598Y13900D01*
Y14400D01*
Y14899D01*
X187099Y15399D01*
X185599D01*
X190098Y13400D02*
Y16399D01*
X188598Y14899D01*
X190597D01*
X193097Y13400D02*
Y16399D01*
X191597Y14899D01*
X193596D01*
X182801Y28599D02*
X182301Y28100D01*
Y27100D01*
X182801Y26600D01*
X184800D01*
X185300Y27100D01*
Y28100D01*
X184800Y28599D01*
X182301Y29599D02*
X185300D01*
Y31099D01*
X184800Y31598D01*
X184300D01*
X183800D01*
X183301Y31099D01*
Y29599D01*
X185300Y34098D02*
X182301D01*
X183800Y32598D01*
Y34597D01*
X182301Y37596D02*
Y35597D01*
X183800D01*
X183301Y36597D01*
Y37097D01*
X183800Y37596D01*
X184800D01*
X185300Y37097D01*
Y36097D01*
X184800Y35597D01*
X207599Y144499D02*
X207100Y144999D01*
X206100D01*
X205600Y144499D01*
Y142500D01*
X206100Y142000D01*
X207100D01*
X207599Y142500D01*
X208599Y144999D02*
Y142000D01*
X210099D01*
X210598Y142500D01*
Y143000D01*
Y143500D01*
X210099Y143999D01*
X208599D01*
X213098Y142000D02*
Y144999D01*
X211598Y143500D01*
X213597D01*
X216596Y144999D02*
X215597Y144499D01*
X214597Y143500D01*
Y142500D01*
X215097Y142000D01*
X216097D01*
X216596Y142500D01*
Y143000D01*
X216097Y143500D01*
X214597D01*
X167000Y62600D02*
Y65599D01*
X168500D01*
X168999Y65099D01*
Y64100D01*
X168500Y63600D01*
X167000D01*
X168000D02*
X168999Y62600D01*
X171998Y65599D02*
X169999D01*
Y64100D01*
X170999Y64599D01*
X171499D01*
X171998Y64100D01*
Y63100D01*
X171499Y62600D01*
X170499D01*
X169999Y63100D01*
X172998Y65599D02*
X174997D01*
Y65099D01*
X172998Y63100D01*
Y62600D01*
X153500Y62500D02*
Y65499D01*
X154999D01*
X155499Y64999D01*
Y63999D01*
X154999Y63500D01*
X153500D01*
X154500D02*
X155499Y62500D01*
X158498Y65499D02*
X156499D01*
Y63999D01*
X157499Y64499D01*
X157999D01*
X158498Y63999D01*
Y63000D01*
X157999Y62500D01*
X156999D01*
X156499Y63000D01*
X159498Y64999D02*
X159998Y65499D01*
X160998D01*
X161497Y64999D01*
Y64499D01*
X160998Y63999D01*
X161497Y63500D01*
Y63000D01*
X160998Y62500D01*
X159998D01*
X159498Y63000D01*
Y63500D01*
X159998Y63999D01*
X159498Y64499D01*
Y64999D01*
X159998Y63999D02*
X160998D01*
X233000Y44800D02*
Y47799D01*
X234500D01*
X234999Y47299D01*
Y46299D01*
X234500Y45800D01*
X233000D01*
X234000D02*
X234999Y44800D01*
X237998Y47799D02*
X235999D01*
Y46299D01*
X236999Y46799D01*
X237498D01*
X237998Y46299D01*
Y45300D01*
X237498Y44800D01*
X236499D01*
X235999Y45300D01*
X238998D02*
X239498Y44800D01*
X240498D01*
X240997Y45300D01*
Y47299D01*
X240498Y47799D01*
X239498D01*
X238998Y47299D01*
Y46799D01*
X239498Y46299D01*
X240997D01*
X215100Y44100D02*
X212101D01*
Y45599D01*
X212601Y46099D01*
X213600D01*
X214100Y45599D01*
Y44100D01*
Y45100D02*
X215100Y46099D01*
X212101Y49098D02*
X212601Y48099D01*
X213600Y47099D01*
X214600D01*
X215100Y47599D01*
Y48599D01*
X214600Y49098D01*
X214100D01*
X213600Y48599D01*
Y47099D01*
X212601Y50098D02*
X212101Y50598D01*
Y51598D01*
X212601Y52097D01*
X214600D01*
X215100Y51598D01*
Y50598D01*
X214600Y50098D01*
X212601D01*
X203328Y48731D02*
Y51730D01*
X204828D01*
X205328Y51230D01*
Y50230D01*
X204828Y49730D01*
X203328D01*
X204328D02*
X205328Y48731D01*
X208327Y51730D02*
X207327Y51230D01*
X206327Y50230D01*
Y49231D01*
X206827Y48731D01*
X207827D01*
X208327Y49231D01*
Y49730D01*
X207827Y50230D01*
X206327D01*
X209326Y48731D02*
X210326D01*
X209826D01*
Y51730D01*
X209326Y51230D01*
X193400Y65300D02*
Y68299D01*
X194899D01*
X195399Y67799D01*
Y66799D01*
X194899Y66300D01*
X193400D01*
X194400D02*
X195399Y65300D01*
X198398Y68299D02*
X197399Y67799D01*
X196399Y66799D01*
Y65800D01*
X196899Y65300D01*
X197899D01*
X198398Y65800D01*
Y66300D01*
X197899Y66799D01*
X196399D01*
X201397Y65300D02*
X199398D01*
X201397Y67299D01*
Y67799D01*
X200898Y68299D01*
X199898D01*
X199398Y67799D01*
X206100Y124600D02*
Y127599D01*
X207599D01*
X208099Y127099D01*
Y126100D01*
X207599Y125600D01*
X206100D01*
X207100D02*
X208099Y124600D01*
X211098Y127599D02*
X210099Y127099D01*
X209099Y126100D01*
Y125100D01*
X209599Y124600D01*
X210598D01*
X211098Y125100D01*
Y125600D01*
X210598Y126100D01*
X209099D01*
X212098Y127099D02*
X212598Y127599D01*
X213598D01*
X214097Y127099D01*
Y126599D01*
X213598Y126100D01*
X213098D01*
X213598D01*
X214097Y125600D01*
Y125100D01*
X213598Y124600D01*
X212598D01*
X212098Y125100D01*
X190900Y124000D02*
X187901D01*
Y125499D01*
X188401Y125999D01*
X189400D01*
X189900Y125499D01*
Y124000D01*
Y125000D02*
X190900Y125999D01*
X187901Y128998D02*
X188401Y127999D01*
X189400Y126999D01*
X190400D01*
X190900Y127499D01*
Y128499D01*
X190400Y128998D01*
X189900D01*
X189400Y128499D01*
Y126999D01*
X190900Y131498D02*
X187901D01*
X189400Y129998D01*
Y131997D01*
X233200Y129800D02*
Y132799D01*
X234700D01*
X235199Y132299D01*
Y131299D01*
X234700Y130800D01*
X233200D01*
X234200D02*
X235199Y129800D01*
X238198Y132799D02*
X237199Y132299D01*
X236199Y131299D01*
Y130300D01*
X236699Y129800D01*
X237699D01*
X238198Y130300D01*
Y130800D01*
X237699Y131299D01*
X236199D01*
X241197Y132799D02*
X239198D01*
Y131299D01*
X240198Y131799D01*
X240698D01*
X241197Y131299D01*
Y130300D01*
X240698Y129800D01*
X239698D01*
X239198Y130300D01*
X177600Y123100D02*
X174601D01*
Y124600D01*
X175101Y125099D01*
X176101D01*
X176600Y124600D01*
Y123100D01*
Y124100D02*
X177600Y125099D01*
X174601Y128098D02*
X175101Y127099D01*
X176101Y126099D01*
X177100D01*
X177600Y126599D01*
Y127599D01*
X177100Y128098D01*
X176600D01*
X176101Y127599D01*
Y126099D01*
X174601Y131097D02*
X175101Y130098D01*
X176101Y129098D01*
X177100D01*
X177600Y129598D01*
Y130598D01*
X177100Y131097D01*
X176600D01*
X176101Y130598D01*
Y129098D01*
X277299Y202599D02*
X276800Y203099D01*
X275800D01*
X275300Y202599D01*
Y200600D01*
X275800Y200100D01*
X276800D01*
X277299Y200600D01*
X278299Y202599D02*
X278799Y203099D01*
X279799D01*
X280298Y202599D01*
Y202099D01*
X279799Y201600D01*
X279299D01*
X279799D01*
X280298Y201100D01*
Y200600D01*
X279799Y200100D01*
X278799D01*
X278299Y200600D01*
X282798Y200100D02*
Y203099D01*
X281298Y201600D01*
X283297D01*
X296799Y198399D02*
X296300Y198899D01*
X295300D01*
X294800Y198399D01*
Y196400D01*
X295300Y195900D01*
X296300D01*
X296799Y196400D01*
X297799Y198399D02*
X298299Y198899D01*
X299299D01*
X299798Y198399D01*
Y197899D01*
X299299Y197399D01*
X298799D01*
X299299D01*
X299798Y196900D01*
Y196400D01*
X299299Y195900D01*
X298299D01*
X297799Y196400D01*
X302797Y198899D02*
X300798D01*
Y197399D01*
X301798Y197899D01*
X302298D01*
X302797Y197399D01*
Y196400D01*
X302298Y195900D01*
X301298D01*
X300798Y196400D01*
X267601Y225399D02*
X267101Y224900D01*
Y223900D01*
X267601Y223400D01*
X269600D01*
X270100Y223900D01*
Y224900D01*
X269600Y225399D01*
X267601Y226399D02*
X267101Y226899D01*
Y227899D01*
X267601Y228398D01*
X268101D01*
X268601Y227899D01*
Y227399D01*
Y227899D01*
X269100Y228398D01*
X269600D01*
X270100Y227899D01*
Y226899D01*
X269600Y226399D01*
X267101Y231397D02*
X267601Y230398D01*
X268601Y229398D01*
X269600D01*
X270100Y229898D01*
Y230898D01*
X269600Y231397D01*
X269100D01*
X268601Y230898D01*
Y229398D01*
X240999Y213699D02*
X240499Y214199D01*
X239500D01*
X239000Y213699D01*
Y211700D01*
X239500Y211200D01*
X240499D01*
X240999Y211700D01*
X241999Y213699D02*
X242499Y214199D01*
X243498D01*
X243998Y213699D01*
Y213199D01*
X243498Y212700D01*
X242999D01*
X243498D01*
X243998Y212200D01*
Y211700D01*
X243498Y211200D01*
X242499D01*
X241999Y211700D01*
X244998Y214199D02*
X246997D01*
Y213699D01*
X244998Y211700D01*
Y211200D01*
X228599Y226599D02*
X228099Y227099D01*
X227100D01*
X226600Y226599D01*
Y224600D01*
X227100Y224100D01*
X228099D01*
X228599Y224600D01*
X229599Y226599D02*
X230099Y227099D01*
X231099D01*
X231598Y226599D01*
Y226099D01*
X231099Y225600D01*
X230599D01*
X231099D01*
X231598Y225100D01*
Y224600D01*
X231099Y224100D01*
X230099D01*
X229599Y224600D01*
X232598Y226599D02*
X233098Y227099D01*
X234098D01*
X234597Y226599D01*
Y226099D01*
X234098Y225600D01*
X234597Y225100D01*
Y224600D01*
X234098Y224100D01*
X233098D01*
X232598Y224600D01*
Y225100D01*
X233098Y225600D01*
X232598Y226099D01*
Y226599D01*
X233098Y225600D02*
X234098D01*
X214199Y213999D02*
X213700Y214499D01*
X212700D01*
X212200Y213999D01*
Y212000D01*
X212700Y211500D01*
X213700D01*
X214199Y212000D01*
X215199Y213999D02*
X215699Y214499D01*
X216699D01*
X217198Y213999D01*
Y213499D01*
X216699Y213000D01*
X216199D01*
X216699D01*
X217198Y212500D01*
Y212000D01*
X216699Y211500D01*
X215699D01*
X215199Y212000D01*
X218198D02*
X218698Y211500D01*
X219698D01*
X220197Y212000D01*
Y213999D01*
X219698Y214499D01*
X218698D01*
X218198Y213999D01*
Y213499D01*
X218698Y213000D01*
X220197D01*
X327799Y208999D02*
X327299Y209499D01*
X326300D01*
X325800Y208999D01*
Y207000D01*
X326300Y206500D01*
X327299D01*
X327799Y207000D01*
X330298Y206500D02*
Y209499D01*
X328799Y207999D01*
X330798D01*
X331798Y208999D02*
X332298Y209499D01*
X333298D01*
X333797Y208999D01*
Y207000D01*
X333298Y206500D01*
X332298D01*
X331798Y207000D01*
Y208999D01*
X256099Y210599D02*
X255599Y211099D01*
X254600D01*
X254100Y210599D01*
Y208600D01*
X254600Y208100D01*
X255599D01*
X256099Y208600D01*
X258598Y208100D02*
Y211099D01*
X257099Y209599D01*
X259098D01*
X260098Y208100D02*
X261098D01*
X260598D01*
Y211099D01*
X260098Y210599D01*
X297799Y224599D02*
X297300Y225099D01*
X296300D01*
X295800Y224599D01*
Y222600D01*
X296300Y222100D01*
X297300D01*
X297799Y222600D01*
X300299Y222100D02*
Y225099D01*
X298799Y223600D01*
X300798D01*
X303797Y222100D02*
X301798D01*
X303797Y224099D01*
Y224599D01*
X303298Y225099D01*
X302298D01*
X301798Y224599D01*
X229199Y236199D02*
X228699Y236699D01*
X227700D01*
X227200Y236199D01*
Y234200D01*
X227700Y233700D01*
X228699D01*
X229199Y234200D01*
X231698Y233700D02*
Y236699D01*
X230199Y235199D01*
X232198D01*
X233198Y236199D02*
X233698Y236699D01*
X234698D01*
X235197Y236199D01*
Y235699D01*
X234698Y235199D01*
X234198D01*
X234698D01*
X235197Y234700D01*
Y234200D01*
X234698Y233700D01*
X233698D01*
X233198Y234200D01*
X275100Y217399D02*
Y214400D01*
X277099D01*
X278099D02*
X279099D01*
X278599D01*
Y217399D01*
X278099Y216899D01*
X280598D02*
X281098Y217399D01*
X282098D01*
X282598Y216899D01*
Y214900D01*
X282098Y214400D01*
X281098D01*
X280598Y214900D01*
Y216899D01*
X216300Y227199D02*
Y224200D01*
X218299D01*
X219299D02*
X220299D01*
X219799D01*
Y227199D01*
X219299Y226699D01*
X221798Y224200D02*
X222798D01*
X222298D01*
Y227199D01*
X221798Y226699D01*
X313400Y225000D02*
Y227999D01*
X314899D01*
X315399Y227499D01*
Y226500D01*
X314899Y226000D01*
X313400D01*
X314400D02*
X315399Y225000D01*
X317899D02*
Y227999D01*
X316399Y226500D01*
X318398D01*
X309600Y203299D02*
Y200800D01*
X310100Y200300D01*
X311100D01*
X311599Y200800D01*
Y203299D01*
X312599Y200300D02*
X313599D01*
X313099D01*
Y203299D01*
X312599Y202799D01*
X202000Y265100D02*
X203000D01*
X202500D01*
Y268099D01*
X202000Y267599D01*
X204499Y265100D02*
Y265600D01*
X204999D01*
Y265100D01*
X204499D01*
X206998Y267599D02*
X207498Y268099D01*
X208498D01*
X208998Y267599D01*
Y267099D01*
X208498Y266599D01*
X208998Y266100D01*
Y265600D01*
X208498Y265100D01*
X207498D01*
X206998Y265600D01*
Y266100D01*
X207498Y266599D01*
X206998Y267099D01*
Y267599D01*
X207498Y266599D02*
X208498D01*
X209997Y268099D02*
Y266100D01*
X210997Y265100D01*
X211997Y266100D01*
Y268099D01*
X212996D02*
Y265100D01*
X214496D01*
X214996Y265600D01*
Y267599D01*
X214496Y268099D01*
X212996D01*
X215996D02*
Y265100D01*
X217495D01*
X217995Y265600D01*
Y267599D01*
X217495Y268099D01*
X215996D01*
X347500Y235299D02*
X348000Y235799D01*
X349000D01*
X349499Y235299D01*
Y234799D01*
X349000Y234299D01*
X348500D01*
X349000D01*
X349499Y233800D01*
Y233300D01*
X349000Y232800D01*
X348000D01*
X347500Y233300D01*
X350499Y232800D02*
Y233300D01*
X350999D01*
Y232800D01*
X350499D01*
X352998Y235799D02*
X354998D01*
Y235299D01*
X352998Y233300D01*
Y232800D01*
X355997Y235799D02*
Y233800D01*
X356997Y232800D01*
X357997Y233800D01*
Y235799D01*
X358996D02*
Y232800D01*
X360496D01*
X360996Y233300D01*
Y235299D01*
X360496Y235799D01*
X358996D01*
X361995D02*
Y232800D01*
X363495D01*
X363995Y233300D01*
Y235299D01*
X363495Y235799D01*
X361995D01*
X75300Y180301D02*
Y182300D01*
X77299Y180301D01*
X77799D01*
X78299Y180800D01*
Y181800D01*
X77799Y182300D01*
X65300D02*
Y181300D01*
Y181800D01*
X68299D01*
X67799Y182300D01*
Y16300D02*
X68299Y15800D01*
Y14800D01*
X67799Y14301D01*
X67299D01*
X66799Y14800D01*
Y15300D01*
Y14800D01*
X66300Y14301D01*
X65800D01*
X65300Y14800D01*
Y15800D01*
X65800Y16300D01*
X65300Y13301D02*
Y12301D01*
Y12801D01*
X68299D01*
X67799Y13301D01*
X77799Y16300D02*
X78299Y15800D01*
Y14800D01*
X77799Y14301D01*
X77299D01*
X76799Y14800D01*
Y15300D01*
Y14800D01*
X76300Y14301D01*
X75800D01*
X75300Y14800D01*
Y15800D01*
X75800Y16300D01*
X75300Y11302D02*
Y13301D01*
X77299Y11302D01*
X77799D01*
X78299Y11801D01*
Y12801D01*
X77799Y13301D01*
X372100Y180801D02*
Y182800D01*
X374099Y180801D01*
X374599D01*
X375099Y181300D01*
Y182300D01*
X374599Y182800D01*
X362100D02*
Y181800D01*
Y182300D01*
X365099D01*
X364599Y182800D01*
Y16800D02*
X365099Y16300D01*
Y15301D01*
X364599Y14801D01*
X364099D01*
X363599Y15301D01*
Y15800D01*
Y15301D01*
X363100Y14801D01*
X362600D01*
X362100Y15301D01*
Y16300D01*
X362600Y16800D01*
X362100Y13801D02*
Y12801D01*
Y13301D01*
X365099D01*
X364599Y13801D01*
X374599Y16800D02*
X375099Y16300D01*
Y15301D01*
X374599Y14801D01*
X374099D01*
X373600Y15301D01*
Y15800D01*
Y15301D01*
X373100Y14801D01*
X372600D01*
X372100Y15301D01*
Y16300D01*
X372600Y16800D01*
X372100Y11802D02*
Y13801D01*
X374099Y11802D01*
X374599D01*
X375099Y12301D01*
Y13301D01*
X374599Y13801D01*
M02*
