%FSLAX25Y25*%
%MOIN*%
G70*
G01*
G75*
G04 Layer_Color=16711935*
%ADD10O,0.03543X0.00984*%
%ADD11R,0.06693X0.04331*%
%ADD12R,0.01969X0.01969*%
%ADD13R,0.03543X0.03150*%
%ADD14R,0.03150X0.03543*%
%ADD15R,0.01969X0.01969*%
%ADD16R,0.02362X0.04331*%
%ADD17R,0.03150X0.03150*%
%ADD18R,0.03150X0.03150*%
%ADD19R,0.04134X0.02362*%
%ADD20R,0.02362X0.04134*%
%ADD21R,0.03150X0.02756*%
%ADD22R,0.02756X0.03150*%
%ADD23R,0.02362X0.01969*%
%ADD24R,0.01969X0.02362*%
%ADD25R,0.25590X0.25590*%
%ADD26O,0.00984X0.03543*%
%ADD27R,0.01969X0.02559*%
%ADD28R,0.03347X0.03740*%
%ADD29O,0.02559X0.00787*%
%ADD30O,0.00787X0.02559*%
%ADD31R,0.18504X0.18504*%
%ADD32R,0.02559X0.01969*%
%ADD33R,0.03543X0.02756*%
%ADD34R,0.03150X0.02953*%
%ADD35R,0.10236X0.05906*%
%ADD36R,0.00787X0.01969*%
%ADD37R,0.02953X0.05512*%
%ADD38R,0.05906X0.14173*%
%ADD39C,0.00600*%
%ADD40C,0.01000*%
%ADD41C,0.00800*%
%ADD42C,0.01200*%
%ADD43C,0.00400*%
%ADD44C,0.01600*%
%ADD45C,0.05906*%
%ADD46R,0.05906X0.05906*%
%ADD47R,0.05906X0.05906*%
%ADD48C,0.00900*%
%ADD49C,0.02000*%
%ADD50C,0.01400*%
%ADD51C,0.01969*%
%ADD52C,0.02598*%
%ADD53C,0.04000*%
%ADD54C,0.04743*%
%ADD55C,0.01600*%
%ADD56C,0.02200*%
%ADD57C,0.01800*%
%ADD58C,0.01987*%
%ADD59C,0.02499*%
%ADD60C,0.00984*%
%ADD61C,0.00394*%
%ADD62C,0.00787*%
%ADD63C,0.00500*%
%ADD64R,0.01575X0.01575*%
%ADD65R,0.01575X0.01575*%
%ADD66O,0.03943X0.01384*%
%ADD67R,0.07093X0.04731*%
%ADD68R,0.02369X0.02369*%
%ADD69R,0.03943X0.03550*%
%ADD70R,0.03550X0.03943*%
%ADD71R,0.02369X0.02369*%
%ADD72R,0.02762X0.04731*%
%ADD73R,0.03550X0.03550*%
%ADD74R,0.03550X0.03550*%
%ADD75R,0.04534X0.02762*%
%ADD76R,0.02762X0.04534*%
%ADD77R,0.03550X0.03156*%
%ADD78R,0.03156X0.03550*%
%ADD79R,0.02762X0.02369*%
%ADD80R,0.02369X0.02762*%
%ADD81R,0.25991X0.25991*%
%ADD82O,0.01384X0.03943*%
%ADD83R,0.02369X0.02959*%
%ADD84R,0.03747X0.04140*%
%ADD85O,0.02959X0.01187*%
%ADD86O,0.01187X0.02959*%
%ADD87R,0.18904X0.18904*%
%ADD88R,0.02959X0.02369*%
%ADD89R,0.03943X0.03156*%
%ADD90R,0.03550X0.03353*%
%ADD91R,0.10636X0.06306*%
%ADD92R,0.01187X0.02369*%
%ADD93R,0.03353X0.05912*%
%ADD94R,0.06306X0.14573*%
%ADD95C,0.06306*%
%ADD96R,0.06306X0.06306*%
%ADD97R,0.06306X0.06306*%
%ADD98C,0.01300*%
%ADD99C,0.02400*%
%ADD100C,0.02369*%
%ADD101C,0.02998*%
D57*
X120600Y80700D02*
D03*
X120200Y86200D02*
D03*
X206400Y76500D02*
D03*
X121400Y259000D02*
D03*
X121000Y261900D02*
D03*
X181800Y75400D02*
D03*
X194000Y75900D02*
D03*
X199600Y76000D02*
D03*
X211700D02*
D03*
X123400Y254700D02*
D03*
D66*
X217955Y86216D02*
D03*
Y88184D02*
D03*
Y74405D02*
D03*
Y76373D02*
D03*
Y78342D02*
D03*
Y80310D02*
D03*
Y82279D02*
D03*
Y84247D02*
D03*
Y94090D02*
D03*
Y96058D02*
D03*
Y98027D02*
D03*
Y99995D02*
D03*
X249845D02*
D03*
Y98027D02*
D03*
Y96058D02*
D03*
Y94090D02*
D03*
Y92121D02*
D03*
Y90153D02*
D03*
Y88184D02*
D03*
Y86216D02*
D03*
Y84247D02*
D03*
Y82279D02*
D03*
Y80310D02*
D03*
Y78342D02*
D03*
Y76373D02*
D03*
Y74405D02*
D03*
X217955Y92121D02*
D03*
Y90153D02*
D03*
D74*
X260000Y227153D02*
D03*
Y221247D02*
D03*
D77*
X234300Y110446D02*
D03*
Y116154D02*
D03*
X175700Y61954D02*
D03*
Y56246D02*
D03*
X166900Y62154D02*
D03*
Y56446D02*
D03*
X184100Y106846D02*
D03*
Y112554D02*
D03*
D78*
X258146Y89300D02*
D03*
X263854D02*
D03*
X219054Y111700D02*
D03*
X213346D02*
D03*
X213154Y103900D02*
D03*
X207446D02*
D03*
X222609Y62200D02*
D03*
X216900D02*
D03*
X258146Y84600D02*
D03*
X263854D02*
D03*
D80*
X154400Y63769D02*
D03*
Y59832D02*
D03*
X285000Y75968D02*
D03*
Y72031D02*
D03*
X288700Y75968D02*
D03*
Y72031D02*
D03*
D81*
X233900Y87200D02*
D03*
D82*
X221105Y103145D02*
D03*
X223073D02*
D03*
X225042D02*
D03*
X227010D02*
D03*
X228979D02*
D03*
X230947D02*
D03*
X232916D02*
D03*
X234884D02*
D03*
X236853D02*
D03*
X238821D02*
D03*
X240790D02*
D03*
X242758D02*
D03*
X244727D02*
D03*
X246695D02*
D03*
Y71255D02*
D03*
X244727D02*
D03*
X242758D02*
D03*
X240790D02*
D03*
X238821D02*
D03*
X236853D02*
D03*
X234884D02*
D03*
X232916D02*
D03*
X230947D02*
D03*
X228979D02*
D03*
X227010D02*
D03*
X225042D02*
D03*
X223073D02*
D03*
X221105D02*
D03*
D92*
X231506Y59072D02*
D03*
X232294Y55528D02*
D03*
D93*
X229046Y57300D02*
D03*
X234754D02*
D03*
D95*
X153500Y287400D02*
D03*
X143500D02*
D03*
X133500D02*
D03*
X123500D02*
D03*
X113500D02*
D03*
X378700Y281800D02*
D03*
X374100Y172800D02*
D03*
X364100Y162800D02*
D03*
X374100D02*
D03*
X364100Y152800D02*
D03*
X374100D02*
D03*
X364100Y142800D02*
D03*
X374100D02*
D03*
X364100Y132800D02*
D03*
X374100D02*
D03*
X364100Y122800D02*
D03*
X374100D02*
D03*
X364100Y112800D02*
D03*
X374100D02*
D03*
X364100Y102800D02*
D03*
X374100D02*
D03*
X364100Y92800D02*
D03*
X374100D02*
D03*
X364100Y82800D02*
D03*
X374100D02*
D03*
X364100Y72800D02*
D03*
X374100D02*
D03*
X364100Y62800D02*
D03*
X374100D02*
D03*
X364100Y52800D02*
D03*
X374100D02*
D03*
X364100Y42800D02*
D03*
X374100D02*
D03*
X364100Y32800D02*
D03*
X374100D02*
D03*
X364100Y22800D02*
D03*
X374100D02*
D03*
X77300Y172300D02*
D03*
X67300Y162300D02*
D03*
X77300D02*
D03*
X67300Y152300D02*
D03*
X77300D02*
D03*
X67300Y142300D02*
D03*
X77300D02*
D03*
X67300Y132300D02*
D03*
X77300D02*
D03*
X67300Y122300D02*
D03*
X77300D02*
D03*
X67300Y112300D02*
D03*
X77300D02*
D03*
X67300Y102300D02*
D03*
X77300D02*
D03*
X67300Y92300D02*
D03*
X77300D02*
D03*
X67300Y82300D02*
D03*
X77300D02*
D03*
X67300Y72300D02*
D03*
X77300D02*
D03*
X67300Y62300D02*
D03*
X77300D02*
D03*
X67300Y52300D02*
D03*
X77300D02*
D03*
X67300Y42300D02*
D03*
X77300D02*
D03*
X67300Y32300D02*
D03*
X77300D02*
D03*
X67300Y22300D02*
D03*
X77300D02*
D03*
X233500Y287500D02*
D03*
X223500D02*
D03*
X213500D02*
D03*
X203500D02*
D03*
X193500D02*
D03*
D96*
X103500Y287400D02*
D03*
X183500Y287500D02*
D03*
D97*
X378700Y271800D02*
D03*
X364100Y172800D02*
D03*
X67300Y172300D02*
D03*
D98*
X196100Y96625D02*
D03*
Y98575D02*
D03*
X210400Y92050D02*
D03*
Y90150D02*
D03*
D99*
X134700Y76800D02*
D03*
X132000Y90300D02*
D03*
X105700Y252300D02*
D03*
Y248000D02*
D03*
X117400Y264200D02*
D03*
X105800Y267700D02*
D03*
X101900Y243900D02*
D03*
X118100Y241500D02*
D03*
D100*
X148973Y97527D02*
D03*
X153304D02*
D03*
X157635D02*
D03*
X161965D02*
D03*
X166296D02*
D03*
X170627D02*
D03*
X148973Y93196D02*
D03*
X153304D02*
D03*
X157635D02*
D03*
X161965D02*
D03*
X166296D02*
D03*
X170627D02*
D03*
X148973Y88865D02*
D03*
X153304D02*
D03*
X157635D02*
D03*
X161965D02*
D03*
X166296D02*
D03*
X170627D02*
D03*
X148973Y84535D02*
D03*
X153304D02*
D03*
X157635D02*
D03*
X161965D02*
D03*
X166296D02*
D03*
X170627D02*
D03*
X148973Y80204D02*
D03*
X153304D02*
D03*
X157635D02*
D03*
X161965D02*
D03*
X166296D02*
D03*
X170627D02*
D03*
X148973Y75873D02*
D03*
X153304D02*
D03*
X157635D02*
D03*
X161965D02*
D03*
X166296D02*
D03*
X170627D02*
D03*
X223073Y76373D02*
D03*
X227404D02*
D03*
X231735D02*
D03*
X236065D02*
D03*
X240396D02*
D03*
X244727D02*
D03*
X223073Y80704D02*
D03*
X227404D02*
D03*
X231735D02*
D03*
X236065D02*
D03*
X240396D02*
D03*
X244727D02*
D03*
X223073Y85035D02*
D03*
X227404D02*
D03*
X231735D02*
D03*
X236065D02*
D03*
X240396D02*
D03*
X244727D02*
D03*
X223073Y89365D02*
D03*
X227404D02*
D03*
X231735D02*
D03*
X236065D02*
D03*
X240396D02*
D03*
X244727D02*
D03*
X223073Y93696D02*
D03*
X227404D02*
D03*
X231735D02*
D03*
X236065D02*
D03*
X240396D02*
D03*
X244727D02*
D03*
X223073Y98027D02*
D03*
X227404D02*
D03*
X231735D02*
D03*
X236065D02*
D03*
X240396D02*
D03*
X244727D02*
D03*
D101*
X145787Y248313D02*
D03*
X141062D02*
D03*
X136338D02*
D03*
X131613D02*
D03*
X145787Y253038D02*
D03*
X141062D02*
D03*
X136338D02*
D03*
X131613D02*
D03*
X145787Y257762D02*
D03*
X141062D02*
D03*
X136338D02*
D03*
X131613D02*
D03*
X145787Y262487D02*
D03*
X141062D02*
D03*
X136338D02*
D03*
X131613D02*
D03*
M02*
