%FSLAX25Y25*%
%MOIN*%
G70*
G01*
G75*
G04 Layer_Color=8388736*
%ADD10O,0.03543X0.00984*%
%ADD11R,0.06693X0.04331*%
%ADD12R,0.01969X0.01969*%
%ADD13R,0.03543X0.03150*%
%ADD14R,0.03150X0.03543*%
%ADD15R,0.01969X0.01969*%
%ADD16R,0.02362X0.04331*%
%ADD17R,0.03150X0.03150*%
%ADD18R,0.03150X0.03150*%
%ADD19R,0.04134X0.02362*%
%ADD20R,0.02362X0.04134*%
%ADD21R,0.03150X0.02756*%
%ADD22R,0.02756X0.03150*%
%ADD23R,0.02362X0.01969*%
%ADD24R,0.01969X0.02362*%
%ADD25R,0.25590X0.25590*%
%ADD26O,0.00984X0.03543*%
%ADD27R,0.01969X0.02559*%
%ADD28R,0.03347X0.03740*%
%ADD29O,0.02559X0.00787*%
%ADD30O,0.00787X0.02559*%
%ADD31R,0.18504X0.18504*%
%ADD32R,0.02559X0.01969*%
%ADD33R,0.03543X0.02756*%
%ADD34R,0.03150X0.02953*%
%ADD35R,0.10236X0.05906*%
%ADD36R,0.00787X0.01969*%
%ADD37R,0.02953X0.05512*%
%ADD38R,0.05906X0.14173*%
%ADD39C,0.00600*%
%ADD40C,0.01000*%
%ADD41C,0.00800*%
%ADD42C,0.01200*%
%ADD43C,0.00400*%
%ADD44C,0.01600*%
%ADD45C,0.05906*%
%ADD46R,0.05906X0.05906*%
%ADD47R,0.05906X0.05906*%
%ADD48C,0.00900*%
%ADD49C,0.02000*%
%ADD50C,0.01400*%
%ADD51C,0.01969*%
%ADD52C,0.02598*%
%ADD53C,0.04000*%
%ADD54C,0.04743*%
%ADD55C,0.01600*%
%ADD56C,0.02200*%
%ADD57C,0.01800*%
%ADD58C,0.01987*%
%ADD59C,0.02499*%
%ADD60C,0.00984*%
%ADD61C,0.00394*%
%ADD62C,0.00787*%
%ADD63C,0.00500*%
%ADD64R,0.01575X0.01575*%
%ADD65R,0.01575X0.01575*%
%ADD66O,0.03943X0.01384*%
%ADD67R,0.07093X0.04731*%
%ADD68R,0.02369X0.02369*%
%ADD69R,0.03943X0.03550*%
%ADD70R,0.03550X0.03943*%
%ADD71R,0.02369X0.02369*%
%ADD72R,0.02762X0.04731*%
%ADD73R,0.03550X0.03550*%
%ADD74R,0.03550X0.03550*%
%ADD75R,0.04534X0.02762*%
%ADD76R,0.02762X0.04534*%
%ADD77R,0.03550X0.03156*%
%ADD78R,0.03156X0.03550*%
%ADD79R,0.02762X0.02369*%
%ADD80R,0.02369X0.02762*%
%ADD81R,0.25991X0.25991*%
%ADD82O,0.01384X0.03943*%
%ADD83R,0.02369X0.02959*%
%ADD84R,0.03747X0.04140*%
%ADD85O,0.02959X0.01187*%
%ADD86O,0.01187X0.02959*%
%ADD87R,0.18904X0.18904*%
%ADD88R,0.02959X0.02369*%
%ADD89R,0.03943X0.03156*%
%ADD90R,0.03550X0.03353*%
%ADD91R,0.10636X0.06306*%
%ADD92R,0.01187X0.02369*%
%ADD93R,0.03353X0.05912*%
%ADD94R,0.06306X0.14573*%
%ADD95C,0.06306*%
%ADD96R,0.06306X0.06306*%
%ADD97R,0.06306X0.06306*%
%ADD98C,0.01300*%
%ADD99C,0.02400*%
%ADD100C,0.02369*%
%ADD101C,0.02998*%
D57*
X120600Y80700D02*
D03*
X120200Y86200D02*
D03*
X206400Y76500D02*
D03*
X121400Y259000D02*
D03*
X121000Y261900D02*
D03*
X181800Y75400D02*
D03*
X194000Y75900D02*
D03*
X199600Y76000D02*
D03*
X211700D02*
D03*
X123400Y254700D02*
D03*
D66*
X175745Y85716D02*
D03*
Y87684D02*
D03*
Y89653D02*
D03*
Y91621D02*
D03*
X143855Y73905D02*
D03*
Y75873D02*
D03*
Y77842D02*
D03*
Y79810D02*
D03*
Y81779D02*
D03*
Y83747D02*
D03*
Y85716D02*
D03*
Y87684D02*
D03*
Y89653D02*
D03*
Y91621D02*
D03*
Y93590D02*
D03*
Y95558D02*
D03*
Y97527D02*
D03*
Y99495D02*
D03*
X175745D02*
D03*
Y97527D02*
D03*
Y95558D02*
D03*
Y93590D02*
D03*
Y83747D02*
D03*
Y81779D02*
D03*
Y79810D02*
D03*
Y77842D02*
D03*
Y75873D02*
D03*
Y73905D02*
D03*
D67*
X169600Y121685D02*
D03*
Y132315D02*
D03*
X228100Y119485D02*
D03*
Y130115D02*
D03*
X182000Y119985D02*
D03*
Y130615D02*
D03*
X192300Y54585D02*
D03*
Y65215D02*
D03*
X206400Y65315D02*
D03*
Y54685D02*
D03*
X219300Y56215D02*
D03*
Y45585D02*
D03*
X228500Y56215D02*
D03*
Y45585D02*
D03*
X176100Y60015D02*
D03*
Y49385D02*
D03*
X183800Y59915D02*
D03*
Y49285D02*
D03*
X218700Y127215D02*
D03*
Y116585D02*
D03*
D68*
X363400Y266263D02*
D03*
Y270200D02*
D03*
X241900Y279637D02*
D03*
Y275700D02*
D03*
X123600Y200500D02*
D03*
Y204437D02*
D03*
X100500Y200500D02*
D03*
Y204437D02*
D03*
D69*
X358200Y275956D02*
D03*
Y270444D02*
D03*
X187700Y219844D02*
D03*
Y225356D02*
D03*
X248700Y180856D02*
D03*
Y175344D02*
D03*
X192100Y155056D02*
D03*
Y149544D02*
D03*
X206100Y40644D02*
D03*
Y46156D02*
D03*
D70*
X341056Y262900D02*
D03*
X335544D02*
D03*
X341056Y248200D02*
D03*
X335544D02*
D03*
X341056Y256400D02*
D03*
X335544D02*
D03*
X209056Y177800D02*
D03*
X203544D02*
D03*
X209156Y185000D02*
D03*
X203644D02*
D03*
X209056Y191000D02*
D03*
X203544D02*
D03*
X223156Y220100D02*
D03*
X217644D02*
D03*
X279856Y220600D02*
D03*
X274344D02*
D03*
X248056Y261100D02*
D03*
X242544D02*
D03*
X247056Y25200D02*
D03*
X241544D02*
D03*
D71*
X315337Y277000D02*
D03*
X311400D02*
D03*
X317300Y266800D02*
D03*
X313363D02*
D03*
X305900Y267300D02*
D03*
X301963D02*
D03*
X302000Y271200D02*
D03*
X305937D02*
D03*
X309300Y243700D02*
D03*
X305363D02*
D03*
D72*
X305760Y251576D02*
D03*
X309500D02*
D03*
X313240D02*
D03*
Y261024D02*
D03*
X305760D02*
D03*
D73*
X305753Y277000D02*
D03*
X299847D02*
D03*
X265347Y287500D02*
D03*
X271253D02*
D03*
X242247Y267900D02*
D03*
X248153D02*
D03*
X248653Y169000D02*
D03*
X242747D02*
D03*
X312847Y221900D02*
D03*
X318753D02*
D03*
X315547Y283800D02*
D03*
X321453D02*
D03*
X192053Y144100D02*
D03*
X186147D02*
D03*
X101447Y208500D02*
D03*
X107353D02*
D03*
X118447D02*
D03*
X124353D02*
D03*
D74*
X284600Y277653D02*
D03*
Y271747D02*
D03*
X265500Y260753D02*
D03*
Y254847D02*
D03*
X260000Y260853D02*
D03*
Y254947D02*
D03*
X237900Y228647D02*
D03*
Y234553D02*
D03*
X292800Y216347D02*
D03*
Y222253D02*
D03*
X260000Y221153D02*
D03*
Y215247D02*
D03*
X322600Y208247D02*
D03*
Y214153D02*
D03*
X209600Y220253D02*
D03*
Y214347D02*
D03*
X229300Y220453D02*
D03*
Y214547D02*
D03*
X235800Y220353D02*
D03*
Y214447D02*
D03*
X268800Y220753D02*
D03*
Y214847D02*
D03*
X292800Y208053D02*
D03*
Y202147D02*
D03*
X286300Y208053D02*
D03*
Y202147D02*
D03*
X194300Y46553D02*
D03*
Y40647D02*
D03*
X234700Y278553D02*
D03*
Y272647D02*
D03*
X358100Y262053D02*
D03*
Y256147D02*
D03*
X235800Y25553D02*
D03*
Y19647D02*
D03*
D75*
X265576Y271360D02*
D03*
Y278840D02*
D03*
X275024D02*
D03*
Y275100D02*
D03*
Y271360D02*
D03*
X244376Y220660D02*
D03*
Y228140D02*
D03*
X253824D02*
D03*
Y224400D02*
D03*
Y220660D02*
D03*
X303276Y208360D02*
D03*
Y215840D02*
D03*
X312724D02*
D03*
Y212100D02*
D03*
Y208360D02*
D03*
X335276Y271160D02*
D03*
Y278640D02*
D03*
X344724D02*
D03*
Y274900D02*
D03*
Y271160D02*
D03*
D76*
X204040Y215276D02*
D03*
X196560D02*
D03*
Y224724D02*
D03*
X200300D02*
D03*
X204040D02*
D03*
D77*
X255900Y175046D02*
D03*
Y180754D02*
D03*
X178400Y20954D02*
D03*
Y15246D02*
D03*
X168700Y55954D02*
D03*
Y50246D02*
D03*
X184200Y65546D02*
D03*
Y71254D02*
D03*
X156000Y115846D02*
D03*
Y121554D02*
D03*
X161700Y115746D02*
D03*
Y121454D02*
D03*
X202100Y144046D02*
D03*
Y149754D02*
D03*
D78*
X242346Y253400D02*
D03*
X248054D02*
D03*
X131954Y80700D02*
D03*
X126246D02*
D03*
X132154Y86900D02*
D03*
X126446D02*
D03*
X219754Y62200D02*
D03*
X214046D02*
D03*
X239054Y71700D02*
D03*
X233346D02*
D03*
X186554Y41200D02*
D03*
X180846D02*
D03*
X188346Y71200D02*
D03*
X194054D02*
D03*
X205354D02*
D03*
X199646D02*
D03*
X215754Y71400D02*
D03*
X210046D02*
D03*
X227946Y113700D02*
D03*
X233654D02*
D03*
X230554Y103200D02*
D03*
X224846D02*
D03*
X178446Y112500D02*
D03*
X184154D02*
D03*
X168046Y114000D02*
D03*
X173754D02*
D03*
D79*
X323667Y78400D02*
D03*
X319730D02*
D03*
X323667Y73500D02*
D03*
X319730D02*
D03*
X323667Y118500D02*
D03*
X319730D02*
D03*
X323667Y68700D02*
D03*
X319730D02*
D03*
X98544Y257300D02*
D03*
X102481D02*
D03*
X109932Y252500D02*
D03*
X113868D02*
D03*
X114456Y248000D02*
D03*
X110519D02*
D03*
X159031Y268300D02*
D03*
X162969D02*
D03*
X168832Y258200D02*
D03*
X172768D02*
D03*
X109569Y243900D02*
D03*
X105631D02*
D03*
X157231Y241300D02*
D03*
X161169D02*
D03*
X168931Y239100D02*
D03*
X172869D02*
D03*
X114456Y228100D02*
D03*
X110519D02*
D03*
X285432Y70800D02*
D03*
X289369D02*
D03*
X285432Y75400D02*
D03*
X289369D02*
D03*
X319730Y113367D02*
D03*
X323667D02*
D03*
X108268Y149395D02*
D03*
X104332D02*
D03*
X104332Y90300D02*
D03*
X108268D02*
D03*
X319730Y82900D02*
D03*
X323667D02*
D03*
X319730Y108233D02*
D03*
X323667D02*
D03*
X104332Y96210D02*
D03*
X108268D02*
D03*
X319730Y103100D02*
D03*
X323667D02*
D03*
X108268Y143485D02*
D03*
X104332D02*
D03*
X104332Y102119D02*
D03*
X108268D02*
D03*
X319730Y97967D02*
D03*
X323667D02*
D03*
X108268Y137576D02*
D03*
X104332D02*
D03*
X104332Y108028D02*
D03*
X108268D02*
D03*
X108268Y131666D02*
D03*
X104332D02*
D03*
X108268Y125757D02*
D03*
X104332D02*
D03*
X319730Y92833D02*
D03*
X323667D02*
D03*
X319730Y87700D02*
D03*
X323667D02*
D03*
X108268Y119847D02*
D03*
X104332D02*
D03*
X108268Y113938D02*
D03*
X104332D02*
D03*
X166569Y191600D02*
D03*
X162631D02*
D03*
X166668Y186700D02*
D03*
X162732D02*
D03*
X166469Y181900D02*
D03*
X162531D02*
D03*
D80*
X156900Y233569D02*
D03*
Y229631D02*
D03*
X117400Y261069D02*
D03*
Y257132D02*
D03*
X241600Y64768D02*
D03*
Y60831D02*
D03*
D81*
X159800Y86700D02*
D03*
D82*
X172595Y70755D02*
D03*
X170627D02*
D03*
X168658D02*
D03*
X166690D02*
D03*
X164721D02*
D03*
X162753D02*
D03*
X160784D02*
D03*
X158816D02*
D03*
X156847D02*
D03*
X154879D02*
D03*
X152910D02*
D03*
X150942D02*
D03*
X148973D02*
D03*
X147005D02*
D03*
Y102645D02*
D03*
X148973D02*
D03*
X150942D02*
D03*
X152910D02*
D03*
X154879D02*
D03*
X156847D02*
D03*
X158816D02*
D03*
X160784D02*
D03*
X162753D02*
D03*
X164721D02*
D03*
X166690D02*
D03*
X168658D02*
D03*
X170627D02*
D03*
X172595D02*
D03*
D83*
X98400Y265870D02*
D03*
Y262130D02*
D03*
X103100Y265970D02*
D03*
Y262230D02*
D03*
X145900Y229730D02*
D03*
Y233470D02*
D03*
D84*
X114458Y233346D02*
D03*
X109930D02*
D03*
Y239054D02*
D03*
X114458D02*
D03*
D85*
X150609Y246739D02*
D03*
Y248313D02*
D03*
Y249888D02*
D03*
Y251463D02*
D03*
Y253038D02*
D03*
Y254613D02*
D03*
Y256187D02*
D03*
Y257762D02*
D03*
Y259337D02*
D03*
Y260912D02*
D03*
Y262487D02*
D03*
Y264061D02*
D03*
X126791D02*
D03*
Y262487D02*
D03*
Y260912D02*
D03*
Y259337D02*
D03*
Y257762D02*
D03*
Y256187D02*
D03*
Y254613D02*
D03*
Y253038D02*
D03*
Y251463D02*
D03*
Y249888D02*
D03*
Y248313D02*
D03*
Y246739D02*
D03*
D86*
X147361Y267309D02*
D03*
X145787D02*
D03*
X144212D02*
D03*
X142637D02*
D03*
X141062D02*
D03*
X139487D02*
D03*
X137913D02*
D03*
X136338D02*
D03*
X134763D02*
D03*
X133188D02*
D03*
X131613D02*
D03*
X130039D02*
D03*
Y243491D02*
D03*
X131613D02*
D03*
X133188D02*
D03*
X134763D02*
D03*
X136338D02*
D03*
X137913D02*
D03*
X139487D02*
D03*
X141062D02*
D03*
X142637D02*
D03*
X144212D02*
D03*
X145787D02*
D03*
X147361D02*
D03*
D87*
X138700Y255400D02*
D03*
D88*
X107830Y257100D02*
D03*
X111570D02*
D03*
D89*
X151239Y227647D02*
D03*
Y233553D02*
D03*
X192500Y94847D02*
D03*
Y100753D02*
D03*
X200800Y89853D02*
D03*
Y83947D02*
D03*
D90*
X124900Y228043D02*
D03*
Y233358D02*
D03*
X139800Y232258D02*
D03*
Y226942D02*
D03*
D91*
X82200Y285220D02*
D03*
Y265141D02*
D03*
D92*
X161294Y58172D02*
D03*
X160506Y54628D02*
D03*
D93*
X163754Y56400D02*
D03*
X158046D02*
D03*
D94*
X295694Y161600D02*
D03*
X307505D02*
D03*
D95*
X153500Y287400D02*
D03*
X143500D02*
D03*
X133500D02*
D03*
X123500D02*
D03*
X113500D02*
D03*
X378700Y281800D02*
D03*
X374100Y172800D02*
D03*
X364100Y162800D02*
D03*
X374100D02*
D03*
X364100Y152800D02*
D03*
X374100D02*
D03*
X364100Y142800D02*
D03*
X374100D02*
D03*
X364100Y132800D02*
D03*
X374100D02*
D03*
X364100Y122800D02*
D03*
X374100D02*
D03*
X364100Y112800D02*
D03*
X374100D02*
D03*
X364100Y102800D02*
D03*
X374100D02*
D03*
X364100Y92800D02*
D03*
X374100D02*
D03*
X364100Y82800D02*
D03*
X374100D02*
D03*
X364100Y72800D02*
D03*
X374100D02*
D03*
X364100Y62800D02*
D03*
X374100D02*
D03*
X364100Y52800D02*
D03*
X374100D02*
D03*
X364100Y42800D02*
D03*
X374100D02*
D03*
X364100Y32800D02*
D03*
X374100D02*
D03*
X364100Y22800D02*
D03*
X374100D02*
D03*
X77300Y172300D02*
D03*
X67300Y162300D02*
D03*
X77300D02*
D03*
X67300Y152300D02*
D03*
X77300D02*
D03*
X67300Y142300D02*
D03*
X77300D02*
D03*
X67300Y132300D02*
D03*
X77300D02*
D03*
X67300Y122300D02*
D03*
X77300D02*
D03*
X67300Y112300D02*
D03*
X77300D02*
D03*
X67300Y102300D02*
D03*
X77300D02*
D03*
X67300Y92300D02*
D03*
X77300D02*
D03*
X67300Y82300D02*
D03*
X77300D02*
D03*
X67300Y72300D02*
D03*
X77300D02*
D03*
X67300Y62300D02*
D03*
X77300D02*
D03*
X67300Y52300D02*
D03*
X77300D02*
D03*
X67300Y42300D02*
D03*
X77300D02*
D03*
X67300Y32300D02*
D03*
X77300D02*
D03*
X67300Y22300D02*
D03*
X77300D02*
D03*
X233500Y287500D02*
D03*
X223500D02*
D03*
X213500D02*
D03*
X203500D02*
D03*
X193500D02*
D03*
D96*
X103500Y287400D02*
D03*
X183500Y287500D02*
D03*
D97*
X378700Y271800D02*
D03*
X364100Y172800D02*
D03*
X67300Y172300D02*
D03*
D98*
X196100Y96625D02*
D03*
Y98575D02*
D03*
X210400Y92050D02*
D03*
Y90150D02*
D03*
D99*
X134700Y76800D02*
D03*
X132000Y90300D02*
D03*
X105700Y252300D02*
D03*
Y248000D02*
D03*
X117400Y264200D02*
D03*
X105800Y267700D02*
D03*
X101900Y243900D02*
D03*
X118100Y241500D02*
D03*
D100*
X148973Y97527D02*
D03*
X153304D02*
D03*
X157635D02*
D03*
X161965D02*
D03*
X166296D02*
D03*
X170627D02*
D03*
X148973Y93196D02*
D03*
X153304D02*
D03*
X157635D02*
D03*
X161965D02*
D03*
X166296D02*
D03*
X170627D02*
D03*
X148973Y88865D02*
D03*
X153304D02*
D03*
X157635D02*
D03*
X161965D02*
D03*
X166296D02*
D03*
X170627D02*
D03*
X148973Y84535D02*
D03*
X153304D02*
D03*
X157635D02*
D03*
X161965D02*
D03*
X166296D02*
D03*
X170627D02*
D03*
X148973Y80204D02*
D03*
X153304D02*
D03*
X157635D02*
D03*
X161965D02*
D03*
X166296D02*
D03*
X170627D02*
D03*
X148973Y75873D02*
D03*
X153304D02*
D03*
X157635D02*
D03*
X161965D02*
D03*
X166296D02*
D03*
X170627D02*
D03*
X223073Y76373D02*
D03*
X227404D02*
D03*
X231735D02*
D03*
X236065D02*
D03*
X240396D02*
D03*
X244727D02*
D03*
X223073Y80704D02*
D03*
X227404D02*
D03*
X231735D02*
D03*
X236065D02*
D03*
X240396D02*
D03*
X244727D02*
D03*
X223073Y85035D02*
D03*
X227404D02*
D03*
X231735D02*
D03*
X236065D02*
D03*
X240396D02*
D03*
X244727D02*
D03*
X223073Y89365D02*
D03*
X227404D02*
D03*
X231735D02*
D03*
X236065D02*
D03*
X240396D02*
D03*
X244727D02*
D03*
X223073Y93696D02*
D03*
X227404D02*
D03*
X231735D02*
D03*
X236065D02*
D03*
X240396D02*
D03*
X244727D02*
D03*
X223073Y98027D02*
D03*
X227404D02*
D03*
X231735D02*
D03*
X236065D02*
D03*
X240396D02*
D03*
X244727D02*
D03*
D101*
X145787Y248313D02*
D03*
X141062D02*
D03*
X136338D02*
D03*
X131613D02*
D03*
X145787Y253038D02*
D03*
X141062D02*
D03*
X136338D02*
D03*
X131613D02*
D03*
X145787Y257762D02*
D03*
X141062D02*
D03*
X136338D02*
D03*
X131613D02*
D03*
X145787Y262487D02*
D03*
X141062D02*
D03*
X136338D02*
D03*
X131613D02*
D03*
M02*
