%FSLAX25Y25*%
%MOIN*%
G70*
G01*
G75*
G04 Layer_Color=128*
%ADD10R,0.01969X0.01969*%
%ADD11R,0.05906X0.14173*%
%ADD12R,0.03150X0.02756*%
%ADD13R,0.02756X0.03150*%
%ADD14R,0.01969X0.02362*%
%ADD15R,0.02953X0.05512*%
%ADD16R,0.00787X0.01969*%
%ADD17R,0.03150X0.03543*%
%ADD18R,0.03543X0.02756*%
%ADD19R,0.10236X0.05906*%
%ADD20R,0.02362X0.01969*%
%ADD21R,0.01969X0.01969*%
%ADD22R,0.03150X0.02953*%
%ADD23R,0.01969X0.02559*%
%ADD24R,0.02559X0.01969*%
%ADD25R,0.18504X0.18504*%
%ADD26O,0.00787X0.02559*%
%ADD27O,0.02559X0.00787*%
%ADD28R,0.03347X0.03740*%
%ADD29O,0.03543X0.00984*%
%ADD30O,0.00984X0.03543*%
%ADD31R,0.25590X0.25590*%
%ADD32R,0.03150X0.03150*%
%ADD33R,0.03150X0.03150*%
%ADD34R,0.04134X0.02362*%
%ADD35R,0.03543X0.03150*%
%ADD36R,0.02362X0.04134*%
%ADD37R,0.02362X0.04331*%
%ADD38R,0.06693X0.04331*%
%ADD39C,0.00800*%
%ADD40C,0.00600*%
%ADD41C,0.01200*%
%ADD42C,0.01000*%
%ADD43C,0.01600*%
%ADD44C,0.00400*%
%ADD45R,0.05906X0.05906*%
%ADD46C,0.05906*%
%ADD47R,0.05906X0.05906*%
%ADD48C,0.02000*%
%ADD49C,0.01400*%
%ADD50C,0.01969*%
%ADD51C,0.02598*%
%ADD52C,0.00900*%
%ADD53C,0.04000*%
%ADD54C,0.04743*%
%ADD55C,0.02200*%
%ADD56C,0.01800*%
%ADD57C,0.01600*%
%ADD58C,0.01987*%
%ADD59C,0.02499*%
%ADD60C,0.00394*%
%ADD61C,0.00984*%
%ADD62C,0.00787*%
%ADD63C,0.00500*%
%ADD64R,0.01575X0.01575*%
%ADD65R,0.01575X0.01575*%
%ADD66R,0.02369X0.02369*%
%ADD67R,0.06306X0.14573*%
%ADD68R,0.03550X0.03156*%
%ADD69R,0.03156X0.03550*%
%ADD70R,0.02369X0.02762*%
%ADD71R,0.03353X0.05912*%
%ADD72R,0.01187X0.02369*%
%ADD73R,0.03550X0.03943*%
%ADD74R,0.03943X0.03156*%
%ADD75R,0.10636X0.06306*%
%ADD76R,0.02762X0.02369*%
%ADD77R,0.02369X0.02369*%
%ADD78R,0.03550X0.03353*%
%ADD79R,0.02369X0.02959*%
%ADD80R,0.02959X0.02369*%
%ADD81R,0.18904X0.18904*%
%ADD82O,0.01187X0.02959*%
%ADD83O,0.02959X0.01187*%
%ADD84R,0.03747X0.04140*%
%ADD85O,0.03943X0.01384*%
%ADD86O,0.01384X0.03943*%
%ADD87R,0.25991X0.25991*%
%ADD88R,0.03550X0.03550*%
%ADD89R,0.03550X0.03550*%
%ADD90R,0.04534X0.02762*%
%ADD91R,0.03943X0.03550*%
%ADD92R,0.02762X0.04534*%
%ADD93R,0.02762X0.04731*%
%ADD94R,0.07093X0.04731*%
%ADD95R,0.06306X0.06306*%
%ADD96C,0.06306*%
%ADD97R,0.06306X0.06306*%
%ADD98C,0.02369*%
%ADD99C,0.02998*%
%ADD100C,0.02400*%
%ADD101C,0.01300*%
D12*
X184100Y112554D02*
D03*
Y106846D02*
D03*
X166900Y56446D02*
D03*
Y62154D02*
D03*
X175700Y56246D02*
D03*
Y61954D02*
D03*
X234300Y116154D02*
D03*
Y110446D02*
D03*
D13*
X263854Y84600D02*
D03*
X258146D02*
D03*
X216900Y62200D02*
D03*
X222609D02*
D03*
X207446Y103900D02*
D03*
X213154D02*
D03*
X213346Y111700D02*
D03*
X219054D02*
D03*
X263854Y89300D02*
D03*
X258146D02*
D03*
D14*
X288700Y72031D02*
D03*
Y75968D02*
D03*
X285000Y72031D02*
D03*
Y75968D02*
D03*
X154400Y59832D02*
D03*
Y63769D02*
D03*
D15*
X234754Y57300D02*
D03*
X229046D02*
D03*
D16*
X232294Y55528D02*
D03*
X231506Y59072D02*
D03*
D29*
X217955Y90153D02*
D03*
Y92121D02*
D03*
X249845Y74405D02*
D03*
Y76373D02*
D03*
Y78342D02*
D03*
Y80310D02*
D03*
Y82279D02*
D03*
Y84247D02*
D03*
Y86216D02*
D03*
Y88184D02*
D03*
Y90153D02*
D03*
Y92121D02*
D03*
Y94090D02*
D03*
Y96058D02*
D03*
Y98027D02*
D03*
Y99995D02*
D03*
X217955D02*
D03*
Y98027D02*
D03*
Y96058D02*
D03*
Y94090D02*
D03*
Y84247D02*
D03*
Y82279D02*
D03*
Y80310D02*
D03*
Y78342D02*
D03*
Y76373D02*
D03*
Y74405D02*
D03*
Y88184D02*
D03*
Y86216D02*
D03*
D30*
X221105Y71255D02*
D03*
X223073D02*
D03*
X225042D02*
D03*
X227010D02*
D03*
X228979D02*
D03*
X230947D02*
D03*
X232916D02*
D03*
X234884D02*
D03*
X236853D02*
D03*
X238821D02*
D03*
X240790D02*
D03*
X242758D02*
D03*
X244727D02*
D03*
X246695D02*
D03*
Y103145D02*
D03*
X244727D02*
D03*
X242758D02*
D03*
X240790D02*
D03*
X238821D02*
D03*
X236853D02*
D03*
X234884D02*
D03*
X232916D02*
D03*
X230947D02*
D03*
X228979D02*
D03*
X227010D02*
D03*
X225042D02*
D03*
X223073D02*
D03*
X221105D02*
D03*
D31*
X233900Y87200D02*
D03*
D32*
X260000Y221247D02*
D03*
Y227153D02*
D03*
M02*
