%FSTAX25Y25*%
%MOIN*%
%SFA1B1*%

%IPPOS*%
%ADD57C,0.018000*%
%ADD66O,0.039430X0.013840*%
%ADD74R,0.035500X0.035500*%
%ADD77R,0.035500X0.031560*%
%ADD78R,0.031560X0.035500*%
%ADD80R,0.023690X0.027620*%
%ADD81R,0.259910X0.259910*%
%ADD82O,0.013840X0.039430*%
%ADD92R,0.011870X0.023690*%
%ADD93R,0.033530X0.059120*%
%ADD95C,0.063060*%
%ADD96R,0.063060X0.063060*%
%ADD97R,0.063060X0.063060*%
%ADD98C,0.013000*%
%ADD99C,0.024000*%
%ADD100C,0.023690*%
%ADD101C,0.029980*%
%LNhighspeed_v0-1*%
%LPD*%
G54D57*
X01206Y00807D03*
X01202Y00862D03*
X02064Y00765D03*
X01214Y0259D03*
X0121Y02619D03*
X01818Y00754D03*
X0194Y00759D03*
X01996Y0076D03*
X02117D03*
X01234Y02547D03*
G54D66*
X0217955Y0086216D03*
Y0088184D03*
Y0074405D03*
Y0076373D03*
Y0078342D03*
Y008031D03*
Y0082279D03*
Y0084247D03*
Y009409D03*
Y0096058D03*
Y0098027D03*
Y0099995D03*
X0249845D03*
Y0098027D03*
Y0096058D03*
Y009409D03*
Y0092121D03*
Y0090153D03*
Y0088184D03*
Y0086216D03*
Y0084247D03*
Y0082279D03*
Y008031D03*
Y0078342D03*
Y0076373D03*
Y0074405D03*
X0217955Y0092121D03*
Y0090153D03*
G54D74*
X026Y0227153D03*
Y0221247D03*
G54D77*
X02343Y0110446D03*
Y0116154D03*
X01757Y0061954D03*
Y0056246D03*
X01669Y0062154D03*
Y0056446D03*
X01841Y0106846D03*
Y0112554D03*
G54D78*
X0258146Y00893D03*
X0263854D03*
X0219054Y01117D03*
X0213346D03*
X0213154Y01039D03*
X0207446D03*
X0222609Y00622D03*
X02169D03*
X0258146Y00846D03*
X0263854D03*
G54D80*
X01544Y0063769D03*
Y0059832D03*
X0285Y0075968D03*
Y0072031D03*
X02887Y0075968D03*
Y0072031D03*
G54D81*
X02339Y00872D03*
G54D82*
X0221105Y0103145D03*
X0223073D03*
X0225042D03*
X022701D03*
X0228979D03*
X0230947D03*
X0232916D03*
X0234884D03*
X0236853D03*
X0238821D03*
X024079D03*
X0242758D03*
X0244727D03*
X0246695D03*
Y0071255D03*
X0244727D03*
X0242758D03*
X024079D03*
X0238821D03*
X0236853D03*
X0234884D03*
X0232916D03*
X0230947D03*
X0228979D03*
X022701D03*
X0225042D03*
X0223073D03*
X0221105D03*
G54D92*
X0231506Y0059072D03*
X0232294Y0055528D03*
G54D93*
X0229046Y00573D03*
X0234754D03*
G54D95*
X01535Y02874D03*
X01435D03*
X01335D03*
X01235D03*
X01135D03*
X03787Y02818D03*
X03741Y01728D03*
X03641Y01628D03*
X03741D03*
X03641Y01528D03*
X03741D03*
X03641Y01428D03*
X03741D03*
X03641Y01328D03*
X03741D03*
X03641Y01228D03*
X03741D03*
X03641Y01128D03*
X03741D03*
X03641Y01028D03*
X03741D03*
X03641Y00928D03*
X03741D03*
X03641Y00828D03*
X03741D03*
X03641Y00728D03*
X03741D03*
X03641Y00628D03*
X03741D03*
X03641Y00528D03*
X03741D03*
X03641Y00428D03*
X03741D03*
X03641Y00328D03*
X03741D03*
X03641Y00228D03*
X03741D03*
X00773Y01723D03*
X00673Y01623D03*
X00773D03*
X00673Y01523D03*
X00773D03*
X00673Y01423D03*
X00773D03*
X00673Y01323D03*
X00773D03*
X00673Y01223D03*
X00773D03*
X00673Y01123D03*
X00773D03*
X00673Y01023D03*
X00773D03*
X00673Y00923D03*
X00773D03*
X00673Y00823D03*
X00773D03*
X00673Y00723D03*
X00773D03*
X00673Y00623D03*
X00773D03*
X00673Y00523D03*
X00773D03*
X00673Y00423D03*
X00773D03*
X00673Y00323D03*
X00773D03*
X00673Y00223D03*
X00773D03*
X02335Y02875D03*
X02235D03*
X02135D03*
X02035D03*
X01935D03*
G54D96*
X01035Y02874D03*
X01835Y02875D03*
G54D97*
X03787Y02718D03*
X03641Y01728D03*
X00673Y01723D03*
G54D98*
X01961Y0096625D03*
Y0098575D03*
X02104Y009205D03*
Y009015D03*
G54D99*
X01347Y00768D03*
X0132Y00903D03*
X01057Y02523D03*
Y0248D03*
X01174Y02642D03*
X01058Y02677D03*
X01019Y02439D03*
X01181Y02415D03*
G54D100*
X0148973Y0097527D03*
X0153304D03*
X0157635D03*
X0161965D03*
X0166296D03*
X0170627D03*
X0148973Y0093196D03*
X0153304D03*
X0157635D03*
X0161965D03*
X0166296D03*
X0170627D03*
X0148973Y0088865D03*
X0153304D03*
X0157635D03*
X0161965D03*
X0166296D03*
X0170627D03*
X0148973Y0084535D03*
X0153304D03*
X0157635D03*
X0161965D03*
X0166296D03*
X0170627D03*
X0148973Y0080204D03*
X0153304D03*
X0157635D03*
X0161965D03*
X0166296D03*
X0170627D03*
X0148973Y0075873D03*
X0153304D03*
X0157635D03*
X0161965D03*
X0166296D03*
X0170627D03*
X0223073Y0076373D03*
X0227404D03*
X0231735D03*
X0236065D03*
X0240396D03*
X0244727D03*
X0223073Y0080704D03*
X0227404D03*
X0231735D03*
X0236065D03*
X0240396D03*
X0244727D03*
X0223073Y0085035D03*
X0227404D03*
X0231735D03*
X0236065D03*
X0240396D03*
X0244727D03*
X0223073Y0089365D03*
X0227404D03*
X0231735D03*
X0236065D03*
X0240396D03*
X0244727D03*
X0223073Y0093696D03*
X0227404D03*
X0231735D03*
X0236065D03*
X0240396D03*
X0244727D03*
X0223073Y0098027D03*
X0227404D03*
X0231735D03*
X0236065D03*
X0240396D03*
X0244727D03*
G54D101*
X0145787Y0248313D03*
X0141062D03*
X0136338D03*
X0131613D03*
X0145787Y0253038D03*
X0141062D03*
X0136338D03*
X0131613D03*
X0145787Y0257762D03*
X0141062D03*
X0136338D03*
X0131613D03*
X0145787Y0262487D03*
X0141062D03*
X0136338D03*
X0131613D03*
M02*