%FSTAX25Y25*%
%MOIN*%
%SFA1B1*%

%IPPOS*%
%ADD9500C,0.004000*%
%ADD9501C,0.006000*%
%ADD9502C,0.007870*%
%ADD9503C,0.010000*%
%ADD9504C,0.012990*%
%ADD9505C,0.035430*%
%LNhighspeed_v0-plated-1*%
%LPD*%
G54D9500*
X01961Y0096625D03*
Y0098575D03*
X02104Y009205D03*
Y009015D03*
X03209Y02668D03*
G54D9501*
X01783Y00109D03*
X01808Y00365D03*
X01943Y00362D03*
X02359Y00153D03*
X02335Y00517D03*
X02309Y0065D03*
X02328Y00672D03*
X02353D03*
X02262Y00615D03*
X02201Y00664D03*
X02562Y00714D03*
X02559Y00764D03*
X02598Y00684D03*
X02621Y00645D03*
X02638Y00605D03*
X02663Y00585D03*
X02685Y00666D03*
X0273Y00632D03*
X02714Y00846D03*
X027Y00895D03*
X02541Y009D03*
X02543Y0092D03*
X02555Y00937D03*
X02551Y00961D03*
X02525Y01033D03*
X02455Y01065D03*
X02442Y01079D03*
X02428Y01092D03*
X02412Y01102D03*
X02369Y01068D03*
X02348Y01071D03*
X02304Y01075D03*
X02272Y01092D03*
X02231Y01081D03*
X02184Y01067D03*
X02342Y01202D03*
X02359Y01691D03*
X0216Y0178D03*
X02161Y01851D03*
X02159Y0191D03*
X0260446Y0180754D03*
X02862Y01966D03*
X02928Y01975D03*
X01688Y01949D03*
X01716Y01867D03*
X01736Y01819D03*
X01579Y01917D03*
X0127Y01965D03*
X01559Y0126D03*
X01617Y01261D03*
X01653Y01158D03*
X0164779Y0107979D03*
X01687Y01079D03*
X0177Y01071D03*
X01737Y01181D03*
X01881Y01125D03*
X02077Y01115D03*
X02043Y0107D03*
X02064Y00765D03*
X02117Y0076D03*
X01996D03*
X0194Y00759D03*
X01818Y00754D03*
X01668Y0066D03*
X01627Y00649D03*
X0165Y00508D03*
X01591D03*
X01705Y00456D03*
X01405Y00655D03*
X01367Y00668D03*
X01334Y00671D03*
X01234Y0062D03*
X01255Y00562D03*
X01172Y0054D03*
X01189Y00521D03*
X01155Y00589D03*
X01206Y00807D03*
X01202Y00862D03*
X01381Y00897D03*
X02122Y00585D03*
X02071Y01498D03*
X01861Y01485D03*
X01825Y02199D03*
X02003Y0231D03*
X02127Y02358D03*
X02154Y0236D03*
X02089Y02461D03*
X02033Y02459D03*
X02058Y02491D03*
X0191Y02561D03*
Y02606D03*
X01841Y02626D03*
X01809Y02644D03*
X01783Y02661D03*
X01776Y02798D03*
X01753Y02795D03*
X01727Y02784D03*
X01709Y02762D03*
X01682Y02749D03*
X01595Y02578D03*
X01581Y02561D03*
X0156787Y0254613D03*
X01554Y02533D03*
X0155637Y0251463D03*
X01417Y024D03*
X01409Y02373D03*
X01379Y0237D03*
X01348Y02361D03*
X01315Y02363D03*
X01282Y02371D03*
X01234Y02547D03*
X01214Y0259D03*
X0121Y02619D03*
X01293Y02085D03*
X01114D03*
X01102Y02007D03*
X02094Y02096D03*
X0187987Y0254613D03*
X0186Y02531D03*
X0184537Y0251463D03*
X02378Y02392D03*
X02481Y02482D03*
X02559Y02548D03*
X02483Y02724D03*
X02306Y02738D03*
X02703Y02751D03*
X02764Y02874D03*
X02999Y02814D03*
X03057Y02813D03*
X02986Y02711D03*
X02939Y02717D03*
X03212Y02879D03*
X03243Y02218D03*
X03288Y02142D03*
X03174Y0212D03*
X03224Y02028D03*
X02928Y02267D03*
X02649Y0228D03*
X02638Y02212D03*
X026Y02108D03*
X02687Y02106D03*
X02494Y02244D03*
X02362Y02086D03*
X0229Y02095D03*
G54D9502*
X0223073Y0076373D03*
X0227404D03*
X0231735D03*
X0236065D03*
X0240396D03*
X0244727D03*
Y0080704D03*
X0240396D03*
X0236065D03*
X0231735D03*
X0227404D03*
X0223073D03*
Y0085035D03*
X0227404D03*
X0231735D03*
X0236065D03*
X0240396D03*
X0244727D03*
Y0089365D03*
Y0093696D03*
X0240396D03*
Y0089365D03*
X0236065D03*
Y0093696D03*
X0231735D03*
Y0089365D03*
X0227404D03*
Y0093696D03*
X0223073D03*
Y0089365D03*
Y0098027D03*
X0227404D03*
X0231735D03*
X0236065D03*
X0240396D03*
X0244727D03*
X0170627Y0097527D03*
X0166296D03*
X0161965D03*
X0157635D03*
X0153304D03*
X0148973D03*
Y0093196D03*
Y0088865D03*
X0153304D03*
Y0093196D03*
X0157635D03*
Y0088865D03*
X0161965D03*
Y0093196D03*
X0166296D03*
Y0088865D03*
X0170627D03*
Y0093196D03*
Y0084535D03*
X0166296D03*
X0161965D03*
X0157635D03*
X0153304D03*
X0148973D03*
Y0080204D03*
X0153304D03*
X0157635D03*
X0161965D03*
X0166296D03*
X0170627D03*
Y0075873D03*
X0166296D03*
X0161965D03*
X0157635D03*
X0153304D03*
X0148973D03*
G54D9503*
X01783Y00248D03*
X02126Y00406D03*
X02234Y00387D03*
X02298Y00366D03*
X02291Y00252D03*
X02527Y00253D03*
X02329Y00631D03*
X02268Y00671D03*
X0223Y00675D03*
X02157Y00673D03*
X02541Y00829D03*
X02591Y0094D03*
X02385Y01149D03*
X02284Y01379D03*
X0219Y01382D03*
X02488Y01636D03*
X02557Y01702D03*
X02486Y01875D03*
X01957Y01907D03*
X01993Y01764D03*
X01984Y01551D03*
X02021Y01389D03*
X01921Y01387D03*
X01793Y01377D03*
X01689Y01409D03*
X0151Y0118D03*
X01803Y01069D03*
X0213346Y0107154D03*
X01769Y00671D03*
X01712Y00621D03*
X01603Y0062D03*
X01761Y00459D03*
X01838Y00453D03*
X01347Y00768D03*
X0132Y00903D03*
X01249Y02228D03*
X01395Y02226D03*
X0157Y02241D03*
X0160337Y02334D03*
X01611Y0238D03*
X01771Y02391D03*
X01779Y0258D03*
X01675Y02684D03*
X0159Y02728D03*
X01174Y02642D03*
X01058Y02677D03*
X00984Y02707D03*
X01057Y02523D03*
Y0248D03*
X01019Y02439D03*
X01062Y02334D03*
X01061Y02281D03*
X01181Y02415D03*
X01303Y02331D03*
X02333Y02535D03*
X0234Y02678D03*
X03095Y02559D03*
X03192Y02516D03*
X03292Y02482D03*
X03296Y02565D03*
X03293Y02628D03*
X03468Y02564D03*
X03526Y02556D03*
X03461Y02478D03*
X03502Y02747D03*
X03582Y02813D03*
X0344724Y0287124D03*
X03127Y02437D03*
X03054Y02402D03*
G54D9504*
X0131613Y0248313D03*
Y0253038D03*
X0136338D03*
Y0248313D03*
X0141062D03*
X0145787D03*
Y0253038D03*
X0141062D03*
Y0257762D03*
X0145787D03*
Y0262487D03*
X0141062D03*
X0136338D03*
Y0257762D03*
X0131613D03*
Y0262487D03*
G54D9505*
X00673Y00223D03*
Y00323D03*
Y00423D03*
X00773D03*
Y00323D03*
Y00223D03*
X03641Y00228D03*
Y00328D03*
Y00428D03*
X03741D03*
Y00328D03*
Y00228D03*
Y00528D03*
Y00628D03*
Y00728D03*
Y00828D03*
Y00928D03*
Y01028D03*
Y01128D03*
Y01228D03*
Y01328D03*
Y01428D03*
Y01528D03*
Y01628D03*
Y01728D03*
X03641D03*
Y01628D03*
Y01528D03*
Y01428D03*
Y01328D03*
Y01228D03*
Y01128D03*
Y01028D03*
Y00928D03*
Y00828D03*
Y00728D03*
Y00628D03*
Y00528D03*
X00773Y00523D03*
Y00623D03*
Y00723D03*
Y00823D03*
Y00923D03*
Y01023D03*
Y01123D03*
Y01223D03*
Y01323D03*
Y01423D03*
Y01523D03*
Y01623D03*
Y01723D03*
X00673D03*
Y01623D03*
Y01523D03*
Y01423D03*
Y01323D03*
Y01223D03*
Y01123D03*
Y01023D03*
Y00923D03*
Y00823D03*
Y00723D03*
Y00623D03*
Y00523D03*
X01035Y02874D03*
X01135D03*
X01235D03*
X01335D03*
X01435D03*
X01535D03*
X01835Y02875D03*
X01935D03*
X02035D03*
X02135D03*
X02235D03*
X02335D03*
X03787Y02818D03*
Y02718D03*
M02*