%FSTAX25Y25*%
%MOIN*%
%SFA1B1*%

%IPPOS*%
%ADD40C,0.010000*%
%ADD53C,0.040000*%
%ADD54C,0.047430*%
%ADD55C,0.016000*%
%ADD56C,0.022000*%
%ADD57C,0.018000*%
%LNhighspeed_v0-1*%
%LPD*%
G36*
X00962Y0294899D02*
Y0241D01*
X00589*
Y0294899*
X00962*
G37*
G54D40*
X0160337Y02334D02*
X01606D01*
G54D53*
X0059Y02949D02*
X0388Y0294902D01*
X0059Y00063D02*
Y02949D01*
Y00063D02*
X0388D01*
Y0294902D02*
Y00063D01*
G54D54*
X01435Y02874D03*
X01235D03*
X01135D03*
X01035D03*
X03787Y02718D03*
X03741Y01728D03*
Y01528D03*
Y01428D03*
Y01328D03*
Y01228D03*
Y01028D03*
Y00928D03*
Y00728D03*
Y00628D03*
Y00528D03*
Y00428D03*
Y00328D03*
Y00228D03*
X00773Y01723D03*
Y01523D03*
Y01423D03*
Y01323D03*
Y01223D03*
Y01023D03*
Y00923D03*
Y00723D03*
Y00623D03*
Y00523D03*
Y00423D03*
Y00323D03*
Y00223D03*
X02235Y02875D03*
X02135D03*
X02035D03*
X01935D03*
X01835D03*
G54D55*
X01961Y0096625D03*
Y0098575D03*
X02104Y009205D03*
Y009015D03*
G54D56*
X02234Y00387D03*
X02298Y00366D03*
X01689Y01409D03*
X01793Y01377D03*
X0219Y01382D03*
X02284Y01379D03*
X01712Y00621D03*
X01347Y00768D03*
X01803Y01069D03*
X0213346Y0107154D03*
X02527Y00253D03*
X02126Y00406D03*
X02486Y01875D03*
X02385Y01149D03*
X0132Y00903D03*
X02157Y00673D03*
X01603Y0062D03*
X02329Y00631D03*
X02488Y01636D03*
X01921Y01387D03*
X01838Y00453D03*
X02291Y00252D03*
X0159Y02728D03*
X0160337Y02334D03*
X03293Y02628D03*
X03296Y02565D03*
X03292Y02482D03*
X03192Y02516D03*
X03054Y02402D03*
X01957Y01907D03*
X01993Y01764D03*
X01984Y01551D03*
X02557Y01702D03*
X01783Y00248D03*
X02021Y01389D03*
X01303Y02331D03*
X0344724Y0287124D03*
X0234Y02678D03*
X02333Y02535D03*
X0151Y0118D03*
X0223Y00675D03*
X02541Y00829D03*
X01769Y00671D03*
X02268D03*
X02591Y0094D03*
X01761Y00459D03*
G54D57*
X02262Y00615D03*
X02304Y01075D03*
X01627Y00649D03*
X02353Y00672D03*
X02328D03*
X02309Y0065D03*
X02562Y00714D03*
X02559Y00764D03*
X01367Y00668D03*
X01334Y00671D03*
X01381Y00897D03*
X02541Y009D03*
X02543Y0092D03*
X02551Y00961D03*
X02525Y01033D03*
X02455Y01065D03*
X02442Y01079D03*
X02412Y01102D03*
X02428Y01092D03*
X02369Y01068D03*
X02348Y01071D03*
X02638Y00605D03*
X02663Y00585D03*
X0273Y00632D03*
X02621Y00645D03*
X02685Y00666D03*
X0191Y02606D03*
Y02561D03*
X0187987Y0254613D03*
X01595Y02578D03*
X01581Y02561D03*
X0156787Y0254613D03*
X01554Y02533D03*
X0155637Y0251463D03*
X01189Y00521D03*
X01172Y0054D03*
X01155Y00589D03*
X01776Y02798D03*
X01753Y02795D03*
X01727Y02784D03*
X01709Y02762D03*
X01682Y02749D03*
X01653Y01158D03*
X01668Y0066D03*
X02064Y00765D03*
X02201Y00664D03*
X02272Y01092D03*
X02231Y01081D03*
X02638Y02212D03*
X02649Y0228D03*
X03243Y02218D03*
X03057Y02813D03*
X02939Y02717D03*
X03224Y02028D03*
X01214Y0259D03*
X0127Y01965D03*
X0121Y02619D03*
X01102Y02007D03*
X01841Y02626D03*
X01809Y02644D03*
X01783Y02661D03*
X01688Y01949D03*
X01716Y01867D03*
X01736Y01819D03*
X0184537Y0251463D03*
X0186Y02531D03*
X01405Y00655D03*
X02598Y00684D03*
X01234Y0062D03*
X01255Y00562D03*
X01379Y0237D03*
X01282Y02371D03*
X01315Y02363D03*
X01348Y02361D03*
X01409Y02373D03*
X02033Y02459D03*
X02058Y02491D03*
X02089Y02461D03*
X02127Y02358D03*
X02154Y0236D03*
X02555Y00937D03*
M02*