%FSTAX25Y25*%
%MOIN*%
%SFA1B1*%

%IPPOS*%
%ADD41C,0.008000*%
%ADD53C,0.040000*%
%ADD54C,0.047430*%
%ADD55C,0.016000*%
%ADD56C,0.022000*%
%ADD57C,0.018000*%
%ADD58C,0.019870*%
%ADD59C,0.024990*%
%LNhighspeed_v0-1*%
%LPD*%
G36*
X00962Y0294899D02*
Y0241D01*
X00589*
Y0294899*
X00962*
G37*
G54D41*
X02239Y01074D02*
X02264Y01099D01*
X0215425Y01138D02*
X02337D01*
X02403Y01204*
Y01477*
X0209225Y012D02*
X0215425Y01138D01*
X01416Y01105D02*
Y012D01*
X01287Y01913D02*
Y01971D01*
X00979Y02279D02*
X01287Y01971D01*
X02263Y00673D02*
Y007745D01*
X02239Y007985D02*
X02263Y007745D01*
X02264Y01099D02*
X02331D01*
X02239Y007985D02*
Y01074D01*
X02234Y00644D02*
X02263Y00673D01*
X02583Y01201D02*
X02746Y01038D01*
X01632Y0077D02*
X01644D01*
X01535Y00867D02*
X0157125Y0083075D01*
X01644Y0077D02*
X01677D01*
X0157125Y0083075D02*
X01632Y0077D01*
X0133Y00867D02*
X01535D01*
X01287Y00559D02*
X02578D01*
X02746Y00727*
Y01038*
X01652Y02241D02*
X01828Y02417D01*
X0286492*
X02304Y01576D02*
Y0175D01*
Y01576D02*
X02363Y01517D01*
X02583Y01201D02*
Y01775D01*
X02329D02*
X02583D01*
X02304Y0175D02*
X02329Y01775D01*
X02363Y01517D02*
X02403Y01477D01*
X02301Y01272D02*
Y01441D01*
X01644Y01272D02*
X02301D01*
X01644D02*
Y01441D01*
X02301*
X01862Y00335D02*
X02159D01*
X01862D02*
Y00494D01*
X01609D02*
X01862D01*
X01593Y00478D02*
X01609Y00494D01*
X01593Y00216D02*
Y00478D01*
Y00216D02*
X01626Y00183D01*
X02299*
X02342Y00226*
Y00439*
X02174D02*
X02342D01*
X02174Y0035D02*
Y00439D01*
X02159Y00335D02*
X02174Y0035D01*
X0235Y00559D02*
Y00665D01*
X02134Y00559D02*
X0235D01*
X02611Y00871D02*
Y00953D01*
X0243Y00847D02*
X02454Y00871D01*
X02611*
X01416Y0091D02*
X01543D01*
X01416D02*
Y00947D01*
Y02005D02*
X01652Y02241D01*
X01416Y0195592D02*
Y02005D01*
X02869Y01963D02*
X03882D01*
X0133Y00752D02*
Y00867D01*
X01416Y00947D02*
Y0195592D01*
Y012D02*
X0209225D01*
X01692Y00644D02*
X02234D01*
X0235Y00665D02*
Y00767D01*
X0243Y00847*
X02362Y00953D02*
X02611D01*
X02331Y00984D02*
X02362Y00953D01*
X02331Y00984D02*
Y01099D01*
X01602Y00644D02*
X01692D01*
X01438D02*
X01602D01*
X0133Y00752D02*
X01438Y00644D01*
X01677Y0077D02*
Y01135D01*
X01543Y0091D02*
X01621Y00988D01*
Y01135*
X01677*
X02869Y0293D02*
X02886Y02947D01*
X02869Y02292D02*
Y0293D01*
Y01963D02*
Y0262D01*
X00589Y02945D02*
X00979D01*
Y02292D02*
Y02945D01*
X03456Y02666D02*
X0388D01*
X03406Y02716D02*
X03456Y02666D01*
X03406Y02716D02*
Y02947D01*
X03083Y02719D02*
X03402D01*
X03013Y02649D02*
X03083Y02719D01*
X03013Y02388D02*
Y02649D01*
Y02388D02*
X0305Y02351D01*
X03314*
X03336Y02329*
X03493Y02172*
X0388*
X01287Y00063D02*
Y01913D01*
X00979Y02279D02*
Y02291D01*
G54D53*
X0059Y02949D02*
X0388Y0294902D01*
X0059Y00063D02*
Y02949D01*
Y00063D02*
X0388D01*
Y0294902D02*
Y00063D01*
G54D54*
X01535Y02874D03*
X01435D03*
X01335D03*
X01235D03*
X01135D03*
X03787Y02818D03*
X03641Y01728D03*
X03741D03*
X03641Y01628D03*
X03741D03*
X03641Y01528D03*
X03741D03*
X03641Y01428D03*
X03741D03*
X03641Y01328D03*
X03741D03*
X03641Y01228D03*
X03741D03*
X03641Y01128D03*
X03741D03*
X03641Y01028D03*
X03741D03*
X03641Y00928D03*
X03741D03*
X03641Y00828D03*
X03741D03*
X03641Y00728D03*
X03741D03*
X03641Y00628D03*
X03741D03*
X03641Y00528D03*
X03741D03*
X03641Y00428D03*
X03741D03*
X03641Y00328D03*
X03741D03*
X03641Y00228D03*
X03741D03*
X00673Y01723D03*
X00773D03*
X00673Y01623D03*
X00773D03*
X00673Y01523D03*
X00773D03*
X00673Y01423D03*
X00773D03*
X00673Y01323D03*
X00773D03*
X00673Y01223D03*
X00773D03*
X00673Y01123D03*
X00773D03*
X00673Y01023D03*
X00773D03*
X00673Y00923D03*
X00773D03*
X00673Y00823D03*
X00773D03*
X00673Y00723D03*
X00773D03*
X00673Y00623D03*
X00773D03*
X00673Y00523D03*
X00773D03*
X00673Y00423D03*
X00773D03*
X00673Y00323D03*
X00773D03*
X00673Y00223D03*
X00773D03*
X02335Y02875D03*
X02235D03*
X02135D03*
X02035D03*
X01935D03*
X01835D03*
G54D55*
X01961Y0096625D03*
Y0098575D03*
X02104Y009205D03*
Y009015D03*
X03209Y02668D03*
G54D56*
X01712Y00621D03*
X00984Y02707D03*
X0157Y02241D03*
X01675Y02684D03*
X01611Y0238D03*
X01779Y0258D03*
X01771Y02391D03*
X01249Y02228D03*
X01395Y02226D03*
X01057Y02523D03*
Y0248D03*
X01174Y02642D03*
X01058Y02677D03*
X01019Y02439D03*
X01061Y02281D03*
X01062Y02334D03*
X01181Y02415D03*
X03502Y02747D03*
X03582Y02813D03*
X03526Y02556D03*
X03461Y02478D03*
X03468Y02564D03*
X03127Y02437D03*
X03095Y02559D03*
X02268Y00671D03*
G54D57*
X02262Y00615D03*
X02342Y01202D03*
X0177Y01071D03*
X01737Y01181D03*
X01627Y00649D03*
X02353Y00672D03*
X02328D03*
X02309Y0065D03*
X02562Y00714D03*
X02559Y00764D03*
X01367Y00668D03*
X01334Y00671D03*
X02184Y01067D03*
X02043Y0107D03*
X02077Y01115D03*
X02359Y00153D03*
X0165Y00508D03*
X01705Y00456D03*
X01943Y00362D03*
X01381Y00897D03*
X02541Y009D03*
X02543Y0092D03*
X02551Y00961D03*
X02525Y01033D03*
X02455Y01065D03*
X02442Y01079D03*
X02412Y01102D03*
X02428Y01092D03*
X02369Y01068D03*
X02348Y01071D03*
X02638Y00605D03*
X02663Y00585D03*
X0273Y00632D03*
X02621Y00645D03*
X02685Y00666D03*
X0191Y02606D03*
Y02561D03*
X0187987Y0254613D03*
X01595Y02578D03*
X01581Y02561D03*
X0156787Y0254613D03*
X01554Y02533D03*
X0155637Y0251463D03*
X01189Y00521D03*
X01172Y0054D03*
X01155Y00589D03*
X01776Y02798D03*
X01753Y02795D03*
X01727Y02784D03*
X01709Y02762D03*
X01682Y02749D03*
X01617Y01261D03*
X01559Y0126D03*
X01881Y01125D03*
X01687Y01079D03*
X0164779Y0107979D03*
X01653Y01158D03*
X01206Y00807D03*
X01202Y00862D03*
X01668Y0066D03*
X02064Y00765D03*
X027Y00895D03*
X02201Y00664D03*
X02272Y01092D03*
X02231Y01081D03*
X02714Y00846D03*
X01591Y00508D03*
X02335Y00517D03*
X02359Y01691D03*
X01861Y01485D03*
X02986Y02711D03*
X0229Y02095D03*
X02362Y02086D03*
X02094Y02096D03*
X02378Y02392D03*
X02638Y02212D03*
X02649Y0228D03*
X02862Y01966D03*
X02928Y01975D03*
Y02267D03*
X03288Y02142D03*
X03174Y0212D03*
X03212Y02879D03*
X02999Y02814D03*
X02703Y02751D03*
X02764Y02874D03*
X02559Y02548D03*
X02483Y02724D03*
X02306Y02738D03*
X02003Y0231D03*
X01825Y02199D03*
X02159Y0191D03*
X02161Y01851D03*
X0216Y0178D03*
X02687Y02106D03*
X026Y02108D03*
X02494Y02244D03*
X01293Y02085D03*
X01214Y0259D03*
X0127Y01965D03*
X0121Y02619D03*
X01102Y02007D03*
X01114Y02085D03*
X01818Y00754D03*
X0194Y00759D03*
X01996Y0076D03*
X02117D03*
X02122Y00585D03*
X01841Y02626D03*
X01809Y02644D03*
X01783Y02661D03*
X01688Y01949D03*
X01716Y01867D03*
X01736Y01819D03*
X0184537Y0251463D03*
X0186Y02531D03*
X01405Y00655D03*
X01579Y01917D03*
X02481Y02482D03*
X0260446Y0180754D03*
X01783Y00109D03*
X01808Y00365D03*
X02071Y01498D03*
X01417Y024D03*
X01234Y02547D03*
X02598Y00684D03*
X01234Y0062D03*
X01255Y00562D03*
X01379Y0237D03*
X01282Y02371D03*
X01315Y02363D03*
X01348Y02361D03*
X01409Y02373D03*
X02033Y02459D03*
X02058Y02491D03*
X02089Y02461D03*
X02127Y02358D03*
X02154Y0236D03*
X02555Y00937D03*
G54D58*
X0148973Y0097527D03*
X0153304D03*
X0157635D03*
X0161965D03*
X0166296D03*
X0170627D03*
X0148973Y0093196D03*
X0153304D03*
X0157635D03*
X0161965D03*
X0166296D03*
X0170627D03*
X0148973Y0088865D03*
X0153304D03*
X0157635D03*
X0161965D03*
X0166296D03*
X0170627D03*
X0148973Y0084535D03*
X0153304D03*
X0157635D03*
X0161965D03*
X0166296D03*
X0170627D03*
X0148973Y0080204D03*
X0153304D03*
X0157635D03*
X0161965D03*
X0166296D03*
X0170627D03*
X0148973Y0075873D03*
X0153304D03*
X0157635D03*
X0161965D03*
X0166296D03*
X0170627D03*
X0223073Y0076373D03*
X0227404D03*
X0231735D03*
X0236065D03*
X0240396D03*
X0244727D03*
X0223073Y0080704D03*
X0227404D03*
X0231735D03*
X0236065D03*
X0240396D03*
X0244727D03*
X0223073Y0085035D03*
X0227404D03*
X0231735D03*
X0236065D03*
X0240396D03*
X0244727D03*
X0223073Y0089365D03*
X0227404D03*
X0231735D03*
X0236065D03*
X0240396D03*
X0244727D03*
X0223073Y0093696D03*
X0227404D03*
X0231735D03*
X0236065D03*
X0240396D03*
X0244727D03*
X0223073Y0098027D03*
X0227404D03*
X0231735D03*
X0236065D03*
X0240396D03*
X0244727D03*
G54D59*
X0145787Y0248313D03*
X0141062D03*
X0136338D03*
X0131613D03*
X0145787Y0253038D03*
X0141062D03*
X0136338D03*
X0131613D03*
X0145787Y0257762D03*
X0141062D03*
X0136338D03*
X0131613D03*
X0145787Y0262487D03*
X0141062D03*
X0136338D03*
X0131613D03*
M02*