%FSTAX25Y25*%
%MOIN*%
%SFA1B1*%

%IPPOS*%
%ADD10O,0.035430X0.009840*%
%ADD11R,0.066930X0.043310*%
%ADD13R,0.035430X0.031500*%
%ADD14R,0.031500X0.035430*%
%ADD16R,0.023620X0.043310*%
%ADD17R,0.031500X0.031500*%
%ADD18R,0.031500X0.031500*%
%ADD19R,0.041340X0.023620*%
%ADD20R,0.023620X0.041340*%
%ADD21R,0.031500X0.027560*%
%ADD22R,0.027560X0.031500*%
%ADD23R,0.023620X0.019690*%
%ADD24R,0.019690X0.023620*%
%ADD25R,0.255900X0.255900*%
%ADD26O,0.009840X0.035430*%
%ADD27R,0.019690X0.025590*%
%ADD28R,0.033470X0.037400*%
%ADD29O,0.025590X0.007870*%
%ADD30O,0.007870X0.025590*%
%ADD31R,0.185040X0.185040*%
%ADD32R,0.025590X0.019690*%
%ADD33R,0.035430X0.027560*%
%ADD34R,0.031500X0.029530*%
%ADD35R,0.102360X0.059060*%
%ADD36R,0.007870X0.019690*%
%ADD37R,0.029530X0.055120*%
%ADD38R,0.059060X0.141730*%
%ADD64R,0.015750X0.015750*%
%ADD65R,0.015750X0.015750*%
%LNhighspeed_v0-1*%
%LPD*%
G54D10*
X0175745Y0085716D03*
Y0087684D03*
Y0089653D03*
Y0091621D03*
X0143855Y0073905D03*
Y0075873D03*
Y0077842D03*
Y007981D03*
Y0081779D03*
Y0083747D03*
Y0085716D03*
Y0087684D03*
Y0089653D03*
Y0091621D03*
Y009359D03*
Y0095558D03*
Y0097527D03*
Y0099495D03*
X0175745D03*
Y0097527D03*
Y0095558D03*
Y009359D03*
Y0083747D03*
Y0081779D03*
Y007981D03*
Y0077842D03*
Y0075873D03*
Y0073905D03*
G54D11*
X01696Y0121685D03*
Y0132315D03*
X02281Y0119485D03*
Y0130115D03*
X0182Y0119985D03*
Y0130615D03*
X01923Y0054585D03*
Y0065215D03*
X02064Y0065315D03*
Y0054685D03*
X02193Y0056215D03*
Y0045585D03*
X02285Y0056215D03*
Y0045585D03*
X01761Y0060015D03*
Y0049385D03*
X01838Y0059915D03*
Y0049285D03*
X02187Y0127215D03*
Y0116585D03*
G54D13*
X03582Y0275956D03*
Y0270444D03*
X01877Y0219844D03*
Y0225356D03*
X02487Y0180856D03*
Y0175344D03*
X01921Y0155056D03*
Y0149544D03*
X02061Y0040644D03*
Y0046156D03*
G54D14*
X0341056Y02629D03*
X0335544D03*
X0341056Y02482D03*
X0335544D03*
X0341056Y02564D03*
X0335544D03*
X0209056Y01778D03*
X0203544D03*
X0209156Y0185D03*
X0203644D03*
X0209056Y0191D03*
X0203544D03*
X0223156Y02201D03*
X0217644D03*
X0279856Y02206D03*
X0274344D03*
X0248056Y02611D03*
X0242544D03*
X0247056Y00252D03*
X0241544D03*
G54D16*
X030576Y0251576D03*
X03095D03*
X031324D03*
Y0261024D03*
X030576D03*
G54D17*
X0305753Y0277D03*
X0299847D03*
X0265347Y02875D03*
X0271253D03*
X0242247Y02679D03*
X0248153D03*
X0248653Y0169D03*
X0242747D03*
X0312847Y02219D03*
X0318753D03*
X0315547Y02838D03*
X0321453D03*
X0192053Y01441D03*
X0186147D03*
X0101447Y02085D03*
X0107353D03*
X0118447D03*
X0124353D03*
G54D18*
X02846Y0277653D03*
Y0271747D03*
X02655Y0260753D03*
Y0254847D03*
X026Y0260853D03*
Y0254947D03*
X02379Y0228647D03*
Y0234553D03*
X02928Y0216347D03*
Y0222253D03*
X026Y0221153D03*
Y0215247D03*
X03226Y0208247D03*
Y0214153D03*
X02096Y0220253D03*
Y0214347D03*
X02293Y0220453D03*
Y0214547D03*
X02358Y0220353D03*
Y0214447D03*
X02688Y0220753D03*
Y0214847D03*
X02928Y0208053D03*
Y0202147D03*
X02863Y0208053D03*
Y0202147D03*
X01943Y0046553D03*
Y0040647D03*
X02347Y0278553D03*
Y0272647D03*
X03581Y0262053D03*
Y0256147D03*
X02358Y0025553D03*
Y0019647D03*
G54D19*
X0265576Y027136D03*
Y027884D03*
X0275024D03*
Y02751D03*
Y027136D03*
X0244376Y022066D03*
Y022814D03*
X0253824D03*
Y02244D03*
Y022066D03*
X0303276Y020836D03*
Y021584D03*
X0312724D03*
Y02121D03*
Y020836D03*
X0335276Y027116D03*
Y027864D03*
X0344724D03*
Y02749D03*
Y027116D03*
G54D20*
X020404Y0215276D03*
X019656D03*
Y0224724D03*
X02003D03*
X020404D03*
G54D21*
X02559Y0175046D03*
Y0180754D03*
X01784Y0020954D03*
Y0015246D03*
X01687Y0055954D03*
Y0050246D03*
X01842Y0065546D03*
Y0071254D03*
X0156Y0115846D03*
Y0121554D03*
X01617Y0115746D03*
Y0121454D03*
X02021Y0144046D03*
Y0149754D03*
G54D22*
X0242346Y02534D03*
X0248054D03*
X0131954Y00807D03*
X0126246D03*
X0132154Y00869D03*
X0126446D03*
X0219754Y00622D03*
X0214046D03*
X0239054Y00717D03*
X0233346D03*
X0186554Y00412D03*
X0180846D03*
X0188346Y00712D03*
X0194054D03*
X0205354D03*
X0199646D03*
X0215754Y00714D03*
X0210046D03*
X0227946Y01137D03*
X0233654D03*
X0230554Y01032D03*
X0224846D03*
X0178446Y01125D03*
X0184154D03*
X0168046Y0114D03*
X0173754D03*
G54D23*
X0323667Y00784D03*
X031973D03*
X0323667Y00735D03*
X031973D03*
X0323667Y01185D03*
X031973D03*
X0323667Y00687D03*
X031973D03*
X0098544Y02573D03*
X0102481D03*
X0109932Y02525D03*
X0113868D03*
X0114456Y0248D03*
X0110519D03*
X0159031Y02683D03*
X0162969D03*
X0168832Y02582D03*
X0172768D03*
X0109569Y02439D03*
X0105631D03*
X0157231Y02413D03*
X0161169D03*
X0168931Y02391D03*
X0172869D03*
X0114456Y02281D03*
X0110519D03*
X0285432Y00708D03*
X0289369D03*
X0285432Y00754D03*
X0289369D03*
X031973Y0113367D03*
X0323667D03*
X0108268Y0149395D03*
X0104332D03*
Y00903D03*
X0108268D03*
X031973Y00829D03*
X0323667D03*
X031973Y0108233D03*
X0323667D03*
X0104332Y009621D03*
X0108268D03*
X031973Y01031D03*
X0323667D03*
X0108268Y0143485D03*
X0104332D03*
Y0102119D03*
X0108268D03*
X031973Y0097967D03*
X0323667D03*
X0108268Y0137576D03*
X0104332D03*
Y0108028D03*
X0108268D03*
Y0131666D03*
X0104332D03*
X0108268Y0125757D03*
X0104332D03*
X031973Y0092833D03*
X0323667D03*
X031973Y00877D03*
X0323667D03*
X0108268Y0119847D03*
X0104332D03*
X0108268Y0113938D03*
X0104332D03*
X0166569Y01916D03*
X0162631D03*
X0166668Y01867D03*
X0162732D03*
X0166469Y01819D03*
X0162531D03*
G54D24*
X01569Y0233569D03*
Y0229631D03*
X01174Y0261069D03*
Y0257132D03*
X02416Y0064768D03*
Y0060831D03*
G54D25*
X01598Y00867D03*
G54D26*
X0172595Y0070755D03*
X0170627D03*
X0168658D03*
X016669D03*
X0164721D03*
X0162753D03*
X0160784D03*
X0158816D03*
X0156847D03*
X0154879D03*
X015291D03*
X0150942D03*
X0148973D03*
X0147005D03*
Y0102645D03*
X0148973D03*
X0150942D03*
X015291D03*
X0154879D03*
X0156847D03*
X0158816D03*
X0160784D03*
X0162753D03*
X0164721D03*
X016669D03*
X0168658D03*
X0170627D03*
X0172595D03*
G54D27*
X00984Y026587D03*
Y026213D03*
X01031Y026597D03*
Y026223D03*
X01459Y022973D03*
Y023347D03*
G54D28*
X0114458Y0233346D03*
X010993D03*
Y0239054D03*
X0114458D03*
G54D29*
X0150609Y0246739D03*
Y0248313D03*
Y0249888D03*
Y0251463D03*
Y0253038D03*
Y0254613D03*
Y0256187D03*
Y0257762D03*
Y0259337D03*
Y0260912D03*
Y0262487D03*
Y0264061D03*
X0126791D03*
Y0262487D03*
Y0260912D03*
Y0259337D03*
Y0257762D03*
Y0256187D03*
Y0254613D03*
Y0253038D03*
Y0251463D03*
Y0249888D03*
Y0248313D03*
Y0246739D03*
G54D30*
X0147361Y0267309D03*
X0145787D03*
X0144212D03*
X0142637D03*
X0141062D03*
X0139487D03*
X0137913D03*
X0136338D03*
X0134763D03*
X0133188D03*
X0131613D03*
X0130039D03*
Y0243491D03*
X0131613D03*
X0133188D03*
X0134763D03*
X0136338D03*
X0137913D03*
X0139487D03*
X0141062D03*
X0142637D03*
X0144212D03*
X0145787D03*
X0147361D03*
G54D31*
X01387Y02554D03*
G54D32*
X010783Y02571D03*
X011157D03*
G54D33*
X0151239Y0227647D03*
Y0233553D03*
X01925Y0094847D03*
Y0100753D03*
X02008Y0089853D03*
Y0083947D03*
G54D34*
X01249Y0228043D03*
Y0233358D03*
X01398Y0232258D03*
Y0226942D03*
G54D35*
X00822Y028522D03*
Y0265141D03*
G54D36*
X0161294Y0058172D03*
X0160506Y0054628D03*
G54D37*
X0163754Y00564D03*
X0158046D03*
G54D38*
X0295694Y01616D03*
X0307505D03*
G54D64*
X03634Y0266263D03*
Y02702D03*
X02419Y0279637D03*
Y02757D03*
X01236Y02005D03*
Y0204437D03*
X01005Y02005D03*
Y0204437D03*
G54D65*
X0315337Y0277D03*
X03114D03*
X03173Y02668D03*
X0313363D03*
X03059Y02673D03*
X0301963D03*
X0302Y02712D03*
X0305937D03*
X03093Y02437D03*
X0305363D03*
M02*