%FSTAX25Y25*%
%MOIN*%
%SFA1B1*%

%IPPOS*%
%ADD39C,0.008000*%
%ADD40C,0.006000*%
%ADD46C,0.059060*%
%ADD47R,0.059060X0.059060*%
%ADD48C,0.020000*%
%ADD49C,0.014000*%
%ADD50C,0.019690*%
%LNhighspeed_v0-1*%
%LPD*%
G36*
X0178786Y0241D02*
Y0225896D01*
X0168295Y0215405*
X0168141Y0215173*
X0168086Y02149*
Y0195746*
X0168007Y0195693*
X0167764Y0195329*
X0167678Y01949*
X0167764Y0194471*
X0168007Y0194107*
X0168371Y0193864*
X01688Y0193778*
X0169229Y0193864*
X0169593Y0194107*
X0169836Y0194471*
X0169922Y01949*
X0169836Y0195329*
X0169593Y0195693*
X0169514Y0195746*
Y0214604*
X0170318Y0215409*
X0170718Y021523*
X0170786Y021517*
Y0187462*
X0170754Y0187414*
X013753*
X0137323Y0187914*
X0173405Y0223995*
X0173559Y0224227*
X0173614Y02245*
Y0240647*
X0173967Y0241*
X0178786*
G37*
G36*
X0272786Y0107104D02*
Y0078296D01*
X0269045Y0074554*
X0268657Y0074873*
X0268759Y0075027*
X0268814Y00753*
Y011037*
X0269314Y0110577*
X0272786Y0107104*
G37*
G36*
X0183823Y0240652D02*
Y0194463D01*
X0183878Y019419*
X0184032Y0193958*
X0199741Y017825*
X0199495Y0177789*
X01993Y0177827*
X0198754Y0177719*
X0198291Y0177409*
X0198057Y0177059*
X0197502Y0176907*
X0192005Y0182405*
X0191773Y0182559*
X01915Y0182614*
X0174446*
X0174414Y0182662*
Y0214504*
X0182905Y0222995*
X0183059Y0223227*
X0183114Y02235*
Y0240414*
X0183568Y0240756*
X0183823Y0240652*
G37*
G36*
X0162986Y0241D02*
Y0221796D01*
X0114995Y0173805*
X0114841Y0173573*
X0114786Y01733*
Y0059746*
X0114707Y0059693*
X0114464Y0059329*
X0114378Y00589*
X0114464Y0058471*
X0114707Y0058107*
X0115071Y0057864*
X01155Y0057778*
X0115929Y0057864*
X0116086Y0057969*
X0116586Y0057714*
Y0054913*
X0116407Y0054793*
X0116164Y0054429*
X0116078Y0054*
X0116164Y0053571*
X0116407Y0053207*
X0116771Y0052964*
X01172Y0052878*
X0117541Y0052946*
X011776Y0052735*
X0117872Y0052541*
X0117864Y0052529*
X0117778Y00521*
X0117864Y0051671*
X0118107Y0051307*
X0118471Y0051064*
X01189Y0050978*
X0119329Y0051064*
X0119693Y0051307*
X0119936Y0051671*
X0120022Y00521*
X0119936Y0052529*
X0119693Y0052893*
X0119614Y0052946*
Y0173204*
X0122224Y0175815*
X0122686Y0175624*
Y0062846*
X0122607Y0062793*
X0122364Y0062429*
X0122278Y0062*
X0122364Y0061571*
X0122607Y0061207*
X0122971Y0060964*
X01234Y0060878*
X0123829Y0060964*
X0124193Y0061207*
X0124286Y0061347*
X0124786Y0061195*
Y0057046*
X0124707Y0056993*
X0124464Y0056629*
X0124378Y00562*
X0124464Y0055771*
X0124707Y0055407*
X0125071Y0055164*
X01255Y0055078*
X0125929Y0055164*
X0126293Y0055407*
X0126536Y0055771*
X0126622Y00562*
X0126536Y0056629*
X0126293Y0056993*
X0126214Y0057046*
Y007807*
X0126714Y0078277*
X0136583Y0068408*
X0136418Y0067866*
X0136271Y0067836*
X0135907Y0067593*
X0135664Y0067229*
X0135578Y00668*
X0135664Y0066371*
X0135907Y0066007*
X0136271Y0065764*
X01367Y0065678*
X0137129Y0065764*
X0137493Y0066007*
X0137736Y0066371*
X0137766Y0066518*
X0138308Y0066683*
X0139397Y0065594*
X0139378Y00655*
X0139464Y0065071*
X0139707Y0064707*
X0140071Y0064464*
X01405Y0064378*
X0140929Y0064464*
X0141293Y0064707*
X0141536Y0065071*
X0141622Y00655*
X0141536Y0065929*
X0141293Y0066293*
X0140929Y0066536*
X01405Y0066622*
X0140406Y0066603*
X0127714Y0079296*
Y0176304*
X0137396Y0185986*
X0170754*
X0170807Y0185907*
X0171171Y0185664*
X01716Y0185578*
X0172029Y0185664*
X0172393Y0185907*
X0172486Y0186047*
X0172986Y0185895*
Y0182813*
X0172807Y0182693*
X0172564Y0182329*
X0172478Y01819*
X0172564Y0181471*
X0172807Y0181107*
X0173171Y0180864*
X01736Y0180778*
X0174029Y0180864*
X0174393Y0181107*
X0174446Y0181186*
X0191204*
X0266386Y0106004*
Y007601*
X0260495Y0070119*
X0260467Y0070076*
X0259894Y0069503*
X02598Y0069522*
X0259371Y0069436*
X0259007Y0069193*
X0258764Y0068829*
X0258679Y00684*
X0258764Y0067971*
X0259007Y0067607*
X0259371Y0067364*
X02598Y0067278*
X0260229Y0067364*
X0260593Y0067607*
X0260786Y0067896*
X0261104Y0067877*
X0261286Y0067813*
Y0065262*
X0261064Y0064929*
X0260979Y00645*
X0261064Y0064071*
X0261307Y0063707*
X0261671Y0063464*
X02621Y0063378*
X0262529Y0063464*
X0262786Y0063636*
X0263162Y0063507*
X0263286Y0063414*
Y006148*
X0263007Y0061293*
X0262764Y0060929*
X0262679Y00605*
X0262764Y0060071*
X0263007Y0059707*
X0263371Y0059464*
X02638Y0059378*
X0264229Y0059464*
X0264593Y0059707*
X0264836Y0060071*
X0264921Y00605*
X0264836Y0060929*
X0264714Y0061112*
Y0068204*
X027366Y0077151*
X0274155Y0076961*
X0274199Y0076608*
X0265895Y0068305*
X0265741Y0068073*
X0265686Y00678*
Y0059413*
X0265507Y0059293*
X0265264Y0058929*
X0265178Y00585*
X0265264Y0058071*
X0265507Y0057707*
X0265871Y0057464*
X02663Y0057378*
X0266729Y0057464*
X0267093Y0057707*
X0267336Y0058071*
X0267422Y00585*
X0267336Y0058929*
X0267114Y0059262*
Y0065795*
X0267614Y0065947*
X0267707Y0065807*
X0268071Y0065564*
X02685Y0065478*
X0268929Y0065564*
X0269293Y0065807*
X0269536Y0066171*
X0269621Y00666*
X0269586Y0066777*
X0276524Y0073715*
X0276986Y0073524*
Y0068096*
X0273177Y0064286*
X0273Y0064322*
X0272571Y0064236*
X0272207Y0063993*
X0271964Y0063629*
X0271879Y00632*
X0271964Y0062771*
X0272207Y0062407*
X0272571Y0062164*
X0273Y0062078*
X0273429Y0062164*
X0273793Y0062407*
X0274036Y0062771*
X0274121Y00632*
X0274119Y006321*
X0278205Y0067295*
X0278359Y0067527*
X0278414Y00678*
Y0107528*
X0278359Y0107801*
X0278205Y0108033*
X0199214Y0187024*
Y0240647*
X0199567Y0241*
X0303695*
X0304032Y02405*
X0303973Y02402*
X0304081Y0239654*
X0304391Y0239191*
X0304854Y0238881*
X03054Y0238773*
X0305946Y0238881*
X0306409Y0239191*
X0306719Y0239654*
X0306827Y02402*
X0306768Y02405*
X0307105Y0241*
X03848*
Y0009854*
X0384446Y00095*
X0062154*
X00618Y0009854*
Y0241*
X00962*
X0162986*
G37*
%LNhighspeed_v0-2*%
%LPC*%
G36*
X0071221Y00818D02*
X00678D01*
Y0078379*
X0068332Y0078449*
X0069293Y0078847*
X0070119Y0079481*
X0070753Y0080307*
X0071151Y0081268*
X0071221Y00818*
G37*
G36*
X00768D02*
X0073379D01*
X0073449Y0081268*
X0073847Y0080307*
X0074481Y0079481*
X0075307Y0078847*
X0076268Y0078449*
X00768Y0078379*
Y00818*
G37*
G36*
X0081221D02*
X00778D01*
Y0078379*
X0078332Y0078449*
X0079293Y0078847*
X0080119Y0079481*
X0080753Y0080307*
X0081151Y0081268*
X0081221Y00818*
G37*
G36*
X00668D02*
X0063379D01*
X0063449Y0081268*
X0063847Y0080307*
X0064481Y0079481*
X0065307Y0078847*
X0066268Y0078449*
X00668Y0078379*
Y00818*
G37*
G36*
X02559Y0077522D02*
X0255471Y0077436D01*
X0255107Y0077193*
X0254864Y0076829*
X0254779Y00764*
X0254864Y0075971*
X0255107Y0075607*
X0255471Y0075364*
X02559Y0075278*
X0256329Y0075364*
X0256693Y0075607*
X0256936Y0075971*
X0257021Y00764*
X0256936Y0076829*
X0256693Y0077193*
X0256329Y0077436*
X02559Y0077522*
G37*
G36*
X01347Y0078227D02*
X0134154Y0078119D01*
X0133691Y0077809*
X0133381Y0077346*
X0133273Y00768*
X0133381Y0076254*
X0133691Y0075791*
X0134154Y0075481*
X01347Y0075373*
X0135246Y0075481*
X0135709Y0075791*
X0136019Y0076254*
X0136127Y00768*
X0136019Y0077346*
X0135709Y0077809*
X0135246Y0078119*
X01347Y0078227*
G37*
G36*
X02064Y0077622D02*
X0205971Y0077536D01*
X0205607Y0077293*
X0205364Y0076929*
X0205278Y00765*
X0205364Y0076071*
X0205607Y0075707*
X0205971Y0075464*
X02064Y0075378*
X0206829Y0075464*
X0207193Y0075707*
X0207436Y0076071*
X0207522Y00765*
X0207436Y0076929*
X0207193Y0077293*
X0206829Y0077536*
X02064Y0077622*
G37*
G36*
X02541Y0084327D02*
X0253554Y0084219D01*
X0253091Y0083909*
X0252781Y0083446*
X0252673Y00829*
X0252781Y0082354*
X0253091Y0081891*
X0253554Y0081581*
X02541Y0081473*
X0254646Y0081581*
X0255109Y0081891*
X0255419Y0082354*
X0255527Y00829*
X0255419Y0083446*
X0255109Y0083909*
X0254646Y0084219*
X02541Y0084327*
G37*
G36*
X00668Y0086221D02*
X0066268Y0086151D01*
X0065307Y0085753*
X0064481Y0085119*
X0063847Y0084293*
X0063449Y0083332*
X0063379Y00828*
X00668*
Y0086221*
G37*
G36*
X00678D02*
Y00828D01*
X0071221*
X0071151Y0083332*
X0070753Y0084293*
X0070119Y0085119*
X0069293Y0085753*
X0068332Y0086151*
X00678Y0086221*
G37*
G36*
X0378021Y00823D02*
X03746D01*
Y0078879*
X0375132Y0078949*
X0376093Y0079347*
X0376919Y0079981*
X0377553Y0080807*
X0377951Y0081768*
X0378021Y00823*
G37*
G36*
X03636D02*
X0360179D01*
X0360249Y0081768*
X0360647Y0080807*
X0361281Y0079981*
X0362107Y0079347*
X0363068Y0078949*
X03636Y0078879*
Y00823*
G37*
G36*
X0368021D02*
X03646D01*
Y0078879*
X0365132Y0078949*
X0366093Y0079347*
X0366919Y0079981*
X0367553Y0080807*
X0367951Y0081768*
X0368021Y00823*
G37*
G36*
X03736D02*
X0370179D01*
X0370249Y0081768*
X0370647Y0080807*
X0371281Y0079981*
X0372107Y0079347*
X0373068Y0078949*
X03736Y0078879*
Y00823*
G37*
G36*
X00773Y0075682D02*
X0076425Y0075566D01*
X0075609Y0075229*
X0074909Y0074691*
X0074371Y0073991*
X0074034Y0073175*
X0073918Y00723*
X0074034Y0071425*
X0074371Y0070609*
X0074909Y0069909*
X0075609Y0069371*
X0076425Y0069034*
X00773Y0068918*
X0078175Y0069034*
X0078991Y0069371*
X0079691Y0069909*
X0080229Y0070609*
X0080566Y0071425*
X0080682Y00723*
X0080566Y0073175*
X0080229Y0073991*
X0079691Y0074691*
X0078991Y0075229*
X0078175Y0075566*
X00773Y0075682*
G37*
G36*
X03741Y0076182D02*
X0373225Y0076066D01*
X0372409Y0075729*
X0371709Y0075191*
X0371171Y0074491*
X0370834Y0073675*
X0370718Y00728*
X0370834Y0071925*
X0371171Y0071109*
X0371709Y0070409*
X0372409Y0069871*
X0373225Y0069534*
X03741Y0069418*
X0374975Y0069534*
X0375791Y0069871*
X0376491Y0070409*
X0377029Y0071109*
X0377366Y0071925*
X0377482Y00728*
X0377366Y0073675*
X0377029Y0074491*
X0376491Y0075191*
X0375791Y0075729*
X0374975Y0076066*
X03741Y0076182*
G37*
G36*
X02562Y0072522D02*
X0255771Y0072436D01*
X0255407Y0072193*
X0255164Y0071829*
X0255079Y00714*
X0255164Y0070971*
X0255407Y0070607*
X0255771Y0070364*
X02562Y0070278*
X0256629Y0070364*
X0256993Y0070607*
X0257236Y0070971*
X0257322Y00714*
X0257236Y0071829*
X0256993Y0072193*
X0256629Y0072436*
X02562Y0072522*
G37*
G36*
X0368021Y00723D02*
X03646D01*
Y0068879*
X0365132Y0068949*
X0366093Y0069347*
X0366919Y0069981*
X0367553Y0070807*
X0367951Y0071768*
X0368021Y00723*
G37*
G36*
X00668Y00718D02*
X0063379D01*
X0063449Y0071268*
X0063847Y0070307*
X0064481Y0069481*
X0065307Y0068847*
X0066268Y0068449*
X00668Y0068379*
Y00718*
G37*
G36*
X0071221D02*
X00678D01*
Y0068379*
X0068332Y0068449*
X0069293Y0068847*
X0070119Y0069481*
X0070753Y0070307*
X0071151Y0071268*
X0071221Y00718*
G37*
G36*
X03636Y00723D02*
X0360179D01*
X0360249Y0071768*
X0360647Y0070807*
X0361281Y0069981*
X0362107Y0069347*
X0363068Y0068949*
X03636Y0068879*
Y00723*
G37*
G36*
X0223Y0068927D02*
X0222454Y0068819D01*
X0221991Y0068509*
X0221681Y0068046*
X0221573Y00675*
X0221681Y0066954*
X0221991Y0066491*
X0222454Y0066181*
X0223Y0066073*
X0223546Y0066181*
X0224009Y0066491*
X0224319Y0066954*
X0224427Y00675*
X0224319Y0068046*
X0224009Y0068509*
X0223546Y0068819*
X0223Y0068927*
G37*
G36*
X01334Y0068222D02*
X0132971Y0068136D01*
X0132607Y0067893*
X0132364Y0067529*
X0132278Y00671*
X0132364Y0066671*
X0132607Y0066307*
X0132971Y0066064*
X01334Y0065978*
X0133829Y0066064*
X0134193Y0066307*
X0134436Y0066671*
X0134522Y00671*
X0134436Y0067529*
X0134193Y0067893*
X0133829Y0068136*
X01334Y0068222*
G37*
G36*
X02353Y0068322D02*
X0234871Y0068236D01*
X0234507Y0067993*
X0234327Y0067724*
X0234095Y0067679*
X0234005*
X0233773Y0067724*
X0233593Y0067993*
X0233229Y0068236*
X02328Y0068322*
X0232371Y0068236*
X0232007Y0067993*
X0231764Y0067629*
X0231679Y00672*
X0231764Y0066771*
X0232007Y0066407*
X0232371Y0066164*
X023276Y0066086*
X0236984Y0061862*
Y00457*
X0237046Y0045388*
X0237223Y0045123*
X0255123Y0027223*
X0255282Y0027117*
X0255388Y0027046*
X02557Y0026984*
X0362566*
X0362666Y0026484*
X0362107Y0026253*
X0361281Y0025619*
X0360647Y0024793*
X0360249Y0023832*
X0360179Y00233*
X0368021*
X0367951Y0023832*
X0367553Y0024793*
X0366919Y0025619*
X0366093Y0026253*
X0365534Y0026484*
X0365634Y0026984*
X0368762*
X0371208Y0024539*
X0371171Y0024491*
X0370834Y0023675*
X0370718Y00228*
X0370834Y0021925*
X0371171Y0021109*
X0371709Y0020409*
X0372409Y0019871*
X0373225Y0019534*
X03741Y0019418*
X0374975Y0019534*
X0375791Y0019871*
X0376491Y0020409*
X0377029Y0021109*
X0377366Y0021925*
X0377482Y00228*
X0377366Y0023675*
X0377029Y0024491*
X0376491Y0025191*
X0375791Y0025729*
X0374975Y0026066*
X03741Y0026182*
X0373225Y0026066*
X0372409Y0025729*
X0372361Y0025692*
X0369677Y0028377*
X0369412Y0028554*
X03691Y0028616*
X0365634*
X0365534Y0029116*
X0366093Y0029347*
X0366919Y0029981*
X0367553Y0030807*
X0367951Y0031768*
X0368021Y00323*
X0360179*
X0360249Y0031768*
X0360647Y0030807*
X0361281Y0029981*
X0362107Y0029347*
X0362666Y0029116*
X0362566Y0028616*
X0256038*
X0238616Y0046038*
Y0061509*
X0239116Y0061785*
X0239184Y0061742*
Y00471*
X0239246Y0046788*
X0239423Y0046523*
X0248273Y0037673*
X0248538Y0037496*
X024885Y0037434*
X0368312*
X0371208Y0034538*
X0371171Y0034491*
X0370834Y0033675*
X0370718Y00328*
X0370834Y0031925*
X0371171Y0031109*
X0371709Y0030409*
X0372409Y0029871*
X0373225Y0029534*
X03741Y0029418*
X0374975Y0029534*
X0375791Y0029871*
X0376491Y0030409*
X0377029Y0031109*
X0377366Y0031925*
X0377482Y00328*
X0377366Y0033675*
X0377029Y0034491*
X0376491Y0035191*
X0375791Y0035729*
X0374975Y0036066*
X03741Y0036182*
X0373225Y0036066*
X0372409Y0035729*
X0372361Y0035692*
X0369227Y0038827*
X0368962Y0039004*
X036865Y0039066*
X0366548*
X0366378Y0039566*
X0366919Y0039981*
X0367553Y0040807*
X0367951Y0041768*
X0368021Y00423*
X0360179*
X0360249Y0041768*
X0360647Y0040807*
X0361281Y0039981*
X0361822Y0039566*
X0361652Y0039066*
X0249188*
X0240816Y0047438*
Y00625*
X0240754Y0062812*
X0240683Y0062918*
X0240577Y0063077*
X0236414Y006724*
X0236336Y0067629*
X0236093Y0067993*
X0235729Y0068236*
X02353Y0068322*
G37*
G36*
X03646Y0076721D02*
Y00733D01*
X0368021*
X0367951Y0073832*
X0367553Y0074793*
X0366919Y0075619*
X0366093Y0076253*
X0365132Y0076651*
X03646Y0076721*
G37*
G36*
X00668Y0076221D02*
X0066268Y0076151D01*
X0065307Y0075753*
X0064481Y0075119*
X0063847Y0074293*
X0063449Y0073332*
X0063379Y00728*
X00668*
Y0076221*
G37*
G36*
X00678D02*
Y00728D01*
X0071221*
X0071151Y0073332*
X0070753Y0074293*
X0070119Y0075119*
X0069293Y0075753*
X0068332Y0076151*
X00678Y0076221*
G37*
G36*
X03636Y0076721D02*
X0363068Y0076651D01*
X0362107Y0076253*
X0361281Y0075619*
X0360647Y0074793*
X0360249Y0073832*
X0360179Y00733*
X03636*
Y0076721*
G37*
G36*
X00768Y0086221D02*
X0076268Y0086151D01*
X0075307Y0085753*
X0074481Y0085119*
X0073847Y0084293*
X0073449Y0083332*
X0073379Y00828*
X00768*
Y0086221*
G37*
G36*
X03646Y0096721D02*
Y00933D01*
X0368021*
X0367951Y0093832*
X0367553Y0094793*
X0366919Y0095619*
X0366093Y0096253*
X0365132Y0096651*
X03646Y0096721*
G37*
G36*
X01961Y0099442D02*
X0195768Y0099376D01*
X0195487Y0099188*
X0195299Y0098907*
X0195233Y0098575*
X0195299Y0098243*
X0195487Y0097962*
X0195614Y0097878*
X0195627Y0097838*
Y0097362*
X0195614Y0097322*
X0195487Y0097238*
X0195299Y0096957*
X0195233Y0096625*
X0195299Y0096293*
X0195487Y0096012*
X0195768Y0095824*
X01961Y0095758*
X0196432Y0095824*
X0196713Y0096012*
X0196901Y0096293*
X0196967Y0096625*
X0196901Y0096957*
X0196713Y0097238*
X0196587Y0097322*
X0196573Y0097362*
Y0097838*
X0196587Y0097878*
X0196713Y0097962*
X0196901Y0098243*
X0196967Y0098575*
X0196901Y0098907*
X0196713Y0099188*
X0196432Y0099376*
X01961Y0099442*
G37*
G36*
X00668Y01018D02*
X0063379D01*
X0063449Y0101268*
X0063847Y0100307*
X0064481Y0099481*
X0065307Y0098847*
X0066268Y0098449*
X00668Y0098379*
Y01018*
G37*
G36*
X03636Y0096721D02*
X0363068Y0096651D01*
X0362107Y0096253*
X0361281Y0095619*
X0360647Y0094793*
X0360249Y0093832*
X0360179Y00933*
X03636*
Y0096721*
G37*
G36*
X02591Y0095427D02*
X0258554Y0095319D01*
X0258091Y0095009*
X0257781Y0094546*
X0257673Y0094*
X0257781Y0093454*
X0258091Y0092991*
X0258554Y0092681*
X02591Y0092573*
X0259646Y0092681*
X0260109Y0092991*
X0260419Y0093454*
X0260527Y0094*
X0260419Y0094546*
X0260109Y0095009*
X0259646Y0095319*
X02591Y0095427*
G37*
G36*
X00668Y0096221D02*
X0066268Y0096151D01*
X0065307Y0095753*
X0064481Y0095119*
X0063847Y0094293*
X0063449Y0093332*
X0063379Y00928*
X00668*
Y0096221*
G37*
G36*
X00678D02*
Y00928D01*
X0071221*
X0071151Y0093332*
X0070753Y0094293*
X0070119Y0095119*
X0069293Y0095753*
X0068332Y0096151*
X00678Y0096221*
G37*
G36*
X03741Y0106182D02*
X0373225Y0106067D01*
X0372409Y0105729*
X0371709Y0105191*
X0371171Y0104491*
X0370834Y0103675*
X0370718Y01028*
X0370834Y0101925*
X0371171Y0101109*
X0371709Y0100409*
X0372409Y0099871*
X0373225Y0099534*
X03741Y0099418*
X0374975Y0099534*
X0375791Y0099871*
X0376491Y0100409*
X0377029Y0101109*
X0377366Y0101925*
X0377482Y01028*
X0377366Y0103675*
X0377029Y0104491*
X0376491Y0105191*
X0375791Y0105729*
X0374975Y0106067*
X03741Y0106182*
G37*
G36*
X02525Y0104422D02*
X0252071Y0104336D01*
X0251707Y0104093*
X0251464Y0103729*
X0251378Y01033*
X0251464Y0102871*
X0251707Y0102507*
X0252071Y0102264*
X02525Y0102178*
X0252929Y0102264*
X0253293Y0102507*
X0253536Y0102871*
X0253622Y01033*
X0253536Y0103729*
X0253293Y0104093*
X0252929Y0104336*
X02525Y0104422*
G37*
G36*
X00668Y0106221D02*
X0066268Y0106151D01*
X0065307Y0105753*
X0064481Y0105119*
X0063847Y0104293*
X0063449Y0103332*
X0063379Y01028*
X00668*
Y0106221*
G37*
G36*
X00773Y0105682D02*
X0076425Y0105567D01*
X0075609Y0105229*
X0074909Y0104691*
X0074371Y0103991*
X0074034Y0103175*
X0073918Y01023*
X0074034Y0101425*
X0074371Y0100609*
X0074909Y0099909*
X0075609Y0099371*
X0076425Y0099034*
X00773Y0098918*
X0078175Y0099034*
X0078991Y0099371*
X0079691Y0099909*
X0080229Y0100609*
X0080566Y0101425*
X0080682Y01023*
X0080566Y0103175*
X0080229Y0103991*
X0079691Y0104691*
X0078991Y0105229*
X0078175Y0105567*
X00773Y0105682*
G37*
G36*
X0071221Y01018D02*
X00678D01*
Y0098379*
X0068332Y0098449*
X0069293Y0098847*
X0070119Y0099481*
X0070753Y0100307*
X0071151Y0101268*
X0071221Y01018*
G37*
G36*
X03636Y01023D02*
X0360179D01*
X0360249Y0101768*
X0360647Y0100807*
X0361281Y0099981*
X0362107Y0099347*
X0363068Y0098949*
X03636Y0098879*
Y01023*
G37*
G36*
X0368021D02*
X03646D01*
Y0098879*
X0365132Y0098949*
X0366093Y0099347*
X0366919Y0099981*
X0367553Y0100807*
X0367951Y0101768*
X0368021Y01023*
G37*
G36*
X03741Y0096182D02*
X0373225Y0096066D01*
X0372409Y0095729*
X0371709Y0095191*
X0371171Y0094491*
X0370834Y0093675*
X0370718Y00928*
X0370834Y0091925*
X0371171Y0091109*
X0371709Y0090409*
X0372409Y0089871*
X0373225Y0089534*
X03741Y0089418*
X0374975Y0089534*
X0375791Y0089871*
X0376491Y0090409*
X0377029Y0091109*
X0377366Y0091925*
X0377482Y00928*
X0377366Y0093675*
X0377029Y0094491*
X0376491Y0095191*
X0375791Y0095729*
X0374975Y0096066*
X03741Y0096182*
G37*
G36*
X03746Y0086721D02*
Y00833D01*
X0378021*
X0377951Y0083832*
X0377553Y0084793*
X0376919Y0085619*
X0376093Y0086253*
X0375132Y0086651*
X03746Y0086721*
G37*
G36*
X00668Y00918D02*
X0063379D01*
X0063449Y0091268*
X0063847Y0090307*
X0064481Y0089481*
X0065307Y0088847*
X0066268Y0088449*
X00668Y0088379*
Y00918*
G37*
G36*
X0071221D02*
X00678D01*
Y0088379*
X0068332Y0088449*
X0069293Y0088847*
X0070119Y0089481*
X0070753Y0090307*
X0071151Y0091268*
X0071221Y00918*
G37*
G36*
X03736Y0086721D02*
X0373068Y0086651D01*
X0372107Y0086253*
X0371281Y0085619*
X0370647Y0084793*
X0370249Y0083832*
X0370179Y00833*
X03736*
Y0086721*
G37*
G36*
X00778Y0086221D02*
Y00828D01*
X0081221*
X0081151Y0083332*
X0080753Y0084293*
X0080119Y0085119*
X0079293Y0085753*
X0078332Y0086151*
X00778Y0086221*
G37*
G36*
X03636Y0086721D02*
X0363068Y0086651D01*
X0362107Y0086253*
X0361281Y0085619*
X0360647Y0084793*
X0360249Y0083832*
X0360179Y00833*
X03636*
Y0086721*
G37*
G36*
X03646D02*
Y00833D01*
X0368021*
X0367951Y0083832*
X0367553Y0084793*
X0366919Y0085619*
X0366093Y0086253*
X0365132Y0086651*
X03646Y0086721*
G37*
G36*
X0368021Y00923D02*
X03646D01*
Y0088879*
X0365132Y0088949*
X0366093Y0089347*
X0366919Y0089981*
X0367553Y0090807*
X0367951Y0091768*
X0368021Y00923*
G37*
G36*
X00773Y0095682D02*
X0076425Y0095566D01*
X0075609Y0095229*
X0074909Y0094691*
X0074371Y0093991*
X0074034Y0093175*
X0073918Y00923*
X0074034Y0091425*
X0074371Y0090609*
X0074909Y0089909*
X0075609Y0089371*
X0076425Y0089034*
X00773Y0088918*
X0078175Y0089034*
X0078991Y0089371*
X0079691Y0089909*
X0080229Y0090609*
X0080566Y0091425*
X0080682Y00923*
X0080566Y0093175*
X0080229Y0093991*
X0079691Y0094691*
X0078991Y0095229*
X0078175Y0095566*
X00773Y0095682*
G37*
G36*
X02104Y0092917D02*
X0210068Y0092851D01*
X0209787Y0092663*
X0209599Y0092382*
X0209533Y009205*
X0209599Y0091718*
X0209787Y0091437*
X020987Y0091382*
Y0090818*
X0209787Y0090763*
X0209599Y0090482*
X0209533Y009015*
X0209599Y0089818*
X0209787Y0089537*
X0210068Y0089349*
X02104Y0089283*
X0210732Y0089349*
X0211013Y0089537*
X0211201Y0089818*
X0211267Y009015*
X0211201Y0090482*
X0211013Y0090763*
X021093Y0090818*
Y0091382*
X0211013Y0091437*
X0211201Y0091718*
X0211267Y009205*
X0211201Y0092382*
X0211013Y0092663*
X0210732Y0092851*
X02104Y0092917*
G37*
G36*
X03636Y00923D02*
X0360179D01*
X0360249Y0091768*
X0360647Y0090807*
X0361281Y0089981*
X0362107Y0089347*
X0363068Y0088949*
X03636Y0088879*
Y00923*
G37*
G36*
X01381Y0090822D02*
X0137671Y0090736D01*
X0137307Y0090493*
X0137064Y0090129*
X0136978Y00897*
X0137064Y0089271*
X0137307Y0088907*
X0137671Y0088664*
X01381Y0088578*
X0138529Y0088664*
X0138893Y0088907*
X0139136Y0089271*
X0139222Y00897*
X0139136Y0090129*
X0138893Y0090493*
X0138529Y0090736*
X01381Y0090822*
G37*
G36*
X0132Y0091727D02*
X0131454Y0091619D01*
X0130991Y0091309*
X0130681Y0090846*
X0130573Y00903*
X0130681Y0089754*
X0130991Y0089291*
X0131454Y0088981*
X0132Y0088873*
X0132546Y0088981*
X0133009Y0089291*
X0133319Y0089754*
X0133427Y00903*
X0133319Y0090846*
X0133009Y0091309*
X0132546Y0091619*
X0132Y0091727*
G37*
G36*
X02551Y0097222D02*
X0254671Y0097136D01*
X0254307Y0096893*
X0254064Y0096529*
X0253978Y00961*
X0254064Y0095671*
X0254307Y0095307*
X0254671Y0095064*
X0254769Y0094534*
X0254707Y0094493*
X0254464Y0094129*
X0254379Y00937*
X0254396Y0093612*
X0254316Y0093201*
X0254033Y0093068*
X0253871Y0093036*
X0253507Y0092793*
X0253264Y0092429*
X0253179Y0092*
X0253264Y0091571*
X0253507Y0091207*
X0253282Y0090756*
X0253064Y0090429*
X0252978Y009*
X0253064Y0089571*
X0253307Y0089207*
X0253671Y0088964*
X02541Y0088878*
X0254529Y0088964*
X0254893Y0089207*
X0255136Y0089571*
X0255222Y009*
X0255136Y0090429*
X0254893Y0090793*
X0255118Y0091244*
X0255336Y0091571*
X0255421Y0092*
X0255404Y0092088*
X0255484Y0092499*
X0255767Y0092632*
X0255929Y0092664*
X0256293Y0092907*
X0256536Y0093271*
X0256622Y00937*
X0256536Y0094129*
X0256293Y0094493*
X0255929Y0094736*
X0255831Y0095266*
X0255893Y0095307*
X0256136Y0095671*
X0256222Y00961*
X0256136Y0096529*
X0255893Y0096893*
X0255529Y0097136*
X02551Y0097222*
G37*
G36*
X02157Y0068727D02*
X0215154Y0068619D01*
X0214691Y0068309*
X0214381Y0067846*
X0214273Y00673*
X0214381Y0066754*
X0214691Y0066291*
X0215154Y0065981*
X02157Y0065873*
X0216246Y0065981*
X0216709Y0066291*
X0217019Y0066754*
X0217127Y00673*
X0217019Y0067846*
X0216709Y0068309*
X0216246Y0068619*
X02157Y0068727*
G37*
G36*
X00668Y00418D02*
X0063379D01*
X0063449Y0041268*
X0063847Y0040307*
X0064481Y0039481*
X0065307Y0038847*
X0066268Y0038449*
X00668Y0038379*
Y00418*
G37*
G36*
X0071221D02*
X00678D01*
Y0038379*
X0068332Y0038449*
X0069293Y0038847*
X0070119Y0039481*
X0070753Y0040307*
X0071151Y0041268*
X0071221Y00418*
G37*
G36*
X00773Y0045682D02*
X0076425Y0045566D01*
X0075609Y0045229*
X0074909Y0044691*
X0074371Y0043991*
X0074034Y0043175*
X0073918Y00423*
X0074034Y0041425*
X0074371Y0040609*
X0074909Y0039909*
X0075609Y0039371*
X0076425Y0039034*
X00773Y0038918*
X0078175Y0039034*
X0078991Y0039371*
X0079691Y0039909*
X0080229Y0040609*
X0080566Y0041425*
X0080682Y00423*
X0080566Y0043175*
X0080229Y0043991*
X0079691Y0044691*
X0078991Y0045229*
X0078175Y0045566*
X00773Y0045682*
G37*
G36*
X02234Y0040127D02*
X0222854Y0040019D01*
X0222391Y0039709*
X0222081Y0039246*
X0221973Y00387*
X0222081Y0038154*
X0222391Y0037691*
X0222854Y0037381*
X02234Y0037273*
X0223946Y0037381*
X0224409Y0037691*
X0224719Y0038154*
X0224827Y00387*
X0224719Y0039246*
X0224409Y0039709*
X0223946Y0040019*
X02234Y0040127*
G37*
G36*
X03636Y0036721D02*
X0363068Y0036651D01*
X0362107Y0036253*
X0361281Y0035619*
X0360647Y0034793*
X0360249Y0033832*
X0360179Y00333*
X03636*
Y0036721*
G37*
G36*
X03646D02*
Y00333D01*
X0368021*
X0367951Y0033832*
X0367553Y0034793*
X0366919Y0035619*
X0366093Y0036253*
X0365132Y0036651*
X03646Y0036721*
G37*
G36*
X02298Y0038027D02*
X0229254Y0037919D01*
X0228791Y0037609*
X0228481Y0037146*
X0228373Y00366*
X0228481Y0036054*
X0228791Y0035591*
X0229254Y0035281*
X02298Y0035173*
X0230346Y0035281*
X0230809Y0035591*
X0231119Y0036054*
X0231227Y00366*
X0231119Y0037146*
X0230809Y0037609*
X0230346Y0037919*
X02298Y0038027*
G37*
G36*
X03636Y0046721D02*
X0363068Y0046651D01*
X0362107Y0046253*
X0361281Y0045619*
X0360647Y0044793*
X0360249Y0043832*
X0360179Y00433*
X03636*
Y0046721*
G37*
G36*
X03646D02*
Y00433D01*
X0368021*
X0367951Y0043832*
X0367553Y0044793*
X0366919Y0045619*
X0366093Y0046253*
X0365132Y0046651*
X03646Y0046721*
G37*
G36*
X01838Y0046727D02*
X0183254Y0046619D01*
X0182791Y0046309*
X0182481Y0045846*
X0182373Y00453*
X0182481Y0044754*
X0182791Y0044291*
X0183254Y0043981*
X01838Y0043873*
X0184346Y0043981*
X0184809Y0044291*
X0185119Y0044754*
X0185227Y00453*
X0185119Y0045846*
X0184809Y0046309*
X0184346Y0046619*
X01838Y0046727*
G37*
G36*
X00678Y0046221D02*
Y00428D01*
X0071221*
X0071151Y0043332*
X0070753Y0044293*
X0070119Y0045119*
X0069293Y0045753*
X0068332Y0046151*
X00678Y0046221*
G37*
G36*
X02126Y0042027D02*
X0212054Y0041919D01*
X0211591Y0041609*
X0211281Y0041146*
X0211173Y00406*
X0211281Y0040054*
X0211591Y0039591*
X0212054Y0039281*
X02126Y0039173*
X0213146Y0039281*
X0213609Y0039591*
X0213919Y0040054*
X0214027Y00406*
X0213919Y0041146*
X0213609Y0041609*
X0213146Y0041919*
X02126Y0042027*
G37*
G36*
X03741Y0046182D02*
X0373225Y0046066D01*
X0372409Y0045729*
X0371709Y0045191*
X0371171Y0044491*
X0370834Y0043675*
X0370718Y00428*
X0370834Y0041925*
X0371171Y0041109*
X0371709Y0040409*
X0372409Y0039871*
X0373225Y0039534*
X03741Y0039418*
X0374975Y0039534*
X0375791Y0039871*
X0376491Y0040409*
X0377029Y0041109*
X0377366Y0041925*
X0377482Y00428*
X0377366Y0043675*
X0377029Y0044491*
X0376491Y0045191*
X0375791Y0045729*
X0374975Y0046066*
X03741Y0046182*
G37*
G36*
X00668Y0046221D02*
X0066268Y0046151D01*
X0065307Y0045753*
X0064481Y0045119*
X0063847Y0044293*
X0063449Y0043332*
X0063379Y00428*
X00668*
Y0046221*
G37*
G36*
X00678Y0036221D02*
Y00328D01*
X0071221*
X0071151Y0033332*
X0070753Y0034293*
X0070119Y0035119*
X0069293Y0035753*
X0068332Y0036151*
X00678Y0036221*
G37*
G36*
X00773Y0025682D02*
X0076425Y0025567D01*
X0075609Y0025229*
X0074909Y0024691*
X0074371Y0023991*
X0074034Y0023175*
X0073918Y00223*
X0074034Y0021425*
X0074371Y0020609*
X0074909Y0019909*
X0075609Y0019371*
X0076425Y0019034*
X00773Y0018918*
X0078175Y0019034*
X0078991Y0019371*
X0079691Y0019909*
X0080229Y0020609*
X0080566Y0021425*
X0080682Y00223*
X0080566Y0023175*
X0080229Y0023991*
X0079691Y0024691*
X0078991Y0025229*
X0078175Y0025567*
X00773Y0025682*
G37*
G36*
X00668Y0026221D02*
X0066268Y0026151D01*
X0065307Y0025753*
X0064481Y0025119*
X0063847Y0024293*
X0063449Y0023332*
X0063379Y00228*
X00668*
Y0026221*
G37*
G36*
X00678D02*
Y00228D01*
X0071221*
X0071151Y0023332*
X0070753Y0024293*
X0070119Y0025119*
X0069293Y0025753*
X0068332Y0026151*
X00678Y0026221*
G37*
G36*
X0368021Y00223D02*
X03646D01*
Y0018879*
X0365132Y0018949*
X0366093Y0019347*
X0366919Y0019981*
X0367553Y0020807*
X0367951Y0021768*
X0368021Y00223*
G37*
G36*
X00668Y00218D02*
X0063379D01*
X0063449Y0021268*
X0063847Y0020307*
X0064481Y0019481*
X0065307Y0018847*
X0066268Y0018449*
X00668Y0018379*
Y00218*
G37*
G36*
X0071221D02*
X00678D01*
Y0018379*
X0068332Y0018449*
X0069293Y0018847*
X0070119Y0019481*
X0070753Y0020307*
X0071151Y0021268*
X0071221Y00218*
G37*
G36*
X03636Y00223D02*
X0360179D01*
X0360249Y0021768*
X0360647Y0020807*
X0361281Y0019981*
X0362107Y0019347*
X0363068Y0018949*
X03636Y0018879*
Y00223*
G37*
G36*
X0071221Y00318D02*
X00678D01*
Y0028379*
X0068332Y0028449*
X0069293Y0028847*
X0070119Y0029481*
X0070753Y0030307*
X0071151Y0031268*
X0071221Y00318*
G37*
G36*
X00773Y0035682D02*
X0076425Y0035566D01*
X0075609Y0035229*
X0074909Y0034691*
X0074371Y0033991*
X0074034Y0033175*
X0073918Y00323*
X0074034Y0031425*
X0074371Y0030609*
X0074909Y0029909*
X0075609Y0029371*
X0076425Y0029034*
X00773Y0028918*
X0078175Y0029034*
X0078991Y0029371*
X0079691Y0029909*
X0080229Y0030609*
X0080566Y0031425*
X0080682Y00323*
X0080566Y0033175*
X0080229Y0033991*
X0079691Y0034691*
X0078991Y0035229*
X0078175Y0035566*
X00773Y0035682*
G37*
G36*
X00668Y0036221D02*
X0066268Y0036151D01*
X0065307Y0035753*
X0064481Y0035119*
X0063847Y0034293*
X0063449Y0033332*
X0063379Y00328*
X00668*
Y0036221*
G37*
G36*
Y00318D02*
X0063379D01*
X0063449Y0031268*
X0063847Y0030307*
X0064481Y0029481*
X0065307Y0028847*
X0066268Y0028449*
X00668Y0028379*
Y00318*
G37*
G36*
X01783Y0026227D02*
X0177754Y0026119D01*
X0177291Y0025809*
X0176981Y0025346*
X0176873Y00248*
X0176981Y0024254*
X0177291Y0023791*
X0177754Y0023481*
X01783Y0023373*
X0178846Y0023481*
X0179309Y0023791*
X0179619Y0024254*
X0179727Y00248*
X0179619Y0025346*
X0179309Y0025809*
X0178846Y0026119*
X01783Y0026227*
G37*
G36*
X02291Y0026627D02*
X0228554Y0026519D01*
X0228091Y0026209*
X0227781Y0025746*
X0227673Y00252*
X0227781Y0024654*
X0228091Y0024191*
X0228554Y0023881*
X02291Y0023773*
X0229646Y0023881*
X0230109Y0024191*
X0230419Y0024654*
X0230527Y00252*
X0230419Y0025746*
X0230109Y0026209*
X0229646Y0026519*
X02291Y0026627*
G37*
G36*
X02527Y0026727D02*
X0252154Y0026619D01*
X0251691Y0026309*
X0251381Y0025846*
X0251273Y00253*
X0251381Y0024754*
X0251691Y0024291*
X0252154Y0023981*
X02527Y0023873*
X0253246Y0023981*
X0253709Y0024291*
X0254019Y0024754*
X0254127Y00253*
X0254019Y0025846*
X0253709Y0026309*
X0253246Y0026619*
X02527Y0026727*
G37*
G36*
X01761Y0047327D02*
X0175554Y0047219D01*
X0175091Y0046909*
X0174781Y0046446*
X0174673Y00459*
X0174781Y0045354*
X0175091Y0044891*
X0175554Y0044581*
X01761Y0044473*
X0176646Y0044581*
X0177109Y0044891*
X0177419Y0045354*
X0177527Y00459*
X0177419Y0046446*
X0177109Y0046909*
X0176646Y0047219*
X01761Y0047327*
G37*
G36*
X02309Y0066122D02*
X0230471Y0066036D01*
X0230107Y0065793*
X0229864Y0065429*
X0229779Y0065*
X0229864Y0064571*
X0230107Y0064207*
X0230471Y0063964*
X02309Y0063878*
X0231171Y0063932*
X023134Y0063814*
X0231515Y0063622*
X023156Y0063539*
X0231473Y00631*
X0231581Y0062554*
X0231891Y0062091*
X0232354Y0061781*
X02329Y0061673*
X0233446Y0061781*
X0233909Y0062091*
X0234219Y0062554*
X0234327Y00631*
X0234219Y0063646*
X0233909Y0064109*
X0233446Y0064419*
X02329Y0064527*
X0232396Y0064427*
X0232211Y0064551*
X0231975Y0064767*
X0232021Y0065*
X0231936Y0065429*
X0231693Y0065793*
X0231329Y0066036*
X02309Y0066122*
G37*
G36*
X00668Y0066221D02*
X0066268Y0066151D01*
X0065307Y0065753*
X0064481Y0065119*
X0063847Y0064293*
X0063449Y0063332*
X0063379Y00628*
X00668*
Y0066221*
G37*
G36*
X00678D02*
Y00628D01*
X0071221*
X0071151Y0063332*
X0070753Y0064293*
X0070119Y0065119*
X0069293Y0065753*
X0068332Y0066151*
X00678Y0066221*
G37*
G36*
X01712Y0063527D02*
X0170654Y0063419D01*
X0170191Y0063109*
X0169881Y0062646*
X0169773Y00621*
X0169881Y0061554*
X0170191Y0061091*
X0170654Y0060781*
X01712Y0060673*
X0171746Y0060781*
X0172209Y0061091*
X0172519Y0061554*
X0172627Y00621*
X0172519Y0062646*
X0172209Y0063109*
X0171746Y0063419*
X01712Y0063527*
G37*
G36*
X03741Y0066182D02*
X0373225Y0066066D01*
X0372409Y0065729*
X0371709Y0065191*
X0371171Y0064491*
X0370834Y0063675*
X0370718Y00628*
X0370834Y0061925*
X0371171Y0061109*
X0371709Y0060409*
X0372409Y0059871*
X0373225Y0059534*
X03741Y0059418*
X0374975Y0059534*
X0375791Y0059871*
X0376491Y0060409*
X0377029Y0061109*
X0377366Y0061925*
X0377482Y00628*
X0377366Y0063675*
X0377029Y0064491*
X0376491Y0065191*
X0375791Y0065729*
X0374975Y0066066*
X03741Y0066182*
G37*
G36*
X02262Y0062622D02*
X0225771Y0062536D01*
X0225407Y0062293*
X0225164Y0061929*
X0225079Y00615*
X0225164Y0061071*
X0225407Y0060707*
X0225771Y0060464*
X02262Y0060378*
X0226629Y0060464*
X0226993Y0060707*
X0227236Y0061071*
X0227322Y00615*
X0227236Y0061929*
X0226993Y0062293*
X0226629Y0062536*
X02262Y0062622*
G37*
G36*
X01603Y0063427D02*
X0159754Y0063319D01*
X0159291Y0063009*
X0158981Y0062546*
X0158873Y0062*
X0158981Y0061454*
X0159291Y0060991*
X0159754Y0060681*
X01603Y0060573*
X0160846Y0060681*
X0161309Y0060991*
X0161619Y0061454*
X0161727Y0062*
X0161619Y0062546*
X0161309Y0063009*
X0160846Y0063319*
X01603Y0063427*
G37*
G36*
X02201Y0067522D02*
X0219671Y0067436D01*
X0219307Y0067193*
X0219064Y0066829*
X0218979Y00664*
X0219064Y0065971*
X0219307Y0065607*
X0219671Y0065364*
X02201Y0065278*
X0220529Y0065364*
X0220893Y0065607*
X0221136Y0065971*
X0221221Y00664*
X0221136Y0066829*
X0220893Y0067193*
X0220529Y0067436*
X02201Y0067522*
G37*
G36*
X01769Y0068527D02*
X0176354Y0068419D01*
X0175891Y0068109*
X0175581Y0067646*
X0175473Y00671*
X0175581Y0066554*
X0175891Y0066091*
X0176354Y0065781*
X01769Y0065673*
X0177446Y0065781*
X0177909Y0066091*
X0178219Y0066554*
X0178327Y00671*
X0178219Y0067646*
X0177909Y0068109*
X0177446Y0068419*
X01769Y0068527*
G37*
G36*
X02268D02*
X0226254Y0068419D01*
X0225791Y0068109*
X0225481Y0067646*
X0225373Y00671*
X0225481Y0066554*
X0225791Y0066091*
X0226254Y0065781*
X02268Y0065673*
X0227346Y0065781*
X0227809Y0066091*
X0228119Y0066554*
X0228227Y00671*
X0228119Y0067646*
X0227809Y0068109*
X0227346Y0068419*
X02268Y0068527*
G37*
G36*
X01668Y0067122D02*
X0166371Y0067036D01*
X0166007Y0066793*
X0165764Y0066429*
X0165678Y0066*
X0165764Y0065571*
X0166007Y0065207*
X0166371Y0064964*
X01668Y0064878*
X0167229Y0064964*
X0167593Y0065207*
X0167836Y0065571*
X0167922Y0066*
X0167836Y0066429*
X0167593Y0066793*
X0167229Y0067036*
X01668Y0067122*
G37*
G36*
X03636Y0066721D02*
X0363068Y0066651D01*
X0362107Y0066253*
X0361281Y0065619*
X0360647Y0064793*
X0360249Y0063832*
X0360179Y00633*
X03636*
Y0066721*
G37*
G36*
X03646D02*
Y00633D01*
X0368021*
X0367951Y0063832*
X0367553Y0064793*
X0366919Y0065619*
X0366093Y0066253*
X0365132Y0066651*
X03646Y0066721*
G37*
G36*
X01627Y0066022D02*
X0162271Y0065936D01*
X0161907Y0065693*
X0161664Y0065329*
X0161578Y00649*
X0161664Y0064471*
X0161907Y0064107*
X0162271Y0063864*
X01627Y0063778*
X0163129Y0063864*
X0163493Y0064107*
X0163736Y0064471*
X0163822Y00649*
X0163736Y0065329*
X0163493Y0065693*
X0163129Y0065936*
X01627Y0066022*
G37*
G36*
X00773Y0065682D02*
X0076425Y0065566D01*
X0075609Y0065229*
X0074909Y0064691*
X0074371Y0063991*
X0074034Y0063175*
X0073918Y00623*
X0074034Y0061425*
X0074371Y0060609*
X0074909Y0059909*
X0075609Y0059371*
X0076425Y0059034*
X00773Y0058918*
X0078175Y0059034*
X0078991Y0059371*
X0079691Y0059909*
X0080229Y0060609*
X0080566Y0061425*
X0080682Y00623*
X0080566Y0063175*
X0080229Y0063991*
X0079691Y0064691*
X0078991Y0065229*
X0078175Y0065566*
X00773Y0065682*
G37*
G36*
Y0055682D02*
X0076425Y0055566D01*
X0075609Y0055229*
X0074909Y0054691*
X0074371Y0053991*
X0074034Y0053175*
X0073918Y00523*
X0074034Y0051425*
X0074371Y0050609*
X0074909Y0049909*
X0075609Y0049371*
X0076425Y0049034*
X00773Y0048918*
X0078175Y0049034*
X0078991Y0049371*
X0079691Y0049909*
X0080229Y0050609*
X0080566Y0051425*
X0080682Y00523*
X0080566Y0053175*
X0080229Y0053991*
X0079691Y0054691*
X0078991Y0055229*
X0078175Y0055566*
X00773Y0055682*
G37*
G36*
X03741Y0056182D02*
X0373225Y0056066D01*
X0372409Y0055729*
X0371709Y0055191*
X0371171Y0054491*
X0370834Y0053675*
X0370718Y00528*
X0370834Y0051925*
X0371171Y0051109*
X0371709Y0050409*
X0372409Y0049871*
X0373225Y0049534*
X03741Y0049418*
X0374975Y0049534*
X0375791Y0049871*
X0376491Y0050409*
X0377029Y0051109*
X0377366Y0051925*
X0377482Y00528*
X0377366Y0053675*
X0377029Y0054491*
X0376491Y0055191*
X0375791Y0055729*
X0374975Y0056066*
X03741Y0056182*
G37*
G36*
X00668Y0056221D02*
X0066268Y0056151D01*
X0065307Y0055753*
X0064481Y0055119*
X0063847Y0054293*
X0063449Y0053332*
X0063379Y00528*
X00668*
Y0056221*
G37*
G36*
X0368021Y00523D02*
X03646D01*
Y0048879*
X0365132Y0048949*
X0366093Y0049347*
X0366919Y0049981*
X0367553Y0050807*
X0367951Y0051768*
X0368021Y00523*
G37*
G36*
X00668Y00518D02*
X0063379D01*
X0063449Y0051268*
X0063847Y0050307*
X0064481Y0049481*
X0065307Y0048847*
X0066268Y0048449*
X00668Y0048379*
Y00518*
G37*
G36*
X0071221D02*
X00678D01*
Y0048379*
X0068332Y0048449*
X0069293Y0048847*
X0070119Y0049481*
X0070753Y0050307*
X0071151Y0051268*
X0071221Y00518*
G37*
G36*
X03636Y00523D02*
X0360179D01*
X0360249Y0051768*
X0360647Y0050807*
X0361281Y0049981*
X0362107Y0049347*
X0363068Y0048949*
X03636Y0048879*
Y00523*
G37*
G36*
X0071221Y00618D02*
X00678D01*
Y0058379*
X0068332Y0058449*
X0069293Y0058847*
X0070119Y0059481*
X0070753Y0060307*
X0071151Y0061268*
X0071221Y00618*
G37*
G36*
X03636Y00623D02*
X0360179D01*
X0360249Y0061768*
X0360647Y0060807*
X0361281Y0059981*
X0362107Y0059347*
X0363068Y0058949*
X03636Y0058879*
Y00623*
G37*
G36*
X0368021D02*
X03646D01*
Y0058879*
X0365132Y0058949*
X0366093Y0059347*
X0366919Y0059981*
X0367553Y0060807*
X0367951Y0061768*
X0368021Y00623*
G37*
G36*
X00668Y00618D02*
X0063379D01*
X0063449Y0061268*
X0063847Y0060307*
X0064481Y0059481*
X0065307Y0058847*
X0066268Y0058449*
X00668Y0058379*
Y00618*
G37*
G36*
X00678Y0056221D02*
Y00528D01*
X0071221*
X0071151Y0053332*
X0070753Y0054293*
X0070119Y0055119*
X0069293Y0055753*
X0068332Y0056151*
X00678Y0056221*
G37*
G36*
X03636Y0056721D02*
X0363068Y0056651D01*
X0362107Y0056253*
X0361281Y0055619*
X0360647Y0054793*
X0360249Y0053832*
X0360179Y00533*
X03636*
Y0056721*
G37*
G36*
X03646D02*
Y00533D01*
X0368021*
X0367951Y0053832*
X0367553Y0054793*
X0366919Y0055619*
X0366093Y0056253*
X0365132Y0056651*
X03646Y0056721*
G37*
G36*
X0081221Y01618D02*
X00778D01*
Y0158379*
X0078332Y0158449*
X0079293Y0158847*
X0080119Y0159481*
X0080753Y0160307*
X0081151Y0161268*
X0081221Y01618*
G37*
G36*
X03636Y01623D02*
X0360179D01*
X0360249Y0161768*
X0360647Y0160807*
X0361281Y0159981*
X0362107Y0159347*
X0363068Y0158949*
X03636Y0158879*
Y01623*
G37*
G36*
X0368021D02*
X03646D01*
Y0158879*
X0365132Y0158949*
X0366093Y0159347*
X0366919Y0159981*
X0367553Y0160807*
X0367951Y0161768*
X0368021Y01623*
G37*
G36*
X00768Y01618D02*
X0073379D01*
X0073449Y0161268*
X0073847Y0160307*
X0074481Y0159481*
X0075307Y0158847*
X0076268Y0158449*
X00768Y0158379*
Y01618*
G37*
G36*
X01984Y0156527D02*
X0197854Y0156419D01*
X0197391Y0156109*
X0197081Y0155646*
X0196973Y01551*
X0197081Y0154554*
X0197391Y0154091*
X0197854Y0153781*
X01984Y0153673*
X0198946Y0153781*
X0199409Y0154091*
X0199719Y0154554*
X0199827Y01551*
X0199719Y0155646*
X0199409Y0156109*
X0198946Y0156419*
X01984Y0156527*
G37*
G36*
X00668Y01618D02*
X0063379D01*
X0063449Y0161268*
X0063847Y0160307*
X0064481Y0159481*
X0065307Y0158847*
X0066268Y0158449*
X00668Y0158379*
Y01618*
G37*
G36*
X0071221D02*
X00678D01*
Y0158379*
X0068332Y0158449*
X0069293Y0158847*
X0070119Y0159481*
X0070753Y0160307*
X0071151Y0161268*
X0071221Y01618*
G37*
G36*
X00678Y0166221D02*
Y01628D01*
X0071221*
X0071151Y0163332*
X0070753Y0164293*
X0070119Y0165119*
X0069293Y0165753*
X0068332Y0166151*
X00678Y0166221*
G37*
G36*
X00768D02*
X0076268Y0166151D01*
X0075307Y0165753*
X0074481Y0165119*
X0073847Y0164293*
X0073449Y0163332*
X0073379Y01628*
X00768*
Y0166221*
G37*
G36*
X00778D02*
Y01628D01*
X0081221*
X0081151Y0163332*
X0080753Y0164293*
X0080119Y0165119*
X0079293Y0165753*
X0078332Y0166151*
X00778Y0166221*
G37*
G36*
X00668D02*
X0066268Y0166151D01*
X0065307Y0165753*
X0064481Y0165119*
X0063847Y0164293*
X0063449Y0163332*
X0063379Y01628*
X00668*
Y0166221*
G37*
G36*
X03736Y01623D02*
X0370179D01*
X0370249Y0161768*
X0370647Y0160807*
X0371281Y0159981*
X0372107Y0159347*
X0373068Y0158949*
X03736Y0158879*
Y01623*
G37*
G36*
X0378021D02*
X03746D01*
Y0158879*
X0375132Y0158949*
X0376093Y0159347*
X0376919Y0159981*
X0377553Y0160807*
X0377951Y0161768*
X0378021Y01623*
G37*
G36*
X02488Y0165027D02*
X0248254Y0164919D01*
X0247791Y0164609*
X0247481Y0164146*
X0247373Y01636*
X0247481Y0163054*
X0247791Y0162591*
X0248254Y0162281*
X02488Y0162173*
X0249346Y0162281*
X0249809Y0162591*
X0250119Y0163054*
X0250227Y01636*
X0250119Y0164146*
X0249809Y0164609*
X0249346Y0164919*
X02488Y0165027*
G37*
G36*
X03646Y0156721D02*
Y01533D01*
X0368021*
X0367951Y0153832*
X0367553Y0154793*
X0366919Y0155619*
X0366093Y0156253*
X0365132Y0156651*
X03646Y0156721*
G37*
G36*
Y0146721D02*
Y01433D01*
X0368021*
X0367951Y0143832*
X0367553Y0144793*
X0366919Y0145619*
X0366093Y0146253*
X0365132Y0146651*
X03646Y0146721*
G37*
G36*
X00668Y01518D02*
X0063379D01*
X0063449Y0151268*
X0063847Y0150307*
X0064481Y0149481*
X0065307Y0148847*
X0066268Y0148449*
X00668Y0148379*
Y01518*
G37*
G36*
X0071221D02*
X00678D01*
Y0148379*
X0068332Y0148449*
X0069293Y0148847*
X0070119Y0149481*
X0070753Y0150307*
X0071151Y0151268*
X0071221Y01518*
G37*
G36*
X03636Y0146721D02*
X0363068Y0146651D01*
X0362107Y0146253*
X0361281Y0145619*
X0360647Y0144793*
X0360249Y0143832*
X0360179Y01433*
X03636*
Y0146721*
G37*
G36*
X01689Y0142327D02*
X0168354Y0142219D01*
X0167891Y0141909*
X0167581Y0141446*
X0167473Y01409*
X0167581Y0140354*
X0167891Y0139891*
X0168354Y0139581*
X01689Y0139473*
X0169446Y0139581*
X0169909Y0139891*
X0170219Y0140354*
X0170327Y01409*
X0170219Y0141446*
X0169909Y0141909*
X0169446Y0142219*
X01689Y0142327*
G37*
G36*
X00668Y0146221D02*
X0066268Y0146151D01*
X0065307Y0145753*
X0064481Y0145119*
X0063847Y0144293*
X0063449Y0143332*
X0063379Y01428*
X00668*
Y0146221*
G37*
G36*
X00678D02*
Y01428D01*
X0071221*
X0071151Y0143332*
X0070753Y0144293*
X0070119Y0145119*
X0069293Y0145753*
X0068332Y0146151*
X00678Y0146221*
G37*
G36*
X00668Y0156221D02*
X0066268Y0156151D01*
X0065307Y0155753*
X0064481Y0155119*
X0063847Y0154293*
X0063449Y0153332*
X0063379Y01528*
X00668*
Y0156221*
G37*
G36*
X00678D02*
Y01528D01*
X0071221*
X0071151Y0153332*
X0070753Y0154293*
X0070119Y0155119*
X0069293Y0155753*
X0068332Y0156151*
X00678Y0156221*
G37*
G36*
X03636Y0156721D02*
X0363068Y0156651D01*
X0362107Y0156253*
X0361281Y0155619*
X0360647Y0154793*
X0360249Y0153832*
X0360179Y01533*
X03636*
Y0156721*
G37*
G36*
X03741Y0156182D02*
X0373225Y0156067D01*
X0372409Y0155729*
X0371709Y0155191*
X0371171Y0154491*
X0370834Y0153675*
X0370718Y01528*
X0370834Y0151925*
X0371171Y0151109*
X0371709Y0150409*
X0372409Y0149871*
X0373225Y0149533*
X03741Y0149418*
X0374975Y0149533*
X0375791Y0149871*
X0376491Y0150409*
X0377029Y0151109*
X0377366Y0151925*
X0377482Y01528*
X0377366Y0153675*
X0377029Y0154491*
X0376491Y0155191*
X0375791Y0155729*
X0374975Y0156067*
X03741Y0156182*
G37*
G36*
X03636Y01523D02*
X0360179D01*
X0360249Y0151768*
X0360647Y0150807*
X0361281Y0149981*
X0362107Y0149347*
X0363068Y0148949*
X03636Y0148879*
Y01523*
G37*
G36*
X0368021D02*
X03646D01*
Y0148879*
X0365132Y0148949*
X0366093Y0149347*
X0366919Y0149981*
X0367553Y0150807*
X0367951Y0151768*
X0368021Y01523*
G37*
G36*
X00773Y0155682D02*
X0076425Y0155567D01*
X0075609Y0155229*
X0074909Y0154691*
X0074371Y0153991*
X0074034Y0153175*
X0073918Y01523*
X0074034Y0151425*
X0074371Y0150609*
X0074909Y0149909*
X0075609Y0149371*
X0076425Y0149033*
X00773Y0148918*
X0078175Y0149033*
X0078991Y0149371*
X0079691Y0149909*
X0080229Y0150609*
X0080566Y0151425*
X0080682Y01523*
X0080566Y0153175*
X0080229Y0153991*
X0079691Y0154691*
X0078991Y0155229*
X0078175Y0155567*
X00773Y0155682*
G37*
G36*
X03636Y0166721D02*
X0363068Y0166651D01*
X0362107Y0166253*
X0361281Y0165619*
X0360647Y0164793*
X0360249Y0163832*
X0360179Y01633*
X03636*
Y0166721*
G37*
G36*
X03243Y0222921D02*
X0323871Y0222836D01*
X0323507Y0222593*
X0323264Y0222229*
X0323179Y02218*
X0323264Y0221371*
X0323507Y0221007*
X0323871Y0220764*
X03243Y0220678*
X0324729Y0220764*
X0325093Y0221007*
X0325336Y0221371*
X0325422Y02218*
X0325336Y0222229*
X0325093Y0222593*
X0324729Y0222836*
X03243Y0222921*
G37*
G36*
X02649Y0229121D02*
X0264471Y0229036D01*
X0264107Y0228793*
X0263864Y0228429*
X0263778Y0228*
X0263864Y0227571*
X0264107Y0227207*
X0264471Y0226964*
X02649Y0226878*
X0265329Y0226964*
X0265693Y0227207*
X0265936Y0227571*
X0266021Y0228*
X0265936Y0228429*
X0265693Y0228793*
X0265329Y0229036*
X02649Y0229121*
G37*
G36*
X01303Y0234527D02*
X0129754Y0234419D01*
X0129291Y0234109*
X0128981Y0233646*
X0128873Y02331*
X0128981Y0232554*
X0129291Y0232091*
X0129754Y0231781*
X01303Y0231673*
X0130846Y0231781*
X0131309Y0232091*
X0131619Y0232554*
X0131727Y02331*
X0131619Y0233646*
X0131309Y0234109*
X0130846Y0234419*
X01303Y0234527*
G37*
G36*
X02638Y0222322D02*
X0263371Y0222236D01*
X0263007Y0221993*
X0262764Y0221629*
X0262679Y02212*
X0262764Y0220771*
X0263007Y0220407*
X0263371Y0220164*
X02638Y0220078*
X0264229Y0220164*
X0264593Y0220407*
X0264836Y0220771*
X0264921Y02212*
X0264836Y0221629*
X0264593Y0221993*
X0264229Y0222236*
X02638Y0222322*
G37*
G36*
X0127Y0197622D02*
X0126571Y0197536D01*
X0126207Y0197293*
X0125964Y0196929*
X0125878Y01965*
X0125964Y0196071*
X0126207Y0195707*
X0126571Y0195464*
X0127Y0195378*
X0127429Y0195464*
X0127793Y0195707*
X0128036Y0196071*
X0128122Y01965*
X0128036Y0196929*
X0127793Y0197293*
X0127429Y0197536*
X0127Y0197622*
G37*
G36*
X01102Y0201822D02*
X0109771Y0201736D01*
X0109407Y0201493*
X0109164Y0201129*
X0109078Y02007*
X0109164Y0200271*
X0109407Y0199907*
X0109771Y0199664*
X01102Y0199578*
X0110629Y0199664*
X0110993Y0199907*
X0111236Y0200271*
X0111322Y02007*
X0111236Y0201129*
X0110993Y0201493*
X0110629Y0201736*
X01102Y0201822*
G37*
G36*
X03224Y0203922D02*
X0321971Y0203836D01*
X0321607Y0203593*
X0321364Y0203229*
X0321279Y02028*
X0321364Y0202371*
X0321607Y0202007*
X0321971Y0201764*
X03224Y0201678*
X0322829Y0201764*
X0323193Y0202007*
X0323436Y0202371*
X0323521Y02028*
X0323436Y0203229*
X0323193Y0203593*
X0322829Y0203836*
X03224Y0203922*
G37*
G36*
X01282Y0238222D02*
X0127771Y0238136D01*
X0127407Y0237893*
X0127164Y0237529*
X0127078Y02371*
X0127164Y0236671*
X0127407Y0236307*
X0127771Y0236064*
X01282Y0235979*
X0128629Y0236064*
X0128993Y0236307*
X0129236Y0236671*
X0129322Y02371*
X0129236Y0237529*
X0128993Y0237893*
X0128629Y0238136*
X01282Y0238222*
G37*
G36*
X02154Y0237122D02*
X0214971Y0237036D01*
X0214607Y0236793*
X0214364Y0236429*
X0214345Y0236332*
X0214334Y023628*
X0214325Y0236257*
X0213797Y0236144*
X0213736Y0236229*
X0213733Y0236235*
X021371Y0236269*
X0213493Y0236593*
X0213129Y0236836*
X02127Y0236922*
X0212271Y0236836*
X0211907Y0236593*
X0211664Y0236229*
X0211578Y02358*
X0211664Y0235371*
X0211907Y0235007*
X0212271Y0234764*
X02127Y0234679*
X0213129Y0234764*
X0213493Y0235007*
X0213736Y0235371*
X0213755Y0235468*
X0213766Y023552*
X021377Y0235542*
X0213766Y023552*
X0213775Y0235543*
X0214303Y0235656*
X0214364Y0235571*
X0214367Y0235565*
X021439Y0235531*
X0214607Y0235207*
X0214971Y0234964*
X02154Y0234878*
X0215829Y0234964*
X0216193Y0235207*
X0216436Y0235571*
X0216522Y0236*
X0216436Y0236429*
X0216193Y0236793*
X0215829Y0237036*
X02154Y0237122*
G37*
G36*
X01409Y0238422D02*
X0140471Y0238336D01*
X0140107Y0238093*
X0139864Y0237729*
X0139778Y02373*
X0139864Y0236871*
X0140107Y0236507*
X0140471Y0236264*
X01409Y0236178*
X0141329Y0236264*
X0141693Y0236507*
X0141936Y0236871*
X0142022Y02373*
X0141936Y0237729*
X0141693Y0238093*
X0141329Y0238336*
X01409Y0238422*
G37*
G36*
X01379Y0238122D02*
X0137471Y0238036D01*
X0137107Y0237793*
X0136864Y0237429*
X0136778Y0237*
X0136864Y0236571*
X0137107Y0236207*
X0137471Y0235964*
X01379Y0235878*
X0138329Y0235964*
X0138693Y0236207*
X0138936Y0236571*
X0139022Y0237*
X0138936Y0237429*
X0138693Y0237793*
X0138329Y0238036*
X01379Y0238122*
G37*
G36*
X0160337Y0234827D02*
X0159791Y0234719D01*
X0159328Y0234409*
X0159018Y0233946*
X015891Y02334*
X0159018Y0232854*
X0159328Y0232391*
X0159791Y0232081*
X0160337Y0231973*
X0160883Y0232081*
X0161346Y0232391*
X0161656Y0232854*
X0161764Y02334*
X0161656Y0233946*
X0161346Y0234409*
X0160883Y0234719*
X0160337Y0234827*
G37*
G36*
X01348Y0237222D02*
X0134371Y0237136D01*
X0134007Y0236893*
X0133764Y0236529*
X0133678Y02361*
X0133764Y0235671*
X0134007Y0235307*
X0134371Y0235064*
X01348Y0234979*
X0135229Y0235064*
X0135593Y0235307*
X0135836Y0235671*
X0135922Y02361*
X0135836Y0236529*
X0135593Y0236893*
X0135229Y0237136*
X01348Y0237222*
G37*
G36*
X01315Y0237421D02*
X0131071Y0237336D01*
X0130707Y0237093*
X0130464Y0236729*
X0130378Y02363*
X0130464Y0235871*
X0130707Y0235507*
X0131071Y0235264*
X01315Y0235178*
X0131929Y0235264*
X0132293Y0235507*
X0132536Y0235871*
X0132622Y02363*
X0132536Y0236729*
X0132293Y0237093*
X0131929Y0237336*
X01315Y0237421*
G37*
G36*
X02486Y0188927D02*
X0248054Y0188819D01*
X0247591Y0188509*
X0247281Y0188046*
X0247173Y01875*
X0247281Y0186954*
X0247591Y0186491*
X0248054Y0186181*
X02486Y0186073*
X0249146Y0186181*
X0249609Y0186491*
X0249919Y0186954*
X0250027Y01875*
X0249919Y0188046*
X0249609Y0188509*
X0249146Y0188819*
X02486Y0188927*
G37*
G36*
X0071253Y01718D02*
X00678D01*
Y0168347*
X0071253*
Y01718*
G37*
G36*
X02557Y0171627D02*
X0255154Y0171519D01*
X0254691Y0171209*
X0254381Y0170746*
X0254273Y01702*
X0254381Y0169654*
X0254691Y0169191*
X0255154Y0168881*
X02557Y0168773*
X0256246Y0168881*
X0256709Y0169191*
X0257019Y0169654*
X0257127Y01702*
X0257019Y0170746*
X0256709Y0171209*
X0256246Y0171519*
X02557Y0171627*
G37*
G36*
X03636Y01723D02*
X0360147D01*
Y0168847*
X03636*
Y01723*
G37*
G36*
X00668Y01718D02*
X0063347D01*
Y0168347*
X00668*
Y01718*
G37*
G36*
X03646Y0166721D02*
Y01633D01*
X0368021*
X0367951Y0163832*
X0367553Y0164793*
X0366919Y0165619*
X0366093Y0166253*
X0365132Y0166651*
X03646Y0166721*
G37*
G36*
X03736D02*
X0373068Y0166651D01*
X0372107Y0166253*
X0371281Y0165619*
X0370647Y0164793*
X0370249Y0163832*
X0370179Y01633*
X03736*
Y0166721*
G37*
G36*
X03746D02*
Y01633D01*
X0378021*
X0377951Y0163832*
X0377553Y0164793*
X0376919Y0165619*
X0376093Y0166253*
X0375132Y0166651*
X03746Y0166721*
G37*
G36*
X0071253Y0176253D02*
X00678D01*
Y01728*
X0071253*
Y0176253*
G37*
G36*
X03636Y0176753D02*
X0360147D01*
Y01733*
X03636*
Y0176753*
G37*
G36*
X0368053D02*
X03646D01*
Y01733*
X0368053*
Y0176753*
G37*
G36*
X00668Y0176253D02*
X0063347D01*
Y01728*
X00668*
Y0176253*
G37*
G36*
X0368053Y01723D02*
X03646D01*
Y0168847*
X0368053*
Y01723*
G37*
G36*
X00773Y0175682D02*
X0076425Y0175566D01*
X0075609Y0175229*
X0074909Y0174691*
X0074371Y0173991*
X0074034Y0173175*
X0073918Y01723*
X0074034Y0171425*
X0074371Y0170609*
X0074909Y0169909*
X0075609Y0169371*
X0076425Y0169034*
X00773Y0168918*
X0078175Y0169034*
X0078991Y0169371*
X0079691Y0169909*
X0080229Y0170609*
X0080566Y0171425*
X0080682Y01723*
X0080566Y0173175*
X0080229Y0173991*
X0079691Y0174691*
X0078991Y0175229*
X0078175Y0175566*
X00773Y0175682*
G37*
G36*
X03741Y0176182D02*
X0373225Y0176067D01*
X0372409Y0175729*
X0371709Y0175191*
X0371171Y0174491*
X0370834Y0173675*
X0370718Y01728*
X0370834Y0171925*
X0371171Y0171109*
X0371709Y0170409*
X0372409Y0169871*
X0373225Y0169534*
X03741Y0169418*
X0374975Y0169534*
X0375791Y0169871*
X0376491Y0170409*
X0377029Y0171109*
X0377366Y0171925*
X0377482Y01728*
X0377366Y0173675*
X0377029Y0174491*
X0376491Y0175191*
X0375791Y0175729*
X0374975Y0176067*
X03741Y0176182*
G37*
G36*
Y0146182D02*
X0373225Y0146066D01*
X0372409Y0145729*
X0371709Y0145191*
X0371171Y0144491*
X0370834Y0143675*
X0370718Y01428*
X0370834Y0141925*
X0371171Y0141109*
X0371709Y0140409*
X0372409Y0139871*
X0373225Y0139533*
X03741Y0139418*
X0374975Y0139533*
X0375791Y0139871*
X0376491Y0140409*
X0377029Y0141109*
X0377366Y0141925*
X0377482Y01428*
X0377366Y0143675*
X0377029Y0144491*
X0376491Y0145191*
X0375791Y0145729*
X0374975Y0146066*
X03741Y0146182*
G37*
G36*
X00678Y0116221D02*
Y01128D01*
X0071221*
X0071151Y0113332*
X0070753Y0114293*
X0070119Y0115119*
X0069293Y0115753*
X0068332Y0116151*
X00678Y0116221*
G37*
G36*
X00768D02*
X0076268Y0116151D01*
X0075307Y0115753*
X0074481Y0115119*
X0073847Y0114293*
X0073449Y0113332*
X0073379Y01128*
X00768*
Y0116221*
G37*
G36*
X00778D02*
Y01128D01*
X0081221*
X0081151Y0113332*
X0080753Y0114293*
X0080119Y0115119*
X0079293Y0115753*
X0078332Y0116151*
X00778Y0116221*
G37*
G36*
X00668D02*
X0066268Y0116151D01*
X0065307Y0115753*
X0064481Y0115119*
X0063847Y0114293*
X0063449Y0113332*
X0063379Y01128*
X00668*
Y0116221*
G37*
G36*
X0368021Y01123D02*
X03646D01*
Y0108879*
X0365132Y0108949*
X0366093Y0109347*
X0366919Y0109981*
X0367553Y0110807*
X0367951Y0111768*
X0368021Y01123*
G37*
G36*
X03736D02*
X0370179D01*
X0370249Y0111768*
X0370647Y0110807*
X0371281Y0109981*
X0372107Y0109347*
X0373068Y0108949*
X03736Y0108879*
Y01123*
G37*
G36*
X0378021D02*
X03746D01*
Y0108879*
X0375132Y0108949*
X0376093Y0109347*
X0376919Y0109981*
X0377553Y0110807*
X0377951Y0111768*
X0378021Y01123*
G37*
G36*
X02385Y0116327D02*
X0237954Y0116219D01*
X0237491Y0115909*
X0237181Y0115446*
X0237073Y01149*
X0237181Y0114354*
X0237491Y0113891*
X0237954Y0113581*
X02385Y0113473*
X0239046Y0113581*
X0239509Y0113891*
X0239819Y0114354*
X0239927Y01149*
X0239819Y0115446*
X0239509Y0115909*
X0239046Y0116219*
X02385Y0116327*
G37*
G36*
X01653Y0116922D02*
X0164871Y0116836D01*
X0164507Y0116593*
X0164264Y0116229*
X0164178Y01158*
X0164264Y0115371*
X0164507Y0115007*
X0164871Y0114764*
X01653Y0114678*
X0165729Y0114764*
X0166093Y0115007*
X0166336Y0115371*
X0166422Y01158*
X0166336Y0116229*
X0166093Y0116593*
X0165729Y0116836*
X01653Y0116922*
G37*
G36*
X0151Y0119427D02*
X0150454Y0119319D01*
X0149991Y0119009*
X0149681Y0118546*
X0149573Y0118*
X0149681Y0117454*
X0149991Y0116991*
X0150454Y0116681*
X0151Y0116573*
X0151546Y0116681*
X0152009Y0116991*
X0152319Y0117454*
X0152427Y0118*
X0152319Y0118546*
X0152009Y0119009*
X0151546Y0119319*
X0151Y0119427*
G37*
G36*
X03746Y0116721D02*
Y01133D01*
X0378021*
X0377951Y0113832*
X0377553Y0114793*
X0376919Y0115619*
X0376093Y0116253*
X0375132Y0116651*
X03746Y0116721*
G37*
G36*
X03636D02*
X0363068Y0116651D01*
X0362107Y0116253*
X0361281Y0115619*
X0360647Y0114793*
X0360249Y0113832*
X0360179Y01133*
X03636*
Y0116721*
G37*
G36*
X03646D02*
Y01133D01*
X0368021*
X0367951Y0113832*
X0367553Y0114793*
X0366919Y0115619*
X0366093Y0116253*
X0365132Y0116651*
X03646Y0116721*
G37*
G36*
X03736D02*
X0373068Y0116651D01*
X0372107Y0116253*
X0371281Y0115619*
X0370647Y0114793*
X0370249Y0113832*
X0370179Y01133*
X03736*
Y0116721*
G37*
G36*
X03636Y01123D02*
X0360179D01*
X0360249Y0111768*
X0360647Y0110807*
X0361281Y0109981*
X0362107Y0109347*
X0363068Y0108949*
X03636Y0108879*
Y01123*
G37*
G36*
X01803Y0108327D02*
X0179754Y0108219D01*
X0179291Y0107909*
X0178981Y0107446*
X0178873Y01069*
X0178981Y0106354*
X0179291Y0105891*
X0179754Y0105581*
X01803Y0105473*
X0180846Y0105581*
X0181309Y0105891*
X0181619Y0106354*
X0181727Y01069*
X0181619Y0107446*
X0181309Y0107909*
X0180846Y0108219*
X01803Y0108327*
G37*
G36*
X02348Y0108222D02*
X0234371Y0108136D01*
X0234007Y0107893*
X0233764Y0107529*
X0233679Y01071*
X0233764Y0106671*
X0234007Y0106307*
X0234371Y0106064*
X02348Y0105978*
X0235229Y0106064*
X0235426Y0106195*
X0235644Y0106283*
X0236051Y0106091*
X0236107Y0106007*
X0236471Y0105764*
X02369Y0105678*
X0237329Y0105764*
X0237693Y0106007*
X0237936Y0106371*
X0238021Y01068*
X0237936Y0107229*
X0237693Y0107593*
X0237329Y0107836*
X02369Y0107922*
X0236471Y0107836*
X0236274Y0107705*
X0236056Y0107617*
X0235649Y0107808*
X0235593Y0107893*
X0235229Y0108136*
X02348Y0108222*
G37*
G36*
X0213346Y0108582D02*
X0212799Y0108473D01*
X0212336Y0108164*
X0212027Y0107701*
X0211918Y0107154*
X0212027Y0106608*
X0212336Y0106145*
X0212799Y0105836*
X0213346Y0105727*
X0213892Y0105836*
X0214355Y0106145*
X0214664Y0106608*
X0214773Y0107154*
X0214664Y0107701*
X0214355Y0108164*
X0213892Y0108473*
X0213346Y0108582*
G37*
G36*
X02412Y0111322D02*
X0240771Y0111236D01*
X0240407Y0110993*
X0240164Y0110629*
X0240078Y01102*
X0240164Y0109771*
X0240407Y0109407*
X0240771Y0109164*
X02412Y0109078*
X0241629Y0109164*
X0241749Y0108845*
X0241764Y0108771*
X0242007Y0108407*
X0242371Y0108164*
X02428Y0108078*
X0243119Y0107697*
X0243164Y0107471*
X0243407Y0107107*
X0243771Y0106864*
X0243934Y0106831*
X0244303Y0106557*
X0244416Y0106312*
X0244464Y0106071*
X0244707Y0105707*
X0245071Y0105464*
X02455Y0105378*
X0245929Y0105464*
X0246293Y0105707*
X0246536Y0106071*
X0246621Y01065*
X0246536Y0106929*
X0246293Y0107293*
X0245929Y0107536*
X0245765Y0107569*
X0245397Y0107843*
X0245284Y0108088*
X0245236Y0108329*
X0244993Y0108693*
X0244629Y0108936*
X0244388Y0108984*
X0243921Y01092*
X0243836Y0109629*
X0243593Y0109993*
X0243229Y0110236*
X02428Y0110322*
X0242371Y0110236*
X0242251Y0110555*
X0242236Y0110629*
X0241993Y0110993*
X0241629Y0111236*
X02412Y0111322*
G37*
G36*
X00678Y0106221D02*
Y01028D01*
X0071221*
X0071151Y0103332*
X0070753Y0104293*
X0070119Y0105119*
X0069293Y0105753*
X0068332Y0106151*
X00678Y0106221*
G37*
G36*
X03636Y0106721D02*
X0363068Y0106651D01*
X0362107Y0106253*
X0361281Y0105619*
X0360647Y0104793*
X0360249Y0103832*
X0360179Y01033*
X03636*
Y0106721*
G37*
G36*
X03646D02*
Y01033D01*
X0368021*
X0367951Y0103832*
X0367553Y0104793*
X0366919Y0105619*
X0366093Y0106253*
X0365132Y0106651*
X03646Y0106721*
G37*
G36*
X0071221Y01118D02*
X00678D01*
Y0108379*
X0068332Y0108449*
X0069293Y0108847*
X0070119Y0109481*
X0070753Y0110307*
X0071151Y0111268*
X0071221Y01118*
G37*
G36*
X00768D02*
X0073379D01*
X0073449Y0111268*
X0073847Y0110307*
X0074481Y0109481*
X0075307Y0108847*
X0076268Y0108449*
X00768Y0108379*
Y01118*
G37*
G36*
X0081221D02*
X00778D01*
Y0108379*
X0078332Y0108449*
X0079293Y0108847*
X0080119Y0109481*
X0080753Y0110307*
X0081151Y0111268*
X0081221Y01118*
G37*
G36*
X00668D02*
X0063379D01*
X0063449Y0111268*
X0063847Y0110307*
X0064481Y0109481*
X0065307Y0108847*
X0066268Y0108449*
X00668Y0108379*
Y01118*
G37*
G36*
X02304Y0108622D02*
X0229971Y0108536D01*
X0229607Y0108293*
X0229364Y0107929*
X0229278Y01075*
X0229364Y0107071*
X0229607Y0106707*
X0229971Y0106464*
X02304Y0106378*
X0230829Y0106464*
X0231193Y0106707*
X0231436Y0107071*
X0231522Y01075*
X0231436Y0107929*
X0231193Y0108293*
X0230829Y0108536*
X02304Y0108622*
G37*
G36*
X02231Y0109222D02*
X0222671Y0109136D01*
X0222307Y0108893*
X0222064Y0108529*
X0221978Y01081*
X0222064Y0107671*
X0222307Y0107307*
X0222671Y0107064*
X02231Y0106978*
X0223529Y0107064*
X0223893Y0107307*
X0224136Y0107671*
X0224221Y01081*
X0224136Y0108529*
X0223893Y0108893*
X0223529Y0109136*
X02231Y0109222*
G37*
G36*
X02272Y0110322D02*
X0226771Y0110236D01*
X0226407Y0109993*
X0226164Y0109629*
X0226079Y01092*
X0226164Y0108771*
X0226407Y0108407*
X0226771Y0108164*
X02272Y0108078*
X0227629Y0108164*
X0227993Y0108407*
X0228236Y0108771*
X0228322Y01092*
X0228236Y0109629*
X0227993Y0109993*
X0227629Y0110236*
X02272Y0110322*
G37*
G36*
X00668Y01218D02*
X0063379D01*
X0063449Y0121268*
X0063847Y0120307*
X0064481Y0119481*
X0065307Y0118847*
X0066268Y0118449*
X00668Y0118379*
Y01218*
G37*
G36*
X01793Y0139127D02*
X0178754Y0139019D01*
X0178291Y0138709*
X0177981Y0138246*
X0177873Y01377*
X0177981Y0137154*
X0178291Y0136691*
X0178754Y0136381*
X01793Y0136273*
X0179846Y0136381*
X0180309Y0136691*
X0180619Y0137154*
X0180727Y01377*
X0180619Y0138246*
X0180309Y0138709*
X0179846Y0139019*
X01793Y0139127*
G37*
G36*
X02284Y0139327D02*
X0227854Y0139219D01*
X0227391Y0138909*
X0227081Y0138446*
X0226973Y01379*
X0227081Y0137354*
X0227391Y0136891*
X0227854Y0136581*
X02284Y0136473*
X0228946Y0136581*
X0229409Y0136891*
X0229719Y0137354*
X0229827Y01379*
X0229719Y0138446*
X0229409Y0138909*
X0228946Y0139219*
X02284Y0139327*
G37*
G36*
X0219Y0139627D02*
X0218454Y0139519D01*
X0217991Y0139209*
X0217681Y0138746*
X0217573Y01382*
X0217681Y0137654*
X0217991Y0137191*
X0218454Y0136881*
X0219Y0136773*
X0219546Y0136881*
X0220009Y0137191*
X0220319Y0137654*
X0220427Y01382*
X0220319Y0138746*
X0220009Y0139209*
X0219546Y0139519*
X0219Y0139627*
G37*
G36*
X03646Y0136721D02*
Y01333D01*
X0368021*
X0367951Y0133832*
X0367553Y0134793*
X0366919Y0135619*
X0366093Y0136253*
X0365132Y0136651*
X03646Y0136721*
G37*
G36*
X00668Y0136221D02*
X0066268Y0136151D01*
X0065307Y0135753*
X0064481Y0135119*
X0063847Y0134293*
X0063449Y0133332*
X0063379Y01328*
X00668*
Y0136221*
G37*
G36*
X00678D02*
Y01328D01*
X0071221*
X0071151Y0133332*
X0070753Y0134293*
X0070119Y0135119*
X0069293Y0135753*
X0068332Y0136151*
X00678Y0136221*
G37*
G36*
X03636Y0136721D02*
X0363068Y0136651D01*
X0362107Y0136253*
X0361281Y0135619*
X0360647Y0134793*
X0360249Y0133832*
X0360179Y01333*
X03636*
Y0136721*
G37*
G36*
Y01423D02*
X0360179D01*
X0360249Y0141768*
X0360647Y0140807*
X0361281Y0139981*
X0362107Y0139347*
X0363068Y0138949*
X03636Y0138879*
Y01423*
G37*
G36*
X0368021D02*
X03646D01*
Y0138879*
X0365132Y0138949*
X0366093Y0139347*
X0366919Y0139981*
X0367553Y0140807*
X0367951Y0141768*
X0368021Y01423*
G37*
G36*
X00773Y0145682D02*
X0076425Y0145566D01*
X0075609Y0145229*
X0074909Y0144691*
X0074371Y0143991*
X0074034Y0143175*
X0073918Y01423*
X0074034Y0141425*
X0074371Y0140609*
X0074909Y0139909*
X0075609Y0139371*
X0076425Y0139033*
X00773Y0138918*
X0078175Y0139033*
X0078991Y0139371*
X0079691Y0139909*
X0080229Y0140609*
X0080566Y0141425*
X0080682Y01423*
X0080566Y0143175*
X0080229Y0143991*
X0079691Y0144691*
X0078991Y0145229*
X0078175Y0145566*
X00773Y0145682*
G37*
G36*
X0071221Y01418D02*
X00678D01*
Y0138379*
X0068332Y0138449*
X0069293Y0138847*
X0070119Y0139481*
X0070753Y0140307*
X0071151Y0141268*
X0071221Y01418*
G37*
G36*
X01921Y0140127D02*
X0191554Y0140019D01*
X0191091Y0139709*
X0190781Y0139246*
X0190673Y01387*
X0190781Y0138154*
X0191091Y0137691*
X0191554Y0137381*
X01921Y0137273*
X0192646Y0137381*
X0193109Y0137691*
X0193419Y0138154*
X0193527Y01387*
X0193419Y0139246*
X0193109Y0139709*
X0192646Y0140019*
X01921Y0140127*
G37*
G36*
X02021Y0140327D02*
X0201554Y0140219D01*
X0201091Y0139909*
X0200781Y0139446*
X0200673Y01389*
X0200781Y0138354*
X0201091Y0137891*
X0201554Y0137581*
X02021Y0137473*
X0202646Y0137581*
X0203109Y0137891*
X0203419Y0138354*
X0203527Y01389*
X0203419Y0139446*
X0203109Y0139909*
X0202646Y0140219*
X02021Y0140327*
G37*
G36*
X00668Y01418D02*
X0063379D01*
X0063449Y0141268*
X0063847Y0140307*
X0064481Y0139481*
X0065307Y0138847*
X0066268Y0138449*
X00668Y0138379*
Y01418*
G37*
G36*
X03741Y0136182D02*
X0373225Y0136066D01*
X0372409Y0135729*
X0371709Y0135191*
X0371171Y0134491*
X0370834Y0133675*
X0370718Y01328*
X0370834Y0131925*
X0371171Y0131109*
X0371709Y0130409*
X0372409Y0129871*
X0373225Y0129534*
X03741Y0129418*
X0374975Y0129534*
X0375791Y0129871*
X0376491Y0130409*
X0377029Y0131109*
X0377366Y0131925*
X0377482Y01328*
X0377366Y0133675*
X0377029Y0134491*
X0376491Y0135191*
X0375791Y0135729*
X0374975Y0136066*
X03741Y0136182*
G37*
G36*
Y0126182D02*
X0373225Y0126067D01*
X0372409Y0125729*
X0371709Y0125191*
X0371171Y0124491*
X0370834Y0123675*
X0370718Y01228*
X0370834Y0121925*
X0371171Y0121109*
X0371709Y0120409*
X0372409Y0119871*
X0373225Y0119534*
X03741Y0119418*
X0374975Y0119534*
X0375791Y0119871*
X0376491Y0120409*
X0377029Y0121109*
X0377366Y0121925*
X0377482Y01228*
X0377366Y0123675*
X0377029Y0124491*
X0376491Y0125191*
X0375791Y0125729*
X0374975Y0126067*
X03741Y0126182*
G37*
G36*
X00668Y0126221D02*
X0066268Y0126151D01*
X0065307Y0125753*
X0064481Y0125119*
X0063847Y0124293*
X0063449Y0123332*
X0063379Y01228*
X00668*
Y0126221*
G37*
G36*
X00678D02*
Y01228D01*
X0071221*
X0071151Y0123332*
X0070753Y0124293*
X0070119Y0125119*
X0069293Y0125753*
X0068332Y0126151*
X00678Y0126221*
G37*
G36*
X00773Y0125682D02*
X0076425Y0125566D01*
X0075609Y0125229*
X0074909Y0124691*
X0074371Y0123991*
X0074034Y0123175*
X0073918Y01223*
X0074034Y0121425*
X0074371Y0120609*
X0074909Y0119909*
X0075609Y0119371*
X0076425Y0119034*
X00773Y0118918*
X0078175Y0119034*
X0078991Y0119371*
X0079691Y0119909*
X0080229Y0120609*
X0080566Y0121425*
X0080682Y01223*
X0080566Y0123175*
X0080229Y0123991*
X0079691Y0124691*
X0078991Y0125229*
X0078175Y0125566*
X00773Y0125682*
G37*
G36*
X0071221Y01218D02*
X00678D01*
Y0118379*
X0068332Y0118449*
X0069293Y0118847*
X0070119Y0119481*
X0070753Y0120307*
X0071151Y0121268*
X0071221Y01218*
G37*
G36*
X03636Y01223D02*
X0360179D01*
X0360249Y0121768*
X0360647Y0120807*
X0361281Y0119981*
X0362107Y0119347*
X0363068Y0118949*
X03636Y0118879*
Y01223*
G37*
G36*
X0368021D02*
X03646D01*
Y0118879*
X0365132Y0118949*
X0366093Y0119347*
X0366919Y0119981*
X0367553Y0120807*
X0367951Y0121768*
X0368021Y01223*
G37*
G36*
X03636Y01323D02*
X0360179D01*
X0360249Y0131768*
X0360647Y0130807*
X0361281Y0129981*
X0362107Y0129347*
X0363068Y0128949*
X03636Y0128879*
Y01323*
G37*
G36*
X0368021D02*
X03646D01*
Y0128879*
X0365132Y0128949*
X0366093Y0129347*
X0366919Y0129981*
X0367553Y0130807*
X0367951Y0131768*
X0368021Y01323*
G37*
G36*
X00773Y0135682D02*
X0076425Y0135566D01*
X0075609Y0135229*
X0074909Y0134691*
X0074371Y0133991*
X0074034Y0133175*
X0073918Y01323*
X0074034Y0131425*
X0074371Y0130609*
X0074909Y0129909*
X0075609Y0129371*
X0076425Y0129034*
X00773Y0128918*
X0078175Y0129034*
X0078991Y0129371*
X0079691Y0129909*
X0080229Y0130609*
X0080566Y0131425*
X0080682Y01323*
X0080566Y0133175*
X0080229Y0133991*
X0079691Y0134691*
X0078991Y0135229*
X0078175Y0135566*
X00773Y0135682*
G37*
G36*
X0071221Y01318D02*
X00678D01*
Y0128379*
X0068332Y0128449*
X0069293Y0128847*
X0070119Y0129481*
X0070753Y0130307*
X0071151Y0131268*
X0071221Y01318*
G37*
G36*
X03636Y0126721D02*
X0363068Y0126651D01*
X0362107Y0126253*
X0361281Y0125619*
X0360647Y0124793*
X0360249Y0123832*
X0360179Y01233*
X03636*
Y0126721*
G37*
G36*
X03646D02*
Y01233D01*
X0368021*
X0367951Y0123832*
X0367553Y0124793*
X0366919Y0125619*
X0366093Y0126253*
X0365132Y0126651*
X03646Y0126721*
G37*
G36*
X00668Y01318D02*
X0063379D01*
X0063449Y0131268*
X0063847Y0130307*
X0064481Y0129481*
X0065307Y0128847*
X0066268Y0128449*
X00668Y0128379*
Y01318*
G37*
%LNhighspeed_v0-3*%
%LPD*%
G54D39*
X024885Y003825D02*
X036865D01*
X024Y00471D02*
X024885Y003825D01*
X024Y00471D02*
Y00625D01*
X02378Y00457D02*
X02557Y00278D01*
X03691D02*
X03741Y00228D01*
X02557Y00278D02*
X03691D01*
X036865Y003825D02*
X03741Y00328D01*
X02328Y00672D02*
X02378Y00622D01*
X02353Y00672D02*
X024Y00625D01*
X02378Y00457D02*
Y00622D01*
G54D40*
X01985Y0186728D02*
X02777Y0107528D01*
X01985Y0186728D02*
Y02531D01*
X02777Y00678D02*
Y0107528D01*
X0191Y0192814D02*
X02765Y0107314D01*
X0191Y0192814D02*
Y02561D01*
X02765Y00747D02*
Y0107314D01*
X01255Y00562D02*
Y01771D01*
X01729Y02245*
X01234Y01765D02*
X01717Y02248D01*
X01234Y0062D02*
Y01765D01*
X0127Y01766D02*
X01371Y01867D01*
X0127Y0079D02*
Y01766D01*
Y0079D02*
X01405Y00655D01*
X0261Y00696D02*
Y0069614D01*
X02599Y00685D02*
X0261Y00696D01*
X0262Y00692D02*
X02681Y00753D01*
X0262Y00645D02*
Y00692D01*
X0184537Y0194463D02*
X02681Y01109D01*
Y00753D02*
Y01109D01*
X01915Y01819D02*
X02671Y01063D01*
Y0075714D02*
Y01063D01*
X0261Y0069614D02*
X02671Y0075714D01*
X01824Y02605D02*
X01843Y02624D01*
X01824Y02235D02*
Y02605D01*
X01809Y02246D02*
Y02644D01*
X01715Y02152D02*
X01809Y02246D01*
X01715Y01867D02*
Y02152D01*
X01737Y02148D02*
X01824Y02235D01*
X01737Y01819D02*
Y02148D01*
X01715Y01867D02*
X01716D01*
X01371D02*
X01715D01*
X0264Y00607D02*
Y00685D01*
X02638Y00605D02*
X0264Y00607D01*
Y00685D02*
X02735Y0078D01*
X02664Y00678D02*
X0275Y00764D01*
X02664Y00585D02*
Y00678D01*
X0275Y00764D02*
Y01074D01*
X02735Y0078D02*
Y01074D01*
X0186Y01949D02*
X02735Y01074D01*
X0187987Y0194413D02*
X0275Y01074D01*
X02684Y00666D02*
X02765Y00747D01*
X0186Y01949D02*
Y02531D01*
X0184537Y0194463D02*
Y0251463D01*
X02731Y00632D02*
X02777Y00678D01*
X01737Y01819D02*
X01915D01*
X0187987Y0194413D02*
Y0254613D01*
X0191Y02606D02*
X01985Y02531D01*
X01736Y01819D02*
X01737D01*
X01688Y01949D02*
Y02149D01*
X01795Y02256*
Y0258663*
X01729Y02245D02*
Y0270886D01*
X01717Y02248D02*
Y02722D01*
X01705Y02251D02*
Y02735D01*
X01189Y00521D02*
Y01735D01*
X01695Y02257D02*
Y02748D01*
X01173Y00541D02*
Y01735D01*
X01783Y0259863D02*
X01795Y0258663D01*
X01783Y0259863D02*
Y02661D01*
X01841Y02626D02*
X01843Y02624D01*
X01753Y02758D02*
Y02795D01*
X01717Y02722D02*
X01753Y02758D01*
X01729Y0270886D02*
X01776Y0275586D01*
X01705Y02735D02*
X01727Y02757D01*
Y02784*
X01776Y0275586D02*
Y02798D01*
X01695Y02748D02*
X01709Y02762D01*
X01637Y02704D02*
X01682Y02749D01*
X01637Y02215D02*
Y02704D01*
X01172Y0054D02*
X01173Y00541D01*
X01155Y00589D02*
Y01733D01*
X01637Y02215*
X01173Y01735D02*
X01695Y02257D01*
X01189Y01735D02*
X01705Y02251D01*
G54D46*
X00673Y00223D03*
Y00323D03*
Y00423D03*
Y00523D03*
Y00623D03*
Y00723D03*
X00773Y00823D03*
X00673D03*
Y00923D03*
Y01023D03*
X00773Y01123D03*
X00673D03*
Y01223D03*
Y01323D03*
Y01423D03*
Y01523D03*
X00773Y01623D03*
X00673D03*
X03741Y00228D03*
X03641D03*
X03741Y00328D03*
X03641D03*
Y00428D03*
Y00528D03*
Y00628D03*
Y00728D03*
X03741Y00828D03*
X03641D03*
Y00928D03*
Y01028D03*
X03741Y01128D03*
X03641D03*
Y01228D03*
Y01328D03*
Y01428D03*
Y01528D03*
X03741Y01628D03*
X03641D03*
G54D47*
X00673Y01723D03*
X03641Y01728D03*
G54D48*
X01181Y02415D03*
X01062Y02334D03*
X01061Y02281D03*
X01395Y02226D03*
X01249Y02228D03*
X01771Y02391D03*
X01611Y0238D03*
X0157Y02241D03*
G54D49*
X01255Y00562D03*
X01234Y0062D03*
X02598Y00684D03*
X01417Y024D03*
X02071Y01498D03*
X01808Y00365D03*
X01783Y00109D03*
X0260446Y0180754D03*
X01579Y01917D03*
X01405Y00655D03*
X0186Y02531D03*
X0184537Y0251463D03*
X01736Y01819D03*
X01716Y01867D03*
X01688Y01949D03*
X01783Y02661D03*
X01809Y02644D03*
X01841Y02626D03*
X02122Y00585D03*
X02117Y0076D03*
X01996D03*
X0194Y00759D03*
X01818Y00754D03*
X01114Y02085D03*
X01293D03*
X02494Y02244D03*
X026Y02108D03*
X02687Y02106D03*
X0216Y0178D03*
X02161Y01851D03*
X02159Y0191D03*
X01825Y02199D03*
X02003Y0231D03*
X03174Y0212D03*
X03288Y02142D03*
X02928Y02267D03*
Y01975D03*
X02862Y01966D03*
X02378Y02392D03*
X02094Y02096D03*
X02362Y02086D03*
X0229Y02095D03*
X01861Y01485D03*
X02359Y01691D03*
X02335Y00517D03*
X01591Y00508D03*
X02714Y00846D03*
X027Y00895D03*
X01202Y00862D03*
X01206Y00807D03*
X0164779Y0107979D03*
X01687Y01079D03*
X01881Y01125D03*
X01559Y0126D03*
X01617Y01261D03*
X01682Y02749D03*
X01709Y02762D03*
X01727Y02784D03*
X01753Y02795D03*
X01776Y02798D03*
X01155Y00589D03*
X01172Y0054D03*
X01189Y00521D03*
X0187987Y0254613D03*
X0191Y02561D03*
Y02606D03*
X02685Y00666D03*
X02621Y00645D03*
X0273Y00632D03*
X02663Y00585D03*
X02638Y00605D03*
X01943Y00362D03*
X01705Y00456D03*
X0165Y00508D03*
X02359Y00153D03*
X02077Y01115D03*
X02043Y0107D03*
X02184Y01067D03*
X02328Y00672D03*
X02353D03*
X01737Y01181D03*
X0177Y01071D03*
X02342Y01202D03*
G54D50*
X0244727Y0098027D03*
X0240396D03*
X0236065D03*
X0231735D03*
X0227404D03*
X0223073D03*
X0244727Y0093696D03*
X0240396D03*
X0236065D03*
X0231735D03*
X0227404D03*
X0223073D03*
X0244727Y0089365D03*
X0240396D03*
X0236065D03*
X0231735D03*
X0227404D03*
X0223073D03*
X0244727Y0085035D03*
X0240396D03*
X0236065D03*
X0231735D03*
X0227404D03*
X0223073D03*
X0244727Y0080704D03*
X0240396D03*
X0236065D03*
X0231735D03*
X0227404D03*
X0223073D03*
X0244727Y0076373D03*
X0240396D03*
X0236065D03*
X0231735D03*
X0227404D03*
X0223073D03*
X0170627Y0075873D03*
X0166296D03*
X0161965D03*
X0157635D03*
X0153304D03*
X0148973D03*
X0170627Y0080204D03*
X0166296D03*
X0161965D03*
X0157635D03*
X0153304D03*
X0148973D03*
X0170627Y0084535D03*
X0166296D03*
X0161965D03*
X0157635D03*
X0153304D03*
X0148973D03*
X0170627Y0088865D03*
X0166296D03*
X0161965D03*
X0157635D03*
X0153304D03*
X0148973D03*
X0170627Y0093196D03*
X0166296D03*
X0161965D03*
X0157635D03*
X0153304D03*
X0148973D03*
X0170627Y0097527D03*
X0166296D03*
X0161965D03*
X0157635D03*
X0153304D03*
X0148973D03*
M02*