%FSTAX25Y25*%
%MOIN*%
%SFA1B1*%

%IPPOS*%
%ADD56C,0.018000*%
%ADD66R,0.023690X0.023690*%
%ADD67R,0.063060X0.145730*%
%ADD68R,0.035500X0.031560*%
%ADD69R,0.031560X0.035500*%
%ADD70R,0.023690X0.027620*%
%ADD71R,0.033530X0.059120*%
%ADD72R,0.011870X0.023690*%
%ADD73R,0.035500X0.039430*%
%ADD74R,0.039430X0.031560*%
%ADD75R,0.106360X0.063060*%
%ADD76R,0.027620X0.023690*%
%ADD77R,0.023690X0.023690*%
%ADD78R,0.035500X0.033530*%
%ADD79R,0.023690X0.029590*%
%ADD80R,0.029590X0.023690*%
%ADD81R,0.189040X0.189040*%
%ADD82O,0.011870X0.029590*%
%ADD83O,0.029590X0.011870*%
%ADD84R,0.037470X0.041400*%
%ADD85O,0.039430X0.013840*%
%ADD86O,0.013840X0.039430*%
%ADD87R,0.259910X0.259910*%
%ADD88R,0.035500X0.035500*%
%ADD89R,0.035500X0.035500*%
%ADD90R,0.045340X0.027620*%
%ADD91R,0.039430X0.035500*%
%ADD92R,0.027620X0.045340*%
%ADD93R,0.027620X0.047310*%
%ADD94R,0.070930X0.047310*%
%ADD95R,0.063060X0.063060*%
%ADD96C,0.063060*%
%ADD97R,0.063060X0.063060*%
%ADD98C,0.023690*%
%ADD99C,0.029980*%
%ADD100C,0.024000*%
%ADD101C,0.013000*%
%LNhighspeed_v0-1*%
%LPD*%
G54D56*
X01234Y02547D03*
X02117Y0076D03*
X01996D03*
X0194Y00759D03*
X01818Y00754D03*
X0121Y02619D03*
X01214Y0259D03*
X02064Y00765D03*
X01202Y00862D03*
X01206Y00807D03*
G54D66*
X0305363Y02437D03*
X03093D03*
X0305937Y02712D03*
X0302D03*
X0301963Y02673D03*
X03059D03*
X0313363Y02668D03*
X03173D03*
X03114Y0277D03*
X0315337D03*
G54D67*
X0307505Y01616D03*
X0295694D03*
G54D68*
X02021Y0149754D03*
Y0144046D03*
X01617Y0121454D03*
Y0115746D03*
X0156Y0121554D03*
Y0115846D03*
X01842Y0071254D03*
Y0065546D03*
X01687Y0050246D03*
Y0055954D03*
X01784Y0015246D03*
Y0020954D03*
X02559Y0180754D03*
Y0175046D03*
G54D69*
X0173754Y0114D03*
X0168046D03*
X0184154Y01125D03*
X0178446D03*
X0224846Y01032D03*
X0230554D03*
X0233654Y01137D03*
X0227946D03*
X0210046Y00714D03*
X0215754D03*
X0199646Y00712D03*
X0205354D03*
X0194054D03*
X0188346D03*
X0180846Y00412D03*
X0186554D03*
X0233346Y00717D03*
X0239054D03*
X0214046Y00622D03*
X0219754D03*
X0126446Y00869D03*
X0132154D03*
X0126246Y00807D03*
X0131954D03*
X0248054Y02534D03*
X0242346D03*
G54D70*
X02416Y0060831D03*
Y0064768D03*
X01174Y0257132D03*
Y0261069D03*
X01569Y0229631D03*
Y0233569D03*
G54D71*
X0158046Y00564D03*
X0163754D03*
G54D72*
X0160506Y0054628D03*
X0161294Y0058172D03*
G54D73*
X0241544Y00252D03*
X0247056D03*
X0242544Y02611D03*
X0248056D03*
X0274344Y02206D03*
X0279856D03*
X0217644Y02201D03*
X0223156D03*
X0203544Y0191D03*
X0209056D03*
X0203644Y0185D03*
X0209156D03*
X0203544Y01778D03*
X0209056D03*
X0335544Y02564D03*
X0341056D03*
X0335544Y02482D03*
X0341056D03*
X0335544Y02629D03*
X0341056D03*
G54D74*
X02008Y0083947D03*
Y0089853D03*
X01925Y0100753D03*
Y0094847D03*
X0151239Y0233553D03*
Y0227647D03*
G54D75*
X00822Y0265141D03*
Y028522D03*
G54D76*
X0162531Y01819D03*
X0166469D03*
X0162732Y01867D03*
X0166668D03*
X0162631Y01916D03*
X0166569D03*
X0104332Y0113938D03*
X0108268D03*
X0104332Y0119847D03*
X0108268D03*
X0323667Y00877D03*
X031973D03*
X0323667Y0092833D03*
X031973D03*
X0104332Y0125757D03*
X0108268D03*
X0104332Y0131666D03*
X0108268D03*
Y0108028D03*
X0104332D03*
Y0137576D03*
X0108268D03*
X0323667Y0097967D03*
X031973D03*
X0108268Y0102119D03*
X0104332D03*
Y0143485D03*
X0108268D03*
X0323667Y01031D03*
X031973D03*
X0108268Y009621D03*
X0104332D03*
X0323667Y0108233D03*
X031973D03*
X0323667Y00829D03*
X031973D03*
X0108268Y00903D03*
X0104332D03*
Y0149395D03*
X0108268D03*
X0323667Y0113367D03*
X031973D03*
X0289369Y00754D03*
X0285432D03*
X0289369Y00708D03*
X0285432D03*
X0110519Y02281D03*
X0114456D03*
X0172869Y02391D03*
X0168931D03*
X0161169Y02413D03*
X0157231D03*
X0105631Y02439D03*
X0109569D03*
X0172768Y02582D03*
X0168832D03*
X0162969Y02683D03*
X0159031D03*
X0110519Y0248D03*
X0114456D03*
X0113868Y02525D03*
X0109932D03*
X0102481Y02573D03*
X0098544D03*
X031973Y00687D03*
X0323667D03*
X031973Y01185D03*
X0323667D03*
X031973Y00735D03*
X0323667D03*
X031973Y00784D03*
X0323667D03*
G54D77*
X01005Y0204437D03*
Y02005D03*
X01236Y0204437D03*
Y02005D03*
X02419Y02757D03*
Y0279637D03*
X03634Y02702D03*
Y0266263D03*
G54D78*
X01398Y0226942D03*
Y0232258D03*
X01249Y0233358D03*
Y0228043D03*
G54D79*
X01459Y023347D03*
Y022973D03*
X01031Y026223D03*
Y026597D03*
X00984Y026213D03*
Y026587D03*
G54D80*
X011157Y02571D03*
X010783D03*
G54D81*
X01387Y02554D03*
G54D82*
X0147361Y0243491D03*
X0145787D03*
X0144212D03*
X0142637D03*
X0141062D03*
X0139487D03*
X0137913D03*
X0136338D03*
X0134763D03*
X0133188D03*
X0131613D03*
X0130039D03*
Y0267309D03*
X0131613D03*
X0133188D03*
X0134763D03*
X0136338D03*
X0137913D03*
X0139487D03*
X0141062D03*
X0142637D03*
X0144212D03*
X0145787D03*
X0147361D03*
G54D83*
X0126791Y0246739D03*
Y0248313D03*
Y0249888D03*
Y0251463D03*
Y0253038D03*
Y0254613D03*
Y0256187D03*
Y0257762D03*
Y0259337D03*
Y0260912D03*
Y0262487D03*
Y0264061D03*
X0150609D03*
Y0262487D03*
Y0260912D03*
Y0259337D03*
Y0257762D03*
Y0256187D03*
Y0254613D03*
Y0253038D03*
Y0251463D03*
Y0249888D03*
Y0248313D03*
Y0246739D03*
G54D84*
X0114458Y0239054D03*
X010993D03*
Y0233346D03*
X0114458D03*
G54D85*
X0175745Y0073905D03*
Y0075873D03*
Y0077842D03*
Y007981D03*
Y0081779D03*
Y0083747D03*
Y009359D03*
Y0095558D03*
Y0097527D03*
Y0099495D03*
X0143855D03*
Y0097527D03*
Y0095558D03*
Y009359D03*
Y0091621D03*
Y0089653D03*
Y0087684D03*
Y0085716D03*
Y0083747D03*
Y0081779D03*
Y007981D03*
Y0077842D03*
Y0075873D03*
Y0073905D03*
X0175745Y0091621D03*
Y0089653D03*
Y0087684D03*
Y0085716D03*
G54D86*
X0172595Y0102645D03*
X0170627D03*
X0168658D03*
X016669D03*
X0164721D03*
X0162753D03*
X0160784D03*
X0158816D03*
X0156847D03*
X0154879D03*
X015291D03*
X0150942D03*
X0148973D03*
X0147005D03*
Y0070755D03*
X0148973D03*
X0150942D03*
X015291D03*
X0154879D03*
X0156847D03*
X0158816D03*
X0160784D03*
X0162753D03*
X0164721D03*
X016669D03*
X0168658D03*
X0170627D03*
X0172595D03*
G54D87*
X01598Y00867D03*
G54D88*
X02358Y0019647D03*
Y0025553D03*
X03581Y0256147D03*
Y0262053D03*
X02347Y0272647D03*
Y0278553D03*
X01943Y0040647D03*
Y0046553D03*
X02863Y0202147D03*
Y0208053D03*
X02928Y0202147D03*
Y0208053D03*
X02688Y0214847D03*
Y0220753D03*
X02358Y0214447D03*
Y0220353D03*
X02293Y0214547D03*
Y0220453D03*
X02096Y0214347D03*
Y0220253D03*
X03226Y0214153D03*
Y0208247D03*
X026Y0215247D03*
Y0221153D03*
X02928Y0222253D03*
Y0216347D03*
X02379Y0234553D03*
Y0228647D03*
X026Y0254947D03*
Y0260853D03*
X02655Y0254847D03*
Y0260753D03*
X02846Y0271747D03*
Y0277653D03*
G54D89*
X0124353Y02085D03*
X0118447D03*
X0107353D03*
X0101447D03*
X0186147Y01441D03*
X0192053D03*
X0321453Y02838D03*
X0315547D03*
X0318753Y02219D03*
X0312847D03*
X0242747Y0169D03*
X0248653D03*
X0248153Y02679D03*
X0242247D03*
X0271253Y02875D03*
X0265347D03*
X0299847Y0277D03*
X0305753D03*
G54D90*
X0344724Y027116D03*
Y02749D03*
Y027864D03*
X0335276D03*
Y027116D03*
X0312724Y020836D03*
Y02121D03*
Y021584D03*
X0303276D03*
Y020836D03*
X0253824Y022066D03*
Y02244D03*
Y022814D03*
X0244376D03*
Y022066D03*
X0275024Y027136D03*
Y02751D03*
Y027884D03*
X0265576D03*
Y027136D03*
G54D91*
X02061Y0046156D03*
Y0040644D03*
X01921Y0149544D03*
Y0155056D03*
X02487Y0175344D03*
Y0180856D03*
X01877Y0225356D03*
Y0219844D03*
X03582Y0270444D03*
Y0275956D03*
G54D92*
X020404Y0224724D03*
X02003D03*
X019656D03*
Y0215276D03*
X020404D03*
G54D93*
X030576Y0261024D03*
X031324D03*
Y0251576D03*
X03095D03*
X030576D03*
G54D94*
X02187Y0116585D03*
Y0127215D03*
X01846Y0049285D03*
Y0059915D03*
X01761Y0049385D03*
Y0060015D03*
X02285Y0045585D03*
Y0056215D03*
X02193Y0045585D03*
Y0056215D03*
X02064Y0054685D03*
Y0065315D03*
X01939D03*
Y0054685D03*
X0182Y0130615D03*
Y0119985D03*
X02281Y0130115D03*
Y0119485D03*
X01696Y0132315D03*
Y0121685D03*
G54D95*
X01835Y02875D03*
X01035Y02874D03*
G54D96*
X01935Y02875D03*
X02035D03*
X02135D03*
X02235D03*
X02335D03*
X00773Y00223D03*
X00673D03*
X00773Y00323D03*
X00673D03*
X00773Y00423D03*
X00673D03*
X00773Y00523D03*
X00673D03*
X00773Y00623D03*
X00673D03*
X00773Y00723D03*
X00673D03*
X00773Y00823D03*
X00673D03*
X00773Y00923D03*
X00673D03*
X00773Y01023D03*
X00673D03*
X00773Y01123D03*
X00673D03*
X00773Y01223D03*
X00673D03*
X00773Y01323D03*
X00673D03*
X00773Y01423D03*
X00673D03*
X00773Y01523D03*
X00673D03*
X00773Y01623D03*
X00673D03*
X00773Y01723D03*
X03741Y00228D03*
X03641D03*
X03741Y00328D03*
X03641D03*
X03741Y00428D03*
X03641D03*
X03741Y00528D03*
X03641D03*
X03741Y00628D03*
X03641D03*
X03741Y00728D03*
X03641D03*
X03741Y00828D03*
X03641D03*
X03741Y00928D03*
X03641D03*
X03741Y01028D03*
X03641D03*
X03741Y01128D03*
X03641D03*
X03741Y01228D03*
X03641D03*
X03741Y01328D03*
X03641D03*
X03741Y01428D03*
X03641D03*
X03741Y01528D03*
X03641D03*
X03741Y01628D03*
X03641D03*
X03741Y01728D03*
X03787Y02818D03*
X01135Y02874D03*
X01235D03*
X01335D03*
X01435D03*
X01535D03*
G54D97*
X00673Y01723D03*
X03641Y01728D03*
X03787Y02718D03*
G54D98*
X0244727Y0098027D03*
X0240396D03*
X0236065D03*
X0231735D03*
X0227404D03*
X0223073D03*
X0244727Y0093696D03*
X0240396D03*
X0236065D03*
X0231735D03*
X0227404D03*
X0223073D03*
X0244727Y0089365D03*
X0240396D03*
X0236065D03*
X0231735D03*
X0227404D03*
X0223073D03*
X0244727Y0085035D03*
X0240396D03*
X0236065D03*
X0231735D03*
X0227404D03*
X0223073D03*
X0244727Y0080704D03*
X0240396D03*
X0236065D03*
X0231735D03*
X0227404D03*
X0223073D03*
X0244727Y0076373D03*
X0240396D03*
X0236065D03*
X0231735D03*
X0227404D03*
X0223073D03*
X0170627Y0075873D03*
X0166296D03*
X0161965D03*
X0157635D03*
X0153304D03*
X0148973D03*
X0170627Y0080204D03*
X0166296D03*
X0161965D03*
X0157635D03*
X0153304D03*
X0148973D03*
X0170627Y0084535D03*
X0166296D03*
X0161965D03*
X0157635D03*
X0153304D03*
X0148973D03*
X0170627Y0088865D03*
X0166296D03*
X0161965D03*
X0157635D03*
X0153304D03*
X0148973D03*
X0170627Y0093196D03*
X0166296D03*
X0161965D03*
X0157635D03*
X0153304D03*
X0148973D03*
X0170627Y0097527D03*
X0166296D03*
X0161965D03*
X0157635D03*
X0153304D03*
X0148973D03*
G54D99*
X0131613Y0262487D03*
X0136338D03*
X0141062D03*
X0145787D03*
X0131613Y0257762D03*
X0136338D03*
X0141062D03*
X0145787D03*
X0131613Y0253038D03*
X0136338D03*
X0141062D03*
X0145787D03*
X0131613Y0248313D03*
X0136338D03*
X0141062D03*
X0145787D03*
G54D100*
X01181Y02415D03*
X01019Y02439D03*
X01058Y02677D03*
X01174Y02642D03*
X01057Y0248D03*
Y02523D03*
X0132Y00903D03*
X01347Y00768D03*
G54D101*
X02104Y009015D03*
Y009205D03*
X01961Y0098575D03*
Y0096625D03*
M02*