%FSTAX25Y25*%
%MOIN*%
%SFA1B1*%

%IPPOS*%
%ADD12R,0.031500X0.027560*%
%ADD13R,0.027560X0.031500*%
%ADD14R,0.019690X0.023620*%
%ADD15R,0.029530X0.055120*%
%ADD16R,0.007870X0.019690*%
%ADD29O,0.035430X0.009840*%
%ADD30O,0.009840X0.035430*%
%ADD31R,0.255900X0.255900*%
%ADD32R,0.031500X0.031500*%
%ADD39C,0.008000*%
%ADD40C,0.006000*%
%ADD42C,0.010000*%
%ADD45R,0.059060X0.059060*%
%ADD46C,0.059060*%
%ADD47R,0.059060X0.059060*%
%ADD48C,0.020000*%
%ADD49C,0.014000*%
%ADD50C,0.019690*%
%ADD51C,0.025980*%
%ADD52C,0.009000*%
%LNhighspeed_v0-1*%
%LPD*%
G36*
X03851Y02904D02*
Y00109D01*
X03845Y00103*
X03837Y00095*
X00627*
X00617Y00105*
Y00108*
Y02383*
X00616Y02384*
X00641Y02409*
Y0241*
X00962*
X00966*
X00967Y02409*
X00975Y02417*
Y02909*
Y02915*
X0098Y0292*
X03835*
X03851Y02904*
G37*
%LNhighspeed_v0-2*%
%LPC*%
G36*
X03646Y0086721D02*
Y00833D01*
X0368021*
X0367951Y0083832*
X0367553Y0084793*
X0366919Y0085619*
X0366093Y0086253*
X0365132Y0086651*
X03646Y0086721*
G37*
G36*
X03736D02*
X0373068Y0086651D01*
X0372107Y0086253*
X0371281Y0085619*
X0370647Y0084793*
X0370249Y0083832*
X0370179Y00833*
X03736*
Y0086721*
G37*
G36*
X03746D02*
Y00833D01*
X0378021*
X0377951Y0083832*
X0377553Y0084793*
X0376919Y0085619*
X0376093Y0086253*
X0375132Y0086651*
X03746Y0086721*
G37*
G36*
X00768Y0086221D02*
X0076268Y0086151D01*
X0075307Y0085753*
X0074481Y0085119*
X0073847Y0084293*
X0073449Y0083332*
X0073379Y00828*
X00768*
Y0086221*
G37*
G36*
X00678D02*
Y00828D01*
X0071221*
X0071151Y0083332*
X0070753Y0084293*
X0070119Y0085119*
X0069293Y0085753*
X0068332Y0086151*
X00678Y0086221*
G37*
G36*
X03636Y0086721D02*
X0363068Y0086651D01*
X0362107Y0086253*
X0361281Y0085619*
X0360647Y0084793*
X0360249Y0083832*
X0360179Y00833*
X03636*
Y0086721*
G37*
G36*
X00778Y0086221D02*
Y00828D01*
X0081221*
X0081151Y0083332*
X0080753Y0084293*
X0080119Y0085119*
X0079293Y0085753*
X0078332Y0086151*
X00778Y0086221*
G37*
G36*
X00668Y00918D02*
X0063379D01*
X0063449Y0091268*
X0063847Y0090307*
X0064481Y0089481*
X0065307Y0088847*
X0066268Y0088449*
X00668Y0088379*
Y00918*
G37*
G36*
X00773Y0095682D02*
X0076425Y0095566D01*
X0075609Y0095229*
X0074909Y0094691*
X0074371Y0093991*
X0074034Y0093175*
X0073918Y00923*
X0074034Y0091425*
X0074371Y0090609*
X0074909Y0089909*
X0075609Y0089371*
X0076425Y0089034*
X00773Y0088918*
X0078175Y0089034*
X0078991Y0089371*
X0079691Y0089909*
X0080229Y0090609*
X0080566Y0091425*
X0080682Y00923*
X0080566Y0093175*
X0080229Y0093991*
X0079691Y0094691*
X0078991Y0095229*
X0078175Y0095566*
X00773Y0095682*
G37*
G36*
X0368021Y00923D02*
X03646D01*
Y0088879*
X0365132Y0088949*
X0366093Y0089347*
X0366919Y0089981*
X0367553Y0090807*
X0367951Y0091768*
X0368021Y00923*
G37*
G36*
X0263354Y0091875D02*
X0261476D01*
Y00898*
X0263354*
Y0091875*
G37*
G36*
X03741Y0096182D02*
X0373225Y0096066D01*
X0372409Y0095729*
X0371709Y0095191*
X0371171Y0094491*
X0370834Y0093675*
X0370718Y00928*
X0370834Y0091925*
X0371171Y0091109*
X0371709Y0090409*
X0372409Y0089871*
X0373225Y0089534*
X03741Y0089418*
X0374975Y0089534*
X0375791Y0089871*
X0376491Y0090409*
X0377029Y0091109*
X0377366Y0091925*
X0377482Y00928*
X0377366Y0093675*
X0377029Y0094491*
X0376491Y0095191*
X0375791Y0095729*
X0374975Y0096066*
X03741Y0096182*
G37*
G36*
X01381Y0090822D02*
X0137671Y0090736D01*
X0137307Y0090493*
X0137064Y0090129*
X0136978Y00897*
X0137064Y0089271*
X0137307Y0088907*
X0137671Y0088664*
X01381Y0088578*
X0138529Y0088664*
X0138893Y0088907*
X0139136Y0089271*
X0139222Y00897*
X0139136Y0090129*
X0138893Y0090493*
X0138529Y0090736*
X01381Y0090822*
G37*
G36*
X0071221Y00918D02*
X00678D01*
Y0088379*
X0068332Y0088449*
X0069293Y0088847*
X0070119Y0089481*
X0070753Y0090307*
X0071151Y0091268*
X0071221Y00918*
G37*
G36*
X03636Y00923D02*
X0360179D01*
X0360249Y0091768*
X0360647Y0090807*
X0361281Y0089981*
X0362107Y0089347*
X0363068Y0088949*
X03636Y0088879*
Y00923*
G37*
G36*
X0132Y0091727D02*
X0131454Y0091619D01*
X0130991Y0091309*
X0130681Y0090846*
X0130573Y00903*
X0130681Y0089754*
X0130991Y0089291*
X0131454Y0088981*
X0132Y0088873*
X0132546Y0088981*
X0133009Y0089291*
X0133319Y0089754*
X0133427Y00903*
X0133319Y0090846*
X0133009Y0091309*
X0132546Y0091619*
X0132Y0091727*
G37*
G36*
X01347Y0078227D02*
X0134154Y0078119D01*
X0133691Y0077809*
X0133381Y0077346*
X0133273Y00768*
X0133381Y0076254*
X0133691Y0075791*
X0134154Y0075481*
X01347Y0075373*
X0135246Y0075481*
X0135709Y0075791*
X0136019Y0076254*
X0136127Y00768*
X0136019Y0077346*
X0135709Y0077809*
X0135246Y0078119*
X01347Y0078227*
G37*
G36*
X03646Y0076721D02*
Y00733D01*
X0368021*
X0367951Y0073832*
X0367553Y0074793*
X0366919Y0075619*
X0366093Y0076253*
X0365132Y0076651*
X03646Y0076721*
G37*
G36*
X0071221Y00818D02*
X00678D01*
Y0078379*
X0068332Y0078449*
X0069293Y0078847*
X0070119Y0079481*
X0070753Y0080307*
X0071151Y0081268*
X0071221Y00818*
G37*
G36*
X00668D02*
X0063379D01*
X0063449Y0081268*
X0063847Y0080307*
X0064481Y0079481*
X0065307Y0078847*
X0066268Y0078449*
X00668Y0078379*
Y00818*
G37*
G36*
Y0076221D02*
X0066268Y0076151D01*
X0065307Y0075753*
X0064481Y0075119*
X0063847Y0074293*
X0063449Y0073332*
X0063379Y00728*
X00668*
Y0076221*
G37*
G36*
X03741Y0076182D02*
X0373225Y0076066D01*
X0372409Y0075729*
X0371709Y0075191*
X0371171Y0074491*
X0370834Y0073675*
X0370718Y00728*
X0370834Y0071925*
X0371171Y0071109*
X0371709Y0070409*
X0372409Y0069871*
X0373225Y0069534*
X03741Y0069418*
X0374975Y0069534*
X0375791Y0069871*
X0376491Y0070409*
X0377029Y0071109*
X0377366Y0071925*
X0377482Y00728*
X0377366Y0073675*
X0377029Y0074491*
X0376491Y0075191*
X0375791Y0075729*
X0374975Y0076066*
X03741Y0076182*
G37*
G36*
X03636Y0076721D02*
X0363068Y0076651D01*
X0362107Y0076253*
X0361281Y0075619*
X0360647Y0074793*
X0360249Y0073832*
X0360179Y00733*
X03636*
Y0076721*
G37*
G36*
X00678Y0076221D02*
Y00728D01*
X0071221*
X0071151Y0073332*
X0070753Y0074293*
X0070119Y0075119*
X0069293Y0075753*
X0068332Y0076151*
X00678Y0076221*
G37*
G36*
X00768Y00818D02*
X0073379D01*
X0073449Y0081268*
X0073847Y0080307*
X0074481Y0079481*
X0075307Y0078847*
X0076268Y0078449*
X00768Y0078379*
Y00818*
G37*
G36*
X0263354Y00841D02*
X0261476D01*
Y0082025*
X0263354*
Y00841*
G37*
G36*
X0378021Y00823D02*
X03746D01*
Y0078879*
X0375132Y0078949*
X0376093Y0079347*
X0376919Y0079981*
X0377553Y0080807*
X0377951Y0081768*
X0378021Y00823*
G37*
G36*
X00668Y0086221D02*
X0066268Y0086151D01*
X0065307Y0085753*
X0064481Y0085119*
X0063847Y0084293*
X0063449Y0083332*
X0063379Y00828*
X00668*
Y0086221*
G37*
G36*
X0266232Y0091875D02*
X0264354D01*
Y00893*
X0263854*
Y00888*
X0261476*
Y0086725*
Y00851*
X0263854*
Y00846*
X0264354*
Y0082025*
X0266232*
Y0083682*
X02714*
X0271751Y0083752*
X0272049Y0083951*
X0272248Y0084249*
X0272318Y00846*
X0272248Y0084951*
X0272049Y0085249*
X0271751Y0085448*
X02714Y0085518*
X0266232*
Y0086725*
Y0088382*
X02698*
X0270151Y0088452*
X0270449Y0088651*
X0270649Y0088851*
X0270848Y0089149*
X0270918Y00895*
X0270848Y0089851*
X0270649Y0090149*
X0270351Y0090348*
X027Y0090418*
X0269649Y0090348*
X0269454Y0090218*
X0266232*
Y0091875*
G37*
G36*
X03636Y00823D02*
X0360179D01*
X0360249Y0081768*
X0360647Y0080807*
X0361281Y0079981*
X0362107Y0079347*
X0363068Y0078949*
X03636Y0078879*
Y00823*
G37*
G36*
X0081221Y00818D02*
X00778D01*
Y0078379*
X0078332Y0078449*
X0079293Y0078847*
X0080119Y0079481*
X0080753Y0080307*
X0081151Y0081268*
X0081221Y00818*
G37*
G36*
X03736Y00823D02*
X0370179D01*
X0370249Y0081768*
X0370647Y0080807*
X0371281Y0079981*
X0372107Y0079347*
X0373068Y0078949*
X03736Y0078879*
Y00823*
G37*
G36*
X0368021D02*
X03646D01*
Y0078879*
X0365132Y0078949*
X0366093Y0079347*
X0366919Y0079981*
X0367553Y0080807*
X0367951Y0081768*
X0368021Y00823*
G37*
G36*
X0378021Y01123D02*
X03746D01*
Y0108879*
X0375132Y0108949*
X0376093Y0109347*
X0376919Y0109981*
X0377553Y0110807*
X0377951Y0111768*
X0378021Y01123*
G37*
G36*
X03736D02*
X0370179D01*
X0370249Y0111768*
X0370647Y0110807*
X0371281Y0109981*
X0372107Y0109347*
X0373068Y0108949*
X03736Y0108879*
Y01123*
G37*
G36*
X0186675Y0114932D02*
X01846D01*
Y0112554*
Y0110176*
X0186675*
Y0111637*
X0187827*
X01881Y0111582*
X0188451Y0111652*
X0188749Y0111851*
X0188948Y0112149*
X0189018Y01125*
X0188948Y0112851*
X0188749Y0113149*
X0188695Y0113203*
X0188397Y0113402*
X0188046Y0113472*
X0186675*
Y0114932*
G37*
G36*
X01836Y0112054D02*
X0181525D01*
Y0110176*
X01836*
Y0112054*
G37*
G36*
X02342Y0121118D02*
X0233849Y0121048D01*
X0233551Y0120849*
X0233352Y0120551*
X0233282Y01202*
X0233352Y0119849*
X0233382Y0119804*
Y0118532*
X0231725*
Y0116654*
X02343*
Y0116154*
X02348*
Y0113776*
X0236114*
X0236305Y0113314*
X0235214Y0112224*
X0232325*
Y0109769*
X0232267Y010971*
X0232068Y0109413*
X0231998Y0109061*
Y01087*
X0228732*
X0228322Y01092*
X0228236Y0109629*
X0227993Y0109993*
X0227629Y0110236*
X02272Y0110322*
X0226771Y0110236*
X0226407Y0109993*
X0226164Y0109629*
X0226079Y01092*
X0225668Y01087*
X0224022*
X0223916Y0108859*
Y01112*
X0223854Y0111512*
X0223677Y0111777*
X0223177Y0112277*
X0222912Y0112454*
X02226Y0112516*
X0220832*
Y0113675*
X0217276*
Y0109725*
X0220832*
Y0110884*
X0222262*
X0222284Y0110862*
Y0108859*
X0222178Y01087*
X0215904*
X0215724Y0109125*
Y01092*
Y01112*
X0213346*
Y01117*
X0212846*
Y0114275*
X0210968*
Y0112618*
X02079*
X0207607Y0112559*
X0207549Y0112548*
X0207251Y0112349*
X0207051Y0112149*
X0206852Y0111851*
X0206782Y01115*
X0206852Y0111149*
X0207051Y0110851*
X0207349Y0110652*
X02077Y0110582*
X0208051Y0110652*
X0208246Y0110782*
X0210614*
X0210968Y0110429*
Y01092*
Y0109125*
X0210787Y01087*
X01406*
Y0066704*
X01405Y0066622*
X0140071Y0066536*
X0139707Y0066293*
X0139464Y0065929*
X0139435Y0065782*
X0138892Y0065617*
X0137803Y0066706*
X0137822Y00668*
X0137736Y0067229*
X0137493Y0067593*
X0137129Y0067836*
X01367Y0067922*
X0136271Y0067836*
X0135907Y0067593*
X0135664Y0067229*
X0135578Y00668*
X0135619Y0066598*
X0135158Y0066351*
X0134503Y0067006*
X0134522Y00671*
X0134436Y0067529*
X0134193Y0067893*
X0133829Y0068136*
X01334Y0068222*
X0132971Y0068136*
X0132607Y0067893*
X0132364Y0067529*
X0132278Y00671*
X0132364Y0066671*
X0132607Y0066307*
X0132971Y0066064*
X01334Y0065978*
X0133494Y0065997*
X0169795Y0029695*
X0170027Y0029541*
X01703Y0029486*
X02589*
X0259173Y0029541*
X0259405Y0029695*
X0289205Y0059495*
X0289359Y0059727*
X0289414Y006*
Y007045*
X0290084*
Y0073613*
X0287316*
Y007045*
X0287986*
Y0060296*
X0258752Y0031061*
X0258512Y0031096*
X0258336Y0031627*
X0285505Y0058795*
X0285659Y0059027*
X0285714Y00593*
Y007045*
X0286384*
Y0073613*
X0283616*
Y007045*
X0284286*
Y0059596*
X0257304Y0032614*
X0171896*
X0145971Y0058538*
X0146163Y0059*
X0153016*
Y005825*
X0155784*
Y0059*
X0163898*
X0164325Y0058824*
Y00585*
Y0056946*
X01669*
Y0055946*
X0164325*
Y0054068*
X0165982*
Y005298*
X016465Y0051648*
X0164649*
X0164351Y0051449*
X0164152Y0051151*
X0164082Y00508*
X0164152Y0050449*
X0164351Y0050151*
X0164649Y0049952*
X0165Y0049882*
X01651*
X0165451Y0049952*
X0165749Y0050151*
X0167549Y0051951*
X0167649Y0052051*
X0167848Y0052349*
X0167918Y00527*
X0167848Y0053051*
X0167818Y0053096*
Y0054068*
X0169475*
Y0055528*
X0173125*
Y0053868*
X01752*
Y0056246*
X01757*
Y0056746*
X0178275*
Y00585*
Y0058624*
X0178573Y0059*
X0210896*
X0211282Y00585*
X0211352Y0058149*
X0211551Y0057851*
X0211849Y0057652*
X02122Y0057582*
X0212551Y0057652*
X0212849Y0057851*
X0213998Y0059*
X0227169*
Y0054144*
X02309*
Y0053544*
X0231376*
Y0052906*
X0231446Y0052555*
X0231645Y0052257*
X0232851Y0051051*
X0233149Y0050852*
X02335Y0050782*
X0233851Y0050852*
X0234149Y0051051*
X0234348Y0051349*
X0234418Y00517*
X0234348Y0052051*
X0234149Y0052349*
X0233454Y0053044*
X0233661Y0053544*
X0233687*
Y0054144*
X0236631*
Y0059*
X0243591*
X0244595Y0057995*
X0244827Y0057841*
X02451Y0057786*
X0265454*
X0265507Y0057707*
X0265871Y0057464*
X02663Y0057378*
X0266729Y0057464*
X0267093Y0057707*
X0267336Y0058071*
X0267422Y00585*
X0267336Y0058929*
X0267093Y0059293*
X0266729Y0059536*
X02663Y0059622*
X0265871Y0059536*
X0265507Y0059293*
X0265454Y0059214*
X0264755*
X0264593Y0059707*
X0264836Y0060071*
X0264921Y00605*
X0264836Y0060929*
X0264593Y0061293*
X0264229Y0061536*
X02638Y0061622*
X0263371Y0061536*
X0263007Y0061293*
X0262954Y0061214*
X02605*
Y0062486*
X0272154*
X0272207Y0062407*
X0272571Y0062164*
X0273Y0062078*
X0273429Y0062164*
X0273793Y0062407*
X0274036Y0062771*
X0274121Y00632*
X0274036Y0063629*
X0273793Y0063993*
X0273429Y0064236*
X0273Y0064322*
X0272571Y0064236*
X0272207Y0063993*
X0272154Y0063914*
X0263587*
X0263204Y0064414*
X0263222Y00645*
X0263136Y0064929*
X0263031Y0065086*
X0263286Y0065586*
X0268037*
X0268071Y0065564*
X02685Y0065478*
X0268929Y0065564*
X0269293Y0065807*
X0269536Y0066171*
X0269621Y00666*
X0269536Y0067029*
X0269293Y0067393*
X0268929Y0067636*
X02685Y0067722*
X0268071Y0067636*
X0267707Y0067393*
X0267464Y0067029*
X0267461Y0067014*
X02605*
Y0067545*
X0260593Y0067607*
X0260836Y0067971*
X0260922Y00684*
X0260836Y0068829*
X0260593Y0069193*
X02605Y0069255*
Y0077628*
X0282331*
X0283616Y0076343*
Y0074387*
X0286384*
Y0076622*
X0286846Y0076813*
X0287316Y0076343*
Y0074387*
X0290084*
Y007755*
X0288128*
X0284863Y0080815*
X0284631Y008097*
X0284358Y0081024*
X02605*
Y0093862*
X0260527Y0094*
X02605Y0094138*
Y00971*
X02489Y01087*
X0244983*
X0244629Y0108936*
X02442Y0109022*
X0243881Y0109403*
X0243836Y0109629*
X0243593Y0109993*
X0243229Y0110236*
X02428Y0110322*
X0242371Y0110236*
X0242251Y0110555*
X0242236Y0110629*
X0241993Y0110993*
X0241629Y0111236*
X02412Y0111322*
X0240771Y0111236*
X0240407Y0110993*
X0240164Y0110629*
X0240078Y01102*
X0240097Y0110106*
X0238691Y01087*
X0236275*
Y0111266*
X0238485Y0113476*
X02385Y0113473*
X0239046Y0113581*
X0239509Y0113891*
X0239819Y0114354*
X0239927Y01149*
X0239819Y0115446*
X0239509Y0115909*
X0239046Y0116219*
X02385Y0116327*
X0237954Y0116219*
X0237491Y0115909*
X0237375Y0115736*
X0236875Y0115888*
Y0118532*
X0235218*
Y01201*
X0235148Y0120451*
X0234949Y0120749*
X0234849Y0120849*
X0234551Y0121048*
X02342Y0121118*
G37*
G36*
X0081221Y01118D02*
X00778D01*
Y0108379*
X0078332Y0108449*
X0079293Y0108847*
X0080119Y0109481*
X0080753Y0110307*
X0081151Y0111268*
X0081221Y01118*
G37*
G36*
X0368021Y01123D02*
X03646D01*
Y0108879*
X0365132Y0108949*
X0366093Y0109347*
X0366919Y0109981*
X0367553Y0110807*
X0367951Y0111768*
X0368021Y01123*
G37*
G36*
X03636D02*
X0360179D01*
X0360249Y0111768*
X0360647Y0110807*
X0361281Y0109981*
X0362107Y0109347*
X0363068Y0108949*
X03636Y0108879*
Y01123*
G37*
G36*
X0215724Y0114275D02*
X0213846D01*
Y01122*
X0215724*
Y0114275*
G37*
G36*
X03636Y0116721D02*
X0363068Y0116651D01*
X0362107Y0116253*
X0361281Y0115619*
X0360647Y0114793*
X0360249Y0113832*
X0360179Y01133*
X03636*
Y0116721*
G37*
G36*
X01836Y0114932D02*
X0181525D01*
Y0113054*
X01836*
Y0114932*
G37*
G36*
X03736Y0116721D02*
X0373068Y0116651D01*
X0372107Y0116253*
X0371281Y0115619*
X0370647Y0114793*
X0370249Y0113832*
X0370179Y01133*
X03736*
Y0116721*
G37*
G36*
X03646D02*
Y01133D01*
X0368021*
X0367951Y0113832*
X0367553Y0114793*
X0366919Y0115619*
X0366093Y0116253*
X0365132Y0116651*
X03646Y0116721*
G37*
G36*
X00678Y0116221D02*
Y01128D01*
X0071221*
X0071151Y0113332*
X0070753Y0114293*
X0070119Y0115119*
X0069293Y0115753*
X0068332Y0116151*
X00678Y0116221*
G37*
G36*
X00668D02*
X0066268Y0116151D01*
X0065307Y0115753*
X0064481Y0115119*
X0063847Y0114293*
X0063449Y0113332*
X0063379Y01128*
X00668*
Y0116221*
G37*
G36*
X00778D02*
Y01128D01*
X0081221*
X0081151Y0113332*
X0080753Y0114293*
X0080119Y0115119*
X0079293Y0115753*
X0078332Y0116151*
X00778Y0116221*
G37*
G36*
X00768D02*
X0076268Y0116151D01*
X0075307Y0115753*
X0074481Y0115119*
X0073847Y0114293*
X0073449Y0113332*
X0073379Y01128*
X00768*
Y0116221*
G37*
G36*
X0071221Y01018D02*
X00678D01*
Y0098379*
X0068332Y0098449*
X0069293Y0098847*
X0070119Y0099481*
X0070753Y0100307*
X0071151Y0101268*
X0071221Y01018*
G37*
G36*
X00668D02*
X0063379D01*
X0063449Y0101268*
X0063847Y0100307*
X0064481Y0099481*
X0065307Y0098847*
X0066268Y0098449*
X00668Y0098379*
Y01018*
G37*
G36*
X0368021Y01023D02*
X03646D01*
Y0098879*
X0365132Y0098949*
X0366093Y0099347*
X0366919Y0099981*
X0367553Y0100807*
X0367951Y0101768*
X0368021Y01023*
G37*
G36*
X03636D02*
X0360179D01*
X0360249Y0101768*
X0360647Y0100807*
X0361281Y0099981*
X0362107Y0099347*
X0363068Y0098949*
X03636Y0098879*
Y01023*
G37*
G36*
X00678Y0096221D02*
Y00928D01*
X0071221*
X0071151Y0093332*
X0070753Y0094293*
X0070119Y0095119*
X0069293Y0095753*
X0068332Y0096151*
X00678Y0096221*
G37*
G36*
X00668D02*
X0066268Y0096151D01*
X0065307Y0095753*
X0064481Y0095119*
X0063847Y0094293*
X0063449Y0093332*
X0063379Y00928*
X00668*
Y0096221*
G37*
G36*
X03646Y0096721D02*
Y00933D01*
X0368021*
X0367951Y0093832*
X0367553Y0094793*
X0366919Y0095619*
X0366093Y0096253*
X0365132Y0096651*
X03646Y0096721*
G37*
G36*
X03636D02*
X0363068Y0096651D01*
X0362107Y0096253*
X0361281Y0095619*
X0360647Y0094793*
X0360249Y0093832*
X0360179Y00933*
X03636*
Y0096721*
G37*
G36*
X00773Y0105682D02*
X0076425Y0105567D01*
X0075609Y0105229*
X0074909Y0104691*
X0074371Y0103991*
X0074034Y0103175*
X0073918Y01023*
X0074034Y0101425*
X0074371Y0100609*
X0074909Y0099909*
X0075609Y0099371*
X0076425Y0099034*
X00773Y0098918*
X0078175Y0099034*
X0078991Y0099371*
X0079691Y0099909*
X0080229Y0100609*
X0080566Y0101425*
X0080682Y01023*
X0080566Y0103175*
X0080229Y0103991*
X0079691Y0104691*
X0078991Y0105229*
X0078175Y0105567*
X00773Y0105682*
G37*
G36*
X00668Y01118D02*
X0063379D01*
X0063449Y0111268*
X0063847Y0110307*
X0064481Y0109481*
X0065307Y0108847*
X0066268Y0108449*
X00668Y0108379*
Y01118*
G37*
G36*
X03646Y0106721D02*
Y01033D01*
X0368021*
X0367951Y0103832*
X0367553Y0104793*
X0366919Y0105619*
X0366093Y0106253*
X0365132Y0106651*
X03646Y0106721*
G37*
G36*
X00768Y01118D02*
X0073379D01*
X0073449Y0111268*
X0073847Y0110307*
X0074481Y0109481*
X0075307Y0108847*
X0076268Y0108449*
X00768Y0108379*
Y01118*
G37*
G36*
X0071221D02*
X00678D01*
Y0108379*
X0068332Y0108449*
X0069293Y0108847*
X0070119Y0109481*
X0070753Y0110307*
X0071151Y0111268*
X0071221Y01118*
G37*
G36*
X00668Y0106221D02*
X0066268Y0106151D01*
X0065307Y0105753*
X0064481Y0105119*
X0063847Y0104293*
X0063449Y0103332*
X0063379Y01028*
X00668*
Y0106221*
G37*
G36*
X03741Y0106182D02*
X0373225Y0106067D01*
X0372409Y0105729*
X0371709Y0105191*
X0371171Y0104491*
X0370834Y0103675*
X0370718Y01028*
X0370834Y0101925*
X0371171Y0101109*
X0371709Y0100409*
X0372409Y0099871*
X0373225Y0099534*
X03741Y0099418*
X0374975Y0099534*
X0375791Y0099871*
X0376491Y0100409*
X0377029Y0101109*
X0377366Y0101925*
X0377482Y01028*
X0377366Y0103675*
X0377029Y0104491*
X0376491Y0105191*
X0375791Y0105729*
X0374975Y0106067*
X03741Y0106182*
G37*
G36*
X03636Y0106721D02*
X0363068Y0106651D01*
X0362107Y0106253*
X0361281Y0105619*
X0360647Y0104793*
X0360249Y0103832*
X0360179Y01033*
X03636*
Y0106721*
G37*
G36*
X00678Y0106221D02*
Y01028D01*
X0071221*
X0071151Y0103332*
X0070753Y0104293*
X0070119Y0105119*
X0069293Y0105753*
X0068332Y0106151*
X00678Y0106221*
G37*
G36*
X00773Y0075682D02*
X0076425Y0075566D01*
X0075609Y0075229*
X0074909Y0074691*
X0074371Y0073991*
X0074034Y0073175*
X0073918Y00723*
X0074034Y0071425*
X0074371Y0070609*
X0074909Y0069909*
X0075609Y0069371*
X0076425Y0069034*
X00773Y0068918*
X0078175Y0069034*
X0078991Y0069371*
X0079691Y0069909*
X0080229Y0070609*
X0080566Y0071425*
X0080682Y00723*
X0080566Y0073175*
X0080229Y0073991*
X0079691Y0074691*
X0078991Y0075229*
X0078175Y0075566*
X00773Y0075682*
G37*
G36*
X03646Y0036721D02*
Y00333D01*
X0368021*
X0367951Y0033832*
X0367553Y0034793*
X0366919Y0035619*
X0366093Y0036253*
X0365132Y0036651*
X03646Y0036721*
G37*
G36*
X03636D02*
X0363068Y0036651D01*
X0362107Y0036253*
X0361281Y0035619*
X0360647Y0034793*
X0360249Y0033832*
X0360179Y00333*
X03636*
Y0036721*
G37*
G36*
X02234Y0040127D02*
X0222854Y0040019D01*
X0222391Y0039709*
X0222081Y0039246*
X0221973Y00387*
X0222081Y0038154*
X0222391Y0037691*
X0222854Y0037381*
X02234Y0037273*
X0223946Y0037381*
X0224409Y0037691*
X0224719Y0038154*
X0224827Y00387*
X0224719Y0039246*
X0224409Y0039709*
X0223946Y0040019*
X02234Y0040127*
G37*
G36*
X02298Y0038027D02*
X0229254Y0037919D01*
X0228791Y0037609*
X0228481Y0037146*
X0228373Y00366*
X0228481Y0036054*
X0228791Y0035591*
X0229254Y0035281*
X02298Y0035173*
X0230346Y0035281*
X0230809Y0035591*
X0231119Y0036054*
X0231227Y00366*
X0231119Y0037146*
X0230809Y0037609*
X0230346Y0037919*
X02298Y0038027*
G37*
G36*
X03741Y0036182D02*
X0373225Y0036066D01*
X0372409Y0035729*
X0371709Y0035191*
X0371171Y0034491*
X0370834Y0033675*
X0370718Y00328*
X0370834Y0031925*
X0371171Y0031109*
X0371709Y0030409*
X0372409Y0029871*
X0373225Y0029534*
X03741Y0029418*
X0374975Y0029534*
X0375791Y0029871*
X0376491Y0030409*
X0377029Y0031109*
X0377366Y0031925*
X0377482Y00328*
X0377366Y0033675*
X0377029Y0034491*
X0376491Y0035191*
X0375791Y0035729*
X0374975Y0036066*
X03741Y0036182*
G37*
G36*
X00773Y0035682D02*
X0076425Y0035566D01*
X0075609Y0035229*
X0074909Y0034691*
X0074371Y0033991*
X0074034Y0033175*
X0073918Y00323*
X0074034Y0031425*
X0074371Y0030609*
X0074909Y0029909*
X0075609Y0029371*
X0076425Y0029034*
X00773Y0028918*
X0078175Y0029034*
X0078991Y0029371*
X0079691Y0029909*
X0080229Y0030609*
X0080566Y0031425*
X0080682Y00323*
X0080566Y0033175*
X0080229Y0033991*
X0079691Y0034691*
X0078991Y0035229*
X0078175Y0035566*
X00773Y0035682*
G37*
G36*
X00678Y0036221D02*
Y00328D01*
X0071221*
X0071151Y0033332*
X0070753Y0034293*
X0070119Y0035119*
X0069293Y0035753*
X0068332Y0036151*
X00678Y0036221*
G37*
G36*
X00668D02*
X0066268Y0036151D01*
X0065307Y0035753*
X0064481Y0035119*
X0063847Y0034293*
X0063449Y0033332*
X0063379Y00328*
X00668*
Y0036221*
G37*
G36*
X02126Y0042027D02*
X0212054Y0041919D01*
X0211591Y0041609*
X0211281Y0041146*
X0211173Y00406*
X0211281Y0040054*
X0211591Y0039591*
X0212054Y0039281*
X02126Y0039173*
X0213146Y0039281*
X0213609Y0039591*
X0213919Y0040054*
X0214027Y00406*
X0213919Y0041146*
X0213609Y0041609*
X0213146Y0041919*
X02126Y0042027*
G37*
G36*
X00773Y0045682D02*
X0076425Y0045566D01*
X0075609Y0045229*
X0074909Y0044691*
X0074371Y0043991*
X0074034Y0043175*
X0073918Y00423*
X0074034Y0041425*
X0074371Y0040609*
X0074909Y0039909*
X0075609Y0039371*
X0076425Y0039034*
X00773Y0038918*
X0078175Y0039034*
X0078991Y0039371*
X0079691Y0039909*
X0080229Y0040609*
X0080566Y0041425*
X0080682Y00423*
X0080566Y0043175*
X0080229Y0043991*
X0079691Y0044691*
X0078991Y0045229*
X0078175Y0045566*
X00773Y0045682*
G37*
G36*
X00668Y0046221D02*
X0066268Y0046151D01*
X0065307Y0045753*
X0064481Y0045119*
X0063847Y0044293*
X0063449Y0043332*
X0063379Y00428*
X00668*
Y0046221*
G37*
G36*
X03741Y0046182D02*
X0373225Y0046066D01*
X0372409Y0045729*
X0371709Y0045191*
X0371171Y0044491*
X0370834Y0043675*
X0370718Y00428*
X0370834Y0041925*
X0371171Y0041109*
X0371709Y0040409*
X0372409Y0039871*
X0373225Y0039534*
X03741Y0039418*
X0374975Y0039534*
X0375791Y0039871*
X0376491Y0040409*
X0377029Y0041109*
X0377366Y0041925*
X0377482Y00428*
X0377366Y0043675*
X0377029Y0044491*
X0376491Y0045191*
X0375791Y0045729*
X0374975Y0046066*
X03741Y0046182*
G37*
G36*
X0071221Y00418D02*
X00678D01*
Y0038379*
X0068332Y0038449*
X0069293Y0038847*
X0070119Y0039481*
X0070753Y0040307*
X0071151Y0041268*
X0071221Y00418*
G37*
G36*
X00668D02*
X0063379D01*
X0063449Y0041268*
X0063847Y0040307*
X0064481Y0039481*
X0065307Y0038847*
X0066268Y0038449*
X00668Y0038379*
Y00418*
G37*
G36*
X0368021Y00423D02*
X03646D01*
Y0038879*
X0365132Y0038949*
X0366093Y0039347*
X0366919Y0039981*
X0367553Y0040807*
X0367951Y0041768*
X0368021Y00423*
G37*
G36*
X03636D02*
X0360179D01*
X0360249Y0041768*
X0360647Y0040807*
X0361281Y0039981*
X0362107Y0039347*
X0363068Y0038949*
X03636Y0038879*
Y00423*
G37*
G36*
X0368021Y00323D02*
X03646D01*
Y0028879*
X0365132Y0028949*
X0366093Y0029347*
X0366919Y0029981*
X0367553Y0030807*
X0367951Y0031768*
X0368021Y00323*
G37*
G36*
X03741Y0026182D02*
X0373225Y0026066D01*
X0372409Y0025729*
X0371709Y0025191*
X0371171Y0024491*
X0370834Y0023675*
X0370718Y00228*
X0370834Y0021925*
X0371171Y0021109*
X0371709Y0020409*
X0372409Y0019871*
X0373225Y0019534*
X03741Y0019418*
X0374975Y0019534*
X0375791Y0019871*
X0376491Y0020409*
X0377029Y0021109*
X0377366Y0021925*
X0377482Y00228*
X0377366Y0023675*
X0377029Y0024491*
X0376491Y0025191*
X0375791Y0025729*
X0374975Y0026066*
X03741Y0026182*
G37*
G36*
X00773Y0025682D02*
X0076425Y0025567D01*
X0075609Y0025229*
X0074909Y0024691*
X0074371Y0023991*
X0074034Y0023175*
X0073918Y00223*
X0074034Y0021425*
X0074371Y0020609*
X0074909Y0019909*
X0075609Y0019371*
X0076425Y0019034*
X00773Y0018918*
X0078175Y0019034*
X0078991Y0019371*
X0079691Y0019909*
X0080229Y0020609*
X0080566Y0021425*
X0080682Y00223*
X0080566Y0023175*
X0080229Y0023991*
X0079691Y0024691*
X0078991Y0025229*
X0078175Y0025567*
X00773Y0025682*
G37*
G36*
X00678Y0026221D02*
Y00228D01*
X0071221*
X0071151Y0023332*
X0070753Y0024293*
X0070119Y0025119*
X0069293Y0025753*
X0068332Y0026151*
X00678Y0026221*
G37*
G36*
X00668D02*
X0066268Y0026151D01*
X0065307Y0025753*
X0064481Y0025119*
X0063847Y0024293*
X0063449Y0023332*
X0063379Y00228*
X00668*
Y0026221*
G37*
G36*
X0071221Y00218D02*
X00678D01*
Y0018379*
X0068332Y0018449*
X0069293Y0018847*
X0070119Y0019481*
X0070753Y0020307*
X0071151Y0021268*
X0071221Y00218*
G37*
G36*
X00668D02*
X0063379D01*
X0063449Y0021268*
X0063847Y0020307*
X0064481Y0019481*
X0065307Y0018847*
X0066268Y0018449*
X00668Y0018379*
Y00218*
G37*
G36*
X0368021Y00223D02*
X03646D01*
Y0018879*
X0365132Y0018949*
X0366093Y0019347*
X0366919Y0019981*
X0367553Y0020807*
X0367951Y0021768*
X0368021Y00223*
G37*
G36*
X03636D02*
X0360179D01*
X0360249Y0021768*
X0360647Y0020807*
X0361281Y0019981*
X0362107Y0019347*
X0363068Y0018949*
X03636Y0018879*
Y00223*
G37*
G36*
X00668Y00318D02*
X0063379D01*
X0063449Y0031268*
X0063847Y0030307*
X0064481Y0029481*
X0065307Y0028847*
X0066268Y0028449*
X00668Y0028379*
Y00318*
G37*
G36*
X02527Y0026727D02*
X0252154Y0026619D01*
X0251691Y0026309*
X0251381Y0025846*
X0251273Y00253*
X0251381Y0024754*
X0251691Y0024291*
X0252154Y0023981*
X02527Y0023873*
X0253246Y0023981*
X0253709Y0024291*
X0254019Y0024754*
X0254127Y00253*
X0254019Y0025846*
X0253709Y0026309*
X0253246Y0026619*
X02527Y0026727*
G37*
G36*
X03636Y00323D02*
X0360179D01*
X0360249Y0031768*
X0360647Y0030807*
X0361281Y0029981*
X0362107Y0029347*
X0363068Y0028949*
X03636Y0028879*
Y00323*
G37*
G36*
X0071221Y00318D02*
X00678D01*
Y0028379*
X0068332Y0028449*
X0069293Y0028847*
X0070119Y0029481*
X0070753Y0030307*
X0071151Y0031268*
X0071221Y00318*
G37*
G36*
X03646Y0026721D02*
Y00233D01*
X0368021*
X0367951Y0023832*
X0367553Y0024793*
X0366919Y0025619*
X0366093Y0026253*
X0365132Y0026651*
X03646Y0026721*
G37*
G36*
X03636D02*
X0363068Y0026651D01*
X0362107Y0026253*
X0361281Y0025619*
X0360647Y0024793*
X0360249Y0023832*
X0360179Y00233*
X03636*
Y0026721*
G37*
G36*
X02291Y0026627D02*
X0228554Y0026519D01*
X0228091Y0026209*
X0227781Y0025746*
X0227673Y00252*
X0227781Y0024654*
X0228091Y0024191*
X0228554Y0023881*
X02291Y0023773*
X0229646Y0023881*
X0230109Y0024191*
X0230419Y0024654*
X0230527Y00252*
X0230419Y0025746*
X0230109Y0026209*
X0229646Y0026519*
X02291Y0026627*
G37*
G36*
X01783Y0026227D02*
X0177754Y0026119D01*
X0177291Y0025809*
X0176981Y0025346*
X0176873Y00248*
X0176981Y0024254*
X0177291Y0023791*
X0177754Y0023481*
X01783Y0023373*
X0178846Y0023481*
X0179309Y0023791*
X0179619Y0024254*
X0179727Y00248*
X0179619Y0025346*
X0179309Y0025809*
X0178846Y0026119*
X01783Y0026227*
G37*
G36*
X00678Y0046221D02*
Y00428D01*
X0071221*
X0071151Y0043332*
X0070753Y0044293*
X0070119Y0045119*
X0069293Y0045753*
X0068332Y0046151*
X00678Y0046221*
G37*
G36*
X00773Y0065682D02*
X0076425Y0065566D01*
X0075609Y0065229*
X0074909Y0064691*
X0074371Y0063991*
X0074034Y0063175*
X0073918Y00623*
X0074034Y0061425*
X0074371Y0060609*
X0074909Y0059909*
X0075609Y0059371*
X0076425Y0059034*
X00773Y0058918*
X0078175Y0059034*
X0078991Y0059371*
X0079691Y0059909*
X0080229Y0060609*
X0080566Y0061425*
X0080682Y00623*
X0080566Y0063175*
X0080229Y0063991*
X0079691Y0064691*
X0078991Y0065229*
X0078175Y0065566*
X00773Y0065682*
G37*
G36*
X0368021Y00623D02*
X03646D01*
Y0058879*
X0365132Y0058949*
X0366093Y0059347*
X0366919Y0059981*
X0367553Y0060807*
X0367951Y0061768*
X0368021Y00623*
G37*
G36*
X01234Y0063122D02*
X0122971Y0063036D01*
X0122607Y0062793*
X0122364Y0062429*
X0122278Y0062*
X0122364Y0061571*
X0122607Y0061207*
X0122971Y0060964*
X01234Y0060878*
X0123829Y0060964*
X0124193Y0061207*
X0124436Y0061571*
X0124522Y0062*
X0124436Y0062429*
X0124193Y0062793*
X0123829Y0063036*
X01234Y0063122*
G37*
G36*
X03741Y0066182D02*
X0373225Y0066066D01*
X0372409Y0065729*
X0371709Y0065191*
X0371171Y0064491*
X0370834Y0063675*
X0370718Y00628*
X0370834Y0061925*
X0371171Y0061109*
X0371709Y0060409*
X0372409Y0059871*
X0373225Y0059534*
X03741Y0059418*
X0374975Y0059534*
X0375791Y0059871*
X0376491Y0060409*
X0377029Y0061109*
X0377366Y0061925*
X0377482Y00628*
X0377366Y0063675*
X0377029Y0064491*
X0376491Y0065191*
X0375791Y0065729*
X0374975Y0066066*
X03741Y0066182*
G37*
G36*
X00668Y00618D02*
X0063379D01*
X0063449Y0061268*
X0063847Y0060307*
X0064481Y0059481*
X0065307Y0058847*
X0066268Y0058449*
X00668Y0058379*
Y00618*
G37*
G36*
X01155Y0060022D02*
X0115071Y0059936D01*
X0114707Y0059693*
X0114464Y0059329*
X0114378Y00589*
X0114464Y0058471*
X0114707Y0058107*
X0115071Y0057864*
X01155Y0057778*
X0115929Y0057864*
X0116293Y0058107*
X0116536Y0058471*
X0116622Y00589*
X0116536Y0059329*
X0116293Y0059693*
X0115929Y0059936*
X01155Y0060022*
G37*
G36*
X03636Y00623D02*
X0360179D01*
X0360249Y0061768*
X0360647Y0060807*
X0361281Y0059981*
X0362107Y0059347*
X0363068Y0058949*
X03636Y0058879*
Y00623*
G37*
G36*
X0071221Y00618D02*
X00678D01*
Y0058379*
X0068332Y0058449*
X0069293Y0058847*
X0070119Y0059481*
X0070753Y0060307*
X0071151Y0061268*
X0071221Y00618*
G37*
G36*
Y00718D02*
X00678D01*
Y0068379*
X0068332Y0068449*
X0069293Y0068847*
X0070119Y0069481*
X0070753Y0070307*
X0071151Y0071268*
X0071221Y00718*
G37*
G36*
X00668D02*
X0063379D01*
X0063449Y0071268*
X0063847Y0070307*
X0064481Y0069481*
X0065307Y0068847*
X0066268Y0068449*
X00668Y0068379*
Y00718*
G37*
G36*
X0368021Y00723D02*
X03646D01*
Y0068879*
X0365132Y0068949*
X0366093Y0069347*
X0366919Y0069981*
X0367553Y0070807*
X0367951Y0071768*
X0368021Y00723*
G37*
G36*
X03636D02*
X0360179D01*
X0360249Y0071768*
X0360647Y0070807*
X0361281Y0069981*
X0362107Y0069347*
X0363068Y0068949*
X03636Y0068879*
Y00723*
G37*
G36*
X00678Y0066221D02*
Y00628D01*
X0071221*
X0071151Y0063332*
X0070753Y0064293*
X0070119Y0065119*
X0069293Y0065753*
X0068332Y0066151*
X00678Y0066221*
G37*
G36*
X00668D02*
X0066268Y0066151D01*
X0065307Y0065753*
X0064481Y0065119*
X0063847Y0064293*
X0063449Y0063332*
X0063379Y00628*
X00668*
Y0066221*
G37*
G36*
X03646Y0066721D02*
Y00633D01*
X0368021*
X0367951Y0063832*
X0367553Y0064793*
X0366919Y0065619*
X0366093Y0066253*
X0365132Y0066651*
X03646Y0066721*
G37*
G36*
X03636D02*
X0363068Y0066651D01*
X0362107Y0066253*
X0361281Y0065619*
X0360647Y0064793*
X0360249Y0063832*
X0360179Y00633*
X03636*
Y0066721*
G37*
G36*
X01255Y0057322D02*
X0125071Y0057236D01*
X0124707Y0056993*
X0124464Y0056629*
X0124378Y00562*
X0124464Y0055771*
X0124707Y0055407*
X0125071Y0055164*
X01255Y0055078*
X0125929Y0055164*
X0126293Y0055407*
X0126536Y0055771*
X0126622Y00562*
X0126536Y0056629*
X0126293Y0056993*
X0125929Y0057236*
X01255Y0057322*
G37*
G36*
X0071221Y00518D02*
X00678D01*
Y0048379*
X0068332Y0048449*
X0069293Y0048847*
X0070119Y0049481*
X0070753Y0050307*
X0071151Y0051268*
X0071221Y00518*
G37*
G36*
X00668D02*
X0063379D01*
X0063449Y0051268*
X0063847Y0050307*
X0064481Y0049481*
X0065307Y0048847*
X0066268Y0048449*
X00668Y0048379*
Y00518*
G37*
G36*
X0368021Y00523D02*
X03646D01*
Y0048879*
X0365132Y0048949*
X0366093Y0049347*
X0366919Y0049981*
X0367553Y0050807*
X0367951Y0051768*
X0368021Y00523*
G37*
G36*
X03636D02*
X0360179D01*
X0360249Y0051768*
X0360647Y0050807*
X0361281Y0049981*
X0362107Y0049347*
X0363068Y0048949*
X03636Y0048879*
Y00523*
G37*
G36*
X03646Y0046721D02*
Y00433D01*
X0368021*
X0367951Y0043832*
X0367553Y0044793*
X0366919Y0045619*
X0366093Y0046253*
X0365132Y0046651*
X03646Y0046721*
G37*
G36*
X03636D02*
X0363068Y0046651D01*
X0362107Y0046253*
X0361281Y0045619*
X0360647Y0044793*
X0360249Y0043832*
X0360179Y00433*
X03636*
Y0046721*
G37*
G36*
X01761Y0047327D02*
X0175554Y0047219D01*
X0175091Y0046909*
X0174781Y0046446*
X0174673Y00459*
X0174781Y0045354*
X0175091Y0044891*
X0175554Y0044581*
X01761Y0044473*
X0176646Y0044581*
X0177109Y0044891*
X0177419Y0045354*
X0177527Y00459*
X0177419Y0046446*
X0177109Y0046909*
X0176646Y0047219*
X01761Y0047327*
G37*
G36*
X01838Y0046727D02*
X0183254Y0046619D01*
X0182791Y0046309*
X0182481Y0045846*
X0182373Y00453*
X0182481Y0044754*
X0182791Y0044291*
X0183254Y0043981*
X01838Y0043873*
X0184346Y0043981*
X0184809Y0044291*
X0185119Y0044754*
X0185227Y00453*
X0185119Y0045846*
X0184809Y0046309*
X0184346Y0046619*
X01838Y0046727*
G37*
G36*
X03636Y0056721D02*
X0363068Y0056651D01*
X0362107Y0056253*
X0361281Y0055619*
X0360647Y0054793*
X0360249Y0053832*
X0360179Y00533*
X03636*
Y0056721*
G37*
G36*
X00678Y0056221D02*
Y00528D01*
X0071221*
X0071151Y0053332*
X0070753Y0054293*
X0070119Y0055119*
X0069293Y0055753*
X0068332Y0056151*
X00678Y0056221*
G37*
G36*
X0178275Y0055746D02*
X01762D01*
Y0053868*
X0178275*
Y0055746*
G37*
G36*
X03646Y0056721D02*
Y00533D01*
X0368021*
X0367951Y0053832*
X0367553Y0054793*
X0366919Y0055619*
X0366093Y0056253*
X0365132Y0056651*
X03646Y0056721*
G37*
G36*
X03741Y0056182D02*
X0373225Y0056066D01*
X0372409Y0055729*
X0371709Y0055191*
X0371171Y0054491*
X0370834Y0053675*
X0370718Y00528*
X0370834Y0051925*
X0371171Y0051109*
X0371709Y0050409*
X0372409Y0049871*
X0373225Y0049534*
X03741Y0049418*
X0374975Y0049534*
X0375791Y0049871*
X0376491Y0050409*
X0377029Y0051109*
X0377366Y0051925*
X0377482Y00528*
X0377366Y0053675*
X0377029Y0054491*
X0376491Y0055191*
X0375791Y0055729*
X0374975Y0056066*
X03741Y0056182*
G37*
G36*
X00773Y0055682D02*
X0076425Y0055566D01*
X0075609Y0055229*
X0074909Y0054691*
X0074371Y0053991*
X0074034Y0053175*
X0073918Y00523*
X0074034Y0051425*
X0074371Y0050609*
X0074909Y0049909*
X0075609Y0049371*
X0076425Y0049034*
X00773Y0048918*
X0078175Y0049034*
X0078991Y0049371*
X0079691Y0049909*
X0080229Y0050609*
X0080566Y0051425*
X0080682Y00523*
X0080566Y0053175*
X0080229Y0053991*
X0079691Y0054691*
X0078991Y0055229*
X0078175Y0055566*
X00773Y0055682*
G37*
G36*
X00668Y0056221D02*
X0066268Y0056151D01*
X0065307Y0055753*
X0064481Y0055119*
X0063847Y0054293*
X0063449Y0053332*
X0063379Y00528*
X00668*
Y0056221*
G37*
G36*
X01172Y0055122D02*
X0116771Y0055036D01*
X0116407Y0054793*
X0116164Y0054429*
X0116078Y0054*
X0116164Y0053571*
X0116407Y0053207*
X0116771Y0052964*
X01172Y0052878*
X0117541Y0052946*
X011776Y0052735*
X0117872Y0052541*
X0117864Y0052529*
X0117778Y00521*
X0117864Y0051671*
X0118107Y0051307*
X0118471Y0051064*
X01189Y0050978*
X0119329Y0051064*
X0119693Y0051307*
X0119936Y0051671*
X0120022Y00521*
X0119936Y0052529*
X0119693Y0052893*
X0119329Y0053136*
X01189Y0053222*
X0118559Y0053154*
X011834Y0053365*
X0118228Y0053559*
X0118236Y0053571*
X0118322Y0054*
X0118236Y0054429*
X0117993Y0054793*
X0117629Y0055036*
X01172Y0055122*
G37*
G36*
X03746Y0116721D02*
Y01133D01*
X0378021*
X0377951Y0113832*
X0377553Y0114793*
X0376919Y0115619*
X0376093Y0116253*
X0375132Y0116651*
X03746Y0116721*
G37*
G36*
X02058Y0250221D02*
X0205371Y0250136D01*
X0205007Y0249893*
X0204764Y0249529*
X0204678Y02491*
X0204764Y0248671*
X0204984Y0248341*
Y0242738*
X0194762Y0232516*
X0161985*
X0161688Y0233016*
X0161764Y02334*
X0161656Y0233946*
X0161346Y0234409*
X0161234Y0234484*
X0161386Y0234984*
X01934*
X0193712Y0235046*
X0193977Y0235223*
X020359Y0244836*
X0203729Y0244864*
X0204093Y0245107*
X0204336Y0245471*
X0204422Y02459*
X0204336Y0246329*
X0204093Y0246693*
X0203729Y0246936*
X02033Y0247022*
X0202871Y0246936*
X0202507Y0246693*
X0202264Y0246329*
X0202178Y02459*
X0202206Y024576*
X0193062Y0236616*
X0142738*
X0142014Y023734*
X0141936Y0237729*
X0141693Y0238093*
X0141329Y0238336*
X01409Y0238422*
X0140471Y0238336*
X0140107Y0238093*
X0139864Y0237729*
X0139778Y02373*
X0139857Y0236903*
X0139836Y0236873*
X0139346Y0236707*
X0139014Y023704*
X0138936Y0237429*
X0138693Y0237793*
X0138329Y0238036*
X01379Y0238122*
X0137471Y0238036*
X0137107Y0237793*
X0136864Y0237429*
X0136778Y0237*
X0136864Y0236571*
X0137107Y0236207*
X0137471Y0235964*
X013786Y0235886*
X0142623Y0231123*
X0142782Y0231017*
X0142888Y0230946*
X01432Y0230884*
X01951*
X0195412Y0230946*
X0195677Y0231123*
X0206377Y0241823*
X0206554Y0242088*
X0206616Y02424*
Y0248341*
X0206836Y0248671*
X0206922Y02491*
X0206836Y0249529*
X0206593Y0249893*
X0206229Y0250136*
X02058Y0250221*
G37*
G36*
X02089Y0247221D02*
X0208471Y0247136D01*
X0208107Y0246893*
X0207864Y0246529*
X0207779Y02461*
X0207864Y0245671*
X0208084Y0245341*
Y0242438*
X0195762Y0230116*
X0141938*
X0135914Y023614*
X0135836Y0236529*
X0135593Y0236893*
X0135229Y0237136*
X01348Y0237222*
X0134371Y0237136*
X0134007Y0236893*
X0133764Y0236529*
X0133678Y02361*
X0133708Y0235953*
X0133247Y0235707*
X0132614Y023634*
X0132536Y0236729*
X0132293Y0237093*
X0131929Y0237336*
X01315Y0237421*
X0131071Y0237336*
X0130707Y0237093*
X0130464Y0236729*
X0130378Y02363*
X0130464Y0235871*
X0130707Y0235507*
X0131071Y0235264*
X013146Y0235186*
X0140323Y0226323*
X0140588Y0226146*
X01409Y0226084*
X0203624*
X0203849Y0225614*
X020385Y0225603*
X0202462Y0224216*
X0158704*
X0158392Y0224154*
X0158127Y0223977*
X0155466Y0221316*
X0138038*
X0129016Y0230338*
Y0231673*
X0129516Y023194*
X0129754Y0231781*
X01303Y0231673*
X0130846Y0231781*
X0131309Y0232091*
X0131619Y0232554*
X0131727Y02331*
X0131619Y0233646*
X0131309Y0234109*
X0130846Y0234419*
X01303Y0234527*
X0129754Y0234419*
X0129516Y023426*
X0129016Y0234527*
Y0236341*
X0129236Y0236671*
X0129322Y02371*
X0129236Y0237529*
X0128993Y0237893*
X0128629Y0238136*
X01282Y0238222*
X0127771Y0238136*
X0127407Y0237893*
X0127164Y0237529*
X0127078Y02371*
X0127164Y0236671*
X0127384Y0236341*
Y023*
X0127446Y0229688*
X0127623Y0229423*
X0137123Y0219923*
X0137388Y0219746*
X01377Y0219684*
X0155804*
X0156116Y0219746*
X0156381Y0219923*
X0159042Y0222584*
X02028*
X0203112Y0222646*
X0203377Y0222823*
X021544Y0234886*
X0215829Y0234964*
X0216193Y0235207*
X0216436Y0235571*
X0216522Y0236*
X0216436Y0236429*
X0216193Y0236793*
X0215829Y0237036*
X02154Y0237122*
X0214971Y0237036*
X0214607Y0236793*
X0214364Y0236429*
X0214205Y0236359*
X0213736Y0236229*
X0213493Y0236593*
X0213129Y0236836*
X02127Y0236922*
X0212271Y0236836*
X0211907Y0236593*
X0211664Y0236229*
X0211586Y023584*
X0203462Y0227716*
X0141238*
X0134802Y0234152*
X0134978Y0234683*
X0135052Y0234694*
X0141023Y0228723*
X0141182Y0228617*
X0141288Y0228546*
X01416Y0228484*
X01961*
X0196412Y0228546*
X0196677Y0228723*
X0209477Y0241523*
X0209583Y0241682*
X0209654Y0241788*
X0209716Y02421*
Y0245341*
X0209936Y0245671*
X0210021Y02461*
X0209936Y0246529*
X0209693Y0246893*
X0209329Y0247136*
X02089Y0247221*
G37*
G36*
X03292Y0249627D02*
X0328654Y0249519D01*
X0328191Y0249209*
X0327881Y0248746*
X0327773Y02482*
X0327881Y0247654*
X0328191Y0247191*
X0328654Y0246881*
X03292Y0246773*
X0329746Y0246881*
X0330209Y0247191*
X0330519Y0247654*
X0330627Y02482*
X0330519Y0248746*
X0330209Y0249209*
X0329746Y0249519*
X03292Y0249627*
G37*
G36*
X03054Y0241627D02*
X0304854Y0241519D01*
X0304391Y0241209*
X0304081Y0240746*
X0303973Y02402*
X0304081Y0239654*
X0304391Y0239191*
X0304854Y0238881*
X03054Y0238773*
X0305946Y0238881*
X0306409Y0239191*
X0306719Y0239654*
X0306827Y02402*
X0306719Y0240746*
X0306409Y0241209*
X0305946Y0241519*
X03054Y0241627*
G37*
G36*
X0261975Y0223222D02*
X0258025D01*
Y0219272*
X0261975*
Y0220486*
X0262954*
X0263007Y0220407*
X0263371Y0220164*
X02638Y0220078*
X0264229Y0220164*
X0264593Y0220407*
X0264836Y0220771*
X0264921Y02212*
X0264836Y0221629*
X0264593Y0221993*
X0264229Y0222236*
X02638Y0222322*
X0263371Y0222236*
X0263007Y0221993*
X0262954Y0221914*
X0261975*
Y0223222*
G37*
G36*
X03224Y0203922D02*
X0321971Y0203836D01*
X0321607Y0203593*
X0321364Y0203229*
X0321279Y02028*
X0321364Y0202371*
X0321607Y0202007*
X0321971Y0201764*
X03224Y0201678*
X0322829Y0201764*
X0323193Y0202007*
X0323436Y0202371*
X0323521Y02028*
X0323436Y0203229*
X0323193Y0203593*
X0322829Y0203836*
X03224Y0203922*
G37*
G36*
X0261975Y0229128D02*
X0258025D01*
Y0225178*
X0261975*
Y0226439*
X0264053*
X0264326Y0226493*
X0264557Y0226648*
X0264806Y0226897*
X02649Y0226878*
X0265329Y0226964*
X0265693Y0227207*
X0265936Y0227571*
X0266021Y0228*
X0265936Y0228429*
X0265693Y0228793*
X0265329Y0229036*
X02649Y0229121*
X0264471Y0229036*
X0264107Y0228793*
X0263864Y0228429*
X0263778Y0228*
X0263295Y0227867*
X0261975*
Y0229128*
G37*
G36*
X03243Y0222921D02*
X0323871Y0222836D01*
X0323507Y0222593*
X0323264Y0222229*
X0323179Y02218*
X0323264Y0221371*
X0323507Y0221007*
X0323871Y0220764*
X03243Y0220678*
X0324729Y0220764*
X0325093Y0221007*
X0325336Y0221371*
X0325422Y02218*
X0325336Y0222229*
X0325093Y0222593*
X0324729Y0222836*
X03243Y0222921*
G37*
G36*
X01809Y0265522D02*
X0180471Y0265436D01*
X0180107Y0265193*
X0179864Y0264829*
X0179778Y02644*
X0179864Y0263971*
X0180107Y0263607*
X0180471Y0263364*
X01809Y0263279*
X0181329Y0263364*
X0181693Y0263607*
X0181936Y0263971*
X0182022Y02644*
X0181936Y0264829*
X0181693Y0265193*
X0181329Y0265436*
X01809Y0265522*
G37*
G36*
X03293Y0264227D02*
X0328754Y0264119D01*
X0328291Y0263809*
X0327981Y0263346*
X0327873Y02628*
X0327981Y0262254*
X0328291Y0261791*
X0328754Y0261481*
X03293Y0261373*
X0329846Y0261481*
X0330309Y0261791*
X0330619Y0262254*
X0330727Y02628*
X0330619Y0263346*
X0330309Y0263809*
X0329846Y0264119*
X03293Y0264227*
G37*
G36*
X0234Y0269227D02*
X0233454Y0269119D01*
X0232991Y0268809*
X0232681Y0268346*
X0232573Y02678*
X0232681Y0267254*
X0232991Y0266791*
X0233454Y0266481*
X0234Y0266373*
X0234546Y0266481*
X0235009Y0266791*
X0235319Y0267254*
X0235427Y02678*
X0235319Y0268346*
X0235009Y0268809*
X0234546Y0269119*
X0234Y0269227*
G37*
G36*
X01783Y0267221D02*
X0177871Y0267136D01*
X0177507Y0266893*
X0177264Y0266529*
X0177178Y02661*
X0177264Y0265671*
X0177507Y0265307*
X0177871Y0265064*
X01783Y0264979*
X0178729Y0265064*
X0179093Y0265307*
X0179336Y0265671*
X0179422Y02661*
X0179336Y0266529*
X0179093Y0266893*
X0178729Y0267136*
X01783Y0267221*
G37*
G36*
X02333Y0254927D02*
X0232754Y0254819D01*
X0232291Y0254509*
X0231981Y0254046*
X0231873Y02535*
X0231981Y0252954*
X0232291Y0252491*
X0232754Y0252181*
X02333Y0252073*
X0233846Y0252181*
X0234309Y0252491*
X0234619Y0252954*
X0234727Y02535*
X0234619Y0254046*
X0234309Y0254509*
X0233846Y0254819*
X02333Y0254927*
G37*
G36*
X03192Y0253027D02*
X0318654Y0252919D01*
X0318191Y0252609*
X0317881Y0252146*
X0317773Y02516*
X0317881Y0251054*
X0318191Y0250591*
X0318654Y0250281*
X03192Y0250173*
X0319746Y0250281*
X0320209Y0250591*
X0320519Y0251054*
X0320627Y02516*
X0320519Y0252146*
X0320209Y0252609*
X0319746Y0252919*
X03192Y0253027*
G37*
G36*
X01841Y0263721D02*
X0183671Y0263636D01*
X0183307Y0263393*
X0183064Y0263029*
X0182978Y02626*
X0183064Y0262171*
X0183307Y0261807*
X0183145Y0261314*
X01623*
X0162027Y0261259*
X0161795Y0261105*
X0159594Y0258903*
X01595Y0258922*
X0159071Y0258836*
X0158707Y0258593*
X0158464Y0258229*
X0158378Y02578*
X0158404Y0257671*
X0158112Y0257239*
X0158026Y0257207*
X0157671Y0257136*
X0157307Y0256893*
X0157064Y0256529*
X0156978Y02561*
X0156551Y0255687*
X0156358Y0255649*
X0155994Y0255406*
X0155751Y0255042*
X0155717Y0254868*
X01554Y0254421*
X0154971Y0254336*
X0154607Y0254093*
X0154364Y0253729*
X0154278Y02533*
X0154364Y0252871*
X0154607Y0252507*
X0154672Y0251999*
X0154601Y0251892*
X0154516Y0251463*
X0154601Y0251034*
X0154844Y025067*
X0155208Y0250427*
X0155637Y0250341*
X0156066Y0250427*
X015643Y025067*
X0156483Y0250749*
X0183691*
X0183744Y025067*
X0184108Y0250427*
X0184537Y0250341*
X0184966Y0250427*
X018533Y025067*
X0185573Y0251034*
X0185659Y0251463*
X0185643Y025154*
X0186Y0251978*
X0186026Y0251984*
X0186429Y0252064*
X0186793Y0252307*
X0186869Y025242*
X0186973Y0252441*
X0187205Y0252595*
X0187359Y0252827*
X0187414Y02531*
X018741Y025312*
X0187813Y0253526*
X0187987Y0253491*
X0188417Y0253576*
X018878Y0253819*
X0189024Y0254183*
X0189109Y0254613*
X0189055Y0254886*
X0189349Y0255386*
X0190154*
X0190207Y0255307*
X0190571Y0255064*
X0191Y0254978*
X0191429Y0255064*
X0191793Y0255307*
X0192036Y0255671*
X0192122Y02561*
X0192036Y0256529*
X0191793Y0256893*
X0191429Y0257136*
X0191Y0257222*
X0190571Y0257136*
X0190207Y0256893*
X0190154Y0256814*
X0160765*
X0160498Y0257314*
X0160536Y0257371*
X0160622Y02578*
X0160603Y0257894*
X0162596Y0259886*
X0190154*
X0190207Y0259807*
X0190571Y0259564*
X0191Y0259478*
X0191429Y0259564*
X0191793Y0259807*
X0192036Y0260171*
X0192122Y02606*
X0192036Y0261029*
X0191793Y0261393*
X0191429Y0261636*
X0191Y0261721*
X0190571Y0261636*
X0190207Y0261393*
X0190154Y0261314*
X0185055*
X0184893Y0261807*
X0185136Y0262171*
X0185222Y02626*
X0185136Y0263029*
X0184893Y0263393*
X0184529Y0263636*
X01841Y0263721*
G37*
G36*
X03296Y0257927D02*
X0329054Y0257819D01*
X0328591Y0257509*
X0328281Y0257046*
X0328173Y02565*
X0328281Y0255954*
X0328591Y0255491*
X0329054Y0255181*
X03296Y0255073*
X0330146Y0255181*
X0330609Y0255491*
X0330919Y0255954*
X0331027Y02565*
X0330919Y0257046*
X0330609Y0257509*
X0330146Y0257819*
X03296Y0257927*
G37*
G36*
X0121Y0263021D02*
X0120571Y0262936D01*
X0120207Y0262693*
X0119964Y0262329*
X0119878Y02619*
X0119964Y0261471*
X0120184Y0261141*
Y0260918*
X0119123Y0259857*
X0118946Y0259592*
X0118884Y025928*
Y0242304*
X0118946Y0241992*
X0118984Y0241935*
Y0210638*
X011016Y0201814*
X0109771Y0201736*
X0109407Y0201493*
X0109164Y0201129*
X0109078Y02007*
X0109164Y0200271*
X0109407Y0199907*
X0109771Y0199664*
X01102Y0199578*
X0110629Y0199664*
X0110993Y0199907*
X0111236Y0200271*
X0111314Y020066*
X0119722Y0209069*
X0120184Y0208877*
Y02025*
X0120246Y0202188*
X0120423Y0201923*
X0125886Y019646*
X0125964Y0196071*
X0126207Y0195707*
X0126571Y0195464*
X0127Y0195378*
X0127429Y0195464*
X0127793Y0195707*
X0128036Y0196071*
X0128122Y01965*
X0128036Y0196929*
X0127793Y0197293*
X0127429Y0197536*
X012704Y0197614*
X0121816Y0202838*
Y0242363*
X0121977Y0242524*
X0122154Y0242789*
X0122216Y0243101*
Y0258241*
X0122436Y0258571*
X0122522Y0259*
X0122436Y0259429*
X0122193Y0259793*
X0121829Y0260036*
X012181Y026055*
X0121816Y026058*
Y0261141*
X0122036Y0261471*
X0122122Y02619*
X0122036Y0262329*
X0121793Y0262693*
X0121429Y0262936*
X0121Y0263021*
G37*
G36*
X03741Y0176182D02*
X0373225Y0176067D01*
X0372409Y0175729*
X0371709Y0175191*
X0371171Y0174491*
X0370834Y0173675*
X0370718Y01728*
X0370834Y0171925*
X0371171Y0171109*
X0371709Y0170409*
X0372409Y0169871*
X0373225Y0169534*
X03741Y0169418*
X0374975Y0169534*
X0375791Y0169871*
X0376491Y0170409*
X0377029Y0171109*
X0377366Y0171925*
X0377482Y01728*
X0377366Y0173675*
X0377029Y0174491*
X0376491Y0175191*
X0375791Y0175729*
X0374975Y0176067*
X03741Y0176182*
G37*
G36*
X00773Y0175682D02*
X0076425Y0175566D01*
X0075609Y0175229*
X0074909Y0174691*
X0074371Y0173991*
X0074034Y0173175*
X0073918Y01723*
X0074034Y0171425*
X0074371Y0170609*
X0074909Y0169909*
X0075609Y0169371*
X0076425Y0169034*
X00773Y0168918*
X0078175Y0169034*
X0078991Y0169371*
X0079691Y0169909*
X0080229Y0170609*
X0080566Y0171425*
X0080682Y01723*
X0080566Y0173175*
X0080229Y0173991*
X0079691Y0174691*
X0078991Y0175229*
X0078175Y0175566*
X00773Y0175682*
G37*
G36*
X0071253Y0176253D02*
X00678D01*
Y01728*
X0071253*
Y0176253*
G37*
G36*
X00668D02*
X0063347D01*
Y01728*
X00668*
Y0176253*
G37*
G36*
X02557Y0171627D02*
X0255154Y0171519D01*
X0254691Y0171209*
X0254381Y0170746*
X0254273Y01702*
X0254381Y0169654*
X0254691Y0169191*
X0255154Y0168881*
X02557Y0168773*
X0256246Y0168881*
X0256709Y0169191*
X0257019Y0169654*
X0257127Y01702*
X0257019Y0170746*
X0256709Y0171209*
X0256246Y0171519*
X02557Y0171627*
G37*
G36*
X0071253Y01718D02*
X00678D01*
Y0168347*
X0071253*
Y01718*
G37*
G36*
X0368053Y01723D02*
X03646D01*
Y0168847*
X0368053*
Y01723*
G37*
G36*
X03636D02*
X0360147D01*
Y0168847*
X03636*
Y01723*
G37*
G36*
X02486Y0188927D02*
X0248054Y0188819D01*
X0247591Y0188509*
X0247281Y0188046*
X0247173Y01875*
X0247281Y0186954*
X0247591Y0186491*
X0248054Y0186181*
X02486Y0186073*
X0249146Y0186181*
X0249609Y0186491*
X0249919Y0186954*
X0250027Y01875*
X0249919Y0188046*
X0249609Y0188509*
X0249146Y0188819*
X02486Y0188927*
G37*
G36*
X01716Y0187822D02*
X0171171Y0187736D01*
X0170807Y0187493*
X0170564Y0187129*
X0170478Y01867*
X0170564Y0186271*
X0170807Y0185907*
X0171171Y0185664*
X01716Y0185578*
X0172029Y0185664*
X0172393Y0185907*
X0172636Y0186271*
X0172722Y01867*
X0172636Y0187129*
X0172393Y0187493*
X0172029Y0187736*
X01716Y0187822*
G37*
G36*
X01688Y0196022D02*
X0168371Y0195936D01*
X0168007Y0195693*
X0167764Y0195329*
X0167678Y01949*
X0167764Y0194471*
X0168007Y0194107*
X0168371Y0193864*
X01688Y0193778*
X0169229Y0193864*
X0169593Y0194107*
X0169836Y0194471*
X0169922Y01949*
X0169836Y0195329*
X0169593Y0195693*
X0169229Y0195936*
X01688Y0196022*
G37*
G36*
X01957Y0192127D02*
X0195154Y0192019D01*
X0194691Y0191709*
X0194381Y0191246*
X0194273Y01907*
X0194381Y0190154*
X0194691Y0189691*
X0195154Y0189381*
X01957Y0189273*
X0196246Y0189381*
X0196709Y0189691*
X0197019Y0190154*
X0197127Y01907*
X0197019Y0191246*
X0196709Y0191709*
X0196246Y0192019*
X01957Y0192127*
G37*
G36*
X0368053Y0176753D02*
X03646D01*
Y01733*
X0368053*
Y0176753*
G37*
G36*
X03636D02*
X0360147D01*
Y01733*
X03636*
Y0176753*
G37*
G36*
X01736Y0183022D02*
X0173171Y0182936D01*
X0172807Y0182693*
X0172564Y0182329*
X0172478Y01819*
X0172564Y0181471*
X0172807Y0181107*
X0173171Y0180864*
X01736Y0180778*
X0174029Y0180864*
X0174393Y0181107*
X0174636Y0181471*
X0174722Y01819*
X0174636Y0182329*
X0174393Y0182693*
X0174029Y0182936*
X01736Y0183022*
G37*
G36*
X01993Y0177827D02*
X0198754Y0177719D01*
X0198291Y0177409*
X0197981Y0176946*
X0197873Y01764*
X0197981Y0175854*
X0198291Y0175391*
X0198754Y0175081*
X01993Y0174973*
X0199846Y0175081*
X0200309Y0175391*
X0200619Y0175854*
X0200727Y01764*
X0200619Y0176946*
X0200309Y0177409*
X0199846Y0177719*
X01993Y0177827*
G37*
G36*
X0382053Y0275153D02*
X0375347D01*
Y0268447*
X0382053*
Y0275153*
G37*
G36*
X02035Y0290882D02*
X0202625Y0290766D01*
X0201809Y0290429*
X0201109Y0289891*
X0200571Y0289191*
X0200234Y0288375*
X0200118Y02875*
X0200234Y0286625*
X0200571Y0285809*
X0201109Y0285109*
X0201809Y0284571*
X0202625Y0284234*
X02035Y0284118*
X0204375Y0284234*
X0205191Y0284571*
X0205891Y0285109*
X0206429Y0285809*
X0206766Y0286625*
X0206882Y02875*
X0206766Y0288375*
X0206429Y0289191*
X0205891Y0289891*
X0205191Y0290429*
X0204375Y0290766*
X02035Y0290882*
G37*
G36*
X01935D02*
X0192625Y0290766D01*
X0191809Y0290429*
X0191109Y0289891*
X0190571Y0289191*
X0190234Y0288375*
X0190118Y02875*
X0190234Y0286625*
X0190571Y0285809*
X0191109Y0285109*
X0191809Y0284571*
X0192625Y0284234*
X01935Y0284118*
X0194375Y0284234*
X0195191Y0284571*
X0195891Y0285109*
X0196429Y0285809*
X0196766Y0286625*
X0196882Y02875*
X0196766Y0288375*
X0196429Y0289191*
X0195891Y0289891*
X0195191Y0290429*
X0194375Y0290766*
X01935Y0290882*
G37*
G36*
X02235D02*
X0222625Y0290766D01*
X0221809Y0290429*
X0221109Y0289891*
X0220571Y0289191*
X0220234Y0288375*
X0220118Y02875*
X0220234Y0286625*
X0220571Y0285809*
X0221109Y0285109*
X0221809Y0284571*
X0222625Y0284234*
X02235Y0284118*
X0224375Y0284234*
X0225191Y0284571*
X0225891Y0285109*
X0226429Y0285809*
X0226766Y0286625*
X0226882Y02875*
X0226766Y0288375*
X0226429Y0289191*
X0225891Y0289891*
X0225191Y0290429*
X0224375Y0290766*
X02235Y0290882*
G37*
G36*
X02135D02*
X0212625Y0290766D01*
X0211809Y0290429*
X0211109Y0289891*
X0210571Y0289191*
X0210234Y0288375*
X0210118Y02875*
X0210234Y0286625*
X0210571Y0285809*
X0211109Y0285109*
X0211809Y0284571*
X0212625Y0284234*
X02135Y0284118*
X0214375Y0284234*
X0215191Y0284571*
X0215891Y0285109*
X0216429Y0285809*
X0216766Y0286625*
X0216882Y02875*
X0216766Y0288375*
X0216429Y0289191*
X0215891Y0289891*
X0215191Y0290429*
X0214375Y0290766*
X02135Y0290882*
G37*
G36*
X01235Y0290782D02*
X0122625Y0290666D01*
X0121809Y0290329*
X0121109Y0289791*
X0120571Y0289091*
X0120234Y0288275*
X0120118Y02874*
X0120234Y0286525*
X0120571Y0285709*
X0121109Y0285009*
X0121809Y0284471*
X0122625Y0284134*
X01235Y0284018*
X0124375Y0284134*
X0125191Y0284471*
X0125891Y0285009*
X0126429Y0285709*
X0126767Y0286525*
X0126882Y02874*
X0126767Y0288275*
X0126429Y0289091*
X0125891Y0289791*
X0125191Y0290329*
X0124375Y0290666*
X01235Y0290782*
G37*
G36*
X01135D02*
X0112625Y0290666D01*
X0111809Y0290329*
X0111109Y0289791*
X0110571Y0289091*
X0110233Y0288275*
X0110118Y02874*
X0110233Y0286525*
X0110571Y0285709*
X0111109Y0285009*
X0111809Y0284471*
X0112625Y0284134*
X01135Y0284018*
X0114375Y0284134*
X0115191Y0284471*
X0115891Y0285009*
X0116429Y0285709*
X0116767Y0286525*
X0116882Y02874*
X0116767Y0288275*
X0116429Y0289091*
X0115891Y0289791*
X0115191Y0290329*
X0114375Y0290666*
X01135Y0290782*
G37*
G36*
X0106853Y0290753D02*
X0100147D01*
Y0284047*
X0106853*
Y0290753*
G37*
G36*
X01435Y0290782D02*
X0142625Y0290666D01*
X0141809Y0290329*
X0141109Y0289791*
X0140571Y0289091*
X0140234Y0288275*
X0140118Y02874*
X0140234Y0286525*
X0140571Y0285709*
X0141109Y0285009*
X0141809Y0284471*
X0142625Y0284134*
X01435Y0284018*
X0144375Y0284134*
X0145191Y0284471*
X0145891Y0285009*
X0146429Y0285709*
X0146766Y0286525*
X0146882Y02874*
X0146766Y0288275*
X0146429Y0289091*
X0145891Y0289791*
X0145191Y0290329*
X0144375Y0290666*
X01435Y0290782*
G37*
G36*
X0154Y0291321D02*
Y02879D01*
X0157421*
X0157351Y0288432*
X0156953Y0289393*
X0156319Y0290219*
X0155493Y0290853*
X0154532Y0291251*
X0154Y0291321*
G37*
G36*
X0153D02*
X0152468Y0291251D01*
X0151507Y0290853*
X0150681Y0290219*
X0150047Y0289393*
X0149649Y0288432*
X0149579Y02879*
X0153*
Y0291321*
G37*
G36*
X0234Y0291421D02*
Y0288D01*
X0237421*
X0237351Y0288532*
X0236953Y0289493*
X0236319Y0290319*
X0235493Y0290953*
X0234532Y0291351*
X0234Y0291421*
G37*
G36*
X0233D02*
X0232468Y0291351D01*
X0231507Y0290953*
X0230681Y0290319*
X0230047Y0289493*
X0229649Y0288532*
X0229579Y0288*
X0233*
Y0291421*
G37*
G36*
X0344724Y0288552D02*
X0344178Y0288443D01*
X0343715Y0288134*
X0343406Y0287671*
X0343297Y0287124*
X0343406Y0286578*
X0343715Y0286115*
X0344178Y0285806*
X0344724Y0285697*
X0345271Y0285806*
X0345734Y0286115*
X0346043Y0286578*
X0346152Y0287124*
X0346043Y0287671*
X0345734Y0288134*
X0345271Y0288443*
X0344724Y0288552*
G37*
G36*
X0186853Y0290853D02*
X0180147D01*
Y0284147*
X0186853*
Y0290853*
G37*
G36*
X0134Y0291321D02*
Y02879D01*
X0137421*
X0137351Y0288432*
X0136953Y0289393*
X0136319Y0290219*
X0135493Y0290853*
X0134532Y0291251*
X0134Y0291321*
G37*
G36*
X0133D02*
X0132468Y0291251D01*
X0131507Y0290853*
X0130681Y0290219*
X0130047Y0289393*
X0129649Y0288432*
X0129579Y02879*
X0133*
Y0291321*
G37*
G36*
X0237421Y0287D02*
X0234D01*
Y0283579*
X0234532Y0283649*
X0235493Y0284047*
X0236319Y0284681*
X0236953Y0285507*
X0237351Y0286468*
X0237421Y0287*
G37*
G36*
X03782Y02813D02*
X0374779D01*
X0374849Y0280768*
X0375247Y0279807*
X0375881Y0278981*
X0376707Y0278347*
X0377668Y0277949*
X03782Y0277879*
Y02813*
G37*
G36*
X01727Y0279521D02*
X0172271Y0279436D01*
X0171907Y0279193*
X0171664Y0278829*
X0171578Y02784*
X0171664Y0277971*
X0171907Y0277607*
X0172271Y0277364*
X01727Y0277278*
X0173129Y0277364*
X0173493Y0277607*
X0173736Y0277971*
X0173822Y02784*
X0173736Y0278829*
X0173493Y0279193*
X0173129Y0279436*
X01727Y0279521*
G37*
G36*
X03057Y0282421D02*
X0305271Y0282336D01*
X0304907Y0282093*
X0304664Y0281729*
X0304578Y02813*
X0304664Y0280871*
X0304907Y0280507*
X0305271Y0280264*
X03057Y0280178*
X0306129Y0280264*
X0306493Y0280507*
X0306736Y0280871*
X0306821Y02813*
X0306736Y0281729*
X0306493Y0282093*
X0306129Y0282336*
X03057Y0282421*
G37*
G36*
X0382621Y02813D02*
X03792D01*
Y0277879*
X0379732Y0277949*
X0380693Y0278347*
X0381519Y0278981*
X0382153Y0279807*
X0382551Y0280768*
X0382621Y02813*
G37*
G36*
X0159Y0274227D02*
X0158454Y0274119D01*
X0157991Y0273809*
X0157681Y0273346*
X0157573Y02728*
X0157681Y0272254*
X0157991Y0271791*
X0158454Y0271481*
X0159Y0271373*
X0159546Y0271481*
X0160009Y0271791*
X0160319Y0272254*
X0160427Y02728*
X0160319Y0273346*
X0160009Y0273809*
X0159546Y0274119*
X0159Y0274227*
G37*
G36*
X02939Y0272821D02*
X0293471Y0272736D01*
X0293107Y0272493*
X0292864Y0272129*
X0292778Y02717*
X0292864Y0271271*
X0293107Y0270907*
X0293471Y0270664*
X02939Y0270579*
X0294329Y0270664*
X0294693Y0270907*
X0294936Y0271271*
X0295022Y02717*
X0294936Y0272129*
X0294693Y0272493*
X0294329Y0272736*
X02939Y0272821*
G37*
G36*
X01709Y0277322D02*
X0170471Y0277236D01*
X0170107Y0276993*
X0169864Y0276629*
X0169778Y02762*
X0169864Y0275771*
X0170107Y0275407*
X0170471Y0275164*
X01709Y0275079*
X0171329Y0275164*
X0171693Y0275407*
X0171936Y0275771*
X0172022Y02762*
X0171936Y0276629*
X0171693Y0276993*
X0171329Y0277236*
X01709Y0277322*
G37*
G36*
X01682Y0276022D02*
X0167771Y0275936D01*
X0167407Y0275693*
X0167164Y0275329*
X0167078Y02749*
X0167164Y0274471*
X0167407Y0274107*
X0167771Y0273864*
X01682Y0273779*
X0168629Y0273864*
X0168993Y0274107*
X0169236Y0274471*
X0169322Y02749*
X0169236Y0275329*
X0168993Y0275693*
X0168629Y0275936*
X01682Y0276022*
G37*
G36*
X0153Y02869D02*
X0149579D01*
X0149649Y0286368*
X0150047Y0285407*
X0150681Y0284581*
X0151507Y0283947*
X0152468Y0283549*
X0153Y0283479*
Y02869*
G37*
G36*
X0137421D02*
X0134D01*
Y0283479*
X0134532Y0283549*
X0135493Y0283947*
X0136319Y0284581*
X0136953Y0285407*
X0137351Y0286368*
X0137421Y02869*
G37*
G36*
X0233Y0287D02*
X0229579D01*
X0229649Y0286468*
X0230047Y0285507*
X0230681Y0284681*
X0231507Y0284047*
X0232468Y0283649*
X0233Y0283579*
Y0287*
G37*
G36*
X0157421Y02869D02*
X0154D01*
Y0283479*
X0154532Y0283549*
X0155493Y0283947*
X0156319Y0284581*
X0156953Y0285407*
X0157351Y0286368*
X0157421Y02869*
G37*
G36*
X03782Y0285721D02*
X0377668Y0285651D01*
X0376707Y0285253*
X0375881Y0284619*
X0375247Y0283793*
X0374849Y0282832*
X0374779Y02823*
X03782*
Y0285721*
G37*
G36*
X01776Y0280922D02*
X0177171Y0280836D01*
X0176807Y0280593*
X0176651Y0280359*
X0176149Y0280286*
X0176093Y0280293*
X0175729Y0280536*
X01753Y0280622*
X0174871Y0280536*
X0174507Y0280293*
X0174264Y0279929*
X0174178Y02795*
X0174264Y0279071*
X0174507Y0278707*
X0174871Y0278464*
X01753Y0278379*
X0175729Y0278464*
X0176093Y0278707*
X017625Y0278941*
X0176751Y0279014*
X0176807Y0279007*
X0177171Y0278764*
X01776Y0278678*
X0178029Y0278764*
X0178393Y0279007*
X0178636Y0279371*
X0178722Y02798*
X0178636Y0280229*
X0178393Y0280593*
X0178029Y0280836*
X01776Y0280922*
G37*
G36*
X0133Y02869D02*
X0129579D01*
X0129649Y0286368*
X0130047Y0285407*
X0130681Y0284581*
X0131507Y0283947*
X0132468Y0283549*
X0133Y0283479*
Y02869*
G37*
G36*
X03792Y0285721D02*
Y02823D01*
X0382621*
X0382551Y0282832*
X0382153Y0283793*
X0381519Y0284619*
X0380693Y0285253*
X0379732Y0285651*
X03792Y0285721*
G37*
G36*
X00668Y01718D02*
X0063347D01*
Y0168347*
X00668*
Y01718*
G37*
G36*
X03646Y0136721D02*
Y01333D01*
X0368021*
X0367951Y0133832*
X0367553Y0134793*
X0366919Y0135619*
X0366093Y0136253*
X0365132Y0136651*
X03646Y0136721*
G37*
G36*
X03636D02*
X0363068Y0136651D01*
X0362107Y0136253*
X0361281Y0135619*
X0360647Y0134793*
X0360249Y0133832*
X0360179Y01333*
X03636*
Y0136721*
G37*
G36*
X02284Y0139327D02*
X0227854Y0139219D01*
X0227391Y0138909*
X0227081Y0138446*
X0226973Y01379*
X0227081Y0137354*
X0227391Y0136891*
X0227854Y0136581*
X02284Y0136473*
X0228946Y0136581*
X0229409Y0136891*
X0229719Y0137354*
X0229827Y01379*
X0229719Y0138446*
X0229409Y0138909*
X0228946Y0139219*
X02284Y0139327*
G37*
G36*
X01793Y0139127D02*
X0178754Y0139019D01*
X0178291Y0138709*
X0177981Y0138246*
X0177873Y01377*
X0177981Y0137154*
X0178291Y0136691*
X0178754Y0136381*
X01793Y0136273*
X0179846Y0136381*
X0180309Y0136691*
X0180619Y0137154*
X0180727Y01377*
X0180619Y0138246*
X0180309Y0138709*
X0179846Y0139019*
X01793Y0139127*
G37*
G36*
X03741Y0136182D02*
X0373225Y0136066D01*
X0372409Y0135729*
X0371709Y0135191*
X0371171Y0134491*
X0370834Y0133675*
X0370718Y01328*
X0370834Y0131925*
X0371171Y0131109*
X0371709Y0130409*
X0372409Y0129871*
X0373225Y0129534*
X03741Y0129418*
X0374975Y0129534*
X0375791Y0129871*
X0376491Y0130409*
X0377029Y0131109*
X0377366Y0131925*
X0377482Y01328*
X0377366Y0133675*
X0377029Y0134491*
X0376491Y0135191*
X0375791Y0135729*
X0374975Y0136066*
X03741Y0136182*
G37*
G36*
X00773Y0135682D02*
X0076425Y0135566D01*
X0075609Y0135229*
X0074909Y0134691*
X0074371Y0133991*
X0074034Y0133175*
X0073918Y01323*
X0074034Y0131425*
X0074371Y0130609*
X0074909Y0129909*
X0075609Y0129371*
X0076425Y0129034*
X00773Y0128918*
X0078175Y0129034*
X0078991Y0129371*
X0079691Y0129909*
X0080229Y0130609*
X0080566Y0131425*
X0080682Y01323*
X0080566Y0133175*
X0080229Y0133991*
X0079691Y0134691*
X0078991Y0135229*
X0078175Y0135566*
X00773Y0135682*
G37*
G36*
X00678Y0136221D02*
Y01328D01*
X0071221*
X0071151Y0133332*
X0070753Y0134293*
X0070119Y0135119*
X0069293Y0135753*
X0068332Y0136151*
X00678Y0136221*
G37*
G36*
X00668D02*
X0066268Y0136151D01*
X0065307Y0135753*
X0064481Y0135119*
X0063847Y0134293*
X0063449Y0133332*
X0063379Y01328*
X00668*
Y0136221*
G37*
G36*
X03636Y01423D02*
X0360179D01*
X0360249Y0141768*
X0360647Y0140807*
X0361281Y0139981*
X0362107Y0139347*
X0363068Y0138949*
X03636Y0138879*
Y01423*
G37*
G36*
X0071221Y01418D02*
X00678D01*
Y0138379*
X0068332Y0138449*
X0069293Y0138847*
X0070119Y0139481*
X0070753Y0140307*
X0071151Y0141268*
X0071221Y01418*
G37*
G36*
X00773Y0145682D02*
X0076425Y0145566D01*
X0075609Y0145229*
X0074909Y0144691*
X0074371Y0143991*
X0074034Y0143175*
X0073918Y01423*
X0074034Y0141425*
X0074371Y0140609*
X0074909Y0139909*
X0075609Y0139371*
X0076425Y0139033*
X00773Y0138918*
X0078175Y0139033*
X0078991Y0139371*
X0079691Y0139909*
X0080229Y0140609*
X0080566Y0141425*
X0080682Y01423*
X0080566Y0143175*
X0080229Y0143991*
X0079691Y0144691*
X0078991Y0145229*
X0078175Y0145566*
X00773Y0145682*
G37*
G36*
X0368021Y01423D02*
X03646D01*
Y0138879*
X0365132Y0138949*
X0366093Y0139347*
X0366919Y0139981*
X0367553Y0140807*
X0367951Y0141768*
X0368021Y01423*
G37*
G36*
X01921Y0140127D02*
X0191554Y0140019D01*
X0191091Y0139709*
X0190781Y0139246*
X0190673Y01387*
X0190781Y0138154*
X0191091Y0137691*
X0191554Y0137381*
X01921Y0137273*
X0192646Y0137381*
X0193109Y0137691*
X0193419Y0138154*
X0193527Y01387*
X0193419Y0139246*
X0193109Y0139709*
X0192646Y0140019*
X01921Y0140127*
G37*
G36*
X0219Y0139627D02*
X0218454Y0139519D01*
X0217991Y0139209*
X0217681Y0138746*
X0217573Y01382*
X0217681Y0137654*
X0217991Y0137191*
X0218454Y0136881*
X0219Y0136773*
X0219546Y0136881*
X0220009Y0137191*
X0220319Y0137654*
X0220427Y01382*
X0220319Y0138746*
X0220009Y0139209*
X0219546Y0139519*
X0219Y0139627*
G37*
G36*
X00668Y01418D02*
X0063379D01*
X0063449Y0141268*
X0063847Y0140307*
X0064481Y0139481*
X0065307Y0138847*
X0066268Y0138449*
X00668Y0138379*
Y01418*
G37*
G36*
X02021Y0140327D02*
X0201554Y0140219D01*
X0201091Y0139909*
X0200781Y0139446*
X0200673Y01389*
X0200781Y0138354*
X0201091Y0137891*
X0201554Y0137581*
X02021Y0137473*
X0202646Y0137581*
X0203109Y0137891*
X0203419Y0138354*
X0203527Y01389*
X0203419Y0139446*
X0203109Y0139909*
X0202646Y0140219*
X02021Y0140327*
G37*
G36*
X0368021Y01323D02*
X03646D01*
Y0128879*
X0365132Y0128949*
X0366093Y0129347*
X0366919Y0129981*
X0367553Y0130807*
X0367951Y0131768*
X0368021Y01323*
G37*
G36*
X03636Y01223D02*
X0360179D01*
X0360249Y0121768*
X0360647Y0120807*
X0361281Y0119981*
X0362107Y0119347*
X0363068Y0118949*
X03636Y0118879*
Y01223*
G37*
G36*
X0071221Y01218D02*
X00678D01*
Y0118379*
X0068332Y0118449*
X0069293Y0118847*
X0070119Y0119481*
X0070753Y0120307*
X0071151Y0121268*
X0071221Y01218*
G37*
G36*
X00773Y0125682D02*
X0076425Y0125566D01*
X0075609Y0125229*
X0074909Y0124691*
X0074371Y0123991*
X0074034Y0123175*
X0073918Y01223*
X0074034Y0121425*
X0074371Y0120609*
X0074909Y0119909*
X0075609Y0119371*
X0076425Y0119034*
X00773Y0118918*
X0078175Y0119034*
X0078991Y0119371*
X0079691Y0119909*
X0080229Y0120609*
X0080566Y0121425*
X0080682Y01223*
X0080566Y0123175*
X0080229Y0123991*
X0079691Y0124691*
X0078991Y0125229*
X0078175Y0125566*
X00773Y0125682*
G37*
G36*
X0368021Y01223D02*
X03646D01*
Y0118879*
X0365132Y0118949*
X0366093Y0119347*
X0366919Y0119981*
X0367553Y0120807*
X0367951Y0121768*
X0368021Y01223*
G37*
G36*
X01653Y0116922D02*
X0164871Y0116836D01*
X0164507Y0116593*
X0164264Y0116229*
X0164178Y01158*
X0164264Y0115371*
X0164507Y0115007*
X0164871Y0114764*
X01653Y0114678*
X0165729Y0114764*
X0166093Y0115007*
X0166336Y0115371*
X0166422Y01158*
X0166336Y0116229*
X0166093Y0116593*
X0165729Y0116836*
X01653Y0116922*
G37*
G36*
X02338Y0115654D02*
X0231725D01*
Y0113776*
X02338*
Y0115654*
G37*
G36*
X00668Y01218D02*
X0063379D01*
X0063449Y0121268*
X0063847Y0120307*
X0064481Y0119481*
X0065307Y0118847*
X0066268Y0118449*
X00668Y0118379*
Y01218*
G37*
G36*
X0151Y0119427D02*
X0150454Y0119319D01*
X0149991Y0119009*
X0149681Y0118546*
X0149573Y0118*
X0149681Y0117454*
X0149991Y0116991*
X0150454Y0116681*
X0151Y0116573*
X0151546Y0116681*
X0152009Y0116991*
X0152319Y0117454*
X0152427Y0118*
X0152319Y0118546*
X0152009Y0119009*
X0151546Y0119319*
X0151Y0119427*
G37*
G36*
X00668Y01318D02*
X0063379D01*
X0063449Y0131268*
X0063847Y0130307*
X0064481Y0129481*
X0065307Y0128847*
X0066268Y0128449*
X00668Y0128379*
Y01318*
G37*
G36*
X03646Y0126721D02*
Y01233D01*
X0368021*
X0367951Y0123832*
X0367553Y0124793*
X0366919Y0125619*
X0366093Y0126253*
X0365132Y0126651*
X03646Y0126721*
G37*
G36*
X03636Y01323D02*
X0360179D01*
X0360249Y0131768*
X0360647Y0130807*
X0361281Y0129981*
X0362107Y0129347*
X0363068Y0128949*
X03636Y0128879*
Y01323*
G37*
G36*
X0071221Y01318D02*
X00678D01*
Y0128379*
X0068332Y0128449*
X0069293Y0128847*
X0070119Y0129481*
X0070753Y0130307*
X0071151Y0131268*
X0071221Y01318*
G37*
G36*
X00668Y0126221D02*
X0066268Y0126151D01*
X0065307Y0125753*
X0064481Y0125119*
X0063847Y0124293*
X0063449Y0123332*
X0063379Y01228*
X00668*
Y0126221*
G37*
G36*
X03741Y0126182D02*
X0373225Y0126067D01*
X0372409Y0125729*
X0371709Y0125191*
X0371171Y0124491*
X0370834Y0123675*
X0370718Y01228*
X0370834Y0121925*
X0371171Y0121109*
X0371709Y0120409*
X0372409Y0119871*
X0373225Y0119534*
X03741Y0119418*
X0374975Y0119534*
X0375791Y0119871*
X0376491Y0120409*
X0377029Y0121109*
X0377366Y0121925*
X0377482Y01228*
X0377366Y0123675*
X0377029Y0124491*
X0376491Y0125191*
X0375791Y0125729*
X0374975Y0126067*
X03741Y0126182*
G37*
G36*
X03636Y0126721D02*
X0363068Y0126651D01*
X0362107Y0126253*
X0361281Y0125619*
X0360647Y0124793*
X0360249Y0123832*
X0360179Y01233*
X03636*
Y0126721*
G37*
G36*
X00678Y0126221D02*
Y01228D01*
X0071221*
X0071151Y0123332*
X0070753Y0124293*
X0070119Y0125119*
X0069293Y0125753*
X0068332Y0126151*
X00678Y0126221*
G37*
G36*
X03741Y0146182D02*
X0373225Y0146066D01*
X0372409Y0145729*
X0371709Y0145191*
X0371171Y0144491*
X0370834Y0143675*
X0370718Y01428*
X0370834Y0141925*
X0371171Y0141109*
X0371709Y0140409*
X0372409Y0139871*
X0373225Y0139533*
X03741Y0139418*
X0374975Y0139533*
X0375791Y0139871*
X0376491Y0140409*
X0377029Y0141109*
X0377366Y0141925*
X0377482Y01428*
X0377366Y0143675*
X0377029Y0144491*
X0376491Y0145191*
X0375791Y0145729*
X0374975Y0146066*
X03741Y0146182*
G37*
G36*
X03736Y01623D02*
X0370179D01*
X0370249Y0161768*
X0370647Y0160807*
X0371281Y0159981*
X0372107Y0159347*
X0373068Y0158949*
X03736Y0158879*
Y01623*
G37*
G36*
X0368021D02*
X03646D01*
Y0158879*
X0365132Y0158949*
X0366093Y0159347*
X0366919Y0159981*
X0367553Y0160807*
X0367951Y0161768*
X0368021Y01623*
G37*
G36*
X02488Y0165027D02*
X0248254Y0164919D01*
X0247791Y0164609*
X0247481Y0164146*
X0247373Y01636*
X0247481Y0163054*
X0247791Y0162591*
X0248254Y0162281*
X02488Y0162173*
X0249346Y0162281*
X0249809Y0162591*
X0250119Y0163054*
X0250227Y01636*
X0250119Y0164146*
X0249809Y0164609*
X0249346Y0164919*
X02488Y0165027*
G37*
G36*
X0378021Y01623D02*
X03746D01*
Y0158879*
X0375132Y0158949*
X0376093Y0159347*
X0376919Y0159981*
X0377553Y0160807*
X0377951Y0161768*
X0378021Y01623*
G37*
G36*
X00768Y01618D02*
X0073379D01*
X0073449Y0161268*
X0073847Y0160307*
X0074481Y0159481*
X0075307Y0158847*
X0076268Y0158449*
X00768Y0158379*
Y01618*
G37*
G36*
X0071221D02*
X00678D01*
Y0158379*
X0068332Y0158449*
X0069293Y0158847*
X0070119Y0159481*
X0070753Y0160307*
X0071151Y0161268*
X0071221Y01618*
G37*
G36*
X03636Y01623D02*
X0360179D01*
X0360249Y0161768*
X0360647Y0160807*
X0361281Y0159981*
X0362107Y0159347*
X0363068Y0158949*
X03636Y0158879*
Y01623*
G37*
G36*
X0081221Y01618D02*
X00778D01*
Y0158379*
X0078332Y0158449*
X0079293Y0158847*
X0080119Y0159481*
X0080753Y0160307*
X0081151Y0161268*
X0081221Y01618*
G37*
G36*
X03646Y0166721D02*
Y01633D01*
X0368021*
X0367951Y0163832*
X0367553Y0164793*
X0366919Y0165619*
X0366093Y0166253*
X0365132Y0166651*
X03646Y0166721*
G37*
G36*
X03636D02*
X0363068Y0166651D01*
X0362107Y0166253*
X0361281Y0165619*
X0360647Y0164793*
X0360249Y0163832*
X0360179Y01633*
X03636*
Y0166721*
G37*
G36*
X03746D02*
Y01633D01*
X0378021*
X0377951Y0163832*
X0377553Y0164793*
X0376919Y0165619*
X0376093Y0166253*
X0375132Y0166651*
X03746Y0166721*
G37*
G36*
X03736D02*
X0373068Y0166651D01*
X0372107Y0166253*
X0371281Y0165619*
X0370647Y0164793*
X0370249Y0163832*
X0370179Y01633*
X03736*
Y0166721*
G37*
G36*
X00678Y0166221D02*
Y01628D01*
X0071221*
X0071151Y0163332*
X0070753Y0164293*
X0070119Y0165119*
X0069293Y0165753*
X0068332Y0166151*
X00678Y0166221*
G37*
G36*
X00668D02*
X0066268Y0166151D01*
X0065307Y0165753*
X0064481Y0165119*
X0063847Y0164293*
X0063449Y0163332*
X0063379Y01628*
X00668*
Y0166221*
G37*
G36*
X00778D02*
Y01628D01*
X0081221*
X0081151Y0163332*
X0080753Y0164293*
X0080119Y0165119*
X0079293Y0165753*
X0078332Y0166151*
X00778Y0166221*
G37*
G36*
X00768D02*
X0076268Y0166151D01*
X0075307Y0165753*
X0074481Y0165119*
X0073847Y0164293*
X0073449Y0163332*
X0073379Y01628*
X00768*
Y0166221*
G37*
G36*
X00668Y01618D02*
X0063379D01*
X0063449Y0161268*
X0063847Y0160307*
X0064481Y0159481*
X0065307Y0158847*
X0066268Y0158449*
X00668Y0158379*
Y01618*
G37*
G36*
Y01518D02*
X0063379D01*
X0063449Y0151268*
X0063847Y0150307*
X0064481Y0149481*
X0065307Y0148847*
X0066268Y0148449*
X00668Y0148379*
Y01518*
G37*
G36*
X03646Y0146721D02*
Y01433D01*
X0368021*
X0367951Y0143832*
X0367553Y0144793*
X0366919Y0145619*
X0366093Y0146253*
X0365132Y0146651*
X03646Y0146721*
G37*
G36*
X03636Y01523D02*
X0360179D01*
X0360249Y0151768*
X0360647Y0150807*
X0361281Y0149981*
X0362107Y0149347*
X0363068Y0148949*
X03636Y0148879*
Y01523*
G37*
G36*
X0071221Y01518D02*
X00678D01*
Y0148379*
X0068332Y0148449*
X0069293Y0148847*
X0070119Y0149481*
X0070753Y0150307*
X0071151Y0151268*
X0071221Y01518*
G37*
G36*
X00668Y0146221D02*
X0066268Y0146151D01*
X0065307Y0145753*
X0064481Y0145119*
X0063847Y0144293*
X0063449Y0143332*
X0063379Y01428*
X00668*
Y0146221*
G37*
G36*
X01689Y0142327D02*
X0168354Y0142219D01*
X0167891Y0141909*
X0167581Y0141446*
X0167473Y01409*
X0167581Y0140354*
X0167891Y0139891*
X0168354Y0139581*
X01689Y0139473*
X0169446Y0139581*
X0169909Y0139891*
X0170219Y0140354*
X0170327Y01409*
X0170219Y0141446*
X0169909Y0141909*
X0169446Y0142219*
X01689Y0142327*
G37*
G36*
X03636Y0146721D02*
X0363068Y0146651D01*
X0362107Y0146253*
X0361281Y0145619*
X0360647Y0144793*
X0360249Y0143832*
X0360179Y01433*
X03636*
Y0146721*
G37*
G36*
X00678Y0146221D02*
Y01428D01*
X0071221*
X0071151Y0143332*
X0070753Y0144293*
X0070119Y0145119*
X0069293Y0145753*
X0068332Y0146151*
X00678Y0146221*
G37*
G36*
X03636Y0156721D02*
X0363068Y0156651D01*
X0362107Y0156253*
X0361281Y0155619*
X0360647Y0154793*
X0360249Y0153832*
X0360179Y01533*
X03636*
Y0156721*
G37*
G36*
X00678Y0156221D02*
Y01528D01*
X0071221*
X0071151Y0153332*
X0070753Y0154293*
X0070119Y0155119*
X0069293Y0155753*
X0068332Y0156151*
X00678Y0156221*
G37*
G36*
X01984Y0156527D02*
X0197854Y0156419D01*
X0197391Y0156109*
X0197081Y0155646*
X0196973Y01551*
X0197081Y0154554*
X0197391Y0154091*
X0197854Y0153781*
X01984Y0153673*
X0198946Y0153781*
X0199409Y0154091*
X0199719Y0154554*
X0199827Y01551*
X0199719Y0155646*
X0199409Y0156109*
X0198946Y0156419*
X01984Y0156527*
G37*
G36*
X03646Y0156721D02*
Y01533D01*
X0368021*
X0367951Y0153832*
X0367553Y0154793*
X0366919Y0155619*
X0366093Y0156253*
X0365132Y0156651*
X03646Y0156721*
G37*
G36*
X00773Y0155682D02*
X0076425Y0155567D01*
X0075609Y0155229*
X0074909Y0154691*
X0074371Y0153991*
X0074034Y0153175*
X0073918Y01523*
X0074034Y0151425*
X0074371Y0150609*
X0074909Y0149909*
X0075609Y0149371*
X0076425Y0149033*
X00773Y0148918*
X0078175Y0149033*
X0078991Y0149371*
X0079691Y0149909*
X0080229Y0150609*
X0080566Y0151425*
X0080682Y01523*
X0080566Y0153175*
X0080229Y0153991*
X0079691Y0154691*
X0078991Y0155229*
X0078175Y0155567*
X00773Y0155682*
G37*
G36*
X0368021Y01523D02*
X03646D01*
Y0148879*
X0365132Y0148949*
X0366093Y0149347*
X0366919Y0149981*
X0367553Y0150807*
X0367951Y0151768*
X0368021Y01523*
G37*
G36*
X00668Y0156221D02*
X0066268Y0156151D01*
X0065307Y0155753*
X0064481Y0155119*
X0063847Y0154293*
X0063449Y0153332*
X0063379Y01528*
X00668*
Y0156221*
G37*
G36*
X03741Y0156182D02*
X0373225Y0156067D01*
X0372409Y0155729*
X0371709Y0155191*
X0371171Y0154491*
X0370834Y0153675*
X0370718Y01528*
X0370834Y0151925*
X0371171Y0151109*
X0371709Y0150409*
X0372409Y0149871*
X0373225Y0149533*
X03741Y0149418*
X0374975Y0149533*
X0375791Y0149871*
X0376491Y0150409*
X0377029Y0151109*
X0377366Y0151925*
X0377482Y01528*
X0377366Y0153675*
X0377029Y0154491*
X0376491Y0155191*
X0375791Y0155729*
X0374975Y0156067*
X03741Y0156182*
G37*
%LNhighspeed_v0-3*%
%LPD*%
G54D12*
X01841Y0112554D03*
Y0106846D03*
X01669Y0056446D03*
Y0062154D03*
X01757Y0056246D03*
Y0061954D03*
X02343Y0116154D03*
Y0110446D03*
G54D13*
X0263854Y00846D03*
X0258146D03*
X02169Y00622D03*
X0222609D03*
X0207446Y01039D03*
X0213154D03*
X0213346Y01117D03*
X0219054D03*
X0263854Y00893D03*
X0258146D03*
G54D14*
X02887Y0072031D03*
Y0075968D03*
X0285Y0072031D03*
Y0075968D03*
X01544Y0059832D03*
Y0063769D03*
G54D15*
X0234754Y00573D03*
X0229046D03*
G54D16*
X0232294Y0055528D03*
X0231506Y0059072D03*
G54D29*
X0217955Y0090153D03*
Y0092121D03*
X0249845Y0074405D03*
Y0076373D03*
Y0078342D03*
Y008031D03*
Y0082279D03*
Y0084247D03*
Y0086216D03*
Y0088184D03*
Y0090153D03*
Y0092121D03*
Y009409D03*
Y0096058D03*
Y0098027D03*
Y0099995D03*
X0217955D03*
Y0098027D03*
Y0096058D03*
Y009409D03*
Y0084247D03*
Y0082279D03*
Y008031D03*
Y0078342D03*
Y0076373D03*
Y0074405D03*
Y0088184D03*
Y0086216D03*
G54D30*
X0221105Y0071255D03*
X0223073D03*
X0225042D03*
X022701D03*
X0228979D03*
X0230947D03*
X0232916D03*
X0234884D03*
X0236853D03*
X0238821D03*
X024079D03*
X0242758D03*
X0244727D03*
X0246695D03*
Y0103145D03*
X0244727D03*
X0242758D03*
X024079D03*
X0238821D03*
X0236853D03*
X0234884D03*
X0232916D03*
X0230947D03*
X0228979D03*
X022701D03*
X0225042D03*
X0223073D03*
X0221105D03*
G54D31*
X02339Y00872D03*
G54D32*
X026Y0221247D03*
Y0227153D03*
G54D39*
X02591Y0090254D02*
Y0094D01*
X0258146Y00893D02*
X02591Y0090254D01*
X02268Y00671D02*
X022701Y006731D01*
X0158704Y02234D02*
X02028D01*
X02154Y0236*
X01416Y02293D02*
X01961D01*
X02089Y02421D02*
Y02461D01*
X01961Y02293D02*
X02089Y02421D01*
X02038Y02269D02*
X02127Y02358D01*
X01409Y02269D02*
X02038D01*
X01951Y02317D02*
X02058Y02424D01*
Y02491*
X01934Y02358D02*
X02034Y02458D01*
X01424Y02358D02*
X01934D01*
X02033Y02459D02*
X02034Y02458D01*
X01377Y02205D02*
X0155804D01*
X01282Y023D02*
X01377Y02205D01*
X01409Y02373D02*
X01424Y02358D01*
X01348Y02361D02*
X01416Y02293D01*
X01315Y02363D02*
X01409Y02269D01*
X01282Y023D02*
Y02371D01*
X01432Y02317D02*
X01951D01*
X0155804Y02205D02*
X0158704Y02234D01*
X01379Y0237D02*
X01432Y02317D01*
X01214Y0243101D02*
Y0259D01*
X0121Y0242701D02*
X01214Y0243101D01*
X01198Y02103D02*
Y0242204D01*
X01102Y02007D02*
X01198Y02103D01*
X01197Y025928D02*
X0121Y026058D01*
X01197Y0242304D02*
Y025928D01*
Y0242304D02*
X01198Y0242204D01*
X0121Y02025D02*
Y0242701D01*
Y02025D02*
X0127Y01965D01*
X0121Y026058D02*
Y02619D01*
X0231506Y0059072D02*
Y0061706D01*
X02329Y00631*
X025703Y0088184D02*
X0258146Y00893D01*
X0249845Y0088184D02*
X025703D01*
X02064Y00765D02*
X0212179Y0082279D01*
X0217955*
X01669Y0062154D02*
Y00659D01*
X01668Y0066D02*
X01669Y00659D01*
X0219054Y01117D02*
X02226D01*
X02231Y01112*
Y01081D02*
Y01112D01*
X022701Y006731D02*
Y0071255D01*
X0230947Y0065047D02*
Y0071255D01*
X02309Y0065D02*
X0230947Y0065047D01*
X0232916Y0067316D02*
Y0071255D01*
X02328Y00672D02*
X0232916Y0067316D01*
X0234884Y0067616D02*
Y0071255D01*
Y0067616D02*
X02353Y00672D01*
X0161568Y0063769D02*
X01627Y00649D01*
X01544Y0063769D02*
X0161568D01*
X01544Y0059832D02*
X0158132D01*
X01603Y0062*
X0230947Y0103145D02*
Y0106953D01*
X02304Y01075D02*
X0230947Y0106953D01*
G54D40*
X02214Y0066837D02*
X0223073Y0065164D01*
X02214Y0066837D02*
Y0068163D01*
X0223073Y0062665D02*
Y0065164D01*
X0221105Y0070005D02*
Y0071255D01*
X02201Y0069D02*
X0221105Y0070005D01*
X02201Y00664D02*
Y0069D01*
X0223073Y00699D02*
Y0071255D01*
Y00699D02*
X0223137D01*
X02214Y0068163D02*
X0223137Y00699D01*
X0258146Y00837D02*
X0258153D01*
X0234373Y0110373D02*
X02385Y01145D01*
X0249845Y008031D02*
X0284358D01*
X0249845Y009409D02*
X025511D01*
X02555Y00937*
X01757Y0061954D02*
X01769Y0063154D01*
Y00671*
X0258146Y00837D02*
Y00846D01*
X0257178Y0082725D02*
X0258153Y00837D01*
X0254275Y0082725D02*
X0257178D01*
X02541Y00829D02*
X0254275Y0082725D01*
X0284358Y008031D02*
X02887Y0075968D01*
X0249845Y0078342D02*
X0282627D01*
X0285Y0075968*
X01803Y01069D02*
X01841D01*
Y0106846D02*
Y01069D01*
X0142232Y0063769D02*
X01544D01*
X01405Y00655D02*
X0142232Y0063769D01*
X0186Y02531D02*
X01867D01*
X0184363Y0251463D02*
X0184537D01*
X0264053Y0227153D02*
X02649Y0228D01*
X026Y0227153D02*
X0264053D01*
X026Y0221247D02*
X0260047Y02212D01*
X02638*
X0223073Y0071255D02*
X02232Y0071128D01*
X02231Y0103172D02*
Y01081D01*
X0223073Y0103145D02*
X02231Y0103172D01*
X02272Y0103335D02*
Y01092D01*
X022701Y0103145D02*
X02272Y0103335D01*
X0222609Y00622D02*
X0223073Y0062665D01*
X0171346Y0061954D02*
X01757D01*
X01712Y00621D02*
X0171346Y0061954D01*
X0155637Y0251463D02*
X0184363D01*
X0156787Y0254613D02*
X0187987D01*
X01581Y02561D02*
X0191D01*
X01595Y02578D02*
X01623Y02606D01*
X0184363Y0251463D02*
X01846Y02517D01*
X01554Y02533D02*
X0186D01*
X01623Y02606D02*
X0191D01*
X02682Y00663D02*
X02685Y00666D01*
X02618Y00648D02*
X02621Y00645D01*
X0244727Y0067673D02*
Y0071255D01*
Y0067673D02*
X02461Y00663D01*
X02682*
X0242758Y0067142D02*
Y0071255D01*
Y0067142D02*
X02451Y00648D01*
X02618*
X0236853Y0066747D02*
Y0071255D01*
Y0066747D02*
X02451Y00585D01*
X02663*
X0238821Y0066879D02*
Y0071255D01*
X024079Y006701D02*
Y0071255D01*
Y006701D02*
X02446Y00632D01*
X0273*
X0238821Y0066879D02*
X02452Y00605D01*
X02638*
X0234884Y0103145D02*
Y0107016D01*
X02348Y01071D02*
X0234884Y0107016D01*
X0236853Y0103145D02*
Y0106753D01*
X02369Y01068*
X02385Y01145D02*
Y01149D01*
X024079Y0103145D02*
Y010719D01*
X02428Y01092*
X0238821Y0103145D02*
Y0107821D01*
X02412Y01102*
X0242758Y0103145D02*
Y0106458D01*
X02442Y01079*
X0244727Y0103145D02*
Y0105927D01*
X02454Y01066D02*
X02455Y01065D01*
X0244727Y0105927D02*
X02454Y01066D01*
X0246695Y0103145D02*
X0252345D01*
X02525Y01033*
X0249845Y0096058D02*
X0255058D01*
X02551Y00961*
X0249845Y0092121D02*
X0254179D01*
X02543Y0092*
X0249845Y0090153D02*
X0253947D01*
X02541Y009*
X0214742Y0096058D02*
X0217955D01*
X0213346Y0097454D02*
X0214742Y0096058D01*
X0213346Y0097454D02*
Y0107154D01*
X0285Y00593D02*
Y0072031D01*
X02576Y00319D02*
X0285Y00593D01*
X01716Y00319D02*
X02576D01*
X01367Y00668D02*
X01716Y00319D01*
X01334Y00671D02*
X01703Y00302D01*
X02589*
X02887Y006*
Y0072031*
X0249845Y0076373D02*
X0255873D01*
X02559Y00764*
X024684Y00714D02*
X02562D01*
X0246695Y0071255D02*
X024684Y00714D01*
X02224Y00615D02*
X02262D01*
X0196275Y00984D02*
X0197863D01*
X0208263Y0088*
X01972Y00968D02*
X02076Y00864D01*
X02104Y009015D02*
X021055Y00903D01*
X02104Y009205D02*
X021055Y00919D01*
X0196275Y00968D02*
X01972D01*
X01961Y0098575D02*
X0196275Y00984D01*
X01961Y0096625D02*
X0196275Y00968D01*
X0208263Y0088D02*
X0217771D01*
X0217955Y0088184*
X02076Y00864D02*
X02169D01*
X0217084Y0086216*
X0217955*
X021055Y00919D02*
X02169D01*
X0217121Y0092121*
X0217955*
X021055Y00903D02*
X0217808D01*
X0217955Y0090153*
G54D42*
X0223Y00675D02*
X022317D01*
X0225042Y0069371*
Y0071255*
X025653Y0086216D02*
X0258146Y00846D01*
X0249845Y0086216D02*
X025653D01*
X0232916Y0103145D02*
Y0109061D01*
X02343Y0110446*
X0188046Y0112554D02*
X01881Y01125D01*
X01841Y0112554D02*
X0188046D01*
X02155Y00606D02*
X02162Y00613D01*
X02143Y00606D02*
X02155D01*
X02122Y00585D02*
X02143Y00606D01*
X02168Y00621D02*
X02169Y00622D01*
X0228979Y0057367D02*
X0229046Y00573D01*
X0228979Y0057367D02*
Y0071255D01*
X0232294Y0052906D02*
Y0055528D01*
Y0052906D02*
X02335Y00517D01*
X0263854Y00846D02*
X02714D01*
X0263854Y00893D02*
X02698D01*
X027Y00895*
X01669Y00526D02*
X0167Y00527D01*
X01669Y00526D02*
Y0056446D01*
X0165Y00508D02*
X01651D01*
X01669Y00526*
Y0056446D02*
X01755D01*
X01757Y0056246*
X02079Y01117D02*
X0213346D01*
X02077Y01115D02*
X02079Y01117D01*
X02074Y01039D02*
X0207446D01*
X02043Y0107D02*
X02074Y01039D01*
X0221105Y0103145D02*
Y0105195D01*
X02196Y01067D02*
X0221105Y0105195D01*
X02184Y01067D02*
X02196D01*
X0225042Y0096058D02*
Y0103145D01*
Y0096058D02*
X0227404Y0093696D01*
X0228979Y0092121D02*
Y0103145D01*
Y0092121D02*
X02339Y00872D01*
X0227404Y0093696D02*
X0228979Y0092121D01*
X02343Y0116154D02*
Y01201D01*
X02342Y01202D02*
X02343Y01201D01*
G54D45*
X01835Y02875D03*
X01035Y02874D03*
G54D46*
X01935Y02875D03*
X02035D03*
X02135D03*
X02235D03*
X02335D03*
X00773Y00223D03*
X00673D03*
X00773Y00323D03*
X00673D03*
X00773Y00423D03*
X00673D03*
X00773Y00523D03*
X00673D03*
X00773Y00623D03*
X00673D03*
X00773Y00723D03*
X00673D03*
X00773Y00823D03*
X00673D03*
X00773Y00923D03*
X00673D03*
X00773Y01023D03*
X00673D03*
X00773Y01123D03*
X00673D03*
X00773Y01223D03*
X00673D03*
X00773Y01323D03*
X00673D03*
X00773Y01423D03*
X00673D03*
X00773Y01523D03*
X00673D03*
X00773Y01623D03*
X00673D03*
X00773Y01723D03*
X03741Y00228D03*
X03641D03*
X03741Y00328D03*
X03641D03*
X03741Y00428D03*
X03641D03*
X03741Y00528D03*
X03641D03*
X03741Y00628D03*
X03641D03*
X03741Y00728D03*
X03641D03*
X03741Y00828D03*
X03641D03*
X03741Y00928D03*
X03641D03*
X03741Y01028D03*
X03641D03*
X03741Y01128D03*
X03641D03*
X03741Y01228D03*
X03641D03*
X03741Y01328D03*
X03641D03*
X03741Y01428D03*
X03641D03*
X03741Y01528D03*
X03641D03*
X03741Y01628D03*
X03641D03*
X03741Y01728D03*
X03787Y02818D03*
X01135Y02874D03*
X01235D03*
X01335D03*
X01435D03*
X01535D03*
G54D47*
X00673Y01723D03*
X03641Y01728D03*
X03787Y02718D03*
G54D48*
X01761Y00459D03*
X02591Y0094D03*
X02268Y00671D03*
X01769D03*
X02541Y00829D03*
X0223Y00675D03*
X0151Y0118D03*
X02333Y02535D03*
X0234Y02678D03*
X0344724Y0287124D03*
X01303Y02331D03*
X02021Y01389D03*
X01783Y00248D03*
X02557Y01702D03*
X01984Y01551D03*
X01993Y01764D03*
X01957Y01907D03*
X03095Y02559D03*
X03127Y02437D03*
X03054Y02402D03*
X03192Y02516D03*
X03292Y02482D03*
X03296Y02565D03*
X03293Y02628D03*
X03468Y02564D03*
X03461Y02478D03*
X03526Y02556D03*
X03582Y02813D03*
X03502Y02747D03*
X01181Y02415D03*
X01062Y02334D03*
X01061Y02281D03*
X01019Y02439D03*
X01058Y02677D03*
X01174Y02642D03*
X01057Y0248D03*
Y02523D03*
X01395Y02226D03*
X01249Y02228D03*
X0160337Y02334D03*
X01771Y02391D03*
X01779Y0258D03*
X01611Y0238D03*
X0159Y02728D03*
X01675Y02684D03*
X0157Y02241D03*
X00984Y02707D03*
X02291Y00252D03*
X01838Y00453D03*
X01921Y01387D03*
X02488Y01636D03*
X02329Y00631D03*
X01603Y0062D03*
X0132Y00903D03*
X02385Y01149D03*
X02486Y01875D03*
X02126Y00406D03*
X02527Y00253D03*
X0213346Y0107154D03*
X01803Y01069D03*
X01347Y00768D03*
X01712Y00621D03*
X02284Y01379D03*
X0219Y01382D03*
X01793Y01377D03*
X01689Y01409D03*
X02298Y00366D03*
X02234Y00387D03*
G54D49*
X02555Y00937D03*
X02154Y0236D03*
X02127Y02358D03*
X02089Y02461D03*
X02058Y02491D03*
X02033Y02459D03*
X01409Y02373D03*
X01348Y02361D03*
X01315Y02363D03*
X01282Y02371D03*
X01379Y0237D03*
X01255Y00562D03*
X01234Y0062D03*
X02598Y00684D03*
X01234Y02547D03*
X01417Y024D03*
X02071Y01498D03*
X01808Y00365D03*
X01783Y00109D03*
X0260446Y0180754D03*
X02481Y02482D03*
X01579Y01917D03*
X01405Y00655D03*
X0186Y02531D03*
X0184537Y0251463D03*
X01736Y01819D03*
X01716Y01867D03*
X01688Y01949D03*
X01783Y02661D03*
X01809Y02644D03*
X01841Y02626D03*
X02122Y00585D03*
X02117Y0076D03*
X01996D03*
X0194Y00759D03*
X01818Y00754D03*
X01114Y02085D03*
X01102Y02007D03*
X0121Y02619D03*
X0127Y01965D03*
X01214Y0259D03*
X01293Y02085D03*
X02494Y02244D03*
X026Y02108D03*
X02687Y02106D03*
X03224Y02028D03*
X0216Y0178D03*
X02161Y01851D03*
X02159Y0191D03*
X01825Y02199D03*
X02003Y0231D03*
X02306Y02738D03*
X02483Y02724D03*
X02559Y02548D03*
X02764Y02874D03*
X02703Y02751D03*
X02939Y02717D03*
X02999Y02814D03*
X03057Y02813D03*
X03212Y02879D03*
X03174Y0212D03*
X03288Y02142D03*
X03243Y02218D03*
X02928Y02267D03*
Y01975D03*
X02862Y01966D03*
X02649Y0228D03*
X02638Y02212D03*
X02378Y02392D03*
X02094Y02096D03*
X02362Y02086D03*
X0229Y02095D03*
X02986Y02711D03*
X01861Y01485D03*
X02359Y01691D03*
X02335Y00517D03*
X01591Y00508D03*
X02714Y00846D03*
X02231Y01081D03*
X02272Y01092D03*
X02201Y00664D03*
X027Y00895D03*
X02064Y00765D03*
X01668Y0066D03*
X01202Y00862D03*
X01206Y00807D03*
X01653Y01158D03*
X0164779Y0107979D03*
X01687Y01079D03*
X01881Y01125D03*
X01559Y0126D03*
X01617Y01261D03*
X01682Y02749D03*
X01709Y02762D03*
X01727Y02784D03*
X01753Y02795D03*
X01776Y02798D03*
X01155Y00589D03*
X01172Y0054D03*
X01189Y00521D03*
X0155637Y0251463D03*
X01554Y02533D03*
X0156787Y0254613D03*
X01581Y02561D03*
X01595Y02578D03*
X0187987Y0254613D03*
X0191Y02561D03*
Y02606D03*
X02685Y00666D03*
X02621Y00645D03*
X0273Y00632D03*
X02663Y00585D03*
X02638Y00605D03*
X02348Y01071D03*
X02369Y01068D03*
X02428Y01092D03*
X02412Y01102D03*
X02442Y01079D03*
X02455Y01065D03*
X02525Y01033D03*
X02551Y00961D03*
X02543Y0092D03*
X02541Y009D03*
X01381Y00897D03*
X01943Y00362D03*
X01705Y00456D03*
X0165Y00508D03*
X02359Y00153D03*
X02077Y01115D03*
X02043Y0107D03*
X02184Y01067D03*
X01334Y00671D03*
X01367Y00668D03*
X02559Y00764D03*
X02562Y00714D03*
X02309Y0065D03*
X02328Y00672D03*
X02353D03*
X01627Y00649D03*
X01737Y01181D03*
X0177Y01071D03*
X02342Y01202D03*
X02304Y01075D03*
X02262Y00615D03*
G54D50*
X0244727Y0098027D03*
X0240396D03*
X0236065D03*
X0231735D03*
X0227404D03*
X0223073D03*
X0244727Y0093696D03*
X0240396D03*
X0236065D03*
X0231735D03*
X0227404D03*
X0223073D03*
X0244727Y0089365D03*
X0240396D03*
X0236065D03*
X0231735D03*
X0227404D03*
X0223073D03*
X0244727Y0085035D03*
X0240396D03*
X0236065D03*
X0231735D03*
X0227404D03*
X0223073D03*
X0244727Y0080704D03*
X0240396D03*
X0236065D03*
X0231735D03*
X0227404D03*
X0223073D03*
X0244727Y0076373D03*
X0240396D03*
X0236065D03*
X0231735D03*
X0227404D03*
X0223073D03*
X0170627Y0075873D03*
X0166296D03*
X0161965D03*
X0157635D03*
X0153304D03*
X0148973D03*
X0170627Y0080204D03*
X0166296D03*
X0161965D03*
X0157635D03*
X0153304D03*
X0148973D03*
X0170627Y0084535D03*
X0166296D03*
X0161965D03*
X0157635D03*
X0153304D03*
X0148973D03*
X0170627Y0088865D03*
X0166296D03*
X0161965D03*
X0157635D03*
X0153304D03*
X0148973D03*
X0170627Y0093196D03*
X0166296D03*
X0161965D03*
X0157635D03*
X0153304D03*
X0148973D03*
X0170627Y0097527D03*
X0166296D03*
X0161965D03*
X0157635D03*
X0153304D03*
X0148973D03*
G54D51*
X0131613Y0262487D03*
X0136338D03*
X0141062D03*
X0145787D03*
X0131613Y0257762D03*
X0136338D03*
X0141062D03*
X0145787D03*
X0131613Y0253038D03*
X0136338D03*
X0141062D03*
X0145787D03*
X0131613Y0248313D03*
X0136338D03*
X0141062D03*
X0145787D03*
G54D52*
X03209Y02668D03*
X02104Y009015D03*
Y009205D03*
X01961Y0098575D03*
Y0096625D03*
M02*